M48
; DRILL file {KiCad (5.1.5)-3} date 1/24/2020 3:12:53 PM
; FORMAT={-:-/ absolute / inch / decimal}
; #@! TF.CreationDate,2020-01-24T15:12:53-05:00
; #@! TF.GenerationSoftware,Kicad,Pcbnew,(5.1.5)-3
; #@! TF.FileFunction,Plated,1,2,PTH
FMAT,2
INCH
T1C0.0217
T2C0.0315
T3C0.0394
T4C0.0728
%
G90
G05
T1
X3.25Y-2.65
X3.2Y-3.65
X3.25Y-3.65
X3.2Y-2.9
X3.25Y-2.9
X3.3Y-2.9
X3.2Y-2.65
X3.3Y-2.65
X3.2Y-3.4
X3.25Y-3.4
X3.3Y-3.4
X3.2Y-3.15
X3.25Y-3.15
X3.3Y-3.15
X3.3Y-3.65
T2
X2.3337Y-2.9224
X2.3337Y-3.2224
X1.5567Y-2.9215
X1.5567Y-3.2215
X2.725Y-2.45
X2.725Y-2.75
X2.525Y-2.925
X2.525Y-3.225
X2.7713Y-3.4516
X2.7713Y-3.6484
X2.85Y-3.4516
X2.85Y-3.6484
X2.9287Y-3.4516
X2.9287Y-3.6484
X1.35Y-2.9215
X1.35Y-3.2215
X2.35Y-2.675
X2.5469Y-2.675
X1.95Y-2.925
X1.95Y-3.225
X2.35Y-2.475
X2.5469Y-2.475
X2.175Y-2.4781
X2.175Y-2.675
X2.925Y-2.925
X2.925Y-3.225
X2.15Y-2.9224
X2.15Y-3.2224
X1.7661Y-2.9215
X1.7661Y-3.2215
X1.2Y-2.5
X1.2Y-2.7
X1.4Y-2.6
X2.9195Y-2.4567
X2.9195Y-2.7567
X2.725Y-2.925
X2.725Y-3.225
T3
X3.55Y-2.75
X1.1Y-3.525
X1.1Y-3.625
X3.55Y-3.325
X3.55Y-3.425
X3.55Y-3.525
X1.7372Y-2.575
X1.875Y-2.575
X3.55Y-3.0
X1.1Y-2.975
X1.1Y-3.075
X1.1Y-3.175
T4
X1.44Y-3.575
X1.625Y-3.575
X1.81Y-3.575
X2.125Y-3.575
X2.31Y-3.575
X2.4951Y-3.575
T0
M30
