G04 #@! TF.GenerationSoftware,KiCad,Pcbnew,(5.1.5)-3*
G04 #@! TF.CreationDate,2020-01-24T15:12:57-05:00*
G04 #@! TF.ProjectId,timer,74696d65-722e-46b6-9963-61645f706362,v01*
G04 #@! TF.SameCoordinates,Original*
G04 #@! TF.FileFunction,Copper,L1,Top*
G04 #@! TF.FilePolarity,Positive*
%FSLAX46Y46*%
G04 Gerber Fmt 4.6, Leading zero omitted, Abs format (unit mm)*
G04 Created by KiCad (PCBNEW (5.1.5)-3) date 2020-01-24 15:12:57*
%MOMM*%
%LPD*%
G04 APERTURE LIST*
%ADD10C,1.600000*%
%ADD11R,2.000000X2.000000*%
%ADD12C,2.000000*%
%ADD13R,1.700000X1.700000*%
%ADD14O,1.700000X1.700000*%
%ADD15O,1.000000X1.500000*%
%ADD16R,1.000000X1.500000*%
%ADD17O,1.600000X1.600000*%
%ADD18C,1.440000*%
%ADD19C,2.850000*%
%ADD20R,2.850000X2.850000*%
%ADD21C,0.250000*%
G04 APERTURE END LIST*
D10*
X64690000Y-62865000D03*
X59690000Y-62865000D03*
X55245000Y-67945000D03*
X55245000Y-62945000D03*
X59690000Y-67945000D03*
X64690000Y-67945000D03*
D11*
X47625000Y-65405000D03*
D12*
X44125000Y-65405000D03*
D13*
X27940000Y-89535000D03*
D14*
X27940000Y-92075000D03*
D13*
X27940000Y-75565000D03*
D14*
X27940000Y-78105000D03*
X27940000Y-80645000D03*
D13*
X90170000Y-69850000D03*
X90170000Y-76200000D03*
X90170000Y-84455000D03*
D14*
X90170000Y-86995000D03*
X90170000Y-89535000D03*
D15*
X82550000Y-80010000D03*
X83820000Y-80010000D03*
D16*
X81280000Y-80010000D03*
D15*
X82550000Y-67310000D03*
X83820000Y-67310000D03*
D16*
X81280000Y-67310000D03*
D15*
X82550000Y-73660000D03*
X83820000Y-73660000D03*
D16*
X81280000Y-73660000D03*
X81280000Y-92710000D03*
D15*
X83820000Y-92710000D03*
X82550000Y-92710000D03*
D16*
X81280000Y-86360000D03*
D15*
X83820000Y-86360000D03*
X82550000Y-86360000D03*
D17*
X69215000Y-62230000D03*
D10*
X69215000Y-69850000D03*
X49530000Y-81915000D03*
D17*
X49530000Y-74295000D03*
D10*
X34290000Y-81825000D03*
D17*
X34290000Y-74205000D03*
X64135000Y-74295000D03*
D10*
X64135000Y-81915000D03*
D17*
X39540000Y-74205000D03*
D10*
X39540000Y-81825000D03*
X74155000Y-70020000D03*
D17*
X74155000Y-62400000D03*
D10*
X59275000Y-81850000D03*
D17*
X59275000Y-74230000D03*
X69215000Y-74295000D03*
D10*
X69215000Y-81915000D03*
X44860000Y-81825000D03*
D17*
X44860000Y-74205000D03*
D18*
X30480000Y-63500000D03*
X35560000Y-66040000D03*
X30480000Y-68580000D03*
D10*
X54610000Y-81850000D03*
D17*
X54610000Y-74230000D03*
X74295000Y-74295000D03*
D10*
X74295000Y-81915000D03*
D19*
X63375000Y-90805000D03*
X58675000Y-90805000D03*
D20*
X53975000Y-90805000D03*
D10*
X74390000Y-92670000D03*
X74390000Y-87670000D03*
X72390000Y-92670000D03*
X72390000Y-87670000D03*
X70390000Y-92670000D03*
X70390000Y-87670000D03*
D20*
X36575000Y-90805000D03*
D19*
X41275000Y-90805000D03*
X45975000Y-90805000D03*
D21*
X82550000Y-81085300D02*
X78007000Y-81085300D01*
X78007000Y-81085300D02*
X77168300Y-80246600D01*
X77168300Y-80246600D02*
X51198400Y-80246600D01*
X51198400Y-80246600D02*
X49530000Y-81915000D01*
X82550000Y-80010000D02*
X82550000Y-81085300D01*
X69215000Y-62230000D02*
X70340300Y-62230000D01*
X90170000Y-69850000D02*
X88994700Y-69850000D01*
X88994700Y-69850000D02*
X83206500Y-64061800D01*
X83206500Y-64061800D02*
X72172100Y-64061800D01*
X72172100Y-64061800D02*
X70340300Y-62230000D01*
X69215000Y-62230000D02*
X65325000Y-62230000D01*
X65325000Y-62230000D02*
X64690000Y-62865000D01*
X43267000Y-74206300D02*
X42117100Y-73056400D01*
X42117100Y-73056400D02*
X36563900Y-73056400D01*
X36563900Y-73056400D02*
X35415300Y-74205000D01*
X80454700Y-80010000D02*
X79629400Y-79184700D01*
X79629400Y-79184700D02*
X48245400Y-79184700D01*
X48245400Y-79184700D02*
X43267000Y-74206300D01*
X43267000Y-74206300D02*
X49528300Y-67945000D01*
X49528300Y-67945000D02*
X55245000Y-67945000D01*
X81280000Y-80010000D02*
X80454700Y-80010000D01*
X34290000Y-74205000D02*
X35415300Y-74205000D01*
X83820000Y-73660000D02*
X83820000Y-72584700D01*
X59690000Y-67945000D02*
X60817000Y-66818000D01*
X60817000Y-66818000D02*
X68316000Y-66818000D01*
X68316000Y-66818000D02*
X73210000Y-71712000D01*
X73210000Y-71712000D02*
X82947300Y-71712000D01*
X82947300Y-71712000D02*
X83820000Y-72584700D01*
X44860000Y-74205000D02*
X45985300Y-74205000D01*
X64690000Y-67945000D02*
X59555300Y-73079700D01*
X59555300Y-73079700D02*
X47110600Y-73079700D01*
X47110600Y-73079700D02*
X45985300Y-74205000D01*
X55735300Y-74230000D02*
X59626600Y-78121300D01*
X59626600Y-78121300D02*
X83375000Y-78121300D01*
X83375000Y-78121300D02*
X84645400Y-79391700D01*
X84645400Y-79391700D02*
X84645400Y-84455000D01*
X84645400Y-84455000D02*
X83815700Y-85284700D01*
X83815700Y-85284700D02*
X82550000Y-85284700D01*
X84645400Y-84455000D02*
X88994700Y-84455000D01*
X54610000Y-74230000D02*
X55735300Y-74230000D01*
X90170000Y-84455000D02*
X88994700Y-84455000D01*
X82550000Y-86360000D02*
X82550000Y-85284700D01*
X90170000Y-76200000D02*
X88994700Y-76200000D01*
X64135000Y-74295000D02*
X65260300Y-74295000D01*
X65260300Y-74295000D02*
X66390900Y-73164400D01*
X66390900Y-73164400D02*
X79055000Y-73164400D01*
X79055000Y-73164400D02*
X80739800Y-74849200D01*
X80739800Y-74849200D02*
X87643900Y-74849200D01*
X87643900Y-74849200D02*
X88994700Y-76200000D01*
X82550000Y-73660000D02*
X82550000Y-72584700D01*
X59275000Y-74230000D02*
X60400300Y-74230000D01*
X60400300Y-74230000D02*
X62045600Y-72584700D01*
X62045600Y-72584700D02*
X82550000Y-72584700D01*
X53975000Y-90805000D02*
X55725300Y-90805000D01*
X55725300Y-90805000D02*
X57487200Y-92566900D01*
X57487200Y-92566900D02*
X64122300Y-92566900D01*
X64122300Y-92566900D02*
X69215000Y-87474200D01*
X69215000Y-87474200D02*
X69215000Y-81915000D01*
X39540000Y-81825000D02*
X41708400Y-83993400D01*
X41708400Y-83993400D02*
X62056600Y-83993400D01*
X62056600Y-83993400D02*
X64135000Y-81915000D01*
X83820000Y-67310000D02*
X83820000Y-68385300D01*
X74155000Y-70020000D02*
X82185300Y-70020000D01*
X82185300Y-70020000D02*
X83820000Y-68385300D01*
X81280000Y-92710000D02*
X80454700Y-92710000D01*
X74390000Y-92670000D02*
X80414700Y-92670000D01*
X80414700Y-92670000D02*
X80454700Y-92710000D01*
X63375000Y-90805000D02*
X65327800Y-88852200D01*
X65327800Y-88852200D02*
X65327800Y-81461400D01*
X65327800Y-81461400D02*
X64563300Y-80696900D01*
X64563300Y-80696900D02*
X53533600Y-80696900D01*
X53533600Y-80696900D02*
X51137700Y-83092800D01*
X51137700Y-83092800D02*
X49015200Y-83092800D01*
X49015200Y-83092800D02*
X44752300Y-78829900D01*
X44752300Y-78829900D02*
X37275700Y-78829900D01*
X37275700Y-78829900D02*
X33164400Y-74718600D01*
X33164400Y-74718600D02*
X33164400Y-68435600D01*
X33164400Y-68435600D02*
X35560000Y-66040000D01*
X36575000Y-90805000D02*
X36575000Y-84110000D01*
X36575000Y-84110000D02*
X34290000Y-81825000D01*
X90170000Y-86995000D02*
X88994700Y-86995000D01*
X88994700Y-86995000D02*
X88534700Y-87455000D01*
X88534700Y-87455000D02*
X82190400Y-87455000D01*
X82190400Y-87455000D02*
X81280000Y-86544600D01*
X81280000Y-86544600D02*
X73515400Y-86544600D01*
X73515400Y-86544600D02*
X72390000Y-87670000D01*
X81280000Y-86360000D02*
X81280000Y-86544600D01*
X81280000Y-67310000D02*
X80454700Y-67310000D01*
X80454700Y-67310000D02*
X78549700Y-65405000D01*
X78549700Y-65405000D02*
X57705000Y-65405000D01*
X57705000Y-65405000D02*
X55245000Y-62945000D01*
X74295000Y-74295000D02*
X75420300Y-74295000D01*
X75420300Y-74295000D02*
X76545600Y-75420300D01*
X76545600Y-75420300D02*
X83307600Y-75420300D01*
X83307600Y-75420300D02*
X91345300Y-83458000D01*
X91345300Y-83458000D02*
X91345300Y-87551800D01*
X91345300Y-87551800D02*
X90537400Y-88359700D01*
X90537400Y-88359700D02*
X90170000Y-88359700D01*
X90170000Y-89535000D02*
X90170000Y-88359700D01*
X69215000Y-74295000D02*
X74295000Y-74295000D01*
X74155000Y-62400000D02*
X73029700Y-62400000D01*
X73029700Y-62400000D02*
X71716600Y-61086900D01*
X71716600Y-61086900D02*
X37973100Y-61086900D01*
X37973100Y-61086900D02*
X30480000Y-68580000D01*
X29115300Y-78105000D02*
X30290600Y-79280300D01*
X30290600Y-79280300D02*
X44180300Y-79280300D01*
X44180300Y-79280300D02*
X48443100Y-83543100D01*
X48443100Y-83543100D02*
X57581900Y-83543100D01*
X57581900Y-83543100D02*
X59275000Y-81850000D01*
X27940000Y-78105000D02*
X29115300Y-78105000D01*
M02*
