G04 #@! TF.GenerationSoftware,KiCad,Pcbnew,(5.1.5)-3*
G04 #@! TF.CreationDate,2020-01-24T15:12:57-05:00*
G04 #@! TF.ProjectId,timer,74696d65-722e-46b6-9963-61645f706362,v01*
G04 #@! TF.SameCoordinates,Original*
G04 #@! TF.FileFunction,Legend,Top*
G04 #@! TF.FilePolarity,Positive*
%FSLAX46Y46*%
G04 Gerber Fmt 4.6, Leading zero omitted, Abs format (unit mm)*
G04 Created by KiCad (PCBNEW (5.1.5)-3) date 2020-01-24 15:12:57*
%MOMM*%
%LPD*%
G04 APERTURE LIST*
%ADD10C,0.150000*%
%ADD11C,0.120000*%
%ADD12C,0.100000*%
G04 APERTURE END LIST*
D10*
X21932380Y-69881190D02*
X21932380Y-69309761D01*
X22932380Y-69595476D02*
X21932380Y-69595476D01*
X22932380Y-68976428D02*
X22265714Y-68976428D01*
X21932380Y-68976428D02*
X21980000Y-69024047D01*
X22027619Y-68976428D01*
X21980000Y-68928809D01*
X21932380Y-68976428D01*
X22027619Y-68976428D01*
X22932380Y-68500238D02*
X22265714Y-68500238D01*
X22360952Y-68500238D02*
X22313333Y-68452619D01*
X22265714Y-68357380D01*
X22265714Y-68214523D01*
X22313333Y-68119285D01*
X22408571Y-68071666D01*
X22932380Y-68071666D01*
X22408571Y-68071666D02*
X22313333Y-68024047D01*
X22265714Y-67928809D01*
X22265714Y-67785952D01*
X22313333Y-67690714D01*
X22408571Y-67643095D01*
X22932380Y-67643095D01*
X22884761Y-66785952D02*
X22932380Y-66881190D01*
X22932380Y-67071666D01*
X22884761Y-67166904D01*
X22789523Y-67214523D01*
X22408571Y-67214523D01*
X22313333Y-67166904D01*
X22265714Y-67071666D01*
X22265714Y-66881190D01*
X22313333Y-66785952D01*
X22408571Y-66738333D01*
X22503809Y-66738333D01*
X22599047Y-67214523D01*
X22932380Y-66309761D02*
X22265714Y-66309761D01*
X22456190Y-66309761D02*
X22360952Y-66262142D01*
X22313333Y-66214523D01*
X22265714Y-66119285D01*
X22265714Y-66024047D01*
X22408571Y-64595476D02*
X22456190Y-64452619D01*
X22503809Y-64405000D01*
X22599047Y-64357380D01*
X22741904Y-64357380D01*
X22837142Y-64405000D01*
X22884761Y-64452619D01*
X22932380Y-64547857D01*
X22932380Y-64928809D01*
X21932380Y-64928809D01*
X21932380Y-64595476D01*
X21980000Y-64500238D01*
X22027619Y-64452619D01*
X22122857Y-64405000D01*
X22218095Y-64405000D01*
X22313333Y-64452619D01*
X22360952Y-64500238D01*
X22408571Y-64595476D01*
X22408571Y-64928809D01*
X22932380Y-63785952D02*
X22884761Y-63881190D01*
X22837142Y-63928809D01*
X22741904Y-63976428D01*
X22456190Y-63976428D01*
X22360952Y-63928809D01*
X22313333Y-63881190D01*
X22265714Y-63785952D01*
X22265714Y-63643095D01*
X22313333Y-63547857D01*
X22360952Y-63500238D01*
X22456190Y-63452619D01*
X22741904Y-63452619D01*
X22837142Y-63500238D01*
X22884761Y-63547857D01*
X22932380Y-63643095D01*
X22932380Y-63785952D01*
X22932380Y-62595476D02*
X22408571Y-62595476D01*
X22313333Y-62643095D01*
X22265714Y-62738333D01*
X22265714Y-62928809D01*
X22313333Y-63024047D01*
X22884761Y-62595476D02*
X22932380Y-62690714D01*
X22932380Y-62928809D01*
X22884761Y-63024047D01*
X22789523Y-63071666D01*
X22694285Y-63071666D01*
X22599047Y-63024047D01*
X22551428Y-62928809D01*
X22551428Y-62690714D01*
X22503809Y-62595476D01*
X22932380Y-62119285D02*
X22265714Y-62119285D01*
X22456190Y-62119285D02*
X22360952Y-62071666D01*
X22313333Y-62024047D01*
X22265714Y-61928809D01*
X22265714Y-61833571D01*
X22932380Y-61071666D02*
X21932380Y-61071666D01*
X22884761Y-61071666D02*
X22932380Y-61166904D01*
X22932380Y-61357380D01*
X22884761Y-61452619D01*
X22837142Y-61500238D01*
X22741904Y-61547857D01*
X22456190Y-61547857D01*
X22360952Y-61500238D01*
X22313333Y-61452619D01*
X22265714Y-61357380D01*
X22265714Y-61166904D01*
X22313333Y-61071666D01*
X23582380Y-70738333D02*
X23582380Y-70166904D01*
X24582380Y-70452619D02*
X23582380Y-70452619D01*
X23582380Y-69976428D02*
X24582380Y-69643095D01*
X23582380Y-69309761D01*
X23630000Y-68452619D02*
X23582380Y-68547857D01*
X23582380Y-68690714D01*
X23630000Y-68833571D01*
X23725238Y-68928809D01*
X23820476Y-68976428D01*
X24010952Y-69024047D01*
X24153809Y-69024047D01*
X24344285Y-68976428D01*
X24439523Y-68928809D01*
X24534761Y-68833571D01*
X24582380Y-68690714D01*
X24582380Y-68595476D01*
X24534761Y-68452619D01*
X24487142Y-68405000D01*
X24153809Y-68405000D01*
X24153809Y-68595476D01*
X24201428Y-67976428D02*
X24201428Y-67214523D01*
X23677619Y-66785952D02*
X23630000Y-66738333D01*
X23582380Y-66643095D01*
X23582380Y-66405000D01*
X23630000Y-66309761D01*
X23677619Y-66262142D01*
X23772857Y-66214523D01*
X23868095Y-66214523D01*
X24010952Y-66262142D01*
X24582380Y-66833571D01*
X24582380Y-66214523D01*
X24582380Y-65024047D02*
X23582380Y-65024047D01*
X23582380Y-64643095D01*
X23630000Y-64547857D01*
X23677619Y-64500238D01*
X23772857Y-64452619D01*
X23915714Y-64452619D01*
X24010952Y-64500238D01*
X24058571Y-64547857D01*
X24106190Y-64643095D01*
X24106190Y-65024047D01*
X24582380Y-64024047D02*
X23915714Y-64024047D01*
X24106190Y-64024047D02*
X24010952Y-63976428D01*
X23963333Y-63928809D01*
X23915714Y-63833571D01*
X23915714Y-63738333D01*
X24582380Y-63262142D02*
X24534761Y-63357380D01*
X24487142Y-63405000D01*
X24391904Y-63452619D01*
X24106190Y-63452619D01*
X24010952Y-63405000D01*
X23963333Y-63357380D01*
X23915714Y-63262142D01*
X23915714Y-63119285D01*
X23963333Y-63024047D01*
X24010952Y-62976428D01*
X24106190Y-62928809D01*
X24391904Y-62928809D01*
X24487142Y-62976428D01*
X24534761Y-63024047D01*
X24582380Y-63119285D01*
X24582380Y-63262142D01*
X23915714Y-62500238D02*
X24772857Y-62500238D01*
X24868095Y-62547857D01*
X24915714Y-62643095D01*
X24915714Y-62690714D01*
X23582380Y-62500238D02*
X23630000Y-62547857D01*
X23677619Y-62500238D01*
X23630000Y-62452619D01*
X23582380Y-62500238D01*
X23677619Y-62500238D01*
X24534761Y-61643095D02*
X24582380Y-61738333D01*
X24582380Y-61928809D01*
X24534761Y-62024047D01*
X24439523Y-62071666D01*
X24058571Y-62071666D01*
X23963333Y-62024047D01*
X23915714Y-61928809D01*
X23915714Y-61738333D01*
X23963333Y-61643095D01*
X24058571Y-61595476D01*
X24153809Y-61595476D01*
X24249047Y-62071666D01*
X24534761Y-60738333D02*
X24582380Y-60833571D01*
X24582380Y-61024047D01*
X24534761Y-61119285D01*
X24487142Y-61166904D01*
X24391904Y-61214523D01*
X24106190Y-61214523D01*
X24010952Y-61166904D01*
X23963333Y-61119285D01*
X23915714Y-61024047D01*
X23915714Y-60833571D01*
X23963333Y-60738333D01*
X23915714Y-60452619D02*
X23915714Y-60071666D01*
X23582380Y-60309761D02*
X24439523Y-60309761D01*
X24534761Y-60262142D01*
X24582380Y-60166904D01*
X24582380Y-60071666D01*
X25232380Y-68452619D02*
X25946666Y-68452619D01*
X26089523Y-68500238D01*
X26184761Y-68595476D01*
X26232380Y-68738333D01*
X26232380Y-68833571D01*
X26232380Y-67547857D02*
X25708571Y-67547857D01*
X25613333Y-67595476D01*
X25565714Y-67690714D01*
X25565714Y-67881190D01*
X25613333Y-67976428D01*
X26184761Y-67547857D02*
X26232380Y-67643095D01*
X26232380Y-67881190D01*
X26184761Y-67976428D01*
X26089523Y-68024047D01*
X25994285Y-68024047D01*
X25899047Y-67976428D01*
X25851428Y-67881190D01*
X25851428Y-67643095D01*
X25803809Y-67547857D01*
X25565714Y-67071666D02*
X26232380Y-67071666D01*
X25660952Y-67071666D02*
X25613333Y-67024047D01*
X25565714Y-66928809D01*
X25565714Y-66785952D01*
X25613333Y-66690714D01*
X25708571Y-66643095D01*
X26232380Y-66643095D01*
X25327619Y-65452619D02*
X25280000Y-65405000D01*
X25232380Y-65309761D01*
X25232380Y-65071666D01*
X25280000Y-64976428D01*
X25327619Y-64928809D01*
X25422857Y-64881190D01*
X25518095Y-64881190D01*
X25660952Y-64928809D01*
X26232380Y-65500238D01*
X26232380Y-64881190D01*
X25232380Y-64262142D02*
X25232380Y-64166904D01*
X25280000Y-64071666D01*
X25327619Y-64024047D01*
X25422857Y-63976428D01*
X25613333Y-63928809D01*
X25851428Y-63928809D01*
X26041904Y-63976428D01*
X26137142Y-64024047D01*
X26184761Y-64071666D01*
X26232380Y-64166904D01*
X26232380Y-64262142D01*
X26184761Y-64357380D01*
X26137142Y-64405000D01*
X26041904Y-64452619D01*
X25851428Y-64500238D01*
X25613333Y-64500238D01*
X25422857Y-64452619D01*
X25327619Y-64405000D01*
X25280000Y-64357380D01*
X25232380Y-64262142D01*
X25327619Y-63547857D02*
X25280000Y-63500238D01*
X25232380Y-63405000D01*
X25232380Y-63166904D01*
X25280000Y-63071666D01*
X25327619Y-63024047D01*
X25422857Y-62976428D01*
X25518095Y-62976428D01*
X25660952Y-63024047D01*
X26232380Y-63595476D01*
X26232380Y-62976428D01*
X25232380Y-62357380D02*
X25232380Y-62262142D01*
X25280000Y-62166904D01*
X25327619Y-62119285D01*
X25422857Y-62071666D01*
X25613333Y-62024047D01*
X25851428Y-62024047D01*
X26041904Y-62071666D01*
X26137142Y-62119285D01*
X26184761Y-62166904D01*
X26232380Y-62262142D01*
X26232380Y-62357380D01*
X26184761Y-62452619D01*
X26137142Y-62500238D01*
X26041904Y-62547857D01*
X25851428Y-62595476D01*
X25613333Y-62595476D01*
X25422857Y-62547857D01*
X25327619Y-62500238D01*
X25280000Y-62452619D01*
X25232380Y-62357380D01*
X92495714Y-72135476D02*
X92495714Y-71754523D01*
X92162380Y-71992619D02*
X93019523Y-71992619D01*
X93114761Y-71945000D01*
X93162380Y-71849761D01*
X93162380Y-71754523D01*
X93162380Y-71278333D02*
X93114761Y-71373571D01*
X93067142Y-71421190D01*
X92971904Y-71468809D01*
X92686190Y-71468809D01*
X92590952Y-71421190D01*
X92543333Y-71373571D01*
X92495714Y-71278333D01*
X92495714Y-71135476D01*
X92543333Y-71040238D01*
X92590952Y-70992619D01*
X92686190Y-70945000D01*
X92971904Y-70945000D01*
X93067142Y-70992619D01*
X93114761Y-71040238D01*
X93162380Y-71135476D01*
X93162380Y-71278333D01*
X93114761Y-69802142D02*
X93162380Y-69706904D01*
X93162380Y-69516428D01*
X93114761Y-69421190D01*
X93019523Y-69373571D01*
X92971904Y-69373571D01*
X92876666Y-69421190D01*
X92829047Y-69516428D01*
X92829047Y-69659285D01*
X92781428Y-69754523D01*
X92686190Y-69802142D01*
X92638571Y-69802142D01*
X92543333Y-69754523D01*
X92495714Y-69659285D01*
X92495714Y-69516428D01*
X92543333Y-69421190D01*
X92495714Y-69040238D02*
X93162380Y-68849761D01*
X92686190Y-68659285D01*
X93162380Y-68468809D01*
X92495714Y-68278333D01*
X93162380Y-67897380D02*
X92495714Y-67897380D01*
X92162380Y-67897380D02*
X92210000Y-67945000D01*
X92257619Y-67897380D01*
X92210000Y-67849761D01*
X92162380Y-67897380D01*
X92257619Y-67897380D01*
X92495714Y-67564047D02*
X92495714Y-67183095D01*
X92162380Y-67421190D02*
X93019523Y-67421190D01*
X93114761Y-67373571D01*
X93162380Y-67278333D01*
X93162380Y-67183095D01*
X93114761Y-66421190D02*
X93162380Y-66516428D01*
X93162380Y-66706904D01*
X93114761Y-66802142D01*
X93067142Y-66849761D01*
X92971904Y-66897380D01*
X92686190Y-66897380D01*
X92590952Y-66849761D01*
X92543333Y-66802142D01*
X92495714Y-66706904D01*
X92495714Y-66516428D01*
X92543333Y-66421190D01*
X93162380Y-65992619D02*
X92162380Y-65992619D01*
X93162380Y-65564047D02*
X92638571Y-65564047D01*
X92543333Y-65611666D01*
X92495714Y-65706904D01*
X92495714Y-65849761D01*
X92543333Y-65945000D01*
X92590952Y-65992619D01*
X93114761Y-64706904D02*
X93162380Y-64802142D01*
X93162380Y-64992619D01*
X93114761Y-65087857D01*
X93019523Y-65135476D01*
X92638571Y-65135476D01*
X92543333Y-65087857D01*
X92495714Y-64992619D01*
X92495714Y-64802142D01*
X92543333Y-64706904D01*
X92638571Y-64659285D01*
X92733809Y-64659285D01*
X92829047Y-65135476D01*
X93114761Y-64278333D02*
X93162380Y-64183095D01*
X93162380Y-63992619D01*
X93114761Y-63897380D01*
X93019523Y-63849761D01*
X92971904Y-63849761D01*
X92876666Y-63897380D01*
X92829047Y-63992619D01*
X92829047Y-64135476D01*
X92781428Y-64230714D01*
X92686190Y-64278333D01*
X92638571Y-64278333D01*
X92543333Y-64230714D01*
X92495714Y-64135476D01*
X92495714Y-63992619D01*
X92543333Y-63897380D01*
X92495714Y-79993809D02*
X92495714Y-79612857D01*
X92162380Y-79850952D02*
X93019523Y-79850952D01*
X93114761Y-79803333D01*
X93162380Y-79708095D01*
X93162380Y-79612857D01*
X93162380Y-79136666D02*
X93114761Y-79231904D01*
X93067142Y-79279523D01*
X92971904Y-79327142D01*
X92686190Y-79327142D01*
X92590952Y-79279523D01*
X92543333Y-79231904D01*
X92495714Y-79136666D01*
X92495714Y-78993809D01*
X92543333Y-78898571D01*
X92590952Y-78850952D01*
X92686190Y-78803333D01*
X92971904Y-78803333D01*
X93067142Y-78850952D01*
X93114761Y-78898571D01*
X93162380Y-78993809D01*
X93162380Y-79136666D01*
X93162380Y-77184285D02*
X92162380Y-77184285D01*
X93114761Y-77184285D02*
X93162380Y-77279523D01*
X93162380Y-77470000D01*
X93114761Y-77565238D01*
X93067142Y-77612857D01*
X92971904Y-77660476D01*
X92686190Y-77660476D01*
X92590952Y-77612857D01*
X92543333Y-77565238D01*
X92495714Y-77470000D01*
X92495714Y-77279523D01*
X92543333Y-77184285D01*
X93162380Y-76708095D02*
X92495714Y-76708095D01*
X92590952Y-76708095D02*
X92543333Y-76660476D01*
X92495714Y-76565238D01*
X92495714Y-76422380D01*
X92543333Y-76327142D01*
X92638571Y-76279523D01*
X93162380Y-76279523D01*
X92638571Y-76279523D02*
X92543333Y-76231904D01*
X92495714Y-76136666D01*
X92495714Y-75993809D01*
X92543333Y-75898571D01*
X92638571Y-75850952D01*
X93162380Y-75850952D01*
X92495714Y-75470000D02*
X93162380Y-75231904D01*
X92495714Y-74993809D01*
X93797380Y-91312619D02*
X93749761Y-91407857D01*
X93654523Y-91455476D01*
X92797380Y-91455476D01*
X93797380Y-90931666D02*
X93130714Y-90931666D01*
X92797380Y-90931666D02*
X92845000Y-90979285D01*
X92892619Y-90931666D01*
X92845000Y-90884047D01*
X92797380Y-90931666D01*
X92892619Y-90931666D01*
X93130714Y-90026904D02*
X93940238Y-90026904D01*
X94035476Y-90074523D01*
X94083095Y-90122142D01*
X94130714Y-90217380D01*
X94130714Y-90360238D01*
X94083095Y-90455476D01*
X93749761Y-90026904D02*
X93797380Y-90122142D01*
X93797380Y-90312619D01*
X93749761Y-90407857D01*
X93702142Y-90455476D01*
X93606904Y-90503095D01*
X93321190Y-90503095D01*
X93225952Y-90455476D01*
X93178333Y-90407857D01*
X93130714Y-90312619D01*
X93130714Y-90122142D01*
X93178333Y-90026904D01*
X93797380Y-89550714D02*
X92797380Y-89550714D01*
X93797380Y-89122142D02*
X93273571Y-89122142D01*
X93178333Y-89169761D01*
X93130714Y-89265000D01*
X93130714Y-89407857D01*
X93178333Y-89503095D01*
X93225952Y-89550714D01*
X93130714Y-88788809D02*
X93130714Y-88407857D01*
X92797380Y-88645952D02*
X93654523Y-88645952D01*
X93749761Y-88598333D01*
X93797380Y-88503095D01*
X93797380Y-88407857D01*
X93130714Y-86884047D02*
X93940238Y-86884047D01*
X94035476Y-86931666D01*
X94083095Y-86979285D01*
X94130714Y-87074523D01*
X94130714Y-87217380D01*
X94083095Y-87312619D01*
X93749761Y-86884047D02*
X93797380Y-86979285D01*
X93797380Y-87169761D01*
X93749761Y-87265000D01*
X93702142Y-87312619D01*
X93606904Y-87360238D01*
X93321190Y-87360238D01*
X93225952Y-87312619D01*
X93178333Y-87265000D01*
X93130714Y-87169761D01*
X93130714Y-86979285D01*
X93178333Y-86884047D01*
X93130714Y-85979285D02*
X93797380Y-85979285D01*
X93130714Y-86407857D02*
X93654523Y-86407857D01*
X93749761Y-86360238D01*
X93797380Y-86265000D01*
X93797380Y-86122142D01*
X93749761Y-86026904D01*
X93702142Y-85979285D01*
X93130714Y-85503095D02*
X93797380Y-85503095D01*
X93225952Y-85503095D02*
X93178333Y-85455476D01*
X93130714Y-85360238D01*
X93130714Y-85217380D01*
X93178333Y-85122142D01*
X93273571Y-85074523D01*
X93797380Y-85074523D01*
X24550714Y-94590714D02*
X24550714Y-94209761D01*
X24217380Y-94447857D02*
X25074523Y-94447857D01*
X25169761Y-94400238D01*
X25217380Y-94305000D01*
X25217380Y-94209761D01*
X25217380Y-93733571D02*
X25169761Y-93828809D01*
X25122142Y-93876428D01*
X25026904Y-93924047D01*
X24741190Y-93924047D01*
X24645952Y-93876428D01*
X24598333Y-93828809D01*
X24550714Y-93733571D01*
X24550714Y-93590714D01*
X24598333Y-93495476D01*
X24645952Y-93447857D01*
X24741190Y-93400238D01*
X25026904Y-93400238D01*
X25122142Y-93447857D01*
X25169761Y-93495476D01*
X25217380Y-93590714D01*
X25217380Y-93733571D01*
X25169761Y-91781190D02*
X25217380Y-91876428D01*
X25217380Y-92066904D01*
X25169761Y-92162142D01*
X25122142Y-92209761D01*
X25026904Y-92257380D01*
X24741190Y-92257380D01*
X24645952Y-92209761D01*
X24598333Y-92162142D01*
X24550714Y-92066904D01*
X24550714Y-91876428D01*
X24598333Y-91781190D01*
X25217380Y-91352619D02*
X24217380Y-91352619D01*
X25217380Y-90924047D02*
X24693571Y-90924047D01*
X24598333Y-90971666D01*
X24550714Y-91066904D01*
X24550714Y-91209761D01*
X24598333Y-91305000D01*
X24645952Y-91352619D01*
X25217380Y-90447857D02*
X24550714Y-90447857D01*
X24741190Y-90447857D02*
X24645952Y-90400238D01*
X24598333Y-90352619D01*
X24550714Y-90257380D01*
X24550714Y-90162142D01*
X25217380Y-89685952D02*
X25169761Y-89781190D01*
X25122142Y-89828809D01*
X25026904Y-89876428D01*
X24741190Y-89876428D01*
X24645952Y-89828809D01*
X24598333Y-89781190D01*
X24550714Y-89685952D01*
X24550714Y-89543095D01*
X24598333Y-89447857D01*
X24645952Y-89400238D01*
X24741190Y-89352619D01*
X25026904Y-89352619D01*
X25122142Y-89400238D01*
X25169761Y-89447857D01*
X25217380Y-89543095D01*
X25217380Y-89685952D01*
X25217380Y-88924047D02*
X24550714Y-88924047D01*
X24645952Y-88924047D02*
X24598333Y-88876428D01*
X24550714Y-88781190D01*
X24550714Y-88638333D01*
X24598333Y-88543095D01*
X24693571Y-88495476D01*
X25217380Y-88495476D01*
X24693571Y-88495476D02*
X24598333Y-88447857D01*
X24550714Y-88352619D01*
X24550714Y-88209761D01*
X24598333Y-88114523D01*
X24693571Y-88066904D01*
X25217380Y-88066904D01*
X25217380Y-87162142D02*
X24693571Y-87162142D01*
X24598333Y-87209761D01*
X24550714Y-87305000D01*
X24550714Y-87495476D01*
X24598333Y-87590714D01*
X25169761Y-87162142D02*
X25217380Y-87257380D01*
X25217380Y-87495476D01*
X25169761Y-87590714D01*
X25074523Y-87638333D01*
X24979285Y-87638333D01*
X24884047Y-87590714D01*
X24836428Y-87495476D01*
X24836428Y-87257380D01*
X24788809Y-87162142D01*
X23915714Y-81930476D02*
X23915714Y-81549523D01*
X23582380Y-81787619D02*
X24439523Y-81787619D01*
X24534761Y-81740000D01*
X24582380Y-81644761D01*
X24582380Y-81549523D01*
X24582380Y-81073333D02*
X24534761Y-81168571D01*
X24487142Y-81216190D01*
X24391904Y-81263809D01*
X24106190Y-81263809D01*
X24010952Y-81216190D01*
X23963333Y-81168571D01*
X23915714Y-81073333D01*
X23915714Y-80930476D01*
X23963333Y-80835238D01*
X24010952Y-80787619D01*
X24106190Y-80740000D01*
X24391904Y-80740000D01*
X24487142Y-80787619D01*
X24534761Y-80835238D01*
X24582380Y-80930476D01*
X24582380Y-81073333D01*
X23915714Y-79549523D02*
X24915714Y-79549523D01*
X23963333Y-79549523D02*
X23915714Y-79454285D01*
X23915714Y-79263809D01*
X23963333Y-79168571D01*
X24010952Y-79120952D01*
X24106190Y-79073333D01*
X24391904Y-79073333D01*
X24487142Y-79120952D01*
X24534761Y-79168571D01*
X24582380Y-79263809D01*
X24582380Y-79454285D01*
X24534761Y-79549523D01*
X24582380Y-78501904D02*
X24534761Y-78597142D01*
X24487142Y-78644761D01*
X24391904Y-78692380D01*
X24106190Y-78692380D01*
X24010952Y-78644761D01*
X23963333Y-78597142D01*
X23915714Y-78501904D01*
X23915714Y-78359047D01*
X23963333Y-78263809D01*
X24010952Y-78216190D01*
X24106190Y-78168571D01*
X24391904Y-78168571D01*
X24487142Y-78216190D01*
X24534761Y-78263809D01*
X24582380Y-78359047D01*
X24582380Y-78501904D01*
X23915714Y-77835238D02*
X24582380Y-77644761D01*
X24106190Y-77454285D01*
X24582380Y-77263809D01*
X23915714Y-77073333D01*
X24534761Y-76311428D02*
X24582380Y-76406666D01*
X24582380Y-76597142D01*
X24534761Y-76692380D01*
X24439523Y-76740000D01*
X24058571Y-76740000D01*
X23963333Y-76692380D01*
X23915714Y-76597142D01*
X23915714Y-76406666D01*
X23963333Y-76311428D01*
X24058571Y-76263809D01*
X24153809Y-76263809D01*
X24249047Y-76740000D01*
X24582380Y-75835238D02*
X23915714Y-75835238D01*
X24106190Y-75835238D02*
X24010952Y-75787619D01*
X23963333Y-75740000D01*
X23915714Y-75644761D01*
X23915714Y-75549523D01*
D11*
X64660000Y-63920000D02*
X64660000Y-64235000D01*
X64660000Y-61495000D02*
X64660000Y-61810000D01*
X59720000Y-63920000D02*
X59720000Y-64235000D01*
X59720000Y-61495000D02*
X59720000Y-61810000D01*
X59720000Y-64235000D02*
X64660000Y-64235000D01*
X59720000Y-61495000D02*
X64660000Y-61495000D01*
X53875000Y-67915000D02*
X53875000Y-62975000D01*
X56615000Y-67915000D02*
X56615000Y-62975000D01*
X53875000Y-67915000D02*
X54190000Y-67915000D01*
X56300000Y-67915000D02*
X56615000Y-67915000D01*
X53875000Y-62975000D02*
X54190000Y-62975000D01*
X56300000Y-62975000D02*
X56615000Y-62975000D01*
X59720000Y-66575000D02*
X64660000Y-66575000D01*
X59720000Y-69315000D02*
X64660000Y-69315000D01*
X59720000Y-66575000D02*
X59720000Y-66890000D01*
X59720000Y-69000000D02*
X59720000Y-69315000D01*
X64660000Y-66575000D02*
X64660000Y-66890000D01*
X64660000Y-69000000D02*
X64660000Y-69315000D01*
X50995000Y-65405000D02*
G75*
G03X50995000Y-65405000I-5120000J0D01*
G01*
X45875000Y-70485000D02*
X45875000Y-60325000D01*
X45835000Y-70485000D02*
X45835000Y-60325000D01*
X45795000Y-70485000D02*
X45795000Y-60325000D01*
X45755000Y-70484000D02*
X45755000Y-60326000D01*
X45715000Y-70483000D02*
X45715000Y-60327000D01*
X45675000Y-70482000D02*
X45675000Y-60328000D01*
X45635000Y-70480000D02*
X45635000Y-60330000D01*
X45595000Y-70478000D02*
X45595000Y-60332000D01*
X45555000Y-70475000D02*
X45555000Y-60335000D01*
X45515000Y-70473000D02*
X45515000Y-60337000D01*
X45475000Y-70470000D02*
X45475000Y-60340000D01*
X45435000Y-70467000D02*
X45435000Y-60343000D01*
X45395000Y-70463000D02*
X45395000Y-60347000D01*
X45355000Y-70459000D02*
X45355000Y-66646000D01*
X45355000Y-64164000D02*
X45355000Y-60351000D01*
X45315000Y-70455000D02*
X45315000Y-66646000D01*
X45315000Y-64164000D02*
X45315000Y-60355000D01*
X45275000Y-70450000D02*
X45275000Y-66646000D01*
X45275000Y-64164000D02*
X45275000Y-60360000D01*
X45235000Y-70445000D02*
X45235000Y-66646000D01*
X45235000Y-64164000D02*
X45235000Y-60365000D01*
X45195000Y-70440000D02*
X45195000Y-66646000D01*
X45195000Y-64164000D02*
X45195000Y-60370000D01*
X45154000Y-70435000D02*
X45154000Y-66646000D01*
X45154000Y-64164000D02*
X45154000Y-60375000D01*
X45114000Y-70429000D02*
X45114000Y-66646000D01*
X45114000Y-64164000D02*
X45114000Y-60381000D01*
X45074000Y-70423000D02*
X45074000Y-66646000D01*
X45074000Y-64164000D02*
X45074000Y-60387000D01*
X45034000Y-70416000D02*
X45034000Y-66646000D01*
X45034000Y-64164000D02*
X45034000Y-60394000D01*
X44994000Y-70409000D02*
X44994000Y-66646000D01*
X44994000Y-64164000D02*
X44994000Y-60401000D01*
X44954000Y-70402000D02*
X44954000Y-66646000D01*
X44954000Y-64164000D02*
X44954000Y-60408000D01*
X44914000Y-70395000D02*
X44914000Y-66646000D01*
X44914000Y-64164000D02*
X44914000Y-60415000D01*
X44874000Y-70387000D02*
X44874000Y-66646000D01*
X44874000Y-64164000D02*
X44874000Y-60423000D01*
X44834000Y-70379000D02*
X44834000Y-66646000D01*
X44834000Y-64164000D02*
X44834000Y-60431000D01*
X44794000Y-70370000D02*
X44794000Y-66646000D01*
X44794000Y-64164000D02*
X44794000Y-60440000D01*
X44754000Y-70361000D02*
X44754000Y-66646000D01*
X44754000Y-64164000D02*
X44754000Y-60449000D01*
X44714000Y-70352000D02*
X44714000Y-66646000D01*
X44714000Y-64164000D02*
X44714000Y-60458000D01*
X44674000Y-70343000D02*
X44674000Y-66646000D01*
X44674000Y-64164000D02*
X44674000Y-60467000D01*
X44634000Y-70333000D02*
X44634000Y-66646000D01*
X44634000Y-64164000D02*
X44634000Y-60477000D01*
X44594000Y-70323000D02*
X44594000Y-66646000D01*
X44594000Y-64164000D02*
X44594000Y-60487000D01*
X44554000Y-70312000D02*
X44554000Y-66646000D01*
X44554000Y-64164000D02*
X44554000Y-60498000D01*
X44514000Y-70302000D02*
X44514000Y-66646000D01*
X44514000Y-64164000D02*
X44514000Y-60508000D01*
X44474000Y-70290000D02*
X44474000Y-66646000D01*
X44474000Y-64164000D02*
X44474000Y-60520000D01*
X44434000Y-70279000D02*
X44434000Y-66646000D01*
X44434000Y-64164000D02*
X44434000Y-60531000D01*
X44394000Y-70267000D02*
X44394000Y-66646000D01*
X44394000Y-64164000D02*
X44394000Y-60543000D01*
X44354000Y-70255000D02*
X44354000Y-66646000D01*
X44354000Y-64164000D02*
X44354000Y-60555000D01*
X44314000Y-70242000D02*
X44314000Y-66646000D01*
X44314000Y-64164000D02*
X44314000Y-60568000D01*
X44274000Y-70229000D02*
X44274000Y-66646000D01*
X44274000Y-64164000D02*
X44274000Y-60581000D01*
X44234000Y-70216000D02*
X44234000Y-66646000D01*
X44234000Y-64164000D02*
X44234000Y-60594000D01*
X44194000Y-70202000D02*
X44194000Y-66646000D01*
X44194000Y-64164000D02*
X44194000Y-60608000D01*
X44154000Y-70188000D02*
X44154000Y-66646000D01*
X44154000Y-64164000D02*
X44154000Y-60622000D01*
X44114000Y-70173000D02*
X44114000Y-66646000D01*
X44114000Y-64164000D02*
X44114000Y-60637000D01*
X44074000Y-70159000D02*
X44074000Y-66646000D01*
X44074000Y-64164000D02*
X44074000Y-60651000D01*
X44034000Y-70143000D02*
X44034000Y-66646000D01*
X44034000Y-64164000D02*
X44034000Y-60667000D01*
X43994000Y-70128000D02*
X43994000Y-66646000D01*
X43994000Y-64164000D02*
X43994000Y-60682000D01*
X43954000Y-70112000D02*
X43954000Y-66646000D01*
X43954000Y-64164000D02*
X43954000Y-60698000D01*
X43914000Y-70095000D02*
X43914000Y-66646000D01*
X43914000Y-64164000D02*
X43914000Y-60715000D01*
X43874000Y-70079000D02*
X43874000Y-66646000D01*
X43874000Y-64164000D02*
X43874000Y-60731000D01*
X43834000Y-70062000D02*
X43834000Y-66646000D01*
X43834000Y-64164000D02*
X43834000Y-60748000D01*
X43794000Y-70044000D02*
X43794000Y-66646000D01*
X43794000Y-64164000D02*
X43794000Y-60766000D01*
X43754000Y-70026000D02*
X43754000Y-66646000D01*
X43754000Y-64164000D02*
X43754000Y-60784000D01*
X43714000Y-70008000D02*
X43714000Y-66646000D01*
X43714000Y-64164000D02*
X43714000Y-60802000D01*
X43674000Y-69989000D02*
X43674000Y-66646000D01*
X43674000Y-64164000D02*
X43674000Y-60821000D01*
X43634000Y-69969000D02*
X43634000Y-66646000D01*
X43634000Y-64164000D02*
X43634000Y-60841000D01*
X43594000Y-69950000D02*
X43594000Y-66646000D01*
X43594000Y-64164000D02*
X43594000Y-60860000D01*
X43554000Y-69930000D02*
X43554000Y-66646000D01*
X43554000Y-64164000D02*
X43554000Y-60880000D01*
X43514000Y-69909000D02*
X43514000Y-66646000D01*
X43514000Y-64164000D02*
X43514000Y-60901000D01*
X43474000Y-69888000D02*
X43474000Y-66646000D01*
X43474000Y-64164000D02*
X43474000Y-60922000D01*
X43434000Y-69867000D02*
X43434000Y-66646000D01*
X43434000Y-64164000D02*
X43434000Y-60943000D01*
X43394000Y-69845000D02*
X43394000Y-66646000D01*
X43394000Y-64164000D02*
X43394000Y-60965000D01*
X43354000Y-69822000D02*
X43354000Y-66646000D01*
X43354000Y-64164000D02*
X43354000Y-60988000D01*
X43314000Y-69800000D02*
X43314000Y-66646000D01*
X43314000Y-64164000D02*
X43314000Y-61010000D01*
X43274000Y-69776000D02*
X43274000Y-66646000D01*
X43274000Y-64164000D02*
X43274000Y-61034000D01*
X43234000Y-69752000D02*
X43234000Y-66646000D01*
X43234000Y-64164000D02*
X43234000Y-61058000D01*
X43194000Y-69728000D02*
X43194000Y-66646000D01*
X43194000Y-64164000D02*
X43194000Y-61082000D01*
X43154000Y-69703000D02*
X43154000Y-66646000D01*
X43154000Y-64164000D02*
X43154000Y-61107000D01*
X43114000Y-69678000D02*
X43114000Y-66646000D01*
X43114000Y-64164000D02*
X43114000Y-61132000D01*
X43074000Y-69652000D02*
X43074000Y-66646000D01*
X43074000Y-64164000D02*
X43074000Y-61158000D01*
X43034000Y-69626000D02*
X43034000Y-66646000D01*
X43034000Y-64164000D02*
X43034000Y-61184000D01*
X42994000Y-69599000D02*
X42994000Y-66646000D01*
X42994000Y-64164000D02*
X42994000Y-61211000D01*
X42954000Y-69571000D02*
X42954000Y-66646000D01*
X42954000Y-64164000D02*
X42954000Y-61239000D01*
X42914000Y-69543000D02*
X42914000Y-66646000D01*
X42914000Y-64164000D02*
X42914000Y-61267000D01*
X42874000Y-69515000D02*
X42874000Y-61295000D01*
X42834000Y-69485000D02*
X42834000Y-61325000D01*
X42794000Y-69455000D02*
X42794000Y-61355000D01*
X42754000Y-69425000D02*
X42754000Y-61385000D01*
X42714000Y-69394000D02*
X42714000Y-61416000D01*
X42674000Y-69362000D02*
X42674000Y-61448000D01*
X42634000Y-69330000D02*
X42634000Y-61480000D01*
X42594000Y-69297000D02*
X42594000Y-61513000D01*
X42554000Y-69263000D02*
X42554000Y-61547000D01*
X42514000Y-69229000D02*
X42514000Y-61581000D01*
X42474000Y-69194000D02*
X42474000Y-61616000D01*
X42434000Y-69158000D02*
X42434000Y-61652000D01*
X42394000Y-69121000D02*
X42394000Y-61689000D01*
X42354000Y-69084000D02*
X42354000Y-61726000D01*
X42314000Y-69045000D02*
X42314000Y-61765000D01*
X42274000Y-69006000D02*
X42274000Y-61804000D01*
X42234000Y-68966000D02*
X42234000Y-61844000D01*
X42194000Y-68925000D02*
X42194000Y-61885000D01*
X42154000Y-68883000D02*
X42154000Y-61927000D01*
X42114000Y-68841000D02*
X42114000Y-61969000D01*
X42074000Y-68797000D02*
X42074000Y-62013000D01*
X42034000Y-68752000D02*
X42034000Y-62058000D01*
X41994000Y-68706000D02*
X41994000Y-62104000D01*
X41954000Y-68659000D02*
X41954000Y-62151000D01*
X41914000Y-68611000D02*
X41914000Y-62199000D01*
X41874000Y-68561000D02*
X41874000Y-62249000D01*
X41834000Y-68511000D02*
X41834000Y-62299000D01*
X41794000Y-68459000D02*
X41794000Y-62351000D01*
X41754000Y-68405000D02*
X41754000Y-62405000D01*
X41714000Y-68350000D02*
X41714000Y-62460000D01*
X41674000Y-68294000D02*
X41674000Y-62516000D01*
X41634000Y-68235000D02*
X41634000Y-62575000D01*
X41594000Y-68175000D02*
X41594000Y-62635000D01*
X41554000Y-68114000D02*
X41554000Y-62696000D01*
X41514000Y-68050000D02*
X41514000Y-62760000D01*
X41474000Y-67984000D02*
X41474000Y-62826000D01*
X41434000Y-67915000D02*
X41434000Y-62895000D01*
X41394000Y-67844000D02*
X41394000Y-62966000D01*
X41354000Y-67770000D02*
X41354000Y-63040000D01*
X41314000Y-67694000D02*
X41314000Y-63116000D01*
X41274000Y-67614000D02*
X41274000Y-63196000D01*
X41234000Y-67530000D02*
X41234000Y-63280000D01*
X41194000Y-67442000D02*
X41194000Y-63368000D01*
X41154000Y-67349000D02*
X41154000Y-63461000D01*
X41114000Y-67251000D02*
X41114000Y-63559000D01*
X41074000Y-67147000D02*
X41074000Y-63663000D01*
X41034000Y-67035000D02*
X41034000Y-63775000D01*
X40994000Y-66915000D02*
X40994000Y-63895000D01*
X40954000Y-66783000D02*
X40954000Y-64027000D01*
X40914000Y-66635000D02*
X40914000Y-64175000D01*
X40874000Y-66467000D02*
X40874000Y-64343000D01*
X40834000Y-66267000D02*
X40834000Y-64543000D01*
X40794000Y-66004000D02*
X40794000Y-64806000D01*
X51354646Y-68280000D02*
X50354646Y-68280000D01*
X50854646Y-68780000D02*
X50854646Y-67780000D01*
X26610000Y-93405000D02*
X29270000Y-93405000D01*
X26610000Y-90805000D02*
X26610000Y-93405000D01*
X29270000Y-90805000D02*
X29270000Y-93405000D01*
X26610000Y-90805000D02*
X29270000Y-90805000D01*
X26610000Y-89535000D02*
X26610000Y-88205000D01*
X26610000Y-88205000D02*
X27940000Y-88205000D01*
X26610000Y-81975000D02*
X29270000Y-81975000D01*
X26610000Y-76835000D02*
X26610000Y-81975000D01*
X29270000Y-76835000D02*
X29270000Y-81975000D01*
X26610000Y-76835000D02*
X29270000Y-76835000D01*
X26610000Y-75565000D02*
X26610000Y-74235000D01*
X26610000Y-74235000D02*
X27940000Y-74235000D01*
X88840000Y-71180000D02*
X91500000Y-71180000D01*
X88840000Y-71120000D02*
X88840000Y-71180000D01*
X91500000Y-71120000D02*
X91500000Y-71180000D01*
X88840000Y-71120000D02*
X91500000Y-71120000D01*
X88840000Y-69850000D02*
X88840000Y-68520000D01*
X88840000Y-68520000D02*
X90170000Y-68520000D01*
X88840000Y-74870000D02*
X90170000Y-74870000D01*
X88840000Y-76200000D02*
X88840000Y-74870000D01*
X88840000Y-77470000D02*
X91500000Y-77470000D01*
X91500000Y-77470000D02*
X91500000Y-77530000D01*
X88840000Y-77470000D02*
X88840000Y-77530000D01*
X88840000Y-77530000D02*
X91500000Y-77530000D01*
X88840000Y-85725000D02*
X91500000Y-85725000D01*
X88840000Y-85725000D02*
X88840000Y-90865000D01*
X88840000Y-90865000D02*
X91500000Y-90865000D01*
X91500000Y-85725000D02*
X91500000Y-90865000D01*
X91500000Y-83125000D02*
X91500000Y-84455000D01*
X90170000Y-83125000D02*
X91500000Y-83125000D01*
D10*
X84500000Y-78460000D02*
G75*
G03X80650000Y-78410000I-1950000J-1900000D01*
G01*
D12*
X84900000Y-81610000D02*
X85050000Y-81310000D01*
X84900000Y-81610000D02*
X84600000Y-81610000D01*
X80500000Y-81610000D02*
X80200000Y-81610000D01*
X80200000Y-81610000D02*
X80050000Y-81310000D01*
D10*
X84500000Y-65760000D02*
G75*
G03X80650000Y-65710000I-1950000J-1900000D01*
G01*
D12*
X84900000Y-68910000D02*
X85050000Y-68610000D01*
X84900000Y-68910000D02*
X84600000Y-68910000D01*
X80500000Y-68910000D02*
X80200000Y-68910000D01*
X80200000Y-68910000D02*
X80050000Y-68610000D01*
D10*
X84500000Y-72110000D02*
G75*
G03X80650000Y-72060000I-1950000J-1900000D01*
G01*
D12*
X84900000Y-75260000D02*
X85050000Y-74960000D01*
X84900000Y-75260000D02*
X84600000Y-75260000D01*
X80500000Y-75260000D02*
X80200000Y-75260000D01*
X80200000Y-75260000D02*
X80050000Y-74960000D01*
X80200000Y-94310000D02*
X80050000Y-94010000D01*
X80500000Y-94310000D02*
X80200000Y-94310000D01*
X84900000Y-94310000D02*
X84600000Y-94310000D01*
X84900000Y-94310000D02*
X85050000Y-94010000D01*
D10*
X84500000Y-91160000D02*
G75*
G03X80650000Y-91110000I-1950000J-1900000D01*
G01*
D12*
X80200000Y-87960000D02*
X80050000Y-87660000D01*
X80500000Y-87960000D02*
X80200000Y-87960000D01*
X84900000Y-87960000D02*
X84600000Y-87960000D01*
X84900000Y-87960000D02*
X85050000Y-87660000D01*
D10*
X84500000Y-84810000D02*
G75*
G03X80650000Y-84760000I-1950000J-1900000D01*
G01*
D11*
X70585000Y-62770000D02*
X70255000Y-62770000D01*
X70585000Y-69310000D02*
X70585000Y-62770000D01*
X70255000Y-69310000D02*
X70585000Y-69310000D01*
X67845000Y-62770000D02*
X68175000Y-62770000D01*
X67845000Y-69310000D02*
X67845000Y-62770000D01*
X68175000Y-69310000D02*
X67845000Y-69310000D01*
X48490000Y-81375000D02*
X48160000Y-81375000D01*
X48160000Y-81375000D02*
X48160000Y-74835000D01*
X48160000Y-74835000D02*
X48490000Y-74835000D01*
X50570000Y-81375000D02*
X50900000Y-81375000D01*
X50900000Y-81375000D02*
X50900000Y-74835000D01*
X50900000Y-74835000D02*
X50570000Y-74835000D01*
X33250000Y-81285000D02*
X32920000Y-81285000D01*
X32920000Y-81285000D02*
X32920000Y-74745000D01*
X32920000Y-74745000D02*
X33250000Y-74745000D01*
X35330000Y-81285000D02*
X35660000Y-81285000D01*
X35660000Y-81285000D02*
X35660000Y-74745000D01*
X35660000Y-74745000D02*
X35330000Y-74745000D01*
X65505000Y-74835000D02*
X65175000Y-74835000D01*
X65505000Y-81375000D02*
X65505000Y-74835000D01*
X65175000Y-81375000D02*
X65505000Y-81375000D01*
X62765000Y-74835000D02*
X63095000Y-74835000D01*
X62765000Y-81375000D02*
X62765000Y-74835000D01*
X63095000Y-81375000D02*
X62765000Y-81375000D01*
X40910000Y-74745000D02*
X40580000Y-74745000D01*
X40910000Y-81285000D02*
X40910000Y-74745000D01*
X40580000Y-81285000D02*
X40910000Y-81285000D01*
X38170000Y-74745000D02*
X38500000Y-74745000D01*
X38170000Y-81285000D02*
X38170000Y-74745000D01*
X38500000Y-81285000D02*
X38170000Y-81285000D01*
X73115000Y-69480000D02*
X72785000Y-69480000D01*
X72785000Y-69480000D02*
X72785000Y-62940000D01*
X72785000Y-62940000D02*
X73115000Y-62940000D01*
X75195000Y-69480000D02*
X75525000Y-69480000D01*
X75525000Y-69480000D02*
X75525000Y-62940000D01*
X75525000Y-62940000D02*
X75195000Y-62940000D01*
X58235000Y-81310000D02*
X57905000Y-81310000D01*
X57905000Y-81310000D02*
X57905000Y-74770000D01*
X57905000Y-74770000D02*
X58235000Y-74770000D01*
X60315000Y-81310000D02*
X60645000Y-81310000D01*
X60645000Y-81310000D02*
X60645000Y-74770000D01*
X60645000Y-74770000D02*
X60315000Y-74770000D01*
X70585000Y-74835000D02*
X70255000Y-74835000D01*
X70585000Y-81375000D02*
X70585000Y-74835000D01*
X70255000Y-81375000D02*
X70585000Y-81375000D01*
X67845000Y-74835000D02*
X68175000Y-74835000D01*
X67845000Y-81375000D02*
X67845000Y-74835000D01*
X68175000Y-81375000D02*
X67845000Y-81375000D01*
X43820000Y-81285000D02*
X43490000Y-81285000D01*
X43490000Y-81285000D02*
X43490000Y-74745000D01*
X43490000Y-74745000D02*
X43820000Y-74745000D01*
X45900000Y-81285000D02*
X46230000Y-81285000D01*
X46230000Y-81285000D02*
X46230000Y-74745000D01*
X46230000Y-74745000D02*
X45900000Y-74745000D01*
X28250000Y-61155000D02*
X38020000Y-61155000D01*
X28250000Y-70925000D02*
X38020000Y-70925000D01*
X28250000Y-61155000D02*
X28250000Y-70925000D01*
X38020000Y-61155000D02*
X38020000Y-70925000D01*
X53570000Y-81310000D02*
X53240000Y-81310000D01*
X53240000Y-81310000D02*
X53240000Y-74770000D01*
X53240000Y-74770000D02*
X53570000Y-74770000D01*
X55650000Y-81310000D02*
X55980000Y-81310000D01*
X55980000Y-81310000D02*
X55980000Y-74770000D01*
X55980000Y-74770000D02*
X55650000Y-74770000D01*
X75665000Y-74835000D02*
X75335000Y-74835000D01*
X75665000Y-81375000D02*
X75665000Y-74835000D01*
X75335000Y-81375000D02*
X75665000Y-81375000D01*
X72925000Y-74835000D02*
X73255000Y-74835000D01*
X72925000Y-81375000D02*
X72925000Y-74835000D01*
X73255000Y-81375000D02*
X72925000Y-81375000D01*
D12*
X65125000Y-87280000D02*
X65125000Y-87630000D01*
X64750000Y-87280000D02*
X65125000Y-87280000D01*
X52225000Y-87280000D02*
X52625000Y-87280000D01*
X52225000Y-87280000D02*
X52225000Y-87655000D01*
X52225000Y-94330000D02*
X52225000Y-93905000D01*
X52225000Y-94330000D02*
X52675000Y-94330000D01*
X65100000Y-94330000D02*
X64650000Y-94330000D01*
X65125000Y-94330000D02*
X65125000Y-93905000D01*
D11*
X75890000Y-86170000D02*
X75890000Y-94170000D01*
X75890000Y-94170000D02*
X68890000Y-94170000D01*
X68890000Y-94170000D02*
X68890000Y-86170000D01*
X68890000Y-86170000D02*
X75890000Y-86170000D01*
D12*
X47725000Y-94330000D02*
X47725000Y-93905000D01*
X47700000Y-94330000D02*
X47250000Y-94330000D01*
X34825000Y-94330000D02*
X35275000Y-94330000D01*
X34825000Y-94330000D02*
X34825000Y-93905000D01*
X34825000Y-87280000D02*
X34825000Y-87655000D01*
X34825000Y-87280000D02*
X35225000Y-87280000D01*
X47350000Y-87280000D02*
X47725000Y-87280000D01*
X47725000Y-87280000D02*
X47725000Y-87630000D01*
D10*
X61547142Y-60722142D02*
X61499523Y-60769761D01*
X61356666Y-60817380D01*
X61261428Y-60817380D01*
X61118571Y-60769761D01*
X61023333Y-60674523D01*
X60975714Y-60579285D01*
X60928095Y-60388809D01*
X60928095Y-60245952D01*
X60975714Y-60055476D01*
X61023333Y-59960238D01*
X61118571Y-59865000D01*
X61261428Y-59817380D01*
X61356666Y-59817380D01*
X61499523Y-59865000D01*
X61547142Y-59912619D01*
X62451904Y-59817380D02*
X61975714Y-59817380D01*
X61928095Y-60293571D01*
X61975714Y-60245952D01*
X62070952Y-60198333D01*
X62309047Y-60198333D01*
X62404285Y-60245952D01*
X62451904Y-60293571D01*
X62499523Y-60388809D01*
X62499523Y-60626904D01*
X62451904Y-60722142D01*
X62404285Y-60769761D01*
X62309047Y-60817380D01*
X62070952Y-60817380D01*
X61975714Y-60769761D01*
X61928095Y-60722142D01*
X63404285Y-59817380D02*
X62928095Y-59817380D01*
X62880476Y-60293571D01*
X62928095Y-60245952D01*
X63023333Y-60198333D01*
X63261428Y-60198333D01*
X63356666Y-60245952D01*
X63404285Y-60293571D01*
X63451904Y-60388809D01*
X63451904Y-60626904D01*
X63404285Y-60722142D01*
X63356666Y-60769761D01*
X63261428Y-60817380D01*
X63023333Y-60817380D01*
X62928095Y-60769761D01*
X62880476Y-60722142D01*
X53102142Y-66087857D02*
X53149761Y-66135476D01*
X53197380Y-66278333D01*
X53197380Y-66373571D01*
X53149761Y-66516428D01*
X53054523Y-66611666D01*
X52959285Y-66659285D01*
X52768809Y-66706904D01*
X52625952Y-66706904D01*
X52435476Y-66659285D01*
X52340238Y-66611666D01*
X52245000Y-66516428D01*
X52197380Y-66373571D01*
X52197380Y-66278333D01*
X52245000Y-66135476D01*
X52292619Y-66087857D01*
X52197380Y-65183095D02*
X52197380Y-65659285D01*
X52673571Y-65706904D01*
X52625952Y-65659285D01*
X52578333Y-65564047D01*
X52578333Y-65325952D01*
X52625952Y-65230714D01*
X52673571Y-65183095D01*
X52768809Y-65135476D01*
X53006904Y-65135476D01*
X53102142Y-65183095D01*
X53149761Y-65230714D01*
X53197380Y-65325952D01*
X53197380Y-65564047D01*
X53149761Y-65659285D01*
X53102142Y-65706904D01*
X52197380Y-64802142D02*
X52197380Y-64135476D01*
X53197380Y-64564047D01*
X61547142Y-65802142D02*
X61499523Y-65849761D01*
X61356666Y-65897380D01*
X61261428Y-65897380D01*
X61118571Y-65849761D01*
X61023333Y-65754523D01*
X60975714Y-65659285D01*
X60928095Y-65468809D01*
X60928095Y-65325952D01*
X60975714Y-65135476D01*
X61023333Y-65040238D01*
X61118571Y-64945000D01*
X61261428Y-64897380D01*
X61356666Y-64897380D01*
X61499523Y-64945000D01*
X61547142Y-64992619D01*
X62404285Y-64897380D02*
X62213809Y-64897380D01*
X62118571Y-64945000D01*
X62070952Y-64992619D01*
X61975714Y-65135476D01*
X61928095Y-65325952D01*
X61928095Y-65706904D01*
X61975714Y-65802142D01*
X62023333Y-65849761D01*
X62118571Y-65897380D01*
X62309047Y-65897380D01*
X62404285Y-65849761D01*
X62451904Y-65802142D01*
X62499523Y-65706904D01*
X62499523Y-65468809D01*
X62451904Y-65373571D01*
X62404285Y-65325952D01*
X62309047Y-65278333D01*
X62118571Y-65278333D01*
X62023333Y-65325952D01*
X61975714Y-65373571D01*
X61928095Y-65468809D01*
X63118571Y-64897380D02*
X63213809Y-64897380D01*
X63309047Y-64945000D01*
X63356666Y-64992619D01*
X63404285Y-65087857D01*
X63451904Y-65278333D01*
X63451904Y-65516428D01*
X63404285Y-65706904D01*
X63356666Y-65802142D01*
X63309047Y-65849761D01*
X63213809Y-65897380D01*
X63118571Y-65897380D01*
X63023333Y-65849761D01*
X62975714Y-65802142D01*
X62928095Y-65706904D01*
X62880476Y-65516428D01*
X62880476Y-65278333D01*
X62928095Y-65087857D01*
X62975714Y-64992619D01*
X63023333Y-64945000D01*
X63118571Y-64897380D01*
X45232142Y-72012142D02*
X45184523Y-72059761D01*
X45041666Y-72107380D01*
X44946428Y-72107380D01*
X44803571Y-72059761D01*
X44708333Y-71964523D01*
X44660714Y-71869285D01*
X44613095Y-71678809D01*
X44613095Y-71535952D01*
X44660714Y-71345476D01*
X44708333Y-71250238D01*
X44803571Y-71155000D01*
X44946428Y-71107380D01*
X45041666Y-71107380D01*
X45184523Y-71155000D01*
X45232142Y-71202619D01*
X46089285Y-71107380D02*
X45898809Y-71107380D01*
X45803571Y-71155000D01*
X45755952Y-71202619D01*
X45660714Y-71345476D01*
X45613095Y-71535952D01*
X45613095Y-71916904D01*
X45660714Y-72012142D01*
X45708333Y-72059761D01*
X45803571Y-72107380D01*
X45994047Y-72107380D01*
X46089285Y-72059761D01*
X46136904Y-72012142D01*
X46184523Y-71916904D01*
X46184523Y-71678809D01*
X46136904Y-71583571D01*
X46089285Y-71535952D01*
X45994047Y-71488333D01*
X45803571Y-71488333D01*
X45708333Y-71535952D01*
X45660714Y-71583571D01*
X45613095Y-71678809D01*
X46517857Y-71107380D02*
X47136904Y-71107380D01*
X46803571Y-71488333D01*
X46946428Y-71488333D01*
X47041666Y-71535952D01*
X47089285Y-71583571D01*
X47136904Y-71678809D01*
X47136904Y-71916904D01*
X47089285Y-72012142D01*
X47041666Y-72059761D01*
X46946428Y-72107380D01*
X46660714Y-72107380D01*
X46565476Y-72059761D01*
X46517857Y-72012142D01*
X27606666Y-86657380D02*
X27606666Y-87371666D01*
X27559047Y-87514523D01*
X27463809Y-87609761D01*
X27320952Y-87657380D01*
X27225714Y-87657380D01*
X28606666Y-87657380D02*
X28035238Y-87657380D01*
X28320952Y-87657380D02*
X28320952Y-86657380D01*
X28225714Y-86800238D01*
X28130476Y-86895476D01*
X28035238Y-86943095D01*
X27606666Y-72687380D02*
X27606666Y-73401666D01*
X27559047Y-73544523D01*
X27463809Y-73639761D01*
X27320952Y-73687380D01*
X27225714Y-73687380D01*
X28035238Y-72782619D02*
X28082857Y-72735000D01*
X28178095Y-72687380D01*
X28416190Y-72687380D01*
X28511428Y-72735000D01*
X28559047Y-72782619D01*
X28606666Y-72877857D01*
X28606666Y-72973095D01*
X28559047Y-73115952D01*
X27987619Y-73687380D01*
X28606666Y-73687380D01*
X89836666Y-66972380D02*
X89836666Y-67686666D01*
X89789047Y-67829523D01*
X89693809Y-67924761D01*
X89550952Y-67972380D01*
X89455714Y-67972380D01*
X90217619Y-66972380D02*
X90836666Y-66972380D01*
X90503333Y-67353333D01*
X90646190Y-67353333D01*
X90741428Y-67400952D01*
X90789047Y-67448571D01*
X90836666Y-67543809D01*
X90836666Y-67781904D01*
X90789047Y-67877142D01*
X90741428Y-67924761D01*
X90646190Y-67972380D01*
X90360476Y-67972380D01*
X90265238Y-67924761D01*
X90217619Y-67877142D01*
X89836666Y-73322380D02*
X89836666Y-74036666D01*
X89789047Y-74179523D01*
X89693809Y-74274761D01*
X89550952Y-74322380D01*
X89455714Y-74322380D01*
X90741428Y-73655714D02*
X90741428Y-74322380D01*
X90503333Y-73274761D02*
X90265238Y-73989047D01*
X90884285Y-73989047D01*
X89836666Y-81137380D02*
X89836666Y-81851666D01*
X89789047Y-81994523D01*
X89693809Y-82089761D01*
X89550952Y-82137380D01*
X89455714Y-82137380D01*
X90455714Y-81565952D02*
X90360476Y-81518333D01*
X90312857Y-81470714D01*
X90265238Y-81375476D01*
X90265238Y-81327857D01*
X90312857Y-81232619D01*
X90360476Y-81185000D01*
X90455714Y-81137380D01*
X90646190Y-81137380D01*
X90741428Y-81185000D01*
X90789047Y-81232619D01*
X90836666Y-81327857D01*
X90836666Y-81375476D01*
X90789047Y-81470714D01*
X90741428Y-81518333D01*
X90646190Y-81565952D01*
X90455714Y-81565952D01*
X90360476Y-81613571D01*
X90312857Y-81661190D01*
X90265238Y-81756428D01*
X90265238Y-81946904D01*
X90312857Y-82042142D01*
X90360476Y-82089761D01*
X90455714Y-82137380D01*
X90646190Y-82137380D01*
X90741428Y-82089761D01*
X90789047Y-82042142D01*
X90836666Y-81946904D01*
X90836666Y-81756428D01*
X90789047Y-81661190D01*
X90741428Y-81613571D01*
X90646190Y-81565952D01*
X81978571Y-77207619D02*
X81883333Y-77160000D01*
X81788095Y-77064761D01*
X81645238Y-76921904D01*
X81550000Y-76874285D01*
X81454761Y-76874285D01*
X81502380Y-77112380D02*
X81407142Y-77064761D01*
X81311904Y-76969523D01*
X81264285Y-76779047D01*
X81264285Y-76445714D01*
X81311904Y-76255238D01*
X81407142Y-76160000D01*
X81502380Y-76112380D01*
X81692857Y-76112380D01*
X81788095Y-76160000D01*
X81883333Y-76255238D01*
X81930952Y-76445714D01*
X81930952Y-76779047D01*
X81883333Y-76969523D01*
X81788095Y-77064761D01*
X81692857Y-77112380D01*
X81502380Y-77112380D01*
X82264285Y-76112380D02*
X82883333Y-76112380D01*
X82550000Y-76493333D01*
X82692857Y-76493333D01*
X82788095Y-76540952D01*
X82835714Y-76588571D01*
X82883333Y-76683809D01*
X82883333Y-76921904D01*
X82835714Y-77017142D01*
X82788095Y-77064761D01*
X82692857Y-77112380D01*
X82407142Y-77112380D01*
X82311904Y-77064761D01*
X82264285Y-77017142D01*
X83502380Y-76112380D02*
X83597619Y-76112380D01*
X83692857Y-76160000D01*
X83740476Y-76207619D01*
X83788095Y-76302857D01*
X83835714Y-76493333D01*
X83835714Y-76731428D01*
X83788095Y-76921904D01*
X83740476Y-77017142D01*
X83692857Y-77064761D01*
X83597619Y-77112380D01*
X83502380Y-77112380D01*
X83407142Y-77064761D01*
X83359523Y-77017142D01*
X83311904Y-76921904D01*
X83264285Y-76731428D01*
X83264285Y-76493333D01*
X83311904Y-76302857D01*
X83359523Y-76207619D01*
X83407142Y-76160000D01*
X83502380Y-76112380D01*
X81978571Y-64507619D02*
X81883333Y-64460000D01*
X81788095Y-64364761D01*
X81645238Y-64221904D01*
X81550000Y-64174285D01*
X81454761Y-64174285D01*
X81502380Y-64412380D02*
X81407142Y-64364761D01*
X81311904Y-64269523D01*
X81264285Y-64079047D01*
X81264285Y-63745714D01*
X81311904Y-63555238D01*
X81407142Y-63460000D01*
X81502380Y-63412380D01*
X81692857Y-63412380D01*
X81788095Y-63460000D01*
X81883333Y-63555238D01*
X81930952Y-63745714D01*
X81930952Y-64079047D01*
X81883333Y-64269523D01*
X81788095Y-64364761D01*
X81692857Y-64412380D01*
X81502380Y-64412380D01*
X82264285Y-63412380D02*
X82883333Y-63412380D01*
X82550000Y-63793333D01*
X82692857Y-63793333D01*
X82788095Y-63840952D01*
X82835714Y-63888571D01*
X82883333Y-63983809D01*
X82883333Y-64221904D01*
X82835714Y-64317142D01*
X82788095Y-64364761D01*
X82692857Y-64412380D01*
X82407142Y-64412380D01*
X82311904Y-64364761D01*
X82264285Y-64317142D01*
X83264285Y-63507619D02*
X83311904Y-63460000D01*
X83407142Y-63412380D01*
X83645238Y-63412380D01*
X83740476Y-63460000D01*
X83788095Y-63507619D01*
X83835714Y-63602857D01*
X83835714Y-63698095D01*
X83788095Y-63840952D01*
X83216666Y-64412380D01*
X83835714Y-64412380D01*
X81978571Y-70857619D02*
X81883333Y-70810000D01*
X81788095Y-70714761D01*
X81645238Y-70571904D01*
X81550000Y-70524285D01*
X81454761Y-70524285D01*
X81502380Y-70762380D02*
X81407142Y-70714761D01*
X81311904Y-70619523D01*
X81264285Y-70429047D01*
X81264285Y-70095714D01*
X81311904Y-69905238D01*
X81407142Y-69810000D01*
X81502380Y-69762380D01*
X81692857Y-69762380D01*
X81788095Y-69810000D01*
X81883333Y-69905238D01*
X81930952Y-70095714D01*
X81930952Y-70429047D01*
X81883333Y-70619523D01*
X81788095Y-70714761D01*
X81692857Y-70762380D01*
X81502380Y-70762380D01*
X82264285Y-69762380D02*
X82883333Y-69762380D01*
X82550000Y-70143333D01*
X82692857Y-70143333D01*
X82788095Y-70190952D01*
X82835714Y-70238571D01*
X82883333Y-70333809D01*
X82883333Y-70571904D01*
X82835714Y-70667142D01*
X82788095Y-70714761D01*
X82692857Y-70762380D01*
X82407142Y-70762380D01*
X82311904Y-70714761D01*
X82264285Y-70667142D01*
X83740476Y-70095714D02*
X83740476Y-70762380D01*
X83502380Y-69714761D02*
X83264285Y-70429047D01*
X83883333Y-70429047D01*
X81978571Y-89907619D02*
X81883333Y-89860000D01*
X81788095Y-89764761D01*
X81645238Y-89621904D01*
X81550000Y-89574285D01*
X81454761Y-89574285D01*
X81502380Y-89812380D02*
X81407142Y-89764761D01*
X81311904Y-89669523D01*
X81264285Y-89479047D01*
X81264285Y-89145714D01*
X81311904Y-88955238D01*
X81407142Y-88860000D01*
X81502380Y-88812380D01*
X81692857Y-88812380D01*
X81788095Y-88860000D01*
X81883333Y-88955238D01*
X81930952Y-89145714D01*
X81930952Y-89479047D01*
X81883333Y-89669523D01*
X81788095Y-89764761D01*
X81692857Y-89812380D01*
X81502380Y-89812380D01*
X82264285Y-88812380D02*
X82883333Y-88812380D01*
X82550000Y-89193333D01*
X82692857Y-89193333D01*
X82788095Y-89240952D01*
X82835714Y-89288571D01*
X82883333Y-89383809D01*
X82883333Y-89621904D01*
X82835714Y-89717142D01*
X82788095Y-89764761D01*
X82692857Y-89812380D01*
X82407142Y-89812380D01*
X82311904Y-89764761D01*
X82264285Y-89717142D01*
X83788095Y-88812380D02*
X83311904Y-88812380D01*
X83264285Y-89288571D01*
X83311904Y-89240952D01*
X83407142Y-89193333D01*
X83645238Y-89193333D01*
X83740476Y-89240952D01*
X83788095Y-89288571D01*
X83835714Y-89383809D01*
X83835714Y-89621904D01*
X83788095Y-89717142D01*
X83740476Y-89764761D01*
X83645238Y-89812380D01*
X83407142Y-89812380D01*
X83311904Y-89764761D01*
X83264285Y-89717142D01*
X81978571Y-83557619D02*
X81883333Y-83510000D01*
X81788095Y-83414761D01*
X81645238Y-83271904D01*
X81550000Y-83224285D01*
X81454761Y-83224285D01*
X81502380Y-83462380D02*
X81407142Y-83414761D01*
X81311904Y-83319523D01*
X81264285Y-83129047D01*
X81264285Y-82795714D01*
X81311904Y-82605238D01*
X81407142Y-82510000D01*
X81502380Y-82462380D01*
X81692857Y-82462380D01*
X81788095Y-82510000D01*
X81883333Y-82605238D01*
X81930952Y-82795714D01*
X81930952Y-83129047D01*
X81883333Y-83319523D01*
X81788095Y-83414761D01*
X81692857Y-83462380D01*
X81502380Y-83462380D01*
X82264285Y-82462380D02*
X82883333Y-82462380D01*
X82550000Y-82843333D01*
X82692857Y-82843333D01*
X82788095Y-82890952D01*
X82835714Y-82938571D01*
X82883333Y-83033809D01*
X82883333Y-83271904D01*
X82835714Y-83367142D01*
X82788095Y-83414761D01*
X82692857Y-83462380D01*
X82407142Y-83462380D01*
X82311904Y-83414761D01*
X82264285Y-83367142D01*
X83740476Y-82462380D02*
X83550000Y-82462380D01*
X83454761Y-82510000D01*
X83407142Y-82557619D01*
X83311904Y-82700476D01*
X83264285Y-82890952D01*
X83264285Y-83271904D01*
X83311904Y-83367142D01*
X83359523Y-83414761D01*
X83454761Y-83462380D01*
X83645238Y-83462380D01*
X83740476Y-83414761D01*
X83788095Y-83367142D01*
X83835714Y-83271904D01*
X83835714Y-83033809D01*
X83788095Y-82938571D01*
X83740476Y-82890952D01*
X83645238Y-82843333D01*
X83454761Y-82843333D01*
X83359523Y-82890952D01*
X83311904Y-82938571D01*
X83264285Y-83033809D01*
X67297380Y-67159047D02*
X66821190Y-67492380D01*
X67297380Y-67730476D02*
X66297380Y-67730476D01*
X66297380Y-67349523D01*
X66345000Y-67254285D01*
X66392619Y-67206666D01*
X66487857Y-67159047D01*
X66630714Y-67159047D01*
X66725952Y-67206666D01*
X66773571Y-67254285D01*
X66821190Y-67349523D01*
X66821190Y-67730476D01*
X67297380Y-66206666D02*
X67297380Y-66778095D01*
X67297380Y-66492380D02*
X66297380Y-66492380D01*
X66440238Y-66587619D01*
X66535476Y-66682857D01*
X66583095Y-66778095D01*
X66297380Y-65587619D02*
X66297380Y-65492380D01*
X66345000Y-65397142D01*
X66392619Y-65349523D01*
X66487857Y-65301904D01*
X66678333Y-65254285D01*
X66916428Y-65254285D01*
X67106904Y-65301904D01*
X67202142Y-65349523D01*
X67249761Y-65397142D01*
X67297380Y-65492380D01*
X67297380Y-65587619D01*
X67249761Y-65682857D01*
X67202142Y-65730476D01*
X67106904Y-65778095D01*
X66916428Y-65825714D01*
X66678333Y-65825714D01*
X66487857Y-65778095D01*
X66392619Y-65730476D01*
X66345000Y-65682857D01*
X66297380Y-65587619D01*
X66297380Y-64635238D02*
X66297380Y-64540000D01*
X66345000Y-64444761D01*
X66392619Y-64397142D01*
X66487857Y-64349523D01*
X66678333Y-64301904D01*
X66916428Y-64301904D01*
X67106904Y-64349523D01*
X67202142Y-64397142D01*
X67249761Y-64444761D01*
X67297380Y-64540000D01*
X67297380Y-64635238D01*
X67249761Y-64730476D01*
X67202142Y-64778095D01*
X67106904Y-64825714D01*
X66916428Y-64873333D01*
X66678333Y-64873333D01*
X66487857Y-64825714D01*
X66392619Y-64778095D01*
X66345000Y-64730476D01*
X66297380Y-64635238D01*
X47612380Y-79224047D02*
X47136190Y-79557380D01*
X47612380Y-79795476D02*
X46612380Y-79795476D01*
X46612380Y-79414523D01*
X46660000Y-79319285D01*
X46707619Y-79271666D01*
X46802857Y-79224047D01*
X46945714Y-79224047D01*
X47040952Y-79271666D01*
X47088571Y-79319285D01*
X47136190Y-79414523D01*
X47136190Y-79795476D01*
X47612380Y-78271666D02*
X47612380Y-78843095D01*
X47612380Y-78557380D02*
X46612380Y-78557380D01*
X46755238Y-78652619D01*
X46850476Y-78747857D01*
X46898095Y-78843095D01*
X46612380Y-77652619D02*
X46612380Y-77557380D01*
X46660000Y-77462142D01*
X46707619Y-77414523D01*
X46802857Y-77366904D01*
X46993333Y-77319285D01*
X47231428Y-77319285D01*
X47421904Y-77366904D01*
X47517142Y-77414523D01*
X47564761Y-77462142D01*
X47612380Y-77557380D01*
X47612380Y-77652619D01*
X47564761Y-77747857D01*
X47517142Y-77795476D01*
X47421904Y-77843095D01*
X47231428Y-77890714D01*
X46993333Y-77890714D01*
X46802857Y-77843095D01*
X46707619Y-77795476D01*
X46660000Y-77747857D01*
X46612380Y-77652619D01*
X47040952Y-76747857D02*
X46993333Y-76843095D01*
X46945714Y-76890714D01*
X46850476Y-76938333D01*
X46802857Y-76938333D01*
X46707619Y-76890714D01*
X46660000Y-76843095D01*
X46612380Y-76747857D01*
X46612380Y-76557380D01*
X46660000Y-76462142D01*
X46707619Y-76414523D01*
X46802857Y-76366904D01*
X46850476Y-76366904D01*
X46945714Y-76414523D01*
X46993333Y-76462142D01*
X47040952Y-76557380D01*
X47040952Y-76747857D01*
X47088571Y-76843095D01*
X47136190Y-76890714D01*
X47231428Y-76938333D01*
X47421904Y-76938333D01*
X47517142Y-76890714D01*
X47564761Y-76843095D01*
X47612380Y-76747857D01*
X47612380Y-76557380D01*
X47564761Y-76462142D01*
X47517142Y-76414523D01*
X47421904Y-76366904D01*
X47231428Y-76366904D01*
X47136190Y-76414523D01*
X47088571Y-76462142D01*
X47040952Y-76557380D01*
X32372380Y-79134047D02*
X31896190Y-79467380D01*
X32372380Y-79705476D02*
X31372380Y-79705476D01*
X31372380Y-79324523D01*
X31420000Y-79229285D01*
X31467619Y-79181666D01*
X31562857Y-79134047D01*
X31705714Y-79134047D01*
X31800952Y-79181666D01*
X31848571Y-79229285D01*
X31896190Y-79324523D01*
X31896190Y-79705476D01*
X32372380Y-78181666D02*
X32372380Y-78753095D01*
X32372380Y-78467380D02*
X31372380Y-78467380D01*
X31515238Y-78562619D01*
X31610476Y-78657857D01*
X31658095Y-78753095D01*
X32372380Y-77229285D02*
X32372380Y-77800714D01*
X32372380Y-77515000D02*
X31372380Y-77515000D01*
X31515238Y-77610238D01*
X31610476Y-77705476D01*
X31658095Y-77800714D01*
X31372380Y-76610238D02*
X31372380Y-76515000D01*
X31420000Y-76419761D01*
X31467619Y-76372142D01*
X31562857Y-76324523D01*
X31753333Y-76276904D01*
X31991428Y-76276904D01*
X32181904Y-76324523D01*
X32277142Y-76372142D01*
X32324761Y-76419761D01*
X32372380Y-76515000D01*
X32372380Y-76610238D01*
X32324761Y-76705476D01*
X32277142Y-76753095D01*
X32181904Y-76800714D01*
X31991428Y-76848333D01*
X31753333Y-76848333D01*
X31562857Y-76800714D01*
X31467619Y-76753095D01*
X31420000Y-76705476D01*
X31372380Y-76610238D01*
X62217380Y-79224047D02*
X61741190Y-79557380D01*
X62217380Y-79795476D02*
X61217380Y-79795476D01*
X61217380Y-79414523D01*
X61265000Y-79319285D01*
X61312619Y-79271666D01*
X61407857Y-79224047D01*
X61550714Y-79224047D01*
X61645952Y-79271666D01*
X61693571Y-79319285D01*
X61741190Y-79414523D01*
X61741190Y-79795476D01*
X62217380Y-78271666D02*
X62217380Y-78843095D01*
X62217380Y-78557380D02*
X61217380Y-78557380D01*
X61360238Y-78652619D01*
X61455476Y-78747857D01*
X61503095Y-78843095D01*
X62217380Y-77319285D02*
X62217380Y-77890714D01*
X62217380Y-77605000D02*
X61217380Y-77605000D01*
X61360238Y-77700238D01*
X61455476Y-77795476D01*
X61503095Y-77890714D01*
X62217380Y-76366904D02*
X62217380Y-76938333D01*
X62217380Y-76652619D02*
X61217380Y-76652619D01*
X61360238Y-76747857D01*
X61455476Y-76843095D01*
X61503095Y-76938333D01*
X37622380Y-79134047D02*
X37146190Y-79467380D01*
X37622380Y-79705476D02*
X36622380Y-79705476D01*
X36622380Y-79324523D01*
X36670000Y-79229285D01*
X36717619Y-79181666D01*
X36812857Y-79134047D01*
X36955714Y-79134047D01*
X37050952Y-79181666D01*
X37098571Y-79229285D01*
X37146190Y-79324523D01*
X37146190Y-79705476D01*
X37622380Y-78181666D02*
X37622380Y-78753095D01*
X37622380Y-78467380D02*
X36622380Y-78467380D01*
X36765238Y-78562619D01*
X36860476Y-78657857D01*
X36908095Y-78753095D01*
X37622380Y-77229285D02*
X37622380Y-77800714D01*
X37622380Y-77515000D02*
X36622380Y-77515000D01*
X36765238Y-77610238D01*
X36860476Y-77705476D01*
X36908095Y-77800714D01*
X36717619Y-76848333D02*
X36670000Y-76800714D01*
X36622380Y-76705476D01*
X36622380Y-76467380D01*
X36670000Y-76372142D01*
X36717619Y-76324523D01*
X36812857Y-76276904D01*
X36908095Y-76276904D01*
X37050952Y-76324523D01*
X37622380Y-76895952D01*
X37622380Y-76276904D01*
X72237380Y-67329047D02*
X71761190Y-67662380D01*
X72237380Y-67900476D02*
X71237380Y-67900476D01*
X71237380Y-67519523D01*
X71285000Y-67424285D01*
X71332619Y-67376666D01*
X71427857Y-67329047D01*
X71570714Y-67329047D01*
X71665952Y-67376666D01*
X71713571Y-67424285D01*
X71761190Y-67519523D01*
X71761190Y-67900476D01*
X72237380Y-66376666D02*
X72237380Y-66948095D01*
X72237380Y-66662380D02*
X71237380Y-66662380D01*
X71380238Y-66757619D01*
X71475476Y-66852857D01*
X71523095Y-66948095D01*
X72237380Y-65424285D02*
X72237380Y-65995714D01*
X72237380Y-65710000D02*
X71237380Y-65710000D01*
X71380238Y-65805238D01*
X71475476Y-65900476D01*
X71523095Y-65995714D01*
X71237380Y-64519523D02*
X71237380Y-64995714D01*
X71713571Y-65043333D01*
X71665952Y-64995714D01*
X71618333Y-64900476D01*
X71618333Y-64662380D01*
X71665952Y-64567142D01*
X71713571Y-64519523D01*
X71808809Y-64471904D01*
X72046904Y-64471904D01*
X72142142Y-64519523D01*
X72189761Y-64567142D01*
X72237380Y-64662380D01*
X72237380Y-64900476D01*
X72189761Y-64995714D01*
X72142142Y-65043333D01*
X57357380Y-79159047D02*
X56881190Y-79492380D01*
X57357380Y-79730476D02*
X56357380Y-79730476D01*
X56357380Y-79349523D01*
X56405000Y-79254285D01*
X56452619Y-79206666D01*
X56547857Y-79159047D01*
X56690714Y-79159047D01*
X56785952Y-79206666D01*
X56833571Y-79254285D01*
X56881190Y-79349523D01*
X56881190Y-79730476D01*
X57357380Y-78206666D02*
X57357380Y-78778095D01*
X57357380Y-78492380D02*
X56357380Y-78492380D01*
X56500238Y-78587619D01*
X56595476Y-78682857D01*
X56643095Y-78778095D01*
X57357380Y-77254285D02*
X57357380Y-77825714D01*
X57357380Y-77540000D02*
X56357380Y-77540000D01*
X56500238Y-77635238D01*
X56595476Y-77730476D01*
X56643095Y-77825714D01*
X56357380Y-76397142D02*
X56357380Y-76587619D01*
X56405000Y-76682857D01*
X56452619Y-76730476D01*
X56595476Y-76825714D01*
X56785952Y-76873333D01*
X57166904Y-76873333D01*
X57262142Y-76825714D01*
X57309761Y-76778095D01*
X57357380Y-76682857D01*
X57357380Y-76492380D01*
X57309761Y-76397142D01*
X57262142Y-76349523D01*
X57166904Y-76301904D01*
X56928809Y-76301904D01*
X56833571Y-76349523D01*
X56785952Y-76397142D01*
X56738333Y-76492380D01*
X56738333Y-76682857D01*
X56785952Y-76778095D01*
X56833571Y-76825714D01*
X56928809Y-76873333D01*
X67297380Y-79224047D02*
X66821190Y-79557380D01*
X67297380Y-79795476D02*
X66297380Y-79795476D01*
X66297380Y-79414523D01*
X66345000Y-79319285D01*
X66392619Y-79271666D01*
X66487857Y-79224047D01*
X66630714Y-79224047D01*
X66725952Y-79271666D01*
X66773571Y-79319285D01*
X66821190Y-79414523D01*
X66821190Y-79795476D01*
X67297380Y-78271666D02*
X67297380Y-78843095D01*
X67297380Y-78557380D02*
X66297380Y-78557380D01*
X66440238Y-78652619D01*
X66535476Y-78747857D01*
X66583095Y-78843095D01*
X67297380Y-77319285D02*
X67297380Y-77890714D01*
X67297380Y-77605000D02*
X66297380Y-77605000D01*
X66440238Y-77700238D01*
X66535476Y-77795476D01*
X66583095Y-77890714D01*
X66725952Y-76747857D02*
X66678333Y-76843095D01*
X66630714Y-76890714D01*
X66535476Y-76938333D01*
X66487857Y-76938333D01*
X66392619Y-76890714D01*
X66345000Y-76843095D01*
X66297380Y-76747857D01*
X66297380Y-76557380D01*
X66345000Y-76462142D01*
X66392619Y-76414523D01*
X66487857Y-76366904D01*
X66535476Y-76366904D01*
X66630714Y-76414523D01*
X66678333Y-76462142D01*
X66725952Y-76557380D01*
X66725952Y-76747857D01*
X66773571Y-76843095D01*
X66821190Y-76890714D01*
X66916428Y-76938333D01*
X67106904Y-76938333D01*
X67202142Y-76890714D01*
X67249761Y-76843095D01*
X67297380Y-76747857D01*
X67297380Y-76557380D01*
X67249761Y-76462142D01*
X67202142Y-76414523D01*
X67106904Y-76366904D01*
X66916428Y-76366904D01*
X66821190Y-76414523D01*
X66773571Y-76462142D01*
X66725952Y-76557380D01*
X42942380Y-79134047D02*
X42466190Y-79467380D01*
X42942380Y-79705476D02*
X41942380Y-79705476D01*
X41942380Y-79324523D01*
X41990000Y-79229285D01*
X42037619Y-79181666D01*
X42132857Y-79134047D01*
X42275714Y-79134047D01*
X42370952Y-79181666D01*
X42418571Y-79229285D01*
X42466190Y-79324523D01*
X42466190Y-79705476D01*
X42942380Y-78181666D02*
X42942380Y-78753095D01*
X42942380Y-78467380D02*
X41942380Y-78467380D01*
X42085238Y-78562619D01*
X42180476Y-78657857D01*
X42228095Y-78753095D01*
X42037619Y-77800714D02*
X41990000Y-77753095D01*
X41942380Y-77657857D01*
X41942380Y-77419761D01*
X41990000Y-77324523D01*
X42037619Y-77276904D01*
X42132857Y-77229285D01*
X42228095Y-77229285D01*
X42370952Y-77276904D01*
X42942380Y-77848333D01*
X42942380Y-77229285D01*
X41942380Y-76610238D02*
X41942380Y-76515000D01*
X41990000Y-76419761D01*
X42037619Y-76372142D01*
X42132857Y-76324523D01*
X42323333Y-76276904D01*
X42561428Y-76276904D01*
X42751904Y-76324523D01*
X42847142Y-76372142D01*
X42894761Y-76419761D01*
X42942380Y-76515000D01*
X42942380Y-76610238D01*
X42894761Y-76705476D01*
X42847142Y-76753095D01*
X42751904Y-76800714D01*
X42561428Y-76848333D01*
X42323333Y-76848333D01*
X42132857Y-76800714D01*
X42037619Y-76753095D01*
X41990000Y-76705476D01*
X41942380Y-76610238D01*
X32015952Y-60477380D02*
X31682619Y-60001190D01*
X31444523Y-60477380D02*
X31444523Y-59477380D01*
X31825476Y-59477380D01*
X31920714Y-59525000D01*
X31968333Y-59572619D01*
X32015952Y-59667857D01*
X32015952Y-59810714D01*
X31968333Y-59905952D01*
X31920714Y-59953571D01*
X31825476Y-60001190D01*
X31444523Y-60001190D01*
X32968333Y-60477380D02*
X32396904Y-60477380D01*
X32682619Y-60477380D02*
X32682619Y-59477380D01*
X32587380Y-59620238D01*
X32492142Y-59715476D01*
X32396904Y-59763095D01*
X33349285Y-59572619D02*
X33396904Y-59525000D01*
X33492142Y-59477380D01*
X33730238Y-59477380D01*
X33825476Y-59525000D01*
X33873095Y-59572619D01*
X33920714Y-59667857D01*
X33920714Y-59763095D01*
X33873095Y-59905952D01*
X33301666Y-60477380D01*
X33920714Y-60477380D01*
X34873095Y-60477380D02*
X34301666Y-60477380D01*
X34587380Y-60477380D02*
X34587380Y-59477380D01*
X34492142Y-59620238D01*
X34396904Y-59715476D01*
X34301666Y-59763095D01*
X52692380Y-79159047D02*
X52216190Y-79492380D01*
X52692380Y-79730476D02*
X51692380Y-79730476D01*
X51692380Y-79349523D01*
X51740000Y-79254285D01*
X51787619Y-79206666D01*
X51882857Y-79159047D01*
X52025714Y-79159047D01*
X52120952Y-79206666D01*
X52168571Y-79254285D01*
X52216190Y-79349523D01*
X52216190Y-79730476D01*
X52692380Y-78206666D02*
X52692380Y-78778095D01*
X52692380Y-78492380D02*
X51692380Y-78492380D01*
X51835238Y-78587619D01*
X51930476Y-78682857D01*
X51978095Y-78778095D01*
X51787619Y-77825714D02*
X51740000Y-77778095D01*
X51692380Y-77682857D01*
X51692380Y-77444761D01*
X51740000Y-77349523D01*
X51787619Y-77301904D01*
X51882857Y-77254285D01*
X51978095Y-77254285D01*
X52120952Y-77301904D01*
X52692380Y-77873333D01*
X52692380Y-77254285D01*
X52025714Y-76397142D02*
X52692380Y-76397142D01*
X51644761Y-76635238D02*
X52359047Y-76873333D01*
X52359047Y-76254285D01*
X72377380Y-79224047D02*
X71901190Y-79557380D01*
X72377380Y-79795476D02*
X71377380Y-79795476D01*
X71377380Y-79414523D01*
X71425000Y-79319285D01*
X71472619Y-79271666D01*
X71567857Y-79224047D01*
X71710714Y-79224047D01*
X71805952Y-79271666D01*
X71853571Y-79319285D01*
X71901190Y-79414523D01*
X71901190Y-79795476D01*
X72377380Y-78271666D02*
X72377380Y-78843095D01*
X72377380Y-78557380D02*
X71377380Y-78557380D01*
X71520238Y-78652619D01*
X71615476Y-78747857D01*
X71663095Y-78843095D01*
X71472619Y-77890714D02*
X71425000Y-77843095D01*
X71377380Y-77747857D01*
X71377380Y-77509761D01*
X71425000Y-77414523D01*
X71472619Y-77366904D01*
X71567857Y-77319285D01*
X71663095Y-77319285D01*
X71805952Y-77366904D01*
X72377380Y-77938333D01*
X72377380Y-77319285D01*
X72377380Y-76843095D02*
X72377380Y-76652619D01*
X72329761Y-76557380D01*
X72282142Y-76509761D01*
X72139285Y-76414523D01*
X71948809Y-76366904D01*
X71567857Y-76366904D01*
X71472619Y-76414523D01*
X71425000Y-76462142D01*
X71377380Y-76557380D01*
X71377380Y-76747857D01*
X71425000Y-76843095D01*
X71472619Y-76890714D01*
X71567857Y-76938333D01*
X71805952Y-76938333D01*
X71901190Y-76890714D01*
X71948809Y-76843095D01*
X71996428Y-76747857D01*
X71996428Y-76557380D01*
X71948809Y-76462142D01*
X71901190Y-76414523D01*
X71805952Y-76366904D01*
X57005476Y-86659761D02*
X57148333Y-86707380D01*
X57386428Y-86707380D01*
X57481666Y-86659761D01*
X57529285Y-86612142D01*
X57576904Y-86516904D01*
X57576904Y-86421666D01*
X57529285Y-86326428D01*
X57481666Y-86278809D01*
X57386428Y-86231190D01*
X57195952Y-86183571D01*
X57100714Y-86135952D01*
X57053095Y-86088333D01*
X57005476Y-85993095D01*
X57005476Y-85897857D01*
X57053095Y-85802619D01*
X57100714Y-85755000D01*
X57195952Y-85707380D01*
X57434047Y-85707380D01*
X57576904Y-85755000D01*
X57910238Y-85707380D02*
X58148333Y-86707380D01*
X58338809Y-85993095D01*
X58529285Y-86707380D01*
X58767380Y-85707380D01*
X59672142Y-86707380D02*
X59100714Y-86707380D01*
X59386428Y-86707380D02*
X59386428Y-85707380D01*
X59291190Y-85850238D01*
X59195952Y-85945476D01*
X59100714Y-85993095D01*
X60291190Y-85707380D02*
X60386428Y-85707380D01*
X60481666Y-85755000D01*
X60529285Y-85802619D01*
X60576904Y-85897857D01*
X60624523Y-86088333D01*
X60624523Y-86326428D01*
X60576904Y-86516904D01*
X60529285Y-86612142D01*
X60481666Y-86659761D01*
X60386428Y-86707380D01*
X60291190Y-86707380D01*
X60195952Y-86659761D01*
X60148333Y-86612142D01*
X60100714Y-86516904D01*
X60053095Y-86326428D01*
X60053095Y-86088333D01*
X60100714Y-85897857D01*
X60148333Y-85802619D01*
X60195952Y-85755000D01*
X60291190Y-85707380D01*
X70580476Y-95574761D02*
X70723333Y-95622380D01*
X70961428Y-95622380D01*
X71056666Y-95574761D01*
X71104285Y-95527142D01*
X71151904Y-95431904D01*
X71151904Y-95336666D01*
X71104285Y-95241428D01*
X71056666Y-95193809D01*
X70961428Y-95146190D01*
X70770952Y-95098571D01*
X70675714Y-95050952D01*
X70628095Y-95003333D01*
X70580476Y-94908095D01*
X70580476Y-94812857D01*
X70628095Y-94717619D01*
X70675714Y-94670000D01*
X70770952Y-94622380D01*
X71009047Y-94622380D01*
X71151904Y-94670000D01*
X71485238Y-94622380D02*
X71723333Y-95622380D01*
X71913809Y-94908095D01*
X72104285Y-95622380D01*
X72342380Y-94622380D01*
X73247142Y-95622380D02*
X72675714Y-95622380D01*
X72961428Y-95622380D02*
X72961428Y-94622380D01*
X72866190Y-94765238D01*
X72770952Y-94860476D01*
X72675714Y-94908095D01*
X74199523Y-95622380D02*
X73628095Y-95622380D01*
X73913809Y-95622380D02*
X73913809Y-94622380D01*
X73818571Y-94765238D01*
X73723333Y-94860476D01*
X73628095Y-94908095D01*
X39605476Y-86659761D02*
X39748333Y-86707380D01*
X39986428Y-86707380D01*
X40081666Y-86659761D01*
X40129285Y-86612142D01*
X40176904Y-86516904D01*
X40176904Y-86421666D01*
X40129285Y-86326428D01*
X40081666Y-86278809D01*
X39986428Y-86231190D01*
X39795952Y-86183571D01*
X39700714Y-86135952D01*
X39653095Y-86088333D01*
X39605476Y-85993095D01*
X39605476Y-85897857D01*
X39653095Y-85802619D01*
X39700714Y-85755000D01*
X39795952Y-85707380D01*
X40034047Y-85707380D01*
X40176904Y-85755000D01*
X40510238Y-85707380D02*
X40748333Y-86707380D01*
X40938809Y-85993095D01*
X41129285Y-86707380D01*
X41367380Y-85707380D01*
X42272142Y-86707380D02*
X41700714Y-86707380D01*
X41986428Y-86707380D02*
X41986428Y-85707380D01*
X41891190Y-85850238D01*
X41795952Y-85945476D01*
X41700714Y-85993095D01*
X42653095Y-85802619D02*
X42700714Y-85755000D01*
X42795952Y-85707380D01*
X43034047Y-85707380D01*
X43129285Y-85755000D01*
X43176904Y-85802619D01*
X43224523Y-85897857D01*
X43224523Y-85993095D01*
X43176904Y-86135952D01*
X42605476Y-86707380D01*
X43224523Y-86707380D01*
M02*
