G04 #@! TF.GenerationSoftware,KiCad,Pcbnew,(5.1.5)-3*
G04 #@! TF.CreationDate,2020-01-24T15:12:57-05:00*
G04 #@! TF.ProjectId,timer,74696d65-722e-46b6-9963-61645f706362,v01*
G04 #@! TF.SameCoordinates,Original*
G04 #@! TF.FileFunction,Soldermask,Top*
G04 #@! TF.FilePolarity,Negative*
%FSLAX46Y46*%
G04 Gerber Fmt 4.6, Leading zero omitted, Abs format (unit mm)*
G04 Created by KiCad (PCBNEW (5.1.5)-3) date 2020-01-24 15:12:57*
%MOMM*%
%LPD*%
G04 APERTURE LIST*
%ADD10C,0.100000*%
G04 APERTURE END LIST*
D10*
G36*
X70638228Y-91851703D02*
G01*
X70793100Y-91915853D01*
X70932481Y-92008985D01*
X71051015Y-92127519D01*
X71144147Y-92266900D01*
X71208297Y-92421772D01*
X71241000Y-92586184D01*
X71241000Y-92753816D01*
X71208297Y-92918228D01*
X71144147Y-93073100D01*
X71051015Y-93212481D01*
X70932481Y-93331015D01*
X70793100Y-93424147D01*
X70638228Y-93488297D01*
X70473816Y-93521000D01*
X70306184Y-93521000D01*
X70141772Y-93488297D01*
X69986900Y-93424147D01*
X69847519Y-93331015D01*
X69728985Y-93212481D01*
X69635853Y-93073100D01*
X69571703Y-92918228D01*
X69539000Y-92753816D01*
X69539000Y-92586184D01*
X69571703Y-92421772D01*
X69635853Y-92266900D01*
X69728985Y-92127519D01*
X69847519Y-92008985D01*
X69986900Y-91915853D01*
X70141772Y-91851703D01*
X70306184Y-91819000D01*
X70473816Y-91819000D01*
X70638228Y-91851703D01*
G37*
G36*
X72638228Y-91851703D02*
G01*
X72793100Y-91915853D01*
X72932481Y-92008985D01*
X73051015Y-92127519D01*
X73144147Y-92266900D01*
X73208297Y-92421772D01*
X73241000Y-92586184D01*
X73241000Y-92753816D01*
X73208297Y-92918228D01*
X73144147Y-93073100D01*
X73051015Y-93212481D01*
X72932481Y-93331015D01*
X72793100Y-93424147D01*
X72638228Y-93488297D01*
X72473816Y-93521000D01*
X72306184Y-93521000D01*
X72141772Y-93488297D01*
X71986900Y-93424147D01*
X71847519Y-93331015D01*
X71728985Y-93212481D01*
X71635853Y-93073100D01*
X71571703Y-92918228D01*
X71539000Y-92753816D01*
X71539000Y-92586184D01*
X71571703Y-92421772D01*
X71635853Y-92266900D01*
X71728985Y-92127519D01*
X71847519Y-92008985D01*
X71986900Y-91915853D01*
X72141772Y-91851703D01*
X72306184Y-91819000D01*
X72473816Y-91819000D01*
X72638228Y-91851703D01*
G37*
G36*
X74638228Y-91851703D02*
G01*
X74793100Y-91915853D01*
X74932481Y-92008985D01*
X75051015Y-92127519D01*
X75144147Y-92266900D01*
X75208297Y-92421772D01*
X75241000Y-92586184D01*
X75241000Y-92753816D01*
X75208297Y-92918228D01*
X75144147Y-93073100D01*
X75051015Y-93212481D01*
X74932481Y-93331015D01*
X74793100Y-93424147D01*
X74638228Y-93488297D01*
X74473816Y-93521000D01*
X74306184Y-93521000D01*
X74141772Y-93488297D01*
X73986900Y-93424147D01*
X73847519Y-93331015D01*
X73728985Y-93212481D01*
X73635853Y-93073100D01*
X73571703Y-92918228D01*
X73539000Y-92753816D01*
X73539000Y-92586184D01*
X73571703Y-92421772D01*
X73635853Y-92266900D01*
X73728985Y-92127519D01*
X73847519Y-92008985D01*
X73986900Y-91915853D01*
X74141772Y-91851703D01*
X74306184Y-91819000D01*
X74473816Y-91819000D01*
X74638228Y-91851703D01*
G37*
G36*
X83928015Y-91916973D02*
G01*
X84031879Y-91948479D01*
X84059055Y-91963005D01*
X84127600Y-91999643D01*
X84211501Y-92068499D01*
X84280357Y-92152400D01*
X84316995Y-92220945D01*
X84331521Y-92248121D01*
X84363027Y-92351985D01*
X84371000Y-92432933D01*
X84371000Y-92987067D01*
X84363027Y-93068015D01*
X84331521Y-93171879D01*
X84280356Y-93267600D01*
X84211501Y-93351501D01*
X84142645Y-93408009D01*
X84127599Y-93420357D01*
X84120508Y-93424147D01*
X84031878Y-93471521D01*
X83928014Y-93503027D01*
X83820000Y-93513666D01*
X83711985Y-93503027D01*
X83608121Y-93471521D01*
X83564093Y-93447987D01*
X83512401Y-93420357D01*
X83499643Y-93409887D01*
X83428499Y-93351501D01*
X83359644Y-93267600D01*
X83308479Y-93171878D01*
X83304615Y-93159139D01*
X83295239Y-93136503D01*
X83281625Y-93116129D01*
X83264298Y-93098802D01*
X83243923Y-93085188D01*
X83221285Y-93075811D01*
X83197251Y-93071031D01*
X83172747Y-93071031D01*
X83148714Y-93075812D01*
X83126075Y-93085189D01*
X83105701Y-93098803D01*
X83088374Y-93116130D01*
X83074760Y-93136505D01*
X83065388Y-93159131D01*
X83061521Y-93171879D01*
X83010356Y-93267600D01*
X82941501Y-93351501D01*
X82872645Y-93408009D01*
X82857599Y-93420357D01*
X82850508Y-93424147D01*
X82761878Y-93471521D01*
X82658014Y-93503027D01*
X82550000Y-93513666D01*
X82441985Y-93503027D01*
X82338121Y-93471521D01*
X82294093Y-93447987D01*
X82242401Y-93420357D01*
X82229643Y-93409887D01*
X82158499Y-93351501D01*
X82089644Y-93267600D01*
X82066234Y-93223804D01*
X82052625Y-93203436D01*
X82035298Y-93186109D01*
X82014924Y-93172495D01*
X81992285Y-93163118D01*
X81968252Y-93158337D01*
X81943748Y-93158337D01*
X81919714Y-93163117D01*
X81897076Y-93172494D01*
X81876701Y-93186108D01*
X81859374Y-93203435D01*
X81845760Y-93223809D01*
X81836383Y-93246448D01*
X81831602Y-93270481D01*
X81831000Y-93282734D01*
X81831000Y-93511000D01*
X80729000Y-93511000D01*
X80729000Y-91909000D01*
X81831000Y-91909000D01*
X81831000Y-92137265D01*
X81833402Y-92161651D01*
X81840515Y-92185100D01*
X81852066Y-92206711D01*
X81867611Y-92225653D01*
X81886553Y-92241198D01*
X81908164Y-92252749D01*
X81931613Y-92259862D01*
X81955999Y-92262264D01*
X81980385Y-92259862D01*
X82003834Y-92252749D01*
X82025445Y-92241198D01*
X82044387Y-92225653D01*
X82059932Y-92206711D01*
X82066239Y-92196188D01*
X82089644Y-92152399D01*
X82158500Y-92068499D01*
X82242401Y-91999643D01*
X82310946Y-91963005D01*
X82338122Y-91948479D01*
X82441986Y-91916973D01*
X82550000Y-91906334D01*
X82658015Y-91916973D01*
X82761879Y-91948479D01*
X82789055Y-91963005D01*
X82857600Y-91999643D01*
X82941501Y-92068499D01*
X83010357Y-92152400D01*
X83046995Y-92220945D01*
X83061521Y-92248121D01*
X83065388Y-92260869D01*
X83074760Y-92283496D01*
X83088374Y-92303870D01*
X83105701Y-92321197D01*
X83126075Y-92334811D01*
X83148714Y-92344188D01*
X83172747Y-92348969D01*
X83197251Y-92348969D01*
X83221285Y-92344189D01*
X83243924Y-92334812D01*
X83264298Y-92321198D01*
X83281625Y-92303871D01*
X83295239Y-92283497D01*
X83304617Y-92260857D01*
X83304919Y-92259862D01*
X83308480Y-92248121D01*
X83308481Y-92248118D01*
X83359643Y-92152401D01*
X83428500Y-92068499D01*
X83512401Y-91999643D01*
X83580946Y-91963005D01*
X83608122Y-91948479D01*
X83711986Y-91916973D01*
X83820000Y-91906334D01*
X83928015Y-91916973D01*
G37*
G36*
X28053512Y-91178927D02*
G01*
X28202812Y-91208624D01*
X28366784Y-91276544D01*
X28514354Y-91375147D01*
X28639853Y-91500646D01*
X28738456Y-91648216D01*
X28806376Y-91812188D01*
X28841000Y-91986259D01*
X28841000Y-92163741D01*
X28806376Y-92337812D01*
X28738456Y-92501784D01*
X28639853Y-92649354D01*
X28514354Y-92774853D01*
X28366784Y-92873456D01*
X28202812Y-92941376D01*
X28053512Y-92971073D01*
X28028742Y-92976000D01*
X27851258Y-92976000D01*
X27826488Y-92971073D01*
X27677188Y-92941376D01*
X27513216Y-92873456D01*
X27365646Y-92774853D01*
X27240147Y-92649354D01*
X27141544Y-92501784D01*
X27073624Y-92337812D01*
X27039000Y-92163741D01*
X27039000Y-91986259D01*
X27073624Y-91812188D01*
X27141544Y-91648216D01*
X27240147Y-91500646D01*
X27365646Y-91375147D01*
X27513216Y-91276544D01*
X27677188Y-91208624D01*
X27826488Y-91178927D01*
X27851258Y-91174000D01*
X28028742Y-91174000D01*
X28053512Y-91178927D01*
G37*
G36*
X38051000Y-92281000D02*
G01*
X35099000Y-92281000D01*
X35099000Y-89329000D01*
X38051000Y-89329000D01*
X38051000Y-92281000D01*
G37*
G36*
X55451000Y-92281000D02*
G01*
X52499000Y-92281000D01*
X52499000Y-89329000D01*
X55451000Y-89329000D01*
X55451000Y-92281000D01*
G37*
G36*
X59105532Y-89385721D02*
G01*
X59374147Y-89496985D01*
X59615895Y-89658516D01*
X59821484Y-89864105D01*
X59983015Y-90105853D01*
X60094279Y-90374468D01*
X60151000Y-90659625D01*
X60151000Y-90950375D01*
X60094279Y-91235532D01*
X59983015Y-91504147D01*
X59821484Y-91745895D01*
X59615895Y-91951484D01*
X59374147Y-92113015D01*
X59105532Y-92224279D01*
X58820375Y-92281000D01*
X58529625Y-92281000D01*
X58244468Y-92224279D01*
X57975853Y-92113015D01*
X57734105Y-91951484D01*
X57528516Y-91745895D01*
X57366985Y-91504147D01*
X57255721Y-91235532D01*
X57199000Y-90950375D01*
X57199000Y-90659625D01*
X57255721Y-90374468D01*
X57366985Y-90105853D01*
X57528516Y-89864105D01*
X57734105Y-89658516D01*
X57975853Y-89496985D01*
X58244468Y-89385721D01*
X58529625Y-89329000D01*
X58820375Y-89329000D01*
X59105532Y-89385721D01*
G37*
G36*
X63805532Y-89385721D02*
G01*
X64074147Y-89496985D01*
X64315895Y-89658516D01*
X64521484Y-89864105D01*
X64683015Y-90105853D01*
X64794279Y-90374468D01*
X64851000Y-90659625D01*
X64851000Y-90950375D01*
X64794279Y-91235532D01*
X64683015Y-91504147D01*
X64521484Y-91745895D01*
X64315895Y-91951484D01*
X64074147Y-92113015D01*
X63805532Y-92224279D01*
X63520375Y-92281000D01*
X63229625Y-92281000D01*
X62944468Y-92224279D01*
X62675853Y-92113015D01*
X62434105Y-91951484D01*
X62228516Y-91745895D01*
X62066985Y-91504147D01*
X61955721Y-91235532D01*
X61899000Y-90950375D01*
X61899000Y-90659625D01*
X61955721Y-90374468D01*
X62066985Y-90105853D01*
X62228516Y-89864105D01*
X62434105Y-89658516D01*
X62675853Y-89496985D01*
X62944468Y-89385721D01*
X63229625Y-89329000D01*
X63520375Y-89329000D01*
X63805532Y-89385721D01*
G37*
G36*
X41705532Y-89385721D02*
G01*
X41974147Y-89496985D01*
X42215895Y-89658516D01*
X42421484Y-89864105D01*
X42583015Y-90105853D01*
X42694279Y-90374468D01*
X42751000Y-90659625D01*
X42751000Y-90950375D01*
X42694279Y-91235532D01*
X42583015Y-91504147D01*
X42421484Y-91745895D01*
X42215895Y-91951484D01*
X41974147Y-92113015D01*
X41705532Y-92224279D01*
X41420375Y-92281000D01*
X41129625Y-92281000D01*
X40844468Y-92224279D01*
X40575853Y-92113015D01*
X40334105Y-91951484D01*
X40128516Y-91745895D01*
X39966985Y-91504147D01*
X39855721Y-91235532D01*
X39799000Y-90950375D01*
X39799000Y-90659625D01*
X39855721Y-90374468D01*
X39966985Y-90105853D01*
X40128516Y-89864105D01*
X40334105Y-89658516D01*
X40575853Y-89496985D01*
X40844468Y-89385721D01*
X41129625Y-89329000D01*
X41420375Y-89329000D01*
X41705532Y-89385721D01*
G37*
G36*
X46405532Y-89385721D02*
G01*
X46674147Y-89496985D01*
X46915895Y-89658516D01*
X47121484Y-89864105D01*
X47283015Y-90105853D01*
X47394279Y-90374468D01*
X47451000Y-90659625D01*
X47451000Y-90950375D01*
X47394279Y-91235532D01*
X47283015Y-91504147D01*
X47121484Y-91745895D01*
X46915895Y-91951484D01*
X46674147Y-92113015D01*
X46405532Y-92224279D01*
X46120375Y-92281000D01*
X45829625Y-92281000D01*
X45544468Y-92224279D01*
X45275853Y-92113015D01*
X45034105Y-91951484D01*
X44828516Y-91745895D01*
X44666985Y-91504147D01*
X44555721Y-91235532D01*
X44499000Y-90950375D01*
X44499000Y-90659625D01*
X44555721Y-90374468D01*
X44666985Y-90105853D01*
X44828516Y-89864105D01*
X45034105Y-89658516D01*
X45275853Y-89496985D01*
X45544468Y-89385721D01*
X45829625Y-89329000D01*
X46120375Y-89329000D01*
X46405532Y-89385721D01*
G37*
G36*
X28841000Y-90436000D02*
G01*
X27039000Y-90436000D01*
X27039000Y-88634000D01*
X28841000Y-88634000D01*
X28841000Y-90436000D01*
G37*
G36*
X90283512Y-88638927D02*
G01*
X90432812Y-88668624D01*
X90596784Y-88736544D01*
X90744354Y-88835147D01*
X90869853Y-88960646D01*
X90968456Y-89108216D01*
X91036376Y-89272188D01*
X91071000Y-89446259D01*
X91071000Y-89623741D01*
X91036376Y-89797812D01*
X90968456Y-89961784D01*
X90869853Y-90109354D01*
X90744354Y-90234853D01*
X90596784Y-90333456D01*
X90432812Y-90401376D01*
X90283512Y-90431073D01*
X90258742Y-90436000D01*
X90081258Y-90436000D01*
X90056488Y-90431073D01*
X89907188Y-90401376D01*
X89743216Y-90333456D01*
X89595646Y-90234853D01*
X89470147Y-90109354D01*
X89371544Y-89961784D01*
X89303624Y-89797812D01*
X89269000Y-89623741D01*
X89269000Y-89446259D01*
X89303624Y-89272188D01*
X89371544Y-89108216D01*
X89470147Y-88960646D01*
X89595646Y-88835147D01*
X89743216Y-88736544D01*
X89907188Y-88668624D01*
X90056488Y-88638927D01*
X90081258Y-88634000D01*
X90258742Y-88634000D01*
X90283512Y-88638927D01*
G37*
G36*
X70638228Y-86851703D02*
G01*
X70793100Y-86915853D01*
X70932481Y-87008985D01*
X71051015Y-87127519D01*
X71144147Y-87266900D01*
X71208297Y-87421772D01*
X71241000Y-87586184D01*
X71241000Y-87753816D01*
X71208297Y-87918228D01*
X71144147Y-88073100D01*
X71051015Y-88212481D01*
X70932481Y-88331015D01*
X70793100Y-88424147D01*
X70638228Y-88488297D01*
X70473816Y-88521000D01*
X70306184Y-88521000D01*
X70141772Y-88488297D01*
X69986900Y-88424147D01*
X69847519Y-88331015D01*
X69728985Y-88212481D01*
X69635853Y-88073100D01*
X69571703Y-87918228D01*
X69539000Y-87753816D01*
X69539000Y-87586184D01*
X69571703Y-87421772D01*
X69635853Y-87266900D01*
X69728985Y-87127519D01*
X69847519Y-87008985D01*
X69986900Y-86915853D01*
X70141772Y-86851703D01*
X70306184Y-86819000D01*
X70473816Y-86819000D01*
X70638228Y-86851703D01*
G37*
G36*
X72638228Y-86851703D02*
G01*
X72793100Y-86915853D01*
X72932481Y-87008985D01*
X73051015Y-87127519D01*
X73144147Y-87266900D01*
X73208297Y-87421772D01*
X73241000Y-87586184D01*
X73241000Y-87753816D01*
X73208297Y-87918228D01*
X73144147Y-88073100D01*
X73051015Y-88212481D01*
X72932481Y-88331015D01*
X72793100Y-88424147D01*
X72638228Y-88488297D01*
X72473816Y-88521000D01*
X72306184Y-88521000D01*
X72141772Y-88488297D01*
X71986900Y-88424147D01*
X71847519Y-88331015D01*
X71728985Y-88212481D01*
X71635853Y-88073100D01*
X71571703Y-87918228D01*
X71539000Y-87753816D01*
X71539000Y-87586184D01*
X71571703Y-87421772D01*
X71635853Y-87266900D01*
X71728985Y-87127519D01*
X71847519Y-87008985D01*
X71986900Y-86915853D01*
X72141772Y-86851703D01*
X72306184Y-86819000D01*
X72473816Y-86819000D01*
X72638228Y-86851703D01*
G37*
G36*
X74638228Y-86851703D02*
G01*
X74793100Y-86915853D01*
X74932481Y-87008985D01*
X75051015Y-87127519D01*
X75144147Y-87266900D01*
X75208297Y-87421772D01*
X75241000Y-87586184D01*
X75241000Y-87753816D01*
X75208297Y-87918228D01*
X75144147Y-88073100D01*
X75051015Y-88212481D01*
X74932481Y-88331015D01*
X74793100Y-88424147D01*
X74638228Y-88488297D01*
X74473816Y-88521000D01*
X74306184Y-88521000D01*
X74141772Y-88488297D01*
X73986900Y-88424147D01*
X73847519Y-88331015D01*
X73728985Y-88212481D01*
X73635853Y-88073100D01*
X73571703Y-87918228D01*
X73539000Y-87753816D01*
X73539000Y-87586184D01*
X73571703Y-87421772D01*
X73635853Y-87266900D01*
X73728985Y-87127519D01*
X73847519Y-87008985D01*
X73986900Y-86915853D01*
X74141772Y-86851703D01*
X74306184Y-86819000D01*
X74473816Y-86819000D01*
X74638228Y-86851703D01*
G37*
G36*
X90283512Y-86098927D02*
G01*
X90432812Y-86128624D01*
X90596784Y-86196544D01*
X90744354Y-86295147D01*
X90869853Y-86420646D01*
X90968456Y-86568216D01*
X91036376Y-86732188D01*
X91071000Y-86906259D01*
X91071000Y-87083741D01*
X91036376Y-87257812D01*
X90968456Y-87421784D01*
X90869853Y-87569354D01*
X90744354Y-87694853D01*
X90596784Y-87793456D01*
X90432812Y-87861376D01*
X90283512Y-87891073D01*
X90258742Y-87896000D01*
X90081258Y-87896000D01*
X90056488Y-87891073D01*
X89907188Y-87861376D01*
X89743216Y-87793456D01*
X89595646Y-87694853D01*
X89470147Y-87569354D01*
X89371544Y-87421784D01*
X89303624Y-87257812D01*
X89269000Y-87083741D01*
X89269000Y-86906259D01*
X89303624Y-86732188D01*
X89371544Y-86568216D01*
X89470147Y-86420646D01*
X89595646Y-86295147D01*
X89743216Y-86196544D01*
X89907188Y-86128624D01*
X90056488Y-86098927D01*
X90081258Y-86094000D01*
X90258742Y-86094000D01*
X90283512Y-86098927D01*
G37*
G36*
X83928015Y-85566973D02*
G01*
X84031879Y-85598479D01*
X84059055Y-85613005D01*
X84127600Y-85649643D01*
X84211501Y-85718499D01*
X84280357Y-85802400D01*
X84316995Y-85870945D01*
X84331521Y-85898121D01*
X84363027Y-86001985D01*
X84371000Y-86082933D01*
X84371000Y-86637067D01*
X84363027Y-86718015D01*
X84331521Y-86821879D01*
X84315579Y-86851703D01*
X84281291Y-86915852D01*
X84280356Y-86917600D01*
X84211501Y-87001501D01*
X84142645Y-87058009D01*
X84127599Y-87070357D01*
X84102559Y-87083741D01*
X84031878Y-87121521D01*
X83928014Y-87153027D01*
X83820000Y-87163666D01*
X83711985Y-87153027D01*
X83608121Y-87121521D01*
X83564093Y-87097987D01*
X83512401Y-87070357D01*
X83499643Y-87059887D01*
X83428499Y-87001501D01*
X83359644Y-86917600D01*
X83358710Y-86915852D01*
X83316086Y-86836109D01*
X83308479Y-86821878D01*
X83304615Y-86809139D01*
X83295239Y-86786503D01*
X83281625Y-86766129D01*
X83264298Y-86748802D01*
X83243923Y-86735188D01*
X83221285Y-86725811D01*
X83197251Y-86721031D01*
X83172747Y-86721031D01*
X83148714Y-86725812D01*
X83126075Y-86735189D01*
X83105701Y-86748803D01*
X83088374Y-86766130D01*
X83074760Y-86786505D01*
X83065388Y-86809131D01*
X83061521Y-86821879D01*
X83045579Y-86851703D01*
X83011291Y-86915852D01*
X83010356Y-86917600D01*
X82941501Y-87001501D01*
X82872645Y-87058009D01*
X82857599Y-87070357D01*
X82832559Y-87083741D01*
X82761878Y-87121521D01*
X82658014Y-87153027D01*
X82550000Y-87163666D01*
X82441985Y-87153027D01*
X82338121Y-87121521D01*
X82294093Y-87097987D01*
X82242401Y-87070357D01*
X82229643Y-87059887D01*
X82158499Y-87001501D01*
X82089644Y-86917600D01*
X82066234Y-86873804D01*
X82052625Y-86853436D01*
X82035298Y-86836109D01*
X82014924Y-86822495D01*
X81992285Y-86813118D01*
X81968252Y-86808337D01*
X81943748Y-86808337D01*
X81919714Y-86813117D01*
X81897076Y-86822494D01*
X81876701Y-86836108D01*
X81859374Y-86853435D01*
X81845760Y-86873809D01*
X81836383Y-86896448D01*
X81831602Y-86920481D01*
X81831000Y-86932734D01*
X81831000Y-87161000D01*
X80729000Y-87161000D01*
X80729000Y-85559000D01*
X81831000Y-85559000D01*
X81831000Y-85787265D01*
X81833402Y-85811651D01*
X81840515Y-85835100D01*
X81852066Y-85856711D01*
X81867611Y-85875653D01*
X81886553Y-85891198D01*
X81908164Y-85902749D01*
X81931613Y-85909862D01*
X81955999Y-85912264D01*
X81980385Y-85909862D01*
X82003834Y-85902749D01*
X82025445Y-85891198D01*
X82044387Y-85875653D01*
X82059932Y-85856711D01*
X82066239Y-85846188D01*
X82089644Y-85802399D01*
X82158500Y-85718499D01*
X82242401Y-85649643D01*
X82310946Y-85613005D01*
X82338122Y-85598479D01*
X82441986Y-85566973D01*
X82550000Y-85556334D01*
X82658015Y-85566973D01*
X82761879Y-85598479D01*
X82789055Y-85613005D01*
X82857600Y-85649643D01*
X82941501Y-85718499D01*
X83010357Y-85802400D01*
X83046995Y-85870945D01*
X83061521Y-85898121D01*
X83065388Y-85910869D01*
X83074760Y-85933496D01*
X83088374Y-85953870D01*
X83105701Y-85971197D01*
X83126075Y-85984811D01*
X83148714Y-85994188D01*
X83172747Y-85998969D01*
X83197251Y-85998969D01*
X83221285Y-85994189D01*
X83243924Y-85984812D01*
X83264298Y-85971198D01*
X83281625Y-85953871D01*
X83295239Y-85933497D01*
X83304617Y-85910857D01*
X83304919Y-85909862D01*
X83308480Y-85898121D01*
X83308481Y-85898118D01*
X83359643Y-85802401D01*
X83428500Y-85718499D01*
X83512401Y-85649643D01*
X83580946Y-85613005D01*
X83608122Y-85598479D01*
X83711986Y-85566973D01*
X83820000Y-85556334D01*
X83928015Y-85566973D01*
G37*
G36*
X91071000Y-85356000D02*
G01*
X89269000Y-85356000D01*
X89269000Y-83554000D01*
X91071000Y-83554000D01*
X91071000Y-85356000D01*
G37*
G36*
X64383228Y-81096703D02*
G01*
X64538100Y-81160853D01*
X64677481Y-81253985D01*
X64796015Y-81372519D01*
X64889147Y-81511900D01*
X64953297Y-81666772D01*
X64986000Y-81831184D01*
X64986000Y-81998816D01*
X64953297Y-82163228D01*
X64889147Y-82318100D01*
X64796015Y-82457481D01*
X64677481Y-82576015D01*
X64538100Y-82669147D01*
X64383228Y-82733297D01*
X64218816Y-82766000D01*
X64051184Y-82766000D01*
X63886772Y-82733297D01*
X63731900Y-82669147D01*
X63592519Y-82576015D01*
X63473985Y-82457481D01*
X63380853Y-82318100D01*
X63316703Y-82163228D01*
X63284000Y-81998816D01*
X63284000Y-81831184D01*
X63316703Y-81666772D01*
X63380853Y-81511900D01*
X63473985Y-81372519D01*
X63592519Y-81253985D01*
X63731900Y-81160853D01*
X63886772Y-81096703D01*
X64051184Y-81064000D01*
X64218816Y-81064000D01*
X64383228Y-81096703D01*
G37*
G36*
X49778228Y-81096703D02*
G01*
X49933100Y-81160853D01*
X50072481Y-81253985D01*
X50191015Y-81372519D01*
X50284147Y-81511900D01*
X50348297Y-81666772D01*
X50381000Y-81831184D01*
X50381000Y-81998816D01*
X50348297Y-82163228D01*
X50284147Y-82318100D01*
X50191015Y-82457481D01*
X50072481Y-82576015D01*
X49933100Y-82669147D01*
X49778228Y-82733297D01*
X49613816Y-82766000D01*
X49446184Y-82766000D01*
X49281772Y-82733297D01*
X49126900Y-82669147D01*
X48987519Y-82576015D01*
X48868985Y-82457481D01*
X48775853Y-82318100D01*
X48711703Y-82163228D01*
X48679000Y-81998816D01*
X48679000Y-81831184D01*
X48711703Y-81666772D01*
X48775853Y-81511900D01*
X48868985Y-81372519D01*
X48987519Y-81253985D01*
X49126900Y-81160853D01*
X49281772Y-81096703D01*
X49446184Y-81064000D01*
X49613816Y-81064000D01*
X49778228Y-81096703D01*
G37*
G36*
X69463228Y-81096703D02*
G01*
X69618100Y-81160853D01*
X69757481Y-81253985D01*
X69876015Y-81372519D01*
X69969147Y-81511900D01*
X70033297Y-81666772D01*
X70066000Y-81831184D01*
X70066000Y-81998816D01*
X70033297Y-82163228D01*
X69969147Y-82318100D01*
X69876015Y-82457481D01*
X69757481Y-82576015D01*
X69618100Y-82669147D01*
X69463228Y-82733297D01*
X69298816Y-82766000D01*
X69131184Y-82766000D01*
X68966772Y-82733297D01*
X68811900Y-82669147D01*
X68672519Y-82576015D01*
X68553985Y-82457481D01*
X68460853Y-82318100D01*
X68396703Y-82163228D01*
X68364000Y-81998816D01*
X68364000Y-81831184D01*
X68396703Y-81666772D01*
X68460853Y-81511900D01*
X68553985Y-81372519D01*
X68672519Y-81253985D01*
X68811900Y-81160853D01*
X68966772Y-81096703D01*
X69131184Y-81064000D01*
X69298816Y-81064000D01*
X69463228Y-81096703D01*
G37*
G36*
X74543228Y-81096703D02*
G01*
X74698100Y-81160853D01*
X74837481Y-81253985D01*
X74956015Y-81372519D01*
X75049147Y-81511900D01*
X75113297Y-81666772D01*
X75146000Y-81831184D01*
X75146000Y-81998816D01*
X75113297Y-82163228D01*
X75049147Y-82318100D01*
X74956015Y-82457481D01*
X74837481Y-82576015D01*
X74698100Y-82669147D01*
X74543228Y-82733297D01*
X74378816Y-82766000D01*
X74211184Y-82766000D01*
X74046772Y-82733297D01*
X73891900Y-82669147D01*
X73752519Y-82576015D01*
X73633985Y-82457481D01*
X73540853Y-82318100D01*
X73476703Y-82163228D01*
X73444000Y-81998816D01*
X73444000Y-81831184D01*
X73476703Y-81666772D01*
X73540853Y-81511900D01*
X73633985Y-81372519D01*
X73752519Y-81253985D01*
X73891900Y-81160853D01*
X74046772Y-81096703D01*
X74211184Y-81064000D01*
X74378816Y-81064000D01*
X74543228Y-81096703D01*
G37*
G36*
X59523228Y-81031703D02*
G01*
X59678100Y-81095853D01*
X59817481Y-81188985D01*
X59936015Y-81307519D01*
X60029147Y-81446900D01*
X60093297Y-81601772D01*
X60126000Y-81766184D01*
X60126000Y-81933816D01*
X60093297Y-82098228D01*
X60029147Y-82253100D01*
X59936015Y-82392481D01*
X59817481Y-82511015D01*
X59678100Y-82604147D01*
X59523228Y-82668297D01*
X59358816Y-82701000D01*
X59191184Y-82701000D01*
X59026772Y-82668297D01*
X58871900Y-82604147D01*
X58732519Y-82511015D01*
X58613985Y-82392481D01*
X58520853Y-82253100D01*
X58456703Y-82098228D01*
X58424000Y-81933816D01*
X58424000Y-81766184D01*
X58456703Y-81601772D01*
X58520853Y-81446900D01*
X58613985Y-81307519D01*
X58732519Y-81188985D01*
X58871900Y-81095853D01*
X59026772Y-81031703D01*
X59191184Y-80999000D01*
X59358816Y-80999000D01*
X59523228Y-81031703D01*
G37*
G36*
X54858228Y-81031703D02*
G01*
X55013100Y-81095853D01*
X55152481Y-81188985D01*
X55271015Y-81307519D01*
X55364147Y-81446900D01*
X55428297Y-81601772D01*
X55461000Y-81766184D01*
X55461000Y-81933816D01*
X55428297Y-82098228D01*
X55364147Y-82253100D01*
X55271015Y-82392481D01*
X55152481Y-82511015D01*
X55013100Y-82604147D01*
X54858228Y-82668297D01*
X54693816Y-82701000D01*
X54526184Y-82701000D01*
X54361772Y-82668297D01*
X54206900Y-82604147D01*
X54067519Y-82511015D01*
X53948985Y-82392481D01*
X53855853Y-82253100D01*
X53791703Y-82098228D01*
X53759000Y-81933816D01*
X53759000Y-81766184D01*
X53791703Y-81601772D01*
X53855853Y-81446900D01*
X53948985Y-81307519D01*
X54067519Y-81188985D01*
X54206900Y-81095853D01*
X54361772Y-81031703D01*
X54526184Y-80999000D01*
X54693816Y-80999000D01*
X54858228Y-81031703D01*
G37*
G36*
X45108228Y-81006703D02*
G01*
X45263100Y-81070853D01*
X45402481Y-81163985D01*
X45521015Y-81282519D01*
X45614147Y-81421900D01*
X45678297Y-81576772D01*
X45711000Y-81741184D01*
X45711000Y-81908816D01*
X45678297Y-82073228D01*
X45614147Y-82228100D01*
X45521015Y-82367481D01*
X45402481Y-82486015D01*
X45263100Y-82579147D01*
X45108228Y-82643297D01*
X44943816Y-82676000D01*
X44776184Y-82676000D01*
X44611772Y-82643297D01*
X44456900Y-82579147D01*
X44317519Y-82486015D01*
X44198985Y-82367481D01*
X44105853Y-82228100D01*
X44041703Y-82073228D01*
X44009000Y-81908816D01*
X44009000Y-81741184D01*
X44041703Y-81576772D01*
X44105853Y-81421900D01*
X44198985Y-81282519D01*
X44317519Y-81163985D01*
X44456900Y-81070853D01*
X44611772Y-81006703D01*
X44776184Y-80974000D01*
X44943816Y-80974000D01*
X45108228Y-81006703D01*
G37*
G36*
X39788228Y-81006703D02*
G01*
X39943100Y-81070853D01*
X40082481Y-81163985D01*
X40201015Y-81282519D01*
X40294147Y-81421900D01*
X40358297Y-81576772D01*
X40391000Y-81741184D01*
X40391000Y-81908816D01*
X40358297Y-82073228D01*
X40294147Y-82228100D01*
X40201015Y-82367481D01*
X40082481Y-82486015D01*
X39943100Y-82579147D01*
X39788228Y-82643297D01*
X39623816Y-82676000D01*
X39456184Y-82676000D01*
X39291772Y-82643297D01*
X39136900Y-82579147D01*
X38997519Y-82486015D01*
X38878985Y-82367481D01*
X38785853Y-82228100D01*
X38721703Y-82073228D01*
X38689000Y-81908816D01*
X38689000Y-81741184D01*
X38721703Y-81576772D01*
X38785853Y-81421900D01*
X38878985Y-81282519D01*
X38997519Y-81163985D01*
X39136900Y-81070853D01*
X39291772Y-81006703D01*
X39456184Y-80974000D01*
X39623816Y-80974000D01*
X39788228Y-81006703D01*
G37*
G36*
X34538228Y-81006703D02*
G01*
X34693100Y-81070853D01*
X34832481Y-81163985D01*
X34951015Y-81282519D01*
X35044147Y-81421900D01*
X35108297Y-81576772D01*
X35141000Y-81741184D01*
X35141000Y-81908816D01*
X35108297Y-82073228D01*
X35044147Y-82228100D01*
X34951015Y-82367481D01*
X34832481Y-82486015D01*
X34693100Y-82579147D01*
X34538228Y-82643297D01*
X34373816Y-82676000D01*
X34206184Y-82676000D01*
X34041772Y-82643297D01*
X33886900Y-82579147D01*
X33747519Y-82486015D01*
X33628985Y-82367481D01*
X33535853Y-82228100D01*
X33471703Y-82073228D01*
X33439000Y-81908816D01*
X33439000Y-81741184D01*
X33471703Y-81576772D01*
X33535853Y-81421900D01*
X33628985Y-81282519D01*
X33747519Y-81163985D01*
X33886900Y-81070853D01*
X34041772Y-81006703D01*
X34206184Y-80974000D01*
X34373816Y-80974000D01*
X34538228Y-81006703D01*
G37*
G36*
X28053512Y-79748927D02*
G01*
X28202812Y-79778624D01*
X28366784Y-79846544D01*
X28514354Y-79945147D01*
X28639853Y-80070646D01*
X28738456Y-80218216D01*
X28806376Y-80382188D01*
X28841000Y-80556259D01*
X28841000Y-80733741D01*
X28806376Y-80907812D01*
X28738456Y-81071784D01*
X28639853Y-81219354D01*
X28514354Y-81344853D01*
X28366784Y-81443456D01*
X28202812Y-81511376D01*
X28053512Y-81541073D01*
X28028742Y-81546000D01*
X27851258Y-81546000D01*
X27826488Y-81541073D01*
X27677188Y-81511376D01*
X27513216Y-81443456D01*
X27365646Y-81344853D01*
X27240147Y-81219354D01*
X27141544Y-81071784D01*
X27073624Y-80907812D01*
X27039000Y-80733741D01*
X27039000Y-80556259D01*
X27073624Y-80382188D01*
X27141544Y-80218216D01*
X27240147Y-80070646D01*
X27365646Y-79945147D01*
X27513216Y-79846544D01*
X27677188Y-79778624D01*
X27826488Y-79748927D01*
X27851258Y-79744000D01*
X28028742Y-79744000D01*
X28053512Y-79748927D01*
G37*
G36*
X83928015Y-79216973D02*
G01*
X84031879Y-79248479D01*
X84059055Y-79263005D01*
X84127600Y-79299643D01*
X84211501Y-79368499D01*
X84280357Y-79452400D01*
X84316995Y-79520945D01*
X84331521Y-79548121D01*
X84363027Y-79651985D01*
X84371000Y-79732933D01*
X84371000Y-80287067D01*
X84363027Y-80368015D01*
X84331521Y-80471879D01*
X84280356Y-80567600D01*
X84211501Y-80651501D01*
X84142645Y-80708009D01*
X84127599Y-80720357D01*
X84102559Y-80733741D01*
X84031878Y-80771521D01*
X83928014Y-80803027D01*
X83820000Y-80813666D01*
X83711985Y-80803027D01*
X83608121Y-80771521D01*
X83564093Y-80747987D01*
X83512401Y-80720357D01*
X83499643Y-80709887D01*
X83428499Y-80651501D01*
X83359644Y-80567600D01*
X83353582Y-80556258D01*
X83316086Y-80486109D01*
X83308479Y-80471878D01*
X83304615Y-80459139D01*
X83295239Y-80436503D01*
X83281625Y-80416129D01*
X83264298Y-80398802D01*
X83243923Y-80385188D01*
X83221285Y-80375811D01*
X83197251Y-80371031D01*
X83172747Y-80371031D01*
X83148714Y-80375812D01*
X83126075Y-80385189D01*
X83105701Y-80398803D01*
X83088374Y-80416130D01*
X83074760Y-80436505D01*
X83065388Y-80459131D01*
X83061521Y-80471879D01*
X83010356Y-80567600D01*
X82941501Y-80651501D01*
X82872645Y-80708009D01*
X82857599Y-80720357D01*
X82832559Y-80733741D01*
X82761878Y-80771521D01*
X82658014Y-80803027D01*
X82550000Y-80813666D01*
X82441985Y-80803027D01*
X82338121Y-80771521D01*
X82294093Y-80747987D01*
X82242401Y-80720357D01*
X82229643Y-80709887D01*
X82158499Y-80651501D01*
X82089644Y-80567600D01*
X82066234Y-80523804D01*
X82052625Y-80503436D01*
X82035298Y-80486109D01*
X82014924Y-80472495D01*
X81992285Y-80463118D01*
X81968252Y-80458337D01*
X81943748Y-80458337D01*
X81919714Y-80463117D01*
X81897076Y-80472494D01*
X81876701Y-80486108D01*
X81859374Y-80503435D01*
X81845760Y-80523809D01*
X81836383Y-80546448D01*
X81831602Y-80570481D01*
X81831000Y-80582734D01*
X81831000Y-80811000D01*
X80729000Y-80811000D01*
X80729000Y-79209000D01*
X81831000Y-79209000D01*
X81831000Y-79437265D01*
X81833402Y-79461651D01*
X81840515Y-79485100D01*
X81852066Y-79506711D01*
X81867611Y-79525653D01*
X81886553Y-79541198D01*
X81908164Y-79552749D01*
X81931613Y-79559862D01*
X81955999Y-79562264D01*
X81980385Y-79559862D01*
X82003834Y-79552749D01*
X82025445Y-79541198D01*
X82044387Y-79525653D01*
X82059932Y-79506711D01*
X82066239Y-79496188D01*
X82089644Y-79452399D01*
X82158500Y-79368499D01*
X82242401Y-79299643D01*
X82310946Y-79263005D01*
X82338122Y-79248479D01*
X82441986Y-79216973D01*
X82550000Y-79206334D01*
X82658015Y-79216973D01*
X82761879Y-79248479D01*
X82789055Y-79263005D01*
X82857600Y-79299643D01*
X82941501Y-79368499D01*
X83010357Y-79452400D01*
X83046995Y-79520945D01*
X83061521Y-79548121D01*
X83065388Y-79560869D01*
X83074760Y-79583496D01*
X83088374Y-79603870D01*
X83105701Y-79621197D01*
X83126075Y-79634811D01*
X83148714Y-79644188D01*
X83172747Y-79648969D01*
X83197251Y-79648969D01*
X83221285Y-79644189D01*
X83243924Y-79634812D01*
X83264298Y-79621198D01*
X83281625Y-79603871D01*
X83295239Y-79583497D01*
X83304617Y-79560857D01*
X83304919Y-79559862D01*
X83308480Y-79548121D01*
X83308481Y-79548118D01*
X83359643Y-79452401D01*
X83428500Y-79368499D01*
X83512401Y-79299643D01*
X83580946Y-79263005D01*
X83608122Y-79248479D01*
X83711986Y-79216973D01*
X83820000Y-79206334D01*
X83928015Y-79216973D01*
G37*
G36*
X28053512Y-77208927D02*
G01*
X28202812Y-77238624D01*
X28366784Y-77306544D01*
X28514354Y-77405147D01*
X28639853Y-77530646D01*
X28738456Y-77678216D01*
X28806376Y-77842188D01*
X28841000Y-78016259D01*
X28841000Y-78193741D01*
X28806376Y-78367812D01*
X28738456Y-78531784D01*
X28639853Y-78679354D01*
X28514354Y-78804853D01*
X28366784Y-78903456D01*
X28202812Y-78971376D01*
X28053512Y-79001073D01*
X28028742Y-79006000D01*
X27851258Y-79006000D01*
X27826488Y-79001073D01*
X27677188Y-78971376D01*
X27513216Y-78903456D01*
X27365646Y-78804853D01*
X27240147Y-78679354D01*
X27141544Y-78531784D01*
X27073624Y-78367812D01*
X27039000Y-78193741D01*
X27039000Y-78016259D01*
X27073624Y-77842188D01*
X27141544Y-77678216D01*
X27240147Y-77530646D01*
X27365646Y-77405147D01*
X27513216Y-77306544D01*
X27677188Y-77238624D01*
X27826488Y-77208927D01*
X27851258Y-77204000D01*
X28028742Y-77204000D01*
X28053512Y-77208927D01*
G37*
G36*
X91071000Y-77101000D02*
G01*
X89269000Y-77101000D01*
X89269000Y-75299000D01*
X91071000Y-75299000D01*
X91071000Y-77101000D01*
G37*
G36*
X28841000Y-76466000D02*
G01*
X27039000Y-76466000D01*
X27039000Y-74664000D01*
X28841000Y-74664000D01*
X28841000Y-76466000D01*
G37*
G36*
X49778228Y-73476703D02*
G01*
X49933100Y-73540853D01*
X50072481Y-73633985D01*
X50191015Y-73752519D01*
X50284147Y-73891900D01*
X50348297Y-74046772D01*
X50381000Y-74211184D01*
X50381000Y-74378816D01*
X50348297Y-74543228D01*
X50284147Y-74698100D01*
X50191015Y-74837481D01*
X50072481Y-74956015D01*
X49933100Y-75049147D01*
X49778228Y-75113297D01*
X49613816Y-75146000D01*
X49446184Y-75146000D01*
X49281772Y-75113297D01*
X49126900Y-75049147D01*
X48987519Y-74956015D01*
X48868985Y-74837481D01*
X48775853Y-74698100D01*
X48711703Y-74543228D01*
X48679000Y-74378816D01*
X48679000Y-74211184D01*
X48711703Y-74046772D01*
X48775853Y-73891900D01*
X48868985Y-73752519D01*
X48987519Y-73633985D01*
X49126900Y-73540853D01*
X49281772Y-73476703D01*
X49446184Y-73444000D01*
X49613816Y-73444000D01*
X49778228Y-73476703D01*
G37*
G36*
X64383228Y-73476703D02*
G01*
X64538100Y-73540853D01*
X64677481Y-73633985D01*
X64796015Y-73752519D01*
X64889147Y-73891900D01*
X64953297Y-74046772D01*
X64986000Y-74211184D01*
X64986000Y-74378816D01*
X64953297Y-74543228D01*
X64889147Y-74698100D01*
X64796015Y-74837481D01*
X64677481Y-74956015D01*
X64538100Y-75049147D01*
X64383228Y-75113297D01*
X64218816Y-75146000D01*
X64051184Y-75146000D01*
X63886772Y-75113297D01*
X63731900Y-75049147D01*
X63592519Y-74956015D01*
X63473985Y-74837481D01*
X63380853Y-74698100D01*
X63316703Y-74543228D01*
X63284000Y-74378816D01*
X63284000Y-74211184D01*
X63316703Y-74046772D01*
X63380853Y-73891900D01*
X63473985Y-73752519D01*
X63592519Y-73633985D01*
X63731900Y-73540853D01*
X63886772Y-73476703D01*
X64051184Y-73444000D01*
X64218816Y-73444000D01*
X64383228Y-73476703D01*
G37*
G36*
X69463228Y-73476703D02*
G01*
X69618100Y-73540853D01*
X69757481Y-73633985D01*
X69876015Y-73752519D01*
X69969147Y-73891900D01*
X70033297Y-74046772D01*
X70066000Y-74211184D01*
X70066000Y-74378816D01*
X70033297Y-74543228D01*
X69969147Y-74698100D01*
X69876015Y-74837481D01*
X69757481Y-74956015D01*
X69618100Y-75049147D01*
X69463228Y-75113297D01*
X69298816Y-75146000D01*
X69131184Y-75146000D01*
X68966772Y-75113297D01*
X68811900Y-75049147D01*
X68672519Y-74956015D01*
X68553985Y-74837481D01*
X68460853Y-74698100D01*
X68396703Y-74543228D01*
X68364000Y-74378816D01*
X68364000Y-74211184D01*
X68396703Y-74046772D01*
X68460853Y-73891900D01*
X68553985Y-73752519D01*
X68672519Y-73633985D01*
X68811900Y-73540853D01*
X68966772Y-73476703D01*
X69131184Y-73444000D01*
X69298816Y-73444000D01*
X69463228Y-73476703D01*
G37*
G36*
X74543228Y-73476703D02*
G01*
X74698100Y-73540853D01*
X74837481Y-73633985D01*
X74956015Y-73752519D01*
X75049147Y-73891900D01*
X75113297Y-74046772D01*
X75146000Y-74211184D01*
X75146000Y-74378816D01*
X75113297Y-74543228D01*
X75049147Y-74698100D01*
X74956015Y-74837481D01*
X74837481Y-74956015D01*
X74698100Y-75049147D01*
X74543228Y-75113297D01*
X74378816Y-75146000D01*
X74211184Y-75146000D01*
X74046772Y-75113297D01*
X73891900Y-75049147D01*
X73752519Y-74956015D01*
X73633985Y-74837481D01*
X73540853Y-74698100D01*
X73476703Y-74543228D01*
X73444000Y-74378816D01*
X73444000Y-74211184D01*
X73476703Y-74046772D01*
X73540853Y-73891900D01*
X73633985Y-73752519D01*
X73752519Y-73633985D01*
X73891900Y-73540853D01*
X74046772Y-73476703D01*
X74211184Y-73444000D01*
X74378816Y-73444000D01*
X74543228Y-73476703D01*
G37*
G36*
X59523228Y-73411703D02*
G01*
X59678100Y-73475853D01*
X59817481Y-73568985D01*
X59936015Y-73687519D01*
X60029147Y-73826900D01*
X60093297Y-73981772D01*
X60126000Y-74146184D01*
X60126000Y-74313816D01*
X60093297Y-74478228D01*
X60029147Y-74633100D01*
X59936015Y-74772481D01*
X59817481Y-74891015D01*
X59678100Y-74984147D01*
X59523228Y-75048297D01*
X59358816Y-75081000D01*
X59191184Y-75081000D01*
X59026772Y-75048297D01*
X58871900Y-74984147D01*
X58732519Y-74891015D01*
X58613985Y-74772481D01*
X58520853Y-74633100D01*
X58456703Y-74478228D01*
X58424000Y-74313816D01*
X58424000Y-74146184D01*
X58456703Y-73981772D01*
X58520853Y-73826900D01*
X58613985Y-73687519D01*
X58732519Y-73568985D01*
X58871900Y-73475853D01*
X59026772Y-73411703D01*
X59191184Y-73379000D01*
X59358816Y-73379000D01*
X59523228Y-73411703D01*
G37*
G36*
X54858228Y-73411703D02*
G01*
X55013100Y-73475853D01*
X55152481Y-73568985D01*
X55271015Y-73687519D01*
X55364147Y-73826900D01*
X55428297Y-73981772D01*
X55461000Y-74146184D01*
X55461000Y-74313816D01*
X55428297Y-74478228D01*
X55364147Y-74633100D01*
X55271015Y-74772481D01*
X55152481Y-74891015D01*
X55013100Y-74984147D01*
X54858228Y-75048297D01*
X54693816Y-75081000D01*
X54526184Y-75081000D01*
X54361772Y-75048297D01*
X54206900Y-74984147D01*
X54067519Y-74891015D01*
X53948985Y-74772481D01*
X53855853Y-74633100D01*
X53791703Y-74478228D01*
X53759000Y-74313816D01*
X53759000Y-74146184D01*
X53791703Y-73981772D01*
X53855853Y-73826900D01*
X53948985Y-73687519D01*
X54067519Y-73568985D01*
X54206900Y-73475853D01*
X54361772Y-73411703D01*
X54526184Y-73379000D01*
X54693816Y-73379000D01*
X54858228Y-73411703D01*
G37*
G36*
X34538228Y-73386703D02*
G01*
X34693100Y-73450853D01*
X34832481Y-73543985D01*
X34951015Y-73662519D01*
X35044147Y-73801900D01*
X35108297Y-73956772D01*
X35141000Y-74121184D01*
X35141000Y-74288816D01*
X35108297Y-74453228D01*
X35044147Y-74608100D01*
X34951015Y-74747481D01*
X34832481Y-74866015D01*
X34693100Y-74959147D01*
X34538228Y-75023297D01*
X34373816Y-75056000D01*
X34206184Y-75056000D01*
X34041772Y-75023297D01*
X33886900Y-74959147D01*
X33747519Y-74866015D01*
X33628985Y-74747481D01*
X33535853Y-74608100D01*
X33471703Y-74453228D01*
X33439000Y-74288816D01*
X33439000Y-74121184D01*
X33471703Y-73956772D01*
X33535853Y-73801900D01*
X33628985Y-73662519D01*
X33747519Y-73543985D01*
X33886900Y-73450853D01*
X34041772Y-73386703D01*
X34206184Y-73354000D01*
X34373816Y-73354000D01*
X34538228Y-73386703D01*
G37*
G36*
X39788228Y-73386703D02*
G01*
X39943100Y-73450853D01*
X40082481Y-73543985D01*
X40201015Y-73662519D01*
X40294147Y-73801900D01*
X40358297Y-73956772D01*
X40391000Y-74121184D01*
X40391000Y-74288816D01*
X40358297Y-74453228D01*
X40294147Y-74608100D01*
X40201015Y-74747481D01*
X40082481Y-74866015D01*
X39943100Y-74959147D01*
X39788228Y-75023297D01*
X39623816Y-75056000D01*
X39456184Y-75056000D01*
X39291772Y-75023297D01*
X39136900Y-74959147D01*
X38997519Y-74866015D01*
X38878985Y-74747481D01*
X38785853Y-74608100D01*
X38721703Y-74453228D01*
X38689000Y-74288816D01*
X38689000Y-74121184D01*
X38721703Y-73956772D01*
X38785853Y-73801900D01*
X38878985Y-73662519D01*
X38997519Y-73543985D01*
X39136900Y-73450853D01*
X39291772Y-73386703D01*
X39456184Y-73354000D01*
X39623816Y-73354000D01*
X39788228Y-73386703D01*
G37*
G36*
X45108228Y-73386703D02*
G01*
X45263100Y-73450853D01*
X45402481Y-73543985D01*
X45521015Y-73662519D01*
X45614147Y-73801900D01*
X45678297Y-73956772D01*
X45711000Y-74121184D01*
X45711000Y-74288816D01*
X45678297Y-74453228D01*
X45614147Y-74608100D01*
X45521015Y-74747481D01*
X45402481Y-74866015D01*
X45263100Y-74959147D01*
X45108228Y-75023297D01*
X44943816Y-75056000D01*
X44776184Y-75056000D01*
X44611772Y-75023297D01*
X44456900Y-74959147D01*
X44317519Y-74866015D01*
X44198985Y-74747481D01*
X44105853Y-74608100D01*
X44041703Y-74453228D01*
X44009000Y-74288816D01*
X44009000Y-74121184D01*
X44041703Y-73956772D01*
X44105853Y-73801900D01*
X44198985Y-73662519D01*
X44317519Y-73543985D01*
X44456900Y-73450853D01*
X44611772Y-73386703D01*
X44776184Y-73354000D01*
X44943816Y-73354000D01*
X45108228Y-73386703D01*
G37*
G36*
X83928015Y-72866973D02*
G01*
X84031879Y-72898479D01*
X84059055Y-72913005D01*
X84127600Y-72949643D01*
X84211501Y-73018499D01*
X84280357Y-73102400D01*
X84316995Y-73170945D01*
X84331521Y-73198121D01*
X84363027Y-73301985D01*
X84371000Y-73382933D01*
X84371000Y-73937067D01*
X84363027Y-74018015D01*
X84331521Y-74121879D01*
X84318529Y-74146184D01*
X84283786Y-74211184D01*
X84280356Y-74217600D01*
X84211501Y-74301501D01*
X84142645Y-74358009D01*
X84127599Y-74370357D01*
X84111773Y-74378816D01*
X84031878Y-74421521D01*
X83928014Y-74453027D01*
X83820000Y-74463666D01*
X83711985Y-74453027D01*
X83608121Y-74421521D01*
X83528225Y-74378815D01*
X83512401Y-74370357D01*
X83499643Y-74359887D01*
X83428499Y-74301501D01*
X83359644Y-74217600D01*
X83356215Y-74211184D01*
X83325347Y-74153435D01*
X83308479Y-74121878D01*
X83304615Y-74109139D01*
X83295239Y-74086503D01*
X83281625Y-74066129D01*
X83264298Y-74048802D01*
X83243923Y-74035188D01*
X83221285Y-74025811D01*
X83197251Y-74021031D01*
X83172747Y-74021031D01*
X83148714Y-74025812D01*
X83126075Y-74035189D01*
X83105701Y-74048803D01*
X83088374Y-74066130D01*
X83074760Y-74086505D01*
X83065388Y-74109131D01*
X83061521Y-74121879D01*
X83048529Y-74146184D01*
X83013786Y-74211184D01*
X83010356Y-74217600D01*
X82941501Y-74301501D01*
X82872645Y-74358009D01*
X82857599Y-74370357D01*
X82841773Y-74378816D01*
X82761878Y-74421521D01*
X82658014Y-74453027D01*
X82550000Y-74463666D01*
X82441985Y-74453027D01*
X82338121Y-74421521D01*
X82258225Y-74378815D01*
X82242401Y-74370357D01*
X82229643Y-74359887D01*
X82158499Y-74301501D01*
X82089644Y-74217600D01*
X82066234Y-74173804D01*
X82052625Y-74153436D01*
X82035298Y-74136109D01*
X82014924Y-74122495D01*
X81992285Y-74113118D01*
X81968252Y-74108337D01*
X81943748Y-74108337D01*
X81919714Y-74113117D01*
X81897076Y-74122494D01*
X81876701Y-74136108D01*
X81859374Y-74153435D01*
X81845760Y-74173809D01*
X81836383Y-74196448D01*
X81831602Y-74220481D01*
X81831000Y-74232734D01*
X81831000Y-74461000D01*
X80729000Y-74461000D01*
X80729000Y-72859000D01*
X81831000Y-72859000D01*
X81831000Y-73087265D01*
X81833402Y-73111651D01*
X81840515Y-73135100D01*
X81852066Y-73156711D01*
X81867611Y-73175653D01*
X81886553Y-73191198D01*
X81908164Y-73202749D01*
X81931613Y-73209862D01*
X81955999Y-73212264D01*
X81980385Y-73209862D01*
X82003834Y-73202749D01*
X82025445Y-73191198D01*
X82044387Y-73175653D01*
X82059932Y-73156711D01*
X82066239Y-73146188D01*
X82089644Y-73102399D01*
X82158500Y-73018499D01*
X82242401Y-72949643D01*
X82310946Y-72913005D01*
X82338122Y-72898479D01*
X82441986Y-72866973D01*
X82550000Y-72856334D01*
X82658015Y-72866973D01*
X82761879Y-72898479D01*
X82789055Y-72913005D01*
X82857600Y-72949643D01*
X82941501Y-73018499D01*
X83010357Y-73102400D01*
X83046995Y-73170945D01*
X83061521Y-73198121D01*
X83065388Y-73210869D01*
X83074760Y-73233496D01*
X83088374Y-73253870D01*
X83105701Y-73271197D01*
X83126075Y-73284811D01*
X83148714Y-73294188D01*
X83172747Y-73298969D01*
X83197251Y-73298969D01*
X83221285Y-73294189D01*
X83243924Y-73284812D01*
X83264298Y-73271198D01*
X83281625Y-73253871D01*
X83295239Y-73233497D01*
X83304617Y-73210857D01*
X83304919Y-73209862D01*
X83308480Y-73198121D01*
X83308481Y-73198118D01*
X83359643Y-73102401D01*
X83428500Y-73018499D01*
X83512401Y-72949643D01*
X83580946Y-72913005D01*
X83608122Y-72898479D01*
X83711986Y-72866973D01*
X83820000Y-72856334D01*
X83928015Y-72866973D01*
G37*
G36*
X74403228Y-69201703D02*
G01*
X74558100Y-69265853D01*
X74697481Y-69358985D01*
X74816015Y-69477519D01*
X74909147Y-69616900D01*
X74973297Y-69771772D01*
X75006000Y-69936184D01*
X75006000Y-70103816D01*
X74973297Y-70268228D01*
X74909147Y-70423100D01*
X74816015Y-70562481D01*
X74697481Y-70681015D01*
X74558100Y-70774147D01*
X74403228Y-70838297D01*
X74238816Y-70871000D01*
X74071184Y-70871000D01*
X73906772Y-70838297D01*
X73751900Y-70774147D01*
X73612519Y-70681015D01*
X73493985Y-70562481D01*
X73400853Y-70423100D01*
X73336703Y-70268228D01*
X73304000Y-70103816D01*
X73304000Y-69936184D01*
X73336703Y-69771772D01*
X73400853Y-69616900D01*
X73493985Y-69477519D01*
X73612519Y-69358985D01*
X73751900Y-69265853D01*
X73906772Y-69201703D01*
X74071184Y-69169000D01*
X74238816Y-69169000D01*
X74403228Y-69201703D01*
G37*
G36*
X91071000Y-70751000D02*
G01*
X89269000Y-70751000D01*
X89269000Y-68949000D01*
X91071000Y-68949000D01*
X91071000Y-70751000D01*
G37*
G36*
X69463228Y-69031703D02*
G01*
X69618100Y-69095853D01*
X69757481Y-69188985D01*
X69876015Y-69307519D01*
X69969147Y-69446900D01*
X70033297Y-69601772D01*
X70066000Y-69766184D01*
X70066000Y-69933816D01*
X70033297Y-70098228D01*
X69969147Y-70253100D01*
X69876015Y-70392481D01*
X69757481Y-70511015D01*
X69618100Y-70604147D01*
X69463228Y-70668297D01*
X69298816Y-70701000D01*
X69131184Y-70701000D01*
X68966772Y-70668297D01*
X68811900Y-70604147D01*
X68672519Y-70511015D01*
X68553985Y-70392481D01*
X68460853Y-70253100D01*
X68396703Y-70098228D01*
X68364000Y-69933816D01*
X68364000Y-69766184D01*
X68396703Y-69601772D01*
X68460853Y-69446900D01*
X68553985Y-69307519D01*
X68672519Y-69188985D01*
X68811900Y-69095853D01*
X68966772Y-69031703D01*
X69131184Y-68999000D01*
X69298816Y-68999000D01*
X69463228Y-69031703D01*
G37*
G36*
X30605589Y-67818876D02*
G01*
X30704893Y-67838629D01*
X30845206Y-67896748D01*
X30971484Y-67981125D01*
X31078875Y-68088516D01*
X31163252Y-68214794D01*
X31221371Y-68355107D01*
X31221371Y-68355109D01*
X31247702Y-68487480D01*
X31251000Y-68504063D01*
X31251000Y-68655937D01*
X31221371Y-68804893D01*
X31163252Y-68945206D01*
X31078875Y-69071484D01*
X30971484Y-69178875D01*
X30845206Y-69263252D01*
X30704893Y-69321371D01*
X30605589Y-69341124D01*
X30555938Y-69351000D01*
X30404062Y-69351000D01*
X30354411Y-69341124D01*
X30255107Y-69321371D01*
X30114794Y-69263252D01*
X29988516Y-69178875D01*
X29881125Y-69071484D01*
X29796748Y-68945206D01*
X29738629Y-68804893D01*
X29709000Y-68655937D01*
X29709000Y-68504063D01*
X29712299Y-68487480D01*
X29738629Y-68355109D01*
X29738629Y-68355107D01*
X29796748Y-68214794D01*
X29881125Y-68088516D01*
X29988516Y-67981125D01*
X30114794Y-67896748D01*
X30255107Y-67838629D01*
X30354411Y-67818876D01*
X30404062Y-67809000D01*
X30555938Y-67809000D01*
X30605589Y-67818876D01*
G37*
G36*
X64938228Y-67126703D02*
G01*
X65093100Y-67190853D01*
X65232481Y-67283985D01*
X65351015Y-67402519D01*
X65444147Y-67541900D01*
X65508297Y-67696772D01*
X65541000Y-67861184D01*
X65541000Y-68028816D01*
X65508297Y-68193228D01*
X65444147Y-68348100D01*
X65351015Y-68487481D01*
X65232481Y-68606015D01*
X65093100Y-68699147D01*
X64938228Y-68763297D01*
X64773816Y-68796000D01*
X64606184Y-68796000D01*
X64441772Y-68763297D01*
X64286900Y-68699147D01*
X64147519Y-68606015D01*
X64028985Y-68487481D01*
X63935853Y-68348100D01*
X63871703Y-68193228D01*
X63839000Y-68028816D01*
X63839000Y-67861184D01*
X63871703Y-67696772D01*
X63935853Y-67541900D01*
X64028985Y-67402519D01*
X64147519Y-67283985D01*
X64286900Y-67190853D01*
X64441772Y-67126703D01*
X64606184Y-67094000D01*
X64773816Y-67094000D01*
X64938228Y-67126703D01*
G37*
G36*
X55493228Y-67126703D02*
G01*
X55648100Y-67190853D01*
X55787481Y-67283985D01*
X55906015Y-67402519D01*
X55999147Y-67541900D01*
X56063297Y-67696772D01*
X56096000Y-67861184D01*
X56096000Y-68028816D01*
X56063297Y-68193228D01*
X55999147Y-68348100D01*
X55906015Y-68487481D01*
X55787481Y-68606015D01*
X55648100Y-68699147D01*
X55493228Y-68763297D01*
X55328816Y-68796000D01*
X55161184Y-68796000D01*
X54996772Y-68763297D01*
X54841900Y-68699147D01*
X54702519Y-68606015D01*
X54583985Y-68487481D01*
X54490853Y-68348100D01*
X54426703Y-68193228D01*
X54394000Y-68028816D01*
X54394000Y-67861184D01*
X54426703Y-67696772D01*
X54490853Y-67541900D01*
X54583985Y-67402519D01*
X54702519Y-67283985D01*
X54841900Y-67190853D01*
X54996772Y-67126703D01*
X55161184Y-67094000D01*
X55328816Y-67094000D01*
X55493228Y-67126703D01*
G37*
G36*
X59938228Y-67126703D02*
G01*
X60093100Y-67190853D01*
X60232481Y-67283985D01*
X60351015Y-67402519D01*
X60444147Y-67541900D01*
X60508297Y-67696772D01*
X60541000Y-67861184D01*
X60541000Y-68028816D01*
X60508297Y-68193228D01*
X60444147Y-68348100D01*
X60351015Y-68487481D01*
X60232481Y-68606015D01*
X60093100Y-68699147D01*
X59938228Y-68763297D01*
X59773816Y-68796000D01*
X59606184Y-68796000D01*
X59441772Y-68763297D01*
X59286900Y-68699147D01*
X59147519Y-68606015D01*
X59028985Y-68487481D01*
X58935853Y-68348100D01*
X58871703Y-68193228D01*
X58839000Y-68028816D01*
X58839000Y-67861184D01*
X58871703Y-67696772D01*
X58935853Y-67541900D01*
X59028985Y-67402519D01*
X59147519Y-67283985D01*
X59286900Y-67190853D01*
X59441772Y-67126703D01*
X59606184Y-67094000D01*
X59773816Y-67094000D01*
X59938228Y-67126703D01*
G37*
G36*
X83928015Y-66516973D02*
G01*
X84031879Y-66548479D01*
X84059055Y-66563005D01*
X84127600Y-66599643D01*
X84211501Y-66668499D01*
X84280357Y-66752400D01*
X84311679Y-66811000D01*
X84331521Y-66848121D01*
X84363027Y-66951985D01*
X84371000Y-67032933D01*
X84371000Y-67587067D01*
X84363027Y-67668015D01*
X84331521Y-67771879D01*
X84314654Y-67803435D01*
X84283786Y-67861184D01*
X84280356Y-67867600D01*
X84211501Y-67951501D01*
X84142645Y-68008009D01*
X84127599Y-68020357D01*
X84111773Y-68028816D01*
X84031878Y-68071521D01*
X83928014Y-68103027D01*
X83820000Y-68113666D01*
X83711985Y-68103027D01*
X83608121Y-68071521D01*
X83528225Y-68028815D01*
X83512401Y-68020357D01*
X83499643Y-68009887D01*
X83428499Y-67951501D01*
X83359644Y-67867600D01*
X83356215Y-67861184D01*
X83316086Y-67786109D01*
X83308479Y-67771878D01*
X83304615Y-67759139D01*
X83295239Y-67736503D01*
X83281625Y-67716129D01*
X83264298Y-67698802D01*
X83243923Y-67685188D01*
X83221285Y-67675811D01*
X83197251Y-67671031D01*
X83172747Y-67671031D01*
X83148714Y-67675812D01*
X83126075Y-67685189D01*
X83105701Y-67698803D01*
X83088374Y-67716130D01*
X83074760Y-67736505D01*
X83065388Y-67759131D01*
X83061521Y-67771879D01*
X83044654Y-67803435D01*
X83013786Y-67861184D01*
X83010356Y-67867600D01*
X82941501Y-67951501D01*
X82872645Y-68008009D01*
X82857599Y-68020357D01*
X82841773Y-68028816D01*
X82761878Y-68071521D01*
X82658014Y-68103027D01*
X82550000Y-68113666D01*
X82441985Y-68103027D01*
X82338121Y-68071521D01*
X82258225Y-68028815D01*
X82242401Y-68020357D01*
X82229643Y-68009887D01*
X82158499Y-67951501D01*
X82089644Y-67867600D01*
X82066234Y-67823804D01*
X82052625Y-67803436D01*
X82035298Y-67786109D01*
X82014924Y-67772495D01*
X81992285Y-67763118D01*
X81968252Y-67758337D01*
X81943748Y-67758337D01*
X81919714Y-67763117D01*
X81897076Y-67772494D01*
X81876701Y-67786108D01*
X81859374Y-67803435D01*
X81845760Y-67823809D01*
X81836383Y-67846448D01*
X81831602Y-67870481D01*
X81831000Y-67882734D01*
X81831000Y-68111000D01*
X80729000Y-68111000D01*
X80729000Y-66509000D01*
X81831000Y-66509000D01*
X81831000Y-66737265D01*
X81833402Y-66761651D01*
X81840515Y-66785100D01*
X81852066Y-66806711D01*
X81867611Y-66825653D01*
X81886553Y-66841198D01*
X81908164Y-66852749D01*
X81931613Y-66859862D01*
X81955999Y-66862264D01*
X81980385Y-66859862D01*
X82003834Y-66852749D01*
X82025445Y-66841198D01*
X82044387Y-66825653D01*
X82059932Y-66806711D01*
X82066239Y-66796188D01*
X82089644Y-66752399D01*
X82158500Y-66668499D01*
X82242401Y-66599643D01*
X82310946Y-66563005D01*
X82338122Y-66548479D01*
X82441986Y-66516973D01*
X82550000Y-66506334D01*
X82658015Y-66516973D01*
X82761879Y-66548479D01*
X82789055Y-66563005D01*
X82857600Y-66599643D01*
X82941501Y-66668499D01*
X83010357Y-66752400D01*
X83041679Y-66811000D01*
X83061521Y-66848121D01*
X83065388Y-66860869D01*
X83074760Y-66883496D01*
X83088374Y-66903870D01*
X83105701Y-66921197D01*
X83126075Y-66934811D01*
X83148714Y-66944188D01*
X83172747Y-66948969D01*
X83197251Y-66948969D01*
X83221285Y-66944189D01*
X83243924Y-66934812D01*
X83264298Y-66921198D01*
X83281625Y-66903871D01*
X83295239Y-66883497D01*
X83304617Y-66860857D01*
X83304919Y-66859862D01*
X83308480Y-66848121D01*
X83308481Y-66848118D01*
X83359643Y-66752401D01*
X83428500Y-66668499D01*
X83512401Y-66599643D01*
X83580946Y-66563005D01*
X83608122Y-66548479D01*
X83711986Y-66516973D01*
X83820000Y-66506334D01*
X83928015Y-66516973D01*
G37*
G36*
X35685589Y-65278876D02*
G01*
X35784893Y-65298629D01*
X35925206Y-65356748D01*
X36051484Y-65441125D01*
X36158875Y-65548516D01*
X36243252Y-65674794D01*
X36301371Y-65815107D01*
X36331000Y-65964063D01*
X36331000Y-66115937D01*
X36301371Y-66264893D01*
X36243252Y-66405206D01*
X36158875Y-66531484D01*
X36051484Y-66638875D01*
X35925206Y-66723252D01*
X35784893Y-66781371D01*
X35710402Y-66796188D01*
X35635938Y-66811000D01*
X35484062Y-66811000D01*
X35409598Y-66796188D01*
X35335107Y-66781371D01*
X35194794Y-66723252D01*
X35068516Y-66638875D01*
X34961125Y-66531484D01*
X34876748Y-66405206D01*
X34818629Y-66264893D01*
X34789000Y-66115937D01*
X34789000Y-65964063D01*
X34818629Y-65815107D01*
X34876748Y-65674794D01*
X34961125Y-65548516D01*
X35068516Y-65441125D01*
X35194794Y-65356748D01*
X35335107Y-65298629D01*
X35434411Y-65278876D01*
X35484062Y-65269000D01*
X35635938Y-65269000D01*
X35685589Y-65278876D01*
G37*
G36*
X44431564Y-64394389D02*
G01*
X44622833Y-64473615D01*
X44622835Y-64473616D01*
X44794973Y-64588635D01*
X44941365Y-64735027D01*
X45056385Y-64907167D01*
X45135611Y-65098436D01*
X45176000Y-65301484D01*
X45176000Y-65508516D01*
X45135611Y-65711564D01*
X45092722Y-65815107D01*
X45056384Y-65902835D01*
X44941365Y-66074973D01*
X44794973Y-66221365D01*
X44622835Y-66336384D01*
X44622834Y-66336385D01*
X44622833Y-66336385D01*
X44431564Y-66415611D01*
X44228516Y-66456000D01*
X44021484Y-66456000D01*
X43818436Y-66415611D01*
X43627167Y-66336385D01*
X43627166Y-66336385D01*
X43627165Y-66336384D01*
X43455027Y-66221365D01*
X43308635Y-66074973D01*
X43193616Y-65902835D01*
X43157278Y-65815107D01*
X43114389Y-65711564D01*
X43074000Y-65508516D01*
X43074000Y-65301484D01*
X43114389Y-65098436D01*
X43193615Y-64907167D01*
X43308635Y-64735027D01*
X43455027Y-64588635D01*
X43627165Y-64473616D01*
X43627167Y-64473615D01*
X43818436Y-64394389D01*
X44021484Y-64354000D01*
X44228516Y-64354000D01*
X44431564Y-64394389D01*
G37*
G36*
X48676000Y-66456000D02*
G01*
X46574000Y-66456000D01*
X46574000Y-64354000D01*
X48676000Y-64354000D01*
X48676000Y-66456000D01*
G37*
G36*
X30605589Y-62738876D02*
G01*
X30704893Y-62758629D01*
X30845206Y-62816748D01*
X30971484Y-62901125D01*
X31078875Y-63008516D01*
X31163252Y-63134794D01*
X31221371Y-63275107D01*
X31235890Y-63348100D01*
X31247702Y-63407480D01*
X31251000Y-63424063D01*
X31251000Y-63575937D01*
X31221371Y-63724893D01*
X31163252Y-63865206D01*
X31078875Y-63991484D01*
X30971484Y-64098875D01*
X30845206Y-64183252D01*
X30704893Y-64241371D01*
X30605589Y-64261124D01*
X30555938Y-64271000D01*
X30404062Y-64271000D01*
X30354411Y-64261124D01*
X30255107Y-64241371D01*
X30114794Y-64183252D01*
X29988516Y-64098875D01*
X29881125Y-63991484D01*
X29796748Y-63865206D01*
X29738629Y-63724893D01*
X29709000Y-63575937D01*
X29709000Y-63424063D01*
X29712299Y-63407480D01*
X29724110Y-63348100D01*
X29738629Y-63275107D01*
X29796748Y-63134794D01*
X29881125Y-63008516D01*
X29988516Y-62901125D01*
X30114794Y-62816748D01*
X30255107Y-62758629D01*
X30354411Y-62738876D01*
X30404062Y-62729000D01*
X30555938Y-62729000D01*
X30605589Y-62738876D01*
G37*
G36*
X55493228Y-62126703D02*
G01*
X55648100Y-62190853D01*
X55787481Y-62283985D01*
X55906015Y-62402519D01*
X55999147Y-62541900D01*
X56063297Y-62696772D01*
X56096000Y-62861184D01*
X56096000Y-63028816D01*
X56063297Y-63193228D01*
X55999147Y-63348100D01*
X55906015Y-63487481D01*
X55787481Y-63606015D01*
X55648100Y-63699147D01*
X55493228Y-63763297D01*
X55328816Y-63796000D01*
X55161184Y-63796000D01*
X54996772Y-63763297D01*
X54841900Y-63699147D01*
X54702519Y-63606015D01*
X54583985Y-63487481D01*
X54490853Y-63348100D01*
X54426703Y-63193228D01*
X54394000Y-63028816D01*
X54394000Y-62861184D01*
X54426703Y-62696772D01*
X54490853Y-62541900D01*
X54583985Y-62402519D01*
X54702519Y-62283985D01*
X54841900Y-62190853D01*
X54996772Y-62126703D01*
X55161184Y-62094000D01*
X55328816Y-62094000D01*
X55493228Y-62126703D01*
G37*
G36*
X64938228Y-62046703D02*
G01*
X65093100Y-62110853D01*
X65232481Y-62203985D01*
X65351015Y-62322519D01*
X65444147Y-62461900D01*
X65508297Y-62616772D01*
X65541000Y-62781184D01*
X65541000Y-62948816D01*
X65508297Y-63113228D01*
X65444147Y-63268100D01*
X65351015Y-63407481D01*
X65232481Y-63526015D01*
X65093100Y-63619147D01*
X64938228Y-63683297D01*
X64773816Y-63716000D01*
X64606184Y-63716000D01*
X64441772Y-63683297D01*
X64286900Y-63619147D01*
X64147519Y-63526015D01*
X64028985Y-63407481D01*
X63935853Y-63268100D01*
X63871703Y-63113228D01*
X63839000Y-62948816D01*
X63839000Y-62781184D01*
X63871703Y-62616772D01*
X63935853Y-62461900D01*
X64028985Y-62322519D01*
X64147519Y-62203985D01*
X64286900Y-62110853D01*
X64441772Y-62046703D01*
X64606184Y-62014000D01*
X64773816Y-62014000D01*
X64938228Y-62046703D01*
G37*
G36*
X59938228Y-62046703D02*
G01*
X60093100Y-62110853D01*
X60232481Y-62203985D01*
X60351015Y-62322519D01*
X60444147Y-62461900D01*
X60508297Y-62616772D01*
X60541000Y-62781184D01*
X60541000Y-62948816D01*
X60508297Y-63113228D01*
X60444147Y-63268100D01*
X60351015Y-63407481D01*
X60232481Y-63526015D01*
X60093100Y-63619147D01*
X59938228Y-63683297D01*
X59773816Y-63716000D01*
X59606184Y-63716000D01*
X59441772Y-63683297D01*
X59286900Y-63619147D01*
X59147519Y-63526015D01*
X59028985Y-63407481D01*
X58935853Y-63268100D01*
X58871703Y-63113228D01*
X58839000Y-62948816D01*
X58839000Y-62781184D01*
X58871703Y-62616772D01*
X58935853Y-62461900D01*
X59028985Y-62322519D01*
X59147519Y-62203985D01*
X59286900Y-62110853D01*
X59441772Y-62046703D01*
X59606184Y-62014000D01*
X59773816Y-62014000D01*
X59938228Y-62046703D01*
G37*
G36*
X74403228Y-61581703D02*
G01*
X74558100Y-61645853D01*
X74697481Y-61738985D01*
X74816015Y-61857519D01*
X74909147Y-61996900D01*
X74973297Y-62151772D01*
X75006000Y-62316184D01*
X75006000Y-62483816D01*
X74973297Y-62648228D01*
X74909147Y-62803100D01*
X74816015Y-62942481D01*
X74697481Y-63061015D01*
X74558100Y-63154147D01*
X74403228Y-63218297D01*
X74238816Y-63251000D01*
X74071184Y-63251000D01*
X73906772Y-63218297D01*
X73751900Y-63154147D01*
X73612519Y-63061015D01*
X73493985Y-62942481D01*
X73400853Y-62803100D01*
X73336703Y-62648228D01*
X73304000Y-62483816D01*
X73304000Y-62316184D01*
X73336703Y-62151772D01*
X73400853Y-61996900D01*
X73493985Y-61857519D01*
X73612519Y-61738985D01*
X73751900Y-61645853D01*
X73906772Y-61581703D01*
X74071184Y-61549000D01*
X74238816Y-61549000D01*
X74403228Y-61581703D01*
G37*
G36*
X69463228Y-61411703D02*
G01*
X69618100Y-61475853D01*
X69757481Y-61568985D01*
X69876015Y-61687519D01*
X69969147Y-61826900D01*
X70033297Y-61981772D01*
X70066000Y-62146184D01*
X70066000Y-62313816D01*
X70033297Y-62478228D01*
X69969147Y-62633100D01*
X69876015Y-62772481D01*
X69757481Y-62891015D01*
X69618100Y-62984147D01*
X69463228Y-63048297D01*
X69298816Y-63081000D01*
X69131184Y-63081000D01*
X68966772Y-63048297D01*
X68811900Y-62984147D01*
X68672519Y-62891015D01*
X68553985Y-62772481D01*
X68460853Y-62633100D01*
X68396703Y-62478228D01*
X68364000Y-62313816D01*
X68364000Y-62146184D01*
X68396703Y-61981772D01*
X68460853Y-61826900D01*
X68553985Y-61687519D01*
X68672519Y-61568985D01*
X68811900Y-61475853D01*
X68966772Y-61411703D01*
X69131184Y-61379000D01*
X69298816Y-61379000D01*
X69463228Y-61411703D01*
G37*
M02*
