M48
; DRILL file {KiCad (5.1.5)-3} date 1/24/2020 2:43:11 PM
; FORMAT={-:-/ absolute / inch / decimal}
; #@! TF.CreationDate,2020-01-24T14:43:11-05:00
; #@! TF.GenerationSoftware,Kicad,Pcbnew,(5.1.5)-3
; #@! TF.FileFunction,Plated,1,2,PTH
FMAT,2
INCH
T1C0.0217
T2C0.0315
T3C0.0394
%
G90
G05
T1
X5.4Y-3.05
X5.4Y-3.1
X5.4Y-3.15
X5.4Y-2.775
X5.4Y-2.825
X5.4Y-2.875
X5.4Y-3.325
X5.4Y-3.375
X5.4Y-3.425
T2
X4.85Y-3.0
X5.15Y-3.0
X4.1923Y-3.2976
X4.4923Y-3.2976
X4.1923Y-3.1
X4.4923Y-3.1
X4.6913Y-3.5
X4.8882Y-3.5
X4.675Y-2.75
X4.675Y-3.05
X4.1923Y-3.5
X4.4923Y-3.5
X4.25Y-2.775
X4.35Y-2.875
X4.45Y-2.775
X4.85Y-2.81
X5.15Y-2.81
X4.6913Y-3.2976
X4.8882Y-3.2976
X5.075Y-3.3
X5.075Y-3.4969
T3
X5.625Y-3.2
X5.625Y-3.3
X4.0Y-2.975
X4.0Y-3.075
X4.0Y-3.175
X5.625Y-2.85
X5.625Y-2.95
T0
M30
