G04 #@! TF.GenerationSoftware,KiCad,Pcbnew,(5.1.5)-3*
G04 #@! TF.CreationDate,2020-01-24T14:43:17-05:00*
G04 #@! TF.ProjectId,sync,73796e63-2e6b-4696-9361-645f70636258,v01*
G04 #@! TF.SameCoordinates,Original*
G04 #@! TF.FileFunction,Copper,L1,Top*
G04 #@! TF.FilePolarity,Positive*
%FSLAX46Y46*%
G04 Gerber Fmt 4.6, Leading zero omitted, Abs format (unit mm)*
G04 Created by KiCad (PCBNEW (5.1.5)-3) date 2020-01-24 14:43:17*
%MOMM*%
%LPD*%
G04 APERTURE LIST*
%ADD10C,1.600000*%
%ADD11R,1.700000X1.700000*%
%ADD12O,1.700000X1.700000*%
%ADD13O,1.500000X1.000000*%
%ADD14R,1.500000X1.000000*%
%ADD15O,1.600000X1.600000*%
%ADD16C,1.440000*%
%ADD17C,0.250000*%
G04 APERTURE END LIST*
D10*
X119160000Y-83760000D03*
X124160000Y-83760000D03*
X119160000Y-88900000D03*
X124160000Y-88900000D03*
X128905000Y-88820000D03*
X128905000Y-83820000D03*
D11*
X101600000Y-75565000D03*
D12*
X101600000Y-78105000D03*
X101600000Y-80645000D03*
D11*
X142875000Y-72390000D03*
D12*
X142875000Y-74930000D03*
X142875000Y-83820000D03*
D11*
X142875000Y-81280000D03*
D13*
X137160000Y-85725000D03*
X137160000Y-84455000D03*
D14*
X137160000Y-86995000D03*
D13*
X137160000Y-71755000D03*
X137160000Y-70485000D03*
D14*
X137160000Y-73025000D03*
X137160000Y-80010000D03*
D13*
X137160000Y-77470000D03*
X137160000Y-78740000D03*
D15*
X114105000Y-78740000D03*
D10*
X106485000Y-78740000D03*
X118745000Y-69850000D03*
D15*
X118745000Y-77470000D03*
D10*
X106485000Y-83760000D03*
D15*
X114105000Y-83760000D03*
X130810000Y-76200000D03*
D10*
X123190000Y-76200000D03*
X106485000Y-88900000D03*
D15*
X114105000Y-88900000D03*
X130810000Y-71375000D03*
D10*
X123190000Y-71375000D03*
D16*
X113030000Y-70485000D03*
X110490000Y-73025000D03*
X107950000Y-70485000D03*
D17*
X137160000Y-78740000D02*
X138235300Y-78740000D01*
X124160000Y-83760000D02*
X126501800Y-81418200D01*
X126501800Y-81418200D02*
X137476100Y-81418200D01*
X137476100Y-81418200D02*
X138235300Y-80659000D01*
X138235300Y-80659000D02*
X138235300Y-78740000D01*
X115230300Y-83760000D02*
X116356600Y-84886300D01*
X116356600Y-84886300D02*
X123033700Y-84886300D01*
X123033700Y-84886300D02*
X124160000Y-83760000D01*
X114105000Y-83760000D02*
X115230300Y-83760000D01*
X137160000Y-71755000D02*
X136084700Y-71755000D01*
X130810000Y-76200000D02*
X131935300Y-76200000D01*
X131935300Y-76200000D02*
X136084700Y-72050600D01*
X136084700Y-72050600D02*
X136084700Y-71755000D01*
X142875000Y-72390000D02*
X141699700Y-72390000D01*
X137160000Y-77470000D02*
X137160000Y-76644700D01*
X137160000Y-76644700D02*
X137445000Y-76644700D01*
X137445000Y-76644700D02*
X141699700Y-72390000D01*
X137160000Y-85725000D02*
X130810000Y-85725000D01*
X130810000Y-85725000D02*
X128905000Y-83820000D01*
X142875000Y-74930000D02*
X142875000Y-76105300D01*
X140830300Y-82688700D02*
X140830300Y-82950600D01*
X140830300Y-82950600D02*
X141699700Y-83820000D01*
X142875000Y-76105300D02*
X140830300Y-78150000D01*
X140830300Y-78150000D02*
X140830300Y-82688700D01*
X115230300Y-88900000D02*
X116355600Y-87774700D01*
X116355600Y-87774700D02*
X123146500Y-87774700D01*
X123146500Y-87774700D02*
X128232500Y-82688700D01*
X128232500Y-82688700D02*
X140830300Y-82688700D01*
X142875000Y-83820000D02*
X141699700Y-83820000D01*
X114105000Y-88900000D02*
X115230300Y-88900000D01*
X101600000Y-78105000D02*
X101600000Y-79280300D01*
X101600000Y-79280300D02*
X101232700Y-79280300D01*
X101232700Y-79280300D02*
X100406500Y-80106500D01*
X100406500Y-80106500D02*
X100406500Y-81148400D01*
X100406500Y-81148400D02*
X109295500Y-90037400D01*
X109295500Y-90037400D02*
X118022600Y-90037400D01*
X118022600Y-90037400D02*
X119160000Y-88900000D01*
X101600000Y-75565000D02*
X122555000Y-75565000D01*
X122555000Y-75565000D02*
X123190000Y-76200000D01*
X123190000Y-76200000D02*
X127000000Y-80010000D01*
X127000000Y-80010000D02*
X137160000Y-80010000D01*
X104580000Y-80645000D02*
X101600000Y-80645000D01*
X106485000Y-78740000D02*
X104580000Y-80645000D01*
X104580000Y-80645000D02*
X106485000Y-82550000D01*
X106485000Y-82550000D02*
X106485000Y-83760000D01*
X107950000Y-70485000D02*
X109034600Y-69400400D01*
X109034600Y-69400400D02*
X118295400Y-69400400D01*
X118295400Y-69400400D02*
X118745000Y-69850000D01*
X123190000Y-71375000D02*
X121665000Y-69850000D01*
X121665000Y-69850000D02*
X118745000Y-69850000D01*
M02*
