G04 #@! TF.GenerationSoftware,KiCad,Pcbnew,(5.1.5)-3*
G04 #@! TF.CreationDate,2020-01-24T14:43:17-05:00*
G04 #@! TF.ProjectId,sync,73796e63-2e6b-4696-9361-645f70636258,v01*
G04 #@! TF.SameCoordinates,Original*
G04 #@! TF.FileFunction,Soldermask,Top*
G04 #@! TF.FilePolarity,Negative*
%FSLAX46Y46*%
G04 Gerber Fmt 4.6, Leading zero omitted, Abs format (unit mm)*
G04 Created by KiCad (PCBNEW (5.1.5)-3) date 2020-01-24 14:43:17*
%MOMM*%
%LPD*%
G04 APERTURE LIST*
%ADD10C,0.100000*%
G04 APERTURE END LIST*
D10*
G36*
X114353228Y-88081703D02*
G01*
X114508100Y-88145853D01*
X114647481Y-88238985D01*
X114766015Y-88357519D01*
X114859147Y-88496900D01*
X114923297Y-88651772D01*
X114956000Y-88816184D01*
X114956000Y-88983816D01*
X114923297Y-89148228D01*
X114859147Y-89303100D01*
X114766015Y-89442481D01*
X114647481Y-89561015D01*
X114508100Y-89654147D01*
X114353228Y-89718297D01*
X114188816Y-89751000D01*
X114021184Y-89751000D01*
X113856772Y-89718297D01*
X113701900Y-89654147D01*
X113562519Y-89561015D01*
X113443985Y-89442481D01*
X113350853Y-89303100D01*
X113286703Y-89148228D01*
X113254000Y-88983816D01*
X113254000Y-88816184D01*
X113286703Y-88651772D01*
X113350853Y-88496900D01*
X113443985Y-88357519D01*
X113562519Y-88238985D01*
X113701900Y-88145853D01*
X113856772Y-88081703D01*
X114021184Y-88049000D01*
X114188816Y-88049000D01*
X114353228Y-88081703D01*
G37*
G36*
X106733228Y-88081703D02*
G01*
X106888100Y-88145853D01*
X107027481Y-88238985D01*
X107146015Y-88357519D01*
X107239147Y-88496900D01*
X107303297Y-88651772D01*
X107336000Y-88816184D01*
X107336000Y-88983816D01*
X107303297Y-89148228D01*
X107239147Y-89303100D01*
X107146015Y-89442481D01*
X107027481Y-89561015D01*
X106888100Y-89654147D01*
X106733228Y-89718297D01*
X106568816Y-89751000D01*
X106401184Y-89751000D01*
X106236772Y-89718297D01*
X106081900Y-89654147D01*
X105942519Y-89561015D01*
X105823985Y-89442481D01*
X105730853Y-89303100D01*
X105666703Y-89148228D01*
X105634000Y-88983816D01*
X105634000Y-88816184D01*
X105666703Y-88651772D01*
X105730853Y-88496900D01*
X105823985Y-88357519D01*
X105942519Y-88238985D01*
X106081900Y-88145853D01*
X106236772Y-88081703D01*
X106401184Y-88049000D01*
X106568816Y-88049000D01*
X106733228Y-88081703D01*
G37*
G36*
X124408228Y-88081703D02*
G01*
X124563100Y-88145853D01*
X124702481Y-88238985D01*
X124821015Y-88357519D01*
X124914147Y-88496900D01*
X124978297Y-88651772D01*
X125011000Y-88816184D01*
X125011000Y-88983816D01*
X124978297Y-89148228D01*
X124914147Y-89303100D01*
X124821015Y-89442481D01*
X124702481Y-89561015D01*
X124563100Y-89654147D01*
X124408228Y-89718297D01*
X124243816Y-89751000D01*
X124076184Y-89751000D01*
X123911772Y-89718297D01*
X123756900Y-89654147D01*
X123617519Y-89561015D01*
X123498985Y-89442481D01*
X123405853Y-89303100D01*
X123341703Y-89148228D01*
X123309000Y-88983816D01*
X123309000Y-88816184D01*
X123341703Y-88651772D01*
X123405853Y-88496900D01*
X123498985Y-88357519D01*
X123617519Y-88238985D01*
X123756900Y-88145853D01*
X123911772Y-88081703D01*
X124076184Y-88049000D01*
X124243816Y-88049000D01*
X124408228Y-88081703D01*
G37*
G36*
X119408228Y-88081703D02*
G01*
X119563100Y-88145853D01*
X119702481Y-88238985D01*
X119821015Y-88357519D01*
X119914147Y-88496900D01*
X119978297Y-88651772D01*
X120011000Y-88816184D01*
X120011000Y-88983816D01*
X119978297Y-89148228D01*
X119914147Y-89303100D01*
X119821015Y-89442481D01*
X119702481Y-89561015D01*
X119563100Y-89654147D01*
X119408228Y-89718297D01*
X119243816Y-89751000D01*
X119076184Y-89751000D01*
X118911772Y-89718297D01*
X118756900Y-89654147D01*
X118617519Y-89561015D01*
X118498985Y-89442481D01*
X118405853Y-89303100D01*
X118341703Y-89148228D01*
X118309000Y-88983816D01*
X118309000Y-88816184D01*
X118341703Y-88651772D01*
X118405853Y-88496900D01*
X118498985Y-88357519D01*
X118617519Y-88238985D01*
X118756900Y-88145853D01*
X118911772Y-88081703D01*
X119076184Y-88049000D01*
X119243816Y-88049000D01*
X119408228Y-88081703D01*
G37*
G36*
X129153228Y-88001703D02*
G01*
X129308100Y-88065853D01*
X129447481Y-88158985D01*
X129566015Y-88277519D01*
X129659147Y-88416900D01*
X129723297Y-88571772D01*
X129756000Y-88736184D01*
X129756000Y-88903816D01*
X129723297Y-89068228D01*
X129659147Y-89223100D01*
X129566015Y-89362481D01*
X129447481Y-89481015D01*
X129308100Y-89574147D01*
X129153228Y-89638297D01*
X128988816Y-89671000D01*
X128821184Y-89671000D01*
X128656772Y-89638297D01*
X128501900Y-89574147D01*
X128362519Y-89481015D01*
X128243985Y-89362481D01*
X128150853Y-89223100D01*
X128086703Y-89068228D01*
X128054000Y-88903816D01*
X128054000Y-88736184D01*
X128086703Y-88571772D01*
X128150853Y-88416900D01*
X128243985Y-88277519D01*
X128362519Y-88158985D01*
X128501900Y-88065853D01*
X128656772Y-88001703D01*
X128821184Y-87969000D01*
X128988816Y-87969000D01*
X129153228Y-88001703D01*
G37*
G36*
X137518015Y-83911973D02*
G01*
X137621879Y-83943479D01*
X137649055Y-83958005D01*
X137717600Y-83994643D01*
X137801501Y-84063499D01*
X137870357Y-84147400D01*
X137906995Y-84215945D01*
X137921521Y-84243121D01*
X137953027Y-84346985D01*
X137963666Y-84455000D01*
X137953027Y-84563015D01*
X137921521Y-84666879D01*
X137921519Y-84666882D01*
X137870357Y-84762600D01*
X137801501Y-84846501D01*
X137717600Y-84915357D01*
X137649055Y-84951995D01*
X137621879Y-84966521D01*
X137609131Y-84970388D01*
X137586504Y-84979760D01*
X137566130Y-84993374D01*
X137548803Y-85010701D01*
X137535189Y-85031075D01*
X137525812Y-85053714D01*
X137521031Y-85077747D01*
X137521031Y-85102251D01*
X137525811Y-85126285D01*
X137535188Y-85148924D01*
X137548802Y-85169298D01*
X137566129Y-85186625D01*
X137586503Y-85200239D01*
X137609131Y-85209612D01*
X137621879Y-85213479D01*
X137649055Y-85228005D01*
X137717600Y-85264643D01*
X137801501Y-85333499D01*
X137870357Y-85417400D01*
X137906995Y-85485945D01*
X137921521Y-85513121D01*
X137953027Y-85616985D01*
X137963666Y-85725000D01*
X137953027Y-85833015D01*
X137921521Y-85936879D01*
X137921519Y-85936882D01*
X137870357Y-86032600D01*
X137801501Y-86116501D01*
X137717600Y-86185356D01*
X137673807Y-86208764D01*
X137653437Y-86222375D01*
X137636110Y-86239702D01*
X137622496Y-86260076D01*
X137613119Y-86282715D01*
X137608338Y-86306748D01*
X137608338Y-86331252D01*
X137613118Y-86355286D01*
X137622495Y-86377924D01*
X137636109Y-86398299D01*
X137653436Y-86415626D01*
X137673810Y-86429240D01*
X137696449Y-86438617D01*
X137720482Y-86443398D01*
X137732735Y-86444000D01*
X137961000Y-86444000D01*
X137961000Y-87546000D01*
X136359000Y-87546000D01*
X136359000Y-86444000D01*
X136587265Y-86444000D01*
X136611651Y-86441598D01*
X136635100Y-86434485D01*
X136656711Y-86422934D01*
X136675653Y-86407389D01*
X136691198Y-86388447D01*
X136702749Y-86366836D01*
X136709862Y-86343387D01*
X136712264Y-86319001D01*
X136709862Y-86294615D01*
X136702749Y-86271166D01*
X136691198Y-86249555D01*
X136675653Y-86230613D01*
X136656711Y-86215068D01*
X136646198Y-86208767D01*
X136602400Y-86185356D01*
X136518499Y-86116501D01*
X136449643Y-86032600D01*
X136398481Y-85936882D01*
X136398479Y-85936879D01*
X136366973Y-85833015D01*
X136356334Y-85725000D01*
X136366973Y-85616985D01*
X136398479Y-85513121D01*
X136413005Y-85485945D01*
X136449643Y-85417400D01*
X136518499Y-85333499D01*
X136602400Y-85264643D01*
X136670945Y-85228005D01*
X136698121Y-85213479D01*
X136710869Y-85209612D01*
X136733496Y-85200240D01*
X136753870Y-85186626D01*
X136771197Y-85169299D01*
X136784811Y-85148925D01*
X136794188Y-85126286D01*
X136798969Y-85102253D01*
X136798969Y-85077749D01*
X136794189Y-85053715D01*
X136784812Y-85031076D01*
X136771198Y-85010702D01*
X136753871Y-84993375D01*
X136733497Y-84979761D01*
X136710869Y-84970388D01*
X136698121Y-84966521D01*
X136670945Y-84951995D01*
X136602400Y-84915357D01*
X136518499Y-84846501D01*
X136449643Y-84762600D01*
X136398481Y-84666882D01*
X136398479Y-84666879D01*
X136366973Y-84563015D01*
X136356334Y-84455000D01*
X136366973Y-84346985D01*
X136398479Y-84243121D01*
X136413005Y-84215945D01*
X136449643Y-84147400D01*
X136518499Y-84063499D01*
X136602400Y-83994643D01*
X136670945Y-83958005D01*
X136698121Y-83943479D01*
X136801985Y-83911973D01*
X136882933Y-83904000D01*
X137437067Y-83904000D01*
X137518015Y-83911973D01*
G37*
G36*
X142988512Y-82923927D02*
G01*
X143137812Y-82953624D01*
X143301784Y-83021544D01*
X143449354Y-83120147D01*
X143574853Y-83245646D01*
X143673456Y-83393216D01*
X143741376Y-83557188D01*
X143776000Y-83731259D01*
X143776000Y-83908741D01*
X143741376Y-84082812D01*
X143673456Y-84246784D01*
X143574853Y-84394354D01*
X143449354Y-84519853D01*
X143301784Y-84618456D01*
X143137812Y-84686376D01*
X142988512Y-84716073D01*
X142963742Y-84721000D01*
X142786258Y-84721000D01*
X142761488Y-84716073D01*
X142612188Y-84686376D01*
X142448216Y-84618456D01*
X142300646Y-84519853D01*
X142175147Y-84394354D01*
X142076544Y-84246784D01*
X142008624Y-84082812D01*
X141974000Y-83908741D01*
X141974000Y-83731259D01*
X142008624Y-83557188D01*
X142076544Y-83393216D01*
X142175147Y-83245646D01*
X142300646Y-83120147D01*
X142448216Y-83021544D01*
X142612188Y-82953624D01*
X142761488Y-82923927D01*
X142786258Y-82919000D01*
X142963742Y-82919000D01*
X142988512Y-82923927D01*
G37*
G36*
X129153228Y-83001703D02*
G01*
X129308100Y-83065853D01*
X129447481Y-83158985D01*
X129566015Y-83277519D01*
X129659147Y-83416900D01*
X129723297Y-83571772D01*
X129756000Y-83736184D01*
X129756000Y-83903816D01*
X129723297Y-84068228D01*
X129659147Y-84223100D01*
X129566015Y-84362481D01*
X129447481Y-84481015D01*
X129308100Y-84574147D01*
X129153228Y-84638297D01*
X128988816Y-84671000D01*
X128821184Y-84671000D01*
X128656772Y-84638297D01*
X128501900Y-84574147D01*
X128362519Y-84481015D01*
X128243985Y-84362481D01*
X128150853Y-84223100D01*
X128086703Y-84068228D01*
X128054000Y-83903816D01*
X128054000Y-83736184D01*
X128086703Y-83571772D01*
X128150853Y-83416900D01*
X128243985Y-83277519D01*
X128362519Y-83158985D01*
X128501900Y-83065853D01*
X128656772Y-83001703D01*
X128821184Y-82969000D01*
X128988816Y-82969000D01*
X129153228Y-83001703D01*
G37*
G36*
X124408228Y-82941703D02*
G01*
X124563100Y-83005853D01*
X124702481Y-83098985D01*
X124821015Y-83217519D01*
X124914147Y-83356900D01*
X124978297Y-83511772D01*
X125011000Y-83676184D01*
X125011000Y-83843816D01*
X124978297Y-84008228D01*
X124914147Y-84163100D01*
X124821015Y-84302481D01*
X124702481Y-84421015D01*
X124563100Y-84514147D01*
X124408228Y-84578297D01*
X124243816Y-84611000D01*
X124076184Y-84611000D01*
X123911772Y-84578297D01*
X123756900Y-84514147D01*
X123617519Y-84421015D01*
X123498985Y-84302481D01*
X123405853Y-84163100D01*
X123341703Y-84008228D01*
X123309000Y-83843816D01*
X123309000Y-83676184D01*
X123341703Y-83511772D01*
X123405853Y-83356900D01*
X123498985Y-83217519D01*
X123617519Y-83098985D01*
X123756900Y-83005853D01*
X123911772Y-82941703D01*
X124076184Y-82909000D01*
X124243816Y-82909000D01*
X124408228Y-82941703D01*
G37*
G36*
X114353228Y-82941703D02*
G01*
X114508100Y-83005853D01*
X114647481Y-83098985D01*
X114766015Y-83217519D01*
X114859147Y-83356900D01*
X114923297Y-83511772D01*
X114956000Y-83676184D01*
X114956000Y-83843816D01*
X114923297Y-84008228D01*
X114859147Y-84163100D01*
X114766015Y-84302481D01*
X114647481Y-84421015D01*
X114508100Y-84514147D01*
X114353228Y-84578297D01*
X114188816Y-84611000D01*
X114021184Y-84611000D01*
X113856772Y-84578297D01*
X113701900Y-84514147D01*
X113562519Y-84421015D01*
X113443985Y-84302481D01*
X113350853Y-84163100D01*
X113286703Y-84008228D01*
X113254000Y-83843816D01*
X113254000Y-83676184D01*
X113286703Y-83511772D01*
X113350853Y-83356900D01*
X113443985Y-83217519D01*
X113562519Y-83098985D01*
X113701900Y-83005853D01*
X113856772Y-82941703D01*
X114021184Y-82909000D01*
X114188816Y-82909000D01*
X114353228Y-82941703D01*
G37*
G36*
X106733228Y-82941703D02*
G01*
X106888100Y-83005853D01*
X107027481Y-83098985D01*
X107146015Y-83217519D01*
X107239147Y-83356900D01*
X107303297Y-83511772D01*
X107336000Y-83676184D01*
X107336000Y-83843816D01*
X107303297Y-84008228D01*
X107239147Y-84163100D01*
X107146015Y-84302481D01*
X107027481Y-84421015D01*
X106888100Y-84514147D01*
X106733228Y-84578297D01*
X106568816Y-84611000D01*
X106401184Y-84611000D01*
X106236772Y-84578297D01*
X106081900Y-84514147D01*
X105942519Y-84421015D01*
X105823985Y-84302481D01*
X105730853Y-84163100D01*
X105666703Y-84008228D01*
X105634000Y-83843816D01*
X105634000Y-83676184D01*
X105666703Y-83511772D01*
X105730853Y-83356900D01*
X105823985Y-83217519D01*
X105942519Y-83098985D01*
X106081900Y-83005853D01*
X106236772Y-82941703D01*
X106401184Y-82909000D01*
X106568816Y-82909000D01*
X106733228Y-82941703D01*
G37*
G36*
X119408228Y-82941703D02*
G01*
X119563100Y-83005853D01*
X119702481Y-83098985D01*
X119821015Y-83217519D01*
X119914147Y-83356900D01*
X119978297Y-83511772D01*
X120011000Y-83676184D01*
X120011000Y-83843816D01*
X119978297Y-84008228D01*
X119914147Y-84163100D01*
X119821015Y-84302481D01*
X119702481Y-84421015D01*
X119563100Y-84514147D01*
X119408228Y-84578297D01*
X119243816Y-84611000D01*
X119076184Y-84611000D01*
X118911772Y-84578297D01*
X118756900Y-84514147D01*
X118617519Y-84421015D01*
X118498985Y-84302481D01*
X118405853Y-84163100D01*
X118341703Y-84008228D01*
X118309000Y-83843816D01*
X118309000Y-83676184D01*
X118341703Y-83511772D01*
X118405853Y-83356900D01*
X118498985Y-83217519D01*
X118617519Y-83098985D01*
X118756900Y-83005853D01*
X118911772Y-82941703D01*
X119076184Y-82909000D01*
X119243816Y-82909000D01*
X119408228Y-82941703D01*
G37*
G36*
X143776000Y-82181000D02*
G01*
X141974000Y-82181000D01*
X141974000Y-80379000D01*
X143776000Y-80379000D01*
X143776000Y-82181000D01*
G37*
G36*
X101713512Y-79748927D02*
G01*
X101862812Y-79778624D01*
X102026784Y-79846544D01*
X102174354Y-79945147D01*
X102299853Y-80070646D01*
X102398456Y-80218216D01*
X102466376Y-80382188D01*
X102501000Y-80556259D01*
X102501000Y-80733741D01*
X102466376Y-80907812D01*
X102398456Y-81071784D01*
X102299853Y-81219354D01*
X102174354Y-81344853D01*
X102026784Y-81443456D01*
X101862812Y-81511376D01*
X101713512Y-81541073D01*
X101688742Y-81546000D01*
X101511258Y-81546000D01*
X101486488Y-81541073D01*
X101337188Y-81511376D01*
X101173216Y-81443456D01*
X101025646Y-81344853D01*
X100900147Y-81219354D01*
X100801544Y-81071784D01*
X100733624Y-80907812D01*
X100699000Y-80733741D01*
X100699000Y-80556259D01*
X100733624Y-80382188D01*
X100801544Y-80218216D01*
X100900147Y-80070646D01*
X101025646Y-79945147D01*
X101173216Y-79846544D01*
X101337188Y-79778624D01*
X101486488Y-79748927D01*
X101511258Y-79744000D01*
X101688742Y-79744000D01*
X101713512Y-79748927D01*
G37*
G36*
X137518015Y-76926973D02*
G01*
X137621879Y-76958479D01*
X137649055Y-76973005D01*
X137717600Y-77009643D01*
X137801501Y-77078499D01*
X137870357Y-77162400D01*
X137902091Y-77221771D01*
X137921521Y-77258121D01*
X137953027Y-77361985D01*
X137963666Y-77470000D01*
X137953027Y-77578015D01*
X137921521Y-77681879D01*
X137921519Y-77681882D01*
X137870357Y-77777600D01*
X137801501Y-77861501D01*
X137717600Y-77930357D01*
X137649055Y-77966995D01*
X137621879Y-77981521D01*
X137609131Y-77985388D01*
X137586504Y-77994760D01*
X137566130Y-78008374D01*
X137548803Y-78025701D01*
X137535189Y-78046075D01*
X137525812Y-78068714D01*
X137521031Y-78092747D01*
X137521031Y-78117251D01*
X137525811Y-78141285D01*
X137535188Y-78163924D01*
X137548802Y-78184298D01*
X137566129Y-78201625D01*
X137586503Y-78215239D01*
X137609131Y-78224612D01*
X137621879Y-78228479D01*
X137649055Y-78243005D01*
X137717600Y-78279643D01*
X137801501Y-78348499D01*
X137870357Y-78432400D01*
X137902091Y-78491771D01*
X137921521Y-78528121D01*
X137953027Y-78631985D01*
X137963666Y-78740000D01*
X137953027Y-78848015D01*
X137921521Y-78951879D01*
X137921519Y-78951882D01*
X137870357Y-79047600D01*
X137801501Y-79131501D01*
X137717600Y-79200356D01*
X137673807Y-79223764D01*
X137653437Y-79237375D01*
X137636110Y-79254702D01*
X137622496Y-79275076D01*
X137613119Y-79297715D01*
X137608338Y-79321748D01*
X137608338Y-79346252D01*
X137613118Y-79370286D01*
X137622495Y-79392924D01*
X137636109Y-79413299D01*
X137653436Y-79430626D01*
X137673810Y-79444240D01*
X137696449Y-79453617D01*
X137720482Y-79458398D01*
X137732735Y-79459000D01*
X137961000Y-79459000D01*
X137961000Y-80561000D01*
X136359000Y-80561000D01*
X136359000Y-79459000D01*
X136587265Y-79459000D01*
X136611651Y-79456598D01*
X136635100Y-79449485D01*
X136656711Y-79437934D01*
X136675653Y-79422389D01*
X136691198Y-79403447D01*
X136702749Y-79381836D01*
X136709862Y-79358387D01*
X136712264Y-79334001D01*
X136709862Y-79309615D01*
X136702749Y-79286166D01*
X136691198Y-79264555D01*
X136675653Y-79245613D01*
X136656711Y-79230068D01*
X136646198Y-79223767D01*
X136602400Y-79200356D01*
X136518499Y-79131501D01*
X136449643Y-79047600D01*
X136398481Y-78951882D01*
X136398479Y-78951879D01*
X136366973Y-78848015D01*
X136356334Y-78740000D01*
X136366973Y-78631985D01*
X136398479Y-78528121D01*
X136417909Y-78491771D01*
X136449643Y-78432400D01*
X136518499Y-78348499D01*
X136602400Y-78279643D01*
X136670945Y-78243005D01*
X136698121Y-78228479D01*
X136710869Y-78224612D01*
X136733496Y-78215240D01*
X136753870Y-78201626D01*
X136771197Y-78184299D01*
X136784811Y-78163925D01*
X136794188Y-78141286D01*
X136798969Y-78117253D01*
X136798969Y-78092749D01*
X136794189Y-78068715D01*
X136784812Y-78046076D01*
X136771198Y-78025702D01*
X136753871Y-78008375D01*
X136733497Y-77994761D01*
X136710869Y-77985388D01*
X136698121Y-77981521D01*
X136670945Y-77966995D01*
X136602400Y-77930357D01*
X136518499Y-77861501D01*
X136449643Y-77777600D01*
X136398481Y-77681882D01*
X136398479Y-77681879D01*
X136366973Y-77578015D01*
X136356334Y-77470000D01*
X136366973Y-77361985D01*
X136398479Y-77258121D01*
X136417909Y-77221771D01*
X136449643Y-77162400D01*
X136518499Y-77078499D01*
X136602400Y-77009643D01*
X136670945Y-76973005D01*
X136698121Y-76958479D01*
X136801985Y-76926973D01*
X136882933Y-76919000D01*
X137437067Y-76919000D01*
X137518015Y-76926973D01*
G37*
G36*
X114353228Y-77921703D02*
G01*
X114508100Y-77985853D01*
X114647481Y-78078985D01*
X114766015Y-78197519D01*
X114859147Y-78336900D01*
X114923297Y-78491772D01*
X114956000Y-78656184D01*
X114956000Y-78823816D01*
X114923297Y-78988228D01*
X114859147Y-79143100D01*
X114766015Y-79282481D01*
X114647481Y-79401015D01*
X114508100Y-79494147D01*
X114353228Y-79558297D01*
X114188816Y-79591000D01*
X114021184Y-79591000D01*
X113856772Y-79558297D01*
X113701900Y-79494147D01*
X113562519Y-79401015D01*
X113443985Y-79282481D01*
X113350853Y-79143100D01*
X113286703Y-78988228D01*
X113254000Y-78823816D01*
X113254000Y-78656184D01*
X113286703Y-78491772D01*
X113350853Y-78336900D01*
X113443985Y-78197519D01*
X113562519Y-78078985D01*
X113701900Y-77985853D01*
X113856772Y-77921703D01*
X114021184Y-77889000D01*
X114188816Y-77889000D01*
X114353228Y-77921703D01*
G37*
G36*
X106733228Y-77921703D02*
G01*
X106888100Y-77985853D01*
X107027481Y-78078985D01*
X107146015Y-78197519D01*
X107239147Y-78336900D01*
X107303297Y-78491772D01*
X107336000Y-78656184D01*
X107336000Y-78823816D01*
X107303297Y-78988228D01*
X107239147Y-79143100D01*
X107146015Y-79282481D01*
X107027481Y-79401015D01*
X106888100Y-79494147D01*
X106733228Y-79558297D01*
X106568816Y-79591000D01*
X106401184Y-79591000D01*
X106236772Y-79558297D01*
X106081900Y-79494147D01*
X105942519Y-79401015D01*
X105823985Y-79282481D01*
X105730853Y-79143100D01*
X105666703Y-78988228D01*
X105634000Y-78823816D01*
X105634000Y-78656184D01*
X105666703Y-78491772D01*
X105730853Y-78336900D01*
X105823985Y-78197519D01*
X105942519Y-78078985D01*
X106081900Y-77985853D01*
X106236772Y-77921703D01*
X106401184Y-77889000D01*
X106568816Y-77889000D01*
X106733228Y-77921703D01*
G37*
G36*
X101713512Y-77208927D02*
G01*
X101862812Y-77238624D01*
X102026784Y-77306544D01*
X102174354Y-77405147D01*
X102299853Y-77530646D01*
X102398456Y-77678216D01*
X102466376Y-77842188D01*
X102501000Y-78016259D01*
X102501000Y-78193741D01*
X102466376Y-78367812D01*
X102398456Y-78531784D01*
X102299853Y-78679354D01*
X102174354Y-78804853D01*
X102026784Y-78903456D01*
X101862812Y-78971376D01*
X101713512Y-79001073D01*
X101688742Y-79006000D01*
X101511258Y-79006000D01*
X101486488Y-79001073D01*
X101337188Y-78971376D01*
X101173216Y-78903456D01*
X101025646Y-78804853D01*
X100900147Y-78679354D01*
X100801544Y-78531784D01*
X100733624Y-78367812D01*
X100699000Y-78193741D01*
X100699000Y-78016259D01*
X100733624Y-77842188D01*
X100801544Y-77678216D01*
X100900147Y-77530646D01*
X101025646Y-77405147D01*
X101173216Y-77306544D01*
X101337188Y-77238624D01*
X101486488Y-77208927D01*
X101511258Y-77204000D01*
X101688742Y-77204000D01*
X101713512Y-77208927D01*
G37*
G36*
X118993228Y-76651703D02*
G01*
X119148100Y-76715853D01*
X119287481Y-76808985D01*
X119406015Y-76927519D01*
X119499147Y-77066900D01*
X119563297Y-77221772D01*
X119596000Y-77386184D01*
X119596000Y-77553816D01*
X119563297Y-77718228D01*
X119499147Y-77873100D01*
X119406015Y-78012481D01*
X119287481Y-78131015D01*
X119148100Y-78224147D01*
X118993228Y-78288297D01*
X118828816Y-78321000D01*
X118661184Y-78321000D01*
X118496772Y-78288297D01*
X118341900Y-78224147D01*
X118202519Y-78131015D01*
X118083985Y-78012481D01*
X117990853Y-77873100D01*
X117926703Y-77718228D01*
X117894000Y-77553816D01*
X117894000Y-77386184D01*
X117926703Y-77221772D01*
X117990853Y-77066900D01*
X118083985Y-76927519D01*
X118202519Y-76808985D01*
X118341900Y-76715853D01*
X118496772Y-76651703D01*
X118661184Y-76619000D01*
X118828816Y-76619000D01*
X118993228Y-76651703D01*
G37*
G36*
X131058228Y-75381703D02*
G01*
X131213100Y-75445853D01*
X131352481Y-75538985D01*
X131471015Y-75657519D01*
X131564147Y-75796900D01*
X131628297Y-75951772D01*
X131661000Y-76116184D01*
X131661000Y-76283816D01*
X131628297Y-76448228D01*
X131564147Y-76603100D01*
X131471015Y-76742481D01*
X131352481Y-76861015D01*
X131213100Y-76954147D01*
X131058228Y-77018297D01*
X130893816Y-77051000D01*
X130726184Y-77051000D01*
X130561772Y-77018297D01*
X130406900Y-76954147D01*
X130267519Y-76861015D01*
X130148985Y-76742481D01*
X130055853Y-76603100D01*
X129991703Y-76448228D01*
X129959000Y-76283816D01*
X129959000Y-76116184D01*
X129991703Y-75951772D01*
X130055853Y-75796900D01*
X130148985Y-75657519D01*
X130267519Y-75538985D01*
X130406900Y-75445853D01*
X130561772Y-75381703D01*
X130726184Y-75349000D01*
X130893816Y-75349000D01*
X131058228Y-75381703D01*
G37*
G36*
X123438228Y-75381703D02*
G01*
X123593100Y-75445853D01*
X123732481Y-75538985D01*
X123851015Y-75657519D01*
X123944147Y-75796900D01*
X124008297Y-75951772D01*
X124041000Y-76116184D01*
X124041000Y-76283816D01*
X124008297Y-76448228D01*
X123944147Y-76603100D01*
X123851015Y-76742481D01*
X123732481Y-76861015D01*
X123593100Y-76954147D01*
X123438228Y-77018297D01*
X123273816Y-77051000D01*
X123106184Y-77051000D01*
X122941772Y-77018297D01*
X122786900Y-76954147D01*
X122647519Y-76861015D01*
X122528985Y-76742481D01*
X122435853Y-76603100D01*
X122371703Y-76448228D01*
X122339000Y-76283816D01*
X122339000Y-76116184D01*
X122371703Y-75951772D01*
X122435853Y-75796900D01*
X122528985Y-75657519D01*
X122647519Y-75538985D01*
X122786900Y-75445853D01*
X122941772Y-75381703D01*
X123106184Y-75349000D01*
X123273816Y-75349000D01*
X123438228Y-75381703D01*
G37*
G36*
X102501000Y-76466000D02*
G01*
X100699000Y-76466000D01*
X100699000Y-74664000D01*
X102501000Y-74664000D01*
X102501000Y-76466000D01*
G37*
G36*
X142988512Y-74033927D02*
G01*
X143137812Y-74063624D01*
X143301784Y-74131544D01*
X143449354Y-74230147D01*
X143574853Y-74355646D01*
X143673456Y-74503216D01*
X143741376Y-74667188D01*
X143776000Y-74841259D01*
X143776000Y-75018741D01*
X143741376Y-75192812D01*
X143673456Y-75356784D01*
X143574853Y-75504354D01*
X143449354Y-75629853D01*
X143301784Y-75728456D01*
X143137812Y-75796376D01*
X142988512Y-75826073D01*
X142963742Y-75831000D01*
X142786258Y-75831000D01*
X142761488Y-75826073D01*
X142612188Y-75796376D01*
X142448216Y-75728456D01*
X142300646Y-75629853D01*
X142175147Y-75504354D01*
X142076544Y-75356784D01*
X142008624Y-75192812D01*
X141974000Y-75018741D01*
X141974000Y-74841259D01*
X142008624Y-74667188D01*
X142076544Y-74503216D01*
X142175147Y-74355646D01*
X142300646Y-74230147D01*
X142448216Y-74131544D01*
X142612188Y-74063624D01*
X142761488Y-74033927D01*
X142786258Y-74029000D01*
X142963742Y-74029000D01*
X142988512Y-74033927D01*
G37*
G36*
X110599183Y-72260613D02*
G01*
X110714893Y-72283629D01*
X110855206Y-72341748D01*
X110981484Y-72426125D01*
X111088875Y-72533516D01*
X111173252Y-72659794D01*
X111231371Y-72800107D01*
X111261000Y-72949063D01*
X111261000Y-73100937D01*
X111231371Y-73249893D01*
X111173252Y-73390206D01*
X111088875Y-73516484D01*
X110981484Y-73623875D01*
X110855206Y-73708252D01*
X110714893Y-73766371D01*
X110615589Y-73786124D01*
X110565938Y-73796000D01*
X110414062Y-73796000D01*
X110364411Y-73786124D01*
X110265107Y-73766371D01*
X110124794Y-73708252D01*
X109998516Y-73623875D01*
X109891125Y-73516484D01*
X109806748Y-73390206D01*
X109748629Y-73249893D01*
X109719000Y-73100937D01*
X109719000Y-72949063D01*
X109748629Y-72800107D01*
X109806748Y-72659794D01*
X109891125Y-72533516D01*
X109998516Y-72426125D01*
X110124794Y-72341748D01*
X110265107Y-72283629D01*
X110380817Y-72260613D01*
X110414062Y-72254000D01*
X110565938Y-72254000D01*
X110599183Y-72260613D01*
G37*
G36*
X137518015Y-69941973D02*
G01*
X137621879Y-69973479D01*
X137649055Y-69988005D01*
X137717600Y-70024643D01*
X137801501Y-70093499D01*
X137870357Y-70177400D01*
X137906995Y-70245945D01*
X137921521Y-70273121D01*
X137953027Y-70376985D01*
X137963666Y-70485000D01*
X137953027Y-70593015D01*
X137921521Y-70696879D01*
X137921519Y-70696882D01*
X137870357Y-70792600D01*
X137801501Y-70876501D01*
X137717600Y-70945357D01*
X137659367Y-70976483D01*
X137621879Y-70996521D01*
X137609131Y-71000388D01*
X137586504Y-71009760D01*
X137566130Y-71023374D01*
X137548803Y-71040701D01*
X137535189Y-71061075D01*
X137525812Y-71083714D01*
X137521031Y-71107747D01*
X137521031Y-71132251D01*
X137525811Y-71156285D01*
X137535188Y-71178924D01*
X137548802Y-71199298D01*
X137566129Y-71216625D01*
X137586503Y-71230239D01*
X137609131Y-71239612D01*
X137621879Y-71243479D01*
X137645304Y-71256000D01*
X137717600Y-71294643D01*
X137801501Y-71363499D01*
X137870357Y-71447400D01*
X137906995Y-71515945D01*
X137921521Y-71543121D01*
X137953027Y-71646985D01*
X137963666Y-71755000D01*
X137953027Y-71863015D01*
X137921521Y-71966879D01*
X137921519Y-71966882D01*
X137870357Y-72062600D01*
X137815743Y-72129147D01*
X137801501Y-72146501D01*
X137717600Y-72215356D01*
X137673807Y-72238764D01*
X137653437Y-72252375D01*
X137636110Y-72269702D01*
X137622496Y-72290076D01*
X137613119Y-72312715D01*
X137608338Y-72336748D01*
X137608338Y-72361252D01*
X137613118Y-72385286D01*
X137622495Y-72407924D01*
X137636109Y-72428299D01*
X137653436Y-72445626D01*
X137673810Y-72459240D01*
X137696449Y-72468617D01*
X137720482Y-72473398D01*
X137732735Y-72474000D01*
X137961000Y-72474000D01*
X137961000Y-73576000D01*
X136359000Y-73576000D01*
X136359000Y-72474000D01*
X136587265Y-72474000D01*
X136611651Y-72471598D01*
X136635100Y-72464485D01*
X136656711Y-72452934D01*
X136675653Y-72437389D01*
X136691198Y-72418447D01*
X136702749Y-72396836D01*
X136709862Y-72373387D01*
X136712264Y-72349001D01*
X136709862Y-72324615D01*
X136702749Y-72301166D01*
X136691198Y-72279555D01*
X136675653Y-72260613D01*
X136656711Y-72245068D01*
X136646198Y-72238767D01*
X136602400Y-72215356D01*
X136518499Y-72146501D01*
X136504257Y-72129147D01*
X136449643Y-72062600D01*
X136398481Y-71966882D01*
X136398479Y-71966879D01*
X136366973Y-71863015D01*
X136356334Y-71755000D01*
X136366973Y-71646985D01*
X136398479Y-71543121D01*
X136413005Y-71515945D01*
X136449643Y-71447400D01*
X136518499Y-71363499D01*
X136602400Y-71294643D01*
X136674696Y-71256000D01*
X136698121Y-71243479D01*
X136710869Y-71239612D01*
X136733496Y-71230240D01*
X136753870Y-71216626D01*
X136771197Y-71199299D01*
X136784811Y-71178925D01*
X136794188Y-71156286D01*
X136798969Y-71132253D01*
X136798969Y-71107749D01*
X136794189Y-71083715D01*
X136784812Y-71061076D01*
X136771198Y-71040702D01*
X136753871Y-71023375D01*
X136733497Y-71009761D01*
X136710869Y-71000388D01*
X136698121Y-70996521D01*
X136660633Y-70976483D01*
X136602400Y-70945357D01*
X136518499Y-70876501D01*
X136449643Y-70792600D01*
X136398481Y-70696882D01*
X136398479Y-70696879D01*
X136366973Y-70593015D01*
X136356334Y-70485000D01*
X136366973Y-70376985D01*
X136398479Y-70273121D01*
X136413005Y-70245945D01*
X136449643Y-70177400D01*
X136518499Y-70093499D01*
X136602400Y-70024643D01*
X136670945Y-69988005D01*
X136698121Y-69973479D01*
X136801985Y-69941973D01*
X136882933Y-69934000D01*
X137437067Y-69934000D01*
X137518015Y-69941973D01*
G37*
G36*
X143776000Y-73291000D02*
G01*
X141974000Y-73291000D01*
X141974000Y-71489000D01*
X143776000Y-71489000D01*
X143776000Y-73291000D01*
G37*
G36*
X131058228Y-70556703D02*
G01*
X131213100Y-70620853D01*
X131352481Y-70713985D01*
X131471015Y-70832519D01*
X131564147Y-70971900D01*
X131628297Y-71126772D01*
X131661000Y-71291184D01*
X131661000Y-71458816D01*
X131628297Y-71623228D01*
X131564147Y-71778100D01*
X131471015Y-71917481D01*
X131352481Y-72036015D01*
X131213100Y-72129147D01*
X131058228Y-72193297D01*
X130893816Y-72226000D01*
X130726184Y-72226000D01*
X130561772Y-72193297D01*
X130406900Y-72129147D01*
X130267519Y-72036015D01*
X130148985Y-71917481D01*
X130055853Y-71778100D01*
X129991703Y-71623228D01*
X129959000Y-71458816D01*
X129959000Y-71291184D01*
X129991703Y-71126772D01*
X130055853Y-70971900D01*
X130148985Y-70832519D01*
X130267519Y-70713985D01*
X130406900Y-70620853D01*
X130561772Y-70556703D01*
X130726184Y-70524000D01*
X130893816Y-70524000D01*
X131058228Y-70556703D01*
G37*
G36*
X123438228Y-70556703D02*
G01*
X123593100Y-70620853D01*
X123732481Y-70713985D01*
X123851015Y-70832519D01*
X123944147Y-70971900D01*
X124008297Y-71126772D01*
X124041000Y-71291184D01*
X124041000Y-71458816D01*
X124008297Y-71623228D01*
X123944147Y-71778100D01*
X123851015Y-71917481D01*
X123732481Y-72036015D01*
X123593100Y-72129147D01*
X123438228Y-72193297D01*
X123273816Y-72226000D01*
X123106184Y-72226000D01*
X122941772Y-72193297D01*
X122786900Y-72129147D01*
X122647519Y-72036015D01*
X122528985Y-71917481D01*
X122435853Y-71778100D01*
X122371703Y-71623228D01*
X122339000Y-71458816D01*
X122339000Y-71291184D01*
X122371703Y-71126772D01*
X122435853Y-70971900D01*
X122528985Y-70832519D01*
X122647519Y-70713985D01*
X122786900Y-70620853D01*
X122941772Y-70556703D01*
X123106184Y-70524000D01*
X123273816Y-70524000D01*
X123438228Y-70556703D01*
G37*
G36*
X113155589Y-69723876D02*
G01*
X113254893Y-69743629D01*
X113395206Y-69801748D01*
X113521484Y-69886125D01*
X113628875Y-69993516D01*
X113713252Y-70119794D01*
X113771371Y-70260107D01*
X113791124Y-70359411D01*
X113797702Y-70392480D01*
X113801000Y-70409063D01*
X113801000Y-70560937D01*
X113771371Y-70709893D01*
X113713252Y-70850206D01*
X113628875Y-70976484D01*
X113521484Y-71083875D01*
X113395206Y-71168252D01*
X113254893Y-71226371D01*
X113155589Y-71246124D01*
X113105938Y-71256000D01*
X112954062Y-71256000D01*
X112904411Y-71246124D01*
X112805107Y-71226371D01*
X112664794Y-71168252D01*
X112538516Y-71083875D01*
X112431125Y-70976484D01*
X112346748Y-70850206D01*
X112288629Y-70709893D01*
X112259000Y-70560937D01*
X112259000Y-70409063D01*
X112262299Y-70392480D01*
X112268876Y-70359411D01*
X112288629Y-70260107D01*
X112346748Y-70119794D01*
X112431125Y-69993516D01*
X112538516Y-69886125D01*
X112664794Y-69801748D01*
X112805107Y-69743629D01*
X112904411Y-69723876D01*
X112954062Y-69714000D01*
X113105938Y-69714000D01*
X113155589Y-69723876D01*
G37*
G36*
X108075589Y-69723876D02*
G01*
X108174893Y-69743629D01*
X108315206Y-69801748D01*
X108441484Y-69886125D01*
X108548875Y-69993516D01*
X108633252Y-70119794D01*
X108691371Y-70260107D01*
X108711124Y-70359411D01*
X108717702Y-70392480D01*
X108721000Y-70409063D01*
X108721000Y-70560937D01*
X108691371Y-70709893D01*
X108633252Y-70850206D01*
X108548875Y-70976484D01*
X108441484Y-71083875D01*
X108315206Y-71168252D01*
X108174893Y-71226371D01*
X108075589Y-71246124D01*
X108025938Y-71256000D01*
X107874062Y-71256000D01*
X107824411Y-71246124D01*
X107725107Y-71226371D01*
X107584794Y-71168252D01*
X107458516Y-71083875D01*
X107351125Y-70976484D01*
X107266748Y-70850206D01*
X107208629Y-70709893D01*
X107179000Y-70560937D01*
X107179000Y-70409063D01*
X107182299Y-70392480D01*
X107188876Y-70359411D01*
X107208629Y-70260107D01*
X107266748Y-70119794D01*
X107351125Y-69993516D01*
X107458516Y-69886125D01*
X107584794Y-69801748D01*
X107725107Y-69743629D01*
X107824411Y-69723876D01*
X107874062Y-69714000D01*
X108025938Y-69714000D01*
X108075589Y-69723876D01*
G37*
G36*
X118993228Y-69031703D02*
G01*
X119148100Y-69095853D01*
X119287481Y-69188985D01*
X119406015Y-69307519D01*
X119499147Y-69446900D01*
X119563297Y-69601772D01*
X119596000Y-69766184D01*
X119596000Y-69933816D01*
X119563297Y-70098228D01*
X119499147Y-70253100D01*
X119406015Y-70392481D01*
X119287481Y-70511015D01*
X119148100Y-70604147D01*
X118993228Y-70668297D01*
X118828816Y-70701000D01*
X118661184Y-70701000D01*
X118496772Y-70668297D01*
X118341900Y-70604147D01*
X118202519Y-70511015D01*
X118083985Y-70392481D01*
X117990853Y-70253100D01*
X117926703Y-70098228D01*
X117894000Y-69933816D01*
X117894000Y-69766184D01*
X117926703Y-69601772D01*
X117990853Y-69446900D01*
X118083985Y-69307519D01*
X118202519Y-69188985D01*
X118341900Y-69095853D01*
X118496772Y-69031703D01*
X118661184Y-68999000D01*
X118828816Y-68999000D01*
X118993228Y-69031703D01*
G37*
M02*
