G04 #@! TF.GenerationSoftware,KiCad,Pcbnew,(5.1.5)-3*
G04 #@! TF.CreationDate,2020-01-27T21:13:04-05:00*
G04 #@! TF.ProjectId,power,706f7765-722e-46b6-9963-61645f706362,v01*
G04 #@! TF.SameCoordinates,Original*
G04 #@! TF.FileFunction,Copper,L2,Bot*
G04 #@! TF.FilePolarity,Positive*
%FSLAX46Y46*%
G04 Gerber Fmt 4.6, Leading zero omitted, Abs format (unit mm)*
G04 Created by KiCad (PCBNEW (5.1.5)-3) date 2020-01-27 21:13:04*
%MOMM*%
%LPD*%
G04 APERTURE LIST*
%ADD10R,2.000000X2.000000*%
%ADD11C,2.000000*%
%ADD12R,2.400000X2.400000*%
%ADD13C,2.400000*%
%ADD14C,1.600000*%
%ADD15O,2.200000X2.200000*%
%ADD16R,2.200000X2.200000*%
%ADD17R,1.700000X1.700000*%
%ADD18O,1.700000X1.700000*%
%ADD19R,1.500000X1.000000*%
%ADD20O,1.500000X1.000000*%
%ADD21O,1.600000X1.600000*%
%ADD22C,2.100000*%
%ADD23C,0.250000*%
G04 APERTURE END LIST*
D10*
X106045000Y-48895000D03*
D11*
X109845000Y-48895000D03*
X109845000Y-75565000D03*
D10*
X106045000Y-75565000D03*
X106045000Y-62230000D03*
D11*
X109845000Y-62230000D03*
D12*
X89535000Y-87630000D03*
D13*
X94535000Y-87630000D03*
D14*
X154940000Y-59770000D03*
X154940000Y-64770000D03*
D11*
X109845000Y-88900000D03*
D10*
X106045000Y-88900000D03*
D14*
X154940000Y-75565000D03*
X154940000Y-70565000D03*
D12*
X89535000Y-50455000D03*
D13*
X94535000Y-50455000D03*
X94535000Y-69850000D03*
D12*
X89535000Y-69850000D03*
D15*
X131445000Y-76835000D03*
D16*
X121285000Y-76835000D03*
X121285000Y-71755000D03*
D15*
X131445000Y-71755000D03*
D16*
X121285000Y-66675000D03*
D15*
X131445000Y-66675000D03*
X131445000Y-51435000D03*
D16*
X121285000Y-51435000D03*
D15*
X131445000Y-92075000D03*
D16*
X121285000Y-92075000D03*
X121285000Y-86995000D03*
D15*
X131445000Y-86995000D03*
X131445000Y-46355000D03*
D16*
X121285000Y-46355000D03*
X121285000Y-61595000D03*
D15*
X131445000Y-61595000D03*
D16*
X121285000Y-56515000D03*
D15*
X131445000Y-56515000D03*
X131445000Y-81915000D03*
D16*
X121285000Y-81915000D03*
D17*
X78740000Y-46355000D03*
D18*
X78740000Y-48895000D03*
D17*
X162560000Y-46355000D03*
D18*
X162560000Y-48895000D03*
X162560000Y-51435000D03*
X162560000Y-64135000D03*
X162560000Y-61595000D03*
D17*
X162560000Y-59055000D03*
X162560000Y-73025000D03*
D18*
X162560000Y-75565000D03*
X162560000Y-78105000D03*
D17*
X162560000Y-86995000D03*
D18*
X162560000Y-89535000D03*
X162560000Y-92075000D03*
D17*
X78740000Y-67310000D03*
D18*
X78740000Y-69850000D03*
X78740000Y-72390000D03*
X78740000Y-74930000D03*
X78740000Y-77470000D03*
X78740000Y-80010000D03*
X78740000Y-60325000D03*
X78740000Y-57785000D03*
D17*
X78740000Y-55245000D03*
D19*
X154940000Y-83820000D03*
D20*
X154940000Y-81280000D03*
X154940000Y-82550000D03*
X154940000Y-90805000D03*
X154940000Y-89535000D03*
D19*
X154940000Y-92075000D03*
D21*
X147320000Y-57150000D03*
D14*
X139700000Y-57150000D03*
X139700000Y-87630000D03*
D21*
X147320000Y-87630000D03*
D14*
X139700000Y-67310000D03*
D21*
X147320000Y-67310000D03*
X147320000Y-92710000D03*
D14*
X139700000Y-92710000D03*
D21*
X147320000Y-62230000D03*
D14*
X139700000Y-62230000D03*
D21*
X147320000Y-77470000D03*
D14*
X139700000Y-77470000D03*
X139700000Y-82550000D03*
D21*
X147320000Y-82550000D03*
D14*
X139700000Y-72390000D03*
D21*
X147320000Y-72390000D03*
D17*
X154940000Y-46355000D03*
D18*
X154940000Y-48895000D03*
X154940000Y-51435000D03*
X154940000Y-53975000D03*
D22*
X148265000Y-51435000D03*
X139065000Y-51435000D03*
X139065000Y-46355000D03*
X148265000Y-46355000D03*
D23*
X148265000Y-46355000D02*
X142575100Y-52044900D01*
X142575100Y-52044900D02*
X142575100Y-61635200D01*
X142575100Y-61635200D02*
X134659400Y-69550900D01*
X134659400Y-69550900D02*
X131628500Y-69550900D01*
X131628500Y-69550900D02*
X130019600Y-71159800D01*
X130019600Y-71159800D02*
X130019600Y-72852600D01*
X130019600Y-72852600D02*
X132910300Y-75743300D01*
X132910300Y-75743300D02*
X132910300Y-77438400D01*
X132910300Y-77438400D02*
X132038100Y-78310600D01*
X132038100Y-78310600D02*
X112590600Y-78310600D01*
X112590600Y-78310600D02*
X109845000Y-75565000D01*
X147320000Y-67310000D02*
X148445300Y-67310000D01*
X154940000Y-70565000D02*
X156070500Y-69434500D01*
X156070500Y-69434500D02*
X156070500Y-64288900D01*
X156070500Y-64288900D02*
X155370400Y-63588800D01*
X155370400Y-63588800D02*
X152166500Y-63588800D01*
X152166500Y-63588800D02*
X148445300Y-67310000D01*
X131445000Y-80489700D02*
X133360600Y-78574100D01*
X133360600Y-78574100D02*
X133360600Y-75095900D01*
X133360600Y-75095900D02*
X131445000Y-73180300D01*
X78740000Y-72390000D02*
X78740000Y-71214700D01*
X78740000Y-60325000D02*
X78740000Y-61500300D01*
X78740000Y-61500300D02*
X77564700Y-62675600D01*
X77564700Y-62675600D02*
X77564700Y-70406800D01*
X77564700Y-70406800D02*
X78372600Y-71214700D01*
X78372600Y-71214700D02*
X78740000Y-71214700D01*
X78740000Y-57785000D02*
X78740000Y-60325000D01*
X78740000Y-55245000D02*
X78740000Y-57785000D01*
X131445000Y-51435000D02*
X131445000Y-55089700D01*
X131445000Y-56515000D02*
X131445000Y-55089700D01*
X122710300Y-46355000D02*
X127790300Y-51435000D01*
X127790300Y-51435000D02*
X131445000Y-51435000D01*
X94535000Y-75565000D02*
X94535000Y-69850000D01*
X89535000Y-86104700D02*
X94535000Y-81104700D01*
X94535000Y-81104700D02*
X94535000Y-75565000D01*
X94535000Y-75565000D02*
X104719700Y-75565000D01*
X106045000Y-75565000D02*
X104719700Y-75565000D01*
X89535000Y-87630000D02*
X89535000Y-86104700D01*
X121285000Y-46355000D02*
X122710300Y-46355000D01*
X131445000Y-81915000D02*
X131445000Y-80489700D01*
X131445000Y-71755000D02*
X131445000Y-73180300D01*
X131445000Y-81915000D02*
X130019700Y-81915000D01*
X121285000Y-86995000D02*
X124939700Y-86995000D01*
X124939700Y-86995000D02*
X130019700Y-81915000D01*
X162560000Y-78105000D02*
X162560000Y-79280300D01*
X162560000Y-92075000D02*
X162560000Y-90899700D01*
X162560000Y-90899700D02*
X162927300Y-90899700D01*
X162927300Y-90899700D02*
X163735300Y-90091700D01*
X163735300Y-90091700D02*
X163735300Y-80455600D01*
X163735300Y-80455600D02*
X162560000Y-79280300D01*
X147320000Y-91584700D02*
X146194700Y-90459400D01*
X146194700Y-90459400D02*
X146194700Y-86853300D01*
X146194700Y-86853300D02*
X156520900Y-76527100D01*
X156520900Y-76527100D02*
X156520900Y-64102400D01*
X156520900Y-64102400D02*
X154648500Y-62230000D01*
X154648500Y-62230000D02*
X147320000Y-62230000D01*
X147320000Y-92710000D02*
X147320000Y-91584700D01*
X121285000Y-51435000D02*
X121285000Y-52860300D01*
X131445000Y-61595000D02*
X130019700Y-61595000D01*
X130019700Y-61595000D02*
X121285000Y-52860300D01*
X147320000Y-72390000D02*
X147320000Y-73515300D01*
X139700000Y-87630000D02*
X143878400Y-87630000D01*
X143878400Y-87630000D02*
X148445300Y-83063100D01*
X148445300Y-83063100D02*
X148445300Y-74640600D01*
X148445300Y-74640600D02*
X147320000Y-73515300D01*
X147320000Y-72390000D02*
X148445300Y-72390000D01*
X148445300Y-72390000D02*
X148445300Y-71264700D01*
X148445300Y-71264700D02*
X154940000Y-64770000D01*
X139700000Y-67310000D02*
X145172900Y-61837100D01*
X145172900Y-61837100D02*
X145172900Y-57689700D01*
X145172900Y-57689700D02*
X152792300Y-50070300D01*
X152792300Y-50070300D02*
X160209400Y-50070300D01*
X160209400Y-50070300D02*
X161384700Y-48895000D01*
X139700000Y-67310000D02*
X138402900Y-68607100D01*
X138402900Y-68607100D02*
X138402900Y-78611800D01*
X138402900Y-78611800D02*
X131445000Y-85569700D01*
X162560000Y-48895000D02*
X161384700Y-48895000D01*
X131445000Y-86995000D02*
X131445000Y-85569700D01*
X147320000Y-77470000D02*
X147320000Y-76344700D01*
X147320000Y-76344700D02*
X146194700Y-75219400D01*
X146194700Y-75219400D02*
X146194700Y-59400600D01*
X146194700Y-59400600D02*
X147320000Y-58275300D01*
X147320000Y-82550000D02*
X147320000Y-77470000D01*
X147320000Y-57150000D02*
X147320000Y-58275300D01*
X147320000Y-82550000D02*
X146194700Y-82550000D01*
X146194700Y-82550000D02*
X145069400Y-83675300D01*
X145069400Y-83675300D02*
X137828900Y-83675300D01*
X137828900Y-83675300D02*
X129429200Y-92075000D01*
X129429200Y-92075000D02*
X121285000Y-92075000D01*
X78740000Y-69850000D02*
X78740000Y-68674700D01*
X94535000Y-50455000D02*
X94535000Y-53687700D01*
X94535000Y-53687700D02*
X79548000Y-68674700D01*
X79548000Y-68674700D02*
X78740000Y-68674700D01*
X162560000Y-61595000D02*
X162560000Y-62770300D01*
X162560000Y-75565000D02*
X162560000Y-74389700D01*
X162560000Y-74389700D02*
X163368000Y-74389700D01*
X163368000Y-74389700D02*
X163735300Y-74022400D01*
X163735300Y-74022400D02*
X163735300Y-63578200D01*
X163735300Y-63578200D02*
X162927400Y-62770300D01*
X162927400Y-62770300D02*
X162560000Y-62770300D01*
X162560000Y-73025000D02*
X161384700Y-74200300D01*
X161384700Y-74200300D02*
X161384700Y-86995000D01*
X162560000Y-86995000D02*
X161384700Y-86995000D01*
X154940000Y-92075000D02*
X156304700Y-92075000D01*
X156304700Y-92075000D02*
X161384700Y-86995000D01*
X162560000Y-46355000D02*
X162560000Y-47530300D01*
X162560000Y-59055000D02*
X162560000Y-57879700D01*
X162560000Y-57879700D02*
X163735300Y-56704400D01*
X163735300Y-56704400D02*
X163735300Y-48338200D01*
X163735300Y-48338200D02*
X162927400Y-47530300D01*
X162927400Y-47530300D02*
X162560000Y-47530300D01*
X122710300Y-71755000D02*
X127790300Y-76835000D01*
X127790300Y-76835000D02*
X131445000Y-76835000D01*
X121285000Y-71755000D02*
X122710300Y-71755000D01*
X121285000Y-76835000D02*
X121285000Y-75409700D01*
X126078900Y-63362900D02*
X126078900Y-64548500D01*
X126078900Y-64548500D02*
X121526900Y-69100500D01*
X121526900Y-69100500D02*
X121214200Y-69100500D01*
X121214200Y-69100500D02*
X119859700Y-70455000D01*
X119859700Y-70455000D02*
X119859700Y-73984400D01*
X119859700Y-73984400D02*
X121285000Y-75409700D01*
X126078900Y-63362900D02*
X121771000Y-59055000D01*
X121771000Y-59055000D02*
X120005000Y-59055000D01*
X120005000Y-59055000D02*
X109845000Y-48895000D01*
X139700000Y-57150000D02*
X140845100Y-58295100D01*
X140845100Y-58295100D02*
X140845100Y-62726800D01*
X140845100Y-62726800D02*
X140209000Y-63362900D01*
X140209000Y-63362900D02*
X126078900Y-63362900D01*
X131445000Y-46355000D02*
X131445000Y-47780300D01*
X131445000Y-47780300D02*
X132870300Y-49205600D01*
X132870300Y-49205600D02*
X132870300Y-55400300D01*
X132870300Y-55400300D02*
X139700000Y-62230000D01*
X121285000Y-61595000D02*
X119859700Y-61595000D01*
X78740000Y-80010000D02*
X82307100Y-80010000D01*
X82307100Y-80010000D02*
X92415800Y-69901300D01*
X92415800Y-69901300D02*
X92415800Y-69734000D01*
X92415800Y-69734000D02*
X101273100Y-60876700D01*
X101273100Y-60876700D02*
X119141400Y-60876700D01*
X119141400Y-60876700D02*
X119859700Y-61595000D01*
X78740000Y-48895000D02*
X79915300Y-48895000D01*
X154940000Y-46355000D02*
X153764700Y-46355000D01*
X153764700Y-46355000D02*
X152339300Y-44929600D01*
X152339300Y-44929600D02*
X83880700Y-44929600D01*
X83880700Y-44929600D02*
X79915300Y-48895000D01*
X154940000Y-81280000D02*
X153864700Y-81280000D01*
X139700000Y-92710000D02*
X140839200Y-93849200D01*
X140839200Y-93849200D02*
X147849900Y-93849200D01*
X147849900Y-93849200D02*
X153864700Y-87834400D01*
X153864700Y-87834400D02*
X153864700Y-81280000D01*
X112597400Y-67457100D02*
X107370300Y-62230000D01*
X131445000Y-92075000D02*
X130019600Y-93500400D01*
X130019600Y-93500400D02*
X119992200Y-93500400D01*
X119992200Y-93500400D02*
X108470300Y-81978500D01*
X108470300Y-81978500D02*
X108470300Y-71584200D01*
X108470300Y-71584200D02*
X112597400Y-67457100D01*
X121285000Y-66675000D02*
X113379500Y-66675000D01*
X113379500Y-66675000D02*
X112597400Y-67457100D01*
X147320000Y-86504700D02*
X156971200Y-76853500D01*
X156971200Y-76853500D02*
X156971200Y-57181500D01*
X156971200Y-57181500D02*
X154940000Y-55150300D01*
X147320000Y-87630000D02*
X147320000Y-86504700D01*
X154940000Y-53975000D02*
X154940000Y-55150300D01*
X106045000Y-62230000D02*
X107370300Y-62230000D01*
M02*
