G04 #@! TF.GenerationSoftware,KiCad,Pcbnew,(5.1.5)-3*
G04 #@! TF.CreationDate,2020-01-27T21:13:04-05:00*
G04 #@! TF.ProjectId,power,706f7765-722e-46b6-9963-61645f706362,v01*
G04 #@! TF.SameCoordinates,Original*
G04 #@! TF.FileFunction,Copper,L1,Top*
G04 #@! TF.FilePolarity,Positive*
%FSLAX46Y46*%
G04 Gerber Fmt 4.6, Leading zero omitted, Abs format (unit mm)*
G04 Created by KiCad (PCBNEW (5.1.5)-3) date 2020-01-27 21:13:04*
%MOMM*%
%LPD*%
G04 APERTURE LIST*
%ADD10R,2.000000X2.000000*%
%ADD11C,2.000000*%
%ADD12R,2.400000X2.400000*%
%ADD13C,2.400000*%
%ADD14C,1.600000*%
%ADD15O,2.200000X2.200000*%
%ADD16R,2.200000X2.200000*%
%ADD17R,1.700000X1.700000*%
%ADD18O,1.700000X1.700000*%
%ADD19R,1.500000X1.000000*%
%ADD20O,1.500000X1.000000*%
%ADD21O,1.600000X1.600000*%
%ADD22C,2.100000*%
%ADD23C,0.250000*%
G04 APERTURE END LIST*
D10*
X106045000Y-48895000D03*
D11*
X109845000Y-48895000D03*
X109845000Y-75565000D03*
D10*
X106045000Y-75565000D03*
X106045000Y-62230000D03*
D11*
X109845000Y-62230000D03*
D12*
X89535000Y-87630000D03*
D13*
X94535000Y-87630000D03*
D14*
X154940000Y-59770000D03*
X154940000Y-64770000D03*
D11*
X109845000Y-88900000D03*
D10*
X106045000Y-88900000D03*
D14*
X154940000Y-75565000D03*
X154940000Y-70565000D03*
D12*
X89535000Y-50455000D03*
D13*
X94535000Y-50455000D03*
X94535000Y-69850000D03*
D12*
X89535000Y-69850000D03*
D15*
X131445000Y-76835000D03*
D16*
X121285000Y-76835000D03*
X121285000Y-71755000D03*
D15*
X131445000Y-71755000D03*
D16*
X121285000Y-66675000D03*
D15*
X131445000Y-66675000D03*
X131445000Y-51435000D03*
D16*
X121285000Y-51435000D03*
D15*
X131445000Y-92075000D03*
D16*
X121285000Y-92075000D03*
X121285000Y-86995000D03*
D15*
X131445000Y-86995000D03*
X131445000Y-46355000D03*
D16*
X121285000Y-46355000D03*
X121285000Y-61595000D03*
D15*
X131445000Y-61595000D03*
D16*
X121285000Y-56515000D03*
D15*
X131445000Y-56515000D03*
X131445000Y-81915000D03*
D16*
X121285000Y-81915000D03*
D17*
X78740000Y-46355000D03*
D18*
X78740000Y-48895000D03*
D17*
X162560000Y-46355000D03*
D18*
X162560000Y-48895000D03*
X162560000Y-51435000D03*
X162560000Y-64135000D03*
X162560000Y-61595000D03*
D17*
X162560000Y-59055000D03*
X162560000Y-73025000D03*
D18*
X162560000Y-75565000D03*
X162560000Y-78105000D03*
D17*
X162560000Y-86995000D03*
D18*
X162560000Y-89535000D03*
X162560000Y-92075000D03*
D17*
X78740000Y-67310000D03*
D18*
X78740000Y-69850000D03*
X78740000Y-72390000D03*
X78740000Y-74930000D03*
X78740000Y-77470000D03*
X78740000Y-80010000D03*
X78740000Y-60325000D03*
X78740000Y-57785000D03*
D17*
X78740000Y-55245000D03*
D19*
X154940000Y-83820000D03*
D20*
X154940000Y-81280000D03*
X154940000Y-82550000D03*
X154940000Y-90805000D03*
X154940000Y-89535000D03*
D19*
X154940000Y-92075000D03*
D21*
X147320000Y-57150000D03*
D14*
X139700000Y-57150000D03*
X139700000Y-87630000D03*
D21*
X147320000Y-87630000D03*
D14*
X139700000Y-67310000D03*
D21*
X147320000Y-67310000D03*
X147320000Y-92710000D03*
D14*
X139700000Y-92710000D03*
D21*
X147320000Y-62230000D03*
D14*
X139700000Y-62230000D03*
D21*
X147320000Y-77470000D03*
D14*
X139700000Y-77470000D03*
X139700000Y-82550000D03*
D21*
X147320000Y-82550000D03*
D14*
X139700000Y-72390000D03*
D21*
X147320000Y-72390000D03*
D17*
X154940000Y-46355000D03*
D18*
X154940000Y-48895000D03*
X154940000Y-51435000D03*
X154940000Y-53975000D03*
D22*
X148265000Y-51435000D03*
X139065000Y-51435000D03*
X139065000Y-46355000D03*
X148265000Y-46355000D03*
D23*
X78740000Y-74930000D02*
X79915300Y-74930000D01*
X79915300Y-74930000D02*
X80605600Y-74239700D01*
X80605600Y-74239700D02*
X108519700Y-74239700D01*
X108519700Y-74239700D02*
X109845000Y-75565000D01*
X158168800Y-70565000D02*
X154940000Y-70565000D01*
X147320000Y-67310000D02*
X146194700Y-67310000D01*
X146194700Y-67310000D02*
X141114700Y-72390000D01*
X141114700Y-72390000D02*
X139700000Y-72390000D01*
X139065000Y-51435000D02*
X140477100Y-52847100D01*
X140477100Y-52847100D02*
X152352600Y-52847100D01*
X152352600Y-52847100D02*
X153764700Y-51435000D01*
X139065000Y-51435000D02*
X131445000Y-51435000D01*
X154940000Y-51435000D02*
X153764700Y-51435000D01*
X158168800Y-70565000D02*
X158168800Y-70802100D01*
X158168800Y-70802100D02*
X161567100Y-74200400D01*
X161567100Y-74200400D02*
X162941400Y-74200400D01*
X162941400Y-74200400D02*
X163744600Y-75003600D01*
X163744600Y-75003600D02*
X163744600Y-76920400D01*
X163744600Y-76920400D02*
X162560000Y-78105000D01*
X161384700Y-64135000D02*
X158168800Y-67350900D01*
X158168800Y-67350900D02*
X158168800Y-70565000D01*
X161384700Y-53785600D02*
X162560000Y-52610300D01*
X156115300Y-51435000D02*
X158465900Y-53785600D01*
X158465900Y-53785600D02*
X161384700Y-53785600D01*
X161384700Y-53785600D02*
X161384700Y-64135000D01*
X162560000Y-64135000D02*
X161384700Y-64135000D01*
X154940000Y-51435000D02*
X156115300Y-51435000D01*
X162560000Y-51435000D02*
X162560000Y-52610300D01*
X94535000Y-69850000D02*
X91995000Y-72390000D01*
X91995000Y-72390000D02*
X78740000Y-72390000D01*
X89535000Y-50455000D02*
X91060300Y-50455000D01*
X91060300Y-50455000D02*
X92620300Y-48895000D01*
X92620300Y-48895000D02*
X106045000Y-48895000D01*
X79915300Y-55245000D02*
X84705300Y-50455000D01*
X84705300Y-50455000D02*
X89535000Y-50455000D01*
X106045000Y-48895000D02*
X107370300Y-48895000D01*
X121285000Y-46355000D02*
X109910300Y-46355000D01*
X109910300Y-46355000D02*
X107370300Y-48895000D01*
X132870300Y-71755000D02*
X133505300Y-72390000D01*
X133505300Y-72390000D02*
X139700000Y-72390000D01*
X78740000Y-55245000D02*
X79915300Y-55245000D01*
X131445000Y-71755000D02*
X132870300Y-71755000D01*
X109845000Y-62230000D02*
X118100000Y-53975000D01*
X118100000Y-53975000D02*
X125840800Y-53975000D01*
X125840800Y-53975000D02*
X133460800Y-46355000D01*
X133460800Y-46355000D02*
X139065000Y-46355000D01*
X139065000Y-46355000D02*
X144145000Y-51435000D01*
X144145000Y-51435000D02*
X148265000Y-51435000D01*
X131445000Y-66675000D02*
X132870300Y-66675000D01*
X147320000Y-62230000D02*
X146194700Y-62230000D01*
X146194700Y-62230000D02*
X146194700Y-62511300D01*
X146194700Y-62511300D02*
X140260800Y-68445200D01*
X140260800Y-68445200D02*
X134640500Y-68445200D01*
X134640500Y-68445200D02*
X132870300Y-66675000D01*
X147320000Y-92710000D02*
X146194700Y-92710000D01*
X94535000Y-87630000D02*
X100740300Y-93835300D01*
X100740300Y-93835300D02*
X145069400Y-93835300D01*
X145069400Y-93835300D02*
X146194700Y-92710000D01*
X131445000Y-61595000D02*
X132870300Y-61595000D01*
X132870300Y-61595000D02*
X134695300Y-59770000D01*
X134695300Y-59770000D02*
X154940000Y-59770000D01*
X139700000Y-67310000D02*
X135138100Y-67310000D01*
X135138100Y-67310000D02*
X124343100Y-56515000D01*
X124343100Y-56515000D02*
X121285000Y-56515000D01*
X131445000Y-86995000D02*
X130019700Y-86995000D01*
X130019700Y-86995000D02*
X128114700Y-88900000D01*
X128114700Y-88900000D02*
X109845000Y-88900000D01*
X106045000Y-88900000D02*
X107370300Y-88900000D01*
X121285000Y-92075000D02*
X110545300Y-92075000D01*
X110545300Y-92075000D02*
X107370300Y-88900000D01*
X154940000Y-83820000D02*
X152034200Y-83820000D01*
X152034200Y-83820000D02*
X144004300Y-75790100D01*
X144004300Y-75790100D02*
X136663300Y-75790100D01*
X136663300Y-75790100D02*
X134662500Y-73789300D01*
X134662500Y-73789300D02*
X126843400Y-73789300D01*
X126843400Y-73789300D02*
X126639400Y-73585300D01*
X126639400Y-73585300D02*
X119295700Y-73585300D01*
X119295700Y-73585300D02*
X107807700Y-62097300D01*
X107807700Y-62097300D02*
X107807700Y-61527600D01*
X107807700Y-61527600D02*
X96735100Y-50455000D01*
X96735100Y-50455000D02*
X94535000Y-50455000D01*
X155025700Y-83820000D02*
X154940000Y-83820000D01*
X155025700Y-83820000D02*
X155477700Y-83820000D01*
X162560000Y-89535000D02*
X162560000Y-88359700D01*
X157324700Y-83820000D02*
X157324700Y-81608300D01*
X157324700Y-81608300D02*
X162192700Y-76740300D01*
X162192700Y-76740300D02*
X162560000Y-76740300D01*
X162560000Y-88359700D02*
X161744500Y-88359700D01*
X161744500Y-88359700D02*
X157324700Y-83939900D01*
X157324700Y-83939900D02*
X157324700Y-83820000D01*
X157324700Y-83820000D02*
X155477700Y-83820000D01*
X162560000Y-75565000D02*
X162560000Y-76740300D01*
X156015300Y-92075000D02*
X156015300Y-89176800D01*
X156015300Y-89176800D02*
X143183100Y-76344600D01*
X143183100Y-76344600D02*
X134122200Y-76344600D01*
X134122200Y-76344600D02*
X132024400Y-74246800D01*
X132024400Y-74246800D02*
X126664000Y-74246800D01*
X126664000Y-74246800D02*
X126452800Y-74035600D01*
X126452800Y-74035600D02*
X110430600Y-74035600D01*
X110430600Y-74035600D02*
X104719700Y-68324700D01*
X104719700Y-68324700D02*
X92585600Y-68324700D01*
X92585600Y-68324700D02*
X91060300Y-69850000D01*
X89535000Y-69850000D02*
X91060300Y-69850000D01*
X154940000Y-92075000D02*
X156015300Y-92075000D01*
X162560000Y-73025000D02*
X162560000Y-71849700D01*
X162560000Y-59055000D02*
X162560000Y-60230300D01*
X162560000Y-60230300D02*
X162927300Y-60230300D01*
X162927300Y-60230300D02*
X163735300Y-61038300D01*
X163735300Y-61038300D02*
X163735300Y-70674400D01*
X163735300Y-70674400D02*
X162560000Y-71849700D01*
X89535000Y-69850000D02*
X88009700Y-69850000D01*
X78740000Y-67310000D02*
X85469700Y-67310000D01*
X85469700Y-67310000D02*
X88009700Y-69850000D01*
X121285000Y-76835000D02*
X119859700Y-76835000D01*
X119859700Y-76835000D02*
X119224700Y-77470000D01*
X119224700Y-77470000D02*
X78740000Y-77470000D01*
X154940000Y-82550000D02*
X156015300Y-82550000D01*
X139700000Y-62230000D02*
X140841100Y-61088900D01*
X140841100Y-61088900D02*
X147824100Y-61088900D01*
X147824100Y-61088900D02*
X152749700Y-66014500D01*
X152749700Y-66014500D02*
X152749700Y-69974500D01*
X152749700Y-69974500D02*
X156069800Y-73294600D01*
X156069800Y-73294600D02*
X156069800Y-82495500D01*
X156069800Y-82495500D02*
X156015300Y-82550000D01*
X154940000Y-75565000D02*
X154489700Y-75114700D01*
X154489700Y-75114700D02*
X139945800Y-75114700D01*
X139945800Y-75114700D02*
X138011400Y-73180300D01*
X138011400Y-73180300D02*
X130850500Y-73180300D01*
X130850500Y-73180300D02*
X121285000Y-63614800D01*
X121285000Y-63614800D02*
X121285000Y-61595000D01*
X121285000Y-81915000D02*
X122710300Y-81915000D01*
X139700000Y-82550000D02*
X138909700Y-83340300D01*
X138909700Y-83340300D02*
X124135600Y-83340300D01*
X124135600Y-83340300D02*
X122710300Y-81915000D01*
X154940000Y-90805000D02*
X152398100Y-90805000D01*
X152398100Y-90805000D02*
X144143100Y-82550000D01*
X144143100Y-82550000D02*
X139700000Y-82550000D01*
X79915300Y-46355000D02*
X81340600Y-44929700D01*
X81340600Y-44929700D02*
X149799400Y-44929700D01*
X149799400Y-44929700D02*
X153764700Y-48895000D01*
X154940000Y-48895000D02*
X153764700Y-48895000D01*
X78740000Y-46355000D02*
X79915300Y-46355000D01*
X131445000Y-92075000D02*
X132870300Y-92075000D01*
X147320000Y-87630000D02*
X146194700Y-87630000D01*
X146194700Y-87630000D02*
X143175000Y-90649700D01*
X143175000Y-90649700D02*
X134295600Y-90649700D01*
X134295600Y-90649700D02*
X132870300Y-92075000D01*
X154940000Y-89535000D02*
X151765000Y-89535000D01*
X151765000Y-89535000D02*
X139700000Y-77470000D01*
M02*
