M48
; DRILL file {KiCad (5.1.5)-3} date 1/27/2020 9:12:59 PM
; FORMAT={-:-/ absolute / inch / decimal}
; #@! TF.CreationDate,2020-01-27T21:12:59-05:00
; #@! TF.GenerationSoftware,Kicad,Pcbnew,(5.1.5)-3
; #@! TF.FileFunction,Plated,1,2,PTH
FMAT,2
INCH
T1C0.0217
T2C0.0315
T3C0.0394
T4C0.0433
T5C0.0472
%
G90
G05
T1
X6.1Y-3.525
X6.1Y-3.575
X6.1Y-3.625
X6.1Y-3.2
X6.1Y-3.25
X6.1Y-3.3
T2
X5.5Y-2.45
X5.8Y-2.45
X5.5Y-2.85
X5.8Y-2.85
X5.5Y-3.65
X5.8Y-3.65
X6.1Y-2.3531
X6.1Y-2.55
X5.5Y-3.25
X5.8Y-3.25
X6.1Y-2.7781
X6.1Y-2.975
X5.5Y-2.65
X5.8Y-2.65
X5.5Y-2.25
X5.8Y-2.25
X5.5Y-3.05
X5.8Y-3.05
X5.5Y-3.45
X5.8Y-3.45
T3
X3.1Y-2.175
X3.1Y-2.275
X3.1Y-2.375
X6.4Y-1.825
X6.4Y-1.925
X6.4Y-2.025
X6.4Y-2.325
X6.4Y-2.425
X6.4Y-2.525
X4.175Y-1.925
X4.3246Y-1.925
X4.175Y-3.5
X4.3246Y-3.5
X6.1Y-1.825
X6.1Y-1.925
X6.1Y-2.025
X6.1Y-2.125
X3.1Y-2.65
X3.1Y-2.75
X3.1Y-2.85
X3.1Y-2.95
X3.1Y-3.05
X3.1Y-3.15
X4.175Y-2.975
X4.3246Y-2.975
X6.4Y-3.425
X6.4Y-3.525
X6.4Y-3.625
X3.1Y-1.825
X3.1Y-1.925
X6.4Y-2.875
X6.4Y-2.975
X6.4Y-3.075
X4.175Y-2.45
X4.3246Y-2.45
T4
X5.475Y-2.025
X5.8372Y-2.025
X4.775Y-3.225
X5.175Y-3.225
X4.775Y-2.825
X5.175Y-2.825
X4.775Y-1.825
X5.175Y-1.825
X4.775Y-2.225
X5.175Y-2.225
X5.475Y-1.825
X5.8372Y-1.825
X4.775Y-2.425
X5.175Y-2.425
X4.775Y-3.625
X5.175Y-3.625
X4.775Y-3.025
X5.175Y-3.025
X4.775Y-3.425
X5.175Y-3.425
X4.775Y-2.625
X5.175Y-2.625
X4.775Y-2.025
X5.175Y-2.025
T5
X3.7219Y-1.9864
X3.525Y-3.45
X3.7219Y-3.45
X3.525Y-2.75
X3.7219Y-2.75
X3.525Y-1.9864
T0
M30
