G04 #@! TF.GenerationSoftware,KiCad,Pcbnew,(5.1.5)-3*
G04 #@! TF.CreationDate,2020-01-27T21:13:04-05:00*
G04 #@! TF.ProjectId,power,706f7765-722e-46b6-9963-61645f706362,v01*
G04 #@! TF.SameCoordinates,Original*
G04 #@! TF.FileFunction,Legend,Top*
G04 #@! TF.FilePolarity,Positive*
%FSLAX46Y46*%
G04 Gerber Fmt 4.6, Leading zero omitted, Abs format (unit mm)*
G04 Created by KiCad (PCBNEW (5.1.5)-3) date 2020-01-27 21:13:04*
%MOMM*%
%LPD*%
G04 APERTURE LIST*
%ADD10C,0.150000*%
%ADD11C,0.120000*%
%ADD12C,0.100000*%
G04 APERTURE END LIST*
D10*
X166187380Y-91535000D02*
X166139761Y-91630238D01*
X166092142Y-91677857D01*
X165996904Y-91725476D01*
X165711190Y-91725476D01*
X165615952Y-91677857D01*
X165568333Y-91630238D01*
X165520714Y-91535000D01*
X165520714Y-91392142D01*
X165568333Y-91296904D01*
X165615952Y-91249285D01*
X165711190Y-91201666D01*
X165996904Y-91201666D01*
X166092142Y-91249285D01*
X166139761Y-91296904D01*
X166187380Y-91392142D01*
X166187380Y-91535000D01*
X165520714Y-90344523D02*
X166187380Y-90344523D01*
X165520714Y-90773095D02*
X166044523Y-90773095D01*
X166139761Y-90725476D01*
X166187380Y-90630238D01*
X166187380Y-90487380D01*
X166139761Y-90392142D01*
X166092142Y-90344523D01*
X165520714Y-90011190D02*
X165520714Y-89630238D01*
X165187380Y-89868333D02*
X166044523Y-89868333D01*
X166139761Y-89820714D01*
X166187380Y-89725476D01*
X166187380Y-89630238D01*
X165520714Y-89296904D02*
X166520714Y-89296904D01*
X165568333Y-89296904D02*
X165520714Y-89201666D01*
X165520714Y-89011190D01*
X165568333Y-88915952D01*
X165615952Y-88868333D01*
X165711190Y-88820714D01*
X165996904Y-88820714D01*
X166092142Y-88868333D01*
X166139761Y-88915952D01*
X166187380Y-89011190D01*
X166187380Y-89201666D01*
X166139761Y-89296904D01*
X165520714Y-87963571D02*
X166187380Y-87963571D01*
X165520714Y-88392142D02*
X166044523Y-88392142D01*
X166139761Y-88344523D01*
X166187380Y-88249285D01*
X166187380Y-88106428D01*
X166139761Y-88011190D01*
X166092142Y-87963571D01*
X165520714Y-87630238D02*
X165520714Y-87249285D01*
X165187380Y-87487380D02*
X166044523Y-87487380D01*
X166139761Y-87439761D01*
X166187380Y-87344523D01*
X166187380Y-87249285D01*
X165520714Y-76763333D02*
X165520714Y-76382380D01*
X165187380Y-76620476D02*
X166044523Y-76620476D01*
X166139761Y-76572857D01*
X166187380Y-76477619D01*
X166187380Y-76382380D01*
X166187380Y-76049047D02*
X165520714Y-76049047D01*
X165187380Y-76049047D02*
X165235000Y-76096666D01*
X165282619Y-76049047D01*
X165235000Y-76001428D01*
X165187380Y-76049047D01*
X165282619Y-76049047D01*
X166187380Y-75572857D02*
X165520714Y-75572857D01*
X165615952Y-75572857D02*
X165568333Y-75525238D01*
X165520714Y-75430000D01*
X165520714Y-75287142D01*
X165568333Y-75191904D01*
X165663571Y-75144285D01*
X166187380Y-75144285D01*
X165663571Y-75144285D02*
X165568333Y-75096666D01*
X165520714Y-75001428D01*
X165520714Y-74858571D01*
X165568333Y-74763333D01*
X165663571Y-74715714D01*
X166187380Y-74715714D01*
X166139761Y-73858571D02*
X166187380Y-73953809D01*
X166187380Y-74144285D01*
X166139761Y-74239523D01*
X166044523Y-74287142D01*
X165663571Y-74287142D01*
X165568333Y-74239523D01*
X165520714Y-74144285D01*
X165520714Y-73953809D01*
X165568333Y-73858571D01*
X165663571Y-73810952D01*
X165758809Y-73810952D01*
X165854047Y-74287142D01*
X166187380Y-73382380D02*
X165520714Y-73382380D01*
X165711190Y-73382380D02*
X165615952Y-73334761D01*
X165568333Y-73287142D01*
X165520714Y-73191904D01*
X165520714Y-73096666D01*
X166822380Y-62856904D02*
X165822380Y-62856904D01*
X165822380Y-62618809D01*
X165870000Y-62475952D01*
X165965238Y-62380714D01*
X166060476Y-62333095D01*
X166250952Y-62285476D01*
X166393809Y-62285476D01*
X166584285Y-62333095D01*
X166679523Y-62380714D01*
X166774761Y-62475952D01*
X166822380Y-62618809D01*
X166822380Y-62856904D01*
X166822380Y-61856904D02*
X165822380Y-61856904D01*
X166536666Y-61523571D01*
X165822380Y-61190238D01*
X166822380Y-61190238D01*
X165822380Y-60856904D02*
X166822380Y-60523571D01*
X165822380Y-60190238D01*
X166139761Y-50371190D02*
X166187380Y-50275952D01*
X166187380Y-50085476D01*
X166139761Y-49990238D01*
X166044523Y-49942619D01*
X165996904Y-49942619D01*
X165901666Y-49990238D01*
X165854047Y-50085476D01*
X165854047Y-50228333D01*
X165806428Y-50323571D01*
X165711190Y-50371190D01*
X165663571Y-50371190D01*
X165568333Y-50323571D01*
X165520714Y-50228333D01*
X165520714Y-50085476D01*
X165568333Y-49990238D01*
X165520714Y-49609285D02*
X166187380Y-49371190D01*
X165520714Y-49133095D02*
X166187380Y-49371190D01*
X166425476Y-49466428D01*
X166473095Y-49514047D01*
X166520714Y-49609285D01*
X165520714Y-48752142D02*
X166187380Y-48752142D01*
X165615952Y-48752142D02*
X165568333Y-48704523D01*
X165520714Y-48609285D01*
X165520714Y-48466428D01*
X165568333Y-48371190D01*
X165663571Y-48323571D01*
X166187380Y-48323571D01*
X166139761Y-47418809D02*
X166187380Y-47514047D01*
X166187380Y-47704523D01*
X166139761Y-47799761D01*
X166092142Y-47847380D01*
X165996904Y-47895000D01*
X165711190Y-47895000D01*
X165615952Y-47847380D01*
X165568333Y-47799761D01*
X165520714Y-47704523D01*
X165520714Y-47514047D01*
X165568333Y-47418809D01*
X75969761Y-75469523D02*
X76017380Y-75564761D01*
X76017380Y-75755238D01*
X75969761Y-75850476D01*
X75922142Y-75898095D01*
X75826904Y-75945714D01*
X75541190Y-75945714D01*
X75445952Y-75898095D01*
X75398333Y-75850476D01*
X75350714Y-75755238D01*
X75350714Y-75564761D01*
X75398333Y-75469523D01*
X76017380Y-74898095D02*
X75969761Y-74993333D01*
X75874523Y-75040952D01*
X75017380Y-75040952D01*
X75350714Y-74088571D02*
X76017380Y-74088571D01*
X75350714Y-74517142D02*
X75874523Y-74517142D01*
X75969761Y-74469523D01*
X76017380Y-74374285D01*
X76017380Y-74231428D01*
X75969761Y-74136190D01*
X75922142Y-74088571D01*
X76017380Y-73183809D02*
X75017380Y-73183809D01*
X75969761Y-73183809D02*
X76017380Y-73279047D01*
X76017380Y-73469523D01*
X75969761Y-73564761D01*
X75922142Y-73612380D01*
X75826904Y-73660000D01*
X75541190Y-73660000D01*
X75445952Y-73612380D01*
X75398333Y-73564761D01*
X75350714Y-73469523D01*
X75350714Y-73279047D01*
X75398333Y-73183809D01*
X75350714Y-72279047D02*
X76160238Y-72279047D01*
X76255476Y-72326666D01*
X76303095Y-72374285D01*
X76350714Y-72469523D01*
X76350714Y-72612380D01*
X76303095Y-72707619D01*
X75969761Y-72279047D02*
X76017380Y-72374285D01*
X76017380Y-72564761D01*
X75969761Y-72660000D01*
X75922142Y-72707619D01*
X75826904Y-72755238D01*
X75541190Y-72755238D01*
X75445952Y-72707619D01*
X75398333Y-72660000D01*
X75350714Y-72564761D01*
X75350714Y-72374285D01*
X75398333Y-72279047D01*
X75969761Y-71421904D02*
X76017380Y-71517142D01*
X76017380Y-71707619D01*
X75969761Y-71802857D01*
X75874523Y-71850476D01*
X75493571Y-71850476D01*
X75398333Y-71802857D01*
X75350714Y-71707619D01*
X75350714Y-71517142D01*
X75398333Y-71421904D01*
X75493571Y-71374285D01*
X75588809Y-71374285D01*
X75684047Y-71850476D01*
X74430000Y-60237380D02*
X74382380Y-60332619D01*
X74382380Y-60475476D01*
X74430000Y-60618333D01*
X74525238Y-60713571D01*
X74620476Y-60761190D01*
X74810952Y-60808809D01*
X74953809Y-60808809D01*
X75144285Y-60761190D01*
X75239523Y-60713571D01*
X75334761Y-60618333D01*
X75382380Y-60475476D01*
X75382380Y-60380238D01*
X75334761Y-60237380D01*
X75287142Y-60189761D01*
X74953809Y-60189761D01*
X74953809Y-60380238D01*
X75382380Y-59761190D02*
X74382380Y-59761190D01*
X75382380Y-59189761D01*
X74382380Y-59189761D01*
X75382380Y-58713571D02*
X74382380Y-58713571D01*
X74382380Y-58475476D01*
X74430000Y-58332619D01*
X74525238Y-58237380D01*
X74620476Y-58189761D01*
X74810952Y-58142142D01*
X74953809Y-58142142D01*
X75144285Y-58189761D01*
X75239523Y-58237380D01*
X75334761Y-58332619D01*
X75382380Y-58475476D01*
X75382380Y-58713571D01*
X75382380Y-56951666D02*
X74382380Y-56951666D01*
X74763333Y-56951666D02*
X74715714Y-56856428D01*
X74715714Y-56665952D01*
X74763333Y-56570714D01*
X74810952Y-56523095D01*
X74906190Y-56475476D01*
X75191904Y-56475476D01*
X75287142Y-56523095D01*
X75334761Y-56570714D01*
X75382380Y-56665952D01*
X75382380Y-56856428D01*
X75334761Y-56951666D01*
X74715714Y-55618333D02*
X75382380Y-55618333D01*
X74715714Y-56046904D02*
X75239523Y-56046904D01*
X75334761Y-55999285D01*
X75382380Y-55904047D01*
X75382380Y-55761190D01*
X75334761Y-55665952D01*
X75287142Y-55618333D01*
X75334761Y-55189761D02*
X75382380Y-55094523D01*
X75382380Y-54904047D01*
X75334761Y-54808809D01*
X75239523Y-54761190D01*
X75191904Y-54761190D01*
X75096666Y-54808809D01*
X75049047Y-54904047D01*
X75049047Y-55046904D01*
X75001428Y-55142142D01*
X74906190Y-55189761D01*
X74858571Y-55189761D01*
X74763333Y-55142142D01*
X74715714Y-55046904D01*
X74715714Y-54904047D01*
X74763333Y-54808809D01*
X74715714Y-51529761D02*
X75382380Y-51339285D01*
X74906190Y-51148809D01*
X75382380Y-50958333D01*
X74715714Y-50767857D01*
X75382380Y-49958333D02*
X74858571Y-49958333D01*
X74763333Y-50005952D01*
X74715714Y-50101190D01*
X74715714Y-50291666D01*
X74763333Y-50386904D01*
X75334761Y-49958333D02*
X75382380Y-50053571D01*
X75382380Y-50291666D01*
X75334761Y-50386904D01*
X75239523Y-50434523D01*
X75144285Y-50434523D01*
X75049047Y-50386904D01*
X75001428Y-50291666D01*
X75001428Y-50053571D01*
X74953809Y-49958333D01*
X75382380Y-49339285D02*
X75334761Y-49434523D01*
X75239523Y-49482142D01*
X74382380Y-49482142D01*
X75382380Y-48815476D02*
X75334761Y-48910714D01*
X75239523Y-48958333D01*
X74382380Y-48958333D01*
X74715714Y-47672619D02*
X75715714Y-47672619D01*
X74763333Y-47672619D02*
X74715714Y-47577380D01*
X74715714Y-47386904D01*
X74763333Y-47291666D01*
X74810952Y-47244047D01*
X74906190Y-47196428D01*
X75191904Y-47196428D01*
X75287142Y-47244047D01*
X75334761Y-47291666D01*
X75382380Y-47386904D01*
X75382380Y-47577380D01*
X75334761Y-47672619D01*
X75382380Y-46625000D02*
X75334761Y-46720238D01*
X75287142Y-46767857D01*
X75191904Y-46815476D01*
X74906190Y-46815476D01*
X74810952Y-46767857D01*
X74763333Y-46720238D01*
X74715714Y-46625000D01*
X74715714Y-46482142D01*
X74763333Y-46386904D01*
X74810952Y-46339285D01*
X74906190Y-46291666D01*
X75191904Y-46291666D01*
X75287142Y-46339285D01*
X75334761Y-46386904D01*
X75382380Y-46482142D01*
X75382380Y-46625000D01*
X74715714Y-45958333D02*
X75382380Y-45767857D01*
X74906190Y-45577380D01*
X75382380Y-45386904D01*
X74715714Y-45196428D01*
X75334761Y-44434523D02*
X75382380Y-44529761D01*
X75382380Y-44720238D01*
X75334761Y-44815476D01*
X75239523Y-44863095D01*
X74858571Y-44863095D01*
X74763333Y-44815476D01*
X74715714Y-44720238D01*
X74715714Y-44529761D01*
X74763333Y-44434523D01*
X74858571Y-44386904D01*
X74953809Y-44386904D01*
X75049047Y-44863095D01*
X75382380Y-43958333D02*
X74715714Y-43958333D01*
X74906190Y-43958333D02*
X74810952Y-43910714D01*
X74763333Y-43863095D01*
X74715714Y-43767857D01*
X74715714Y-43672619D01*
X73581190Y-88972380D02*
X73581190Y-87972380D01*
X73962142Y-87972380D01*
X74057380Y-88020000D01*
X74105000Y-88067619D01*
X74152619Y-88162857D01*
X74152619Y-88305714D01*
X74105000Y-88400952D01*
X74057380Y-88448571D01*
X73962142Y-88496190D01*
X73581190Y-88496190D01*
X74724047Y-88972380D02*
X74628809Y-88924761D01*
X74581190Y-88877142D01*
X74533571Y-88781904D01*
X74533571Y-88496190D01*
X74581190Y-88400952D01*
X74628809Y-88353333D01*
X74724047Y-88305714D01*
X74866904Y-88305714D01*
X74962142Y-88353333D01*
X75009761Y-88400952D01*
X75057380Y-88496190D01*
X75057380Y-88781904D01*
X75009761Y-88877142D01*
X74962142Y-88924761D01*
X74866904Y-88972380D01*
X74724047Y-88972380D01*
X75390714Y-88305714D02*
X75581190Y-88972380D01*
X75771666Y-88496190D01*
X75962142Y-88972380D01*
X76152619Y-88305714D01*
X76914523Y-88924761D02*
X76819285Y-88972380D01*
X76628809Y-88972380D01*
X76533571Y-88924761D01*
X76485952Y-88829523D01*
X76485952Y-88448571D01*
X76533571Y-88353333D01*
X76628809Y-88305714D01*
X76819285Y-88305714D01*
X76914523Y-88353333D01*
X76962142Y-88448571D01*
X76962142Y-88543809D01*
X76485952Y-88639047D01*
X77390714Y-88972380D02*
X77390714Y-88305714D01*
X77390714Y-88496190D02*
X77438333Y-88400952D01*
X77485952Y-88353333D01*
X77581190Y-88305714D01*
X77676428Y-88305714D01*
X79105000Y-88448571D02*
X79247857Y-88496190D01*
X79295476Y-88543809D01*
X79343095Y-88639047D01*
X79343095Y-88781904D01*
X79295476Y-88877142D01*
X79247857Y-88924761D01*
X79152619Y-88972380D01*
X78771666Y-88972380D01*
X78771666Y-87972380D01*
X79105000Y-87972380D01*
X79200238Y-88020000D01*
X79247857Y-88067619D01*
X79295476Y-88162857D01*
X79295476Y-88258095D01*
X79247857Y-88353333D01*
X79200238Y-88400952D01*
X79105000Y-88448571D01*
X78771666Y-88448571D01*
X79914523Y-88972380D02*
X79819285Y-88924761D01*
X79771666Y-88877142D01*
X79724047Y-88781904D01*
X79724047Y-88496190D01*
X79771666Y-88400952D01*
X79819285Y-88353333D01*
X79914523Y-88305714D01*
X80057380Y-88305714D01*
X80152619Y-88353333D01*
X80200238Y-88400952D01*
X80247857Y-88496190D01*
X80247857Y-88781904D01*
X80200238Y-88877142D01*
X80152619Y-88924761D01*
X80057380Y-88972380D01*
X79914523Y-88972380D01*
X81105000Y-88972380D02*
X81105000Y-88448571D01*
X81057380Y-88353333D01*
X80962142Y-88305714D01*
X80771666Y-88305714D01*
X80676428Y-88353333D01*
X81105000Y-88924761D02*
X81009761Y-88972380D01*
X80771666Y-88972380D01*
X80676428Y-88924761D01*
X80628809Y-88829523D01*
X80628809Y-88734285D01*
X80676428Y-88639047D01*
X80771666Y-88591428D01*
X81009761Y-88591428D01*
X81105000Y-88543809D01*
X81581190Y-88972380D02*
X81581190Y-88305714D01*
X81581190Y-88496190D02*
X81628809Y-88400952D01*
X81676428Y-88353333D01*
X81771666Y-88305714D01*
X81866904Y-88305714D01*
X82628809Y-88972380D02*
X82628809Y-87972380D01*
X82628809Y-88924761D02*
X82533571Y-88972380D01*
X82343095Y-88972380D01*
X82247857Y-88924761D01*
X82200238Y-88877142D01*
X82152619Y-88781904D01*
X82152619Y-88496190D01*
X82200238Y-88400952D01*
X82247857Y-88353333D01*
X82343095Y-88305714D01*
X82533571Y-88305714D01*
X82628809Y-88353333D01*
X72771666Y-89622380D02*
X73343095Y-89622380D01*
X73057380Y-90622380D02*
X73057380Y-89622380D01*
X73533571Y-89622380D02*
X73866904Y-90622380D01*
X74200238Y-89622380D01*
X75057380Y-89670000D02*
X74962142Y-89622380D01*
X74819285Y-89622380D01*
X74676428Y-89670000D01*
X74581190Y-89765238D01*
X74533571Y-89860476D01*
X74485952Y-90050952D01*
X74485952Y-90193809D01*
X74533571Y-90384285D01*
X74581190Y-90479523D01*
X74676428Y-90574761D01*
X74819285Y-90622380D01*
X74914523Y-90622380D01*
X75057380Y-90574761D01*
X75105000Y-90527142D01*
X75105000Y-90193809D01*
X74914523Y-90193809D01*
X75533571Y-90241428D02*
X76295476Y-90241428D01*
X76724047Y-89717619D02*
X76771666Y-89670000D01*
X76866904Y-89622380D01*
X77105000Y-89622380D01*
X77200238Y-89670000D01*
X77247857Y-89717619D01*
X77295476Y-89812857D01*
X77295476Y-89908095D01*
X77247857Y-90050952D01*
X76676428Y-90622380D01*
X77295476Y-90622380D01*
X78485952Y-90622380D02*
X78485952Y-89622380D01*
X78866904Y-89622380D01*
X78962142Y-89670000D01*
X79009761Y-89717619D01*
X79057380Y-89812857D01*
X79057380Y-89955714D01*
X79009761Y-90050952D01*
X78962142Y-90098571D01*
X78866904Y-90146190D01*
X78485952Y-90146190D01*
X79485952Y-90622380D02*
X79485952Y-89955714D01*
X79485952Y-90146190D02*
X79533571Y-90050952D01*
X79581190Y-90003333D01*
X79676428Y-89955714D01*
X79771666Y-89955714D01*
X80247857Y-90622380D02*
X80152619Y-90574761D01*
X80105000Y-90527142D01*
X80057380Y-90431904D01*
X80057380Y-90146190D01*
X80105000Y-90050952D01*
X80152619Y-90003333D01*
X80247857Y-89955714D01*
X80390714Y-89955714D01*
X80485952Y-90003333D01*
X80533571Y-90050952D01*
X80581190Y-90146190D01*
X80581190Y-90431904D01*
X80533571Y-90527142D01*
X80485952Y-90574761D01*
X80390714Y-90622380D01*
X80247857Y-90622380D01*
X81009761Y-89955714D02*
X81009761Y-90812857D01*
X80962142Y-90908095D01*
X80866904Y-90955714D01*
X80819285Y-90955714D01*
X81009761Y-89622380D02*
X80962142Y-89670000D01*
X81009761Y-89717619D01*
X81057380Y-89670000D01*
X81009761Y-89622380D01*
X81009761Y-89717619D01*
X81866904Y-90574761D02*
X81771666Y-90622380D01*
X81581190Y-90622380D01*
X81485952Y-90574761D01*
X81438333Y-90479523D01*
X81438333Y-90098571D01*
X81485952Y-90003333D01*
X81581190Y-89955714D01*
X81771666Y-89955714D01*
X81866904Y-90003333D01*
X81914523Y-90098571D01*
X81914523Y-90193809D01*
X81438333Y-90289047D01*
X82771666Y-90574761D02*
X82676428Y-90622380D01*
X82485952Y-90622380D01*
X82390714Y-90574761D01*
X82343095Y-90527142D01*
X82295476Y-90431904D01*
X82295476Y-90146190D01*
X82343095Y-90050952D01*
X82390714Y-90003333D01*
X82485952Y-89955714D01*
X82676428Y-89955714D01*
X82771666Y-90003333D01*
X83057380Y-89955714D02*
X83438333Y-89955714D01*
X83200238Y-89622380D02*
X83200238Y-90479523D01*
X83247857Y-90574761D01*
X83343095Y-90622380D01*
X83438333Y-90622380D01*
X75057380Y-91272380D02*
X75057380Y-91986666D01*
X75009761Y-92129523D01*
X74914523Y-92224761D01*
X74771666Y-92272380D01*
X74676428Y-92272380D01*
X75962142Y-92272380D02*
X75962142Y-91748571D01*
X75914523Y-91653333D01*
X75819285Y-91605714D01*
X75628809Y-91605714D01*
X75533571Y-91653333D01*
X75962142Y-92224761D02*
X75866904Y-92272380D01*
X75628809Y-92272380D01*
X75533571Y-92224761D01*
X75485952Y-92129523D01*
X75485952Y-92034285D01*
X75533571Y-91939047D01*
X75628809Y-91891428D01*
X75866904Y-91891428D01*
X75962142Y-91843809D01*
X76438333Y-91605714D02*
X76438333Y-92272380D01*
X76438333Y-91700952D02*
X76485952Y-91653333D01*
X76581190Y-91605714D01*
X76724047Y-91605714D01*
X76819285Y-91653333D01*
X76866904Y-91748571D01*
X76866904Y-92272380D01*
X78057380Y-91367619D02*
X78105000Y-91320000D01*
X78200238Y-91272380D01*
X78438333Y-91272380D01*
X78533571Y-91320000D01*
X78581190Y-91367619D01*
X78628809Y-91462857D01*
X78628809Y-91558095D01*
X78581190Y-91700952D01*
X78009761Y-92272380D01*
X78628809Y-92272380D01*
X79247857Y-91272380D02*
X79343095Y-91272380D01*
X79438333Y-91320000D01*
X79485952Y-91367619D01*
X79533571Y-91462857D01*
X79581190Y-91653333D01*
X79581190Y-91891428D01*
X79533571Y-92081904D01*
X79485952Y-92177142D01*
X79438333Y-92224761D01*
X79343095Y-92272380D01*
X79247857Y-92272380D01*
X79152619Y-92224761D01*
X79105000Y-92177142D01*
X79057380Y-92081904D01*
X79009761Y-91891428D01*
X79009761Y-91653333D01*
X79057380Y-91462857D01*
X79105000Y-91367619D01*
X79152619Y-91320000D01*
X79247857Y-91272380D01*
X79962142Y-91367619D02*
X80009761Y-91320000D01*
X80105000Y-91272380D01*
X80343095Y-91272380D01*
X80438333Y-91320000D01*
X80485952Y-91367619D01*
X80533571Y-91462857D01*
X80533571Y-91558095D01*
X80485952Y-91700952D01*
X79914523Y-92272380D01*
X80533571Y-92272380D01*
X81152619Y-91272380D02*
X81247857Y-91272380D01*
X81343095Y-91320000D01*
X81390714Y-91367619D01*
X81438333Y-91462857D01*
X81485952Y-91653333D01*
X81485952Y-91891428D01*
X81438333Y-92081904D01*
X81390714Y-92177142D01*
X81343095Y-92224761D01*
X81247857Y-92272380D01*
X81152619Y-92272380D01*
X81057380Y-92224761D01*
X81009761Y-92177142D01*
X80962142Y-92081904D01*
X80914523Y-91891428D01*
X80914523Y-91653333D01*
X80962142Y-91462857D01*
X81009761Y-91367619D01*
X81057380Y-91320000D01*
X81152619Y-91272380D01*
D11*
X113065000Y-48895000D02*
G75*
G03X113065000Y-48895000I-5120000J0D01*
G01*
X107945000Y-43815000D02*
X107945000Y-53975000D01*
X107985000Y-43815000D02*
X107985000Y-53975000D01*
X108025000Y-43815000D02*
X108025000Y-53975000D01*
X108065000Y-43816000D02*
X108065000Y-53974000D01*
X108105000Y-43817000D02*
X108105000Y-53973000D01*
X108145000Y-43818000D02*
X108145000Y-53972000D01*
X108185000Y-43820000D02*
X108185000Y-53970000D01*
X108225000Y-43822000D02*
X108225000Y-53968000D01*
X108265000Y-43825000D02*
X108265000Y-53965000D01*
X108305000Y-43827000D02*
X108305000Y-53963000D01*
X108345000Y-43830000D02*
X108345000Y-53960000D01*
X108385000Y-43833000D02*
X108385000Y-53957000D01*
X108425000Y-43837000D02*
X108425000Y-53953000D01*
X108465000Y-43841000D02*
X108465000Y-53949000D01*
X108505000Y-43845000D02*
X108505000Y-53945000D01*
X108545000Y-43850000D02*
X108545000Y-53940000D01*
X108585000Y-43855000D02*
X108585000Y-53935000D01*
X108625000Y-43860000D02*
X108625000Y-47654000D01*
X108625000Y-50136000D02*
X108625000Y-53930000D01*
X108666000Y-43865000D02*
X108666000Y-47654000D01*
X108666000Y-50136000D02*
X108666000Y-53925000D01*
X108706000Y-43871000D02*
X108706000Y-47654000D01*
X108706000Y-50136000D02*
X108706000Y-53919000D01*
X108746000Y-43877000D02*
X108746000Y-47654000D01*
X108746000Y-50136000D02*
X108746000Y-53913000D01*
X108786000Y-43884000D02*
X108786000Y-47654000D01*
X108786000Y-50136000D02*
X108786000Y-53906000D01*
X108826000Y-43891000D02*
X108826000Y-47654000D01*
X108826000Y-50136000D02*
X108826000Y-53899000D01*
X108866000Y-43898000D02*
X108866000Y-47654000D01*
X108866000Y-50136000D02*
X108866000Y-53892000D01*
X108906000Y-43905000D02*
X108906000Y-47654000D01*
X108906000Y-50136000D02*
X108906000Y-53885000D01*
X108946000Y-43913000D02*
X108946000Y-47654000D01*
X108946000Y-50136000D02*
X108946000Y-53877000D01*
X108986000Y-43921000D02*
X108986000Y-47654000D01*
X108986000Y-50136000D02*
X108986000Y-53869000D01*
X109026000Y-43930000D02*
X109026000Y-47654000D01*
X109026000Y-50136000D02*
X109026000Y-53860000D01*
X109066000Y-43939000D02*
X109066000Y-47654000D01*
X109066000Y-50136000D02*
X109066000Y-53851000D01*
X109106000Y-43948000D02*
X109106000Y-47654000D01*
X109106000Y-50136000D02*
X109106000Y-53842000D01*
X109146000Y-43957000D02*
X109146000Y-47654000D01*
X109146000Y-50136000D02*
X109146000Y-53833000D01*
X109186000Y-43967000D02*
X109186000Y-47654000D01*
X109186000Y-50136000D02*
X109186000Y-53823000D01*
X109226000Y-43977000D02*
X109226000Y-47654000D01*
X109226000Y-50136000D02*
X109226000Y-53813000D01*
X109266000Y-43988000D02*
X109266000Y-47654000D01*
X109266000Y-50136000D02*
X109266000Y-53802000D01*
X109306000Y-43998000D02*
X109306000Y-47654000D01*
X109306000Y-50136000D02*
X109306000Y-53792000D01*
X109346000Y-44010000D02*
X109346000Y-47654000D01*
X109346000Y-50136000D02*
X109346000Y-53780000D01*
X109386000Y-44021000D02*
X109386000Y-47654000D01*
X109386000Y-50136000D02*
X109386000Y-53769000D01*
X109426000Y-44033000D02*
X109426000Y-47654000D01*
X109426000Y-50136000D02*
X109426000Y-53757000D01*
X109466000Y-44045000D02*
X109466000Y-47654000D01*
X109466000Y-50136000D02*
X109466000Y-53745000D01*
X109506000Y-44058000D02*
X109506000Y-47654000D01*
X109506000Y-50136000D02*
X109506000Y-53732000D01*
X109546000Y-44071000D02*
X109546000Y-47654000D01*
X109546000Y-50136000D02*
X109546000Y-53719000D01*
X109586000Y-44084000D02*
X109586000Y-47654000D01*
X109586000Y-50136000D02*
X109586000Y-53706000D01*
X109626000Y-44098000D02*
X109626000Y-47654000D01*
X109626000Y-50136000D02*
X109626000Y-53692000D01*
X109666000Y-44112000D02*
X109666000Y-47654000D01*
X109666000Y-50136000D02*
X109666000Y-53678000D01*
X109706000Y-44127000D02*
X109706000Y-47654000D01*
X109706000Y-50136000D02*
X109706000Y-53663000D01*
X109746000Y-44141000D02*
X109746000Y-47654000D01*
X109746000Y-50136000D02*
X109746000Y-53649000D01*
X109786000Y-44157000D02*
X109786000Y-47654000D01*
X109786000Y-50136000D02*
X109786000Y-53633000D01*
X109826000Y-44172000D02*
X109826000Y-47654000D01*
X109826000Y-50136000D02*
X109826000Y-53618000D01*
X109866000Y-44188000D02*
X109866000Y-47654000D01*
X109866000Y-50136000D02*
X109866000Y-53602000D01*
X109906000Y-44205000D02*
X109906000Y-47654000D01*
X109906000Y-50136000D02*
X109906000Y-53585000D01*
X109946000Y-44221000D02*
X109946000Y-47654000D01*
X109946000Y-50136000D02*
X109946000Y-53569000D01*
X109986000Y-44238000D02*
X109986000Y-47654000D01*
X109986000Y-50136000D02*
X109986000Y-53552000D01*
X110026000Y-44256000D02*
X110026000Y-47654000D01*
X110026000Y-50136000D02*
X110026000Y-53534000D01*
X110066000Y-44274000D02*
X110066000Y-47654000D01*
X110066000Y-50136000D02*
X110066000Y-53516000D01*
X110106000Y-44292000D02*
X110106000Y-47654000D01*
X110106000Y-50136000D02*
X110106000Y-53498000D01*
X110146000Y-44311000D02*
X110146000Y-47654000D01*
X110146000Y-50136000D02*
X110146000Y-53479000D01*
X110186000Y-44331000D02*
X110186000Y-47654000D01*
X110186000Y-50136000D02*
X110186000Y-53459000D01*
X110226000Y-44350000D02*
X110226000Y-47654000D01*
X110226000Y-50136000D02*
X110226000Y-53440000D01*
X110266000Y-44370000D02*
X110266000Y-47654000D01*
X110266000Y-50136000D02*
X110266000Y-53420000D01*
X110306000Y-44391000D02*
X110306000Y-47654000D01*
X110306000Y-50136000D02*
X110306000Y-53399000D01*
X110346000Y-44412000D02*
X110346000Y-47654000D01*
X110346000Y-50136000D02*
X110346000Y-53378000D01*
X110386000Y-44433000D02*
X110386000Y-47654000D01*
X110386000Y-50136000D02*
X110386000Y-53357000D01*
X110426000Y-44455000D02*
X110426000Y-47654000D01*
X110426000Y-50136000D02*
X110426000Y-53335000D01*
X110466000Y-44478000D02*
X110466000Y-47654000D01*
X110466000Y-50136000D02*
X110466000Y-53312000D01*
X110506000Y-44500000D02*
X110506000Y-47654000D01*
X110506000Y-50136000D02*
X110506000Y-53290000D01*
X110546000Y-44524000D02*
X110546000Y-47654000D01*
X110546000Y-50136000D02*
X110546000Y-53266000D01*
X110586000Y-44548000D02*
X110586000Y-47654000D01*
X110586000Y-50136000D02*
X110586000Y-53242000D01*
X110626000Y-44572000D02*
X110626000Y-47654000D01*
X110626000Y-50136000D02*
X110626000Y-53218000D01*
X110666000Y-44597000D02*
X110666000Y-47654000D01*
X110666000Y-50136000D02*
X110666000Y-53193000D01*
X110706000Y-44622000D02*
X110706000Y-47654000D01*
X110706000Y-50136000D02*
X110706000Y-53168000D01*
X110746000Y-44648000D02*
X110746000Y-47654000D01*
X110746000Y-50136000D02*
X110746000Y-53142000D01*
X110786000Y-44674000D02*
X110786000Y-47654000D01*
X110786000Y-50136000D02*
X110786000Y-53116000D01*
X110826000Y-44701000D02*
X110826000Y-47654000D01*
X110826000Y-50136000D02*
X110826000Y-53089000D01*
X110866000Y-44729000D02*
X110866000Y-47654000D01*
X110866000Y-50136000D02*
X110866000Y-53061000D01*
X110906000Y-44757000D02*
X110906000Y-47654000D01*
X110906000Y-50136000D02*
X110906000Y-53033000D01*
X110946000Y-44785000D02*
X110946000Y-47654000D01*
X110946000Y-50136000D02*
X110946000Y-53005000D01*
X110986000Y-44815000D02*
X110986000Y-47654000D01*
X110986000Y-50136000D02*
X110986000Y-52975000D01*
X111026000Y-44845000D02*
X111026000Y-47654000D01*
X111026000Y-50136000D02*
X111026000Y-52945000D01*
X111066000Y-44875000D02*
X111066000Y-47654000D01*
X111066000Y-50136000D02*
X111066000Y-52915000D01*
X111106000Y-44906000D02*
X111106000Y-52884000D01*
X111146000Y-44938000D02*
X111146000Y-52852000D01*
X111186000Y-44970000D02*
X111186000Y-52820000D01*
X111226000Y-45003000D02*
X111226000Y-52787000D01*
X111266000Y-45037000D02*
X111266000Y-52753000D01*
X111306000Y-45071000D02*
X111306000Y-52719000D01*
X111346000Y-45106000D02*
X111346000Y-52684000D01*
X111386000Y-45142000D02*
X111386000Y-52648000D01*
X111426000Y-45179000D02*
X111426000Y-52611000D01*
X111466000Y-45216000D02*
X111466000Y-52574000D01*
X111506000Y-45255000D02*
X111506000Y-52535000D01*
X111546000Y-45294000D02*
X111546000Y-52496000D01*
X111586000Y-45334000D02*
X111586000Y-52456000D01*
X111626000Y-45375000D02*
X111626000Y-52415000D01*
X111666000Y-45417000D02*
X111666000Y-52373000D01*
X111706000Y-45459000D02*
X111706000Y-52331000D01*
X111746000Y-45503000D02*
X111746000Y-52287000D01*
X111786000Y-45548000D02*
X111786000Y-52242000D01*
X111826000Y-45594000D02*
X111826000Y-52196000D01*
X111866000Y-45641000D02*
X111866000Y-52149000D01*
X111906000Y-45689000D02*
X111906000Y-52101000D01*
X111946000Y-45739000D02*
X111946000Y-52051000D01*
X111986000Y-45789000D02*
X111986000Y-52001000D01*
X112026000Y-45841000D02*
X112026000Y-51949000D01*
X112066000Y-45895000D02*
X112066000Y-51895000D01*
X112106000Y-45950000D02*
X112106000Y-51840000D01*
X112146000Y-46006000D02*
X112146000Y-51784000D01*
X112186000Y-46065000D02*
X112186000Y-51725000D01*
X112226000Y-46125000D02*
X112226000Y-51665000D01*
X112266000Y-46186000D02*
X112266000Y-51604000D01*
X112306000Y-46250000D02*
X112306000Y-51540000D01*
X112346000Y-46316000D02*
X112346000Y-51474000D01*
X112386000Y-46385000D02*
X112386000Y-51405000D01*
X112426000Y-46456000D02*
X112426000Y-51334000D01*
X112466000Y-46530000D02*
X112466000Y-51260000D01*
X112506000Y-46606000D02*
X112506000Y-51184000D01*
X112546000Y-46686000D02*
X112546000Y-51104000D01*
X112586000Y-46770000D02*
X112586000Y-51020000D01*
X112626000Y-46858000D02*
X112626000Y-50932000D01*
X112666000Y-46951000D02*
X112666000Y-50839000D01*
X112706000Y-47049000D02*
X112706000Y-50741000D01*
X112746000Y-47153000D02*
X112746000Y-50637000D01*
X112786000Y-47265000D02*
X112786000Y-50525000D01*
X112826000Y-47385000D02*
X112826000Y-50405000D01*
X112866000Y-47517000D02*
X112866000Y-50273000D01*
X112906000Y-47665000D02*
X112906000Y-50125000D01*
X112946000Y-47833000D02*
X112946000Y-49957000D01*
X112986000Y-48033000D02*
X112986000Y-49757000D01*
X113026000Y-48296000D02*
X113026000Y-49494000D01*
X102465354Y-46020000D02*
X103465354Y-46020000D01*
X102965354Y-45520000D02*
X102965354Y-46520000D01*
X102965354Y-72190000D02*
X102965354Y-73190000D01*
X102465354Y-72690000D02*
X103465354Y-72690000D01*
X113026000Y-74966000D02*
X113026000Y-76164000D01*
X112986000Y-74703000D02*
X112986000Y-76427000D01*
X112946000Y-74503000D02*
X112946000Y-76627000D01*
X112906000Y-74335000D02*
X112906000Y-76795000D01*
X112866000Y-74187000D02*
X112866000Y-76943000D01*
X112826000Y-74055000D02*
X112826000Y-77075000D01*
X112786000Y-73935000D02*
X112786000Y-77195000D01*
X112746000Y-73823000D02*
X112746000Y-77307000D01*
X112706000Y-73719000D02*
X112706000Y-77411000D01*
X112666000Y-73621000D02*
X112666000Y-77509000D01*
X112626000Y-73528000D02*
X112626000Y-77602000D01*
X112586000Y-73440000D02*
X112586000Y-77690000D01*
X112546000Y-73356000D02*
X112546000Y-77774000D01*
X112506000Y-73276000D02*
X112506000Y-77854000D01*
X112466000Y-73200000D02*
X112466000Y-77930000D01*
X112426000Y-73126000D02*
X112426000Y-78004000D01*
X112386000Y-73055000D02*
X112386000Y-78075000D01*
X112346000Y-72986000D02*
X112346000Y-78144000D01*
X112306000Y-72920000D02*
X112306000Y-78210000D01*
X112266000Y-72856000D02*
X112266000Y-78274000D01*
X112226000Y-72795000D02*
X112226000Y-78335000D01*
X112186000Y-72735000D02*
X112186000Y-78395000D01*
X112146000Y-72676000D02*
X112146000Y-78454000D01*
X112106000Y-72620000D02*
X112106000Y-78510000D01*
X112066000Y-72565000D02*
X112066000Y-78565000D01*
X112026000Y-72511000D02*
X112026000Y-78619000D01*
X111986000Y-72459000D02*
X111986000Y-78671000D01*
X111946000Y-72409000D02*
X111946000Y-78721000D01*
X111906000Y-72359000D02*
X111906000Y-78771000D01*
X111866000Y-72311000D02*
X111866000Y-78819000D01*
X111826000Y-72264000D02*
X111826000Y-78866000D01*
X111786000Y-72218000D02*
X111786000Y-78912000D01*
X111746000Y-72173000D02*
X111746000Y-78957000D01*
X111706000Y-72129000D02*
X111706000Y-79001000D01*
X111666000Y-72087000D02*
X111666000Y-79043000D01*
X111626000Y-72045000D02*
X111626000Y-79085000D01*
X111586000Y-72004000D02*
X111586000Y-79126000D01*
X111546000Y-71964000D02*
X111546000Y-79166000D01*
X111506000Y-71925000D02*
X111506000Y-79205000D01*
X111466000Y-71886000D02*
X111466000Y-79244000D01*
X111426000Y-71849000D02*
X111426000Y-79281000D01*
X111386000Y-71812000D02*
X111386000Y-79318000D01*
X111346000Y-71776000D02*
X111346000Y-79354000D01*
X111306000Y-71741000D02*
X111306000Y-79389000D01*
X111266000Y-71707000D02*
X111266000Y-79423000D01*
X111226000Y-71673000D02*
X111226000Y-79457000D01*
X111186000Y-71640000D02*
X111186000Y-79490000D01*
X111146000Y-71608000D02*
X111146000Y-79522000D01*
X111106000Y-71576000D02*
X111106000Y-79554000D01*
X111066000Y-76806000D02*
X111066000Y-79585000D01*
X111066000Y-71545000D02*
X111066000Y-74324000D01*
X111026000Y-76806000D02*
X111026000Y-79615000D01*
X111026000Y-71515000D02*
X111026000Y-74324000D01*
X110986000Y-76806000D02*
X110986000Y-79645000D01*
X110986000Y-71485000D02*
X110986000Y-74324000D01*
X110946000Y-76806000D02*
X110946000Y-79675000D01*
X110946000Y-71455000D02*
X110946000Y-74324000D01*
X110906000Y-76806000D02*
X110906000Y-79703000D01*
X110906000Y-71427000D02*
X110906000Y-74324000D01*
X110866000Y-76806000D02*
X110866000Y-79731000D01*
X110866000Y-71399000D02*
X110866000Y-74324000D01*
X110826000Y-76806000D02*
X110826000Y-79759000D01*
X110826000Y-71371000D02*
X110826000Y-74324000D01*
X110786000Y-76806000D02*
X110786000Y-79786000D01*
X110786000Y-71344000D02*
X110786000Y-74324000D01*
X110746000Y-76806000D02*
X110746000Y-79812000D01*
X110746000Y-71318000D02*
X110746000Y-74324000D01*
X110706000Y-76806000D02*
X110706000Y-79838000D01*
X110706000Y-71292000D02*
X110706000Y-74324000D01*
X110666000Y-76806000D02*
X110666000Y-79863000D01*
X110666000Y-71267000D02*
X110666000Y-74324000D01*
X110626000Y-76806000D02*
X110626000Y-79888000D01*
X110626000Y-71242000D02*
X110626000Y-74324000D01*
X110586000Y-76806000D02*
X110586000Y-79912000D01*
X110586000Y-71218000D02*
X110586000Y-74324000D01*
X110546000Y-76806000D02*
X110546000Y-79936000D01*
X110546000Y-71194000D02*
X110546000Y-74324000D01*
X110506000Y-76806000D02*
X110506000Y-79960000D01*
X110506000Y-71170000D02*
X110506000Y-74324000D01*
X110466000Y-76806000D02*
X110466000Y-79982000D01*
X110466000Y-71148000D02*
X110466000Y-74324000D01*
X110426000Y-76806000D02*
X110426000Y-80005000D01*
X110426000Y-71125000D02*
X110426000Y-74324000D01*
X110386000Y-76806000D02*
X110386000Y-80027000D01*
X110386000Y-71103000D02*
X110386000Y-74324000D01*
X110346000Y-76806000D02*
X110346000Y-80048000D01*
X110346000Y-71082000D02*
X110346000Y-74324000D01*
X110306000Y-76806000D02*
X110306000Y-80069000D01*
X110306000Y-71061000D02*
X110306000Y-74324000D01*
X110266000Y-76806000D02*
X110266000Y-80090000D01*
X110266000Y-71040000D02*
X110266000Y-74324000D01*
X110226000Y-76806000D02*
X110226000Y-80110000D01*
X110226000Y-71020000D02*
X110226000Y-74324000D01*
X110186000Y-76806000D02*
X110186000Y-80129000D01*
X110186000Y-71001000D02*
X110186000Y-74324000D01*
X110146000Y-76806000D02*
X110146000Y-80149000D01*
X110146000Y-70981000D02*
X110146000Y-74324000D01*
X110106000Y-76806000D02*
X110106000Y-80168000D01*
X110106000Y-70962000D02*
X110106000Y-74324000D01*
X110066000Y-76806000D02*
X110066000Y-80186000D01*
X110066000Y-70944000D02*
X110066000Y-74324000D01*
X110026000Y-76806000D02*
X110026000Y-80204000D01*
X110026000Y-70926000D02*
X110026000Y-74324000D01*
X109986000Y-76806000D02*
X109986000Y-80222000D01*
X109986000Y-70908000D02*
X109986000Y-74324000D01*
X109946000Y-76806000D02*
X109946000Y-80239000D01*
X109946000Y-70891000D02*
X109946000Y-74324000D01*
X109906000Y-76806000D02*
X109906000Y-80255000D01*
X109906000Y-70875000D02*
X109906000Y-74324000D01*
X109866000Y-76806000D02*
X109866000Y-80272000D01*
X109866000Y-70858000D02*
X109866000Y-74324000D01*
X109826000Y-76806000D02*
X109826000Y-80288000D01*
X109826000Y-70842000D02*
X109826000Y-74324000D01*
X109786000Y-76806000D02*
X109786000Y-80303000D01*
X109786000Y-70827000D02*
X109786000Y-74324000D01*
X109746000Y-76806000D02*
X109746000Y-80319000D01*
X109746000Y-70811000D02*
X109746000Y-74324000D01*
X109706000Y-76806000D02*
X109706000Y-80333000D01*
X109706000Y-70797000D02*
X109706000Y-74324000D01*
X109666000Y-76806000D02*
X109666000Y-80348000D01*
X109666000Y-70782000D02*
X109666000Y-74324000D01*
X109626000Y-76806000D02*
X109626000Y-80362000D01*
X109626000Y-70768000D02*
X109626000Y-74324000D01*
X109586000Y-76806000D02*
X109586000Y-80376000D01*
X109586000Y-70754000D02*
X109586000Y-74324000D01*
X109546000Y-76806000D02*
X109546000Y-80389000D01*
X109546000Y-70741000D02*
X109546000Y-74324000D01*
X109506000Y-76806000D02*
X109506000Y-80402000D01*
X109506000Y-70728000D02*
X109506000Y-74324000D01*
X109466000Y-76806000D02*
X109466000Y-80415000D01*
X109466000Y-70715000D02*
X109466000Y-74324000D01*
X109426000Y-76806000D02*
X109426000Y-80427000D01*
X109426000Y-70703000D02*
X109426000Y-74324000D01*
X109386000Y-76806000D02*
X109386000Y-80439000D01*
X109386000Y-70691000D02*
X109386000Y-74324000D01*
X109346000Y-76806000D02*
X109346000Y-80450000D01*
X109346000Y-70680000D02*
X109346000Y-74324000D01*
X109306000Y-76806000D02*
X109306000Y-80462000D01*
X109306000Y-70668000D02*
X109306000Y-74324000D01*
X109266000Y-76806000D02*
X109266000Y-80472000D01*
X109266000Y-70658000D02*
X109266000Y-74324000D01*
X109226000Y-76806000D02*
X109226000Y-80483000D01*
X109226000Y-70647000D02*
X109226000Y-74324000D01*
X109186000Y-76806000D02*
X109186000Y-80493000D01*
X109186000Y-70637000D02*
X109186000Y-74324000D01*
X109146000Y-76806000D02*
X109146000Y-80503000D01*
X109146000Y-70627000D02*
X109146000Y-74324000D01*
X109106000Y-76806000D02*
X109106000Y-80512000D01*
X109106000Y-70618000D02*
X109106000Y-74324000D01*
X109066000Y-76806000D02*
X109066000Y-80521000D01*
X109066000Y-70609000D02*
X109066000Y-74324000D01*
X109026000Y-76806000D02*
X109026000Y-80530000D01*
X109026000Y-70600000D02*
X109026000Y-74324000D01*
X108986000Y-76806000D02*
X108986000Y-80539000D01*
X108986000Y-70591000D02*
X108986000Y-74324000D01*
X108946000Y-76806000D02*
X108946000Y-80547000D01*
X108946000Y-70583000D02*
X108946000Y-74324000D01*
X108906000Y-76806000D02*
X108906000Y-80555000D01*
X108906000Y-70575000D02*
X108906000Y-74324000D01*
X108866000Y-76806000D02*
X108866000Y-80562000D01*
X108866000Y-70568000D02*
X108866000Y-74324000D01*
X108826000Y-76806000D02*
X108826000Y-80569000D01*
X108826000Y-70561000D02*
X108826000Y-74324000D01*
X108786000Y-76806000D02*
X108786000Y-80576000D01*
X108786000Y-70554000D02*
X108786000Y-74324000D01*
X108746000Y-76806000D02*
X108746000Y-80583000D01*
X108746000Y-70547000D02*
X108746000Y-74324000D01*
X108706000Y-76806000D02*
X108706000Y-80589000D01*
X108706000Y-70541000D02*
X108706000Y-74324000D01*
X108666000Y-76806000D02*
X108666000Y-80595000D01*
X108666000Y-70535000D02*
X108666000Y-74324000D01*
X108625000Y-76806000D02*
X108625000Y-80600000D01*
X108625000Y-70530000D02*
X108625000Y-74324000D01*
X108585000Y-70525000D02*
X108585000Y-80605000D01*
X108545000Y-70520000D02*
X108545000Y-80610000D01*
X108505000Y-70515000D02*
X108505000Y-80615000D01*
X108465000Y-70511000D02*
X108465000Y-80619000D01*
X108425000Y-70507000D02*
X108425000Y-80623000D01*
X108385000Y-70503000D02*
X108385000Y-80627000D01*
X108345000Y-70500000D02*
X108345000Y-80630000D01*
X108305000Y-70497000D02*
X108305000Y-80633000D01*
X108265000Y-70495000D02*
X108265000Y-80635000D01*
X108225000Y-70492000D02*
X108225000Y-80638000D01*
X108185000Y-70490000D02*
X108185000Y-80640000D01*
X108145000Y-70488000D02*
X108145000Y-80642000D01*
X108105000Y-70487000D02*
X108105000Y-80643000D01*
X108065000Y-70486000D02*
X108065000Y-80644000D01*
X108025000Y-70485000D02*
X108025000Y-80645000D01*
X107985000Y-70485000D02*
X107985000Y-80645000D01*
X107945000Y-70485000D02*
X107945000Y-80645000D01*
X113065000Y-75565000D02*
G75*
G03X113065000Y-75565000I-5120000J0D01*
G01*
X113065000Y-62230000D02*
G75*
G03X113065000Y-62230000I-5120000J0D01*
G01*
X107945000Y-57150000D02*
X107945000Y-67310000D01*
X107985000Y-57150000D02*
X107985000Y-67310000D01*
X108025000Y-57150000D02*
X108025000Y-67310000D01*
X108065000Y-57151000D02*
X108065000Y-67309000D01*
X108105000Y-57152000D02*
X108105000Y-67308000D01*
X108145000Y-57153000D02*
X108145000Y-67307000D01*
X108185000Y-57155000D02*
X108185000Y-67305000D01*
X108225000Y-57157000D02*
X108225000Y-67303000D01*
X108265000Y-57160000D02*
X108265000Y-67300000D01*
X108305000Y-57162000D02*
X108305000Y-67298000D01*
X108345000Y-57165000D02*
X108345000Y-67295000D01*
X108385000Y-57168000D02*
X108385000Y-67292000D01*
X108425000Y-57172000D02*
X108425000Y-67288000D01*
X108465000Y-57176000D02*
X108465000Y-67284000D01*
X108505000Y-57180000D02*
X108505000Y-67280000D01*
X108545000Y-57185000D02*
X108545000Y-67275000D01*
X108585000Y-57190000D02*
X108585000Y-67270000D01*
X108625000Y-57195000D02*
X108625000Y-60989000D01*
X108625000Y-63471000D02*
X108625000Y-67265000D01*
X108666000Y-57200000D02*
X108666000Y-60989000D01*
X108666000Y-63471000D02*
X108666000Y-67260000D01*
X108706000Y-57206000D02*
X108706000Y-60989000D01*
X108706000Y-63471000D02*
X108706000Y-67254000D01*
X108746000Y-57212000D02*
X108746000Y-60989000D01*
X108746000Y-63471000D02*
X108746000Y-67248000D01*
X108786000Y-57219000D02*
X108786000Y-60989000D01*
X108786000Y-63471000D02*
X108786000Y-67241000D01*
X108826000Y-57226000D02*
X108826000Y-60989000D01*
X108826000Y-63471000D02*
X108826000Y-67234000D01*
X108866000Y-57233000D02*
X108866000Y-60989000D01*
X108866000Y-63471000D02*
X108866000Y-67227000D01*
X108906000Y-57240000D02*
X108906000Y-60989000D01*
X108906000Y-63471000D02*
X108906000Y-67220000D01*
X108946000Y-57248000D02*
X108946000Y-60989000D01*
X108946000Y-63471000D02*
X108946000Y-67212000D01*
X108986000Y-57256000D02*
X108986000Y-60989000D01*
X108986000Y-63471000D02*
X108986000Y-67204000D01*
X109026000Y-57265000D02*
X109026000Y-60989000D01*
X109026000Y-63471000D02*
X109026000Y-67195000D01*
X109066000Y-57274000D02*
X109066000Y-60989000D01*
X109066000Y-63471000D02*
X109066000Y-67186000D01*
X109106000Y-57283000D02*
X109106000Y-60989000D01*
X109106000Y-63471000D02*
X109106000Y-67177000D01*
X109146000Y-57292000D02*
X109146000Y-60989000D01*
X109146000Y-63471000D02*
X109146000Y-67168000D01*
X109186000Y-57302000D02*
X109186000Y-60989000D01*
X109186000Y-63471000D02*
X109186000Y-67158000D01*
X109226000Y-57312000D02*
X109226000Y-60989000D01*
X109226000Y-63471000D02*
X109226000Y-67148000D01*
X109266000Y-57323000D02*
X109266000Y-60989000D01*
X109266000Y-63471000D02*
X109266000Y-67137000D01*
X109306000Y-57333000D02*
X109306000Y-60989000D01*
X109306000Y-63471000D02*
X109306000Y-67127000D01*
X109346000Y-57345000D02*
X109346000Y-60989000D01*
X109346000Y-63471000D02*
X109346000Y-67115000D01*
X109386000Y-57356000D02*
X109386000Y-60989000D01*
X109386000Y-63471000D02*
X109386000Y-67104000D01*
X109426000Y-57368000D02*
X109426000Y-60989000D01*
X109426000Y-63471000D02*
X109426000Y-67092000D01*
X109466000Y-57380000D02*
X109466000Y-60989000D01*
X109466000Y-63471000D02*
X109466000Y-67080000D01*
X109506000Y-57393000D02*
X109506000Y-60989000D01*
X109506000Y-63471000D02*
X109506000Y-67067000D01*
X109546000Y-57406000D02*
X109546000Y-60989000D01*
X109546000Y-63471000D02*
X109546000Y-67054000D01*
X109586000Y-57419000D02*
X109586000Y-60989000D01*
X109586000Y-63471000D02*
X109586000Y-67041000D01*
X109626000Y-57433000D02*
X109626000Y-60989000D01*
X109626000Y-63471000D02*
X109626000Y-67027000D01*
X109666000Y-57447000D02*
X109666000Y-60989000D01*
X109666000Y-63471000D02*
X109666000Y-67013000D01*
X109706000Y-57462000D02*
X109706000Y-60989000D01*
X109706000Y-63471000D02*
X109706000Y-66998000D01*
X109746000Y-57476000D02*
X109746000Y-60989000D01*
X109746000Y-63471000D02*
X109746000Y-66984000D01*
X109786000Y-57492000D02*
X109786000Y-60989000D01*
X109786000Y-63471000D02*
X109786000Y-66968000D01*
X109826000Y-57507000D02*
X109826000Y-60989000D01*
X109826000Y-63471000D02*
X109826000Y-66953000D01*
X109866000Y-57523000D02*
X109866000Y-60989000D01*
X109866000Y-63471000D02*
X109866000Y-66937000D01*
X109906000Y-57540000D02*
X109906000Y-60989000D01*
X109906000Y-63471000D02*
X109906000Y-66920000D01*
X109946000Y-57556000D02*
X109946000Y-60989000D01*
X109946000Y-63471000D02*
X109946000Y-66904000D01*
X109986000Y-57573000D02*
X109986000Y-60989000D01*
X109986000Y-63471000D02*
X109986000Y-66887000D01*
X110026000Y-57591000D02*
X110026000Y-60989000D01*
X110026000Y-63471000D02*
X110026000Y-66869000D01*
X110066000Y-57609000D02*
X110066000Y-60989000D01*
X110066000Y-63471000D02*
X110066000Y-66851000D01*
X110106000Y-57627000D02*
X110106000Y-60989000D01*
X110106000Y-63471000D02*
X110106000Y-66833000D01*
X110146000Y-57646000D02*
X110146000Y-60989000D01*
X110146000Y-63471000D02*
X110146000Y-66814000D01*
X110186000Y-57666000D02*
X110186000Y-60989000D01*
X110186000Y-63471000D02*
X110186000Y-66794000D01*
X110226000Y-57685000D02*
X110226000Y-60989000D01*
X110226000Y-63471000D02*
X110226000Y-66775000D01*
X110266000Y-57705000D02*
X110266000Y-60989000D01*
X110266000Y-63471000D02*
X110266000Y-66755000D01*
X110306000Y-57726000D02*
X110306000Y-60989000D01*
X110306000Y-63471000D02*
X110306000Y-66734000D01*
X110346000Y-57747000D02*
X110346000Y-60989000D01*
X110346000Y-63471000D02*
X110346000Y-66713000D01*
X110386000Y-57768000D02*
X110386000Y-60989000D01*
X110386000Y-63471000D02*
X110386000Y-66692000D01*
X110426000Y-57790000D02*
X110426000Y-60989000D01*
X110426000Y-63471000D02*
X110426000Y-66670000D01*
X110466000Y-57813000D02*
X110466000Y-60989000D01*
X110466000Y-63471000D02*
X110466000Y-66647000D01*
X110506000Y-57835000D02*
X110506000Y-60989000D01*
X110506000Y-63471000D02*
X110506000Y-66625000D01*
X110546000Y-57859000D02*
X110546000Y-60989000D01*
X110546000Y-63471000D02*
X110546000Y-66601000D01*
X110586000Y-57883000D02*
X110586000Y-60989000D01*
X110586000Y-63471000D02*
X110586000Y-66577000D01*
X110626000Y-57907000D02*
X110626000Y-60989000D01*
X110626000Y-63471000D02*
X110626000Y-66553000D01*
X110666000Y-57932000D02*
X110666000Y-60989000D01*
X110666000Y-63471000D02*
X110666000Y-66528000D01*
X110706000Y-57957000D02*
X110706000Y-60989000D01*
X110706000Y-63471000D02*
X110706000Y-66503000D01*
X110746000Y-57983000D02*
X110746000Y-60989000D01*
X110746000Y-63471000D02*
X110746000Y-66477000D01*
X110786000Y-58009000D02*
X110786000Y-60989000D01*
X110786000Y-63471000D02*
X110786000Y-66451000D01*
X110826000Y-58036000D02*
X110826000Y-60989000D01*
X110826000Y-63471000D02*
X110826000Y-66424000D01*
X110866000Y-58064000D02*
X110866000Y-60989000D01*
X110866000Y-63471000D02*
X110866000Y-66396000D01*
X110906000Y-58092000D02*
X110906000Y-60989000D01*
X110906000Y-63471000D02*
X110906000Y-66368000D01*
X110946000Y-58120000D02*
X110946000Y-60989000D01*
X110946000Y-63471000D02*
X110946000Y-66340000D01*
X110986000Y-58150000D02*
X110986000Y-60989000D01*
X110986000Y-63471000D02*
X110986000Y-66310000D01*
X111026000Y-58180000D02*
X111026000Y-60989000D01*
X111026000Y-63471000D02*
X111026000Y-66280000D01*
X111066000Y-58210000D02*
X111066000Y-60989000D01*
X111066000Y-63471000D02*
X111066000Y-66250000D01*
X111106000Y-58241000D02*
X111106000Y-66219000D01*
X111146000Y-58273000D02*
X111146000Y-66187000D01*
X111186000Y-58305000D02*
X111186000Y-66155000D01*
X111226000Y-58338000D02*
X111226000Y-66122000D01*
X111266000Y-58372000D02*
X111266000Y-66088000D01*
X111306000Y-58406000D02*
X111306000Y-66054000D01*
X111346000Y-58441000D02*
X111346000Y-66019000D01*
X111386000Y-58477000D02*
X111386000Y-65983000D01*
X111426000Y-58514000D02*
X111426000Y-65946000D01*
X111466000Y-58551000D02*
X111466000Y-65909000D01*
X111506000Y-58590000D02*
X111506000Y-65870000D01*
X111546000Y-58629000D02*
X111546000Y-65831000D01*
X111586000Y-58669000D02*
X111586000Y-65791000D01*
X111626000Y-58710000D02*
X111626000Y-65750000D01*
X111666000Y-58752000D02*
X111666000Y-65708000D01*
X111706000Y-58794000D02*
X111706000Y-65666000D01*
X111746000Y-58838000D02*
X111746000Y-65622000D01*
X111786000Y-58883000D02*
X111786000Y-65577000D01*
X111826000Y-58929000D02*
X111826000Y-65531000D01*
X111866000Y-58976000D02*
X111866000Y-65484000D01*
X111906000Y-59024000D02*
X111906000Y-65436000D01*
X111946000Y-59074000D02*
X111946000Y-65386000D01*
X111986000Y-59124000D02*
X111986000Y-65336000D01*
X112026000Y-59176000D02*
X112026000Y-65284000D01*
X112066000Y-59230000D02*
X112066000Y-65230000D01*
X112106000Y-59285000D02*
X112106000Y-65175000D01*
X112146000Y-59341000D02*
X112146000Y-65119000D01*
X112186000Y-59400000D02*
X112186000Y-65060000D01*
X112226000Y-59460000D02*
X112226000Y-65000000D01*
X112266000Y-59521000D02*
X112266000Y-64939000D01*
X112306000Y-59585000D02*
X112306000Y-64875000D01*
X112346000Y-59651000D02*
X112346000Y-64809000D01*
X112386000Y-59720000D02*
X112386000Y-64740000D01*
X112426000Y-59791000D02*
X112426000Y-64669000D01*
X112466000Y-59865000D02*
X112466000Y-64595000D01*
X112506000Y-59941000D02*
X112506000Y-64519000D01*
X112546000Y-60021000D02*
X112546000Y-64439000D01*
X112586000Y-60105000D02*
X112586000Y-64355000D01*
X112626000Y-60193000D02*
X112626000Y-64267000D01*
X112666000Y-60286000D02*
X112666000Y-64174000D01*
X112706000Y-60384000D02*
X112706000Y-64076000D01*
X112746000Y-60488000D02*
X112746000Y-63972000D01*
X112786000Y-60600000D02*
X112786000Y-63860000D01*
X112826000Y-60720000D02*
X112826000Y-63740000D01*
X112866000Y-60852000D02*
X112866000Y-63608000D01*
X112906000Y-61000000D02*
X112906000Y-63460000D01*
X112946000Y-61168000D02*
X112946000Y-63292000D01*
X112986000Y-61368000D02*
X112986000Y-63092000D01*
X113026000Y-61631000D02*
X113026000Y-62829000D01*
X102465354Y-59355000D02*
X103465354Y-59355000D01*
X102965354Y-58855000D02*
X102965354Y-59855000D01*
X99155000Y-87630000D02*
G75*
G03X99155000Y-87630000I-7120000J0D01*
G01*
X92035000Y-80550000D02*
X92035000Y-94710000D01*
X92075000Y-80550000D02*
X92075000Y-94710000D01*
X92115000Y-80550000D02*
X92115000Y-94710000D01*
X92155000Y-80551000D02*
X92155000Y-94709000D01*
X92195000Y-80551000D02*
X92195000Y-94709000D01*
X92235000Y-80552000D02*
X92235000Y-94708000D01*
X92275000Y-80554000D02*
X92275000Y-94706000D01*
X92315000Y-80555000D02*
X92315000Y-94705000D01*
X92355000Y-80557000D02*
X92355000Y-94703000D01*
X92395000Y-80559000D02*
X92395000Y-94701000D01*
X92435000Y-80561000D02*
X92435000Y-94699000D01*
X92475000Y-80563000D02*
X92475000Y-94697000D01*
X92515000Y-80566000D02*
X92515000Y-94694000D01*
X92555000Y-80569000D02*
X92555000Y-94691000D01*
X92595000Y-80572000D02*
X92595000Y-94688000D01*
X92635000Y-80575000D02*
X92635000Y-94685000D01*
X92675000Y-80578000D02*
X92675000Y-94682000D01*
X92715000Y-80582000D02*
X92715000Y-94678000D01*
X92756000Y-80586000D02*
X92756000Y-94674000D01*
X92796000Y-80590000D02*
X92796000Y-94670000D01*
X92836000Y-80595000D02*
X92836000Y-94665000D01*
X92876000Y-80599000D02*
X92876000Y-94661000D01*
X92916000Y-80604000D02*
X92916000Y-94656000D01*
X92956000Y-80609000D02*
X92956000Y-94651000D01*
X92996000Y-80615000D02*
X92996000Y-94645000D01*
X93036000Y-80620000D02*
X93036000Y-94640000D01*
X93076000Y-80626000D02*
X93076000Y-94634000D01*
X93116000Y-80632000D02*
X93116000Y-86190000D01*
X93116000Y-89070000D02*
X93116000Y-94628000D01*
X93156000Y-80638000D02*
X93156000Y-86190000D01*
X93156000Y-89070000D02*
X93156000Y-94622000D01*
X93196000Y-80645000D02*
X93196000Y-86190000D01*
X93196000Y-89070000D02*
X93196000Y-94615000D01*
X93236000Y-80651000D02*
X93236000Y-86190000D01*
X93236000Y-89070000D02*
X93236000Y-94609000D01*
X93276000Y-80658000D02*
X93276000Y-86190000D01*
X93276000Y-89070000D02*
X93276000Y-94602000D01*
X93316000Y-80666000D02*
X93316000Y-86190000D01*
X93316000Y-89070000D02*
X93316000Y-94594000D01*
X93356000Y-80673000D02*
X93356000Y-86190000D01*
X93356000Y-89070000D02*
X93356000Y-94587000D01*
X93396000Y-80681000D02*
X93396000Y-86190000D01*
X93396000Y-89070000D02*
X93396000Y-94579000D01*
X93436000Y-80688000D02*
X93436000Y-86190000D01*
X93436000Y-89070000D02*
X93436000Y-94572000D01*
X93476000Y-80697000D02*
X93476000Y-86190000D01*
X93476000Y-89070000D02*
X93476000Y-94563000D01*
X93516000Y-80705000D02*
X93516000Y-86190000D01*
X93516000Y-89070000D02*
X93516000Y-94555000D01*
X93556000Y-80714000D02*
X93556000Y-86190000D01*
X93556000Y-89070000D02*
X93556000Y-94546000D01*
X93596000Y-80723000D02*
X93596000Y-86190000D01*
X93596000Y-89070000D02*
X93596000Y-94537000D01*
X93636000Y-80732000D02*
X93636000Y-86190000D01*
X93636000Y-89070000D02*
X93636000Y-94528000D01*
X93676000Y-80741000D02*
X93676000Y-86190000D01*
X93676000Y-89070000D02*
X93676000Y-94519000D01*
X93716000Y-80751000D02*
X93716000Y-86190000D01*
X93716000Y-89070000D02*
X93716000Y-94509000D01*
X93756000Y-80760000D02*
X93756000Y-86190000D01*
X93756000Y-89070000D02*
X93756000Y-94500000D01*
X93796000Y-80770000D02*
X93796000Y-86190000D01*
X93796000Y-89070000D02*
X93796000Y-94490000D01*
X93836000Y-80781000D02*
X93836000Y-86190000D01*
X93836000Y-89070000D02*
X93836000Y-94479000D01*
X93876000Y-80791000D02*
X93876000Y-86190000D01*
X93876000Y-89070000D02*
X93876000Y-94469000D01*
X93916000Y-80802000D02*
X93916000Y-86190000D01*
X93916000Y-89070000D02*
X93916000Y-94458000D01*
X93956000Y-80813000D02*
X93956000Y-86190000D01*
X93956000Y-89070000D02*
X93956000Y-94447000D01*
X93996000Y-80825000D02*
X93996000Y-86190000D01*
X93996000Y-89070000D02*
X93996000Y-94435000D01*
X94036000Y-80836000D02*
X94036000Y-86190000D01*
X94036000Y-89070000D02*
X94036000Y-94424000D01*
X94076000Y-80848000D02*
X94076000Y-86190000D01*
X94076000Y-89070000D02*
X94076000Y-94412000D01*
X94116000Y-80860000D02*
X94116000Y-86190000D01*
X94116000Y-89070000D02*
X94116000Y-94400000D01*
X94156000Y-80872000D02*
X94156000Y-86190000D01*
X94156000Y-89070000D02*
X94156000Y-94388000D01*
X94196000Y-80885000D02*
X94196000Y-86190000D01*
X94196000Y-89070000D02*
X94196000Y-94375000D01*
X94236000Y-80898000D02*
X94236000Y-86190000D01*
X94236000Y-89070000D02*
X94236000Y-94362000D01*
X94276000Y-80911000D02*
X94276000Y-86190000D01*
X94276000Y-89070000D02*
X94276000Y-94349000D01*
X94316000Y-80924000D02*
X94316000Y-86190000D01*
X94316000Y-89070000D02*
X94316000Y-94336000D01*
X94356000Y-80938000D02*
X94356000Y-86190000D01*
X94356000Y-89070000D02*
X94356000Y-94322000D01*
X94396000Y-80952000D02*
X94396000Y-86190000D01*
X94396000Y-89070000D02*
X94396000Y-94308000D01*
X94436000Y-80966000D02*
X94436000Y-86190000D01*
X94436000Y-89070000D02*
X94436000Y-94294000D01*
X94476000Y-80981000D02*
X94476000Y-86190000D01*
X94476000Y-89070000D02*
X94476000Y-94279000D01*
X94516000Y-80995000D02*
X94516000Y-86190000D01*
X94516000Y-89070000D02*
X94516000Y-94265000D01*
X94556000Y-81010000D02*
X94556000Y-86190000D01*
X94556000Y-89070000D02*
X94556000Y-94250000D01*
X94596000Y-81026000D02*
X94596000Y-86190000D01*
X94596000Y-89070000D02*
X94596000Y-94234000D01*
X94636000Y-81041000D02*
X94636000Y-86190000D01*
X94636000Y-89070000D02*
X94636000Y-94219000D01*
X94676000Y-81057000D02*
X94676000Y-86190000D01*
X94676000Y-89070000D02*
X94676000Y-94203000D01*
X94716000Y-81073000D02*
X94716000Y-86190000D01*
X94716000Y-89070000D02*
X94716000Y-94187000D01*
X94756000Y-81090000D02*
X94756000Y-86190000D01*
X94756000Y-89070000D02*
X94756000Y-94170000D01*
X94796000Y-81106000D02*
X94796000Y-86190000D01*
X94796000Y-89070000D02*
X94796000Y-94154000D01*
X94836000Y-81123000D02*
X94836000Y-86190000D01*
X94836000Y-89070000D02*
X94836000Y-94137000D01*
X94876000Y-81140000D02*
X94876000Y-86190000D01*
X94876000Y-89070000D02*
X94876000Y-94120000D01*
X94916000Y-81158000D02*
X94916000Y-86190000D01*
X94916000Y-89070000D02*
X94916000Y-94102000D01*
X94956000Y-81176000D02*
X94956000Y-86190000D01*
X94956000Y-89070000D02*
X94956000Y-94084000D01*
X94996000Y-81194000D02*
X94996000Y-86190000D01*
X94996000Y-89070000D02*
X94996000Y-94066000D01*
X95036000Y-81212000D02*
X95036000Y-86190000D01*
X95036000Y-89070000D02*
X95036000Y-94048000D01*
X95076000Y-81231000D02*
X95076000Y-86190000D01*
X95076000Y-89070000D02*
X95076000Y-94029000D01*
X95116000Y-81250000D02*
X95116000Y-86190000D01*
X95116000Y-89070000D02*
X95116000Y-94010000D01*
X95156000Y-81270000D02*
X95156000Y-86190000D01*
X95156000Y-89070000D02*
X95156000Y-93990000D01*
X95196000Y-81289000D02*
X95196000Y-86190000D01*
X95196000Y-89070000D02*
X95196000Y-93971000D01*
X95236000Y-81309000D02*
X95236000Y-86190000D01*
X95236000Y-89070000D02*
X95236000Y-93951000D01*
X95276000Y-81329000D02*
X95276000Y-86190000D01*
X95276000Y-89070000D02*
X95276000Y-93931000D01*
X95316000Y-81350000D02*
X95316000Y-86190000D01*
X95316000Y-89070000D02*
X95316000Y-93910000D01*
X95356000Y-81371000D02*
X95356000Y-86190000D01*
X95356000Y-89070000D02*
X95356000Y-93889000D01*
X95396000Y-81392000D02*
X95396000Y-86190000D01*
X95396000Y-89070000D02*
X95396000Y-93868000D01*
X95436000Y-81414000D02*
X95436000Y-86190000D01*
X95436000Y-89070000D02*
X95436000Y-93846000D01*
X95476000Y-81436000D02*
X95476000Y-86190000D01*
X95476000Y-89070000D02*
X95476000Y-93824000D01*
X95516000Y-81458000D02*
X95516000Y-86190000D01*
X95516000Y-89070000D02*
X95516000Y-93802000D01*
X95556000Y-81480000D02*
X95556000Y-86190000D01*
X95556000Y-89070000D02*
X95556000Y-93780000D01*
X95596000Y-81503000D02*
X95596000Y-86190000D01*
X95596000Y-89070000D02*
X95596000Y-93757000D01*
X95636000Y-81527000D02*
X95636000Y-86190000D01*
X95636000Y-89070000D02*
X95636000Y-93733000D01*
X95676000Y-81550000D02*
X95676000Y-86190000D01*
X95676000Y-89070000D02*
X95676000Y-93710000D01*
X95716000Y-81574000D02*
X95716000Y-86190000D01*
X95716000Y-89070000D02*
X95716000Y-93686000D01*
X95756000Y-81599000D02*
X95756000Y-86190000D01*
X95756000Y-89070000D02*
X95756000Y-93661000D01*
X95796000Y-81623000D02*
X95796000Y-86190000D01*
X95796000Y-89070000D02*
X95796000Y-93637000D01*
X95836000Y-81648000D02*
X95836000Y-86190000D01*
X95836000Y-89070000D02*
X95836000Y-93612000D01*
X95876000Y-81674000D02*
X95876000Y-86190000D01*
X95876000Y-89070000D02*
X95876000Y-93586000D01*
X95916000Y-81700000D02*
X95916000Y-86190000D01*
X95916000Y-89070000D02*
X95916000Y-93560000D01*
X95956000Y-81726000D02*
X95956000Y-86190000D01*
X95956000Y-89070000D02*
X95956000Y-93534000D01*
X95996000Y-81752000D02*
X95996000Y-93508000D01*
X96036000Y-81779000D02*
X96036000Y-93481000D01*
X96076000Y-81807000D02*
X96076000Y-93453000D01*
X96116000Y-81834000D02*
X96116000Y-93426000D01*
X96156000Y-81863000D02*
X96156000Y-93397000D01*
X96196000Y-81891000D02*
X96196000Y-93369000D01*
X96236000Y-81920000D02*
X96236000Y-93340000D01*
X96276000Y-81950000D02*
X96276000Y-93310000D01*
X96316000Y-81980000D02*
X96316000Y-93280000D01*
X96356000Y-82010000D02*
X96356000Y-93250000D01*
X96396000Y-82041000D02*
X96396000Y-93219000D01*
X96436000Y-82072000D02*
X96436000Y-93188000D01*
X96476000Y-82103000D02*
X96476000Y-93157000D01*
X96516000Y-82136000D02*
X96516000Y-93124000D01*
X96556000Y-82168000D02*
X96556000Y-93092000D01*
X96596000Y-82201000D02*
X96596000Y-93059000D01*
X96636000Y-82235000D02*
X96636000Y-93025000D01*
X96676000Y-82269000D02*
X96676000Y-92991000D01*
X96716000Y-82304000D02*
X96716000Y-92956000D01*
X96756000Y-82339000D02*
X96756000Y-92921000D01*
X96796000Y-82375000D02*
X96796000Y-92885000D01*
X96836000Y-82411000D02*
X96836000Y-92849000D01*
X96876000Y-82448000D02*
X96876000Y-92812000D01*
X96916000Y-82485000D02*
X96916000Y-92775000D01*
X96956000Y-82523000D02*
X96956000Y-92737000D01*
X96996000Y-82561000D02*
X96996000Y-92699000D01*
X97036000Y-82601000D02*
X97036000Y-92659000D01*
X97076000Y-82640000D02*
X97076000Y-92620000D01*
X97116000Y-82681000D02*
X97116000Y-92579000D01*
X97156000Y-82722000D02*
X97156000Y-92538000D01*
X97196000Y-82764000D02*
X97196000Y-92496000D01*
X97236000Y-82806000D02*
X97236000Y-92454000D01*
X97276000Y-82849000D02*
X97276000Y-92411000D01*
X97316000Y-82893000D02*
X97316000Y-92367000D01*
X97356000Y-82937000D02*
X97356000Y-92323000D01*
X97396000Y-82983000D02*
X97396000Y-92277000D01*
X97436000Y-83029000D02*
X97436000Y-92231000D01*
X97476000Y-83076000D02*
X97476000Y-92184000D01*
X97516000Y-83124000D02*
X97516000Y-92136000D01*
X97556000Y-83172000D02*
X97556000Y-92088000D01*
X97596000Y-83222000D02*
X97596000Y-92038000D01*
X97636000Y-83272000D02*
X97636000Y-91988000D01*
X97676000Y-83324000D02*
X97676000Y-91936000D01*
X97716000Y-83376000D02*
X97716000Y-91884000D01*
X97756000Y-83430000D02*
X97756000Y-91830000D01*
X97796000Y-83484000D02*
X97796000Y-91776000D01*
X97836000Y-83540000D02*
X97836000Y-91720000D01*
X97876000Y-83597000D02*
X97876000Y-91663000D01*
X97916000Y-83655000D02*
X97916000Y-91605000D01*
X97956000Y-83714000D02*
X97956000Y-91546000D01*
X97996000Y-83774000D02*
X97996000Y-91486000D01*
X98036000Y-83836000D02*
X98036000Y-91424000D01*
X98076000Y-83900000D02*
X98076000Y-91360000D01*
X98116000Y-83964000D02*
X98116000Y-91296000D01*
X98156000Y-84031000D02*
X98156000Y-91229000D01*
X98196000Y-84099000D02*
X98196000Y-91161000D01*
X98236000Y-84169000D02*
X98236000Y-91091000D01*
X98276000Y-84241000D02*
X98276000Y-91019000D01*
X98316000Y-84315000D02*
X98316000Y-90945000D01*
X98356000Y-84390000D02*
X98356000Y-90870000D01*
X98396000Y-84469000D02*
X98396000Y-90791000D01*
X98436000Y-84550000D02*
X98436000Y-90710000D01*
X98476000Y-84633000D02*
X98476000Y-90627000D01*
X98516000Y-84719000D02*
X98516000Y-90541000D01*
X98556000Y-84809000D02*
X98556000Y-90451000D01*
X98596000Y-84902000D02*
X98596000Y-90358000D01*
X98636000Y-84998000D02*
X98636000Y-90262000D01*
X98676000Y-85100000D02*
X98676000Y-90160000D01*
X98716000Y-85205000D02*
X98716000Y-90055000D01*
X98756000Y-85317000D02*
X98756000Y-89943000D01*
X98796000Y-85434000D02*
X98796000Y-89826000D01*
X98836000Y-85559000D02*
X98836000Y-89701000D01*
X98876000Y-85692000D02*
X98876000Y-89568000D01*
X98916000Y-85836000D02*
X98916000Y-89424000D01*
X98956000Y-85994000D02*
X98956000Y-89266000D01*
X98996000Y-86169000D02*
X98996000Y-89091000D01*
X99036000Y-86368000D02*
X99036000Y-88892000D01*
X99076000Y-86605000D02*
X99076000Y-88655000D01*
X99116000Y-86916000D02*
X99116000Y-88344000D01*
X84415457Y-83635000D02*
X85815457Y-83635000D01*
X85115457Y-82935000D02*
X85115457Y-84335000D01*
X155995000Y-59800000D02*
X156310000Y-59800000D01*
X153570000Y-59800000D02*
X153885000Y-59800000D01*
X155995000Y-64740000D02*
X156310000Y-64740000D01*
X153570000Y-64740000D02*
X153885000Y-64740000D01*
X156310000Y-64740000D02*
X156310000Y-59800000D01*
X153570000Y-64740000D02*
X153570000Y-59800000D01*
X102965354Y-85525000D02*
X102965354Y-86525000D01*
X102465354Y-86025000D02*
X103465354Y-86025000D01*
X113026000Y-88301000D02*
X113026000Y-89499000D01*
X112986000Y-88038000D02*
X112986000Y-89762000D01*
X112946000Y-87838000D02*
X112946000Y-89962000D01*
X112906000Y-87670000D02*
X112906000Y-90130000D01*
X112866000Y-87522000D02*
X112866000Y-90278000D01*
X112826000Y-87390000D02*
X112826000Y-90410000D01*
X112786000Y-87270000D02*
X112786000Y-90530000D01*
X112746000Y-87158000D02*
X112746000Y-90642000D01*
X112706000Y-87054000D02*
X112706000Y-90746000D01*
X112666000Y-86956000D02*
X112666000Y-90844000D01*
X112626000Y-86863000D02*
X112626000Y-90937000D01*
X112586000Y-86775000D02*
X112586000Y-91025000D01*
X112546000Y-86691000D02*
X112546000Y-91109000D01*
X112506000Y-86611000D02*
X112506000Y-91189000D01*
X112466000Y-86535000D02*
X112466000Y-91265000D01*
X112426000Y-86461000D02*
X112426000Y-91339000D01*
X112386000Y-86390000D02*
X112386000Y-91410000D01*
X112346000Y-86321000D02*
X112346000Y-91479000D01*
X112306000Y-86255000D02*
X112306000Y-91545000D01*
X112266000Y-86191000D02*
X112266000Y-91609000D01*
X112226000Y-86130000D02*
X112226000Y-91670000D01*
X112186000Y-86070000D02*
X112186000Y-91730000D01*
X112146000Y-86011000D02*
X112146000Y-91789000D01*
X112106000Y-85955000D02*
X112106000Y-91845000D01*
X112066000Y-85900000D02*
X112066000Y-91900000D01*
X112026000Y-85846000D02*
X112026000Y-91954000D01*
X111986000Y-85794000D02*
X111986000Y-92006000D01*
X111946000Y-85744000D02*
X111946000Y-92056000D01*
X111906000Y-85694000D02*
X111906000Y-92106000D01*
X111866000Y-85646000D02*
X111866000Y-92154000D01*
X111826000Y-85599000D02*
X111826000Y-92201000D01*
X111786000Y-85553000D02*
X111786000Y-92247000D01*
X111746000Y-85508000D02*
X111746000Y-92292000D01*
X111706000Y-85464000D02*
X111706000Y-92336000D01*
X111666000Y-85422000D02*
X111666000Y-92378000D01*
X111626000Y-85380000D02*
X111626000Y-92420000D01*
X111586000Y-85339000D02*
X111586000Y-92461000D01*
X111546000Y-85299000D02*
X111546000Y-92501000D01*
X111506000Y-85260000D02*
X111506000Y-92540000D01*
X111466000Y-85221000D02*
X111466000Y-92579000D01*
X111426000Y-85184000D02*
X111426000Y-92616000D01*
X111386000Y-85147000D02*
X111386000Y-92653000D01*
X111346000Y-85111000D02*
X111346000Y-92689000D01*
X111306000Y-85076000D02*
X111306000Y-92724000D01*
X111266000Y-85042000D02*
X111266000Y-92758000D01*
X111226000Y-85008000D02*
X111226000Y-92792000D01*
X111186000Y-84975000D02*
X111186000Y-92825000D01*
X111146000Y-84943000D02*
X111146000Y-92857000D01*
X111106000Y-84911000D02*
X111106000Y-92889000D01*
X111066000Y-90141000D02*
X111066000Y-92920000D01*
X111066000Y-84880000D02*
X111066000Y-87659000D01*
X111026000Y-90141000D02*
X111026000Y-92950000D01*
X111026000Y-84850000D02*
X111026000Y-87659000D01*
X110986000Y-90141000D02*
X110986000Y-92980000D01*
X110986000Y-84820000D02*
X110986000Y-87659000D01*
X110946000Y-90141000D02*
X110946000Y-93010000D01*
X110946000Y-84790000D02*
X110946000Y-87659000D01*
X110906000Y-90141000D02*
X110906000Y-93038000D01*
X110906000Y-84762000D02*
X110906000Y-87659000D01*
X110866000Y-90141000D02*
X110866000Y-93066000D01*
X110866000Y-84734000D02*
X110866000Y-87659000D01*
X110826000Y-90141000D02*
X110826000Y-93094000D01*
X110826000Y-84706000D02*
X110826000Y-87659000D01*
X110786000Y-90141000D02*
X110786000Y-93121000D01*
X110786000Y-84679000D02*
X110786000Y-87659000D01*
X110746000Y-90141000D02*
X110746000Y-93147000D01*
X110746000Y-84653000D02*
X110746000Y-87659000D01*
X110706000Y-90141000D02*
X110706000Y-93173000D01*
X110706000Y-84627000D02*
X110706000Y-87659000D01*
X110666000Y-90141000D02*
X110666000Y-93198000D01*
X110666000Y-84602000D02*
X110666000Y-87659000D01*
X110626000Y-90141000D02*
X110626000Y-93223000D01*
X110626000Y-84577000D02*
X110626000Y-87659000D01*
X110586000Y-90141000D02*
X110586000Y-93247000D01*
X110586000Y-84553000D02*
X110586000Y-87659000D01*
X110546000Y-90141000D02*
X110546000Y-93271000D01*
X110546000Y-84529000D02*
X110546000Y-87659000D01*
X110506000Y-90141000D02*
X110506000Y-93295000D01*
X110506000Y-84505000D02*
X110506000Y-87659000D01*
X110466000Y-90141000D02*
X110466000Y-93317000D01*
X110466000Y-84483000D02*
X110466000Y-87659000D01*
X110426000Y-90141000D02*
X110426000Y-93340000D01*
X110426000Y-84460000D02*
X110426000Y-87659000D01*
X110386000Y-90141000D02*
X110386000Y-93362000D01*
X110386000Y-84438000D02*
X110386000Y-87659000D01*
X110346000Y-90141000D02*
X110346000Y-93383000D01*
X110346000Y-84417000D02*
X110346000Y-87659000D01*
X110306000Y-90141000D02*
X110306000Y-93404000D01*
X110306000Y-84396000D02*
X110306000Y-87659000D01*
X110266000Y-90141000D02*
X110266000Y-93425000D01*
X110266000Y-84375000D02*
X110266000Y-87659000D01*
X110226000Y-90141000D02*
X110226000Y-93445000D01*
X110226000Y-84355000D02*
X110226000Y-87659000D01*
X110186000Y-90141000D02*
X110186000Y-93464000D01*
X110186000Y-84336000D02*
X110186000Y-87659000D01*
X110146000Y-90141000D02*
X110146000Y-93484000D01*
X110146000Y-84316000D02*
X110146000Y-87659000D01*
X110106000Y-90141000D02*
X110106000Y-93503000D01*
X110106000Y-84297000D02*
X110106000Y-87659000D01*
X110066000Y-90141000D02*
X110066000Y-93521000D01*
X110066000Y-84279000D02*
X110066000Y-87659000D01*
X110026000Y-90141000D02*
X110026000Y-93539000D01*
X110026000Y-84261000D02*
X110026000Y-87659000D01*
X109986000Y-90141000D02*
X109986000Y-93557000D01*
X109986000Y-84243000D02*
X109986000Y-87659000D01*
X109946000Y-90141000D02*
X109946000Y-93574000D01*
X109946000Y-84226000D02*
X109946000Y-87659000D01*
X109906000Y-90141000D02*
X109906000Y-93590000D01*
X109906000Y-84210000D02*
X109906000Y-87659000D01*
X109866000Y-90141000D02*
X109866000Y-93607000D01*
X109866000Y-84193000D02*
X109866000Y-87659000D01*
X109826000Y-90141000D02*
X109826000Y-93623000D01*
X109826000Y-84177000D02*
X109826000Y-87659000D01*
X109786000Y-90141000D02*
X109786000Y-93638000D01*
X109786000Y-84162000D02*
X109786000Y-87659000D01*
X109746000Y-90141000D02*
X109746000Y-93654000D01*
X109746000Y-84146000D02*
X109746000Y-87659000D01*
X109706000Y-90141000D02*
X109706000Y-93668000D01*
X109706000Y-84132000D02*
X109706000Y-87659000D01*
X109666000Y-90141000D02*
X109666000Y-93683000D01*
X109666000Y-84117000D02*
X109666000Y-87659000D01*
X109626000Y-90141000D02*
X109626000Y-93697000D01*
X109626000Y-84103000D02*
X109626000Y-87659000D01*
X109586000Y-90141000D02*
X109586000Y-93711000D01*
X109586000Y-84089000D02*
X109586000Y-87659000D01*
X109546000Y-90141000D02*
X109546000Y-93724000D01*
X109546000Y-84076000D02*
X109546000Y-87659000D01*
X109506000Y-90141000D02*
X109506000Y-93737000D01*
X109506000Y-84063000D02*
X109506000Y-87659000D01*
X109466000Y-90141000D02*
X109466000Y-93750000D01*
X109466000Y-84050000D02*
X109466000Y-87659000D01*
X109426000Y-90141000D02*
X109426000Y-93762000D01*
X109426000Y-84038000D02*
X109426000Y-87659000D01*
X109386000Y-90141000D02*
X109386000Y-93774000D01*
X109386000Y-84026000D02*
X109386000Y-87659000D01*
X109346000Y-90141000D02*
X109346000Y-93785000D01*
X109346000Y-84015000D02*
X109346000Y-87659000D01*
X109306000Y-90141000D02*
X109306000Y-93797000D01*
X109306000Y-84003000D02*
X109306000Y-87659000D01*
X109266000Y-90141000D02*
X109266000Y-93807000D01*
X109266000Y-83993000D02*
X109266000Y-87659000D01*
X109226000Y-90141000D02*
X109226000Y-93818000D01*
X109226000Y-83982000D02*
X109226000Y-87659000D01*
X109186000Y-90141000D02*
X109186000Y-93828000D01*
X109186000Y-83972000D02*
X109186000Y-87659000D01*
X109146000Y-90141000D02*
X109146000Y-93838000D01*
X109146000Y-83962000D02*
X109146000Y-87659000D01*
X109106000Y-90141000D02*
X109106000Y-93847000D01*
X109106000Y-83953000D02*
X109106000Y-87659000D01*
X109066000Y-90141000D02*
X109066000Y-93856000D01*
X109066000Y-83944000D02*
X109066000Y-87659000D01*
X109026000Y-90141000D02*
X109026000Y-93865000D01*
X109026000Y-83935000D02*
X109026000Y-87659000D01*
X108986000Y-90141000D02*
X108986000Y-93874000D01*
X108986000Y-83926000D02*
X108986000Y-87659000D01*
X108946000Y-90141000D02*
X108946000Y-93882000D01*
X108946000Y-83918000D02*
X108946000Y-87659000D01*
X108906000Y-90141000D02*
X108906000Y-93890000D01*
X108906000Y-83910000D02*
X108906000Y-87659000D01*
X108866000Y-90141000D02*
X108866000Y-93897000D01*
X108866000Y-83903000D02*
X108866000Y-87659000D01*
X108826000Y-90141000D02*
X108826000Y-93904000D01*
X108826000Y-83896000D02*
X108826000Y-87659000D01*
X108786000Y-90141000D02*
X108786000Y-93911000D01*
X108786000Y-83889000D02*
X108786000Y-87659000D01*
X108746000Y-90141000D02*
X108746000Y-93918000D01*
X108746000Y-83882000D02*
X108746000Y-87659000D01*
X108706000Y-90141000D02*
X108706000Y-93924000D01*
X108706000Y-83876000D02*
X108706000Y-87659000D01*
X108666000Y-90141000D02*
X108666000Y-93930000D01*
X108666000Y-83870000D02*
X108666000Y-87659000D01*
X108625000Y-90141000D02*
X108625000Y-93935000D01*
X108625000Y-83865000D02*
X108625000Y-87659000D01*
X108585000Y-83860000D02*
X108585000Y-93940000D01*
X108545000Y-83855000D02*
X108545000Y-93945000D01*
X108505000Y-83850000D02*
X108505000Y-93950000D01*
X108465000Y-83846000D02*
X108465000Y-93954000D01*
X108425000Y-83842000D02*
X108425000Y-93958000D01*
X108385000Y-83838000D02*
X108385000Y-93962000D01*
X108345000Y-83835000D02*
X108345000Y-93965000D01*
X108305000Y-83832000D02*
X108305000Y-93968000D01*
X108265000Y-83830000D02*
X108265000Y-93970000D01*
X108225000Y-83827000D02*
X108225000Y-93973000D01*
X108185000Y-83825000D02*
X108185000Y-93975000D01*
X108145000Y-83823000D02*
X108145000Y-93977000D01*
X108105000Y-83822000D02*
X108105000Y-93978000D01*
X108065000Y-83821000D02*
X108065000Y-93979000D01*
X108025000Y-83820000D02*
X108025000Y-93980000D01*
X107985000Y-83820000D02*
X107985000Y-93980000D01*
X107945000Y-83820000D02*
X107945000Y-93980000D01*
X113065000Y-88900000D02*
G75*
G03X113065000Y-88900000I-5120000J0D01*
G01*
X153570000Y-75535000D02*
X153570000Y-70595000D01*
X156310000Y-75535000D02*
X156310000Y-70595000D01*
X153570000Y-75535000D02*
X153885000Y-75535000D01*
X155995000Y-75535000D02*
X156310000Y-75535000D01*
X153570000Y-70595000D02*
X153885000Y-70595000D01*
X155995000Y-70595000D02*
X156310000Y-70595000D01*
X99155000Y-50455000D02*
G75*
G03X99155000Y-50455000I-7120000J0D01*
G01*
X92035000Y-43375000D02*
X92035000Y-57535000D01*
X92075000Y-43375000D02*
X92075000Y-57535000D01*
X92115000Y-43375000D02*
X92115000Y-57535000D01*
X92155000Y-43376000D02*
X92155000Y-57534000D01*
X92195000Y-43376000D02*
X92195000Y-57534000D01*
X92235000Y-43377000D02*
X92235000Y-57533000D01*
X92275000Y-43379000D02*
X92275000Y-57531000D01*
X92315000Y-43380000D02*
X92315000Y-57530000D01*
X92355000Y-43382000D02*
X92355000Y-57528000D01*
X92395000Y-43384000D02*
X92395000Y-57526000D01*
X92435000Y-43386000D02*
X92435000Y-57524000D01*
X92475000Y-43388000D02*
X92475000Y-57522000D01*
X92515000Y-43391000D02*
X92515000Y-57519000D01*
X92555000Y-43394000D02*
X92555000Y-57516000D01*
X92595000Y-43397000D02*
X92595000Y-57513000D01*
X92635000Y-43400000D02*
X92635000Y-57510000D01*
X92675000Y-43403000D02*
X92675000Y-57507000D01*
X92715000Y-43407000D02*
X92715000Y-57503000D01*
X92756000Y-43411000D02*
X92756000Y-57499000D01*
X92796000Y-43415000D02*
X92796000Y-57495000D01*
X92836000Y-43420000D02*
X92836000Y-57490000D01*
X92876000Y-43424000D02*
X92876000Y-57486000D01*
X92916000Y-43429000D02*
X92916000Y-57481000D01*
X92956000Y-43434000D02*
X92956000Y-57476000D01*
X92996000Y-43440000D02*
X92996000Y-57470000D01*
X93036000Y-43445000D02*
X93036000Y-57465000D01*
X93076000Y-43451000D02*
X93076000Y-57459000D01*
X93116000Y-43457000D02*
X93116000Y-49015000D01*
X93116000Y-51895000D02*
X93116000Y-57453000D01*
X93156000Y-43463000D02*
X93156000Y-49015000D01*
X93156000Y-51895000D02*
X93156000Y-57447000D01*
X93196000Y-43470000D02*
X93196000Y-49015000D01*
X93196000Y-51895000D02*
X93196000Y-57440000D01*
X93236000Y-43476000D02*
X93236000Y-49015000D01*
X93236000Y-51895000D02*
X93236000Y-57434000D01*
X93276000Y-43483000D02*
X93276000Y-49015000D01*
X93276000Y-51895000D02*
X93276000Y-57427000D01*
X93316000Y-43491000D02*
X93316000Y-49015000D01*
X93316000Y-51895000D02*
X93316000Y-57419000D01*
X93356000Y-43498000D02*
X93356000Y-49015000D01*
X93356000Y-51895000D02*
X93356000Y-57412000D01*
X93396000Y-43506000D02*
X93396000Y-49015000D01*
X93396000Y-51895000D02*
X93396000Y-57404000D01*
X93436000Y-43513000D02*
X93436000Y-49015000D01*
X93436000Y-51895000D02*
X93436000Y-57397000D01*
X93476000Y-43522000D02*
X93476000Y-49015000D01*
X93476000Y-51895000D02*
X93476000Y-57388000D01*
X93516000Y-43530000D02*
X93516000Y-49015000D01*
X93516000Y-51895000D02*
X93516000Y-57380000D01*
X93556000Y-43539000D02*
X93556000Y-49015000D01*
X93556000Y-51895000D02*
X93556000Y-57371000D01*
X93596000Y-43548000D02*
X93596000Y-49015000D01*
X93596000Y-51895000D02*
X93596000Y-57362000D01*
X93636000Y-43557000D02*
X93636000Y-49015000D01*
X93636000Y-51895000D02*
X93636000Y-57353000D01*
X93676000Y-43566000D02*
X93676000Y-49015000D01*
X93676000Y-51895000D02*
X93676000Y-57344000D01*
X93716000Y-43576000D02*
X93716000Y-49015000D01*
X93716000Y-51895000D02*
X93716000Y-57334000D01*
X93756000Y-43585000D02*
X93756000Y-49015000D01*
X93756000Y-51895000D02*
X93756000Y-57325000D01*
X93796000Y-43595000D02*
X93796000Y-49015000D01*
X93796000Y-51895000D02*
X93796000Y-57315000D01*
X93836000Y-43606000D02*
X93836000Y-49015000D01*
X93836000Y-51895000D02*
X93836000Y-57304000D01*
X93876000Y-43616000D02*
X93876000Y-49015000D01*
X93876000Y-51895000D02*
X93876000Y-57294000D01*
X93916000Y-43627000D02*
X93916000Y-49015000D01*
X93916000Y-51895000D02*
X93916000Y-57283000D01*
X93956000Y-43638000D02*
X93956000Y-49015000D01*
X93956000Y-51895000D02*
X93956000Y-57272000D01*
X93996000Y-43650000D02*
X93996000Y-49015000D01*
X93996000Y-51895000D02*
X93996000Y-57260000D01*
X94036000Y-43661000D02*
X94036000Y-49015000D01*
X94036000Y-51895000D02*
X94036000Y-57249000D01*
X94076000Y-43673000D02*
X94076000Y-49015000D01*
X94076000Y-51895000D02*
X94076000Y-57237000D01*
X94116000Y-43685000D02*
X94116000Y-49015000D01*
X94116000Y-51895000D02*
X94116000Y-57225000D01*
X94156000Y-43697000D02*
X94156000Y-49015000D01*
X94156000Y-51895000D02*
X94156000Y-57213000D01*
X94196000Y-43710000D02*
X94196000Y-49015000D01*
X94196000Y-51895000D02*
X94196000Y-57200000D01*
X94236000Y-43723000D02*
X94236000Y-49015000D01*
X94236000Y-51895000D02*
X94236000Y-57187000D01*
X94276000Y-43736000D02*
X94276000Y-49015000D01*
X94276000Y-51895000D02*
X94276000Y-57174000D01*
X94316000Y-43749000D02*
X94316000Y-49015000D01*
X94316000Y-51895000D02*
X94316000Y-57161000D01*
X94356000Y-43763000D02*
X94356000Y-49015000D01*
X94356000Y-51895000D02*
X94356000Y-57147000D01*
X94396000Y-43777000D02*
X94396000Y-49015000D01*
X94396000Y-51895000D02*
X94396000Y-57133000D01*
X94436000Y-43791000D02*
X94436000Y-49015000D01*
X94436000Y-51895000D02*
X94436000Y-57119000D01*
X94476000Y-43806000D02*
X94476000Y-49015000D01*
X94476000Y-51895000D02*
X94476000Y-57104000D01*
X94516000Y-43820000D02*
X94516000Y-49015000D01*
X94516000Y-51895000D02*
X94516000Y-57090000D01*
X94556000Y-43835000D02*
X94556000Y-49015000D01*
X94556000Y-51895000D02*
X94556000Y-57075000D01*
X94596000Y-43851000D02*
X94596000Y-49015000D01*
X94596000Y-51895000D02*
X94596000Y-57059000D01*
X94636000Y-43866000D02*
X94636000Y-49015000D01*
X94636000Y-51895000D02*
X94636000Y-57044000D01*
X94676000Y-43882000D02*
X94676000Y-49015000D01*
X94676000Y-51895000D02*
X94676000Y-57028000D01*
X94716000Y-43898000D02*
X94716000Y-49015000D01*
X94716000Y-51895000D02*
X94716000Y-57012000D01*
X94756000Y-43915000D02*
X94756000Y-49015000D01*
X94756000Y-51895000D02*
X94756000Y-56995000D01*
X94796000Y-43931000D02*
X94796000Y-49015000D01*
X94796000Y-51895000D02*
X94796000Y-56979000D01*
X94836000Y-43948000D02*
X94836000Y-49015000D01*
X94836000Y-51895000D02*
X94836000Y-56962000D01*
X94876000Y-43965000D02*
X94876000Y-49015000D01*
X94876000Y-51895000D02*
X94876000Y-56945000D01*
X94916000Y-43983000D02*
X94916000Y-49015000D01*
X94916000Y-51895000D02*
X94916000Y-56927000D01*
X94956000Y-44001000D02*
X94956000Y-49015000D01*
X94956000Y-51895000D02*
X94956000Y-56909000D01*
X94996000Y-44019000D02*
X94996000Y-49015000D01*
X94996000Y-51895000D02*
X94996000Y-56891000D01*
X95036000Y-44037000D02*
X95036000Y-49015000D01*
X95036000Y-51895000D02*
X95036000Y-56873000D01*
X95076000Y-44056000D02*
X95076000Y-49015000D01*
X95076000Y-51895000D02*
X95076000Y-56854000D01*
X95116000Y-44075000D02*
X95116000Y-49015000D01*
X95116000Y-51895000D02*
X95116000Y-56835000D01*
X95156000Y-44095000D02*
X95156000Y-49015000D01*
X95156000Y-51895000D02*
X95156000Y-56815000D01*
X95196000Y-44114000D02*
X95196000Y-49015000D01*
X95196000Y-51895000D02*
X95196000Y-56796000D01*
X95236000Y-44134000D02*
X95236000Y-49015000D01*
X95236000Y-51895000D02*
X95236000Y-56776000D01*
X95276000Y-44154000D02*
X95276000Y-49015000D01*
X95276000Y-51895000D02*
X95276000Y-56756000D01*
X95316000Y-44175000D02*
X95316000Y-49015000D01*
X95316000Y-51895000D02*
X95316000Y-56735000D01*
X95356000Y-44196000D02*
X95356000Y-49015000D01*
X95356000Y-51895000D02*
X95356000Y-56714000D01*
X95396000Y-44217000D02*
X95396000Y-49015000D01*
X95396000Y-51895000D02*
X95396000Y-56693000D01*
X95436000Y-44239000D02*
X95436000Y-49015000D01*
X95436000Y-51895000D02*
X95436000Y-56671000D01*
X95476000Y-44261000D02*
X95476000Y-49015000D01*
X95476000Y-51895000D02*
X95476000Y-56649000D01*
X95516000Y-44283000D02*
X95516000Y-49015000D01*
X95516000Y-51895000D02*
X95516000Y-56627000D01*
X95556000Y-44305000D02*
X95556000Y-49015000D01*
X95556000Y-51895000D02*
X95556000Y-56605000D01*
X95596000Y-44328000D02*
X95596000Y-49015000D01*
X95596000Y-51895000D02*
X95596000Y-56582000D01*
X95636000Y-44352000D02*
X95636000Y-49015000D01*
X95636000Y-51895000D02*
X95636000Y-56558000D01*
X95676000Y-44375000D02*
X95676000Y-49015000D01*
X95676000Y-51895000D02*
X95676000Y-56535000D01*
X95716000Y-44399000D02*
X95716000Y-49015000D01*
X95716000Y-51895000D02*
X95716000Y-56511000D01*
X95756000Y-44424000D02*
X95756000Y-49015000D01*
X95756000Y-51895000D02*
X95756000Y-56486000D01*
X95796000Y-44448000D02*
X95796000Y-49015000D01*
X95796000Y-51895000D02*
X95796000Y-56462000D01*
X95836000Y-44473000D02*
X95836000Y-49015000D01*
X95836000Y-51895000D02*
X95836000Y-56437000D01*
X95876000Y-44499000D02*
X95876000Y-49015000D01*
X95876000Y-51895000D02*
X95876000Y-56411000D01*
X95916000Y-44525000D02*
X95916000Y-49015000D01*
X95916000Y-51895000D02*
X95916000Y-56385000D01*
X95956000Y-44551000D02*
X95956000Y-49015000D01*
X95956000Y-51895000D02*
X95956000Y-56359000D01*
X95996000Y-44577000D02*
X95996000Y-56333000D01*
X96036000Y-44604000D02*
X96036000Y-56306000D01*
X96076000Y-44632000D02*
X96076000Y-56278000D01*
X96116000Y-44659000D02*
X96116000Y-56251000D01*
X96156000Y-44688000D02*
X96156000Y-56222000D01*
X96196000Y-44716000D02*
X96196000Y-56194000D01*
X96236000Y-44745000D02*
X96236000Y-56165000D01*
X96276000Y-44775000D02*
X96276000Y-56135000D01*
X96316000Y-44805000D02*
X96316000Y-56105000D01*
X96356000Y-44835000D02*
X96356000Y-56075000D01*
X96396000Y-44866000D02*
X96396000Y-56044000D01*
X96436000Y-44897000D02*
X96436000Y-56013000D01*
X96476000Y-44928000D02*
X96476000Y-55982000D01*
X96516000Y-44961000D02*
X96516000Y-55949000D01*
X96556000Y-44993000D02*
X96556000Y-55917000D01*
X96596000Y-45026000D02*
X96596000Y-55884000D01*
X96636000Y-45060000D02*
X96636000Y-55850000D01*
X96676000Y-45094000D02*
X96676000Y-55816000D01*
X96716000Y-45129000D02*
X96716000Y-55781000D01*
X96756000Y-45164000D02*
X96756000Y-55746000D01*
X96796000Y-45200000D02*
X96796000Y-55710000D01*
X96836000Y-45236000D02*
X96836000Y-55674000D01*
X96876000Y-45273000D02*
X96876000Y-55637000D01*
X96916000Y-45310000D02*
X96916000Y-55600000D01*
X96956000Y-45348000D02*
X96956000Y-55562000D01*
X96996000Y-45386000D02*
X96996000Y-55524000D01*
X97036000Y-45426000D02*
X97036000Y-55484000D01*
X97076000Y-45465000D02*
X97076000Y-55445000D01*
X97116000Y-45506000D02*
X97116000Y-55404000D01*
X97156000Y-45547000D02*
X97156000Y-55363000D01*
X97196000Y-45589000D02*
X97196000Y-55321000D01*
X97236000Y-45631000D02*
X97236000Y-55279000D01*
X97276000Y-45674000D02*
X97276000Y-55236000D01*
X97316000Y-45718000D02*
X97316000Y-55192000D01*
X97356000Y-45762000D02*
X97356000Y-55148000D01*
X97396000Y-45808000D02*
X97396000Y-55102000D01*
X97436000Y-45854000D02*
X97436000Y-55056000D01*
X97476000Y-45901000D02*
X97476000Y-55009000D01*
X97516000Y-45949000D02*
X97516000Y-54961000D01*
X97556000Y-45997000D02*
X97556000Y-54913000D01*
X97596000Y-46047000D02*
X97596000Y-54863000D01*
X97636000Y-46097000D02*
X97636000Y-54813000D01*
X97676000Y-46149000D02*
X97676000Y-54761000D01*
X97716000Y-46201000D02*
X97716000Y-54709000D01*
X97756000Y-46255000D02*
X97756000Y-54655000D01*
X97796000Y-46309000D02*
X97796000Y-54601000D01*
X97836000Y-46365000D02*
X97836000Y-54545000D01*
X97876000Y-46422000D02*
X97876000Y-54488000D01*
X97916000Y-46480000D02*
X97916000Y-54430000D01*
X97956000Y-46539000D02*
X97956000Y-54371000D01*
X97996000Y-46599000D02*
X97996000Y-54311000D01*
X98036000Y-46661000D02*
X98036000Y-54249000D01*
X98076000Y-46725000D02*
X98076000Y-54185000D01*
X98116000Y-46789000D02*
X98116000Y-54121000D01*
X98156000Y-46856000D02*
X98156000Y-54054000D01*
X98196000Y-46924000D02*
X98196000Y-53986000D01*
X98236000Y-46994000D02*
X98236000Y-53916000D01*
X98276000Y-47066000D02*
X98276000Y-53844000D01*
X98316000Y-47140000D02*
X98316000Y-53770000D01*
X98356000Y-47215000D02*
X98356000Y-53695000D01*
X98396000Y-47294000D02*
X98396000Y-53616000D01*
X98436000Y-47375000D02*
X98436000Y-53535000D01*
X98476000Y-47458000D02*
X98476000Y-53452000D01*
X98516000Y-47544000D02*
X98516000Y-53366000D01*
X98556000Y-47634000D02*
X98556000Y-53276000D01*
X98596000Y-47727000D02*
X98596000Y-53183000D01*
X98636000Y-47823000D02*
X98636000Y-53087000D01*
X98676000Y-47925000D02*
X98676000Y-52985000D01*
X98716000Y-48030000D02*
X98716000Y-52880000D01*
X98756000Y-48142000D02*
X98756000Y-52768000D01*
X98796000Y-48259000D02*
X98796000Y-52651000D01*
X98836000Y-48384000D02*
X98836000Y-52526000D01*
X98876000Y-48517000D02*
X98876000Y-52393000D01*
X98916000Y-48661000D02*
X98916000Y-52249000D01*
X98956000Y-48819000D02*
X98956000Y-52091000D01*
X98996000Y-48994000D02*
X98996000Y-51916000D01*
X99036000Y-49193000D02*
X99036000Y-51717000D01*
X99076000Y-49430000D02*
X99076000Y-51480000D01*
X99116000Y-49741000D02*
X99116000Y-51169000D01*
X84415457Y-46460000D02*
X85815457Y-46460000D01*
X85115457Y-45760000D02*
X85115457Y-47160000D01*
X85115457Y-65155000D02*
X85115457Y-66555000D01*
X84415457Y-65855000D02*
X85815457Y-65855000D01*
X99116000Y-69136000D02*
X99116000Y-70564000D01*
X99076000Y-68825000D02*
X99076000Y-70875000D01*
X99036000Y-68588000D02*
X99036000Y-71112000D01*
X98996000Y-68389000D02*
X98996000Y-71311000D01*
X98956000Y-68214000D02*
X98956000Y-71486000D01*
X98916000Y-68056000D02*
X98916000Y-71644000D01*
X98876000Y-67912000D02*
X98876000Y-71788000D01*
X98836000Y-67779000D02*
X98836000Y-71921000D01*
X98796000Y-67654000D02*
X98796000Y-72046000D01*
X98756000Y-67537000D02*
X98756000Y-72163000D01*
X98716000Y-67425000D02*
X98716000Y-72275000D01*
X98676000Y-67320000D02*
X98676000Y-72380000D01*
X98636000Y-67218000D02*
X98636000Y-72482000D01*
X98596000Y-67122000D02*
X98596000Y-72578000D01*
X98556000Y-67029000D02*
X98556000Y-72671000D01*
X98516000Y-66939000D02*
X98516000Y-72761000D01*
X98476000Y-66853000D02*
X98476000Y-72847000D01*
X98436000Y-66770000D02*
X98436000Y-72930000D01*
X98396000Y-66689000D02*
X98396000Y-73011000D01*
X98356000Y-66610000D02*
X98356000Y-73090000D01*
X98316000Y-66535000D02*
X98316000Y-73165000D01*
X98276000Y-66461000D02*
X98276000Y-73239000D01*
X98236000Y-66389000D02*
X98236000Y-73311000D01*
X98196000Y-66319000D02*
X98196000Y-73381000D01*
X98156000Y-66251000D02*
X98156000Y-73449000D01*
X98116000Y-66184000D02*
X98116000Y-73516000D01*
X98076000Y-66120000D02*
X98076000Y-73580000D01*
X98036000Y-66056000D02*
X98036000Y-73644000D01*
X97996000Y-65994000D02*
X97996000Y-73706000D01*
X97956000Y-65934000D02*
X97956000Y-73766000D01*
X97916000Y-65875000D02*
X97916000Y-73825000D01*
X97876000Y-65817000D02*
X97876000Y-73883000D01*
X97836000Y-65760000D02*
X97836000Y-73940000D01*
X97796000Y-65704000D02*
X97796000Y-73996000D01*
X97756000Y-65650000D02*
X97756000Y-74050000D01*
X97716000Y-65596000D02*
X97716000Y-74104000D01*
X97676000Y-65544000D02*
X97676000Y-74156000D01*
X97636000Y-65492000D02*
X97636000Y-74208000D01*
X97596000Y-65442000D02*
X97596000Y-74258000D01*
X97556000Y-65392000D02*
X97556000Y-74308000D01*
X97516000Y-65344000D02*
X97516000Y-74356000D01*
X97476000Y-65296000D02*
X97476000Y-74404000D01*
X97436000Y-65249000D02*
X97436000Y-74451000D01*
X97396000Y-65203000D02*
X97396000Y-74497000D01*
X97356000Y-65157000D02*
X97356000Y-74543000D01*
X97316000Y-65113000D02*
X97316000Y-74587000D01*
X97276000Y-65069000D02*
X97276000Y-74631000D01*
X97236000Y-65026000D02*
X97236000Y-74674000D01*
X97196000Y-64984000D02*
X97196000Y-74716000D01*
X97156000Y-64942000D02*
X97156000Y-74758000D01*
X97116000Y-64901000D02*
X97116000Y-74799000D01*
X97076000Y-64860000D02*
X97076000Y-74840000D01*
X97036000Y-64821000D02*
X97036000Y-74879000D01*
X96996000Y-64781000D02*
X96996000Y-74919000D01*
X96956000Y-64743000D02*
X96956000Y-74957000D01*
X96916000Y-64705000D02*
X96916000Y-74995000D01*
X96876000Y-64668000D02*
X96876000Y-75032000D01*
X96836000Y-64631000D02*
X96836000Y-75069000D01*
X96796000Y-64595000D02*
X96796000Y-75105000D01*
X96756000Y-64559000D02*
X96756000Y-75141000D01*
X96716000Y-64524000D02*
X96716000Y-75176000D01*
X96676000Y-64489000D02*
X96676000Y-75211000D01*
X96636000Y-64455000D02*
X96636000Y-75245000D01*
X96596000Y-64421000D02*
X96596000Y-75279000D01*
X96556000Y-64388000D02*
X96556000Y-75312000D01*
X96516000Y-64356000D02*
X96516000Y-75344000D01*
X96476000Y-64323000D02*
X96476000Y-75377000D01*
X96436000Y-64292000D02*
X96436000Y-75408000D01*
X96396000Y-64261000D02*
X96396000Y-75439000D01*
X96356000Y-64230000D02*
X96356000Y-75470000D01*
X96316000Y-64200000D02*
X96316000Y-75500000D01*
X96276000Y-64170000D02*
X96276000Y-75530000D01*
X96236000Y-64140000D02*
X96236000Y-75560000D01*
X96196000Y-64111000D02*
X96196000Y-75589000D01*
X96156000Y-64083000D02*
X96156000Y-75617000D01*
X96116000Y-64054000D02*
X96116000Y-75646000D01*
X96076000Y-64027000D02*
X96076000Y-75673000D01*
X96036000Y-63999000D02*
X96036000Y-75701000D01*
X95996000Y-63972000D02*
X95996000Y-75728000D01*
X95956000Y-71290000D02*
X95956000Y-75754000D01*
X95956000Y-63946000D02*
X95956000Y-68410000D01*
X95916000Y-71290000D02*
X95916000Y-75780000D01*
X95916000Y-63920000D02*
X95916000Y-68410000D01*
X95876000Y-71290000D02*
X95876000Y-75806000D01*
X95876000Y-63894000D02*
X95876000Y-68410000D01*
X95836000Y-71290000D02*
X95836000Y-75832000D01*
X95836000Y-63868000D02*
X95836000Y-68410000D01*
X95796000Y-71290000D02*
X95796000Y-75857000D01*
X95796000Y-63843000D02*
X95796000Y-68410000D01*
X95756000Y-71290000D02*
X95756000Y-75881000D01*
X95756000Y-63819000D02*
X95756000Y-68410000D01*
X95716000Y-71290000D02*
X95716000Y-75906000D01*
X95716000Y-63794000D02*
X95716000Y-68410000D01*
X95676000Y-71290000D02*
X95676000Y-75930000D01*
X95676000Y-63770000D02*
X95676000Y-68410000D01*
X95636000Y-71290000D02*
X95636000Y-75953000D01*
X95636000Y-63747000D02*
X95636000Y-68410000D01*
X95596000Y-71290000D02*
X95596000Y-75977000D01*
X95596000Y-63723000D02*
X95596000Y-68410000D01*
X95556000Y-71290000D02*
X95556000Y-76000000D01*
X95556000Y-63700000D02*
X95556000Y-68410000D01*
X95516000Y-71290000D02*
X95516000Y-76022000D01*
X95516000Y-63678000D02*
X95516000Y-68410000D01*
X95476000Y-71290000D02*
X95476000Y-76044000D01*
X95476000Y-63656000D02*
X95476000Y-68410000D01*
X95436000Y-71290000D02*
X95436000Y-76066000D01*
X95436000Y-63634000D02*
X95436000Y-68410000D01*
X95396000Y-71290000D02*
X95396000Y-76088000D01*
X95396000Y-63612000D02*
X95396000Y-68410000D01*
X95356000Y-71290000D02*
X95356000Y-76109000D01*
X95356000Y-63591000D02*
X95356000Y-68410000D01*
X95316000Y-71290000D02*
X95316000Y-76130000D01*
X95316000Y-63570000D02*
X95316000Y-68410000D01*
X95276000Y-71290000D02*
X95276000Y-76151000D01*
X95276000Y-63549000D02*
X95276000Y-68410000D01*
X95236000Y-71290000D02*
X95236000Y-76171000D01*
X95236000Y-63529000D02*
X95236000Y-68410000D01*
X95196000Y-71290000D02*
X95196000Y-76191000D01*
X95196000Y-63509000D02*
X95196000Y-68410000D01*
X95156000Y-71290000D02*
X95156000Y-76210000D01*
X95156000Y-63490000D02*
X95156000Y-68410000D01*
X95116000Y-71290000D02*
X95116000Y-76230000D01*
X95116000Y-63470000D02*
X95116000Y-68410000D01*
X95076000Y-71290000D02*
X95076000Y-76249000D01*
X95076000Y-63451000D02*
X95076000Y-68410000D01*
X95036000Y-71290000D02*
X95036000Y-76268000D01*
X95036000Y-63432000D02*
X95036000Y-68410000D01*
X94996000Y-71290000D02*
X94996000Y-76286000D01*
X94996000Y-63414000D02*
X94996000Y-68410000D01*
X94956000Y-71290000D02*
X94956000Y-76304000D01*
X94956000Y-63396000D02*
X94956000Y-68410000D01*
X94916000Y-71290000D02*
X94916000Y-76322000D01*
X94916000Y-63378000D02*
X94916000Y-68410000D01*
X94876000Y-71290000D02*
X94876000Y-76340000D01*
X94876000Y-63360000D02*
X94876000Y-68410000D01*
X94836000Y-71290000D02*
X94836000Y-76357000D01*
X94836000Y-63343000D02*
X94836000Y-68410000D01*
X94796000Y-71290000D02*
X94796000Y-76374000D01*
X94796000Y-63326000D02*
X94796000Y-68410000D01*
X94756000Y-71290000D02*
X94756000Y-76390000D01*
X94756000Y-63310000D02*
X94756000Y-68410000D01*
X94716000Y-71290000D02*
X94716000Y-76407000D01*
X94716000Y-63293000D02*
X94716000Y-68410000D01*
X94676000Y-71290000D02*
X94676000Y-76423000D01*
X94676000Y-63277000D02*
X94676000Y-68410000D01*
X94636000Y-71290000D02*
X94636000Y-76439000D01*
X94636000Y-63261000D02*
X94636000Y-68410000D01*
X94596000Y-71290000D02*
X94596000Y-76454000D01*
X94596000Y-63246000D02*
X94596000Y-68410000D01*
X94556000Y-71290000D02*
X94556000Y-76470000D01*
X94556000Y-63230000D02*
X94556000Y-68410000D01*
X94516000Y-71290000D02*
X94516000Y-76485000D01*
X94516000Y-63215000D02*
X94516000Y-68410000D01*
X94476000Y-71290000D02*
X94476000Y-76499000D01*
X94476000Y-63201000D02*
X94476000Y-68410000D01*
X94436000Y-71290000D02*
X94436000Y-76514000D01*
X94436000Y-63186000D02*
X94436000Y-68410000D01*
X94396000Y-71290000D02*
X94396000Y-76528000D01*
X94396000Y-63172000D02*
X94396000Y-68410000D01*
X94356000Y-71290000D02*
X94356000Y-76542000D01*
X94356000Y-63158000D02*
X94356000Y-68410000D01*
X94316000Y-71290000D02*
X94316000Y-76556000D01*
X94316000Y-63144000D02*
X94316000Y-68410000D01*
X94276000Y-71290000D02*
X94276000Y-76569000D01*
X94276000Y-63131000D02*
X94276000Y-68410000D01*
X94236000Y-71290000D02*
X94236000Y-76582000D01*
X94236000Y-63118000D02*
X94236000Y-68410000D01*
X94196000Y-71290000D02*
X94196000Y-76595000D01*
X94196000Y-63105000D02*
X94196000Y-68410000D01*
X94156000Y-71290000D02*
X94156000Y-76608000D01*
X94156000Y-63092000D02*
X94156000Y-68410000D01*
X94116000Y-71290000D02*
X94116000Y-76620000D01*
X94116000Y-63080000D02*
X94116000Y-68410000D01*
X94076000Y-71290000D02*
X94076000Y-76632000D01*
X94076000Y-63068000D02*
X94076000Y-68410000D01*
X94036000Y-71290000D02*
X94036000Y-76644000D01*
X94036000Y-63056000D02*
X94036000Y-68410000D01*
X93996000Y-71290000D02*
X93996000Y-76655000D01*
X93996000Y-63045000D02*
X93996000Y-68410000D01*
X93956000Y-71290000D02*
X93956000Y-76667000D01*
X93956000Y-63033000D02*
X93956000Y-68410000D01*
X93916000Y-71290000D02*
X93916000Y-76678000D01*
X93916000Y-63022000D02*
X93916000Y-68410000D01*
X93876000Y-71290000D02*
X93876000Y-76689000D01*
X93876000Y-63011000D02*
X93876000Y-68410000D01*
X93836000Y-71290000D02*
X93836000Y-76699000D01*
X93836000Y-63001000D02*
X93836000Y-68410000D01*
X93796000Y-71290000D02*
X93796000Y-76710000D01*
X93796000Y-62990000D02*
X93796000Y-68410000D01*
X93756000Y-71290000D02*
X93756000Y-76720000D01*
X93756000Y-62980000D02*
X93756000Y-68410000D01*
X93716000Y-71290000D02*
X93716000Y-76729000D01*
X93716000Y-62971000D02*
X93716000Y-68410000D01*
X93676000Y-71290000D02*
X93676000Y-76739000D01*
X93676000Y-62961000D02*
X93676000Y-68410000D01*
X93636000Y-71290000D02*
X93636000Y-76748000D01*
X93636000Y-62952000D02*
X93636000Y-68410000D01*
X93596000Y-71290000D02*
X93596000Y-76757000D01*
X93596000Y-62943000D02*
X93596000Y-68410000D01*
X93556000Y-71290000D02*
X93556000Y-76766000D01*
X93556000Y-62934000D02*
X93556000Y-68410000D01*
X93516000Y-71290000D02*
X93516000Y-76775000D01*
X93516000Y-62925000D02*
X93516000Y-68410000D01*
X93476000Y-71290000D02*
X93476000Y-76783000D01*
X93476000Y-62917000D02*
X93476000Y-68410000D01*
X93436000Y-71290000D02*
X93436000Y-76792000D01*
X93436000Y-62908000D02*
X93436000Y-68410000D01*
X93396000Y-71290000D02*
X93396000Y-76799000D01*
X93396000Y-62901000D02*
X93396000Y-68410000D01*
X93356000Y-71290000D02*
X93356000Y-76807000D01*
X93356000Y-62893000D02*
X93356000Y-68410000D01*
X93316000Y-71290000D02*
X93316000Y-76814000D01*
X93316000Y-62886000D02*
X93316000Y-68410000D01*
X93276000Y-71290000D02*
X93276000Y-76822000D01*
X93276000Y-62878000D02*
X93276000Y-68410000D01*
X93236000Y-71290000D02*
X93236000Y-76829000D01*
X93236000Y-62871000D02*
X93236000Y-68410000D01*
X93196000Y-71290000D02*
X93196000Y-76835000D01*
X93196000Y-62865000D02*
X93196000Y-68410000D01*
X93156000Y-71290000D02*
X93156000Y-76842000D01*
X93156000Y-62858000D02*
X93156000Y-68410000D01*
X93116000Y-71290000D02*
X93116000Y-76848000D01*
X93116000Y-62852000D02*
X93116000Y-68410000D01*
X93076000Y-62846000D02*
X93076000Y-76854000D01*
X93036000Y-62840000D02*
X93036000Y-76860000D01*
X92996000Y-62835000D02*
X92996000Y-76865000D01*
X92956000Y-62829000D02*
X92956000Y-76871000D01*
X92916000Y-62824000D02*
X92916000Y-76876000D01*
X92876000Y-62819000D02*
X92876000Y-76881000D01*
X92836000Y-62815000D02*
X92836000Y-76885000D01*
X92796000Y-62810000D02*
X92796000Y-76890000D01*
X92756000Y-62806000D02*
X92756000Y-76894000D01*
X92715000Y-62802000D02*
X92715000Y-76898000D01*
X92675000Y-62798000D02*
X92675000Y-76902000D01*
X92635000Y-62795000D02*
X92635000Y-76905000D01*
X92595000Y-62792000D02*
X92595000Y-76908000D01*
X92555000Y-62789000D02*
X92555000Y-76911000D01*
X92515000Y-62786000D02*
X92515000Y-76914000D01*
X92475000Y-62783000D02*
X92475000Y-76917000D01*
X92435000Y-62781000D02*
X92435000Y-76919000D01*
X92395000Y-62779000D02*
X92395000Y-76921000D01*
X92355000Y-62777000D02*
X92355000Y-76923000D01*
X92315000Y-62775000D02*
X92315000Y-76925000D01*
X92275000Y-62774000D02*
X92275000Y-76926000D01*
X92235000Y-62772000D02*
X92235000Y-76928000D01*
X92195000Y-62771000D02*
X92195000Y-76929000D01*
X92155000Y-62771000D02*
X92155000Y-76929000D01*
X92115000Y-62770000D02*
X92115000Y-76930000D01*
X92075000Y-62770000D02*
X92075000Y-76930000D01*
X92035000Y-62770000D02*
X92035000Y-76930000D01*
X99155000Y-69850000D02*
G75*
G03X99155000Y-69850000I-7120000J0D01*
G01*
X124425000Y-75365000D02*
X124425000Y-78305000D01*
X124665000Y-75365000D02*
X124665000Y-78305000D01*
X124545000Y-75365000D02*
X124545000Y-78305000D01*
X130105000Y-76835000D02*
X129085000Y-76835000D01*
X122625000Y-76835000D02*
X123645000Y-76835000D01*
X129085000Y-75365000D02*
X123645000Y-75365000D01*
X129085000Y-78305000D02*
X129085000Y-75365000D01*
X123645000Y-78305000D02*
X129085000Y-78305000D01*
X123645000Y-75365000D02*
X123645000Y-78305000D01*
X123645000Y-70285000D02*
X123645000Y-73225000D01*
X123645000Y-73225000D02*
X129085000Y-73225000D01*
X129085000Y-73225000D02*
X129085000Y-70285000D01*
X129085000Y-70285000D02*
X123645000Y-70285000D01*
X122625000Y-71755000D02*
X123645000Y-71755000D01*
X130105000Y-71755000D02*
X129085000Y-71755000D01*
X124545000Y-70285000D02*
X124545000Y-73225000D01*
X124665000Y-70285000D02*
X124665000Y-73225000D01*
X124425000Y-70285000D02*
X124425000Y-73225000D01*
X123645000Y-65205000D02*
X123645000Y-68145000D01*
X123645000Y-68145000D02*
X129085000Y-68145000D01*
X129085000Y-68145000D02*
X129085000Y-65205000D01*
X129085000Y-65205000D02*
X123645000Y-65205000D01*
X122625000Y-66675000D02*
X123645000Y-66675000D01*
X130105000Y-66675000D02*
X129085000Y-66675000D01*
X124545000Y-65205000D02*
X124545000Y-68145000D01*
X124665000Y-65205000D02*
X124665000Y-68145000D01*
X124425000Y-65205000D02*
X124425000Y-68145000D01*
X124425000Y-49965000D02*
X124425000Y-52905000D01*
X124665000Y-49965000D02*
X124665000Y-52905000D01*
X124545000Y-49965000D02*
X124545000Y-52905000D01*
X130105000Y-51435000D02*
X129085000Y-51435000D01*
X122625000Y-51435000D02*
X123645000Y-51435000D01*
X129085000Y-49965000D02*
X123645000Y-49965000D01*
X129085000Y-52905000D02*
X129085000Y-49965000D01*
X123645000Y-52905000D02*
X129085000Y-52905000D01*
X123645000Y-49965000D02*
X123645000Y-52905000D01*
X124425000Y-90605000D02*
X124425000Y-93545000D01*
X124665000Y-90605000D02*
X124665000Y-93545000D01*
X124545000Y-90605000D02*
X124545000Y-93545000D01*
X130105000Y-92075000D02*
X129085000Y-92075000D01*
X122625000Y-92075000D02*
X123645000Y-92075000D01*
X129085000Y-90605000D02*
X123645000Y-90605000D01*
X129085000Y-93545000D02*
X129085000Y-90605000D01*
X123645000Y-93545000D02*
X129085000Y-93545000D01*
X123645000Y-90605000D02*
X123645000Y-93545000D01*
X123645000Y-85525000D02*
X123645000Y-88465000D01*
X123645000Y-88465000D02*
X129085000Y-88465000D01*
X129085000Y-88465000D02*
X129085000Y-85525000D01*
X129085000Y-85525000D02*
X123645000Y-85525000D01*
X122625000Y-86995000D02*
X123645000Y-86995000D01*
X130105000Y-86995000D02*
X129085000Y-86995000D01*
X124545000Y-85525000D02*
X124545000Y-88465000D01*
X124665000Y-85525000D02*
X124665000Y-88465000D01*
X124425000Y-85525000D02*
X124425000Y-88465000D01*
X124425000Y-44885000D02*
X124425000Y-47825000D01*
X124665000Y-44885000D02*
X124665000Y-47825000D01*
X124545000Y-44885000D02*
X124545000Y-47825000D01*
X130105000Y-46355000D02*
X129085000Y-46355000D01*
X122625000Y-46355000D02*
X123645000Y-46355000D01*
X129085000Y-44885000D02*
X123645000Y-44885000D01*
X129085000Y-47825000D02*
X129085000Y-44885000D01*
X123645000Y-47825000D02*
X129085000Y-47825000D01*
X123645000Y-44885000D02*
X123645000Y-47825000D01*
X123645000Y-60125000D02*
X123645000Y-63065000D01*
X123645000Y-63065000D02*
X129085000Y-63065000D01*
X129085000Y-63065000D02*
X129085000Y-60125000D01*
X129085000Y-60125000D02*
X123645000Y-60125000D01*
X122625000Y-61595000D02*
X123645000Y-61595000D01*
X130105000Y-61595000D02*
X129085000Y-61595000D01*
X124545000Y-60125000D02*
X124545000Y-63065000D01*
X124665000Y-60125000D02*
X124665000Y-63065000D01*
X124425000Y-60125000D02*
X124425000Y-63065000D01*
X123645000Y-55045000D02*
X123645000Y-57985000D01*
X123645000Y-57985000D02*
X129085000Y-57985000D01*
X129085000Y-57985000D02*
X129085000Y-55045000D01*
X129085000Y-55045000D02*
X123645000Y-55045000D01*
X122625000Y-56515000D02*
X123645000Y-56515000D01*
X130105000Y-56515000D02*
X129085000Y-56515000D01*
X124545000Y-55045000D02*
X124545000Y-57985000D01*
X124665000Y-55045000D02*
X124665000Y-57985000D01*
X124425000Y-55045000D02*
X124425000Y-57985000D01*
X124425000Y-80445000D02*
X124425000Y-83385000D01*
X124665000Y-80445000D02*
X124665000Y-83385000D01*
X124545000Y-80445000D02*
X124545000Y-83385000D01*
X130105000Y-81915000D02*
X129085000Y-81915000D01*
X122625000Y-81915000D02*
X123645000Y-81915000D01*
X129085000Y-80445000D02*
X123645000Y-80445000D01*
X129085000Y-83385000D02*
X129085000Y-80445000D01*
X123645000Y-83385000D02*
X129085000Y-83385000D01*
X123645000Y-80445000D02*
X123645000Y-83385000D01*
X77410000Y-47625000D02*
X80070000Y-47625000D01*
X77410000Y-47625000D02*
X77410000Y-50225000D01*
X77410000Y-50225000D02*
X80070000Y-50225000D01*
X80070000Y-47625000D02*
X80070000Y-50225000D01*
X80070000Y-45025000D02*
X80070000Y-46355000D01*
X78740000Y-45025000D02*
X80070000Y-45025000D01*
X161230000Y-52765000D02*
X163890000Y-52765000D01*
X161230000Y-47625000D02*
X161230000Y-52765000D01*
X163890000Y-47625000D02*
X163890000Y-52765000D01*
X161230000Y-47625000D02*
X163890000Y-47625000D01*
X161230000Y-46355000D02*
X161230000Y-45025000D01*
X161230000Y-45025000D02*
X162560000Y-45025000D01*
X161230000Y-57725000D02*
X162560000Y-57725000D01*
X161230000Y-59055000D02*
X161230000Y-57725000D01*
X161230000Y-60325000D02*
X163890000Y-60325000D01*
X163890000Y-60325000D02*
X163890000Y-65465000D01*
X161230000Y-60325000D02*
X161230000Y-65465000D01*
X161230000Y-65465000D02*
X163890000Y-65465000D01*
X161230000Y-79435000D02*
X163890000Y-79435000D01*
X161230000Y-74295000D02*
X161230000Y-79435000D01*
X163890000Y-74295000D02*
X163890000Y-79435000D01*
X161230000Y-74295000D02*
X163890000Y-74295000D01*
X161230000Y-73025000D02*
X161230000Y-71695000D01*
X161230000Y-71695000D02*
X162560000Y-71695000D01*
X161230000Y-93405000D02*
X163890000Y-93405000D01*
X161230000Y-88265000D02*
X161230000Y-93405000D01*
X163890000Y-88265000D02*
X163890000Y-93405000D01*
X161230000Y-88265000D02*
X163890000Y-88265000D01*
X161230000Y-86995000D02*
X161230000Y-85665000D01*
X161230000Y-85665000D02*
X162560000Y-85665000D01*
X77410000Y-81340000D02*
X80070000Y-81340000D01*
X77410000Y-68580000D02*
X77410000Y-81340000D01*
X80070000Y-68580000D02*
X80070000Y-81340000D01*
X77410000Y-68580000D02*
X80070000Y-68580000D01*
X77410000Y-67310000D02*
X77410000Y-65980000D01*
X77410000Y-65980000D02*
X78740000Y-65980000D01*
X77410000Y-53915000D02*
X78740000Y-53915000D01*
X77410000Y-55245000D02*
X77410000Y-53915000D01*
X77410000Y-56515000D02*
X80070000Y-56515000D01*
X80070000Y-56515000D02*
X80070000Y-61655000D01*
X77410000Y-56515000D02*
X77410000Y-61655000D01*
X77410000Y-61655000D02*
X80070000Y-61655000D01*
D12*
X156540000Y-84900000D02*
X156240000Y-85050000D01*
X156540000Y-84600000D02*
X156540000Y-84900000D01*
X156540000Y-80200000D02*
X156540000Y-80500000D01*
X156540000Y-80200000D02*
X156240000Y-80050000D01*
D10*
X153390000Y-80600000D02*
G75*
G03X153340000Y-84450000I1900000J-1950000D01*
G01*
X153390000Y-88855000D02*
G75*
G03X153340000Y-92705000I1900000J-1950000D01*
G01*
D12*
X156540000Y-88455000D02*
X156240000Y-88305000D01*
X156540000Y-88455000D02*
X156540000Y-88755000D01*
X156540000Y-92855000D02*
X156540000Y-93155000D01*
X156540000Y-93155000D02*
X156240000Y-93305000D01*
D11*
X146780000Y-58520000D02*
X146780000Y-58190000D01*
X140240000Y-58520000D02*
X146780000Y-58520000D01*
X140240000Y-58190000D02*
X140240000Y-58520000D01*
X146780000Y-55780000D02*
X146780000Y-56110000D01*
X140240000Y-55780000D02*
X146780000Y-55780000D01*
X140240000Y-56110000D02*
X140240000Y-55780000D01*
X140240000Y-86590000D02*
X140240000Y-86260000D01*
X140240000Y-86260000D02*
X146780000Y-86260000D01*
X146780000Y-86260000D02*
X146780000Y-86590000D01*
X140240000Y-88670000D02*
X140240000Y-89000000D01*
X140240000Y-89000000D02*
X146780000Y-89000000D01*
X146780000Y-89000000D02*
X146780000Y-88670000D01*
X140240000Y-66270000D02*
X140240000Y-65940000D01*
X140240000Y-65940000D02*
X146780000Y-65940000D01*
X146780000Y-65940000D02*
X146780000Y-66270000D01*
X140240000Y-68350000D02*
X140240000Y-68680000D01*
X140240000Y-68680000D02*
X146780000Y-68680000D01*
X146780000Y-68680000D02*
X146780000Y-68350000D01*
X146780000Y-94080000D02*
X146780000Y-93750000D01*
X140240000Y-94080000D02*
X146780000Y-94080000D01*
X140240000Y-93750000D02*
X140240000Y-94080000D01*
X146780000Y-91340000D02*
X146780000Y-91670000D01*
X140240000Y-91340000D02*
X146780000Y-91340000D01*
X140240000Y-91670000D02*
X140240000Y-91340000D01*
X146780000Y-63600000D02*
X146780000Y-63270000D01*
X140240000Y-63600000D02*
X146780000Y-63600000D01*
X140240000Y-63270000D02*
X140240000Y-63600000D01*
X146780000Y-60860000D02*
X146780000Y-61190000D01*
X140240000Y-60860000D02*
X146780000Y-60860000D01*
X140240000Y-61190000D02*
X140240000Y-60860000D01*
X146780000Y-78840000D02*
X146780000Y-78510000D01*
X140240000Y-78840000D02*
X146780000Y-78840000D01*
X140240000Y-78510000D02*
X140240000Y-78840000D01*
X146780000Y-76100000D02*
X146780000Y-76430000D01*
X140240000Y-76100000D02*
X146780000Y-76100000D01*
X140240000Y-76430000D02*
X140240000Y-76100000D01*
X140240000Y-81510000D02*
X140240000Y-81180000D01*
X140240000Y-81180000D02*
X146780000Y-81180000D01*
X146780000Y-81180000D02*
X146780000Y-81510000D01*
X140240000Y-83590000D02*
X140240000Y-83920000D01*
X140240000Y-83920000D02*
X146780000Y-83920000D01*
X146780000Y-83920000D02*
X146780000Y-83590000D01*
X140240000Y-71350000D02*
X140240000Y-71020000D01*
X140240000Y-71020000D02*
X146780000Y-71020000D01*
X146780000Y-71020000D02*
X146780000Y-71350000D01*
X140240000Y-73430000D02*
X140240000Y-73760000D01*
X140240000Y-73760000D02*
X146780000Y-73760000D01*
X146780000Y-73760000D02*
X146780000Y-73430000D01*
X153610000Y-47625000D02*
X156270000Y-47625000D01*
X153610000Y-47625000D02*
X153610000Y-55305000D01*
X153610000Y-55305000D02*
X156270000Y-55305000D01*
X156270000Y-47625000D02*
X156270000Y-55305000D01*
X156270000Y-45025000D02*
X156270000Y-46355000D01*
X154940000Y-45025000D02*
X156270000Y-45025000D01*
D12*
X141340000Y-49960000D02*
X141340000Y-52910000D01*
X141240000Y-49960000D02*
X141240000Y-52910000D01*
X141140000Y-49960000D02*
X141140000Y-52910000D01*
X141040000Y-49960000D02*
X141040000Y-52910000D01*
X146390000Y-49960000D02*
X146390000Y-50335000D01*
X145890000Y-49960000D02*
X146390000Y-49960000D01*
X146390000Y-52910000D02*
X145990000Y-52910000D01*
X146390000Y-52460000D02*
X146390000Y-52910000D01*
X140940000Y-49960000D02*
X140940000Y-52910000D01*
X141540000Y-49960000D02*
X140940000Y-49960000D01*
X140940000Y-52910000D02*
X141440000Y-52910000D01*
X140940000Y-47830000D02*
X141440000Y-47830000D01*
X141540000Y-44880000D02*
X140940000Y-44880000D01*
X140940000Y-44880000D02*
X140940000Y-47830000D01*
X146390000Y-47380000D02*
X146390000Y-47830000D01*
X146390000Y-47830000D02*
X145990000Y-47830000D01*
X145890000Y-44880000D02*
X146390000Y-44880000D01*
X146390000Y-44880000D02*
X146390000Y-45255000D01*
X141040000Y-44880000D02*
X141040000Y-47830000D01*
X141140000Y-44880000D02*
X141140000Y-47830000D01*
X141240000Y-44880000D02*
X141240000Y-47830000D01*
X141340000Y-44880000D02*
X141340000Y-47830000D01*
D10*
X107778333Y-43002142D02*
X107730714Y-43049761D01*
X107587857Y-43097380D01*
X107492619Y-43097380D01*
X107349761Y-43049761D01*
X107254523Y-42954523D01*
X107206904Y-42859285D01*
X107159285Y-42668809D01*
X107159285Y-42525952D01*
X107206904Y-42335476D01*
X107254523Y-42240238D01*
X107349761Y-42145000D01*
X107492619Y-42097380D01*
X107587857Y-42097380D01*
X107730714Y-42145000D01*
X107778333Y-42192619D01*
X108730714Y-43097380D02*
X108159285Y-43097380D01*
X108445000Y-43097380D02*
X108445000Y-42097380D01*
X108349761Y-42240238D01*
X108254523Y-42335476D01*
X108159285Y-42383095D01*
X107778333Y-69672142D02*
X107730714Y-69719761D01*
X107587857Y-69767380D01*
X107492619Y-69767380D01*
X107349761Y-69719761D01*
X107254523Y-69624523D01*
X107206904Y-69529285D01*
X107159285Y-69338809D01*
X107159285Y-69195952D01*
X107206904Y-69005476D01*
X107254523Y-68910238D01*
X107349761Y-68815000D01*
X107492619Y-68767380D01*
X107587857Y-68767380D01*
X107730714Y-68815000D01*
X107778333Y-68862619D01*
X108159285Y-68862619D02*
X108206904Y-68815000D01*
X108302142Y-68767380D01*
X108540238Y-68767380D01*
X108635476Y-68815000D01*
X108683095Y-68862619D01*
X108730714Y-68957857D01*
X108730714Y-69053095D01*
X108683095Y-69195952D01*
X108111666Y-69767380D01*
X108730714Y-69767380D01*
X107302142Y-56337142D02*
X107254523Y-56384761D01*
X107111666Y-56432380D01*
X107016428Y-56432380D01*
X106873571Y-56384761D01*
X106778333Y-56289523D01*
X106730714Y-56194285D01*
X106683095Y-56003809D01*
X106683095Y-55860952D01*
X106730714Y-55670476D01*
X106778333Y-55575238D01*
X106873571Y-55480000D01*
X107016428Y-55432380D01*
X107111666Y-55432380D01*
X107254523Y-55480000D01*
X107302142Y-55527619D01*
X108254523Y-56432380D02*
X107683095Y-56432380D01*
X107968809Y-56432380D02*
X107968809Y-55432380D01*
X107873571Y-55575238D01*
X107778333Y-55670476D01*
X107683095Y-55718095D01*
X109206904Y-56432380D02*
X108635476Y-56432380D01*
X108921190Y-56432380D02*
X108921190Y-55432380D01*
X108825952Y-55575238D01*
X108730714Y-55670476D01*
X108635476Y-55718095D01*
X91392142Y-79737142D02*
X91344523Y-79784761D01*
X91201666Y-79832380D01*
X91106428Y-79832380D01*
X90963571Y-79784761D01*
X90868333Y-79689523D01*
X90820714Y-79594285D01*
X90773095Y-79403809D01*
X90773095Y-79260952D01*
X90820714Y-79070476D01*
X90868333Y-78975238D01*
X90963571Y-78880000D01*
X91106428Y-78832380D01*
X91201666Y-78832380D01*
X91344523Y-78880000D01*
X91392142Y-78927619D01*
X92344523Y-79832380D02*
X91773095Y-79832380D01*
X92058809Y-79832380D02*
X92058809Y-78832380D01*
X91963571Y-78975238D01*
X91868333Y-79070476D01*
X91773095Y-79118095D01*
X93201666Y-78832380D02*
X93011190Y-78832380D01*
X92915952Y-78880000D01*
X92868333Y-78927619D01*
X92773095Y-79070476D01*
X92725476Y-79260952D01*
X92725476Y-79641904D01*
X92773095Y-79737142D01*
X92820714Y-79784761D01*
X92915952Y-79832380D01*
X93106428Y-79832380D01*
X93201666Y-79784761D01*
X93249285Y-79737142D01*
X93296904Y-79641904D01*
X93296904Y-79403809D01*
X93249285Y-79308571D01*
X93201666Y-79260952D01*
X93106428Y-79213333D01*
X92915952Y-79213333D01*
X92820714Y-79260952D01*
X92773095Y-79308571D01*
X92725476Y-79403809D01*
X152797142Y-62912857D02*
X152844761Y-62960476D01*
X152892380Y-63103333D01*
X152892380Y-63198571D01*
X152844761Y-63341428D01*
X152749523Y-63436666D01*
X152654285Y-63484285D01*
X152463809Y-63531904D01*
X152320952Y-63531904D01*
X152130476Y-63484285D01*
X152035238Y-63436666D01*
X151940000Y-63341428D01*
X151892380Y-63198571D01*
X151892380Y-63103333D01*
X151940000Y-62960476D01*
X151987619Y-62912857D01*
X152892380Y-61960476D02*
X152892380Y-62531904D01*
X152892380Y-62246190D02*
X151892380Y-62246190D01*
X152035238Y-62341428D01*
X152130476Y-62436666D01*
X152178095Y-62531904D01*
X151892380Y-61627142D02*
X151892380Y-60960476D01*
X152892380Y-61389047D01*
X107302142Y-83007142D02*
X107254523Y-83054761D01*
X107111666Y-83102380D01*
X107016428Y-83102380D01*
X106873571Y-83054761D01*
X106778333Y-82959523D01*
X106730714Y-82864285D01*
X106683095Y-82673809D01*
X106683095Y-82530952D01*
X106730714Y-82340476D01*
X106778333Y-82245238D01*
X106873571Y-82150000D01*
X107016428Y-82102380D01*
X107111666Y-82102380D01*
X107254523Y-82150000D01*
X107302142Y-82197619D01*
X108254523Y-83102380D02*
X107683095Y-83102380D01*
X107968809Y-83102380D02*
X107968809Y-82102380D01*
X107873571Y-82245238D01*
X107778333Y-82340476D01*
X107683095Y-82388095D01*
X108825952Y-82530952D02*
X108730714Y-82483333D01*
X108683095Y-82435714D01*
X108635476Y-82340476D01*
X108635476Y-82292857D01*
X108683095Y-82197619D01*
X108730714Y-82150000D01*
X108825952Y-82102380D01*
X109016428Y-82102380D01*
X109111666Y-82150000D01*
X109159285Y-82197619D01*
X109206904Y-82292857D01*
X109206904Y-82340476D01*
X109159285Y-82435714D01*
X109111666Y-82483333D01*
X109016428Y-82530952D01*
X108825952Y-82530952D01*
X108730714Y-82578571D01*
X108683095Y-82626190D01*
X108635476Y-82721428D01*
X108635476Y-82911904D01*
X108683095Y-83007142D01*
X108730714Y-83054761D01*
X108825952Y-83102380D01*
X109016428Y-83102380D01*
X109111666Y-83054761D01*
X109159285Y-83007142D01*
X109206904Y-82911904D01*
X109206904Y-82721428D01*
X109159285Y-82626190D01*
X109111666Y-82578571D01*
X109016428Y-82530952D01*
X152797142Y-73707857D02*
X152844761Y-73755476D01*
X152892380Y-73898333D01*
X152892380Y-73993571D01*
X152844761Y-74136428D01*
X152749523Y-74231666D01*
X152654285Y-74279285D01*
X152463809Y-74326904D01*
X152320952Y-74326904D01*
X152130476Y-74279285D01*
X152035238Y-74231666D01*
X151940000Y-74136428D01*
X151892380Y-73993571D01*
X151892380Y-73898333D01*
X151940000Y-73755476D01*
X151987619Y-73707857D01*
X151987619Y-73326904D02*
X151940000Y-73279285D01*
X151892380Y-73184047D01*
X151892380Y-72945952D01*
X151940000Y-72850714D01*
X151987619Y-72803095D01*
X152082857Y-72755476D01*
X152178095Y-72755476D01*
X152320952Y-72803095D01*
X152892380Y-73374523D01*
X152892380Y-72755476D01*
X151892380Y-72136428D02*
X151892380Y-72041190D01*
X151940000Y-71945952D01*
X151987619Y-71898333D01*
X152082857Y-71850714D01*
X152273333Y-71803095D01*
X152511428Y-71803095D01*
X152701904Y-71850714D01*
X152797142Y-71898333D01*
X152844761Y-71945952D01*
X152892380Y-72041190D01*
X152892380Y-72136428D01*
X152844761Y-72231666D01*
X152797142Y-72279285D01*
X152701904Y-72326904D01*
X152511428Y-72374523D01*
X152273333Y-72374523D01*
X152082857Y-72326904D01*
X151987619Y-72279285D01*
X151940000Y-72231666D01*
X151892380Y-72136428D01*
X91392142Y-42562142D02*
X91344523Y-42609761D01*
X91201666Y-42657380D01*
X91106428Y-42657380D01*
X90963571Y-42609761D01*
X90868333Y-42514523D01*
X90820714Y-42419285D01*
X90773095Y-42228809D01*
X90773095Y-42085952D01*
X90820714Y-41895476D01*
X90868333Y-41800238D01*
X90963571Y-41705000D01*
X91106428Y-41657380D01*
X91201666Y-41657380D01*
X91344523Y-41705000D01*
X91392142Y-41752619D01*
X91773095Y-41752619D02*
X91820714Y-41705000D01*
X91915952Y-41657380D01*
X92154047Y-41657380D01*
X92249285Y-41705000D01*
X92296904Y-41752619D01*
X92344523Y-41847857D01*
X92344523Y-41943095D01*
X92296904Y-42085952D01*
X91725476Y-42657380D01*
X92344523Y-42657380D01*
X92725476Y-41752619D02*
X92773095Y-41705000D01*
X92868333Y-41657380D01*
X93106428Y-41657380D01*
X93201666Y-41705000D01*
X93249285Y-41752619D01*
X93296904Y-41847857D01*
X93296904Y-41943095D01*
X93249285Y-42085952D01*
X92677857Y-42657380D01*
X93296904Y-42657380D01*
X91392142Y-61957142D02*
X91344523Y-62004761D01*
X91201666Y-62052380D01*
X91106428Y-62052380D01*
X90963571Y-62004761D01*
X90868333Y-61909523D01*
X90820714Y-61814285D01*
X90773095Y-61623809D01*
X90773095Y-61480952D01*
X90820714Y-61290476D01*
X90868333Y-61195238D01*
X90963571Y-61100000D01*
X91106428Y-61052380D01*
X91201666Y-61052380D01*
X91344523Y-61100000D01*
X91392142Y-61147619D01*
X91773095Y-61147619D02*
X91820714Y-61100000D01*
X91915952Y-61052380D01*
X92154047Y-61052380D01*
X92249285Y-61100000D01*
X92296904Y-61147619D01*
X92344523Y-61242857D01*
X92344523Y-61338095D01*
X92296904Y-61480952D01*
X91725476Y-62052380D01*
X92344523Y-62052380D01*
X93249285Y-61052380D02*
X92773095Y-61052380D01*
X92725476Y-61528571D01*
X92773095Y-61480952D01*
X92868333Y-61433333D01*
X93106428Y-61433333D01*
X93201666Y-61480952D01*
X93249285Y-61528571D01*
X93296904Y-61623809D01*
X93296904Y-61861904D01*
X93249285Y-61957142D01*
X93201666Y-62004761D01*
X93106428Y-62052380D01*
X92868333Y-62052380D01*
X92773095Y-62004761D01*
X92725476Y-61957142D01*
X125626904Y-74817380D02*
X125626904Y-73817380D01*
X125865000Y-73817380D01*
X126007857Y-73865000D01*
X126103095Y-73960238D01*
X126150714Y-74055476D01*
X126198333Y-74245952D01*
X126198333Y-74388809D01*
X126150714Y-74579285D01*
X126103095Y-74674523D01*
X126007857Y-74769761D01*
X125865000Y-74817380D01*
X125626904Y-74817380D01*
X127150714Y-74817380D02*
X126579285Y-74817380D01*
X126865000Y-74817380D02*
X126865000Y-73817380D01*
X126769761Y-73960238D01*
X126674523Y-74055476D01*
X126579285Y-74103095D01*
X121023095Y-75187380D02*
X121023095Y-74187380D01*
X121594523Y-75187380D02*
X121165952Y-74615952D01*
X121594523Y-74187380D02*
X121023095Y-74758809D01*
X125626904Y-69737380D02*
X125626904Y-68737380D01*
X125865000Y-68737380D01*
X126007857Y-68785000D01*
X126103095Y-68880238D01*
X126150714Y-68975476D01*
X126198333Y-69165952D01*
X126198333Y-69308809D01*
X126150714Y-69499285D01*
X126103095Y-69594523D01*
X126007857Y-69689761D01*
X125865000Y-69737380D01*
X125626904Y-69737380D01*
X126579285Y-68832619D02*
X126626904Y-68785000D01*
X126722142Y-68737380D01*
X126960238Y-68737380D01*
X127055476Y-68785000D01*
X127103095Y-68832619D01*
X127150714Y-68927857D01*
X127150714Y-69023095D01*
X127103095Y-69165952D01*
X126531666Y-69737380D01*
X127150714Y-69737380D01*
X121023095Y-70107380D02*
X121023095Y-69107380D01*
X121594523Y-70107380D02*
X121165952Y-69535952D01*
X121594523Y-69107380D02*
X121023095Y-69678809D01*
X125626904Y-64657380D02*
X125626904Y-63657380D01*
X125865000Y-63657380D01*
X126007857Y-63705000D01*
X126103095Y-63800238D01*
X126150714Y-63895476D01*
X126198333Y-64085952D01*
X126198333Y-64228809D01*
X126150714Y-64419285D01*
X126103095Y-64514523D01*
X126007857Y-64609761D01*
X125865000Y-64657380D01*
X125626904Y-64657380D01*
X126531666Y-63657380D02*
X127150714Y-63657380D01*
X126817380Y-64038333D01*
X126960238Y-64038333D01*
X127055476Y-64085952D01*
X127103095Y-64133571D01*
X127150714Y-64228809D01*
X127150714Y-64466904D01*
X127103095Y-64562142D01*
X127055476Y-64609761D01*
X126960238Y-64657380D01*
X126674523Y-64657380D01*
X126579285Y-64609761D01*
X126531666Y-64562142D01*
X121023095Y-65027380D02*
X121023095Y-64027380D01*
X121594523Y-65027380D02*
X121165952Y-64455952D01*
X121594523Y-64027380D02*
X121023095Y-64598809D01*
X125626904Y-49417380D02*
X125626904Y-48417380D01*
X125865000Y-48417380D01*
X126007857Y-48465000D01*
X126103095Y-48560238D01*
X126150714Y-48655476D01*
X126198333Y-48845952D01*
X126198333Y-48988809D01*
X126150714Y-49179285D01*
X126103095Y-49274523D01*
X126007857Y-49369761D01*
X125865000Y-49417380D01*
X125626904Y-49417380D01*
X127055476Y-48750714D02*
X127055476Y-49417380D01*
X126817380Y-48369761D02*
X126579285Y-49084047D01*
X127198333Y-49084047D01*
X121023095Y-49787380D02*
X121023095Y-48787380D01*
X121594523Y-49787380D02*
X121165952Y-49215952D01*
X121594523Y-48787380D02*
X121023095Y-49358809D01*
X125626904Y-90057380D02*
X125626904Y-89057380D01*
X125865000Y-89057380D01*
X126007857Y-89105000D01*
X126103095Y-89200238D01*
X126150714Y-89295476D01*
X126198333Y-89485952D01*
X126198333Y-89628809D01*
X126150714Y-89819285D01*
X126103095Y-89914523D01*
X126007857Y-90009761D01*
X125865000Y-90057380D01*
X125626904Y-90057380D01*
X127103095Y-89057380D02*
X126626904Y-89057380D01*
X126579285Y-89533571D01*
X126626904Y-89485952D01*
X126722142Y-89438333D01*
X126960238Y-89438333D01*
X127055476Y-89485952D01*
X127103095Y-89533571D01*
X127150714Y-89628809D01*
X127150714Y-89866904D01*
X127103095Y-89962142D01*
X127055476Y-90009761D01*
X126960238Y-90057380D01*
X126722142Y-90057380D01*
X126626904Y-90009761D01*
X126579285Y-89962142D01*
X121023095Y-90427380D02*
X121023095Y-89427380D01*
X121594523Y-90427380D02*
X121165952Y-89855952D01*
X121594523Y-89427380D02*
X121023095Y-89998809D01*
X125626904Y-84977380D02*
X125626904Y-83977380D01*
X125865000Y-83977380D01*
X126007857Y-84025000D01*
X126103095Y-84120238D01*
X126150714Y-84215476D01*
X126198333Y-84405952D01*
X126198333Y-84548809D01*
X126150714Y-84739285D01*
X126103095Y-84834523D01*
X126007857Y-84929761D01*
X125865000Y-84977380D01*
X125626904Y-84977380D01*
X127055476Y-83977380D02*
X126865000Y-83977380D01*
X126769761Y-84025000D01*
X126722142Y-84072619D01*
X126626904Y-84215476D01*
X126579285Y-84405952D01*
X126579285Y-84786904D01*
X126626904Y-84882142D01*
X126674523Y-84929761D01*
X126769761Y-84977380D01*
X126960238Y-84977380D01*
X127055476Y-84929761D01*
X127103095Y-84882142D01*
X127150714Y-84786904D01*
X127150714Y-84548809D01*
X127103095Y-84453571D01*
X127055476Y-84405952D01*
X126960238Y-84358333D01*
X126769761Y-84358333D01*
X126674523Y-84405952D01*
X126626904Y-84453571D01*
X126579285Y-84548809D01*
X121023095Y-85347380D02*
X121023095Y-84347380D01*
X121594523Y-85347380D02*
X121165952Y-84775952D01*
X121594523Y-84347380D02*
X121023095Y-84918809D01*
X125626904Y-44337380D02*
X125626904Y-43337380D01*
X125865000Y-43337380D01*
X126007857Y-43385000D01*
X126103095Y-43480238D01*
X126150714Y-43575476D01*
X126198333Y-43765952D01*
X126198333Y-43908809D01*
X126150714Y-44099285D01*
X126103095Y-44194523D01*
X126007857Y-44289761D01*
X125865000Y-44337380D01*
X125626904Y-44337380D01*
X126531666Y-43337380D02*
X127198333Y-43337380D01*
X126769761Y-44337380D01*
X121023095Y-44707380D02*
X121023095Y-43707380D01*
X121594523Y-44707380D02*
X121165952Y-44135952D01*
X121594523Y-43707380D02*
X121023095Y-44278809D01*
X125626904Y-59577380D02*
X125626904Y-58577380D01*
X125865000Y-58577380D01*
X126007857Y-58625000D01*
X126103095Y-58720238D01*
X126150714Y-58815476D01*
X126198333Y-59005952D01*
X126198333Y-59148809D01*
X126150714Y-59339285D01*
X126103095Y-59434523D01*
X126007857Y-59529761D01*
X125865000Y-59577380D01*
X125626904Y-59577380D01*
X126769761Y-59005952D02*
X126674523Y-58958333D01*
X126626904Y-58910714D01*
X126579285Y-58815476D01*
X126579285Y-58767857D01*
X126626904Y-58672619D01*
X126674523Y-58625000D01*
X126769761Y-58577380D01*
X126960238Y-58577380D01*
X127055476Y-58625000D01*
X127103095Y-58672619D01*
X127150714Y-58767857D01*
X127150714Y-58815476D01*
X127103095Y-58910714D01*
X127055476Y-58958333D01*
X126960238Y-59005952D01*
X126769761Y-59005952D01*
X126674523Y-59053571D01*
X126626904Y-59101190D01*
X126579285Y-59196428D01*
X126579285Y-59386904D01*
X126626904Y-59482142D01*
X126674523Y-59529761D01*
X126769761Y-59577380D01*
X126960238Y-59577380D01*
X127055476Y-59529761D01*
X127103095Y-59482142D01*
X127150714Y-59386904D01*
X127150714Y-59196428D01*
X127103095Y-59101190D01*
X127055476Y-59053571D01*
X126960238Y-59005952D01*
X121023095Y-59947380D02*
X121023095Y-58947380D01*
X121594523Y-59947380D02*
X121165952Y-59375952D01*
X121594523Y-58947380D02*
X121023095Y-59518809D01*
X125626904Y-54497380D02*
X125626904Y-53497380D01*
X125865000Y-53497380D01*
X126007857Y-53545000D01*
X126103095Y-53640238D01*
X126150714Y-53735476D01*
X126198333Y-53925952D01*
X126198333Y-54068809D01*
X126150714Y-54259285D01*
X126103095Y-54354523D01*
X126007857Y-54449761D01*
X125865000Y-54497380D01*
X125626904Y-54497380D01*
X126674523Y-54497380D02*
X126865000Y-54497380D01*
X126960238Y-54449761D01*
X127007857Y-54402142D01*
X127103095Y-54259285D01*
X127150714Y-54068809D01*
X127150714Y-53687857D01*
X127103095Y-53592619D01*
X127055476Y-53545000D01*
X126960238Y-53497380D01*
X126769761Y-53497380D01*
X126674523Y-53545000D01*
X126626904Y-53592619D01*
X126579285Y-53687857D01*
X126579285Y-53925952D01*
X126626904Y-54021190D01*
X126674523Y-54068809D01*
X126769761Y-54116428D01*
X126960238Y-54116428D01*
X127055476Y-54068809D01*
X127103095Y-54021190D01*
X127150714Y-53925952D01*
X121023095Y-54867380D02*
X121023095Y-53867380D01*
X121594523Y-54867380D02*
X121165952Y-54295952D01*
X121594523Y-53867380D02*
X121023095Y-54438809D01*
X125150714Y-79897380D02*
X125150714Y-78897380D01*
X125388809Y-78897380D01*
X125531666Y-78945000D01*
X125626904Y-79040238D01*
X125674523Y-79135476D01*
X125722142Y-79325952D01*
X125722142Y-79468809D01*
X125674523Y-79659285D01*
X125626904Y-79754523D01*
X125531666Y-79849761D01*
X125388809Y-79897380D01*
X125150714Y-79897380D01*
X126674523Y-79897380D02*
X126103095Y-79897380D01*
X126388809Y-79897380D02*
X126388809Y-78897380D01*
X126293571Y-79040238D01*
X126198333Y-79135476D01*
X126103095Y-79183095D01*
X127293571Y-78897380D02*
X127388809Y-78897380D01*
X127484047Y-78945000D01*
X127531666Y-78992619D01*
X127579285Y-79087857D01*
X127626904Y-79278333D01*
X127626904Y-79516428D01*
X127579285Y-79706904D01*
X127531666Y-79802142D01*
X127484047Y-79849761D01*
X127388809Y-79897380D01*
X127293571Y-79897380D01*
X127198333Y-79849761D01*
X127150714Y-79802142D01*
X127103095Y-79706904D01*
X127055476Y-79516428D01*
X127055476Y-79278333D01*
X127103095Y-79087857D01*
X127150714Y-78992619D01*
X127198333Y-78945000D01*
X127293571Y-78897380D01*
X121023095Y-80267380D02*
X121023095Y-79267380D01*
X121594523Y-80267380D02*
X121165952Y-79695952D01*
X121594523Y-79267380D02*
X121023095Y-79838809D01*
X78406666Y-43037380D02*
X78406666Y-43751666D01*
X78359047Y-43894523D01*
X78263809Y-43989761D01*
X78120952Y-44037380D01*
X78025714Y-44037380D01*
X79406666Y-44037380D02*
X78835238Y-44037380D01*
X79120952Y-44037380D02*
X79120952Y-43037380D01*
X79025714Y-43180238D01*
X78930476Y-43275476D01*
X78835238Y-43323095D01*
X162226666Y-43477380D02*
X162226666Y-44191666D01*
X162179047Y-44334523D01*
X162083809Y-44429761D01*
X161940952Y-44477380D01*
X161845714Y-44477380D01*
X162655238Y-43572619D02*
X162702857Y-43525000D01*
X162798095Y-43477380D01*
X163036190Y-43477380D01*
X163131428Y-43525000D01*
X163179047Y-43572619D01*
X163226666Y-43667857D01*
X163226666Y-43763095D01*
X163179047Y-43905952D01*
X162607619Y-44477380D01*
X163226666Y-44477380D01*
X162226666Y-56177380D02*
X162226666Y-56891666D01*
X162179047Y-57034523D01*
X162083809Y-57129761D01*
X161940952Y-57177380D01*
X161845714Y-57177380D01*
X162607619Y-56177380D02*
X163226666Y-56177380D01*
X162893333Y-56558333D01*
X163036190Y-56558333D01*
X163131428Y-56605952D01*
X163179047Y-56653571D01*
X163226666Y-56748809D01*
X163226666Y-56986904D01*
X163179047Y-57082142D01*
X163131428Y-57129761D01*
X163036190Y-57177380D01*
X162750476Y-57177380D01*
X162655238Y-57129761D01*
X162607619Y-57082142D01*
X162226666Y-70147380D02*
X162226666Y-70861666D01*
X162179047Y-71004523D01*
X162083809Y-71099761D01*
X161940952Y-71147380D01*
X161845714Y-71147380D01*
X163131428Y-70480714D02*
X163131428Y-71147380D01*
X162893333Y-70099761D02*
X162655238Y-70814047D01*
X163274285Y-70814047D01*
X162226666Y-84117380D02*
X162226666Y-84831666D01*
X162179047Y-84974523D01*
X162083809Y-85069761D01*
X161940952Y-85117380D01*
X161845714Y-85117380D01*
X163179047Y-84117380D02*
X162702857Y-84117380D01*
X162655238Y-84593571D01*
X162702857Y-84545952D01*
X162798095Y-84498333D01*
X163036190Y-84498333D01*
X163131428Y-84545952D01*
X163179047Y-84593571D01*
X163226666Y-84688809D01*
X163226666Y-84926904D01*
X163179047Y-85022142D01*
X163131428Y-85069761D01*
X163036190Y-85117380D01*
X162798095Y-85117380D01*
X162702857Y-85069761D01*
X162655238Y-85022142D01*
X78406666Y-64432380D02*
X78406666Y-65146666D01*
X78359047Y-65289523D01*
X78263809Y-65384761D01*
X78120952Y-65432380D01*
X78025714Y-65432380D01*
X79311428Y-64432380D02*
X79120952Y-64432380D01*
X79025714Y-64480000D01*
X78978095Y-64527619D01*
X78882857Y-64670476D01*
X78835238Y-64860952D01*
X78835238Y-65241904D01*
X78882857Y-65337142D01*
X78930476Y-65384761D01*
X79025714Y-65432380D01*
X79216190Y-65432380D01*
X79311428Y-65384761D01*
X79359047Y-65337142D01*
X79406666Y-65241904D01*
X79406666Y-65003809D01*
X79359047Y-64908571D01*
X79311428Y-64860952D01*
X79216190Y-64813333D01*
X79025714Y-64813333D01*
X78930476Y-64860952D01*
X78882857Y-64908571D01*
X78835238Y-65003809D01*
X78406666Y-52367380D02*
X78406666Y-53081666D01*
X78359047Y-53224523D01*
X78263809Y-53319761D01*
X78120952Y-53367380D01*
X78025714Y-53367380D01*
X78787619Y-52367380D02*
X79454285Y-52367380D01*
X79025714Y-53367380D01*
X152137619Y-82645238D02*
X152090000Y-82740476D01*
X151994761Y-82835714D01*
X151851904Y-82978571D01*
X151804285Y-83073809D01*
X151804285Y-83169047D01*
X152042380Y-83121428D02*
X151994761Y-83216666D01*
X151899523Y-83311904D01*
X151709047Y-83359523D01*
X151375714Y-83359523D01*
X151185238Y-83311904D01*
X151090000Y-83216666D01*
X151042380Y-83121428D01*
X151042380Y-82930952D01*
X151090000Y-82835714D01*
X151185238Y-82740476D01*
X151375714Y-82692857D01*
X151709047Y-82692857D01*
X151899523Y-82740476D01*
X151994761Y-82835714D01*
X152042380Y-82930952D01*
X152042380Y-83121428D01*
X151470952Y-82121428D02*
X151423333Y-82216666D01*
X151375714Y-82264285D01*
X151280476Y-82311904D01*
X151232857Y-82311904D01*
X151137619Y-82264285D01*
X151090000Y-82216666D01*
X151042380Y-82121428D01*
X151042380Y-81930952D01*
X151090000Y-81835714D01*
X151137619Y-81788095D01*
X151232857Y-81740476D01*
X151280476Y-81740476D01*
X151375714Y-81788095D01*
X151423333Y-81835714D01*
X151470952Y-81930952D01*
X151470952Y-82121428D01*
X151518571Y-82216666D01*
X151566190Y-82264285D01*
X151661428Y-82311904D01*
X151851904Y-82311904D01*
X151947142Y-82264285D01*
X151994761Y-82216666D01*
X152042380Y-82121428D01*
X152042380Y-81930952D01*
X151994761Y-81835714D01*
X151947142Y-81788095D01*
X151851904Y-81740476D01*
X151661428Y-81740476D01*
X151566190Y-81788095D01*
X151518571Y-81835714D01*
X151470952Y-81930952D01*
X152137619Y-90900238D02*
X152090000Y-90995476D01*
X151994761Y-91090714D01*
X151851904Y-91233571D01*
X151804285Y-91328809D01*
X151804285Y-91424047D01*
X152042380Y-91376428D02*
X151994761Y-91471666D01*
X151899523Y-91566904D01*
X151709047Y-91614523D01*
X151375714Y-91614523D01*
X151185238Y-91566904D01*
X151090000Y-91471666D01*
X151042380Y-91376428D01*
X151042380Y-91185952D01*
X151090000Y-91090714D01*
X151185238Y-90995476D01*
X151375714Y-90947857D01*
X151709047Y-90947857D01*
X151899523Y-90995476D01*
X151994761Y-91090714D01*
X152042380Y-91185952D01*
X152042380Y-91376428D01*
X152042380Y-90471666D02*
X152042380Y-90281190D01*
X151994761Y-90185952D01*
X151947142Y-90138333D01*
X151804285Y-90043095D01*
X151613809Y-89995476D01*
X151232857Y-89995476D01*
X151137619Y-90043095D01*
X151090000Y-90090714D01*
X151042380Y-90185952D01*
X151042380Y-90376428D01*
X151090000Y-90471666D01*
X151137619Y-90519285D01*
X151232857Y-90566904D01*
X151470952Y-90566904D01*
X151566190Y-90519285D01*
X151613809Y-90471666D01*
X151661428Y-90376428D01*
X151661428Y-90185952D01*
X151613809Y-90090714D01*
X151566190Y-90043095D01*
X151470952Y-89995476D01*
X142867142Y-55232380D02*
X142533809Y-54756190D01*
X142295714Y-55232380D02*
X142295714Y-54232380D01*
X142676666Y-54232380D01*
X142771904Y-54280000D01*
X142819523Y-54327619D01*
X142867142Y-54422857D01*
X142867142Y-54565714D01*
X142819523Y-54660952D01*
X142771904Y-54708571D01*
X142676666Y-54756190D01*
X142295714Y-54756190D01*
X143200476Y-54232380D02*
X143819523Y-54232380D01*
X143486190Y-54613333D01*
X143629047Y-54613333D01*
X143724285Y-54660952D01*
X143771904Y-54708571D01*
X143819523Y-54803809D01*
X143819523Y-55041904D01*
X143771904Y-55137142D01*
X143724285Y-55184761D01*
X143629047Y-55232380D01*
X143343333Y-55232380D01*
X143248095Y-55184761D01*
X143200476Y-55137142D01*
X144724285Y-54232380D02*
X144248095Y-54232380D01*
X144200476Y-54708571D01*
X144248095Y-54660952D01*
X144343333Y-54613333D01*
X144581428Y-54613333D01*
X144676666Y-54660952D01*
X144724285Y-54708571D01*
X144771904Y-54803809D01*
X144771904Y-55041904D01*
X144724285Y-55137142D01*
X144676666Y-55184761D01*
X144581428Y-55232380D01*
X144343333Y-55232380D01*
X144248095Y-55184761D01*
X144200476Y-55137142D01*
X142867142Y-85712380D02*
X142533809Y-85236190D01*
X142295714Y-85712380D02*
X142295714Y-84712380D01*
X142676666Y-84712380D01*
X142771904Y-84760000D01*
X142819523Y-84807619D01*
X142867142Y-84902857D01*
X142867142Y-85045714D01*
X142819523Y-85140952D01*
X142771904Y-85188571D01*
X142676666Y-85236190D01*
X142295714Y-85236190D01*
X143200476Y-84712380D02*
X143819523Y-84712380D01*
X143486190Y-85093333D01*
X143629047Y-85093333D01*
X143724285Y-85140952D01*
X143771904Y-85188571D01*
X143819523Y-85283809D01*
X143819523Y-85521904D01*
X143771904Y-85617142D01*
X143724285Y-85664761D01*
X143629047Y-85712380D01*
X143343333Y-85712380D01*
X143248095Y-85664761D01*
X143200476Y-85617142D01*
X144676666Y-84712380D02*
X144486190Y-84712380D01*
X144390952Y-84760000D01*
X144343333Y-84807619D01*
X144248095Y-84950476D01*
X144200476Y-85140952D01*
X144200476Y-85521904D01*
X144248095Y-85617142D01*
X144295714Y-85664761D01*
X144390952Y-85712380D01*
X144581428Y-85712380D01*
X144676666Y-85664761D01*
X144724285Y-85617142D01*
X144771904Y-85521904D01*
X144771904Y-85283809D01*
X144724285Y-85188571D01*
X144676666Y-85140952D01*
X144581428Y-85093333D01*
X144390952Y-85093333D01*
X144295714Y-85140952D01*
X144248095Y-85188571D01*
X144200476Y-85283809D01*
X142867142Y-65392380D02*
X142533809Y-64916190D01*
X142295714Y-65392380D02*
X142295714Y-64392380D01*
X142676666Y-64392380D01*
X142771904Y-64440000D01*
X142819523Y-64487619D01*
X142867142Y-64582857D01*
X142867142Y-64725714D01*
X142819523Y-64820952D01*
X142771904Y-64868571D01*
X142676666Y-64916190D01*
X142295714Y-64916190D01*
X143200476Y-64392380D02*
X143819523Y-64392380D01*
X143486190Y-64773333D01*
X143629047Y-64773333D01*
X143724285Y-64820952D01*
X143771904Y-64868571D01*
X143819523Y-64963809D01*
X143819523Y-65201904D01*
X143771904Y-65297142D01*
X143724285Y-65344761D01*
X143629047Y-65392380D01*
X143343333Y-65392380D01*
X143248095Y-65344761D01*
X143200476Y-65297142D01*
X144152857Y-64392380D02*
X144819523Y-64392380D01*
X144390952Y-65392380D01*
X142867142Y-90792380D02*
X142533809Y-90316190D01*
X142295714Y-90792380D02*
X142295714Y-89792380D01*
X142676666Y-89792380D01*
X142771904Y-89840000D01*
X142819523Y-89887619D01*
X142867142Y-89982857D01*
X142867142Y-90125714D01*
X142819523Y-90220952D01*
X142771904Y-90268571D01*
X142676666Y-90316190D01*
X142295714Y-90316190D01*
X143200476Y-89792380D02*
X143819523Y-89792380D01*
X143486190Y-90173333D01*
X143629047Y-90173333D01*
X143724285Y-90220952D01*
X143771904Y-90268571D01*
X143819523Y-90363809D01*
X143819523Y-90601904D01*
X143771904Y-90697142D01*
X143724285Y-90744761D01*
X143629047Y-90792380D01*
X143343333Y-90792380D01*
X143248095Y-90744761D01*
X143200476Y-90697142D01*
X144295714Y-90792380D02*
X144486190Y-90792380D01*
X144581428Y-90744761D01*
X144629047Y-90697142D01*
X144724285Y-90554285D01*
X144771904Y-90363809D01*
X144771904Y-89982857D01*
X144724285Y-89887619D01*
X144676666Y-89840000D01*
X144581428Y-89792380D01*
X144390952Y-89792380D01*
X144295714Y-89840000D01*
X144248095Y-89887619D01*
X144200476Y-89982857D01*
X144200476Y-90220952D01*
X144248095Y-90316190D01*
X144295714Y-90363809D01*
X144390952Y-90411428D01*
X144581428Y-90411428D01*
X144676666Y-90363809D01*
X144724285Y-90316190D01*
X144771904Y-90220952D01*
X142867142Y-60312380D02*
X142533809Y-59836190D01*
X142295714Y-60312380D02*
X142295714Y-59312380D01*
X142676666Y-59312380D01*
X142771904Y-59360000D01*
X142819523Y-59407619D01*
X142867142Y-59502857D01*
X142867142Y-59645714D01*
X142819523Y-59740952D01*
X142771904Y-59788571D01*
X142676666Y-59836190D01*
X142295714Y-59836190D01*
X143724285Y-59645714D02*
X143724285Y-60312380D01*
X143486190Y-59264761D02*
X143248095Y-59979047D01*
X143867142Y-59979047D01*
X144438571Y-59312380D02*
X144533809Y-59312380D01*
X144629047Y-59360000D01*
X144676666Y-59407619D01*
X144724285Y-59502857D01*
X144771904Y-59693333D01*
X144771904Y-59931428D01*
X144724285Y-60121904D01*
X144676666Y-60217142D01*
X144629047Y-60264761D01*
X144533809Y-60312380D01*
X144438571Y-60312380D01*
X144343333Y-60264761D01*
X144295714Y-60217142D01*
X144248095Y-60121904D01*
X144200476Y-59931428D01*
X144200476Y-59693333D01*
X144248095Y-59502857D01*
X144295714Y-59407619D01*
X144343333Y-59360000D01*
X144438571Y-59312380D01*
X142867142Y-75552380D02*
X142533809Y-75076190D01*
X142295714Y-75552380D02*
X142295714Y-74552380D01*
X142676666Y-74552380D01*
X142771904Y-74600000D01*
X142819523Y-74647619D01*
X142867142Y-74742857D01*
X142867142Y-74885714D01*
X142819523Y-74980952D01*
X142771904Y-75028571D01*
X142676666Y-75076190D01*
X142295714Y-75076190D01*
X143724285Y-74885714D02*
X143724285Y-75552380D01*
X143486190Y-74504761D02*
X143248095Y-75219047D01*
X143867142Y-75219047D01*
X144200476Y-74647619D02*
X144248095Y-74600000D01*
X144343333Y-74552380D01*
X144581428Y-74552380D01*
X144676666Y-74600000D01*
X144724285Y-74647619D01*
X144771904Y-74742857D01*
X144771904Y-74838095D01*
X144724285Y-74980952D01*
X144152857Y-75552380D01*
X144771904Y-75552380D01*
X142867142Y-80632380D02*
X142533809Y-80156190D01*
X142295714Y-80632380D02*
X142295714Y-79632380D01*
X142676666Y-79632380D01*
X142771904Y-79680000D01*
X142819523Y-79727619D01*
X142867142Y-79822857D01*
X142867142Y-79965714D01*
X142819523Y-80060952D01*
X142771904Y-80108571D01*
X142676666Y-80156190D01*
X142295714Y-80156190D01*
X143724285Y-79965714D02*
X143724285Y-80632380D01*
X143486190Y-79584761D02*
X143248095Y-80299047D01*
X143867142Y-80299047D01*
X144152857Y-79632380D02*
X144771904Y-79632380D01*
X144438571Y-80013333D01*
X144581428Y-80013333D01*
X144676666Y-80060952D01*
X144724285Y-80108571D01*
X144771904Y-80203809D01*
X144771904Y-80441904D01*
X144724285Y-80537142D01*
X144676666Y-80584761D01*
X144581428Y-80632380D01*
X144295714Y-80632380D01*
X144200476Y-80584761D01*
X144152857Y-80537142D01*
X142867142Y-70472380D02*
X142533809Y-69996190D01*
X142295714Y-70472380D02*
X142295714Y-69472380D01*
X142676666Y-69472380D01*
X142771904Y-69520000D01*
X142819523Y-69567619D01*
X142867142Y-69662857D01*
X142867142Y-69805714D01*
X142819523Y-69900952D01*
X142771904Y-69948571D01*
X142676666Y-69996190D01*
X142295714Y-69996190D01*
X143724285Y-69805714D02*
X143724285Y-70472380D01*
X143486190Y-69424761D02*
X143248095Y-70139047D01*
X143867142Y-70139047D01*
X144676666Y-69472380D02*
X144486190Y-69472380D01*
X144390952Y-69520000D01*
X144343333Y-69567619D01*
X144248095Y-69710476D01*
X144200476Y-69900952D01*
X144200476Y-70281904D01*
X144248095Y-70377142D01*
X144295714Y-70424761D01*
X144390952Y-70472380D01*
X144581428Y-70472380D01*
X144676666Y-70424761D01*
X144724285Y-70377142D01*
X144771904Y-70281904D01*
X144771904Y-70043809D01*
X144724285Y-69948571D01*
X144676666Y-69900952D01*
X144581428Y-69853333D01*
X144390952Y-69853333D01*
X144295714Y-69900952D01*
X144248095Y-69948571D01*
X144200476Y-70043809D01*
X154178095Y-43037380D02*
X154749523Y-43037380D01*
X154463809Y-44037380D02*
X154463809Y-43037380D01*
X155606666Y-44037380D02*
X155035238Y-44037380D01*
X155320952Y-44037380D02*
X155320952Y-43037380D01*
X155225714Y-43180238D01*
X155130476Y-43275476D01*
X155035238Y-43323095D01*
X143068776Y-48540420D02*
X143735442Y-48540420D01*
X143068776Y-49540420D01*
X143735442Y-49540420D01*
X144640204Y-49540420D02*
X144068776Y-49540420D01*
X144354490Y-49540420D02*
X144354490Y-48540420D01*
X144259252Y-48683278D01*
X144164014Y-48778516D01*
X144068776Y-48826135D01*
X143068776Y-43460420D02*
X143735442Y-43460420D01*
X143068776Y-44460420D01*
X143735442Y-44460420D01*
X144068776Y-43555659D02*
X144116395Y-43508040D01*
X144211633Y-43460420D01*
X144449728Y-43460420D01*
X144544966Y-43508040D01*
X144592585Y-43555659D01*
X144640204Y-43650897D01*
X144640204Y-43746135D01*
X144592585Y-43888992D01*
X144021157Y-44460420D01*
X144640204Y-44460420D01*
M02*
