M48
; DRILL file {KiCad (5.1.5)-3} date 1/24/2020 3:28:54 PM
; FORMAT={-:-/ absolute / inch / decimal}
; #@! TF.CreationDate,2020-01-24T15:28:54-05:00
; #@! TF.GenerationSoftware,Kicad,Pcbnew,(5.1.5)-3
; #@! TF.FileFunction,Plated,1,2,PTH
FMAT,2
INCH
T1C0.0157
T2C0.0217
T3C0.0315
T4C0.0394
T5C0.0472
T6C0.0728
%
G90
G05
T1
X-1.9792Y-5.5843
X-1.9717Y-5.7516
X-1.4017Y-5.5897
X-1.1575Y-5.2265
X-0.7773Y-5.6617
X-0.6745Y-6.1817
X-0.6549Y-6.0074
X-0.449Y-5.8053
T2
X-0.15Y-6.225
X-0.1Y-6.225
X-0.05Y-6.225
X-0.15Y-4.9
X-0.1Y-4.9
X-0.05Y-4.9
X-0.15Y-5.2
X-0.1Y-5.2
X-0.05Y-5.2
X-0.15Y-5.725
X-0.1Y-5.725
X-0.05Y-5.725
X-0.15Y-5.975
X-0.1Y-5.975
X-0.05Y-5.975
X-0.15Y-5.475
X-0.1Y-5.475
X-0.05Y-5.475
T3
X-0.6Y-5.325
X-0.4031Y-5.325
X-0.5898Y-6.0939
X-0.3929Y-6.0939
X-2.9246Y-5.475
X-2.6246Y-5.475
X-2.4506Y-5.6833
X-2.1506Y-5.6833
X-1.9766Y-5.6906
X-1.6766Y-5.6906
X-1.5Y-6.275
X-1.2Y-6.275
X-0.9606Y-6.0939
X-0.7638Y-6.0939
X-1.737Y-4.8236
X-1.737Y-5.0236
X-1.537Y-4.9236
X-0.5898Y-5.9344
X-0.3929Y-5.9344
X-2.9327Y-5.6758
X-2.6327Y-5.6758
X-1.4904Y-5.2967
X-1.1904Y-5.2967
X-2.925Y-6.275
X-2.625Y-6.275
X-1.9644Y-5.4811
X-1.6644Y-5.4811
X-1.975Y-6.275
X-1.675Y-6.275
X-2.925Y-6.075
X-2.625Y-6.075
X-0.9606Y-6.2533
X-0.7638Y-6.2533
X-2.9246Y-5.2833
X-2.6246Y-5.2833
X-0.6Y-5.725
X-0.4031Y-5.725
X-2.25Y-4.825
X-2.25Y-5.025
X-2.05Y-4.925
X-1.5Y-6.075
X-1.2Y-6.075
X-2.9327Y-5.875
X-2.6327Y-5.875
X-0.95Y-5.525
X-0.7531Y-5.525
X-2.4506Y-5.875
X-2.1506Y-5.875
X-2.4596Y-6.275
X-2.1596Y-6.275
X-2.4384Y-5.475
X-2.1384Y-5.475
X-1.5026Y-5.875
X-1.2026Y-5.875
X-1.5026Y-5.6906
X-1.2026Y-5.6906
X-0.95Y-5.325
X-0.7531Y-5.325
X-1.4904Y-5.4811
X-1.1904Y-5.4811
X-1.9644Y-5.2967
X-1.6644Y-5.2967
X-1.225Y-4.8236
X-1.225Y-5.0236
X-1.025Y-4.9236
X-0.9606Y-5.9344
X-0.7638Y-5.9344
X-2.4384Y-5.2967
X-2.1384Y-5.2967
X-0.95Y-5.725
X-0.7531Y-5.725
X-1.975Y-6.075
X-1.675Y-6.075
X-0.6Y-5.55
X-0.4031Y-5.55
X-0.6Y-5.15
X-0.4031Y-5.15
X-1.9766Y-5.875
X-1.6766Y-5.875
X-2.4596Y-6.0772
X-2.1596Y-6.0772
T4
X-3.2Y-6.0
X-3.2Y-6.1
X0.25Y-5.15
X0.25Y-5.25
X0.25Y-5.725
X0.25Y-5.825
X0.25Y-5.925
X0.25Y-6.025
X0.25Y-6.125
X-3.2Y-5.1
X-3.2Y-5.2
X-3.2Y-5.3
X-3.2Y-5.4
X-3.2Y-5.5
X-3.2Y-5.6
T5
X-0.725Y-4.875
X-0.525Y-4.875
T6
X-2.9Y-4.825
X-2.715Y-4.825
X-2.5299Y-4.825
T0
M30
