G04 #@! TF.GenerationSoftware,KiCad,Pcbnew,(5.1.5)-3*
G04 #@! TF.CreationDate,2020-01-24T15:28:57-05:00*
G04 #@! TF.ProjectId,chroma,6368726f-6d61-42e6-9b69-6361645f7063,v01*
G04 #@! TF.SameCoordinates,Original*
G04 #@! TF.FileFunction,Copper,L2,Bot*
G04 #@! TF.FilePolarity,Positive*
%FSLAX46Y46*%
G04 Gerber Fmt 4.6, Leading zero omitted, Abs format (unit mm)*
G04 Created by KiCad (PCBNEW (5.1.5)-3) date 2020-01-24 15:28:57*
%MOMM*%
%LPD*%
G04 APERTURE LIST*
%ADD10C,1.600000*%
%ADD11O,1.600000X1.600000*%
%ADD12R,1.600000X1.600000*%
%ADD13R,1.700000X1.700000*%
%ADD14O,1.700000X1.700000*%
%ADD15R,1.000000X1.500000*%
%ADD16O,1.000000X1.500000*%
%ADD17C,1.440000*%
%ADD18R,2.850000X2.850000*%
%ADD19C,2.850000*%
%ADD20C,2.400000*%
%ADD21O,2.400000X2.400000*%
%ADD22C,0.800000*%
%ADD23C,0.250000*%
G04 APERTURE END LIST*
D10*
X-10240000Y-140970000D03*
X-15240000Y-140970000D03*
X-19130000Y-145415000D03*
X-24130000Y-145415000D03*
X-15240000Y-145415000D03*
X-10240000Y-145415000D03*
X-19400000Y-158835000D03*
X-24400000Y-158835000D03*
X-9980000Y-150735000D03*
X-14980000Y-150735000D03*
X-14980000Y-154785000D03*
X-9980000Y-154785000D03*
X-24130000Y-140335000D03*
X-19130000Y-140335000D03*
X-10240000Y-130810000D03*
X-15240000Y-130810000D03*
X-19130000Y-135255000D03*
X-24130000Y-135255000D03*
X-24400000Y-154785000D03*
X-19400000Y-154785000D03*
X-15240000Y-135255000D03*
X-10240000Y-135255000D03*
X-24400000Y-150735000D03*
X-19400000Y-150735000D03*
D11*
X-42545000Y-159385000D03*
D12*
X-50165000Y-159385000D03*
X-38100000Y-159385000D03*
D11*
X-30480000Y-159385000D03*
D13*
X-81280000Y-129540000D03*
D14*
X-81280000Y-132080000D03*
X-81280000Y-134620000D03*
X-81280000Y-137160000D03*
X-81280000Y-139700000D03*
X-81280000Y-142240000D03*
D13*
X-81280000Y-152400000D03*
D14*
X-81280000Y-154940000D03*
D13*
X6350000Y-145415000D03*
D14*
X6350000Y-147955000D03*
X6350000Y-150495000D03*
X6350000Y-153035000D03*
X6350000Y-155575000D03*
X6350000Y-133350000D03*
D13*
X6350000Y-130810000D03*
D11*
X-42275000Y-139220000D03*
D10*
X-49895000Y-139220000D03*
D15*
X-3810000Y-139065000D03*
D16*
X-1270000Y-139065000D03*
X-2540000Y-139065000D03*
D15*
X-3810000Y-124460000D03*
D16*
X-1270000Y-124460000D03*
X-2540000Y-124460000D03*
X-2540000Y-151765000D03*
X-1270000Y-151765000D03*
D15*
X-3810000Y-151765000D03*
D16*
X-2540000Y-145415000D03*
X-1270000Y-145415000D03*
D15*
X-3810000Y-145415000D03*
X-3810000Y-132080000D03*
D16*
X-1270000Y-132080000D03*
X-2540000Y-132080000D03*
X-2540000Y-158115000D03*
X-1270000Y-158115000D03*
D15*
X-3810000Y-158115000D03*
D10*
X-38165000Y-144540000D03*
D11*
X-30545000Y-144540000D03*
X-66870000Y-149225000D03*
D10*
X-74490000Y-149225000D03*
X-74295000Y-159385000D03*
D11*
X-66675000Y-159385000D03*
X-66675000Y-154305000D03*
D10*
X-74295000Y-154305000D03*
D11*
X-42585000Y-144540000D03*
D10*
X-50205000Y-144540000D03*
X-62245000Y-149225000D03*
D11*
X-54625000Y-149225000D03*
D17*
X-44120000Y-127600000D03*
X-39040000Y-125060000D03*
X-44120000Y-122520000D03*
D10*
X-50205000Y-149225000D03*
D11*
X-42585000Y-149225000D03*
X-54855000Y-154360000D03*
D10*
X-62475000Y-154360000D03*
X-37855000Y-139220000D03*
D11*
X-30235000Y-139220000D03*
D17*
X-57150000Y-122555000D03*
X-52070000Y-125095000D03*
X-57150000Y-127635000D03*
D11*
X-30480000Y-154305000D03*
D10*
X-38100000Y-154305000D03*
D17*
X-31115000Y-122520000D03*
X-26035000Y-125060000D03*
X-31115000Y-127600000D03*
D11*
X-42545000Y-154305000D03*
D10*
X-50165000Y-154305000D03*
X-62475000Y-159385000D03*
D11*
X-54855000Y-159385000D03*
X-30545000Y-149225000D03*
D10*
X-38165000Y-149225000D03*
X-37855000Y-134535000D03*
D11*
X-30235000Y-134535000D03*
D10*
X-61935000Y-134535000D03*
D11*
X-54315000Y-134535000D03*
X-66665000Y-134195000D03*
D10*
X-74285000Y-134195000D03*
D11*
X-42275000Y-134535000D03*
D10*
X-49895000Y-134535000D03*
D11*
X-54625000Y-144355000D03*
D10*
X-62245000Y-144355000D03*
X-74285000Y-139065000D03*
D11*
X-66665000Y-139065000D03*
D10*
X-61935000Y-139065000D03*
D11*
X-54315000Y-139065000D03*
D10*
X-74490000Y-144165000D03*
D11*
X-66870000Y-144165000D03*
D18*
X-73660000Y-122555000D03*
D19*
X-68960000Y-122555000D03*
X-64260000Y-122555000D03*
D20*
X-18415000Y-123825000D03*
D21*
X-13335000Y-123825000D03*
D22*
X-17131600Y-157015700D03*
X-35604200Y-141979200D03*
X-11405500Y-147454800D03*
X-19742900Y-143806900D03*
X-16635700Y-152588000D03*
X-29399900Y-132752000D03*
X-50080000Y-146091400D03*
X-50270900Y-141841200D03*
D23*
X-14980000Y-150735000D02*
X-16394800Y-149320200D01*
X-16394800Y-149320200D02*
X-16394800Y-142124800D01*
X-16394800Y-142124800D02*
X-15240000Y-140970000D01*
X-66870000Y-148099700D02*
X-65743200Y-146972900D01*
X-65743200Y-146972900D02*
X-65743200Y-142142500D01*
X-65743200Y-142142500D02*
X-67790300Y-140095400D01*
X-67790300Y-140095400D02*
X-67790300Y-136445600D01*
X-67790300Y-136445600D02*
X-66665000Y-135320300D01*
X-66870000Y-149225000D02*
X-66870000Y-148099700D01*
X-74295000Y-159385000D02*
X-75422600Y-158257400D01*
X-75422600Y-158257400D02*
X-75422600Y-153829000D01*
X-75422600Y-153829000D02*
X-70818600Y-149225000D01*
X-70818600Y-149225000D02*
X-66870000Y-149225000D01*
X-66665000Y-134195000D02*
X-66665000Y-135320300D01*
X-3810000Y-132080000D02*
X-4635300Y-132080000D01*
X-3810000Y-145415000D02*
X-4635300Y-145415000D01*
X-4635300Y-145415000D02*
X-4635300Y-132080000D01*
X-19130000Y-145415000D02*
X-17363900Y-147181100D01*
X-17363900Y-147181100D02*
X-17363900Y-156783400D01*
X-17363900Y-156783400D02*
X-17131600Y-157015700D01*
X-18415000Y-123825000D02*
X-18004500Y-124235500D01*
X-18004500Y-124235500D02*
X-18004500Y-144289500D01*
X-18004500Y-144289500D02*
X-19130000Y-145415000D01*
X-35604200Y-141979200D02*
X-38165000Y-144540000D01*
X-54315000Y-134535000D02*
X-54315000Y-133409700D01*
X-52070000Y-125095000D02*
X-52070000Y-131164700D01*
X-52070000Y-131164700D02*
X-54315000Y-133409700D01*
X-65292800Y-151797500D02*
X-65292800Y-141562500D01*
X-65292800Y-141562500D02*
X-66665000Y-140190300D01*
X-56182200Y-151907500D02*
X-56292200Y-151797500D01*
X-56292200Y-151797500D02*
X-65292800Y-151797500D01*
X-54855000Y-153347300D02*
X-54855000Y-153234700D01*
X-54855000Y-153234700D02*
X-56182200Y-151907500D01*
X-56182200Y-151907500D02*
X-54625000Y-150350300D01*
X-54625000Y-149225000D02*
X-54625000Y-148099700D01*
X-54315000Y-134535000D02*
X-54315000Y-135660300D01*
X-54315000Y-135660300D02*
X-55750300Y-137095600D01*
X-55750300Y-137095600D02*
X-55750300Y-146974400D01*
X-55750300Y-146974400D02*
X-54625000Y-148099700D01*
X-54625000Y-149225000D02*
X-54625000Y-150350300D01*
X-66675000Y-153179700D02*
X-65292800Y-151797500D01*
X-54855000Y-154360000D02*
X-54855000Y-153347300D01*
X-66675000Y-154305000D02*
X-66675000Y-153179700D01*
X-66665000Y-139065000D02*
X-66665000Y-140190300D01*
X-50205000Y-144540000D02*
X-50805300Y-145140300D01*
X-50805300Y-145140300D02*
X-50805300Y-148624700D01*
X-50805300Y-148624700D02*
X-50205000Y-149225000D01*
X-50205000Y-144540000D02*
X-48720300Y-144540000D01*
X-48720300Y-144540000D02*
X-43400300Y-139220000D01*
X-10240000Y-145415000D02*
X-10240000Y-148635600D01*
X-10240000Y-148635600D02*
X-3810000Y-155065600D01*
X-3810000Y-155065600D02*
X-3810000Y-158115000D01*
X-62475000Y-159385000D02*
X-60017000Y-156927000D01*
X-60017000Y-156927000D02*
X-50556900Y-156927000D01*
X-50556900Y-156927000D02*
X-48550900Y-154921000D01*
X-48550900Y-154921000D02*
X-48550900Y-150879100D01*
X-48550900Y-150879100D02*
X-50205000Y-149225000D01*
X-42275000Y-139220000D02*
X-43400300Y-139220000D01*
X-42275000Y-139220000D02*
X-42275000Y-138094700D01*
X-37855000Y-134535000D02*
X-41414700Y-138094700D01*
X-41414700Y-138094700D02*
X-42275000Y-138094700D01*
X-24130000Y-145415000D02*
X-23224100Y-146320900D01*
X-23224100Y-146320900D02*
X-23224100Y-157659100D01*
X-23224100Y-157659100D02*
X-24400000Y-158835000D01*
X-19400000Y-158835000D02*
X-17288200Y-158835000D01*
X-17288200Y-158835000D02*
X-13852800Y-155399600D01*
X-13852800Y-155399600D02*
X-13852800Y-146802200D01*
X-13852800Y-146802200D02*
X-15240000Y-145415000D01*
X-15240000Y-145415000D02*
X-12792500Y-142967500D01*
X-12792500Y-142967500D02*
X-12792500Y-131725100D01*
X-12792500Y-131725100D02*
X-9114600Y-128047200D01*
X-9114600Y-128047200D02*
X-5669900Y-128047200D01*
X-5669900Y-128047200D02*
X-2540000Y-124917300D01*
X-2540000Y-124917300D02*
X-2540000Y-124460000D01*
X-66675000Y-159385000D02*
X-67800300Y-159385000D01*
X-67800300Y-159385000D02*
X-72880300Y-154305000D01*
X-72880300Y-154305000D02*
X-74295000Y-154305000D01*
X-11405500Y-147454800D02*
X-11405500Y-153359500D01*
X-11405500Y-153359500D02*
X-9980000Y-154785000D01*
X-1270000Y-125535300D02*
X-2111900Y-125535300D01*
X-2111900Y-125535300D02*
X-11405500Y-134828900D01*
X-11405500Y-134828900D02*
X-11405500Y-147454800D01*
X-1270000Y-124460000D02*
X-1270000Y-125535300D01*
X-44120000Y-127600000D02*
X-43064800Y-126544800D01*
X-43064800Y-126544800D02*
X-30690600Y-126544800D01*
X-30690600Y-126544800D02*
X-25925300Y-131310100D01*
X-25925300Y-131310100D02*
X-25925300Y-140720700D01*
X-25925300Y-140720700D02*
X-17856900Y-148789100D01*
X-17856900Y-148789100D02*
X-17856900Y-157316100D01*
X-17856900Y-157316100D02*
X-17432000Y-157741000D01*
X-17432000Y-157741000D02*
X-16831100Y-157741000D01*
X-16831100Y-157741000D02*
X-14980000Y-155889900D01*
X-14980000Y-155889900D02*
X-14980000Y-154785000D01*
X-24130000Y-140335000D02*
X-20658100Y-143806900D01*
X-20658100Y-143806900D02*
X-19742900Y-143806900D01*
X6350000Y-147955000D02*
X5174700Y-147955000D01*
X-2540000Y-145415000D02*
X-2540000Y-144339700D01*
X-2540000Y-144339700D02*
X1559400Y-144339700D01*
X1559400Y-144339700D02*
X5174700Y-147955000D01*
X-66870000Y-144165000D02*
X-66870000Y-143039700D01*
X-68960000Y-122555000D02*
X-68960000Y-140949700D01*
X-68960000Y-140949700D02*
X-66870000Y-143039700D01*
X-40587300Y-159029300D02*
X-40322500Y-158764500D01*
X-40322500Y-158764500D02*
X-40322500Y-151382500D01*
X-40322500Y-151382500D02*
X-38165000Y-149225000D01*
X-49039700Y-159385000D02*
X-47902500Y-160522200D01*
X-47902500Y-160522200D02*
X-42080200Y-160522200D01*
X-42080200Y-160522200D02*
X-40587300Y-159029300D01*
X-40587300Y-159029300D02*
X-39106400Y-160510300D01*
X-39106400Y-160510300D02*
X-38713800Y-160510300D01*
X-38713800Y-160510300D02*
X-38233400Y-160990700D01*
X-38233400Y-160990700D02*
X-18762300Y-160990700D01*
X-18762300Y-160990700D02*
X-12258300Y-154486700D01*
X-12258300Y-154486700D02*
X-12258300Y-132828300D01*
X-12258300Y-132828300D02*
X-10240000Y-130810000D01*
X-50165000Y-159385000D02*
X-49039700Y-159385000D01*
X-15240000Y-130810000D02*
X-16845200Y-132415200D01*
X-16845200Y-132415200D02*
X-16845200Y-152378500D01*
X-16845200Y-152378500D02*
X-16635700Y-152588000D01*
X-39040000Y-125060000D02*
X-40502700Y-123597300D01*
X-40502700Y-123597300D02*
X-54591600Y-123597300D01*
X-54591600Y-123597300D02*
X-59831400Y-128837100D01*
X-59831400Y-128837100D02*
X-59831400Y-146811400D01*
X-59831400Y-146811400D02*
X-62245000Y-149225000D01*
X-24130000Y-127360200D02*
X-26522800Y-127360200D01*
X-26522800Y-127360200D02*
X-28823000Y-125060000D01*
X-28823000Y-125060000D02*
X-39040000Y-125060000D01*
X-24130000Y-127360200D02*
X-19062100Y-122292300D01*
X-19062100Y-122292300D02*
X-6803000Y-122292300D01*
X-6803000Y-122292300D02*
X-4635300Y-124460000D01*
X-24130000Y-135255000D02*
X-24130000Y-127360200D01*
X-3810000Y-124460000D02*
X-4635300Y-124460000D01*
X-30480000Y-159385000D02*
X-30480000Y-158259700D01*
X-30235000Y-134535000D02*
X-30235000Y-135660300D01*
X-30235000Y-135660300D02*
X-29105300Y-136790000D01*
X-29105300Y-136790000D02*
X-29105300Y-150047200D01*
X-29105300Y-150047200D02*
X-31605300Y-152547200D01*
X-31605300Y-152547200D02*
X-31605300Y-157134400D01*
X-31605300Y-157134400D02*
X-30480000Y-158259700D01*
X-2540000Y-132080000D02*
X-2540000Y-133155300D01*
X-2540000Y-133155300D02*
X6350000Y-142045300D01*
X6350000Y-142045300D02*
X6350000Y-145415000D01*
X-2540000Y-158115000D02*
X-2540000Y-155061900D01*
X-2540000Y-155061900D02*
X-6932700Y-150669200D01*
X-6932700Y-150669200D02*
X-6932700Y-138562300D01*
X-6932700Y-138562300D02*
X-10240000Y-135255000D01*
X-29399900Y-132752000D02*
X-26375700Y-135776200D01*
X-26375700Y-135776200D02*
X-26375700Y-140907200D01*
X-26375700Y-140907200D02*
X-19400000Y-147882900D01*
X-19400000Y-147882900D02*
X-19400000Y-150735000D01*
X-42545000Y-159385000D02*
X-42545000Y-158259700D01*
X-50080000Y-146091400D02*
X-43670300Y-152501100D01*
X-43670300Y-152501100D02*
X-43670300Y-157134400D01*
X-43670300Y-157134400D02*
X-42545000Y-158259700D01*
X-38100000Y-159385000D02*
X-36974700Y-159385000D01*
X-36974700Y-159385000D02*
X-35849300Y-160510400D01*
X-35849300Y-160510400D02*
X-29977000Y-160510400D01*
X-29977000Y-160510400D02*
X-27324600Y-157858000D01*
X-27324600Y-157858000D02*
X-27324600Y-153659600D01*
X-27324600Y-153659600D02*
X-24400000Y-150735000D01*
X-54315000Y-139065000D02*
X-54315000Y-140190300D01*
X-54315000Y-140190300D02*
X-53499700Y-141005600D01*
X-53499700Y-141005600D02*
X-53499700Y-150970300D01*
X-53499700Y-150970300D02*
X-50165000Y-154305000D01*
X6350000Y-155575000D02*
X6350000Y-153035000D01*
X6350000Y-133350000D02*
X6350000Y-134525300D01*
X6350000Y-134525300D02*
X7565400Y-135740700D01*
X7565400Y-135740700D02*
X7565400Y-150942900D01*
X7565400Y-150942900D02*
X6648600Y-151859700D01*
X6648600Y-151859700D02*
X6350000Y-151859700D01*
X6350000Y-153035000D02*
X6350000Y-151859700D01*
X-1270000Y-145415000D02*
X-444700Y-145415000D01*
X-444700Y-145415000D02*
X6000000Y-151859700D01*
X6000000Y-151859700D02*
X6350000Y-151859700D01*
X-49895000Y-134535000D02*
X-51361000Y-136001000D01*
X-51361000Y-136001000D02*
X-51361000Y-150654800D01*
X-51361000Y-150654800D02*
X-49001200Y-153014600D01*
X-49001200Y-153014600D02*
X-49001200Y-154734300D01*
X-49001200Y-154734300D02*
X-50089500Y-155822600D01*
X-50089500Y-155822600D02*
X-60598600Y-155822600D01*
X-60598600Y-155822600D02*
X-63604800Y-158828800D01*
X-63604800Y-158828800D02*
X-63604800Y-159895200D01*
X-63604800Y-159895200D02*
X-62059000Y-161441000D01*
X-62059000Y-161441000D02*
X-3520700Y-161441000D01*
X-3520700Y-161441000D02*
X-1270000Y-159190300D01*
X-1270000Y-158115000D02*
X-1270000Y-159190300D01*
X-30235000Y-139220000D02*
X-31360300Y-139220000D01*
X-57150000Y-127635000D02*
X-53562700Y-124047700D01*
X-53562700Y-124047700D02*
X-49370500Y-124047700D01*
X-49370500Y-124047700D02*
X-40579100Y-132839100D01*
X-40579100Y-132839100D02*
X-37741200Y-132839100D01*
X-37741200Y-132839100D02*
X-31360300Y-139220000D01*
X-31115000Y-127600000D02*
X-31115000Y-132062600D01*
X-31115000Y-132062600D02*
X-28654900Y-134522700D01*
X-28654900Y-134522700D02*
X-28654900Y-151354600D01*
X-28654900Y-151354600D02*
X-30480000Y-153179700D01*
X-30480000Y-154305000D02*
X-30480000Y-153179700D01*
X-64260000Y-122555000D02*
X-64260000Y-136740000D01*
X-64260000Y-136740000D02*
X-61935000Y-139065000D01*
X-74490000Y-144165000D02*
X-81280000Y-150955000D01*
X-81280000Y-150955000D02*
X-81280000Y-152400000D01*
X-42275000Y-134535000D02*
X-43400300Y-134535000D01*
X-50270900Y-141841200D02*
X-43400300Y-134970600D01*
X-43400300Y-134970600D02*
X-43400300Y-134535000D01*
M02*
