G04 #@! TF.GenerationSoftware,KiCad,Pcbnew,(5.1.5)-3*
G04 #@! TF.CreationDate,2020-01-24T15:28:57-05:00*
G04 #@! TF.ProjectId,chroma,6368726f-6d61-42e6-9b69-6361645f7063,v01*
G04 #@! TF.SameCoordinates,Original*
G04 #@! TF.FileFunction,Legend,Top*
G04 #@! TF.FilePolarity,Positive*
%FSLAX46Y46*%
G04 Gerber Fmt 4.6, Leading zero omitted, Abs format (unit mm)*
G04 Created by KiCad (PCBNEW (5.1.5)-3) date 2020-01-24 15:28:57*
%MOMM*%
%LPD*%
G04 APERTURE LIST*
%ADD10C,0.150000*%
%ADD11C,0.120000*%
%ADD12C,0.100000*%
G04 APERTURE END LIST*
D10*
X-87756428Y-120627142D02*
X-87804047Y-120674761D01*
X-87946904Y-120722380D01*
X-88042142Y-120722380D01*
X-88185000Y-120674761D01*
X-88280238Y-120579523D01*
X-88327857Y-120484285D01*
X-88375476Y-120293809D01*
X-88375476Y-120150952D01*
X-88327857Y-119960476D01*
X-88280238Y-119865238D01*
X-88185000Y-119770000D01*
X-88042142Y-119722380D01*
X-87946904Y-119722380D01*
X-87804047Y-119770000D01*
X-87756428Y-119817619D01*
X-87327857Y-120722380D02*
X-87327857Y-119722380D01*
X-86899285Y-120722380D02*
X-86899285Y-120198571D01*
X-86946904Y-120103333D01*
X-87042142Y-120055714D01*
X-87185000Y-120055714D01*
X-87280238Y-120103333D01*
X-87327857Y-120150952D01*
X-86423095Y-120722380D02*
X-86423095Y-120055714D01*
X-86423095Y-120246190D02*
X-86375476Y-120150952D01*
X-86327857Y-120103333D01*
X-86232619Y-120055714D01*
X-86137380Y-120055714D01*
X-85661190Y-120722380D02*
X-85756428Y-120674761D01*
X-85804047Y-120627142D01*
X-85851666Y-120531904D01*
X-85851666Y-120246190D01*
X-85804047Y-120150952D01*
X-85756428Y-120103333D01*
X-85661190Y-120055714D01*
X-85518333Y-120055714D01*
X-85423095Y-120103333D01*
X-85375476Y-120150952D01*
X-85327857Y-120246190D01*
X-85327857Y-120531904D01*
X-85375476Y-120627142D01*
X-85423095Y-120674761D01*
X-85518333Y-120722380D01*
X-85661190Y-120722380D01*
X-84899285Y-120722380D02*
X-84899285Y-120055714D01*
X-84899285Y-120150952D02*
X-84851666Y-120103333D01*
X-84756428Y-120055714D01*
X-84613571Y-120055714D01*
X-84518333Y-120103333D01*
X-84470714Y-120198571D01*
X-84470714Y-120722380D01*
X-84470714Y-120198571D02*
X-84423095Y-120103333D01*
X-84327857Y-120055714D01*
X-84185000Y-120055714D01*
X-84089761Y-120103333D01*
X-84042142Y-120198571D01*
X-84042142Y-120722380D01*
X-83137380Y-120722380D02*
X-83137380Y-120198571D01*
X-83185000Y-120103333D01*
X-83280238Y-120055714D01*
X-83470714Y-120055714D01*
X-83565952Y-120103333D01*
X-83137380Y-120674761D02*
X-83232619Y-120722380D01*
X-83470714Y-120722380D01*
X-83565952Y-120674761D01*
X-83613571Y-120579523D01*
X-83613571Y-120484285D01*
X-83565952Y-120389047D01*
X-83470714Y-120341428D01*
X-83232619Y-120341428D01*
X-83137380Y-120293809D01*
X-81565952Y-120198571D02*
X-81423095Y-120246190D01*
X-81375476Y-120293809D01*
X-81327857Y-120389047D01*
X-81327857Y-120531904D01*
X-81375476Y-120627142D01*
X-81423095Y-120674761D01*
X-81518333Y-120722380D01*
X-81899285Y-120722380D01*
X-81899285Y-119722380D01*
X-81565952Y-119722380D01*
X-81470714Y-119770000D01*
X-81423095Y-119817619D01*
X-81375476Y-119912857D01*
X-81375476Y-120008095D01*
X-81423095Y-120103333D01*
X-81470714Y-120150952D01*
X-81565952Y-120198571D01*
X-81899285Y-120198571D01*
X-80756428Y-120722380D02*
X-80851666Y-120674761D01*
X-80899285Y-120627142D01*
X-80946904Y-120531904D01*
X-80946904Y-120246190D01*
X-80899285Y-120150952D01*
X-80851666Y-120103333D01*
X-80756428Y-120055714D01*
X-80613571Y-120055714D01*
X-80518333Y-120103333D01*
X-80470714Y-120150952D01*
X-80423095Y-120246190D01*
X-80423095Y-120531904D01*
X-80470714Y-120627142D01*
X-80518333Y-120674761D01*
X-80613571Y-120722380D01*
X-80756428Y-120722380D01*
X-79565952Y-120722380D02*
X-79565952Y-120198571D01*
X-79613571Y-120103333D01*
X-79708809Y-120055714D01*
X-79899285Y-120055714D01*
X-79994523Y-120103333D01*
X-79565952Y-120674761D02*
X-79661190Y-120722380D01*
X-79899285Y-120722380D01*
X-79994523Y-120674761D01*
X-80042142Y-120579523D01*
X-80042142Y-120484285D01*
X-79994523Y-120389047D01*
X-79899285Y-120341428D01*
X-79661190Y-120341428D01*
X-79565952Y-120293809D01*
X-79089761Y-120722380D02*
X-79089761Y-120055714D01*
X-79089761Y-120246190D02*
X-79042142Y-120150952D01*
X-78994523Y-120103333D01*
X-78899285Y-120055714D01*
X-78804047Y-120055714D01*
X-78042142Y-120722380D02*
X-78042142Y-119722380D01*
X-78042142Y-120674761D02*
X-78137380Y-120722380D01*
X-78327857Y-120722380D01*
X-78423095Y-120674761D01*
X-78470714Y-120627142D01*
X-78518333Y-120531904D01*
X-78518333Y-120246190D01*
X-78470714Y-120150952D01*
X-78423095Y-120103333D01*
X-78327857Y-120055714D01*
X-78137380Y-120055714D01*
X-78042142Y-120103333D01*
X-88518333Y-121372380D02*
X-87946904Y-121372380D01*
X-88232619Y-122372380D02*
X-88232619Y-121372380D01*
X-87756428Y-121372380D02*
X-87423095Y-122372380D01*
X-87089761Y-121372380D01*
X-86232619Y-121420000D02*
X-86327857Y-121372380D01*
X-86470714Y-121372380D01*
X-86613571Y-121420000D01*
X-86708809Y-121515238D01*
X-86756428Y-121610476D01*
X-86804047Y-121800952D01*
X-86804047Y-121943809D01*
X-86756428Y-122134285D01*
X-86708809Y-122229523D01*
X-86613571Y-122324761D01*
X-86470714Y-122372380D01*
X-86375476Y-122372380D01*
X-86232619Y-122324761D01*
X-86185000Y-122277142D01*
X-86185000Y-121943809D01*
X-86375476Y-121943809D01*
X-85756428Y-121991428D02*
X-84994523Y-121991428D01*
X-84565952Y-121467619D02*
X-84518333Y-121420000D01*
X-84423095Y-121372380D01*
X-84185000Y-121372380D01*
X-84089761Y-121420000D01*
X-84042142Y-121467619D01*
X-83994523Y-121562857D01*
X-83994523Y-121658095D01*
X-84042142Y-121800952D01*
X-84613571Y-122372380D01*
X-83994523Y-122372380D01*
X-82804047Y-122372380D02*
X-82804047Y-121372380D01*
X-82423095Y-121372380D01*
X-82327857Y-121420000D01*
X-82280238Y-121467619D01*
X-82232619Y-121562857D01*
X-82232619Y-121705714D01*
X-82280238Y-121800952D01*
X-82327857Y-121848571D01*
X-82423095Y-121896190D01*
X-82804047Y-121896190D01*
X-81804047Y-122372380D02*
X-81804047Y-121705714D01*
X-81804047Y-121896190D02*
X-81756428Y-121800952D01*
X-81708809Y-121753333D01*
X-81613571Y-121705714D01*
X-81518333Y-121705714D01*
X-81042142Y-122372380D02*
X-81137380Y-122324761D01*
X-81185000Y-122277142D01*
X-81232619Y-122181904D01*
X-81232619Y-121896190D01*
X-81185000Y-121800952D01*
X-81137380Y-121753333D01*
X-81042142Y-121705714D01*
X-80899285Y-121705714D01*
X-80804047Y-121753333D01*
X-80756428Y-121800952D01*
X-80708809Y-121896190D01*
X-80708809Y-122181904D01*
X-80756428Y-122277142D01*
X-80804047Y-122324761D01*
X-80899285Y-122372380D01*
X-81042142Y-122372380D01*
X-80280238Y-121705714D02*
X-80280238Y-122562857D01*
X-80327857Y-122658095D01*
X-80423095Y-122705714D01*
X-80470714Y-122705714D01*
X-80280238Y-121372380D02*
X-80327857Y-121420000D01*
X-80280238Y-121467619D01*
X-80232619Y-121420000D01*
X-80280238Y-121372380D01*
X-80280238Y-121467619D01*
X-79423095Y-122324761D02*
X-79518333Y-122372380D01*
X-79708809Y-122372380D01*
X-79804047Y-122324761D01*
X-79851666Y-122229523D01*
X-79851666Y-121848571D01*
X-79804047Y-121753333D01*
X-79708809Y-121705714D01*
X-79518333Y-121705714D01*
X-79423095Y-121753333D01*
X-79375476Y-121848571D01*
X-79375476Y-121943809D01*
X-79851666Y-122039047D01*
X-78518333Y-122324761D02*
X-78613571Y-122372380D01*
X-78804047Y-122372380D01*
X-78899285Y-122324761D01*
X-78946904Y-122277142D01*
X-78994523Y-122181904D01*
X-78994523Y-121896190D01*
X-78946904Y-121800952D01*
X-78899285Y-121753333D01*
X-78804047Y-121705714D01*
X-78613571Y-121705714D01*
X-78518333Y-121753333D01*
X-78232619Y-121705714D02*
X-77851666Y-121705714D01*
X-78089761Y-121372380D02*
X-78089761Y-122229523D01*
X-78042142Y-122324761D01*
X-77946904Y-122372380D01*
X-77851666Y-122372380D01*
X-86232619Y-123022380D02*
X-86232619Y-123736666D01*
X-86280238Y-123879523D01*
X-86375476Y-123974761D01*
X-86518333Y-124022380D01*
X-86613571Y-124022380D01*
X-85327857Y-124022380D02*
X-85327857Y-123498571D01*
X-85375476Y-123403333D01*
X-85470714Y-123355714D01*
X-85661190Y-123355714D01*
X-85756428Y-123403333D01*
X-85327857Y-123974761D02*
X-85423095Y-124022380D01*
X-85661190Y-124022380D01*
X-85756428Y-123974761D01*
X-85804047Y-123879523D01*
X-85804047Y-123784285D01*
X-85756428Y-123689047D01*
X-85661190Y-123641428D01*
X-85423095Y-123641428D01*
X-85327857Y-123593809D01*
X-84851666Y-123355714D02*
X-84851666Y-124022380D01*
X-84851666Y-123450952D02*
X-84804047Y-123403333D01*
X-84708809Y-123355714D01*
X-84565952Y-123355714D01*
X-84470714Y-123403333D01*
X-84423095Y-123498571D01*
X-84423095Y-124022380D01*
X-83232619Y-123117619D02*
X-83185000Y-123070000D01*
X-83089761Y-123022380D01*
X-82851666Y-123022380D01*
X-82756428Y-123070000D01*
X-82708809Y-123117619D01*
X-82661190Y-123212857D01*
X-82661190Y-123308095D01*
X-82708809Y-123450952D01*
X-83280238Y-124022380D01*
X-82661190Y-124022380D01*
X-82042142Y-123022380D02*
X-81946904Y-123022380D01*
X-81851666Y-123070000D01*
X-81804047Y-123117619D01*
X-81756428Y-123212857D01*
X-81708809Y-123403333D01*
X-81708809Y-123641428D01*
X-81756428Y-123831904D01*
X-81804047Y-123927142D01*
X-81851666Y-123974761D01*
X-81946904Y-124022380D01*
X-82042142Y-124022380D01*
X-82137380Y-123974761D01*
X-82185000Y-123927142D01*
X-82232619Y-123831904D01*
X-82280238Y-123641428D01*
X-82280238Y-123403333D01*
X-82232619Y-123212857D01*
X-82185000Y-123117619D01*
X-82137380Y-123070000D01*
X-82042142Y-123022380D01*
X-81327857Y-123117619D02*
X-81280238Y-123070000D01*
X-81185000Y-123022380D01*
X-80946904Y-123022380D01*
X-80851666Y-123070000D01*
X-80804047Y-123117619D01*
X-80756428Y-123212857D01*
X-80756428Y-123308095D01*
X-80804047Y-123450952D01*
X-81375476Y-124022380D01*
X-80756428Y-124022380D01*
X-80137380Y-123022380D02*
X-80042142Y-123022380D01*
X-79946904Y-123070000D01*
X-79899285Y-123117619D01*
X-79851666Y-123212857D01*
X-79804047Y-123403333D01*
X-79804047Y-123641428D01*
X-79851666Y-123831904D01*
X-79899285Y-123927142D01*
X-79946904Y-123974761D01*
X-80042142Y-124022380D01*
X-80137380Y-124022380D01*
X-80232619Y-123974761D01*
X-80280238Y-123927142D01*
X-80327857Y-123831904D01*
X-80375476Y-123641428D01*
X-80375476Y-123403333D01*
X-80327857Y-123212857D01*
X-80280238Y-123117619D01*
X-80232619Y-123070000D01*
X-80137380Y-123022380D01*
X9310714Y-154685476D02*
X9310714Y-154304523D01*
X8977380Y-154542619D02*
X9834523Y-154542619D01*
X9929761Y-154495000D01*
X9977380Y-154399761D01*
X9977380Y-154304523D01*
X9977380Y-153828333D02*
X9929761Y-153923571D01*
X9882142Y-153971190D01*
X9786904Y-154018809D01*
X9501190Y-154018809D01*
X9405952Y-153971190D01*
X9358333Y-153923571D01*
X9310714Y-153828333D01*
X9310714Y-153685476D01*
X9358333Y-153590238D01*
X9405952Y-153542619D01*
X9501190Y-153495000D01*
X9786904Y-153495000D01*
X9882142Y-153542619D01*
X9929761Y-153590238D01*
X9977380Y-153685476D01*
X9977380Y-153828333D01*
X9929761Y-152352142D02*
X9977380Y-152256904D01*
X9977380Y-152066428D01*
X9929761Y-151971190D01*
X9834523Y-151923571D01*
X9786904Y-151923571D01*
X9691666Y-151971190D01*
X9644047Y-152066428D01*
X9644047Y-152209285D01*
X9596428Y-152304523D01*
X9501190Y-152352142D01*
X9453571Y-152352142D01*
X9358333Y-152304523D01*
X9310714Y-152209285D01*
X9310714Y-152066428D01*
X9358333Y-151971190D01*
X9310714Y-151590238D02*
X9977380Y-151399761D01*
X9501190Y-151209285D01*
X9977380Y-151018809D01*
X9310714Y-150828333D01*
X9977380Y-150447380D02*
X9310714Y-150447380D01*
X8977380Y-150447380D02*
X9025000Y-150495000D01*
X9072619Y-150447380D01*
X9025000Y-150399761D01*
X8977380Y-150447380D01*
X9072619Y-150447380D01*
X9310714Y-150114047D02*
X9310714Y-149733095D01*
X8977380Y-149971190D02*
X9834523Y-149971190D01*
X9929761Y-149923571D01*
X9977380Y-149828333D01*
X9977380Y-149733095D01*
X9929761Y-148971190D02*
X9977380Y-149066428D01*
X9977380Y-149256904D01*
X9929761Y-149352142D01*
X9882142Y-149399761D01*
X9786904Y-149447380D01*
X9501190Y-149447380D01*
X9405952Y-149399761D01*
X9358333Y-149352142D01*
X9310714Y-149256904D01*
X9310714Y-149066428D01*
X9358333Y-148971190D01*
X9977380Y-148542619D02*
X8977380Y-148542619D01*
X9977380Y-148114047D02*
X9453571Y-148114047D01*
X9358333Y-148161666D01*
X9310714Y-148256904D01*
X9310714Y-148399761D01*
X9358333Y-148495000D01*
X9405952Y-148542619D01*
X9929761Y-147256904D02*
X9977380Y-147352142D01*
X9977380Y-147542619D01*
X9929761Y-147637857D01*
X9834523Y-147685476D01*
X9453571Y-147685476D01*
X9358333Y-147637857D01*
X9310714Y-147542619D01*
X9310714Y-147352142D01*
X9358333Y-147256904D01*
X9453571Y-147209285D01*
X9548809Y-147209285D01*
X9644047Y-147685476D01*
X9929761Y-146828333D02*
X9977380Y-146733095D01*
X9977380Y-146542619D01*
X9929761Y-146447380D01*
X9834523Y-146399761D01*
X9786904Y-146399761D01*
X9691666Y-146447380D01*
X9644047Y-146542619D01*
X9644047Y-146685476D01*
X9596428Y-146780714D01*
X9501190Y-146828333D01*
X9453571Y-146828333D01*
X9358333Y-146780714D01*
X9310714Y-146685476D01*
X9310714Y-146542619D01*
X9358333Y-146447380D01*
X9310714Y-135032380D02*
X9310714Y-134651428D01*
X8977380Y-134889523D02*
X9834523Y-134889523D01*
X9929761Y-134841904D01*
X9977380Y-134746666D01*
X9977380Y-134651428D01*
X9977380Y-134175238D02*
X9929761Y-134270476D01*
X9882142Y-134318095D01*
X9786904Y-134365714D01*
X9501190Y-134365714D01*
X9405952Y-134318095D01*
X9358333Y-134270476D01*
X9310714Y-134175238D01*
X9310714Y-134032380D01*
X9358333Y-133937142D01*
X9405952Y-133889523D01*
X9501190Y-133841904D01*
X9786904Y-133841904D01*
X9882142Y-133889523D01*
X9929761Y-133937142D01*
X9977380Y-134032380D01*
X9977380Y-134175238D01*
X9310714Y-132794285D02*
X9310714Y-132413333D01*
X8977380Y-132651428D02*
X9834523Y-132651428D01*
X9929761Y-132603809D01*
X9977380Y-132508571D01*
X9977380Y-132413333D01*
X9977380Y-132080000D02*
X9310714Y-132080000D01*
X8977380Y-132080000D02*
X9025000Y-132127619D01*
X9072619Y-132080000D01*
X9025000Y-132032380D01*
X8977380Y-132080000D01*
X9072619Y-132080000D01*
X9977380Y-131603809D02*
X9310714Y-131603809D01*
X9405952Y-131603809D02*
X9358333Y-131556190D01*
X9310714Y-131460952D01*
X9310714Y-131318095D01*
X9358333Y-131222857D01*
X9453571Y-131175238D01*
X9977380Y-131175238D01*
X9453571Y-131175238D02*
X9358333Y-131127619D01*
X9310714Y-131032380D01*
X9310714Y-130889523D01*
X9358333Y-130794285D01*
X9453571Y-130746666D01*
X9977380Y-130746666D01*
X9929761Y-129889523D02*
X9977380Y-129984761D01*
X9977380Y-130175238D01*
X9929761Y-130270476D01*
X9834523Y-130318095D01*
X9453571Y-130318095D01*
X9358333Y-130270476D01*
X9310714Y-130175238D01*
X9310714Y-129984761D01*
X9358333Y-129889523D01*
X9453571Y-129841904D01*
X9548809Y-129841904D01*
X9644047Y-130318095D01*
X9977380Y-129413333D02*
X9310714Y-129413333D01*
X9501190Y-129413333D02*
X9405952Y-129365714D01*
X9358333Y-129318095D01*
X9310714Y-129222857D01*
X9310714Y-129127619D01*
X-84669285Y-157709761D02*
X-84669285Y-157328809D01*
X-85002619Y-157566904D02*
X-84145476Y-157566904D01*
X-84050238Y-157519285D01*
X-84002619Y-157424047D01*
X-84002619Y-157328809D01*
X-84002619Y-156852619D02*
X-84050238Y-156947857D01*
X-84097857Y-156995476D01*
X-84193095Y-157043095D01*
X-84478809Y-157043095D01*
X-84574047Y-156995476D01*
X-84621666Y-156947857D01*
X-84669285Y-156852619D01*
X-84669285Y-156709761D01*
X-84621666Y-156614523D01*
X-84574047Y-156566904D01*
X-84478809Y-156519285D01*
X-84193095Y-156519285D01*
X-84097857Y-156566904D01*
X-84050238Y-156614523D01*
X-84002619Y-156709761D01*
X-84002619Y-156852619D01*
X-84002619Y-155185952D02*
X-84050238Y-155281190D01*
X-84097857Y-155328809D01*
X-84193095Y-155376428D01*
X-84478809Y-155376428D01*
X-84574047Y-155328809D01*
X-84621666Y-155281190D01*
X-84669285Y-155185952D01*
X-84669285Y-155043095D01*
X-84621666Y-154947857D01*
X-84574047Y-154900238D01*
X-84478809Y-154852619D01*
X-84193095Y-154852619D01*
X-84097857Y-154900238D01*
X-84050238Y-154947857D01*
X-84002619Y-155043095D01*
X-84002619Y-155185952D01*
X-84669285Y-153995476D02*
X-84002619Y-153995476D01*
X-84669285Y-154424047D02*
X-84145476Y-154424047D01*
X-84050238Y-154376428D01*
X-84002619Y-154281190D01*
X-84002619Y-154138333D01*
X-84050238Y-154043095D01*
X-84097857Y-153995476D01*
X-84669285Y-153662142D02*
X-84669285Y-153281190D01*
X-85002619Y-153519285D02*
X-84145476Y-153519285D01*
X-84050238Y-153471666D01*
X-84002619Y-153376428D01*
X-84002619Y-153281190D01*
X-84669285Y-152947857D02*
X-83669285Y-152947857D01*
X-84621666Y-152947857D02*
X-84669285Y-152852619D01*
X-84669285Y-152662142D01*
X-84621666Y-152566904D01*
X-84574047Y-152519285D01*
X-84478809Y-152471666D01*
X-84193095Y-152471666D01*
X-84097857Y-152519285D01*
X-84050238Y-152566904D01*
X-84002619Y-152662142D01*
X-84002619Y-152852619D01*
X-84050238Y-152947857D01*
X-84669285Y-151614523D02*
X-84002619Y-151614523D01*
X-84669285Y-152043095D02*
X-84145476Y-152043095D01*
X-84050238Y-151995476D01*
X-84002619Y-151900238D01*
X-84002619Y-151757380D01*
X-84050238Y-151662142D01*
X-84097857Y-151614523D01*
X-84669285Y-151281190D02*
X-84669285Y-150900238D01*
X-85002619Y-151138333D02*
X-84145476Y-151138333D01*
X-84050238Y-151090714D01*
X-84002619Y-150995476D01*
X-84002619Y-150900238D01*
X-84669285Y-139715476D02*
X-84669285Y-139334523D01*
X-85002619Y-139572619D02*
X-84145476Y-139572619D01*
X-84050238Y-139525000D01*
X-84002619Y-139429761D01*
X-84002619Y-139334523D01*
X-84002619Y-138858333D02*
X-84050238Y-138953571D01*
X-84097857Y-139001190D01*
X-84193095Y-139048809D01*
X-84478809Y-139048809D01*
X-84574047Y-139001190D01*
X-84621666Y-138953571D01*
X-84669285Y-138858333D01*
X-84669285Y-138715476D01*
X-84621666Y-138620238D01*
X-84574047Y-138572619D01*
X-84478809Y-138525000D01*
X-84193095Y-138525000D01*
X-84097857Y-138572619D01*
X-84050238Y-138620238D01*
X-84002619Y-138715476D01*
X-84002619Y-138858333D01*
X-84669285Y-137334523D02*
X-83669285Y-137334523D01*
X-84621666Y-137334523D02*
X-84669285Y-137239285D01*
X-84669285Y-137048809D01*
X-84621666Y-136953571D01*
X-84574047Y-136905952D01*
X-84478809Y-136858333D01*
X-84193095Y-136858333D01*
X-84097857Y-136905952D01*
X-84050238Y-136953571D01*
X-84002619Y-137048809D01*
X-84002619Y-137239285D01*
X-84050238Y-137334523D01*
X-84002619Y-136286904D02*
X-84050238Y-136382142D01*
X-84097857Y-136429761D01*
X-84193095Y-136477380D01*
X-84478809Y-136477380D01*
X-84574047Y-136429761D01*
X-84621666Y-136382142D01*
X-84669285Y-136286904D01*
X-84669285Y-136144047D01*
X-84621666Y-136048809D01*
X-84574047Y-136001190D01*
X-84478809Y-135953571D01*
X-84193095Y-135953571D01*
X-84097857Y-136001190D01*
X-84050238Y-136048809D01*
X-84002619Y-136144047D01*
X-84002619Y-136286904D01*
X-84669285Y-135620238D02*
X-84002619Y-135429761D01*
X-84478809Y-135239285D01*
X-84002619Y-135048809D01*
X-84669285Y-134858333D01*
X-84050238Y-134096428D02*
X-84002619Y-134191666D01*
X-84002619Y-134382142D01*
X-84050238Y-134477380D01*
X-84145476Y-134525000D01*
X-84526428Y-134525000D01*
X-84621666Y-134477380D01*
X-84669285Y-134382142D01*
X-84669285Y-134191666D01*
X-84621666Y-134096428D01*
X-84526428Y-134048809D01*
X-84431190Y-134048809D01*
X-84335952Y-134525000D01*
X-84002619Y-133620238D02*
X-84669285Y-133620238D01*
X-84478809Y-133620238D02*
X-84574047Y-133572619D01*
X-84621666Y-133525000D01*
X-84669285Y-133429761D01*
X-84669285Y-133334523D01*
D11*
X-9995000Y-157370000D02*
X-9995000Y-160570000D01*
X-9995000Y-157370000D02*
X-15995000Y-157370000D01*
X-15995000Y-157370000D02*
X-15995000Y-160570000D01*
X-15995000Y-160570000D02*
X-9995000Y-160570000D01*
X-10270000Y-142025000D02*
X-10270000Y-142340000D01*
X-10270000Y-139600000D02*
X-10270000Y-139915000D01*
X-15210000Y-142025000D02*
X-15210000Y-142340000D01*
X-15210000Y-139600000D02*
X-15210000Y-139915000D01*
X-15210000Y-142340000D02*
X-10270000Y-142340000D01*
X-15210000Y-139600000D02*
X-10270000Y-139600000D01*
X-19160000Y-146470000D02*
X-19160000Y-146785000D01*
X-19160000Y-144045000D02*
X-19160000Y-144360000D01*
X-24100000Y-146470000D02*
X-24100000Y-146785000D01*
X-24100000Y-144045000D02*
X-24100000Y-144360000D01*
X-24100000Y-146785000D02*
X-19160000Y-146785000D01*
X-24100000Y-144045000D02*
X-19160000Y-144045000D01*
X-15210000Y-144045000D02*
X-10270000Y-144045000D01*
X-15210000Y-146785000D02*
X-10270000Y-146785000D01*
X-15210000Y-144045000D02*
X-15210000Y-144360000D01*
X-15210000Y-146470000D02*
X-15210000Y-146785000D01*
X-10270000Y-144045000D02*
X-10270000Y-144360000D01*
X-10270000Y-146470000D02*
X-10270000Y-146785000D01*
X-19430000Y-159890000D02*
X-19430000Y-160205000D01*
X-19430000Y-157465000D02*
X-19430000Y-157780000D01*
X-24370000Y-159890000D02*
X-24370000Y-160205000D01*
X-24370000Y-157465000D02*
X-24370000Y-157780000D01*
X-24370000Y-160205000D02*
X-19430000Y-160205000D01*
X-24370000Y-157465000D02*
X-19430000Y-157465000D01*
X-10010000Y-151790000D02*
X-10010000Y-152105000D01*
X-10010000Y-149365000D02*
X-10010000Y-149680000D01*
X-14950000Y-151790000D02*
X-14950000Y-152105000D01*
X-14950000Y-149365000D02*
X-14950000Y-149680000D01*
X-14950000Y-152105000D02*
X-10010000Y-152105000D01*
X-14950000Y-149365000D02*
X-10010000Y-149365000D01*
X-14950000Y-153415000D02*
X-10010000Y-153415000D01*
X-14950000Y-156155000D02*
X-10010000Y-156155000D01*
X-14950000Y-153415000D02*
X-14950000Y-153730000D01*
X-14950000Y-155840000D02*
X-14950000Y-156155000D01*
X-10010000Y-153415000D02*
X-10010000Y-153730000D01*
X-10010000Y-155840000D02*
X-10010000Y-156155000D01*
X-24100000Y-138965000D02*
X-19160000Y-138965000D01*
X-24100000Y-141705000D02*
X-19160000Y-141705000D01*
X-24100000Y-138965000D02*
X-24100000Y-139280000D01*
X-24100000Y-141390000D02*
X-24100000Y-141705000D01*
X-19160000Y-138965000D02*
X-19160000Y-139280000D01*
X-19160000Y-141390000D02*
X-19160000Y-141705000D01*
X-10270000Y-131865000D02*
X-10270000Y-132180000D01*
X-10270000Y-129440000D02*
X-10270000Y-129755000D01*
X-15210000Y-131865000D02*
X-15210000Y-132180000D01*
X-15210000Y-129440000D02*
X-15210000Y-129755000D01*
X-15210000Y-132180000D02*
X-10270000Y-132180000D01*
X-15210000Y-129440000D02*
X-10270000Y-129440000D01*
X-19160000Y-136310000D02*
X-19160000Y-136625000D01*
X-19160000Y-133885000D02*
X-19160000Y-134200000D01*
X-24100000Y-136310000D02*
X-24100000Y-136625000D01*
X-24100000Y-133885000D02*
X-24100000Y-134200000D01*
X-24100000Y-136625000D02*
X-19160000Y-136625000D01*
X-24100000Y-133885000D02*
X-19160000Y-133885000D01*
X-24370000Y-153415000D02*
X-19430000Y-153415000D01*
X-24370000Y-156155000D02*
X-19430000Y-156155000D01*
X-24370000Y-153415000D02*
X-24370000Y-153730000D01*
X-24370000Y-155840000D02*
X-24370000Y-156155000D01*
X-19430000Y-153415000D02*
X-19430000Y-153730000D01*
X-19430000Y-155840000D02*
X-19430000Y-156155000D01*
X-15210000Y-133885000D02*
X-10270000Y-133885000D01*
X-15210000Y-136625000D02*
X-10270000Y-136625000D01*
X-15210000Y-133885000D02*
X-15210000Y-134200000D01*
X-15210000Y-136310000D02*
X-15210000Y-136625000D01*
X-10270000Y-133885000D02*
X-10270000Y-134200000D01*
X-10270000Y-136310000D02*
X-10270000Y-136625000D01*
X-24370000Y-149365000D02*
X-19430000Y-149365000D01*
X-24370000Y-152105000D02*
X-19430000Y-152105000D01*
X-24370000Y-149365000D02*
X-24370000Y-149680000D01*
X-24370000Y-151790000D02*
X-24370000Y-152105000D01*
X-19430000Y-149365000D02*
X-19430000Y-149680000D01*
X-19430000Y-151790000D02*
X-19430000Y-152105000D01*
X-47875000Y-158265000D02*
X-47875000Y-160505000D01*
X-47635000Y-158265000D02*
X-47635000Y-160505000D01*
X-47755000Y-158265000D02*
X-47755000Y-160505000D01*
X-43585000Y-159385000D02*
X-44235000Y-159385000D01*
X-49125000Y-159385000D02*
X-48475000Y-159385000D01*
X-44235000Y-158265000D02*
X-48475000Y-158265000D01*
X-44235000Y-160505000D02*
X-44235000Y-158265000D01*
X-48475000Y-160505000D02*
X-44235000Y-160505000D01*
X-48475000Y-158265000D02*
X-48475000Y-160505000D01*
X-36410000Y-158265000D02*
X-36410000Y-160505000D01*
X-36410000Y-160505000D02*
X-32170000Y-160505000D01*
X-32170000Y-160505000D02*
X-32170000Y-158265000D01*
X-32170000Y-158265000D02*
X-36410000Y-158265000D01*
X-37060000Y-159385000D02*
X-36410000Y-159385000D01*
X-31520000Y-159385000D02*
X-32170000Y-159385000D01*
X-35690000Y-158265000D02*
X-35690000Y-160505000D01*
X-35570000Y-158265000D02*
X-35570000Y-160505000D01*
X-35810000Y-158265000D02*
X-35810000Y-160505000D01*
X-82610000Y-143570000D02*
X-79950000Y-143570000D01*
X-82610000Y-130810000D02*
X-82610000Y-143570000D01*
X-79950000Y-130810000D02*
X-79950000Y-143570000D01*
X-82610000Y-130810000D02*
X-79950000Y-130810000D01*
X-82610000Y-129540000D02*
X-82610000Y-128210000D01*
X-82610000Y-128210000D02*
X-81280000Y-128210000D01*
X-82610000Y-156270000D02*
X-79950000Y-156270000D01*
X-82610000Y-153670000D02*
X-82610000Y-156270000D01*
X-79950000Y-153670000D02*
X-79950000Y-156270000D01*
X-82610000Y-153670000D02*
X-79950000Y-153670000D01*
X-82610000Y-152400000D02*
X-82610000Y-151070000D01*
X-82610000Y-151070000D02*
X-81280000Y-151070000D01*
X5020000Y-156905000D02*
X7680000Y-156905000D01*
X5020000Y-146685000D02*
X5020000Y-156905000D01*
X7680000Y-146685000D02*
X7680000Y-156905000D01*
X5020000Y-146685000D02*
X7680000Y-146685000D01*
X5020000Y-145415000D02*
X5020000Y-144085000D01*
X5020000Y-144085000D02*
X6350000Y-144085000D01*
X5020000Y-129480000D02*
X6350000Y-129480000D01*
X5020000Y-130810000D02*
X5020000Y-129480000D01*
X5020000Y-132080000D02*
X7680000Y-132080000D01*
X7680000Y-132080000D02*
X7680000Y-134680000D01*
X5020000Y-132080000D02*
X5020000Y-134680000D01*
X5020000Y-134680000D02*
X7680000Y-134680000D01*
X-42815000Y-140590000D02*
X-42815000Y-140260000D01*
X-49355000Y-140590000D02*
X-42815000Y-140590000D01*
X-49355000Y-140260000D02*
X-49355000Y-140590000D01*
X-42815000Y-137850000D02*
X-42815000Y-138180000D01*
X-49355000Y-137850000D02*
X-42815000Y-137850000D01*
X-49355000Y-138180000D02*
X-49355000Y-137850000D01*
D12*
X-4890000Y-140665000D02*
X-5040000Y-140365000D01*
X-4590000Y-140665000D02*
X-4890000Y-140665000D01*
X-190000Y-140665000D02*
X-490000Y-140665000D01*
X-190000Y-140665000D02*
X-40000Y-140365000D01*
D10*
X-590000Y-137515000D02*
G75*
G03X-4440000Y-137465000I-1950000J-1900000D01*
G01*
D12*
X-4890000Y-126060000D02*
X-5040000Y-125760000D01*
X-4590000Y-126060000D02*
X-4890000Y-126060000D01*
X-190000Y-126060000D02*
X-490000Y-126060000D01*
X-190000Y-126060000D02*
X-40000Y-125760000D01*
D10*
X-590000Y-122910000D02*
G75*
G03X-4440000Y-122860000I-1950000J-1900000D01*
G01*
X-590000Y-150215000D02*
G75*
G03X-4440000Y-150165000I-1950000J-1900000D01*
G01*
D12*
X-190000Y-153365000D02*
X-40000Y-153065000D01*
X-190000Y-153365000D02*
X-490000Y-153365000D01*
X-4590000Y-153365000D02*
X-4890000Y-153365000D01*
X-4890000Y-153365000D02*
X-5040000Y-153065000D01*
D10*
X-590000Y-143865000D02*
G75*
G03X-4440000Y-143815000I-1950000J-1900000D01*
G01*
D12*
X-190000Y-147015000D02*
X-40000Y-146715000D01*
X-190000Y-147015000D02*
X-490000Y-147015000D01*
X-4590000Y-147015000D02*
X-4890000Y-147015000D01*
X-4890000Y-147015000D02*
X-5040000Y-146715000D01*
X-4890000Y-133680000D02*
X-5040000Y-133380000D01*
X-4590000Y-133680000D02*
X-4890000Y-133680000D01*
X-190000Y-133680000D02*
X-490000Y-133680000D01*
X-190000Y-133680000D02*
X-40000Y-133380000D01*
D10*
X-590000Y-130530000D02*
G75*
G03X-4440000Y-130480000I-1950000J-1900000D01*
G01*
X-590000Y-156565000D02*
G75*
G03X-4440000Y-156515000I-1950000J-1900000D01*
G01*
D12*
X-190000Y-159715000D02*
X-40000Y-159415000D01*
X-190000Y-159715000D02*
X-490000Y-159715000D01*
X-4590000Y-159715000D02*
X-4890000Y-159715000D01*
X-4890000Y-159715000D02*
X-5040000Y-159415000D01*
D11*
X-37625000Y-143500000D02*
X-37625000Y-143170000D01*
X-37625000Y-143170000D02*
X-31085000Y-143170000D01*
X-31085000Y-143170000D02*
X-31085000Y-143500000D01*
X-37625000Y-145580000D02*
X-37625000Y-145910000D01*
X-37625000Y-145910000D02*
X-31085000Y-145910000D01*
X-31085000Y-145910000D02*
X-31085000Y-145580000D01*
X-67410000Y-150595000D02*
X-67410000Y-150265000D01*
X-73950000Y-150595000D02*
X-67410000Y-150595000D01*
X-73950000Y-150265000D02*
X-73950000Y-150595000D01*
X-67410000Y-147855000D02*
X-67410000Y-148185000D01*
X-73950000Y-147855000D02*
X-67410000Y-147855000D01*
X-73950000Y-148185000D02*
X-73950000Y-147855000D01*
X-73755000Y-158345000D02*
X-73755000Y-158015000D01*
X-73755000Y-158015000D02*
X-67215000Y-158015000D01*
X-67215000Y-158015000D02*
X-67215000Y-158345000D01*
X-73755000Y-160425000D02*
X-73755000Y-160755000D01*
X-73755000Y-160755000D02*
X-67215000Y-160755000D01*
X-67215000Y-160755000D02*
X-67215000Y-160425000D01*
X-67215000Y-155675000D02*
X-67215000Y-155345000D01*
X-73755000Y-155675000D02*
X-67215000Y-155675000D01*
X-73755000Y-155345000D02*
X-73755000Y-155675000D01*
X-67215000Y-152935000D02*
X-67215000Y-153265000D01*
X-73755000Y-152935000D02*
X-67215000Y-152935000D01*
X-73755000Y-153265000D02*
X-73755000Y-152935000D01*
X-43125000Y-145910000D02*
X-43125000Y-145580000D01*
X-49665000Y-145910000D02*
X-43125000Y-145910000D01*
X-49665000Y-145580000D02*
X-49665000Y-145910000D01*
X-43125000Y-143170000D02*
X-43125000Y-143500000D01*
X-49665000Y-143170000D02*
X-43125000Y-143170000D01*
X-49665000Y-143500000D02*
X-49665000Y-143170000D01*
X-61705000Y-148185000D02*
X-61705000Y-147855000D01*
X-61705000Y-147855000D02*
X-55165000Y-147855000D01*
X-55165000Y-147855000D02*
X-55165000Y-148185000D01*
X-61705000Y-150265000D02*
X-61705000Y-150595000D01*
X-61705000Y-150595000D02*
X-55165000Y-150595000D01*
X-55165000Y-150595000D02*
X-55165000Y-150265000D01*
X-36580000Y-120175000D02*
X-36580000Y-129945000D01*
X-46350000Y-120175000D02*
X-46350000Y-129945000D01*
X-46350000Y-129945000D02*
X-36580000Y-129945000D01*
X-46350000Y-120175000D02*
X-36580000Y-120175000D01*
X-49665000Y-148185000D02*
X-49665000Y-147855000D01*
X-49665000Y-147855000D02*
X-43125000Y-147855000D01*
X-43125000Y-147855000D02*
X-43125000Y-148185000D01*
X-49665000Y-150265000D02*
X-49665000Y-150595000D01*
X-49665000Y-150595000D02*
X-43125000Y-150595000D01*
X-43125000Y-150595000D02*
X-43125000Y-150265000D01*
X-55395000Y-155730000D02*
X-55395000Y-155400000D01*
X-61935000Y-155730000D02*
X-55395000Y-155730000D01*
X-61935000Y-155400000D02*
X-61935000Y-155730000D01*
X-55395000Y-152990000D02*
X-55395000Y-153320000D01*
X-61935000Y-152990000D02*
X-55395000Y-152990000D01*
X-61935000Y-153320000D02*
X-61935000Y-152990000D01*
X-37315000Y-138180000D02*
X-37315000Y-137850000D01*
X-37315000Y-137850000D02*
X-30775000Y-137850000D01*
X-30775000Y-137850000D02*
X-30775000Y-138180000D01*
X-37315000Y-140260000D02*
X-37315000Y-140590000D01*
X-37315000Y-140590000D02*
X-30775000Y-140590000D01*
X-30775000Y-140590000D02*
X-30775000Y-140260000D01*
X-59380000Y-120210000D02*
X-49610000Y-120210000D01*
X-59380000Y-129980000D02*
X-49610000Y-129980000D01*
X-59380000Y-120210000D02*
X-59380000Y-129980000D01*
X-49610000Y-120210000D02*
X-49610000Y-129980000D01*
X-31020000Y-155675000D02*
X-31020000Y-155345000D01*
X-37560000Y-155675000D02*
X-31020000Y-155675000D01*
X-37560000Y-155345000D02*
X-37560000Y-155675000D01*
X-31020000Y-152935000D02*
X-31020000Y-153265000D01*
X-37560000Y-152935000D02*
X-31020000Y-152935000D01*
X-37560000Y-153265000D02*
X-37560000Y-152935000D01*
X-33345000Y-120175000D02*
X-23575000Y-120175000D01*
X-33345000Y-129945000D02*
X-23575000Y-129945000D01*
X-33345000Y-120175000D02*
X-33345000Y-129945000D01*
X-23575000Y-120175000D02*
X-23575000Y-129945000D01*
X-43085000Y-155675000D02*
X-43085000Y-155345000D01*
X-49625000Y-155675000D02*
X-43085000Y-155675000D01*
X-49625000Y-155345000D02*
X-49625000Y-155675000D01*
X-43085000Y-152935000D02*
X-43085000Y-153265000D01*
X-49625000Y-152935000D02*
X-43085000Y-152935000D01*
X-49625000Y-153265000D02*
X-49625000Y-152935000D01*
X-61935000Y-158345000D02*
X-61935000Y-158015000D01*
X-61935000Y-158015000D02*
X-55395000Y-158015000D01*
X-55395000Y-158015000D02*
X-55395000Y-158345000D01*
X-61935000Y-160425000D02*
X-61935000Y-160755000D01*
X-61935000Y-160755000D02*
X-55395000Y-160755000D01*
X-55395000Y-160755000D02*
X-55395000Y-160425000D01*
X-31085000Y-150595000D02*
X-31085000Y-150265000D01*
X-37625000Y-150595000D02*
X-31085000Y-150595000D01*
X-37625000Y-150265000D02*
X-37625000Y-150595000D01*
X-31085000Y-147855000D02*
X-31085000Y-148185000D01*
X-37625000Y-147855000D02*
X-31085000Y-147855000D01*
X-37625000Y-148185000D02*
X-37625000Y-147855000D01*
X-37315000Y-133495000D02*
X-37315000Y-133165000D01*
X-37315000Y-133165000D02*
X-30775000Y-133165000D01*
X-30775000Y-133165000D02*
X-30775000Y-133495000D01*
X-37315000Y-135575000D02*
X-37315000Y-135905000D01*
X-37315000Y-135905000D02*
X-30775000Y-135905000D01*
X-30775000Y-135905000D02*
X-30775000Y-135575000D01*
X-61395000Y-133495000D02*
X-61395000Y-133165000D01*
X-61395000Y-133165000D02*
X-54855000Y-133165000D01*
X-54855000Y-133165000D02*
X-54855000Y-133495000D01*
X-61395000Y-135575000D02*
X-61395000Y-135905000D01*
X-61395000Y-135905000D02*
X-54855000Y-135905000D01*
X-54855000Y-135905000D02*
X-54855000Y-135575000D01*
X-67205000Y-135565000D02*
X-67205000Y-135235000D01*
X-73745000Y-135565000D02*
X-67205000Y-135565000D01*
X-73745000Y-135235000D02*
X-73745000Y-135565000D01*
X-67205000Y-132825000D02*
X-67205000Y-133155000D01*
X-73745000Y-132825000D02*
X-67205000Y-132825000D01*
X-73745000Y-133155000D02*
X-73745000Y-132825000D01*
X-42815000Y-135905000D02*
X-42815000Y-135575000D01*
X-49355000Y-135905000D02*
X-42815000Y-135905000D01*
X-49355000Y-135575000D02*
X-49355000Y-135905000D01*
X-42815000Y-133165000D02*
X-42815000Y-133495000D01*
X-49355000Y-133165000D02*
X-42815000Y-133165000D01*
X-49355000Y-133495000D02*
X-49355000Y-133165000D01*
X-55165000Y-145725000D02*
X-55165000Y-145395000D01*
X-61705000Y-145725000D02*
X-55165000Y-145725000D01*
X-61705000Y-145395000D02*
X-61705000Y-145725000D01*
X-55165000Y-142985000D02*
X-55165000Y-143315000D01*
X-61705000Y-142985000D02*
X-55165000Y-142985000D01*
X-61705000Y-143315000D02*
X-61705000Y-142985000D01*
X-73745000Y-138025000D02*
X-73745000Y-137695000D01*
X-73745000Y-137695000D02*
X-67205000Y-137695000D01*
X-67205000Y-137695000D02*
X-67205000Y-138025000D01*
X-73745000Y-140105000D02*
X-73745000Y-140435000D01*
X-73745000Y-140435000D02*
X-67205000Y-140435000D01*
X-67205000Y-140435000D02*
X-67205000Y-140105000D01*
X-61395000Y-138025000D02*
X-61395000Y-137695000D01*
X-61395000Y-137695000D02*
X-54855000Y-137695000D01*
X-54855000Y-137695000D02*
X-54855000Y-138025000D01*
X-61395000Y-140105000D02*
X-61395000Y-140435000D01*
X-61395000Y-140435000D02*
X-54855000Y-140435000D01*
X-54855000Y-140435000D02*
X-54855000Y-140105000D01*
X-73950000Y-143125000D02*
X-73950000Y-142795000D01*
X-73950000Y-142795000D02*
X-67410000Y-142795000D01*
X-67410000Y-142795000D02*
X-67410000Y-143125000D01*
X-73950000Y-145205000D02*
X-73950000Y-145535000D01*
X-73950000Y-145535000D02*
X-67410000Y-145535000D01*
X-67410000Y-145535000D02*
X-67410000Y-145205000D01*
D12*
X-62510000Y-126080000D02*
X-62510000Y-125655000D01*
X-62535000Y-126080000D02*
X-62985000Y-126080000D01*
X-75410000Y-126080000D02*
X-74960000Y-126080000D01*
X-75410000Y-126080000D02*
X-75410000Y-125655000D01*
X-75410000Y-119030000D02*
X-75410000Y-119405000D01*
X-75410000Y-119030000D02*
X-75010000Y-119030000D01*
X-62885000Y-119030000D02*
X-62510000Y-119030000D01*
X-62510000Y-119030000D02*
X-62510000Y-119380000D01*
D11*
X-15795000Y-123825000D02*
G75*
G03X-15795000Y-123825000I-2620000J0D01*
G01*
X-15795000Y-123825000D02*
X-14835000Y-123825000D01*
D10*
X-12637857Y-156927142D02*
X-12685476Y-156974761D01*
X-12828333Y-157022380D01*
X-12923571Y-157022380D01*
X-13066428Y-156974761D01*
X-13161666Y-156879523D01*
X-13209285Y-156784285D01*
X-13256904Y-156593809D01*
X-13256904Y-156450952D01*
X-13209285Y-156260476D01*
X-13161666Y-156165238D01*
X-13066428Y-156070000D01*
X-12923571Y-156022380D01*
X-12828333Y-156022380D01*
X-12685476Y-156070000D01*
X-12637857Y-156117619D01*
X-12256904Y-156117619D02*
X-12209285Y-156070000D01*
X-12114047Y-156022380D01*
X-11875952Y-156022380D01*
X-11780714Y-156070000D01*
X-11733095Y-156117619D01*
X-11685476Y-156212857D01*
X-11685476Y-156308095D01*
X-11733095Y-156450952D01*
X-12304523Y-157022380D01*
X-11685476Y-157022380D01*
X-10733095Y-157022380D02*
X-11304523Y-157022380D01*
X-11018809Y-157022380D02*
X-11018809Y-156022380D01*
X-11114047Y-156165238D01*
X-11209285Y-156260476D01*
X-11304523Y-156308095D01*
X-13382857Y-138827142D02*
X-13430476Y-138874761D01*
X-13573333Y-138922380D01*
X-13668571Y-138922380D01*
X-13811428Y-138874761D01*
X-13906666Y-138779523D01*
X-13954285Y-138684285D01*
X-14001904Y-138493809D01*
X-14001904Y-138350952D01*
X-13954285Y-138160476D01*
X-13906666Y-138065238D01*
X-13811428Y-137970000D01*
X-13668571Y-137922380D01*
X-13573333Y-137922380D01*
X-13430476Y-137970000D01*
X-13382857Y-138017619D01*
X-13001904Y-138017619D02*
X-12954285Y-137970000D01*
X-12859047Y-137922380D01*
X-12620952Y-137922380D01*
X-12525714Y-137970000D01*
X-12478095Y-138017619D01*
X-12430476Y-138112857D01*
X-12430476Y-138208095D01*
X-12478095Y-138350952D01*
X-13049523Y-138922380D01*
X-12430476Y-138922380D01*
X-12097142Y-137922380D02*
X-11478095Y-137922380D01*
X-11811428Y-138303333D01*
X-11668571Y-138303333D01*
X-11573333Y-138350952D01*
X-11525714Y-138398571D01*
X-11478095Y-138493809D01*
X-11478095Y-138731904D01*
X-11525714Y-138827142D01*
X-11573333Y-138874761D01*
X-11668571Y-138922380D01*
X-11954285Y-138922380D01*
X-12049523Y-138874761D01*
X-12097142Y-138827142D01*
X-22272857Y-143272142D02*
X-22320476Y-143319761D01*
X-22463333Y-143367380D01*
X-22558571Y-143367380D01*
X-22701428Y-143319761D01*
X-22796666Y-143224523D01*
X-22844285Y-143129285D01*
X-22891904Y-142938809D01*
X-22891904Y-142795952D01*
X-22844285Y-142605476D01*
X-22796666Y-142510238D01*
X-22701428Y-142415000D01*
X-22558571Y-142367380D01*
X-22463333Y-142367380D01*
X-22320476Y-142415000D01*
X-22272857Y-142462619D01*
X-21891904Y-142462619D02*
X-21844285Y-142415000D01*
X-21749047Y-142367380D01*
X-21510952Y-142367380D01*
X-21415714Y-142415000D01*
X-21368095Y-142462619D01*
X-21320476Y-142557857D01*
X-21320476Y-142653095D01*
X-21368095Y-142795952D01*
X-21939523Y-143367380D01*
X-21320476Y-143367380D01*
X-20463333Y-142367380D02*
X-20653809Y-142367380D01*
X-20749047Y-142415000D01*
X-20796666Y-142462619D01*
X-20891904Y-142605476D01*
X-20939523Y-142795952D01*
X-20939523Y-143176904D01*
X-20891904Y-143272142D01*
X-20844285Y-143319761D01*
X-20749047Y-143367380D01*
X-20558571Y-143367380D01*
X-20463333Y-143319761D01*
X-20415714Y-143272142D01*
X-20368095Y-143176904D01*
X-20368095Y-142938809D01*
X-20415714Y-142843571D01*
X-20463333Y-142795952D01*
X-20558571Y-142748333D01*
X-20749047Y-142748333D01*
X-20844285Y-142795952D01*
X-20891904Y-142843571D01*
X-20939523Y-142938809D01*
X-13382857Y-143272142D02*
X-13430476Y-143319761D01*
X-13573333Y-143367380D01*
X-13668571Y-143367380D01*
X-13811428Y-143319761D01*
X-13906666Y-143224523D01*
X-13954285Y-143129285D01*
X-14001904Y-142938809D01*
X-14001904Y-142795952D01*
X-13954285Y-142605476D01*
X-13906666Y-142510238D01*
X-13811428Y-142415000D01*
X-13668571Y-142367380D01*
X-13573333Y-142367380D01*
X-13430476Y-142415000D01*
X-13382857Y-142462619D01*
X-13001904Y-142462619D02*
X-12954285Y-142415000D01*
X-12859047Y-142367380D01*
X-12620952Y-142367380D01*
X-12525714Y-142415000D01*
X-12478095Y-142462619D01*
X-12430476Y-142557857D01*
X-12430476Y-142653095D01*
X-12478095Y-142795952D01*
X-13049523Y-143367380D01*
X-12430476Y-143367380D01*
X-11859047Y-142795952D02*
X-11954285Y-142748333D01*
X-12001904Y-142700714D01*
X-12049523Y-142605476D01*
X-12049523Y-142557857D01*
X-12001904Y-142462619D01*
X-11954285Y-142415000D01*
X-11859047Y-142367380D01*
X-11668571Y-142367380D01*
X-11573333Y-142415000D01*
X-11525714Y-142462619D01*
X-11478095Y-142557857D01*
X-11478095Y-142605476D01*
X-11525714Y-142700714D01*
X-11573333Y-142748333D01*
X-11668571Y-142795952D01*
X-11859047Y-142795952D01*
X-11954285Y-142843571D01*
X-12001904Y-142891190D01*
X-12049523Y-142986428D01*
X-12049523Y-143176904D01*
X-12001904Y-143272142D01*
X-11954285Y-143319761D01*
X-11859047Y-143367380D01*
X-11668571Y-143367380D01*
X-11573333Y-143319761D01*
X-11525714Y-143272142D01*
X-11478095Y-143176904D01*
X-11478095Y-142986428D01*
X-11525714Y-142891190D01*
X-11573333Y-142843571D01*
X-11668571Y-142795952D01*
X-22542857Y-156692142D02*
X-22590476Y-156739761D01*
X-22733333Y-156787380D01*
X-22828571Y-156787380D01*
X-22971428Y-156739761D01*
X-23066666Y-156644523D01*
X-23114285Y-156549285D01*
X-23161904Y-156358809D01*
X-23161904Y-156215952D01*
X-23114285Y-156025476D01*
X-23066666Y-155930238D01*
X-22971428Y-155835000D01*
X-22828571Y-155787380D01*
X-22733333Y-155787380D01*
X-22590476Y-155835000D01*
X-22542857Y-155882619D01*
X-22161904Y-155882619D02*
X-22114285Y-155835000D01*
X-22019047Y-155787380D01*
X-21780952Y-155787380D01*
X-21685714Y-155835000D01*
X-21638095Y-155882619D01*
X-21590476Y-155977857D01*
X-21590476Y-156073095D01*
X-21638095Y-156215952D01*
X-22209523Y-156787380D01*
X-21590476Y-156787380D01*
X-21114285Y-156787380D02*
X-20923809Y-156787380D01*
X-20828571Y-156739761D01*
X-20780952Y-156692142D01*
X-20685714Y-156549285D01*
X-20638095Y-156358809D01*
X-20638095Y-155977857D01*
X-20685714Y-155882619D01*
X-20733333Y-155835000D01*
X-20828571Y-155787380D01*
X-21019047Y-155787380D01*
X-21114285Y-155835000D01*
X-21161904Y-155882619D01*
X-21209523Y-155977857D01*
X-21209523Y-156215952D01*
X-21161904Y-156311190D01*
X-21114285Y-156358809D01*
X-21019047Y-156406428D01*
X-20828571Y-156406428D01*
X-20733333Y-156358809D01*
X-20685714Y-156311190D01*
X-20638095Y-156215952D01*
X-13122857Y-148592142D02*
X-13170476Y-148639761D01*
X-13313333Y-148687380D01*
X-13408571Y-148687380D01*
X-13551428Y-148639761D01*
X-13646666Y-148544523D01*
X-13694285Y-148449285D01*
X-13741904Y-148258809D01*
X-13741904Y-148115952D01*
X-13694285Y-147925476D01*
X-13646666Y-147830238D01*
X-13551428Y-147735000D01*
X-13408571Y-147687380D01*
X-13313333Y-147687380D01*
X-13170476Y-147735000D01*
X-13122857Y-147782619D01*
X-12789523Y-147687380D02*
X-12170476Y-147687380D01*
X-12503809Y-148068333D01*
X-12360952Y-148068333D01*
X-12265714Y-148115952D01*
X-12218095Y-148163571D01*
X-12170476Y-148258809D01*
X-12170476Y-148496904D01*
X-12218095Y-148592142D01*
X-12265714Y-148639761D01*
X-12360952Y-148687380D01*
X-12646666Y-148687380D01*
X-12741904Y-148639761D01*
X-12789523Y-148592142D01*
X-11551428Y-147687380D02*
X-11456190Y-147687380D01*
X-11360952Y-147735000D01*
X-11313333Y-147782619D01*
X-11265714Y-147877857D01*
X-11218095Y-148068333D01*
X-11218095Y-148306428D01*
X-11265714Y-148496904D01*
X-11313333Y-148592142D01*
X-11360952Y-148639761D01*
X-11456190Y-148687380D01*
X-11551428Y-148687380D01*
X-11646666Y-148639761D01*
X-11694285Y-148592142D01*
X-11741904Y-148496904D01*
X-11789523Y-148306428D01*
X-11789523Y-148068333D01*
X-11741904Y-147877857D01*
X-11694285Y-147782619D01*
X-11646666Y-147735000D01*
X-11551428Y-147687380D01*
X-13122857Y-152642142D02*
X-13170476Y-152689761D01*
X-13313333Y-152737380D01*
X-13408571Y-152737380D01*
X-13551428Y-152689761D01*
X-13646666Y-152594523D01*
X-13694285Y-152499285D01*
X-13741904Y-152308809D01*
X-13741904Y-152165952D01*
X-13694285Y-151975476D01*
X-13646666Y-151880238D01*
X-13551428Y-151785000D01*
X-13408571Y-151737380D01*
X-13313333Y-151737380D01*
X-13170476Y-151785000D01*
X-13122857Y-151832619D01*
X-12265714Y-152070714D02*
X-12265714Y-152737380D01*
X-12503809Y-151689761D02*
X-12741904Y-152404047D01*
X-12122857Y-152404047D01*
X-11218095Y-152737380D02*
X-11789523Y-152737380D01*
X-11503809Y-152737380D02*
X-11503809Y-151737380D01*
X-11599047Y-151880238D01*
X-11694285Y-151975476D01*
X-11789523Y-152023095D01*
X-22272857Y-138192142D02*
X-22320476Y-138239761D01*
X-22463333Y-138287380D01*
X-22558571Y-138287380D01*
X-22701428Y-138239761D01*
X-22796666Y-138144523D01*
X-22844285Y-138049285D01*
X-22891904Y-137858809D01*
X-22891904Y-137715952D01*
X-22844285Y-137525476D01*
X-22796666Y-137430238D01*
X-22701428Y-137335000D01*
X-22558571Y-137287380D01*
X-22463333Y-137287380D01*
X-22320476Y-137335000D01*
X-22272857Y-137382619D01*
X-21415714Y-137620714D02*
X-21415714Y-138287380D01*
X-21653809Y-137239761D02*
X-21891904Y-137954047D01*
X-21272857Y-137954047D01*
X-20463333Y-137620714D02*
X-20463333Y-138287380D01*
X-20701428Y-137239761D02*
X-20939523Y-137954047D01*
X-20320476Y-137954047D01*
X-13382857Y-128667142D02*
X-13430476Y-128714761D01*
X-13573333Y-128762380D01*
X-13668571Y-128762380D01*
X-13811428Y-128714761D01*
X-13906666Y-128619523D01*
X-13954285Y-128524285D01*
X-14001904Y-128333809D01*
X-14001904Y-128190952D01*
X-13954285Y-128000476D01*
X-13906666Y-127905238D01*
X-13811428Y-127810000D01*
X-13668571Y-127762380D01*
X-13573333Y-127762380D01*
X-13430476Y-127810000D01*
X-13382857Y-127857619D01*
X-12525714Y-128095714D02*
X-12525714Y-128762380D01*
X-12763809Y-127714761D02*
X-13001904Y-128429047D01*
X-12382857Y-128429047D01*
X-11525714Y-127762380D02*
X-12001904Y-127762380D01*
X-12049523Y-128238571D01*
X-12001904Y-128190952D01*
X-11906666Y-128143333D01*
X-11668571Y-128143333D01*
X-11573333Y-128190952D01*
X-11525714Y-128238571D01*
X-11478095Y-128333809D01*
X-11478095Y-128571904D01*
X-11525714Y-128667142D01*
X-11573333Y-128714761D01*
X-11668571Y-128762380D01*
X-11906666Y-128762380D01*
X-12001904Y-128714761D01*
X-12049523Y-128667142D01*
X-22272857Y-133112142D02*
X-22320476Y-133159761D01*
X-22463333Y-133207380D01*
X-22558571Y-133207380D01*
X-22701428Y-133159761D01*
X-22796666Y-133064523D01*
X-22844285Y-132969285D01*
X-22891904Y-132778809D01*
X-22891904Y-132635952D01*
X-22844285Y-132445476D01*
X-22796666Y-132350238D01*
X-22701428Y-132255000D01*
X-22558571Y-132207380D01*
X-22463333Y-132207380D01*
X-22320476Y-132255000D01*
X-22272857Y-132302619D01*
X-21415714Y-132540714D02*
X-21415714Y-133207380D01*
X-21653809Y-132159761D02*
X-21891904Y-132874047D01*
X-21272857Y-132874047D01*
X-20463333Y-132207380D02*
X-20653809Y-132207380D01*
X-20749047Y-132255000D01*
X-20796666Y-132302619D01*
X-20891904Y-132445476D01*
X-20939523Y-132635952D01*
X-20939523Y-133016904D01*
X-20891904Y-133112142D01*
X-20844285Y-133159761D01*
X-20749047Y-133207380D01*
X-20558571Y-133207380D01*
X-20463333Y-133159761D01*
X-20415714Y-133112142D01*
X-20368095Y-133016904D01*
X-20368095Y-132778809D01*
X-20415714Y-132683571D01*
X-20463333Y-132635952D01*
X-20558571Y-132588333D01*
X-20749047Y-132588333D01*
X-20844285Y-132635952D01*
X-20891904Y-132683571D01*
X-20939523Y-132778809D01*
X-22542857Y-152642142D02*
X-22590476Y-152689761D01*
X-22733333Y-152737380D01*
X-22828571Y-152737380D01*
X-22971428Y-152689761D01*
X-23066666Y-152594523D01*
X-23114285Y-152499285D01*
X-23161904Y-152308809D01*
X-23161904Y-152165952D01*
X-23114285Y-151975476D01*
X-23066666Y-151880238D01*
X-22971428Y-151785000D01*
X-22828571Y-151737380D01*
X-22733333Y-151737380D01*
X-22590476Y-151785000D01*
X-22542857Y-151832619D01*
X-21685714Y-152070714D02*
X-21685714Y-152737380D01*
X-21923809Y-151689761D02*
X-22161904Y-152404047D01*
X-21542857Y-152404047D01*
X-21019047Y-152165952D02*
X-21114285Y-152118333D01*
X-21161904Y-152070714D01*
X-21209523Y-151975476D01*
X-21209523Y-151927857D01*
X-21161904Y-151832619D01*
X-21114285Y-151785000D01*
X-21019047Y-151737380D01*
X-20828571Y-151737380D01*
X-20733333Y-151785000D01*
X-20685714Y-151832619D01*
X-20638095Y-151927857D01*
X-20638095Y-151975476D01*
X-20685714Y-152070714D01*
X-20733333Y-152118333D01*
X-20828571Y-152165952D01*
X-21019047Y-152165952D01*
X-21114285Y-152213571D01*
X-21161904Y-152261190D01*
X-21209523Y-152356428D01*
X-21209523Y-152546904D01*
X-21161904Y-152642142D01*
X-21114285Y-152689761D01*
X-21019047Y-152737380D01*
X-20828571Y-152737380D01*
X-20733333Y-152689761D01*
X-20685714Y-152642142D01*
X-20638095Y-152546904D01*
X-20638095Y-152356428D01*
X-20685714Y-152261190D01*
X-20733333Y-152213571D01*
X-20828571Y-152165952D01*
X-13382857Y-133112142D02*
X-13430476Y-133159761D01*
X-13573333Y-133207380D01*
X-13668571Y-133207380D01*
X-13811428Y-133159761D01*
X-13906666Y-133064523D01*
X-13954285Y-132969285D01*
X-14001904Y-132778809D01*
X-14001904Y-132635952D01*
X-13954285Y-132445476D01*
X-13906666Y-132350238D01*
X-13811428Y-132255000D01*
X-13668571Y-132207380D01*
X-13573333Y-132207380D01*
X-13430476Y-132255000D01*
X-13382857Y-132302619D01*
X-12478095Y-132207380D02*
X-12954285Y-132207380D01*
X-13001904Y-132683571D01*
X-12954285Y-132635952D01*
X-12859047Y-132588333D01*
X-12620952Y-132588333D01*
X-12525714Y-132635952D01*
X-12478095Y-132683571D01*
X-12430476Y-132778809D01*
X-12430476Y-133016904D01*
X-12478095Y-133112142D01*
X-12525714Y-133159761D01*
X-12620952Y-133207380D01*
X-12859047Y-133207380D01*
X-12954285Y-133159761D01*
X-13001904Y-133112142D01*
X-12049523Y-132302619D02*
X-12001904Y-132255000D01*
X-11906666Y-132207380D01*
X-11668571Y-132207380D01*
X-11573333Y-132255000D01*
X-11525714Y-132302619D01*
X-11478095Y-132397857D01*
X-11478095Y-132493095D01*
X-11525714Y-132635952D01*
X-12097142Y-133207380D01*
X-11478095Y-133207380D01*
X-22542857Y-148592142D02*
X-22590476Y-148639761D01*
X-22733333Y-148687380D01*
X-22828571Y-148687380D01*
X-22971428Y-148639761D01*
X-23066666Y-148544523D01*
X-23114285Y-148449285D01*
X-23161904Y-148258809D01*
X-23161904Y-148115952D01*
X-23114285Y-147925476D01*
X-23066666Y-147830238D01*
X-22971428Y-147735000D01*
X-22828571Y-147687380D01*
X-22733333Y-147687380D01*
X-22590476Y-147735000D01*
X-22542857Y-147782619D01*
X-21638095Y-147687380D02*
X-22114285Y-147687380D01*
X-22161904Y-148163571D01*
X-22114285Y-148115952D01*
X-22019047Y-148068333D01*
X-21780952Y-148068333D01*
X-21685714Y-148115952D01*
X-21638095Y-148163571D01*
X-21590476Y-148258809D01*
X-21590476Y-148496904D01*
X-21638095Y-148592142D01*
X-21685714Y-148639761D01*
X-21780952Y-148687380D01*
X-22019047Y-148687380D01*
X-22114285Y-148639761D01*
X-22161904Y-148592142D01*
X-21114285Y-148687380D02*
X-20923809Y-148687380D01*
X-20828571Y-148639761D01*
X-20780952Y-148592142D01*
X-20685714Y-148449285D01*
X-20638095Y-148258809D01*
X-20638095Y-147877857D01*
X-20685714Y-147782619D01*
X-20733333Y-147735000D01*
X-20828571Y-147687380D01*
X-21019047Y-147687380D01*
X-21114285Y-147735000D01*
X-21161904Y-147782619D01*
X-21209523Y-147877857D01*
X-21209523Y-148115952D01*
X-21161904Y-148211190D01*
X-21114285Y-148258809D01*
X-21019047Y-148306428D01*
X-20828571Y-148306428D01*
X-20733333Y-148258809D01*
X-20685714Y-148211190D01*
X-20638095Y-148115952D01*
X-47569285Y-157717380D02*
X-47569285Y-156717380D01*
X-47331190Y-156717380D01*
X-47188333Y-156765000D01*
X-47093095Y-156860238D01*
X-47045476Y-156955476D01*
X-46997857Y-157145952D01*
X-46997857Y-157288809D01*
X-47045476Y-157479285D01*
X-47093095Y-157574523D01*
X-47188333Y-157669761D01*
X-47331190Y-157717380D01*
X-47569285Y-157717380D01*
X-46045476Y-157717380D02*
X-46616904Y-157717380D01*
X-46331190Y-157717380D02*
X-46331190Y-156717380D01*
X-46426428Y-156860238D01*
X-46521666Y-156955476D01*
X-46616904Y-157003095D01*
X-45712142Y-156717380D02*
X-45093095Y-156717380D01*
X-45426428Y-157098333D01*
X-45283571Y-157098333D01*
X-45188333Y-157145952D01*
X-45140714Y-157193571D01*
X-45093095Y-157288809D01*
X-45093095Y-157526904D01*
X-45140714Y-157622142D01*
X-45188333Y-157669761D01*
X-45283571Y-157717380D01*
X-45569285Y-157717380D01*
X-45664523Y-157669761D01*
X-45712142Y-157622142D01*
X-50426904Y-158037380D02*
X-50426904Y-157037380D01*
X-49855476Y-158037380D02*
X-50284047Y-157465952D01*
X-49855476Y-157037380D02*
X-50426904Y-157608809D01*
X-35504285Y-157717380D02*
X-35504285Y-156717380D01*
X-35266190Y-156717380D01*
X-35123333Y-156765000D01*
X-35028095Y-156860238D01*
X-34980476Y-156955476D01*
X-34932857Y-157145952D01*
X-34932857Y-157288809D01*
X-34980476Y-157479285D01*
X-35028095Y-157574523D01*
X-35123333Y-157669761D01*
X-35266190Y-157717380D01*
X-35504285Y-157717380D01*
X-33980476Y-157717380D02*
X-34551904Y-157717380D01*
X-34266190Y-157717380D02*
X-34266190Y-156717380D01*
X-34361428Y-156860238D01*
X-34456666Y-156955476D01*
X-34551904Y-157003095D01*
X-33123333Y-157050714D02*
X-33123333Y-157717380D01*
X-33361428Y-156669761D02*
X-33599523Y-157384047D01*
X-32980476Y-157384047D01*
X-38361904Y-158037380D02*
X-38361904Y-157037380D01*
X-37790476Y-158037380D02*
X-38219047Y-157465952D01*
X-37790476Y-157037380D02*
X-38361904Y-157608809D01*
X-81613333Y-126662380D02*
X-81613333Y-127376666D01*
X-81660952Y-127519523D01*
X-81756190Y-127614761D01*
X-81899047Y-127662380D01*
X-81994285Y-127662380D01*
X-80613333Y-127662380D02*
X-81184761Y-127662380D01*
X-80899047Y-127662380D02*
X-80899047Y-126662380D01*
X-80994285Y-126805238D01*
X-81089523Y-126900476D01*
X-81184761Y-126948095D01*
X-81613333Y-149522380D02*
X-81613333Y-150236666D01*
X-81660952Y-150379523D01*
X-81756190Y-150474761D01*
X-81899047Y-150522380D01*
X-81994285Y-150522380D01*
X-81184761Y-149617619D02*
X-81137142Y-149570000D01*
X-81041904Y-149522380D01*
X-80803809Y-149522380D01*
X-80708571Y-149570000D01*
X-80660952Y-149617619D01*
X-80613333Y-149712857D01*
X-80613333Y-149808095D01*
X-80660952Y-149950952D01*
X-81232380Y-150522380D01*
X-80613333Y-150522380D01*
X6016666Y-142537380D02*
X6016666Y-143251666D01*
X5969047Y-143394523D01*
X5873809Y-143489761D01*
X5730952Y-143537380D01*
X5635714Y-143537380D01*
X6397619Y-142537380D02*
X7016666Y-142537380D01*
X6683333Y-142918333D01*
X6826190Y-142918333D01*
X6921428Y-142965952D01*
X6969047Y-143013571D01*
X7016666Y-143108809D01*
X7016666Y-143346904D01*
X6969047Y-143442142D01*
X6921428Y-143489761D01*
X6826190Y-143537380D01*
X6540476Y-143537380D01*
X6445238Y-143489761D01*
X6397619Y-143442142D01*
X6016666Y-127932380D02*
X6016666Y-128646666D01*
X5969047Y-128789523D01*
X5873809Y-128884761D01*
X5730952Y-128932380D01*
X5635714Y-128932380D01*
X6921428Y-128265714D02*
X6921428Y-128932380D01*
X6683333Y-127884761D02*
X6445238Y-128599047D01*
X7064285Y-128599047D01*
X-46251666Y-137302380D02*
X-46727857Y-137302380D01*
X-46727857Y-136302380D01*
X-45394523Y-137302380D02*
X-45965952Y-137302380D01*
X-45680238Y-137302380D02*
X-45680238Y-136302380D01*
X-45775476Y-136445238D01*
X-45870714Y-136540476D01*
X-45965952Y-136588095D01*
X-3111428Y-136262619D02*
X-3206666Y-136215000D01*
X-3301904Y-136119761D01*
X-3444761Y-135976904D01*
X-3539999Y-135929285D01*
X-3635238Y-135929285D01*
X-3587619Y-136167380D02*
X-3682857Y-136119761D01*
X-3778095Y-136024523D01*
X-3825714Y-135834047D01*
X-3825714Y-135500714D01*
X-3778095Y-135310238D01*
X-3682857Y-135215000D01*
X-3587619Y-135167380D01*
X-3397142Y-135167380D01*
X-3301904Y-135215000D01*
X-3206666Y-135310238D01*
X-3159047Y-135500714D01*
X-3159047Y-135834047D01*
X-3206666Y-136024523D01*
X-3301904Y-136119761D01*
X-3397142Y-136167380D01*
X-3587619Y-136167380D01*
X-2206666Y-136167380D02*
X-2778095Y-136167380D01*
X-2492380Y-136167380D02*
X-2492380Y-135167380D01*
X-2587619Y-135310238D01*
X-2682857Y-135405476D01*
X-2778095Y-135453095D01*
X-1825714Y-135262619D02*
X-1778095Y-135215000D01*
X-1682857Y-135167380D01*
X-1444761Y-135167380D01*
X-1349523Y-135215000D01*
X-1301904Y-135262619D01*
X-1254285Y-135357857D01*
X-1254285Y-135453095D01*
X-1301904Y-135595952D01*
X-1873333Y-136167380D01*
X-1254285Y-136167380D01*
X-3111428Y-121657619D02*
X-3206666Y-121610000D01*
X-3301904Y-121514761D01*
X-3444761Y-121371904D01*
X-3539999Y-121324285D01*
X-3635238Y-121324285D01*
X-3587619Y-121562380D02*
X-3682857Y-121514761D01*
X-3778095Y-121419523D01*
X-3825714Y-121229047D01*
X-3825714Y-120895714D01*
X-3778095Y-120705238D01*
X-3682857Y-120610000D01*
X-3587619Y-120562380D01*
X-3397142Y-120562380D01*
X-3301904Y-120610000D01*
X-3206666Y-120705238D01*
X-3159047Y-120895714D01*
X-3159047Y-121229047D01*
X-3206666Y-121419523D01*
X-3301904Y-121514761D01*
X-3397142Y-121562380D01*
X-3587619Y-121562380D01*
X-2778095Y-120657619D02*
X-2730476Y-120610000D01*
X-2635238Y-120562380D01*
X-2397142Y-120562380D01*
X-2301904Y-120610000D01*
X-2254285Y-120657619D01*
X-2206666Y-120752857D01*
X-2206666Y-120848095D01*
X-2254285Y-120990952D01*
X-2825714Y-121562380D01*
X-2206666Y-121562380D01*
X-1254285Y-121562380D02*
X-1825714Y-121562380D01*
X-1540000Y-121562380D02*
X-1540000Y-120562380D01*
X-1635238Y-120705238D01*
X-1730476Y-120800476D01*
X-1825714Y-120848095D01*
X-3111428Y-148962619D02*
X-3206666Y-148915000D01*
X-3301904Y-148819761D01*
X-3444761Y-148676904D01*
X-3539999Y-148629285D01*
X-3635238Y-148629285D01*
X-3587619Y-148867380D02*
X-3682857Y-148819761D01*
X-3778095Y-148724523D01*
X-3825714Y-148534047D01*
X-3825714Y-148200714D01*
X-3778095Y-148010238D01*
X-3682857Y-147915000D01*
X-3587619Y-147867380D01*
X-3397142Y-147867380D01*
X-3301904Y-147915000D01*
X-3206666Y-148010238D01*
X-3159047Y-148200714D01*
X-3159047Y-148534047D01*
X-3206666Y-148724523D01*
X-3301904Y-148819761D01*
X-3397142Y-148867380D01*
X-3587619Y-148867380D01*
X-2778095Y-147962619D02*
X-2730476Y-147915000D01*
X-2635238Y-147867380D01*
X-2397142Y-147867380D01*
X-2301904Y-147915000D01*
X-2254285Y-147962619D01*
X-2206666Y-148057857D01*
X-2206666Y-148153095D01*
X-2254285Y-148295952D01*
X-2825714Y-148867380D01*
X-2206666Y-148867380D01*
X-1825714Y-147962619D02*
X-1778095Y-147915000D01*
X-1682857Y-147867380D01*
X-1444761Y-147867380D01*
X-1349523Y-147915000D01*
X-1301904Y-147962619D01*
X-1254285Y-148057857D01*
X-1254285Y-148153095D01*
X-1301904Y-148295952D01*
X-1873333Y-148867380D01*
X-1254285Y-148867380D01*
X-3111428Y-142612619D02*
X-3206666Y-142565000D01*
X-3301904Y-142469761D01*
X-3444761Y-142326904D01*
X-3539999Y-142279285D01*
X-3635238Y-142279285D01*
X-3587619Y-142517380D02*
X-3682857Y-142469761D01*
X-3778095Y-142374523D01*
X-3825714Y-142184047D01*
X-3825714Y-141850714D01*
X-3778095Y-141660238D01*
X-3682857Y-141565000D01*
X-3587619Y-141517380D01*
X-3397142Y-141517380D01*
X-3301904Y-141565000D01*
X-3206666Y-141660238D01*
X-3159047Y-141850714D01*
X-3159047Y-142184047D01*
X-3206666Y-142374523D01*
X-3301904Y-142469761D01*
X-3397142Y-142517380D01*
X-3587619Y-142517380D01*
X-2778095Y-141612619D02*
X-2730476Y-141565000D01*
X-2635238Y-141517380D01*
X-2397142Y-141517380D01*
X-2301904Y-141565000D01*
X-2254285Y-141612619D01*
X-2206666Y-141707857D01*
X-2206666Y-141803095D01*
X-2254285Y-141945952D01*
X-2825714Y-142517380D01*
X-2206666Y-142517380D01*
X-1873333Y-141517380D02*
X-1254285Y-141517380D01*
X-1587619Y-141898333D01*
X-1444761Y-141898333D01*
X-1349523Y-141945952D01*
X-1301904Y-141993571D01*
X-1254285Y-142088809D01*
X-1254285Y-142326904D01*
X-1301904Y-142422142D01*
X-1349523Y-142469761D01*
X-1444761Y-142517380D01*
X-1730476Y-142517380D01*
X-1825714Y-142469761D01*
X-1873333Y-142422142D01*
X-3111428Y-129277619D02*
X-3206666Y-129230000D01*
X-3301904Y-129134761D01*
X-3444761Y-128991904D01*
X-3539999Y-128944285D01*
X-3635238Y-128944285D01*
X-3587619Y-129182380D02*
X-3682857Y-129134761D01*
X-3778095Y-129039523D01*
X-3825714Y-128849047D01*
X-3825714Y-128515714D01*
X-3778095Y-128325238D01*
X-3682857Y-128230000D01*
X-3587619Y-128182380D01*
X-3397142Y-128182380D01*
X-3301904Y-128230000D01*
X-3206666Y-128325238D01*
X-3159047Y-128515714D01*
X-3159047Y-128849047D01*
X-3206666Y-129039523D01*
X-3301904Y-129134761D01*
X-3397142Y-129182380D01*
X-3587619Y-129182380D01*
X-2778095Y-128277619D02*
X-2730476Y-128230000D01*
X-2635238Y-128182380D01*
X-2397142Y-128182380D01*
X-2301904Y-128230000D01*
X-2254285Y-128277619D01*
X-2206666Y-128372857D01*
X-2206666Y-128468095D01*
X-2254285Y-128610952D01*
X-2825714Y-129182380D01*
X-2206666Y-129182380D01*
X-1301904Y-128182380D02*
X-1778095Y-128182380D01*
X-1825714Y-128658571D01*
X-1778095Y-128610952D01*
X-1682857Y-128563333D01*
X-1444761Y-128563333D01*
X-1349523Y-128610952D01*
X-1301904Y-128658571D01*
X-1254285Y-128753809D01*
X-1254285Y-128991904D01*
X-1301904Y-129087142D01*
X-1349523Y-129134761D01*
X-1444761Y-129182380D01*
X-1682857Y-129182380D01*
X-1778095Y-129134761D01*
X-1825714Y-129087142D01*
X-3111428Y-155312619D02*
X-3206666Y-155265000D01*
X-3301904Y-155169761D01*
X-3444761Y-155026904D01*
X-3539999Y-154979285D01*
X-3635238Y-154979285D01*
X-3587619Y-155217380D02*
X-3682857Y-155169761D01*
X-3778095Y-155074523D01*
X-3825714Y-154884047D01*
X-3825714Y-154550714D01*
X-3778095Y-154360238D01*
X-3682857Y-154265000D01*
X-3587619Y-154217380D01*
X-3397142Y-154217380D01*
X-3301904Y-154265000D01*
X-3206666Y-154360238D01*
X-3159047Y-154550714D01*
X-3159047Y-154884047D01*
X-3206666Y-155074523D01*
X-3301904Y-155169761D01*
X-3397142Y-155217380D01*
X-3587619Y-155217380D01*
X-2778095Y-154312619D02*
X-2730476Y-154265000D01*
X-2635238Y-154217380D01*
X-2397142Y-154217380D01*
X-2301904Y-154265000D01*
X-2254285Y-154312619D01*
X-2206666Y-154407857D01*
X-2206666Y-154503095D01*
X-2254285Y-154645952D01*
X-2825714Y-155217380D01*
X-2206666Y-155217380D01*
X-1635238Y-154645952D02*
X-1730476Y-154598333D01*
X-1778095Y-154550714D01*
X-1825714Y-154455476D01*
X-1825714Y-154407857D01*
X-1778095Y-154312619D01*
X-1730476Y-154265000D01*
X-1635238Y-154217380D01*
X-1444761Y-154217380D01*
X-1349523Y-154265000D01*
X-1301904Y-154312619D01*
X-1254285Y-154407857D01*
X-1254285Y-154455476D01*
X-1301904Y-154550714D01*
X-1349523Y-154598333D01*
X-1444761Y-154645952D01*
X-1635238Y-154645952D01*
X-1730476Y-154693571D01*
X-1778095Y-154741190D01*
X-1825714Y-154836428D01*
X-1825714Y-155026904D01*
X-1778095Y-155122142D01*
X-1730476Y-155169761D01*
X-1635238Y-155217380D01*
X-1444761Y-155217380D01*
X-1349523Y-155169761D01*
X-1301904Y-155122142D01*
X-1254285Y-155026904D01*
X-1254285Y-154836428D01*
X-1301904Y-154741190D01*
X-1349523Y-154693571D01*
X-1444761Y-154645952D01*
X-34997857Y-142622380D02*
X-35331190Y-142146190D01*
X-35569285Y-142622380D02*
X-35569285Y-141622380D01*
X-35188333Y-141622380D01*
X-35093095Y-141670000D01*
X-35045476Y-141717619D01*
X-34997857Y-141812857D01*
X-34997857Y-141955714D01*
X-35045476Y-142050952D01*
X-35093095Y-142098571D01*
X-35188333Y-142146190D01*
X-35569285Y-142146190D01*
X-34140714Y-141955714D02*
X-34140714Y-142622380D01*
X-34378809Y-141574761D02*
X-34616904Y-142289047D01*
X-33997857Y-142289047D01*
X-33188333Y-141622380D02*
X-33378809Y-141622380D01*
X-33474047Y-141670000D01*
X-33521666Y-141717619D01*
X-33616904Y-141860476D01*
X-33664523Y-142050952D01*
X-33664523Y-142431904D01*
X-33616904Y-142527142D01*
X-33569285Y-142574761D01*
X-33474047Y-142622380D01*
X-33283571Y-142622380D01*
X-33188333Y-142574761D01*
X-33140714Y-142527142D01*
X-33093095Y-142431904D01*
X-33093095Y-142193809D01*
X-33140714Y-142098571D01*
X-33188333Y-142050952D01*
X-33283571Y-142003333D01*
X-33474047Y-142003333D01*
X-33569285Y-142050952D01*
X-33616904Y-142098571D01*
X-33664523Y-142193809D01*
X-71322857Y-147307380D02*
X-71656190Y-146831190D01*
X-71894285Y-147307380D02*
X-71894285Y-146307380D01*
X-71513333Y-146307380D01*
X-71418095Y-146355000D01*
X-71370476Y-146402619D01*
X-71322857Y-146497857D01*
X-71322857Y-146640714D01*
X-71370476Y-146735952D01*
X-71418095Y-146783571D01*
X-71513333Y-146831190D01*
X-71894285Y-146831190D01*
X-70465714Y-146640714D02*
X-70465714Y-147307380D01*
X-70703809Y-146259761D02*
X-70941904Y-146974047D01*
X-70322857Y-146974047D01*
X-69894285Y-147307380D02*
X-69703809Y-147307380D01*
X-69608571Y-147259761D01*
X-69560952Y-147212142D01*
X-69465714Y-147069285D01*
X-69418095Y-146878809D01*
X-69418095Y-146497857D01*
X-69465714Y-146402619D01*
X-69513333Y-146355000D01*
X-69608571Y-146307380D01*
X-69799047Y-146307380D01*
X-69894285Y-146355000D01*
X-69941904Y-146402619D01*
X-69989523Y-146497857D01*
X-69989523Y-146735952D01*
X-69941904Y-146831190D01*
X-69894285Y-146878809D01*
X-69799047Y-146926428D01*
X-69608571Y-146926428D01*
X-69513333Y-146878809D01*
X-69465714Y-146831190D01*
X-69418095Y-146735952D01*
X-71127857Y-157467380D02*
X-71461190Y-156991190D01*
X-71699285Y-157467380D02*
X-71699285Y-156467380D01*
X-71318333Y-156467380D01*
X-71223095Y-156515000D01*
X-71175476Y-156562619D01*
X-71127857Y-156657857D01*
X-71127857Y-156800714D01*
X-71175476Y-156895952D01*
X-71223095Y-156943571D01*
X-71318333Y-156991190D01*
X-71699285Y-156991190D01*
X-70270714Y-156467380D02*
X-70461190Y-156467380D01*
X-70556428Y-156515000D01*
X-70604047Y-156562619D01*
X-70699285Y-156705476D01*
X-70746904Y-156895952D01*
X-70746904Y-157276904D01*
X-70699285Y-157372142D01*
X-70651666Y-157419761D01*
X-70556428Y-157467380D01*
X-70365952Y-157467380D01*
X-70270714Y-157419761D01*
X-70223095Y-157372142D01*
X-70175476Y-157276904D01*
X-70175476Y-157038809D01*
X-70223095Y-156943571D01*
X-70270714Y-156895952D01*
X-70365952Y-156848333D01*
X-70556428Y-156848333D01*
X-70651666Y-156895952D01*
X-70699285Y-156943571D01*
X-70746904Y-157038809D01*
X-69318333Y-156800714D02*
X-69318333Y-157467380D01*
X-69556428Y-156419761D02*
X-69794523Y-157134047D01*
X-69175476Y-157134047D01*
X-71127857Y-152387380D02*
X-71461190Y-151911190D01*
X-71699285Y-152387380D02*
X-71699285Y-151387380D01*
X-71318333Y-151387380D01*
X-71223095Y-151435000D01*
X-71175476Y-151482619D01*
X-71127857Y-151577857D01*
X-71127857Y-151720714D01*
X-71175476Y-151815952D01*
X-71223095Y-151863571D01*
X-71318333Y-151911190D01*
X-71699285Y-151911190D01*
X-70270714Y-151387380D02*
X-70461190Y-151387380D01*
X-70556428Y-151435000D01*
X-70604047Y-151482619D01*
X-70699285Y-151625476D01*
X-70746904Y-151815952D01*
X-70746904Y-152196904D01*
X-70699285Y-152292142D01*
X-70651666Y-152339761D01*
X-70556428Y-152387380D01*
X-70365952Y-152387380D01*
X-70270714Y-152339761D01*
X-70223095Y-152292142D01*
X-70175476Y-152196904D01*
X-70175476Y-151958809D01*
X-70223095Y-151863571D01*
X-70270714Y-151815952D01*
X-70365952Y-151768333D01*
X-70556428Y-151768333D01*
X-70651666Y-151815952D01*
X-70699285Y-151863571D01*
X-70746904Y-151958809D01*
X-69270714Y-151387380D02*
X-69746904Y-151387380D01*
X-69794523Y-151863571D01*
X-69746904Y-151815952D01*
X-69651666Y-151768333D01*
X-69413571Y-151768333D01*
X-69318333Y-151815952D01*
X-69270714Y-151863571D01*
X-69223095Y-151958809D01*
X-69223095Y-152196904D01*
X-69270714Y-152292142D01*
X-69318333Y-152339761D01*
X-69413571Y-152387380D01*
X-69651666Y-152387380D01*
X-69746904Y-152339761D01*
X-69794523Y-152292142D01*
X-47037857Y-142622380D02*
X-47371190Y-142146190D01*
X-47609285Y-142622380D02*
X-47609285Y-141622380D01*
X-47228333Y-141622380D01*
X-47133095Y-141670000D01*
X-47085476Y-141717619D01*
X-47037857Y-141812857D01*
X-47037857Y-141955714D01*
X-47085476Y-142050952D01*
X-47133095Y-142098571D01*
X-47228333Y-142146190D01*
X-47609285Y-142146190D01*
X-46704523Y-141622380D02*
X-46037857Y-141622380D01*
X-46466428Y-142622380D01*
X-45228333Y-141622380D02*
X-45418809Y-141622380D01*
X-45514047Y-141670000D01*
X-45561666Y-141717619D01*
X-45656904Y-141860476D01*
X-45704523Y-142050952D01*
X-45704523Y-142431904D01*
X-45656904Y-142527142D01*
X-45609285Y-142574761D01*
X-45514047Y-142622380D01*
X-45323571Y-142622380D01*
X-45228333Y-142574761D01*
X-45180714Y-142527142D01*
X-45133095Y-142431904D01*
X-45133095Y-142193809D01*
X-45180714Y-142098571D01*
X-45228333Y-142050952D01*
X-45323571Y-142003333D01*
X-45514047Y-142003333D01*
X-45609285Y-142050952D01*
X-45656904Y-142098571D01*
X-45704523Y-142193809D01*
X-59077857Y-147307380D02*
X-59411190Y-146831190D01*
X-59649285Y-147307380D02*
X-59649285Y-146307380D01*
X-59268333Y-146307380D01*
X-59173095Y-146355000D01*
X-59125476Y-146402619D01*
X-59077857Y-146497857D01*
X-59077857Y-146640714D01*
X-59125476Y-146735952D01*
X-59173095Y-146783571D01*
X-59268333Y-146831190D01*
X-59649285Y-146831190D01*
X-58744523Y-146307380D02*
X-58077857Y-146307380D01*
X-58506428Y-147307380D01*
X-57792142Y-146307380D02*
X-57125476Y-146307380D01*
X-57554047Y-147307380D01*
X-42107857Y-119497380D02*
X-42441190Y-119021190D01*
X-42679285Y-119497380D02*
X-42679285Y-118497380D01*
X-42298333Y-118497380D01*
X-42203095Y-118545000D01*
X-42155476Y-118592619D01*
X-42107857Y-118687857D01*
X-42107857Y-118830714D01*
X-42155476Y-118925952D01*
X-42203095Y-118973571D01*
X-42298333Y-119021190D01*
X-42679285Y-119021190D01*
X-41774523Y-118497380D02*
X-41107857Y-118497380D01*
X-41536428Y-119497380D01*
X-40679285Y-119497380D02*
X-40488809Y-119497380D01*
X-40393571Y-119449761D01*
X-40345952Y-119402142D01*
X-40250714Y-119259285D01*
X-40203095Y-119068809D01*
X-40203095Y-118687857D01*
X-40250714Y-118592619D01*
X-40298333Y-118545000D01*
X-40393571Y-118497380D01*
X-40584047Y-118497380D01*
X-40679285Y-118545000D01*
X-40726904Y-118592619D01*
X-40774523Y-118687857D01*
X-40774523Y-118925952D01*
X-40726904Y-119021190D01*
X-40679285Y-119068809D01*
X-40584047Y-119116428D01*
X-40393571Y-119116428D01*
X-40298333Y-119068809D01*
X-40250714Y-119021190D01*
X-40203095Y-118925952D01*
X-47037857Y-147307380D02*
X-47371190Y-146831190D01*
X-47609285Y-147307380D02*
X-47609285Y-146307380D01*
X-47228333Y-146307380D01*
X-47133095Y-146355000D01*
X-47085476Y-146402619D01*
X-47037857Y-146497857D01*
X-47037857Y-146640714D01*
X-47085476Y-146735952D01*
X-47133095Y-146783571D01*
X-47228333Y-146831190D01*
X-47609285Y-146831190D01*
X-46466428Y-146735952D02*
X-46561666Y-146688333D01*
X-46609285Y-146640714D01*
X-46656904Y-146545476D01*
X-46656904Y-146497857D01*
X-46609285Y-146402619D01*
X-46561666Y-146355000D01*
X-46466428Y-146307380D01*
X-46275952Y-146307380D01*
X-46180714Y-146355000D01*
X-46133095Y-146402619D01*
X-46085476Y-146497857D01*
X-46085476Y-146545476D01*
X-46133095Y-146640714D01*
X-46180714Y-146688333D01*
X-46275952Y-146735952D01*
X-46466428Y-146735952D01*
X-46561666Y-146783571D01*
X-46609285Y-146831190D01*
X-46656904Y-146926428D01*
X-46656904Y-147116904D01*
X-46609285Y-147212142D01*
X-46561666Y-147259761D01*
X-46466428Y-147307380D01*
X-46275952Y-147307380D01*
X-46180714Y-147259761D01*
X-46133095Y-147212142D01*
X-46085476Y-147116904D01*
X-46085476Y-146926428D01*
X-46133095Y-146831190D01*
X-46180714Y-146783571D01*
X-46275952Y-146735952D01*
X-45466428Y-146307380D02*
X-45371190Y-146307380D01*
X-45275952Y-146355000D01*
X-45228333Y-146402619D01*
X-45180714Y-146497857D01*
X-45133095Y-146688333D01*
X-45133095Y-146926428D01*
X-45180714Y-147116904D01*
X-45228333Y-147212142D01*
X-45275952Y-147259761D01*
X-45371190Y-147307380D01*
X-45466428Y-147307380D01*
X-45561666Y-147259761D01*
X-45609285Y-147212142D01*
X-45656904Y-147116904D01*
X-45704523Y-146926428D01*
X-45704523Y-146688333D01*
X-45656904Y-146497857D01*
X-45609285Y-146402619D01*
X-45561666Y-146355000D01*
X-45466428Y-146307380D01*
X-59307857Y-152442380D02*
X-59641190Y-151966190D01*
X-59879285Y-152442380D02*
X-59879285Y-151442380D01*
X-59498333Y-151442380D01*
X-59403095Y-151490000D01*
X-59355476Y-151537619D01*
X-59307857Y-151632857D01*
X-59307857Y-151775714D01*
X-59355476Y-151870952D01*
X-59403095Y-151918571D01*
X-59498333Y-151966190D01*
X-59879285Y-151966190D01*
X-58736428Y-151870952D02*
X-58831666Y-151823333D01*
X-58879285Y-151775714D01*
X-58926904Y-151680476D01*
X-58926904Y-151632857D01*
X-58879285Y-151537619D01*
X-58831666Y-151490000D01*
X-58736428Y-151442380D01*
X-58545952Y-151442380D01*
X-58450714Y-151490000D01*
X-58403095Y-151537619D01*
X-58355476Y-151632857D01*
X-58355476Y-151680476D01*
X-58403095Y-151775714D01*
X-58450714Y-151823333D01*
X-58545952Y-151870952D01*
X-58736428Y-151870952D01*
X-58831666Y-151918571D01*
X-58879285Y-151966190D01*
X-58926904Y-152061428D01*
X-58926904Y-152251904D01*
X-58879285Y-152347142D01*
X-58831666Y-152394761D01*
X-58736428Y-152442380D01*
X-58545952Y-152442380D01*
X-58450714Y-152394761D01*
X-58403095Y-152347142D01*
X-58355476Y-152251904D01*
X-58355476Y-152061428D01*
X-58403095Y-151966190D01*
X-58450714Y-151918571D01*
X-58545952Y-151870952D01*
X-57403095Y-152442380D02*
X-57974523Y-152442380D01*
X-57688809Y-152442380D02*
X-57688809Y-151442380D01*
X-57784047Y-151585238D01*
X-57879285Y-151680476D01*
X-57974523Y-151728095D01*
X-34687857Y-137302380D02*
X-35021190Y-136826190D01*
X-35259285Y-137302380D02*
X-35259285Y-136302380D01*
X-34878333Y-136302380D01*
X-34783095Y-136350000D01*
X-34735476Y-136397619D01*
X-34687857Y-136492857D01*
X-34687857Y-136635714D01*
X-34735476Y-136730952D01*
X-34783095Y-136778571D01*
X-34878333Y-136826190D01*
X-35259285Y-136826190D01*
X-34116428Y-136730952D02*
X-34211666Y-136683333D01*
X-34259285Y-136635714D01*
X-34306904Y-136540476D01*
X-34306904Y-136492857D01*
X-34259285Y-136397619D01*
X-34211666Y-136350000D01*
X-34116428Y-136302380D01*
X-33925952Y-136302380D01*
X-33830714Y-136350000D01*
X-33783095Y-136397619D01*
X-33735476Y-136492857D01*
X-33735476Y-136540476D01*
X-33783095Y-136635714D01*
X-33830714Y-136683333D01*
X-33925952Y-136730952D01*
X-34116428Y-136730952D01*
X-34211666Y-136778571D01*
X-34259285Y-136826190D01*
X-34306904Y-136921428D01*
X-34306904Y-137111904D01*
X-34259285Y-137207142D01*
X-34211666Y-137254761D01*
X-34116428Y-137302380D01*
X-33925952Y-137302380D01*
X-33830714Y-137254761D01*
X-33783095Y-137207142D01*
X-33735476Y-137111904D01*
X-33735476Y-136921428D01*
X-33783095Y-136826190D01*
X-33830714Y-136778571D01*
X-33925952Y-136730952D01*
X-33354523Y-136397619D02*
X-33306904Y-136350000D01*
X-33211666Y-136302380D01*
X-32973571Y-136302380D01*
X-32878333Y-136350000D01*
X-32830714Y-136397619D01*
X-32783095Y-136492857D01*
X-32783095Y-136588095D01*
X-32830714Y-136730952D01*
X-33402142Y-137302380D01*
X-32783095Y-137302380D01*
X-55137857Y-119532380D02*
X-55471190Y-119056190D01*
X-55709285Y-119532380D02*
X-55709285Y-118532380D01*
X-55328333Y-118532380D01*
X-55233095Y-118580000D01*
X-55185476Y-118627619D01*
X-55137857Y-118722857D01*
X-55137857Y-118865714D01*
X-55185476Y-118960952D01*
X-55233095Y-119008571D01*
X-55328333Y-119056190D01*
X-55709285Y-119056190D01*
X-54566428Y-118960952D02*
X-54661666Y-118913333D01*
X-54709285Y-118865714D01*
X-54756904Y-118770476D01*
X-54756904Y-118722857D01*
X-54709285Y-118627619D01*
X-54661666Y-118580000D01*
X-54566428Y-118532380D01*
X-54375952Y-118532380D01*
X-54280714Y-118580000D01*
X-54233095Y-118627619D01*
X-54185476Y-118722857D01*
X-54185476Y-118770476D01*
X-54233095Y-118865714D01*
X-54280714Y-118913333D01*
X-54375952Y-118960952D01*
X-54566428Y-118960952D01*
X-54661666Y-119008571D01*
X-54709285Y-119056190D01*
X-54756904Y-119151428D01*
X-54756904Y-119341904D01*
X-54709285Y-119437142D01*
X-54661666Y-119484761D01*
X-54566428Y-119532380D01*
X-54375952Y-119532380D01*
X-54280714Y-119484761D01*
X-54233095Y-119437142D01*
X-54185476Y-119341904D01*
X-54185476Y-119151428D01*
X-54233095Y-119056190D01*
X-54280714Y-119008571D01*
X-54375952Y-118960952D01*
X-53852142Y-118532380D02*
X-53233095Y-118532380D01*
X-53566428Y-118913333D01*
X-53423571Y-118913333D01*
X-53328333Y-118960952D01*
X-53280714Y-119008571D01*
X-53233095Y-119103809D01*
X-53233095Y-119341904D01*
X-53280714Y-119437142D01*
X-53328333Y-119484761D01*
X-53423571Y-119532380D01*
X-53709285Y-119532380D01*
X-53804523Y-119484761D01*
X-53852142Y-119437142D01*
X-34932857Y-152387380D02*
X-35266190Y-151911190D01*
X-35504285Y-152387380D02*
X-35504285Y-151387380D01*
X-35123333Y-151387380D01*
X-35028095Y-151435000D01*
X-34980476Y-151482619D01*
X-34932857Y-151577857D01*
X-34932857Y-151720714D01*
X-34980476Y-151815952D01*
X-35028095Y-151863571D01*
X-35123333Y-151911190D01*
X-35504285Y-151911190D01*
X-34361428Y-151815952D02*
X-34456666Y-151768333D01*
X-34504285Y-151720714D01*
X-34551904Y-151625476D01*
X-34551904Y-151577857D01*
X-34504285Y-151482619D01*
X-34456666Y-151435000D01*
X-34361428Y-151387380D01*
X-34170952Y-151387380D01*
X-34075714Y-151435000D01*
X-34028095Y-151482619D01*
X-33980476Y-151577857D01*
X-33980476Y-151625476D01*
X-34028095Y-151720714D01*
X-34075714Y-151768333D01*
X-34170952Y-151815952D01*
X-34361428Y-151815952D01*
X-34456666Y-151863571D01*
X-34504285Y-151911190D01*
X-34551904Y-152006428D01*
X-34551904Y-152196904D01*
X-34504285Y-152292142D01*
X-34456666Y-152339761D01*
X-34361428Y-152387380D01*
X-34170952Y-152387380D01*
X-34075714Y-152339761D01*
X-34028095Y-152292142D01*
X-33980476Y-152196904D01*
X-33980476Y-152006428D01*
X-34028095Y-151911190D01*
X-34075714Y-151863571D01*
X-34170952Y-151815952D01*
X-33409047Y-151815952D02*
X-33504285Y-151768333D01*
X-33551904Y-151720714D01*
X-33599523Y-151625476D01*
X-33599523Y-151577857D01*
X-33551904Y-151482619D01*
X-33504285Y-151435000D01*
X-33409047Y-151387380D01*
X-33218571Y-151387380D01*
X-33123333Y-151435000D01*
X-33075714Y-151482619D01*
X-33028095Y-151577857D01*
X-33028095Y-151625476D01*
X-33075714Y-151720714D01*
X-33123333Y-151768333D01*
X-33218571Y-151815952D01*
X-33409047Y-151815952D01*
X-33504285Y-151863571D01*
X-33551904Y-151911190D01*
X-33599523Y-152006428D01*
X-33599523Y-152196904D01*
X-33551904Y-152292142D01*
X-33504285Y-152339761D01*
X-33409047Y-152387380D01*
X-33218571Y-152387380D01*
X-33123333Y-152339761D01*
X-33075714Y-152292142D01*
X-33028095Y-152196904D01*
X-33028095Y-152006428D01*
X-33075714Y-151911190D01*
X-33123333Y-151863571D01*
X-33218571Y-151815952D01*
X-29102857Y-119497380D02*
X-29436190Y-119021190D01*
X-29674285Y-119497380D02*
X-29674285Y-118497380D01*
X-29293333Y-118497380D01*
X-29198095Y-118545000D01*
X-29150476Y-118592619D01*
X-29102857Y-118687857D01*
X-29102857Y-118830714D01*
X-29150476Y-118925952D01*
X-29198095Y-118973571D01*
X-29293333Y-119021190D01*
X-29674285Y-119021190D01*
X-28531428Y-118925952D02*
X-28626666Y-118878333D01*
X-28674285Y-118830714D01*
X-28721904Y-118735476D01*
X-28721904Y-118687857D01*
X-28674285Y-118592619D01*
X-28626666Y-118545000D01*
X-28531428Y-118497380D01*
X-28340952Y-118497380D01*
X-28245714Y-118545000D01*
X-28198095Y-118592619D01*
X-28150476Y-118687857D01*
X-28150476Y-118735476D01*
X-28198095Y-118830714D01*
X-28245714Y-118878333D01*
X-28340952Y-118925952D01*
X-28531428Y-118925952D01*
X-28626666Y-118973571D01*
X-28674285Y-119021190D01*
X-28721904Y-119116428D01*
X-28721904Y-119306904D01*
X-28674285Y-119402142D01*
X-28626666Y-119449761D01*
X-28531428Y-119497380D01*
X-28340952Y-119497380D01*
X-28245714Y-119449761D01*
X-28198095Y-119402142D01*
X-28150476Y-119306904D01*
X-28150476Y-119116428D01*
X-28198095Y-119021190D01*
X-28245714Y-118973571D01*
X-28340952Y-118925952D01*
X-27674285Y-119497380D02*
X-27483809Y-119497380D01*
X-27388571Y-119449761D01*
X-27340952Y-119402142D01*
X-27245714Y-119259285D01*
X-27198095Y-119068809D01*
X-27198095Y-118687857D01*
X-27245714Y-118592619D01*
X-27293333Y-118545000D01*
X-27388571Y-118497380D01*
X-27579047Y-118497380D01*
X-27674285Y-118545000D01*
X-27721904Y-118592619D01*
X-27769523Y-118687857D01*
X-27769523Y-118925952D01*
X-27721904Y-119021190D01*
X-27674285Y-119068809D01*
X-27579047Y-119116428D01*
X-27388571Y-119116428D01*
X-27293333Y-119068809D01*
X-27245714Y-119021190D01*
X-27198095Y-118925952D01*
X-46997857Y-152387380D02*
X-47331190Y-151911190D01*
X-47569285Y-152387380D02*
X-47569285Y-151387380D01*
X-47188333Y-151387380D01*
X-47093095Y-151435000D01*
X-47045476Y-151482619D01*
X-46997857Y-151577857D01*
X-46997857Y-151720714D01*
X-47045476Y-151815952D01*
X-47093095Y-151863571D01*
X-47188333Y-151911190D01*
X-47569285Y-151911190D01*
X-46521666Y-152387380D02*
X-46331190Y-152387380D01*
X-46235952Y-152339761D01*
X-46188333Y-152292142D01*
X-46093095Y-152149285D01*
X-46045476Y-151958809D01*
X-46045476Y-151577857D01*
X-46093095Y-151482619D01*
X-46140714Y-151435000D01*
X-46235952Y-151387380D01*
X-46426428Y-151387380D01*
X-46521666Y-151435000D01*
X-46569285Y-151482619D01*
X-46616904Y-151577857D01*
X-46616904Y-151815952D01*
X-46569285Y-151911190D01*
X-46521666Y-151958809D01*
X-46426428Y-152006428D01*
X-46235952Y-152006428D01*
X-46140714Y-151958809D01*
X-46093095Y-151911190D01*
X-46045476Y-151815952D01*
X-45426428Y-151387380D02*
X-45331190Y-151387380D01*
X-45235952Y-151435000D01*
X-45188333Y-151482619D01*
X-45140714Y-151577857D01*
X-45093095Y-151768333D01*
X-45093095Y-152006428D01*
X-45140714Y-152196904D01*
X-45188333Y-152292142D01*
X-45235952Y-152339761D01*
X-45331190Y-152387380D01*
X-45426428Y-152387380D01*
X-45521666Y-152339761D01*
X-45569285Y-152292142D01*
X-45616904Y-152196904D01*
X-45664523Y-152006428D01*
X-45664523Y-151768333D01*
X-45616904Y-151577857D01*
X-45569285Y-151482619D01*
X-45521666Y-151435000D01*
X-45426428Y-151387380D01*
X-59307857Y-157467380D02*
X-59641190Y-156991190D01*
X-59879285Y-157467380D02*
X-59879285Y-156467380D01*
X-59498333Y-156467380D01*
X-59403095Y-156515000D01*
X-59355476Y-156562619D01*
X-59307857Y-156657857D01*
X-59307857Y-156800714D01*
X-59355476Y-156895952D01*
X-59403095Y-156943571D01*
X-59498333Y-156991190D01*
X-59879285Y-156991190D01*
X-58831666Y-157467380D02*
X-58641190Y-157467380D01*
X-58545952Y-157419761D01*
X-58498333Y-157372142D01*
X-58403095Y-157229285D01*
X-58355476Y-157038809D01*
X-58355476Y-156657857D01*
X-58403095Y-156562619D01*
X-58450714Y-156515000D01*
X-58545952Y-156467380D01*
X-58736428Y-156467380D01*
X-58831666Y-156515000D01*
X-58879285Y-156562619D01*
X-58926904Y-156657857D01*
X-58926904Y-156895952D01*
X-58879285Y-156991190D01*
X-58831666Y-157038809D01*
X-58736428Y-157086428D01*
X-58545952Y-157086428D01*
X-58450714Y-157038809D01*
X-58403095Y-156991190D01*
X-58355476Y-156895952D01*
X-57403095Y-157467380D02*
X-57974523Y-157467380D01*
X-57688809Y-157467380D02*
X-57688809Y-156467380D01*
X-57784047Y-156610238D01*
X-57879285Y-156705476D01*
X-57974523Y-156753095D01*
X-34997857Y-147307380D02*
X-35331190Y-146831190D01*
X-35569285Y-147307380D02*
X-35569285Y-146307380D01*
X-35188333Y-146307380D01*
X-35093095Y-146355000D01*
X-35045476Y-146402619D01*
X-34997857Y-146497857D01*
X-34997857Y-146640714D01*
X-35045476Y-146735952D01*
X-35093095Y-146783571D01*
X-35188333Y-146831190D01*
X-35569285Y-146831190D01*
X-34521666Y-147307380D02*
X-34331190Y-147307380D01*
X-34235952Y-147259761D01*
X-34188333Y-147212142D01*
X-34093095Y-147069285D01*
X-34045476Y-146878809D01*
X-34045476Y-146497857D01*
X-34093095Y-146402619D01*
X-34140714Y-146355000D01*
X-34235952Y-146307380D01*
X-34426428Y-146307380D01*
X-34521666Y-146355000D01*
X-34569285Y-146402619D01*
X-34616904Y-146497857D01*
X-34616904Y-146735952D01*
X-34569285Y-146831190D01*
X-34521666Y-146878809D01*
X-34426428Y-146926428D01*
X-34235952Y-146926428D01*
X-34140714Y-146878809D01*
X-34093095Y-146831190D01*
X-34045476Y-146735952D01*
X-33664523Y-146402619D02*
X-33616904Y-146355000D01*
X-33521666Y-146307380D01*
X-33283571Y-146307380D01*
X-33188333Y-146355000D01*
X-33140714Y-146402619D01*
X-33093095Y-146497857D01*
X-33093095Y-146593095D01*
X-33140714Y-146735952D01*
X-33712142Y-147307380D01*
X-33093095Y-147307380D01*
X-34687857Y-132617380D02*
X-35021190Y-132141190D01*
X-35259285Y-132617380D02*
X-35259285Y-131617380D01*
X-34878333Y-131617380D01*
X-34783095Y-131665000D01*
X-34735476Y-131712619D01*
X-34687857Y-131807857D01*
X-34687857Y-131950714D01*
X-34735476Y-132045952D01*
X-34783095Y-132093571D01*
X-34878333Y-132141190D01*
X-35259285Y-132141190D01*
X-34211666Y-132617380D02*
X-34021190Y-132617380D01*
X-33925952Y-132569761D01*
X-33878333Y-132522142D01*
X-33783095Y-132379285D01*
X-33735476Y-132188809D01*
X-33735476Y-131807857D01*
X-33783095Y-131712619D01*
X-33830714Y-131665000D01*
X-33925952Y-131617380D01*
X-34116428Y-131617380D01*
X-34211666Y-131665000D01*
X-34259285Y-131712619D01*
X-34306904Y-131807857D01*
X-34306904Y-132045952D01*
X-34259285Y-132141190D01*
X-34211666Y-132188809D01*
X-34116428Y-132236428D01*
X-33925952Y-132236428D01*
X-33830714Y-132188809D01*
X-33783095Y-132141190D01*
X-33735476Y-132045952D01*
X-32878333Y-131617380D02*
X-33068809Y-131617380D01*
X-33164047Y-131665000D01*
X-33211666Y-131712619D01*
X-33306904Y-131855476D01*
X-33354523Y-132045952D01*
X-33354523Y-132426904D01*
X-33306904Y-132522142D01*
X-33259285Y-132569761D01*
X-33164047Y-132617380D01*
X-32973571Y-132617380D01*
X-32878333Y-132569761D01*
X-32830714Y-132522142D01*
X-32783095Y-132426904D01*
X-32783095Y-132188809D01*
X-32830714Y-132093571D01*
X-32878333Y-132045952D01*
X-32973571Y-131998333D01*
X-33164047Y-131998333D01*
X-33259285Y-132045952D01*
X-33306904Y-132093571D01*
X-33354523Y-132188809D01*
X-58767857Y-132617380D02*
X-59101190Y-132141190D01*
X-59339285Y-132617380D02*
X-59339285Y-131617380D01*
X-58958333Y-131617380D01*
X-58863095Y-131665000D01*
X-58815476Y-131712619D01*
X-58767857Y-131807857D01*
X-58767857Y-131950714D01*
X-58815476Y-132045952D01*
X-58863095Y-132093571D01*
X-58958333Y-132141190D01*
X-59339285Y-132141190D01*
X-58291666Y-132617380D02*
X-58101190Y-132617380D01*
X-58005952Y-132569761D01*
X-57958333Y-132522142D01*
X-57863095Y-132379285D01*
X-57815476Y-132188809D01*
X-57815476Y-131807857D01*
X-57863095Y-131712619D01*
X-57910714Y-131665000D01*
X-58005952Y-131617380D01*
X-58196428Y-131617380D01*
X-58291666Y-131665000D01*
X-58339285Y-131712619D01*
X-58386904Y-131807857D01*
X-58386904Y-132045952D01*
X-58339285Y-132141190D01*
X-58291666Y-132188809D01*
X-58196428Y-132236428D01*
X-58005952Y-132236428D01*
X-57910714Y-132188809D01*
X-57863095Y-132141190D01*
X-57815476Y-132045952D01*
X-57482142Y-131617380D02*
X-56815476Y-131617380D01*
X-57244047Y-132617380D01*
X-71117857Y-132277380D02*
X-71451190Y-131801190D01*
X-71689285Y-132277380D02*
X-71689285Y-131277380D01*
X-71308333Y-131277380D01*
X-71213095Y-131325000D01*
X-71165476Y-131372619D01*
X-71117857Y-131467857D01*
X-71117857Y-131610714D01*
X-71165476Y-131705952D01*
X-71213095Y-131753571D01*
X-71308333Y-131801190D01*
X-71689285Y-131801190D01*
X-70641666Y-132277380D02*
X-70451190Y-132277380D01*
X-70355952Y-132229761D01*
X-70308333Y-132182142D01*
X-70213095Y-132039285D01*
X-70165476Y-131848809D01*
X-70165476Y-131467857D01*
X-70213095Y-131372619D01*
X-70260714Y-131325000D01*
X-70355952Y-131277380D01*
X-70546428Y-131277380D01*
X-70641666Y-131325000D01*
X-70689285Y-131372619D01*
X-70736904Y-131467857D01*
X-70736904Y-131705952D01*
X-70689285Y-131801190D01*
X-70641666Y-131848809D01*
X-70546428Y-131896428D01*
X-70355952Y-131896428D01*
X-70260714Y-131848809D01*
X-70213095Y-131801190D01*
X-70165476Y-131705952D01*
X-69594047Y-131705952D02*
X-69689285Y-131658333D01*
X-69736904Y-131610714D01*
X-69784523Y-131515476D01*
X-69784523Y-131467857D01*
X-69736904Y-131372619D01*
X-69689285Y-131325000D01*
X-69594047Y-131277380D01*
X-69403571Y-131277380D01*
X-69308333Y-131325000D01*
X-69260714Y-131372619D01*
X-69213095Y-131467857D01*
X-69213095Y-131515476D01*
X-69260714Y-131610714D01*
X-69308333Y-131658333D01*
X-69403571Y-131705952D01*
X-69594047Y-131705952D01*
X-69689285Y-131753571D01*
X-69736904Y-131801190D01*
X-69784523Y-131896428D01*
X-69784523Y-132086904D01*
X-69736904Y-132182142D01*
X-69689285Y-132229761D01*
X-69594047Y-132277380D01*
X-69403571Y-132277380D01*
X-69308333Y-132229761D01*
X-69260714Y-132182142D01*
X-69213095Y-132086904D01*
X-69213095Y-131896428D01*
X-69260714Y-131801190D01*
X-69308333Y-131753571D01*
X-69403571Y-131705952D01*
X-47204047Y-132617380D02*
X-47537380Y-132141190D01*
X-47775476Y-132617380D02*
X-47775476Y-131617380D01*
X-47394523Y-131617380D01*
X-47299285Y-131665000D01*
X-47251666Y-131712619D01*
X-47204047Y-131807857D01*
X-47204047Y-131950714D01*
X-47251666Y-132045952D01*
X-47299285Y-132093571D01*
X-47394523Y-132141190D01*
X-47775476Y-132141190D01*
X-46251666Y-132617380D02*
X-46823095Y-132617380D01*
X-46537380Y-132617380D02*
X-46537380Y-131617380D01*
X-46632619Y-131760238D01*
X-46727857Y-131855476D01*
X-46823095Y-131903095D01*
X-45632619Y-131617380D02*
X-45537380Y-131617380D01*
X-45442142Y-131665000D01*
X-45394523Y-131712619D01*
X-45346904Y-131807857D01*
X-45299285Y-131998333D01*
X-45299285Y-132236428D01*
X-45346904Y-132426904D01*
X-45394523Y-132522142D01*
X-45442142Y-132569761D01*
X-45537380Y-132617380D01*
X-45632619Y-132617380D01*
X-45727857Y-132569761D01*
X-45775476Y-132522142D01*
X-45823095Y-132426904D01*
X-45870714Y-132236428D01*
X-45870714Y-131998333D01*
X-45823095Y-131807857D01*
X-45775476Y-131712619D01*
X-45727857Y-131665000D01*
X-45632619Y-131617380D01*
X-44965952Y-131617380D02*
X-44346904Y-131617380D01*
X-44680238Y-131998333D01*
X-44537380Y-131998333D01*
X-44442142Y-132045952D01*
X-44394523Y-132093571D01*
X-44346904Y-132188809D01*
X-44346904Y-132426904D01*
X-44394523Y-132522142D01*
X-44442142Y-132569761D01*
X-44537380Y-132617380D01*
X-44823095Y-132617380D01*
X-44918333Y-132569761D01*
X-44965952Y-132522142D01*
X-59554047Y-142437380D02*
X-59887380Y-141961190D01*
X-60125476Y-142437380D02*
X-60125476Y-141437380D01*
X-59744523Y-141437380D01*
X-59649285Y-141485000D01*
X-59601666Y-141532619D01*
X-59554047Y-141627857D01*
X-59554047Y-141770714D01*
X-59601666Y-141865952D01*
X-59649285Y-141913571D01*
X-59744523Y-141961190D01*
X-60125476Y-141961190D01*
X-58601666Y-142437380D02*
X-59173095Y-142437380D01*
X-58887380Y-142437380D02*
X-58887380Y-141437380D01*
X-58982619Y-141580238D01*
X-59077857Y-141675476D01*
X-59173095Y-141723095D01*
X-57982619Y-141437380D02*
X-57887380Y-141437380D01*
X-57792142Y-141485000D01*
X-57744523Y-141532619D01*
X-57696904Y-141627857D01*
X-57649285Y-141818333D01*
X-57649285Y-142056428D01*
X-57696904Y-142246904D01*
X-57744523Y-142342142D01*
X-57792142Y-142389761D01*
X-57887380Y-142437380D01*
X-57982619Y-142437380D01*
X-58077857Y-142389761D01*
X-58125476Y-142342142D01*
X-58173095Y-142246904D01*
X-58220714Y-142056428D01*
X-58220714Y-141818333D01*
X-58173095Y-141627857D01*
X-58125476Y-141532619D01*
X-58077857Y-141485000D01*
X-57982619Y-141437380D01*
X-56792142Y-141770714D02*
X-56792142Y-142437380D01*
X-57030238Y-141389761D02*
X-57268333Y-142104047D01*
X-56649285Y-142104047D01*
X-71594047Y-137147380D02*
X-71927380Y-136671190D01*
X-72165476Y-137147380D02*
X-72165476Y-136147380D01*
X-71784523Y-136147380D01*
X-71689285Y-136195000D01*
X-71641666Y-136242619D01*
X-71594047Y-136337857D01*
X-71594047Y-136480714D01*
X-71641666Y-136575952D01*
X-71689285Y-136623571D01*
X-71784523Y-136671190D01*
X-72165476Y-136671190D01*
X-70641666Y-137147380D02*
X-71213095Y-137147380D01*
X-70927380Y-137147380D02*
X-70927380Y-136147380D01*
X-71022619Y-136290238D01*
X-71117857Y-136385476D01*
X-71213095Y-136433095D01*
X-70022619Y-136147380D02*
X-69927380Y-136147380D01*
X-69832142Y-136195000D01*
X-69784523Y-136242619D01*
X-69736904Y-136337857D01*
X-69689285Y-136528333D01*
X-69689285Y-136766428D01*
X-69736904Y-136956904D01*
X-69784523Y-137052142D01*
X-69832142Y-137099761D01*
X-69927380Y-137147380D01*
X-70022619Y-137147380D01*
X-70117857Y-137099761D01*
X-70165476Y-137052142D01*
X-70213095Y-136956904D01*
X-70260714Y-136766428D01*
X-70260714Y-136528333D01*
X-70213095Y-136337857D01*
X-70165476Y-136242619D01*
X-70117857Y-136195000D01*
X-70022619Y-136147380D01*
X-68784523Y-136147380D02*
X-69260714Y-136147380D01*
X-69308333Y-136623571D01*
X-69260714Y-136575952D01*
X-69165476Y-136528333D01*
X-68927380Y-136528333D01*
X-68832142Y-136575952D01*
X-68784523Y-136623571D01*
X-68736904Y-136718809D01*
X-68736904Y-136956904D01*
X-68784523Y-137052142D01*
X-68832142Y-137099761D01*
X-68927380Y-137147380D01*
X-69165476Y-137147380D01*
X-69260714Y-137099761D01*
X-69308333Y-137052142D01*
X-59244047Y-137147380D02*
X-59577380Y-136671190D01*
X-59815476Y-137147380D02*
X-59815476Y-136147380D01*
X-59434523Y-136147380D01*
X-59339285Y-136195000D01*
X-59291666Y-136242619D01*
X-59244047Y-136337857D01*
X-59244047Y-136480714D01*
X-59291666Y-136575952D01*
X-59339285Y-136623571D01*
X-59434523Y-136671190D01*
X-59815476Y-136671190D01*
X-58291666Y-137147380D02*
X-58863095Y-137147380D01*
X-58577380Y-137147380D02*
X-58577380Y-136147380D01*
X-58672619Y-136290238D01*
X-58767857Y-136385476D01*
X-58863095Y-136433095D01*
X-57910714Y-136242619D02*
X-57863095Y-136195000D01*
X-57767857Y-136147380D01*
X-57529761Y-136147380D01*
X-57434523Y-136195000D01*
X-57386904Y-136242619D01*
X-57339285Y-136337857D01*
X-57339285Y-136433095D01*
X-57386904Y-136575952D01*
X-57958333Y-137147380D01*
X-57339285Y-137147380D01*
X-57005952Y-136147380D02*
X-56386904Y-136147380D01*
X-56720238Y-136528333D01*
X-56577380Y-136528333D01*
X-56482142Y-136575952D01*
X-56434523Y-136623571D01*
X-56386904Y-136718809D01*
X-56386904Y-136956904D01*
X-56434523Y-137052142D01*
X-56482142Y-137099761D01*
X-56577380Y-137147380D01*
X-56863095Y-137147380D01*
X-56958333Y-137099761D01*
X-57005952Y-137052142D01*
X-71799047Y-142247380D02*
X-72132380Y-141771190D01*
X-72370476Y-142247380D02*
X-72370476Y-141247380D01*
X-71989523Y-141247380D01*
X-71894285Y-141295000D01*
X-71846666Y-141342619D01*
X-71799047Y-141437857D01*
X-71799047Y-141580714D01*
X-71846666Y-141675952D01*
X-71894285Y-141723571D01*
X-71989523Y-141771190D01*
X-72370476Y-141771190D01*
X-70846666Y-142247380D02*
X-71418095Y-142247380D01*
X-71132380Y-142247380D02*
X-71132380Y-141247380D01*
X-71227619Y-141390238D01*
X-71322857Y-141485476D01*
X-71418095Y-141533095D01*
X-70465714Y-141342619D02*
X-70418095Y-141295000D01*
X-70322857Y-141247380D01*
X-70084761Y-141247380D01*
X-69989523Y-141295000D01*
X-69941904Y-141342619D01*
X-69894285Y-141437857D01*
X-69894285Y-141533095D01*
X-69941904Y-141675952D01*
X-70513333Y-142247380D01*
X-69894285Y-142247380D01*
X-69322857Y-141675952D02*
X-69418095Y-141628333D01*
X-69465714Y-141580714D01*
X-69513333Y-141485476D01*
X-69513333Y-141437857D01*
X-69465714Y-141342619D01*
X-69418095Y-141295000D01*
X-69322857Y-141247380D01*
X-69132380Y-141247380D01*
X-69037142Y-141295000D01*
X-68989523Y-141342619D01*
X-68941904Y-141437857D01*
X-68941904Y-141485476D01*
X-68989523Y-141580714D01*
X-69037142Y-141628333D01*
X-69132380Y-141675952D01*
X-69322857Y-141675952D01*
X-69418095Y-141723571D01*
X-69465714Y-141771190D01*
X-69513333Y-141866428D01*
X-69513333Y-142056904D01*
X-69465714Y-142152142D01*
X-69418095Y-142199761D01*
X-69322857Y-142247380D01*
X-69132380Y-142247380D01*
X-69037142Y-142199761D01*
X-68989523Y-142152142D01*
X-68941904Y-142056904D01*
X-68941904Y-141866428D01*
X-68989523Y-141771190D01*
X-69037142Y-141723571D01*
X-69132380Y-141675952D01*
X-70629523Y-118409761D02*
X-70486666Y-118457380D01*
X-70248571Y-118457380D01*
X-70153333Y-118409761D01*
X-70105714Y-118362142D01*
X-70058095Y-118266904D01*
X-70058095Y-118171666D01*
X-70105714Y-118076428D01*
X-70153333Y-118028809D01*
X-70248571Y-117981190D01*
X-70439047Y-117933571D01*
X-70534285Y-117885952D01*
X-70581904Y-117838333D01*
X-70629523Y-117743095D01*
X-70629523Y-117647857D01*
X-70581904Y-117552619D01*
X-70534285Y-117505000D01*
X-70439047Y-117457380D01*
X-70200952Y-117457380D01*
X-70058095Y-117505000D01*
X-69724761Y-117457380D02*
X-69486666Y-118457380D01*
X-69296190Y-117743095D01*
X-69105714Y-118457380D01*
X-68867619Y-117457380D01*
X-67962857Y-118457380D02*
X-68534285Y-118457380D01*
X-68248571Y-118457380D02*
X-68248571Y-117457380D01*
X-68343809Y-117600238D01*
X-68439047Y-117695476D01*
X-68534285Y-117743095D01*
X-67629523Y-117457380D02*
X-67010476Y-117457380D01*
X-67343809Y-117838333D01*
X-67200952Y-117838333D01*
X-67105714Y-117885952D01*
X-67058095Y-117933571D01*
X-67010476Y-118028809D01*
X-67010476Y-118266904D01*
X-67058095Y-118362142D01*
X-67105714Y-118409761D01*
X-67200952Y-118457380D01*
X-67486666Y-118457380D01*
X-67581904Y-118409761D01*
X-67629523Y-118362142D01*
X-16351190Y-120181190D02*
X-16351190Y-120657380D01*
X-16684523Y-119657380D02*
X-16351190Y-120181190D01*
X-16017857Y-119657380D01*
X-15160714Y-120657380D02*
X-15732142Y-120657380D01*
X-15446428Y-120657380D02*
X-15446428Y-119657380D01*
X-15541666Y-119800238D01*
X-15636904Y-119895476D01*
X-15732142Y-119943095D01*
M02*
