G04 #@! TF.GenerationSoftware,KiCad,Pcbnew,(5.1.5)-3*
G04 #@! TF.CreationDate,2020-01-24T15:28:57-05:00*
G04 #@! TF.ProjectId,chroma,6368726f-6d61-42e6-9b69-6361645f7063,v01*
G04 #@! TF.SameCoordinates,Original*
G04 #@! TF.FileFunction,Copper,L1,Top*
G04 #@! TF.FilePolarity,Positive*
%FSLAX46Y46*%
G04 Gerber Fmt 4.6, Leading zero omitted, Abs format (unit mm)*
G04 Created by KiCad (PCBNEW (5.1.5)-3) date 2020-01-24 15:28:57*
%MOMM*%
%LPD*%
G04 APERTURE LIST*
%ADD10R,1.000000X1.500000*%
%ADD11C,1.600000*%
%ADD12O,1.600000X1.600000*%
%ADD13R,1.600000X1.600000*%
%ADD14R,1.700000X1.700000*%
%ADD15O,1.700000X1.700000*%
%ADD16O,1.000000X1.500000*%
%ADD17C,1.440000*%
%ADD18R,2.850000X2.850000*%
%ADD19C,2.850000*%
%ADD20C,2.400000*%
%ADD21O,2.400000X2.400000*%
%ADD22C,0.800000*%
%ADD23C,0.250000*%
G04 APERTURE END LIST*
D10*
X-14995000Y-159070000D03*
X-10995000Y-159070000D03*
D11*
X-10240000Y-140970000D03*
X-15240000Y-140970000D03*
X-19130000Y-145415000D03*
X-24130000Y-145415000D03*
X-15240000Y-145415000D03*
X-10240000Y-145415000D03*
X-19400000Y-158835000D03*
X-24400000Y-158835000D03*
X-9980000Y-150735000D03*
X-14980000Y-150735000D03*
X-14980000Y-154785000D03*
X-9980000Y-154785000D03*
X-24130000Y-140335000D03*
X-19130000Y-140335000D03*
X-10240000Y-130810000D03*
X-15240000Y-130810000D03*
X-19130000Y-135255000D03*
X-24130000Y-135255000D03*
X-24400000Y-154785000D03*
X-19400000Y-154785000D03*
X-15240000Y-135255000D03*
X-10240000Y-135255000D03*
X-24400000Y-150735000D03*
X-19400000Y-150735000D03*
D12*
X-42545000Y-159385000D03*
D13*
X-50165000Y-159385000D03*
X-38100000Y-159385000D03*
D12*
X-30480000Y-159385000D03*
D14*
X-81280000Y-129540000D03*
D15*
X-81280000Y-132080000D03*
X-81280000Y-134620000D03*
X-81280000Y-137160000D03*
X-81280000Y-139700000D03*
X-81280000Y-142240000D03*
D14*
X-81280000Y-152400000D03*
D15*
X-81280000Y-154940000D03*
D14*
X6350000Y-145415000D03*
D15*
X6350000Y-147955000D03*
X6350000Y-150495000D03*
X6350000Y-153035000D03*
X6350000Y-155575000D03*
X6350000Y-133350000D03*
D14*
X6350000Y-130810000D03*
D12*
X-42275000Y-139220000D03*
D11*
X-49895000Y-139220000D03*
D10*
X-3810000Y-139065000D03*
D16*
X-1270000Y-139065000D03*
X-2540000Y-139065000D03*
D10*
X-3810000Y-124460000D03*
D16*
X-1270000Y-124460000D03*
X-2540000Y-124460000D03*
X-2540000Y-151765000D03*
X-1270000Y-151765000D03*
D10*
X-3810000Y-151765000D03*
D16*
X-2540000Y-145415000D03*
X-1270000Y-145415000D03*
D10*
X-3810000Y-145415000D03*
X-3810000Y-132080000D03*
D16*
X-1270000Y-132080000D03*
X-2540000Y-132080000D03*
X-2540000Y-158115000D03*
X-1270000Y-158115000D03*
D10*
X-3810000Y-158115000D03*
D11*
X-38165000Y-144540000D03*
D12*
X-30545000Y-144540000D03*
X-66870000Y-149225000D03*
D11*
X-74490000Y-149225000D03*
X-74295000Y-159385000D03*
D12*
X-66675000Y-159385000D03*
X-66675000Y-154305000D03*
D11*
X-74295000Y-154305000D03*
D12*
X-42585000Y-144540000D03*
D11*
X-50205000Y-144540000D03*
X-62245000Y-149225000D03*
D12*
X-54625000Y-149225000D03*
D17*
X-44120000Y-127600000D03*
X-39040000Y-125060000D03*
X-44120000Y-122520000D03*
D11*
X-50205000Y-149225000D03*
D12*
X-42585000Y-149225000D03*
X-54855000Y-154360000D03*
D11*
X-62475000Y-154360000D03*
X-37855000Y-139220000D03*
D12*
X-30235000Y-139220000D03*
D17*
X-57150000Y-122555000D03*
X-52070000Y-125095000D03*
X-57150000Y-127635000D03*
D12*
X-30480000Y-154305000D03*
D11*
X-38100000Y-154305000D03*
D17*
X-31115000Y-122520000D03*
X-26035000Y-125060000D03*
X-31115000Y-127600000D03*
D12*
X-42545000Y-154305000D03*
D11*
X-50165000Y-154305000D03*
X-62475000Y-159385000D03*
D12*
X-54855000Y-159385000D03*
X-30545000Y-149225000D03*
D11*
X-38165000Y-149225000D03*
X-37855000Y-134535000D03*
D12*
X-30235000Y-134535000D03*
D11*
X-61935000Y-134535000D03*
D12*
X-54315000Y-134535000D03*
X-66665000Y-134195000D03*
D11*
X-74285000Y-134195000D03*
D12*
X-42275000Y-134535000D03*
D11*
X-49895000Y-134535000D03*
D12*
X-54625000Y-144355000D03*
D11*
X-62245000Y-144355000D03*
X-74285000Y-139065000D03*
D12*
X-66665000Y-139065000D03*
D11*
X-61935000Y-139065000D03*
D12*
X-54315000Y-139065000D03*
D11*
X-74490000Y-144165000D03*
D12*
X-66870000Y-144165000D03*
D18*
X-73660000Y-122555000D03*
D19*
X-68960000Y-122555000D03*
X-64260000Y-122555000D03*
D20*
X-18415000Y-123825000D03*
D21*
X-13335000Y-123825000D03*
D22*
X-17131600Y-157015700D03*
X-35604200Y-141979200D03*
X-11405500Y-147454800D03*
X-19742900Y-143806900D03*
X-16635700Y-152588000D03*
X-29399900Y-132752000D03*
X-50080000Y-146091400D03*
X-50270900Y-141841200D03*
D23*
X-30545000Y-144540000D02*
X-31670300Y-144540000D01*
X-66870000Y-149225000D02*
X-65744700Y-149225000D01*
X-65744700Y-149225000D02*
X-64169000Y-147649300D01*
X-64169000Y-147649300D02*
X-34779600Y-147649300D01*
X-34779600Y-147649300D02*
X-31670300Y-144540000D01*
X-30545000Y-144540000D02*
X-29419700Y-144540000D01*
X-80104700Y-134620000D02*
X-78059300Y-132574600D01*
X-78059300Y-132574600D02*
X-69410700Y-132574600D01*
X-69410700Y-132574600D02*
X-67790300Y-134195000D01*
X-14980000Y-150735000D02*
X-16693400Y-149021600D01*
X-16693400Y-149021600D02*
X-24938100Y-149021600D01*
X-24938100Y-149021600D02*
X-29419700Y-144540000D01*
X-81280000Y-134620000D02*
X-80104700Y-134620000D01*
X-66665000Y-134195000D02*
X-67790300Y-134195000D01*
X-3810000Y-145415000D02*
X-4635300Y-145415000D01*
X-15240000Y-140970000D02*
X-13017500Y-143192500D01*
X-13017500Y-143192500D02*
X-6857800Y-143192500D01*
X-6857800Y-143192500D02*
X-4635300Y-145415000D01*
X-15820300Y-159070000D02*
X-17131600Y-157758700D01*
X-17131600Y-157758700D02*
X-17131600Y-157015700D01*
X-14995000Y-159070000D02*
X-15820300Y-159070000D01*
X-10240000Y-140970000D02*
X-11365400Y-139844600D01*
X-11365400Y-139844600D02*
X-15830200Y-139844600D01*
X-15830200Y-139844600D02*
X-18795900Y-142810300D01*
X-18795900Y-142810300D02*
X-19797000Y-142810300D01*
X-19797000Y-142810300D02*
X-23534900Y-146548200D01*
X-23534900Y-146548200D02*
X-24639400Y-146548200D01*
X-24639400Y-146548200D02*
X-29208400Y-141979200D01*
X-29208400Y-141979200D02*
X-35604200Y-141979200D01*
X-10240000Y-140970000D02*
X-9410300Y-140140300D01*
X-9410300Y-140140300D02*
X-2540000Y-140140300D01*
X3414400Y-137989700D02*
X-2540000Y-137989700D01*
X-11809700Y-123825000D02*
X-7296100Y-128338600D01*
X-7296100Y-128338600D02*
X6099600Y-128338600D01*
X6099600Y-128338600D02*
X7570500Y-129809500D01*
X7570500Y-129809500D02*
X7570500Y-133833600D01*
X7570500Y-133833600D02*
X3414400Y-137989700D01*
X3414400Y-137989700D02*
X8043300Y-142618600D01*
X8043300Y-142618600D02*
X8043300Y-155570000D01*
X8043300Y-155570000D02*
X6788400Y-156824900D01*
X6788400Y-156824900D02*
X-7924600Y-156824900D01*
X-7924600Y-156824900D02*
X-10169700Y-159070000D01*
X-10995000Y-159070000D02*
X-10169700Y-159070000D01*
X-2540000Y-139065000D02*
X-2540000Y-137989700D01*
X-13335000Y-123825000D02*
X-11809700Y-123825000D01*
X-2540000Y-139065000D02*
X-2540000Y-140140300D01*
X-54315000Y-134535000D02*
X-55440300Y-134535000D01*
X-55440300Y-134535000D02*
X-57895300Y-132080000D01*
X-57895300Y-132080000D02*
X-81280000Y-132080000D01*
X-26035000Y-125060000D02*
X-27115400Y-126140400D01*
X-27115400Y-126140400D02*
X-51024600Y-126140400D01*
X-51024600Y-126140400D02*
X-52070000Y-125095000D01*
X-54625000Y-149225000D02*
X-53499700Y-149225000D01*
X-30545000Y-149225000D02*
X-31670300Y-149225000D01*
X-31670300Y-149225000D02*
X-32795600Y-150350300D01*
X-32795600Y-150350300D02*
X-52374400Y-150350300D01*
X-52374400Y-150350300D02*
X-53499700Y-149225000D01*
X-10240000Y-145415000D02*
X-11813300Y-145415000D01*
X-11813300Y-145415000D02*
X-13396800Y-146998500D01*
X-13396800Y-146998500D02*
X-25035700Y-146998500D01*
X-25035700Y-146998500D02*
X-29575900Y-142458300D01*
X-29575900Y-142458300D02*
X-33504000Y-142458300D01*
X-33504000Y-142458300D02*
X-33750200Y-142704500D01*
X-33750200Y-142704500D02*
X-48369500Y-142704500D01*
X-48369500Y-142704500D02*
X-50205000Y-144540000D01*
X-81280000Y-129540000D02*
X-50241200Y-129540000D01*
X-50241200Y-129540000D02*
X-44120900Y-135660300D01*
X-44120900Y-135660300D02*
X-38980300Y-135660300D01*
X-38980300Y-135660300D02*
X-37855000Y-134535000D01*
X-49895000Y-139220000D02*
X-48276500Y-140838500D01*
X-48276500Y-140838500D02*
X-28706500Y-140838500D01*
X-28706500Y-140838500D02*
X-24130000Y-145415000D01*
X-3810000Y-139065000D02*
X-16238400Y-139065000D01*
X-16238400Y-139065000D02*
X-19308300Y-142134900D01*
X-19308300Y-142134900D02*
X-20849900Y-142134900D01*
X-20849900Y-142134900D02*
X-24130000Y-145415000D01*
X-81280000Y-154940000D02*
X-81280000Y-153764700D01*
X-81280000Y-153764700D02*
X-82088000Y-153764700D01*
X-82088000Y-153764700D02*
X-82956900Y-152895800D01*
X-82956900Y-152895800D02*
X-82956900Y-137112700D01*
X-82956900Y-137112700D02*
X-81828800Y-135984600D01*
X-81828800Y-135984600D02*
X-79474500Y-135984600D01*
X-79474500Y-135984600D02*
X-76514900Y-133025000D01*
X-76514900Y-133025000D02*
X-71149400Y-133025000D01*
X-71149400Y-133025000D02*
X-67607300Y-136567100D01*
X-67607300Y-136567100D02*
X-16552100Y-136567100D01*
X-16552100Y-136567100D02*
X-15240000Y-135255000D01*
X-66675000Y-159385000D02*
X-65549700Y-159385000D01*
X-65549700Y-159385000D02*
X-63873300Y-157708600D01*
X-63873300Y-157708600D02*
X-20526400Y-157708600D01*
X-20526400Y-157708600D02*
X-19400000Y-158835000D01*
X-9980000Y-150735000D02*
X-12637800Y-148077200D01*
X-12637800Y-148077200D02*
X-25245600Y-148077200D01*
X-25245600Y-148077200D02*
X-29923900Y-143398900D01*
X-29923900Y-143398900D02*
X-31445100Y-143398900D01*
X-31445100Y-143398900D02*
X-35025700Y-146979500D01*
X-35025700Y-146979500D02*
X-72244500Y-146979500D01*
X-72244500Y-146979500D02*
X-74490000Y-149225000D01*
X-1270000Y-139065000D02*
X-444700Y-139065000D01*
X-444700Y-139065000D02*
X-444700Y-146020500D01*
X-444700Y-146020500D02*
X-2326100Y-147901900D01*
X-2326100Y-147901900D02*
X-7146900Y-147901900D01*
X-7146900Y-147901900D02*
X-9980000Y-150735000D01*
X-41459700Y-144540000D02*
X-40334400Y-143414700D01*
X-40334400Y-143414700D02*
X-32735300Y-143414700D01*
X-32735300Y-143414700D02*
X-32269100Y-142948500D01*
X-32269100Y-142948500D02*
X-29722600Y-142948500D01*
X-29722600Y-142948500D02*
X-25216300Y-147454800D01*
X-25216300Y-147454800D02*
X-11405500Y-147454800D01*
X-42585000Y-144540000D02*
X-41459700Y-144540000D01*
X-2540000Y-151765000D02*
X-2540000Y-152840300D01*
X-14980000Y-154785000D02*
X-13829500Y-153634500D01*
X-13829500Y-153634500D02*
X-3334200Y-153634500D01*
X-3334200Y-153634500D02*
X-2540000Y-152840300D01*
X-2540000Y-146490300D02*
X-6287600Y-146490300D01*
X-6287600Y-146490300D02*
X-8971000Y-143806900D01*
X-8971000Y-143806900D02*
X-19742900Y-143806900D01*
X-2540000Y-145415000D02*
X-2540000Y-146490300D01*
X-24130000Y-140335000D02*
X-24183100Y-140388100D01*
X-24183100Y-140388100D02*
X-36686900Y-140388100D01*
X-36686900Y-140388100D02*
X-37855000Y-139220000D01*
X-37855000Y-139220000D02*
X-39006800Y-138068200D01*
X-39006800Y-138068200D02*
X-51204100Y-138068200D01*
X-51204100Y-138068200D02*
X-56178900Y-143043000D01*
X-56178900Y-143043000D02*
X-64622700Y-143043000D01*
X-64622700Y-143043000D02*
X-65744700Y-144165000D01*
X-66870000Y-144165000D02*
X-65744700Y-144165000D01*
X-54855000Y-159385000D02*
X-50165000Y-159385000D01*
X-16635700Y-152310700D02*
X-19424000Y-152310700D01*
X-19424000Y-152310700D02*
X-22125100Y-149609600D01*
X-22125100Y-149609600D02*
X-28547400Y-149609600D01*
X-28547400Y-149609600D02*
X-30057300Y-148099700D01*
X-30057300Y-148099700D02*
X-40334400Y-148099700D01*
X-40334400Y-148099700D02*
X-41459700Y-149225000D01*
X-1270000Y-150689700D02*
X-6571200Y-150689700D01*
X-6571200Y-150689700D02*
X-8192200Y-152310700D01*
X-8192200Y-152310700D02*
X-16635700Y-152310700D01*
X-16635700Y-152310700D02*
X-16635700Y-152588000D01*
X-42585000Y-149225000D02*
X-41459700Y-149225000D01*
X-1270000Y-151765000D02*
X-1270000Y-150689700D01*
X-30235000Y-134535000D02*
X-31360300Y-134535000D01*
X-61935000Y-134535000D02*
X-60353300Y-136116700D01*
X-60353300Y-136116700D02*
X-32942000Y-136116700D01*
X-32942000Y-136116700D02*
X-31360300Y-134535000D01*
X-30235000Y-134535000D02*
X-29109700Y-134535000D01*
X-29109700Y-134535000D02*
X-28687900Y-134113200D01*
X-28687900Y-134113200D02*
X-20271800Y-134113200D01*
X-20271800Y-134113200D02*
X-19130000Y-135255000D01*
X-24400000Y-155205100D02*
X-23230600Y-156374500D01*
X-23230600Y-156374500D02*
X-18628700Y-156374500D01*
X-18628700Y-156374500D02*
X-18094200Y-155840000D01*
X-18094200Y-155840000D02*
X-16115700Y-155840000D01*
X-16115700Y-155840000D02*
X-16031500Y-155924200D01*
X-16031500Y-155924200D02*
X-1470600Y-155924200D01*
X-1470600Y-155924200D02*
X2783200Y-151670400D01*
X2783200Y-151670400D02*
X6837800Y-151670400D01*
X6837800Y-151670400D02*
X7572400Y-150935800D01*
X7572400Y-150935800D02*
X7572400Y-147445400D01*
X7572400Y-147445400D02*
X6717300Y-146590300D01*
X6717300Y-146590300D02*
X6350000Y-146590300D01*
X6350000Y-145415000D02*
X6350000Y-146590300D01*
X-24400000Y-155205100D02*
X-24668700Y-155473800D01*
X-24668700Y-155473800D02*
X-36931200Y-155473800D01*
X-36931200Y-155473800D02*
X-38100000Y-154305000D01*
X-24400000Y-155205100D02*
X-24400000Y-154785000D01*
X-10240000Y-135255000D02*
X-12002500Y-137017500D01*
X-12002500Y-137017500D02*
X-71462500Y-137017500D01*
X-71462500Y-137017500D02*
X-74285000Y-134195000D01*
X-73660000Y-122555000D02*
X-71909700Y-122555000D01*
X-71909700Y-122555000D02*
X-70159400Y-124305300D01*
X-70159400Y-124305300D02*
X-54839000Y-124305300D01*
X-54839000Y-124305300D02*
X-46392300Y-132752000D01*
X-46392300Y-132752000D02*
X-29399900Y-132752000D01*
X6350000Y-150495000D02*
X5174700Y-150495000D01*
X-19400000Y-150735000D02*
X-18274700Y-151860300D01*
X-18274700Y-151860300D02*
X-8854600Y-151860300D01*
X-8854600Y-151860300D02*
X-7233400Y-150239100D01*
X-7233400Y-150239100D02*
X4918800Y-150239100D01*
X4918800Y-150239100D02*
X5174700Y-150495000D01*
X-55187600Y-144355000D02*
X-53451200Y-146091400D01*
X-53451200Y-146091400D02*
X-50080000Y-146091400D01*
X-55187600Y-144355000D02*
X-55750300Y-144355000D01*
X-54625000Y-144355000D02*
X-55187600Y-144355000D01*
X-74285000Y-139065000D02*
X-67869700Y-145480300D01*
X-67869700Y-145480300D02*
X-56875600Y-145480300D01*
X-56875600Y-145480300D02*
X-55750300Y-144355000D01*
X-42545000Y-159385000D02*
X-38100000Y-159385000D01*
X-50165000Y-154305000D02*
X-47645200Y-156824800D01*
X-47645200Y-156824800D02*
X-18442100Y-156824800D01*
X-18442100Y-156824800D02*
X-17907600Y-156290300D01*
X-17907600Y-156290300D02*
X-16406100Y-156290300D01*
X-16406100Y-156290300D02*
X-16321900Y-156374500D01*
X-16321900Y-156374500D02*
X4375200Y-156374500D01*
X4375200Y-156374500D02*
X5174700Y-155575000D01*
X6350000Y-155575000D02*
X5174700Y-155575000D01*
X6350000Y-133350000D02*
X5174700Y-133350000D01*
X-1270000Y-132080000D02*
X3904700Y-132080000D01*
X3904700Y-132080000D02*
X5174700Y-133350000D01*
X-81280000Y-139700000D02*
X-80104700Y-139700000D01*
X-80104700Y-139700000D02*
X-78009600Y-137604900D01*
X-78009600Y-137604900D02*
X-21860100Y-137604900D01*
X-21860100Y-137604900D02*
X-19130000Y-140335000D01*
X-19400000Y-154785000D02*
X-22324600Y-151860400D01*
X-22324600Y-151860400D02*
X-73446000Y-151860400D01*
X-73446000Y-151860400D02*
X-76258500Y-149047900D01*
X-76258500Y-149047900D02*
X-76258500Y-145559100D01*
X-76258500Y-145559100D02*
X-80931800Y-140885800D01*
X-80931800Y-140885800D02*
X-81773300Y-140885800D01*
X-81773300Y-140885800D02*
X-82455400Y-140203700D01*
X-82455400Y-140203700D02*
X-82455400Y-139143400D01*
X-82455400Y-139143400D02*
X-81647300Y-138335300D01*
X-81647300Y-138335300D02*
X-81280000Y-138335300D01*
X-81280000Y-137160000D02*
X-81280000Y-138335300D01*
X-43670300Y-154305000D02*
X-45432500Y-152542800D01*
X-45432500Y-152542800D02*
X-73459800Y-152542800D01*
X-73459800Y-152542800D02*
X-81280000Y-144722600D01*
X-81280000Y-144722600D02*
X-81280000Y-142240000D01*
X-42545000Y-154305000D02*
X-43670300Y-154305000D01*
X-41149700Y-134535000D02*
X-40024400Y-133409700D01*
X-40024400Y-133409700D02*
X-29767900Y-133409700D01*
X-29767900Y-133409700D02*
X-29700300Y-133477300D01*
X-29700300Y-133477300D02*
X-8870000Y-133477300D01*
X-8870000Y-133477300D02*
X-6202700Y-130810000D01*
X-6202700Y-130810000D02*
X6350000Y-130810000D01*
X-62245000Y-144355000D02*
X-56760600Y-144355000D01*
X-56760600Y-144355000D02*
X-54246800Y-141841200D01*
X-54246800Y-141841200D02*
X-50270900Y-141841200D01*
X-42275000Y-134535000D02*
X-41149700Y-134535000D01*
X-3810000Y-151765000D02*
X-4635300Y-151765000D01*
X-4635300Y-151765000D02*
X-5921300Y-153051000D01*
X-5921300Y-153051000D02*
X-15450100Y-153051000D01*
X-15450100Y-153051000D02*
X-16105400Y-153706300D01*
X-16105400Y-153706300D02*
X-16597400Y-153706300D01*
X-16597400Y-153706300D02*
X-18801500Y-155910400D01*
X-18801500Y-155910400D02*
X-20771900Y-155910400D01*
X-20771900Y-155910400D02*
X-23552400Y-153129900D01*
X-23552400Y-153129900D02*
X-39448200Y-153129900D01*
X-39448200Y-153129900D02*
X-41749000Y-155430700D01*
X-41749000Y-155430700D02*
X-45953200Y-155430700D01*
X-45953200Y-155430700D02*
X-48204200Y-153179700D01*
X-48204200Y-153179700D02*
X-61294700Y-153179700D01*
X-61294700Y-153179700D02*
X-62475000Y-154360000D01*
M02*
