G04 #@! TF.GenerationSoftware,KiCad,Pcbnew,(5.1.5)-3*
G04 #@! TF.CreationDate,2020-01-23T17:29:19-05:00*
G04 #@! TF.ProjectId,cludge,636c7564-6765-42e6-9b69-6361645f7063,v01*
G04 #@! TF.SameCoordinates,Original*
G04 #@! TF.FileFunction,Soldermask,Bot*
G04 #@! TF.FilePolarity,Negative*
%FSLAX46Y46*%
G04 Gerber Fmt 4.6, Leading zero omitted, Abs format (unit mm)*
G04 Created by KiCad (PCBNEW (5.1.5)-3) date 2020-01-23 17:29:19*
%MOMM*%
%LPD*%
G04 APERTURE LIST*
%ADD10C,0.100000*%
G04 APERTURE END LIST*
D10*
G36*
X151298228Y-107766703D02*
G01*
X151453100Y-107830853D01*
X151592481Y-107923985D01*
X151711015Y-108042519D01*
X151804147Y-108181900D01*
X151868297Y-108336772D01*
X151901000Y-108501184D01*
X151901000Y-108668816D01*
X151868297Y-108833228D01*
X151804147Y-108988100D01*
X151711015Y-109127481D01*
X151592481Y-109246015D01*
X151453100Y-109339147D01*
X151298228Y-109403297D01*
X151133816Y-109436000D01*
X150966184Y-109436000D01*
X150801772Y-109403297D01*
X150646900Y-109339147D01*
X150507519Y-109246015D01*
X150388985Y-109127481D01*
X150295853Y-108988100D01*
X150231703Y-108833228D01*
X150199000Y-108668816D01*
X150199000Y-108501184D01*
X150231703Y-108336772D01*
X150295853Y-108181900D01*
X150388985Y-108042519D01*
X150507519Y-107923985D01*
X150646900Y-107830853D01*
X150801772Y-107766703D01*
X150966184Y-107734000D01*
X151133816Y-107734000D01*
X151298228Y-107766703D01*
G37*
G36*
X146298228Y-107766703D02*
G01*
X146453100Y-107830853D01*
X146592481Y-107923985D01*
X146711015Y-108042519D01*
X146804147Y-108181900D01*
X146868297Y-108336772D01*
X146901000Y-108501184D01*
X146901000Y-108668816D01*
X146868297Y-108833228D01*
X146804147Y-108988100D01*
X146711015Y-109127481D01*
X146592481Y-109246015D01*
X146453100Y-109339147D01*
X146298228Y-109403297D01*
X146133816Y-109436000D01*
X145966184Y-109436000D01*
X145801772Y-109403297D01*
X145646900Y-109339147D01*
X145507519Y-109246015D01*
X145388985Y-109127481D01*
X145295853Y-108988100D01*
X145231703Y-108833228D01*
X145199000Y-108668816D01*
X145199000Y-108501184D01*
X145231703Y-108336772D01*
X145295853Y-108181900D01*
X145388985Y-108042519D01*
X145507519Y-107923985D01*
X145646900Y-107830853D01*
X145801772Y-107766703D01*
X145966184Y-107734000D01*
X146133816Y-107734000D01*
X146298228Y-107766703D01*
G37*
G36*
X136773228Y-107766703D02*
G01*
X136928100Y-107830853D01*
X137067481Y-107923985D01*
X137186015Y-108042519D01*
X137279147Y-108181900D01*
X137343297Y-108336772D01*
X137376000Y-108501184D01*
X137376000Y-108668816D01*
X137343297Y-108833228D01*
X137279147Y-108988100D01*
X137186015Y-109127481D01*
X137067481Y-109246015D01*
X136928100Y-109339147D01*
X136773228Y-109403297D01*
X136608816Y-109436000D01*
X136441184Y-109436000D01*
X136276772Y-109403297D01*
X136121900Y-109339147D01*
X135982519Y-109246015D01*
X135863985Y-109127481D01*
X135770853Y-108988100D01*
X135706703Y-108833228D01*
X135674000Y-108668816D01*
X135674000Y-108501184D01*
X135706703Y-108336772D01*
X135770853Y-108181900D01*
X135863985Y-108042519D01*
X135982519Y-107923985D01*
X136121900Y-107830853D01*
X136276772Y-107766703D01*
X136441184Y-107734000D01*
X136608816Y-107734000D01*
X136773228Y-107766703D01*
G37*
G36*
X141773228Y-107766703D02*
G01*
X141928100Y-107830853D01*
X142067481Y-107923985D01*
X142186015Y-108042519D01*
X142279147Y-108181900D01*
X142343297Y-108336772D01*
X142376000Y-108501184D01*
X142376000Y-108668816D01*
X142343297Y-108833228D01*
X142279147Y-108988100D01*
X142186015Y-109127481D01*
X142067481Y-109246015D01*
X141928100Y-109339147D01*
X141773228Y-109403297D01*
X141608816Y-109436000D01*
X141441184Y-109436000D01*
X141276772Y-109403297D01*
X141121900Y-109339147D01*
X140982519Y-109246015D01*
X140863985Y-109127481D01*
X140770853Y-108988100D01*
X140706703Y-108833228D01*
X140674000Y-108668816D01*
X140674000Y-108501184D01*
X140706703Y-108336772D01*
X140770853Y-108181900D01*
X140863985Y-108042519D01*
X140982519Y-107923985D01*
X141121900Y-107830853D01*
X141276772Y-107766703D01*
X141441184Y-107734000D01*
X141608816Y-107734000D01*
X141773228Y-107766703D01*
G37*
G36*
X121838228Y-105226703D02*
G01*
X121993100Y-105290853D01*
X122132481Y-105383985D01*
X122251015Y-105502519D01*
X122344147Y-105641900D01*
X122408297Y-105796772D01*
X122441000Y-105961184D01*
X122441000Y-106128816D01*
X122408297Y-106293228D01*
X122344147Y-106448100D01*
X122251015Y-106587481D01*
X122132481Y-106706015D01*
X121993100Y-106799147D01*
X121838228Y-106863297D01*
X121673816Y-106896000D01*
X121506184Y-106896000D01*
X121341772Y-106863297D01*
X121186900Y-106799147D01*
X121047519Y-106706015D01*
X120928985Y-106587481D01*
X120835853Y-106448100D01*
X120771703Y-106293228D01*
X120739000Y-106128816D01*
X120739000Y-105961184D01*
X120771703Y-105796772D01*
X120835853Y-105641900D01*
X120928985Y-105502519D01*
X121047519Y-105383985D01*
X121186900Y-105290853D01*
X121341772Y-105226703D01*
X121506184Y-105194000D01*
X121673816Y-105194000D01*
X121838228Y-105226703D01*
G37*
G36*
X129458228Y-105226703D02*
G01*
X129613100Y-105290853D01*
X129752481Y-105383985D01*
X129871015Y-105502519D01*
X129964147Y-105641900D01*
X130028297Y-105796772D01*
X130061000Y-105961184D01*
X130061000Y-106128816D01*
X130028297Y-106293228D01*
X129964147Y-106448100D01*
X129871015Y-106587481D01*
X129752481Y-106706015D01*
X129613100Y-106799147D01*
X129458228Y-106863297D01*
X129293816Y-106896000D01*
X129126184Y-106896000D01*
X128961772Y-106863297D01*
X128806900Y-106799147D01*
X128667519Y-106706015D01*
X128548985Y-106587481D01*
X128455853Y-106448100D01*
X128391703Y-106293228D01*
X128359000Y-106128816D01*
X128359000Y-105961184D01*
X128391703Y-105796772D01*
X128455853Y-105641900D01*
X128548985Y-105502519D01*
X128667519Y-105383985D01*
X128806900Y-105290853D01*
X128961772Y-105226703D01*
X129126184Y-105194000D01*
X129293816Y-105194000D01*
X129458228Y-105226703D01*
G37*
G36*
X105988228Y-104591703D02*
G01*
X106143100Y-104655853D01*
X106282481Y-104748985D01*
X106401015Y-104867519D01*
X106494147Y-105006900D01*
X106558297Y-105161772D01*
X106591000Y-105326184D01*
X106591000Y-105493816D01*
X106558297Y-105658228D01*
X106494147Y-105813100D01*
X106401015Y-105952481D01*
X106282481Y-106071015D01*
X106143100Y-106164147D01*
X105988228Y-106228297D01*
X105823816Y-106261000D01*
X105656184Y-106261000D01*
X105491772Y-106228297D01*
X105336900Y-106164147D01*
X105197519Y-106071015D01*
X105078985Y-105952481D01*
X104985853Y-105813100D01*
X104921703Y-105658228D01*
X104889000Y-105493816D01*
X104889000Y-105326184D01*
X104921703Y-105161772D01*
X104985853Y-105006900D01*
X105078985Y-104867519D01*
X105197519Y-104748985D01*
X105336900Y-104655853D01*
X105491772Y-104591703D01*
X105656184Y-104559000D01*
X105823816Y-104559000D01*
X105988228Y-104591703D01*
G37*
G36*
X113608228Y-104591703D02*
G01*
X113763100Y-104655853D01*
X113902481Y-104748985D01*
X114021015Y-104867519D01*
X114114147Y-105006900D01*
X114178297Y-105161772D01*
X114211000Y-105326184D01*
X114211000Y-105493816D01*
X114178297Y-105658228D01*
X114114147Y-105813100D01*
X114021015Y-105952481D01*
X113902481Y-106071015D01*
X113763100Y-106164147D01*
X113608228Y-106228297D01*
X113443816Y-106261000D01*
X113276184Y-106261000D01*
X113111772Y-106228297D01*
X112956900Y-106164147D01*
X112817519Y-106071015D01*
X112698985Y-105952481D01*
X112605853Y-105813100D01*
X112541703Y-105658228D01*
X112509000Y-105493816D01*
X112509000Y-105326184D01*
X112541703Y-105161772D01*
X112605853Y-105006900D01*
X112698985Y-104867519D01*
X112817519Y-104748985D01*
X112956900Y-104655853D01*
X113111772Y-104591703D01*
X113276184Y-104559000D01*
X113443816Y-104559000D01*
X113608228Y-104591703D01*
G37*
G36*
X151298228Y-102686703D02*
G01*
X151453100Y-102750853D01*
X151592481Y-102843985D01*
X151711015Y-102962519D01*
X151804147Y-103101900D01*
X151868297Y-103256772D01*
X151901000Y-103421184D01*
X151901000Y-103588816D01*
X151868297Y-103753228D01*
X151804147Y-103908100D01*
X151711015Y-104047481D01*
X151592481Y-104166015D01*
X151453100Y-104259147D01*
X151298228Y-104323297D01*
X151133816Y-104356000D01*
X150966184Y-104356000D01*
X150801772Y-104323297D01*
X150646900Y-104259147D01*
X150507519Y-104166015D01*
X150388985Y-104047481D01*
X150295853Y-103908100D01*
X150231703Y-103753228D01*
X150199000Y-103588816D01*
X150199000Y-103421184D01*
X150231703Y-103256772D01*
X150295853Y-103101900D01*
X150388985Y-102962519D01*
X150507519Y-102843985D01*
X150646900Y-102750853D01*
X150801772Y-102686703D01*
X150966184Y-102654000D01*
X151133816Y-102654000D01*
X151298228Y-102686703D01*
G37*
G36*
X146298228Y-102686703D02*
G01*
X146453100Y-102750853D01*
X146592481Y-102843985D01*
X146711015Y-102962519D01*
X146804147Y-103101900D01*
X146868297Y-103256772D01*
X146901000Y-103421184D01*
X146901000Y-103588816D01*
X146868297Y-103753228D01*
X146804147Y-103908100D01*
X146711015Y-104047481D01*
X146592481Y-104166015D01*
X146453100Y-104259147D01*
X146298228Y-104323297D01*
X146133816Y-104356000D01*
X145966184Y-104356000D01*
X145801772Y-104323297D01*
X145646900Y-104259147D01*
X145507519Y-104166015D01*
X145388985Y-104047481D01*
X145295853Y-103908100D01*
X145231703Y-103753228D01*
X145199000Y-103588816D01*
X145199000Y-103421184D01*
X145231703Y-103256772D01*
X145295853Y-103101900D01*
X145388985Y-102962519D01*
X145507519Y-102843985D01*
X145646900Y-102750853D01*
X145801772Y-102686703D01*
X145966184Y-102654000D01*
X146133816Y-102654000D01*
X146298228Y-102686703D01*
G37*
G36*
X141773228Y-102686703D02*
G01*
X141928100Y-102750853D01*
X142067481Y-102843985D01*
X142186015Y-102962519D01*
X142279147Y-103101900D01*
X142343297Y-103256772D01*
X142376000Y-103421184D01*
X142376000Y-103588816D01*
X142343297Y-103753228D01*
X142279147Y-103908100D01*
X142186015Y-104047481D01*
X142067481Y-104166015D01*
X141928100Y-104259147D01*
X141773228Y-104323297D01*
X141608816Y-104356000D01*
X141441184Y-104356000D01*
X141276772Y-104323297D01*
X141121900Y-104259147D01*
X140982519Y-104166015D01*
X140863985Y-104047481D01*
X140770853Y-103908100D01*
X140706703Y-103753228D01*
X140674000Y-103588816D01*
X140674000Y-103421184D01*
X140706703Y-103256772D01*
X140770853Y-103101900D01*
X140863985Y-102962519D01*
X140982519Y-102843985D01*
X141121900Y-102750853D01*
X141276772Y-102686703D01*
X141441184Y-102654000D01*
X141608816Y-102654000D01*
X141773228Y-102686703D01*
G37*
G36*
X136773228Y-102686703D02*
G01*
X136928100Y-102750853D01*
X137067481Y-102843985D01*
X137186015Y-102962519D01*
X137279147Y-103101900D01*
X137343297Y-103256772D01*
X137376000Y-103421184D01*
X137376000Y-103588816D01*
X137343297Y-103753228D01*
X137279147Y-103908100D01*
X137186015Y-104047481D01*
X137067481Y-104166015D01*
X136928100Y-104259147D01*
X136773228Y-104323297D01*
X136608816Y-104356000D01*
X136441184Y-104356000D01*
X136276772Y-104323297D01*
X136121900Y-104259147D01*
X135982519Y-104166015D01*
X135863985Y-104047481D01*
X135770853Y-103908100D01*
X135706703Y-103753228D01*
X135674000Y-103588816D01*
X135674000Y-103421184D01*
X135706703Y-103256772D01*
X135770853Y-103101900D01*
X135863985Y-102962519D01*
X135982519Y-102843985D01*
X136121900Y-102750853D01*
X136276772Y-102686703D01*
X136441184Y-102654000D01*
X136608816Y-102654000D01*
X136773228Y-102686703D01*
G37*
G36*
X75178228Y-102051703D02*
G01*
X75333100Y-102115853D01*
X75472481Y-102208985D01*
X75591015Y-102327519D01*
X75684147Y-102466900D01*
X75748297Y-102621772D01*
X75781000Y-102786184D01*
X75781000Y-102953816D01*
X75748297Y-103118228D01*
X75684147Y-103273100D01*
X75591015Y-103412481D01*
X75472481Y-103531015D01*
X75333100Y-103624147D01*
X75178228Y-103688297D01*
X75013816Y-103721000D01*
X74846184Y-103721000D01*
X74681772Y-103688297D01*
X74526900Y-103624147D01*
X74387519Y-103531015D01*
X74268985Y-103412481D01*
X74175853Y-103273100D01*
X74111703Y-103118228D01*
X74079000Y-102953816D01*
X74079000Y-102786184D01*
X74111703Y-102621772D01*
X74175853Y-102466900D01*
X74268985Y-102327519D01*
X74387519Y-102208985D01*
X74526900Y-102115853D01*
X74681772Y-102051703D01*
X74846184Y-102019000D01*
X75013816Y-102019000D01*
X75178228Y-102051703D01*
G37*
G36*
X82798228Y-102051703D02*
G01*
X82953100Y-102115853D01*
X83092481Y-102208985D01*
X83211015Y-102327519D01*
X83304147Y-102466900D01*
X83368297Y-102621772D01*
X83401000Y-102786184D01*
X83401000Y-102953816D01*
X83368297Y-103118228D01*
X83304147Y-103273100D01*
X83211015Y-103412481D01*
X83092481Y-103531015D01*
X82953100Y-103624147D01*
X82798228Y-103688297D01*
X82633816Y-103721000D01*
X82466184Y-103721000D01*
X82301772Y-103688297D01*
X82146900Y-103624147D01*
X82007519Y-103531015D01*
X81888985Y-103412481D01*
X81795853Y-103273100D01*
X81731703Y-103118228D01*
X81699000Y-102953816D01*
X81699000Y-102786184D01*
X81731703Y-102621772D01*
X81795853Y-102466900D01*
X81888985Y-102327519D01*
X82007519Y-102208985D01*
X82146900Y-102115853D01*
X82301772Y-102051703D01*
X82466184Y-102019000D01*
X82633816Y-102019000D01*
X82798228Y-102051703D01*
G37*
G36*
X90943228Y-100766703D02*
G01*
X91098100Y-100830853D01*
X91237481Y-100923985D01*
X91356015Y-101042519D01*
X91449147Y-101181900D01*
X91513297Y-101336772D01*
X91546000Y-101501184D01*
X91546000Y-101668816D01*
X91513297Y-101833228D01*
X91449147Y-101988100D01*
X91356015Y-102127481D01*
X91237481Y-102246015D01*
X91098100Y-102339147D01*
X90943228Y-102403297D01*
X90778816Y-102436000D01*
X90611184Y-102436000D01*
X90446772Y-102403297D01*
X90291900Y-102339147D01*
X90152519Y-102246015D01*
X90033985Y-102127481D01*
X89940853Y-101988100D01*
X89876703Y-101833228D01*
X89844000Y-101668816D01*
X89844000Y-101501184D01*
X89876703Y-101336772D01*
X89940853Y-101181900D01*
X90033985Y-101042519D01*
X90152519Y-100923985D01*
X90291900Y-100830853D01*
X90446772Y-100766703D01*
X90611184Y-100734000D01*
X90778816Y-100734000D01*
X90943228Y-100766703D01*
G37*
G36*
X98563228Y-100766703D02*
G01*
X98718100Y-100830853D01*
X98857481Y-100923985D01*
X98976015Y-101042519D01*
X99069147Y-101181900D01*
X99133297Y-101336772D01*
X99166000Y-101501184D01*
X99166000Y-101668816D01*
X99133297Y-101833228D01*
X99069147Y-101988100D01*
X98976015Y-102127481D01*
X98857481Y-102246015D01*
X98718100Y-102339147D01*
X98563228Y-102403297D01*
X98398816Y-102436000D01*
X98231184Y-102436000D01*
X98066772Y-102403297D01*
X97911900Y-102339147D01*
X97772519Y-102246015D01*
X97653985Y-102127481D01*
X97560853Y-101988100D01*
X97496703Y-101833228D01*
X97464000Y-101668816D01*
X97464000Y-101501184D01*
X97496703Y-101336772D01*
X97560853Y-101181900D01*
X97653985Y-101042519D01*
X97772519Y-100923985D01*
X97911900Y-100830853D01*
X98066772Y-100766703D01*
X98231184Y-100734000D01*
X98398816Y-100734000D01*
X98563228Y-100766703D01*
G37*
G36*
X122008228Y-100131703D02*
G01*
X122163100Y-100195853D01*
X122302481Y-100288985D01*
X122421015Y-100407519D01*
X122514147Y-100546900D01*
X122578297Y-100701772D01*
X122611000Y-100866184D01*
X122611000Y-101033816D01*
X122578297Y-101198228D01*
X122514147Y-101353100D01*
X122421015Y-101492481D01*
X122302481Y-101611015D01*
X122163100Y-101704147D01*
X122008228Y-101768297D01*
X121843816Y-101801000D01*
X121676184Y-101801000D01*
X121511772Y-101768297D01*
X121356900Y-101704147D01*
X121217519Y-101611015D01*
X121098985Y-101492481D01*
X121005853Y-101353100D01*
X120941703Y-101198228D01*
X120909000Y-101033816D01*
X120909000Y-100866184D01*
X120941703Y-100701772D01*
X121005853Y-100546900D01*
X121098985Y-100407519D01*
X121217519Y-100288985D01*
X121356900Y-100195853D01*
X121511772Y-100131703D01*
X121676184Y-100099000D01*
X121843816Y-100099000D01*
X122008228Y-100131703D01*
G37*
G36*
X129628228Y-100131703D02*
G01*
X129783100Y-100195853D01*
X129922481Y-100288985D01*
X130041015Y-100407519D01*
X130134147Y-100546900D01*
X130198297Y-100701772D01*
X130231000Y-100866184D01*
X130231000Y-101033816D01*
X130198297Y-101198228D01*
X130134147Y-101353100D01*
X130041015Y-101492481D01*
X129922481Y-101611015D01*
X129783100Y-101704147D01*
X129628228Y-101768297D01*
X129463816Y-101801000D01*
X129296184Y-101801000D01*
X129131772Y-101768297D01*
X128976900Y-101704147D01*
X128837519Y-101611015D01*
X128718985Y-101492481D01*
X128625853Y-101353100D01*
X128561703Y-101198228D01*
X128529000Y-101033816D01*
X128529000Y-100866184D01*
X128561703Y-100701772D01*
X128625853Y-100546900D01*
X128718985Y-100407519D01*
X128837519Y-100288985D01*
X128976900Y-100195853D01*
X129131772Y-100131703D01*
X129296184Y-100099000D01*
X129463816Y-100099000D01*
X129628228Y-100131703D01*
G37*
G36*
X106158228Y-99496703D02*
G01*
X106313100Y-99560853D01*
X106452481Y-99653985D01*
X106571015Y-99772519D01*
X106664147Y-99911900D01*
X106728297Y-100066772D01*
X106761000Y-100231184D01*
X106761000Y-100398816D01*
X106728297Y-100563228D01*
X106664147Y-100718100D01*
X106571015Y-100857481D01*
X106452481Y-100976015D01*
X106313100Y-101069147D01*
X106158228Y-101133297D01*
X105993816Y-101166000D01*
X105826184Y-101166000D01*
X105661772Y-101133297D01*
X105506900Y-101069147D01*
X105367519Y-100976015D01*
X105248985Y-100857481D01*
X105155853Y-100718100D01*
X105091703Y-100563228D01*
X105059000Y-100398816D01*
X105059000Y-100231184D01*
X105091703Y-100066772D01*
X105155853Y-99911900D01*
X105248985Y-99772519D01*
X105367519Y-99653985D01*
X105506900Y-99560853D01*
X105661772Y-99496703D01*
X105826184Y-99464000D01*
X105993816Y-99464000D01*
X106158228Y-99496703D01*
G37*
G36*
X113778228Y-99496703D02*
G01*
X113933100Y-99560853D01*
X114072481Y-99653985D01*
X114191015Y-99772519D01*
X114284147Y-99911900D01*
X114348297Y-100066772D01*
X114381000Y-100231184D01*
X114381000Y-100398816D01*
X114348297Y-100563228D01*
X114284147Y-100718100D01*
X114191015Y-100857481D01*
X114072481Y-100976015D01*
X113933100Y-101069147D01*
X113778228Y-101133297D01*
X113613816Y-101166000D01*
X113446184Y-101166000D01*
X113281772Y-101133297D01*
X113126900Y-101069147D01*
X112987519Y-100976015D01*
X112868985Y-100857481D01*
X112775853Y-100718100D01*
X112711703Y-100563228D01*
X112679000Y-100398816D01*
X112679000Y-100231184D01*
X112711703Y-100066772D01*
X112775853Y-99911900D01*
X112868985Y-99772519D01*
X112987519Y-99653985D01*
X113126900Y-99560853D01*
X113281772Y-99496703D01*
X113446184Y-99464000D01*
X113613816Y-99464000D01*
X113778228Y-99496703D01*
G37*
G36*
X82713228Y-97266703D02*
G01*
X82868100Y-97330853D01*
X83007481Y-97423985D01*
X83126015Y-97542519D01*
X83219147Y-97681900D01*
X83283297Y-97836772D01*
X83316000Y-98001184D01*
X83316000Y-98168816D01*
X83283297Y-98333228D01*
X83219147Y-98488100D01*
X83126015Y-98627481D01*
X83007481Y-98746015D01*
X82868100Y-98839147D01*
X82713228Y-98903297D01*
X82548816Y-98936000D01*
X82381184Y-98936000D01*
X82216772Y-98903297D01*
X82061900Y-98839147D01*
X81922519Y-98746015D01*
X81803985Y-98627481D01*
X81710853Y-98488100D01*
X81646703Y-98333228D01*
X81614000Y-98168816D01*
X81614000Y-98001184D01*
X81646703Y-97836772D01*
X81710853Y-97681900D01*
X81803985Y-97542519D01*
X81922519Y-97423985D01*
X82061900Y-97330853D01*
X82216772Y-97266703D01*
X82381184Y-97234000D01*
X82548816Y-97234000D01*
X82713228Y-97266703D01*
G37*
G36*
X75093228Y-97266703D02*
G01*
X75248100Y-97330853D01*
X75387481Y-97423985D01*
X75506015Y-97542519D01*
X75599147Y-97681900D01*
X75663297Y-97836772D01*
X75696000Y-98001184D01*
X75696000Y-98168816D01*
X75663297Y-98333228D01*
X75599147Y-98488100D01*
X75506015Y-98627481D01*
X75387481Y-98746015D01*
X75248100Y-98839147D01*
X75093228Y-98903297D01*
X74928816Y-98936000D01*
X74761184Y-98936000D01*
X74596772Y-98903297D01*
X74441900Y-98839147D01*
X74302519Y-98746015D01*
X74183985Y-98627481D01*
X74090853Y-98488100D01*
X74026703Y-98333228D01*
X73994000Y-98168816D01*
X73994000Y-98001184D01*
X74026703Y-97836772D01*
X74090853Y-97681900D01*
X74183985Y-97542519D01*
X74302519Y-97423985D01*
X74441900Y-97330853D01*
X74596772Y-97266703D01*
X74761184Y-97234000D01*
X74928816Y-97234000D01*
X75093228Y-97266703D01*
G37*
G36*
X146298228Y-96971703D02*
G01*
X146453100Y-97035853D01*
X146592481Y-97128985D01*
X146711015Y-97247519D01*
X146804147Y-97386900D01*
X146868297Y-97541772D01*
X146901000Y-97706184D01*
X146901000Y-97873816D01*
X146868297Y-98038228D01*
X146804147Y-98193100D01*
X146711015Y-98332481D01*
X146592481Y-98451015D01*
X146453100Y-98544147D01*
X146298228Y-98608297D01*
X146133816Y-98641000D01*
X145966184Y-98641000D01*
X145801772Y-98608297D01*
X145646900Y-98544147D01*
X145507519Y-98451015D01*
X145388985Y-98332481D01*
X145295853Y-98193100D01*
X145231703Y-98038228D01*
X145199000Y-97873816D01*
X145199000Y-97706184D01*
X145231703Y-97541772D01*
X145295853Y-97386900D01*
X145388985Y-97247519D01*
X145507519Y-97128985D01*
X145646900Y-97035853D01*
X145801772Y-96971703D01*
X145966184Y-96939000D01*
X146133816Y-96939000D01*
X146298228Y-96971703D01*
G37*
G36*
X151298228Y-96971703D02*
G01*
X151453100Y-97035853D01*
X151592481Y-97128985D01*
X151711015Y-97247519D01*
X151804147Y-97386900D01*
X151868297Y-97541772D01*
X151901000Y-97706184D01*
X151901000Y-97873816D01*
X151868297Y-98038228D01*
X151804147Y-98193100D01*
X151711015Y-98332481D01*
X151592481Y-98451015D01*
X151453100Y-98544147D01*
X151298228Y-98608297D01*
X151133816Y-98641000D01*
X150966184Y-98641000D01*
X150801772Y-98608297D01*
X150646900Y-98544147D01*
X150507519Y-98451015D01*
X150388985Y-98332481D01*
X150295853Y-98193100D01*
X150231703Y-98038228D01*
X150199000Y-97873816D01*
X150199000Y-97706184D01*
X150231703Y-97541772D01*
X150295853Y-97386900D01*
X150388985Y-97247519D01*
X150507519Y-97128985D01*
X150646900Y-97035853D01*
X150801772Y-96971703D01*
X150966184Y-96939000D01*
X151133816Y-96939000D01*
X151298228Y-96971703D01*
G37*
G36*
X141773228Y-96971703D02*
G01*
X141928100Y-97035853D01*
X142067481Y-97128985D01*
X142186015Y-97247519D01*
X142279147Y-97386900D01*
X142343297Y-97541772D01*
X142376000Y-97706184D01*
X142376000Y-97873816D01*
X142343297Y-98038228D01*
X142279147Y-98193100D01*
X142186015Y-98332481D01*
X142067481Y-98451015D01*
X141928100Y-98544147D01*
X141773228Y-98608297D01*
X141608816Y-98641000D01*
X141441184Y-98641000D01*
X141276772Y-98608297D01*
X141121900Y-98544147D01*
X140982519Y-98451015D01*
X140863985Y-98332481D01*
X140770853Y-98193100D01*
X140706703Y-98038228D01*
X140674000Y-97873816D01*
X140674000Y-97706184D01*
X140706703Y-97541772D01*
X140770853Y-97386900D01*
X140863985Y-97247519D01*
X140982519Y-97128985D01*
X141121900Y-97035853D01*
X141276772Y-96971703D01*
X141441184Y-96939000D01*
X141608816Y-96939000D01*
X141773228Y-96971703D01*
G37*
G36*
X136773228Y-96971703D02*
G01*
X136928100Y-97035853D01*
X137067481Y-97128985D01*
X137186015Y-97247519D01*
X137279147Y-97386900D01*
X137343297Y-97541772D01*
X137376000Y-97706184D01*
X137376000Y-97873816D01*
X137343297Y-98038228D01*
X137279147Y-98193100D01*
X137186015Y-98332481D01*
X137067481Y-98451015D01*
X136928100Y-98544147D01*
X136773228Y-98608297D01*
X136608816Y-98641000D01*
X136441184Y-98641000D01*
X136276772Y-98608297D01*
X136121900Y-98544147D01*
X135982519Y-98451015D01*
X135863985Y-98332481D01*
X135770853Y-98193100D01*
X135706703Y-98038228D01*
X135674000Y-97873816D01*
X135674000Y-97706184D01*
X135706703Y-97541772D01*
X135770853Y-97386900D01*
X135863985Y-97247519D01*
X135982519Y-97128985D01*
X136121900Y-97035853D01*
X136276772Y-96971703D01*
X136441184Y-96939000D01*
X136608816Y-96939000D01*
X136773228Y-96971703D01*
G37*
G36*
X129628228Y-95446703D02*
G01*
X129783100Y-95510853D01*
X129922481Y-95603985D01*
X130041015Y-95722519D01*
X130134147Y-95861900D01*
X130198297Y-96016772D01*
X130231000Y-96181184D01*
X130231000Y-96348816D01*
X130198297Y-96513228D01*
X130134147Y-96668100D01*
X130041015Y-96807481D01*
X129922481Y-96926015D01*
X129783100Y-97019147D01*
X129628228Y-97083297D01*
X129463816Y-97116000D01*
X129296184Y-97116000D01*
X129131772Y-97083297D01*
X128976900Y-97019147D01*
X128837519Y-96926015D01*
X128718985Y-96807481D01*
X128625853Y-96668100D01*
X128561703Y-96513228D01*
X128529000Y-96348816D01*
X128529000Y-96181184D01*
X128561703Y-96016772D01*
X128625853Y-95861900D01*
X128718985Y-95722519D01*
X128837519Y-95603985D01*
X128976900Y-95510853D01*
X129131772Y-95446703D01*
X129296184Y-95414000D01*
X129463816Y-95414000D01*
X129628228Y-95446703D01*
G37*
G36*
X122008228Y-95446703D02*
G01*
X122163100Y-95510853D01*
X122302481Y-95603985D01*
X122421015Y-95722519D01*
X122514147Y-95861900D01*
X122578297Y-96016772D01*
X122611000Y-96181184D01*
X122611000Y-96348816D01*
X122578297Y-96513228D01*
X122514147Y-96668100D01*
X122421015Y-96807481D01*
X122302481Y-96926015D01*
X122163100Y-97019147D01*
X122008228Y-97083297D01*
X121843816Y-97116000D01*
X121676184Y-97116000D01*
X121511772Y-97083297D01*
X121356900Y-97019147D01*
X121217519Y-96926015D01*
X121098985Y-96807481D01*
X121005853Y-96668100D01*
X120941703Y-96513228D01*
X120909000Y-96348816D01*
X120909000Y-96181184D01*
X120941703Y-96016772D01*
X121005853Y-95861900D01*
X121098985Y-95722519D01*
X121217519Y-95603985D01*
X121356900Y-95510853D01*
X121511772Y-95446703D01*
X121676184Y-95414000D01*
X121843816Y-95414000D01*
X122008228Y-95446703D01*
G37*
G36*
X98563228Y-95446703D02*
G01*
X98718100Y-95510853D01*
X98857481Y-95603985D01*
X98976015Y-95722519D01*
X99069147Y-95861900D01*
X99133297Y-96016772D01*
X99166000Y-96181184D01*
X99166000Y-96348816D01*
X99133297Y-96513228D01*
X99069147Y-96668100D01*
X98976015Y-96807481D01*
X98857481Y-96926015D01*
X98718100Y-97019147D01*
X98563228Y-97083297D01*
X98398816Y-97116000D01*
X98231184Y-97116000D01*
X98066772Y-97083297D01*
X97911900Y-97019147D01*
X97772519Y-96926015D01*
X97653985Y-96807481D01*
X97560853Y-96668100D01*
X97496703Y-96513228D01*
X97464000Y-96348816D01*
X97464000Y-96181184D01*
X97496703Y-96016772D01*
X97560853Y-95861900D01*
X97653985Y-95722519D01*
X97772519Y-95603985D01*
X97911900Y-95510853D01*
X98066772Y-95446703D01*
X98231184Y-95414000D01*
X98398816Y-95414000D01*
X98563228Y-95446703D01*
G37*
G36*
X90943228Y-95446703D02*
G01*
X91098100Y-95510853D01*
X91237481Y-95603985D01*
X91356015Y-95722519D01*
X91449147Y-95861900D01*
X91513297Y-96016772D01*
X91546000Y-96181184D01*
X91546000Y-96348816D01*
X91513297Y-96513228D01*
X91449147Y-96668100D01*
X91356015Y-96807481D01*
X91237481Y-96926015D01*
X91098100Y-97019147D01*
X90943228Y-97083297D01*
X90778816Y-97116000D01*
X90611184Y-97116000D01*
X90446772Y-97083297D01*
X90291900Y-97019147D01*
X90152519Y-96926015D01*
X90033985Y-96807481D01*
X89940853Y-96668100D01*
X89876703Y-96513228D01*
X89844000Y-96348816D01*
X89844000Y-96181184D01*
X89876703Y-96016772D01*
X89940853Y-95861900D01*
X90033985Y-95722519D01*
X90152519Y-95603985D01*
X90291900Y-95510853D01*
X90446772Y-95446703D01*
X90611184Y-95414000D01*
X90778816Y-95414000D01*
X90943228Y-95446703D01*
G37*
G36*
X113778228Y-94811703D02*
G01*
X113933100Y-94875853D01*
X114072481Y-94968985D01*
X114191015Y-95087519D01*
X114284147Y-95226900D01*
X114348297Y-95381772D01*
X114381000Y-95546184D01*
X114381000Y-95713816D01*
X114348297Y-95878228D01*
X114284147Y-96033100D01*
X114191015Y-96172481D01*
X114072481Y-96291015D01*
X113933100Y-96384147D01*
X113778228Y-96448297D01*
X113613816Y-96481000D01*
X113446184Y-96481000D01*
X113281772Y-96448297D01*
X113126900Y-96384147D01*
X112987519Y-96291015D01*
X112868985Y-96172481D01*
X112775853Y-96033100D01*
X112711703Y-95878228D01*
X112679000Y-95713816D01*
X112679000Y-95546184D01*
X112711703Y-95381772D01*
X112775853Y-95226900D01*
X112868985Y-95087519D01*
X112987519Y-94968985D01*
X113126900Y-94875853D01*
X113281772Y-94811703D01*
X113446184Y-94779000D01*
X113613816Y-94779000D01*
X113778228Y-94811703D01*
G37*
G36*
X106158228Y-94811703D02*
G01*
X106313100Y-94875853D01*
X106452481Y-94968985D01*
X106571015Y-95087519D01*
X106664147Y-95226900D01*
X106728297Y-95381772D01*
X106761000Y-95546184D01*
X106761000Y-95713816D01*
X106728297Y-95878228D01*
X106664147Y-96033100D01*
X106571015Y-96172481D01*
X106452481Y-96291015D01*
X106313100Y-96384147D01*
X106158228Y-96448297D01*
X105993816Y-96481000D01*
X105826184Y-96481000D01*
X105661772Y-96448297D01*
X105506900Y-96384147D01*
X105367519Y-96291015D01*
X105248985Y-96172481D01*
X105155853Y-96033100D01*
X105091703Y-95878228D01*
X105059000Y-95713816D01*
X105059000Y-95546184D01*
X105091703Y-95381772D01*
X105155853Y-95226900D01*
X105248985Y-95087519D01*
X105367519Y-94968985D01*
X105506900Y-94875853D01*
X105661772Y-94811703D01*
X105826184Y-94779000D01*
X105993816Y-94779000D01*
X106158228Y-94811703D01*
G37*
G36*
X82713228Y-93216703D02*
G01*
X82868100Y-93280853D01*
X83007481Y-93373985D01*
X83126015Y-93492519D01*
X83219147Y-93631900D01*
X83283297Y-93786772D01*
X83316000Y-93951184D01*
X83316000Y-94118816D01*
X83283297Y-94283228D01*
X83219147Y-94438100D01*
X83126015Y-94577481D01*
X83007481Y-94696015D01*
X82868100Y-94789147D01*
X82713228Y-94853297D01*
X82548816Y-94886000D01*
X82381184Y-94886000D01*
X82216772Y-94853297D01*
X82061900Y-94789147D01*
X81922519Y-94696015D01*
X81803985Y-94577481D01*
X81710853Y-94438100D01*
X81646703Y-94283228D01*
X81614000Y-94118816D01*
X81614000Y-93951184D01*
X81646703Y-93786772D01*
X81710853Y-93631900D01*
X81803985Y-93492519D01*
X81922519Y-93373985D01*
X82061900Y-93280853D01*
X82216772Y-93216703D01*
X82381184Y-93184000D01*
X82548816Y-93184000D01*
X82713228Y-93216703D01*
G37*
G36*
X75093228Y-93216703D02*
G01*
X75248100Y-93280853D01*
X75387481Y-93373985D01*
X75506015Y-93492519D01*
X75599147Y-93631900D01*
X75663297Y-93786772D01*
X75696000Y-93951184D01*
X75696000Y-94118816D01*
X75663297Y-94283228D01*
X75599147Y-94438100D01*
X75506015Y-94577481D01*
X75387481Y-94696015D01*
X75248100Y-94789147D01*
X75093228Y-94853297D01*
X74928816Y-94886000D01*
X74761184Y-94886000D01*
X74596772Y-94853297D01*
X74441900Y-94789147D01*
X74302519Y-94696015D01*
X74183985Y-94577481D01*
X74090853Y-94438100D01*
X74026703Y-94283228D01*
X73994000Y-94118816D01*
X73994000Y-93951184D01*
X74026703Y-93786772D01*
X74090853Y-93631900D01*
X74183985Y-93492519D01*
X74302519Y-93373985D01*
X74441900Y-93280853D01*
X74596772Y-93216703D01*
X74761184Y-93184000D01*
X74928816Y-93184000D01*
X75093228Y-93216703D01*
G37*
G36*
X146298228Y-91256703D02*
G01*
X146453100Y-91320853D01*
X146592481Y-91413985D01*
X146711015Y-91532519D01*
X146804147Y-91671900D01*
X146868297Y-91826772D01*
X146901000Y-91991184D01*
X146901000Y-92158816D01*
X146868297Y-92323228D01*
X146804147Y-92478100D01*
X146711015Y-92617481D01*
X146592481Y-92736015D01*
X146453100Y-92829147D01*
X146298228Y-92893297D01*
X146133816Y-92926000D01*
X145966184Y-92926000D01*
X145801772Y-92893297D01*
X145646900Y-92829147D01*
X145507519Y-92736015D01*
X145388985Y-92617481D01*
X145295853Y-92478100D01*
X145231703Y-92323228D01*
X145199000Y-92158816D01*
X145199000Y-91991184D01*
X145231703Y-91826772D01*
X145295853Y-91671900D01*
X145388985Y-91532519D01*
X145507519Y-91413985D01*
X145646900Y-91320853D01*
X145801772Y-91256703D01*
X145966184Y-91224000D01*
X146133816Y-91224000D01*
X146298228Y-91256703D01*
G37*
G36*
X151298228Y-91256703D02*
G01*
X151453100Y-91320853D01*
X151592481Y-91413985D01*
X151711015Y-91532519D01*
X151804147Y-91671900D01*
X151868297Y-91826772D01*
X151901000Y-91991184D01*
X151901000Y-92158816D01*
X151868297Y-92323228D01*
X151804147Y-92478100D01*
X151711015Y-92617481D01*
X151592481Y-92736015D01*
X151453100Y-92829147D01*
X151298228Y-92893297D01*
X151133816Y-92926000D01*
X150966184Y-92926000D01*
X150801772Y-92893297D01*
X150646900Y-92829147D01*
X150507519Y-92736015D01*
X150388985Y-92617481D01*
X150295853Y-92478100D01*
X150231703Y-92323228D01*
X150199000Y-92158816D01*
X150199000Y-91991184D01*
X150231703Y-91826772D01*
X150295853Y-91671900D01*
X150388985Y-91532519D01*
X150507519Y-91413985D01*
X150646900Y-91320853D01*
X150801772Y-91256703D01*
X150966184Y-91224000D01*
X151133816Y-91224000D01*
X151298228Y-91256703D01*
G37*
G36*
X136773228Y-91256703D02*
G01*
X136928100Y-91320853D01*
X137067481Y-91413985D01*
X137186015Y-91532519D01*
X137279147Y-91671900D01*
X137343297Y-91826772D01*
X137376000Y-91991184D01*
X137376000Y-92158816D01*
X137343297Y-92323228D01*
X137279147Y-92478100D01*
X137186015Y-92617481D01*
X137067481Y-92736015D01*
X136928100Y-92829147D01*
X136773228Y-92893297D01*
X136608816Y-92926000D01*
X136441184Y-92926000D01*
X136276772Y-92893297D01*
X136121900Y-92829147D01*
X135982519Y-92736015D01*
X135863985Y-92617481D01*
X135770853Y-92478100D01*
X135706703Y-92323228D01*
X135674000Y-92158816D01*
X135674000Y-91991184D01*
X135706703Y-91826772D01*
X135770853Y-91671900D01*
X135863985Y-91532519D01*
X135982519Y-91413985D01*
X136121900Y-91320853D01*
X136276772Y-91256703D01*
X136441184Y-91224000D01*
X136608816Y-91224000D01*
X136773228Y-91256703D01*
G37*
G36*
X141773228Y-91256703D02*
G01*
X141928100Y-91320853D01*
X142067481Y-91413985D01*
X142186015Y-91532519D01*
X142279147Y-91671900D01*
X142343297Y-91826772D01*
X142376000Y-91991184D01*
X142376000Y-92158816D01*
X142343297Y-92323228D01*
X142279147Y-92478100D01*
X142186015Y-92617481D01*
X142067481Y-92736015D01*
X141928100Y-92829147D01*
X141773228Y-92893297D01*
X141608816Y-92926000D01*
X141441184Y-92926000D01*
X141276772Y-92893297D01*
X141121900Y-92829147D01*
X140982519Y-92736015D01*
X140863985Y-92617481D01*
X140770853Y-92478100D01*
X140706703Y-92323228D01*
X140674000Y-92158816D01*
X140674000Y-91991184D01*
X140706703Y-91826772D01*
X140770853Y-91671900D01*
X140863985Y-91532519D01*
X140982519Y-91413985D01*
X141121900Y-91320853D01*
X141276772Y-91256703D01*
X141441184Y-91224000D01*
X141608816Y-91224000D01*
X141773228Y-91256703D01*
G37*
G36*
X129628228Y-90761703D02*
G01*
X129783100Y-90825853D01*
X129922481Y-90918985D01*
X130041015Y-91037519D01*
X130134147Y-91176900D01*
X130198297Y-91331772D01*
X130231000Y-91496184D01*
X130231000Y-91663816D01*
X130198297Y-91828228D01*
X130134147Y-91983100D01*
X130041015Y-92122481D01*
X129922481Y-92241015D01*
X129783100Y-92334147D01*
X129628228Y-92398297D01*
X129463816Y-92431000D01*
X129296184Y-92431000D01*
X129131772Y-92398297D01*
X128976900Y-92334147D01*
X128837519Y-92241015D01*
X128718985Y-92122481D01*
X128625853Y-91983100D01*
X128561703Y-91828228D01*
X128529000Y-91663816D01*
X128529000Y-91496184D01*
X128561703Y-91331772D01*
X128625853Y-91176900D01*
X128718985Y-91037519D01*
X128837519Y-90918985D01*
X128976900Y-90825853D01*
X129131772Y-90761703D01*
X129296184Y-90729000D01*
X129463816Y-90729000D01*
X129628228Y-90761703D01*
G37*
G36*
X122008228Y-90761703D02*
G01*
X122163100Y-90825853D01*
X122302481Y-90918985D01*
X122421015Y-91037519D01*
X122514147Y-91176900D01*
X122578297Y-91331772D01*
X122611000Y-91496184D01*
X122611000Y-91663816D01*
X122578297Y-91828228D01*
X122514147Y-91983100D01*
X122421015Y-92122481D01*
X122302481Y-92241015D01*
X122163100Y-92334147D01*
X122008228Y-92398297D01*
X121843816Y-92431000D01*
X121676184Y-92431000D01*
X121511772Y-92398297D01*
X121356900Y-92334147D01*
X121217519Y-92241015D01*
X121098985Y-92122481D01*
X121005853Y-91983100D01*
X120941703Y-91828228D01*
X120909000Y-91663816D01*
X120909000Y-91496184D01*
X120941703Y-91331772D01*
X121005853Y-91176900D01*
X121098985Y-91037519D01*
X121217519Y-90918985D01*
X121356900Y-90825853D01*
X121511772Y-90761703D01*
X121676184Y-90729000D01*
X121843816Y-90729000D01*
X122008228Y-90761703D01*
G37*
G36*
X98563228Y-90761703D02*
G01*
X98718100Y-90825853D01*
X98857481Y-90918985D01*
X98976015Y-91037519D01*
X99069147Y-91176900D01*
X99133297Y-91331772D01*
X99166000Y-91496184D01*
X99166000Y-91663816D01*
X99133297Y-91828228D01*
X99069147Y-91983100D01*
X98976015Y-92122481D01*
X98857481Y-92241015D01*
X98718100Y-92334147D01*
X98563228Y-92398297D01*
X98398816Y-92431000D01*
X98231184Y-92431000D01*
X98066772Y-92398297D01*
X97911900Y-92334147D01*
X97772519Y-92241015D01*
X97653985Y-92122481D01*
X97560853Y-91983100D01*
X97496703Y-91828228D01*
X97464000Y-91663816D01*
X97464000Y-91496184D01*
X97496703Y-91331772D01*
X97560853Y-91176900D01*
X97653985Y-91037519D01*
X97772519Y-90918985D01*
X97911900Y-90825853D01*
X98066772Y-90761703D01*
X98231184Y-90729000D01*
X98398816Y-90729000D01*
X98563228Y-90761703D01*
G37*
G36*
X90943228Y-90761703D02*
G01*
X91098100Y-90825853D01*
X91237481Y-90918985D01*
X91356015Y-91037519D01*
X91449147Y-91176900D01*
X91513297Y-91331772D01*
X91546000Y-91496184D01*
X91546000Y-91663816D01*
X91513297Y-91828228D01*
X91449147Y-91983100D01*
X91356015Y-92122481D01*
X91237481Y-92241015D01*
X91098100Y-92334147D01*
X90943228Y-92398297D01*
X90778816Y-92431000D01*
X90611184Y-92431000D01*
X90446772Y-92398297D01*
X90291900Y-92334147D01*
X90152519Y-92241015D01*
X90033985Y-92122481D01*
X89940853Y-91983100D01*
X89876703Y-91828228D01*
X89844000Y-91663816D01*
X89844000Y-91496184D01*
X89876703Y-91331772D01*
X89940853Y-91176900D01*
X90033985Y-91037519D01*
X90152519Y-90918985D01*
X90291900Y-90825853D01*
X90446772Y-90761703D01*
X90611184Y-90729000D01*
X90778816Y-90729000D01*
X90943228Y-90761703D01*
G37*
G36*
X106158228Y-90126703D02*
G01*
X106313100Y-90190853D01*
X106452481Y-90283985D01*
X106571015Y-90402519D01*
X106664147Y-90541900D01*
X106728297Y-90696772D01*
X106761000Y-90861184D01*
X106761000Y-91028816D01*
X106728297Y-91193228D01*
X106664147Y-91348100D01*
X106571015Y-91487481D01*
X106452481Y-91606015D01*
X106313100Y-91699147D01*
X106158228Y-91763297D01*
X105993816Y-91796000D01*
X105826184Y-91796000D01*
X105661772Y-91763297D01*
X105506900Y-91699147D01*
X105367519Y-91606015D01*
X105248985Y-91487481D01*
X105155853Y-91348100D01*
X105091703Y-91193228D01*
X105059000Y-91028816D01*
X105059000Y-90861184D01*
X105091703Y-90696772D01*
X105155853Y-90541900D01*
X105248985Y-90402519D01*
X105367519Y-90283985D01*
X105506900Y-90190853D01*
X105661772Y-90126703D01*
X105826184Y-90094000D01*
X105993816Y-90094000D01*
X106158228Y-90126703D01*
G37*
G36*
X113778228Y-90126703D02*
G01*
X113933100Y-90190853D01*
X114072481Y-90283985D01*
X114191015Y-90402519D01*
X114284147Y-90541900D01*
X114348297Y-90696772D01*
X114381000Y-90861184D01*
X114381000Y-91028816D01*
X114348297Y-91193228D01*
X114284147Y-91348100D01*
X114191015Y-91487481D01*
X114072481Y-91606015D01*
X113933100Y-91699147D01*
X113778228Y-91763297D01*
X113613816Y-91796000D01*
X113446184Y-91796000D01*
X113281772Y-91763297D01*
X113126900Y-91699147D01*
X112987519Y-91606015D01*
X112868985Y-91487481D01*
X112775853Y-91348100D01*
X112711703Y-91193228D01*
X112679000Y-91028816D01*
X112679000Y-90861184D01*
X112711703Y-90696772D01*
X112775853Y-90541900D01*
X112868985Y-90402519D01*
X112987519Y-90283985D01*
X113126900Y-90190853D01*
X113281772Y-90126703D01*
X113446184Y-90094000D01*
X113613816Y-90094000D01*
X113778228Y-90126703D01*
G37*
G36*
X75093228Y-88531703D02*
G01*
X75248100Y-88595853D01*
X75387481Y-88688985D01*
X75506015Y-88807519D01*
X75599147Y-88946900D01*
X75663297Y-89101772D01*
X75696000Y-89266184D01*
X75696000Y-89433816D01*
X75663297Y-89598228D01*
X75599147Y-89753100D01*
X75506015Y-89892481D01*
X75387481Y-90011015D01*
X75248100Y-90104147D01*
X75093228Y-90168297D01*
X74928816Y-90201000D01*
X74761184Y-90201000D01*
X74596772Y-90168297D01*
X74441900Y-90104147D01*
X74302519Y-90011015D01*
X74183985Y-89892481D01*
X74090853Y-89753100D01*
X74026703Y-89598228D01*
X73994000Y-89433816D01*
X73994000Y-89266184D01*
X74026703Y-89101772D01*
X74090853Y-88946900D01*
X74183985Y-88807519D01*
X74302519Y-88688985D01*
X74441900Y-88595853D01*
X74596772Y-88531703D01*
X74761184Y-88499000D01*
X74928816Y-88499000D01*
X75093228Y-88531703D01*
G37*
G36*
X82713228Y-88531703D02*
G01*
X82868100Y-88595853D01*
X83007481Y-88688985D01*
X83126015Y-88807519D01*
X83219147Y-88946900D01*
X83283297Y-89101772D01*
X83316000Y-89266184D01*
X83316000Y-89433816D01*
X83283297Y-89598228D01*
X83219147Y-89753100D01*
X83126015Y-89892481D01*
X83007481Y-90011015D01*
X82868100Y-90104147D01*
X82713228Y-90168297D01*
X82548816Y-90201000D01*
X82381184Y-90201000D01*
X82216772Y-90168297D01*
X82061900Y-90104147D01*
X81922519Y-90011015D01*
X81803985Y-89892481D01*
X81710853Y-89753100D01*
X81646703Y-89598228D01*
X81614000Y-89433816D01*
X81614000Y-89266184D01*
X81646703Y-89101772D01*
X81710853Y-88946900D01*
X81803985Y-88807519D01*
X81922519Y-88688985D01*
X82061900Y-88595853D01*
X82216772Y-88531703D01*
X82381184Y-88499000D01*
X82548816Y-88499000D01*
X82713228Y-88531703D01*
G37*
G36*
X66788512Y-88003927D02*
G01*
X66937812Y-88033624D01*
X67101784Y-88101544D01*
X67249354Y-88200147D01*
X67374853Y-88325646D01*
X67473456Y-88473216D01*
X67541376Y-88637188D01*
X67576000Y-88811259D01*
X67576000Y-88988741D01*
X67541376Y-89162812D01*
X67473456Y-89326784D01*
X67374853Y-89474354D01*
X67249354Y-89599853D01*
X67101784Y-89698456D01*
X66937812Y-89766376D01*
X66788512Y-89796073D01*
X66763742Y-89801000D01*
X66586258Y-89801000D01*
X66561488Y-89796073D01*
X66412188Y-89766376D01*
X66248216Y-89698456D01*
X66100646Y-89599853D01*
X65975147Y-89474354D01*
X65876544Y-89326784D01*
X65808624Y-89162812D01*
X65774000Y-88988741D01*
X65774000Y-88811259D01*
X65808624Y-88637188D01*
X65876544Y-88473216D01*
X65975147Y-88325646D01*
X66100646Y-88200147D01*
X66248216Y-88101544D01*
X66412188Y-88033624D01*
X66561488Y-88003927D01*
X66586258Y-87999000D01*
X66763742Y-87999000D01*
X66788512Y-88003927D01*
G37*
G36*
X136773228Y-86176703D02*
G01*
X136928100Y-86240853D01*
X137067481Y-86333985D01*
X137186015Y-86452519D01*
X137279147Y-86591900D01*
X137343297Y-86746772D01*
X137376000Y-86911184D01*
X137376000Y-87078816D01*
X137343297Y-87243228D01*
X137279147Y-87398100D01*
X137186015Y-87537481D01*
X137067481Y-87656015D01*
X136928100Y-87749147D01*
X136773228Y-87813297D01*
X136608816Y-87846000D01*
X136441184Y-87846000D01*
X136276772Y-87813297D01*
X136121900Y-87749147D01*
X135982519Y-87656015D01*
X135863985Y-87537481D01*
X135770853Y-87398100D01*
X135706703Y-87243228D01*
X135674000Y-87078816D01*
X135674000Y-86911184D01*
X135706703Y-86746772D01*
X135770853Y-86591900D01*
X135863985Y-86452519D01*
X135982519Y-86333985D01*
X136121900Y-86240853D01*
X136276772Y-86176703D01*
X136441184Y-86144000D01*
X136608816Y-86144000D01*
X136773228Y-86176703D01*
G37*
G36*
X98673228Y-86176703D02*
G01*
X98828100Y-86240853D01*
X98967481Y-86333985D01*
X99086015Y-86452519D01*
X99179147Y-86591900D01*
X99243297Y-86746772D01*
X99276000Y-86911184D01*
X99276000Y-87078816D01*
X99243297Y-87243228D01*
X99179147Y-87398100D01*
X99086015Y-87537481D01*
X98967481Y-87656015D01*
X98828100Y-87749147D01*
X98673228Y-87813297D01*
X98508816Y-87846000D01*
X98341184Y-87846000D01*
X98176772Y-87813297D01*
X98021900Y-87749147D01*
X97882519Y-87656015D01*
X97763985Y-87537481D01*
X97670853Y-87398100D01*
X97606703Y-87243228D01*
X97574000Y-87078816D01*
X97574000Y-86911184D01*
X97606703Y-86746772D01*
X97670853Y-86591900D01*
X97763985Y-86452519D01*
X97882519Y-86333985D01*
X98021900Y-86240853D01*
X98176772Y-86176703D01*
X98341184Y-86144000D01*
X98508816Y-86144000D01*
X98673228Y-86176703D01*
G37*
G36*
X91053228Y-86176703D02*
G01*
X91208100Y-86240853D01*
X91347481Y-86333985D01*
X91466015Y-86452519D01*
X91559147Y-86591900D01*
X91623297Y-86746772D01*
X91656000Y-86911184D01*
X91656000Y-87078816D01*
X91623297Y-87243228D01*
X91559147Y-87398100D01*
X91466015Y-87537481D01*
X91347481Y-87656015D01*
X91208100Y-87749147D01*
X91053228Y-87813297D01*
X90888816Y-87846000D01*
X90721184Y-87846000D01*
X90556772Y-87813297D01*
X90401900Y-87749147D01*
X90262519Y-87656015D01*
X90143985Y-87537481D01*
X90050853Y-87398100D01*
X89986703Y-87243228D01*
X89954000Y-87078816D01*
X89954000Y-86911184D01*
X89986703Y-86746772D01*
X90050853Y-86591900D01*
X90143985Y-86452519D01*
X90262519Y-86333985D01*
X90401900Y-86240853D01*
X90556772Y-86176703D01*
X90721184Y-86144000D01*
X90888816Y-86144000D01*
X91053228Y-86176703D01*
G37*
G36*
X141773228Y-86176703D02*
G01*
X141928100Y-86240853D01*
X142067481Y-86333985D01*
X142186015Y-86452519D01*
X142279147Y-86591900D01*
X142343297Y-86746772D01*
X142376000Y-86911184D01*
X142376000Y-87078816D01*
X142343297Y-87243228D01*
X142279147Y-87398100D01*
X142186015Y-87537481D01*
X142067481Y-87656015D01*
X141928100Y-87749147D01*
X141773228Y-87813297D01*
X141608816Y-87846000D01*
X141441184Y-87846000D01*
X141276772Y-87813297D01*
X141121900Y-87749147D01*
X140982519Y-87656015D01*
X140863985Y-87537481D01*
X140770853Y-87398100D01*
X140706703Y-87243228D01*
X140674000Y-87078816D01*
X140674000Y-86911184D01*
X140706703Y-86746772D01*
X140770853Y-86591900D01*
X140863985Y-86452519D01*
X140982519Y-86333985D01*
X141121900Y-86240853D01*
X141276772Y-86176703D01*
X141441184Y-86144000D01*
X141608816Y-86144000D01*
X141773228Y-86176703D01*
G37*
G36*
X129628228Y-86076703D02*
G01*
X129783100Y-86140853D01*
X129922481Y-86233985D01*
X130041015Y-86352519D01*
X130134147Y-86491900D01*
X130198297Y-86646772D01*
X130231000Y-86811184D01*
X130231000Y-86978816D01*
X130198297Y-87143228D01*
X130134147Y-87298100D01*
X130041015Y-87437481D01*
X129922481Y-87556015D01*
X129783100Y-87649147D01*
X129628228Y-87713297D01*
X129463816Y-87746000D01*
X129296184Y-87746000D01*
X129131772Y-87713297D01*
X128976900Y-87649147D01*
X128837519Y-87556015D01*
X128718985Y-87437481D01*
X128625853Y-87298100D01*
X128561703Y-87143228D01*
X128529000Y-86978816D01*
X128529000Y-86811184D01*
X128561703Y-86646772D01*
X128625853Y-86491900D01*
X128718985Y-86352519D01*
X128837519Y-86233985D01*
X128976900Y-86140853D01*
X129131772Y-86076703D01*
X129296184Y-86044000D01*
X129463816Y-86044000D01*
X129628228Y-86076703D01*
G37*
G36*
X122008228Y-86076703D02*
G01*
X122163100Y-86140853D01*
X122302481Y-86233985D01*
X122421015Y-86352519D01*
X122514147Y-86491900D01*
X122578297Y-86646772D01*
X122611000Y-86811184D01*
X122611000Y-86978816D01*
X122578297Y-87143228D01*
X122514147Y-87298100D01*
X122421015Y-87437481D01*
X122302481Y-87556015D01*
X122163100Y-87649147D01*
X122008228Y-87713297D01*
X121843816Y-87746000D01*
X121676184Y-87746000D01*
X121511772Y-87713297D01*
X121356900Y-87649147D01*
X121217519Y-87556015D01*
X121098985Y-87437481D01*
X121005853Y-87298100D01*
X120941703Y-87143228D01*
X120909000Y-86978816D01*
X120909000Y-86811184D01*
X120941703Y-86646772D01*
X121005853Y-86491900D01*
X121098985Y-86352519D01*
X121217519Y-86233985D01*
X121356900Y-86140853D01*
X121511772Y-86076703D01*
X121676184Y-86044000D01*
X121843816Y-86044000D01*
X122008228Y-86076703D01*
G37*
G36*
X67576000Y-87261000D02*
G01*
X65774000Y-87261000D01*
X65774000Y-85459000D01*
X67576000Y-85459000D01*
X67576000Y-87261000D01*
G37*
G36*
X146298228Y-85541703D02*
G01*
X146453100Y-85605853D01*
X146592481Y-85698985D01*
X146711015Y-85817519D01*
X146804147Y-85956900D01*
X146868297Y-86111772D01*
X146901000Y-86276184D01*
X146901000Y-86443816D01*
X146868297Y-86608228D01*
X146804147Y-86763100D01*
X146711015Y-86902481D01*
X146592481Y-87021015D01*
X146453100Y-87114147D01*
X146298228Y-87178297D01*
X146133816Y-87211000D01*
X145966184Y-87211000D01*
X145801772Y-87178297D01*
X145646900Y-87114147D01*
X145507519Y-87021015D01*
X145388985Y-86902481D01*
X145295853Y-86763100D01*
X145231703Y-86608228D01*
X145199000Y-86443816D01*
X145199000Y-86276184D01*
X145231703Y-86111772D01*
X145295853Y-85956900D01*
X145388985Y-85817519D01*
X145507519Y-85698985D01*
X145646900Y-85605853D01*
X145801772Y-85541703D01*
X145966184Y-85509000D01*
X146133816Y-85509000D01*
X146298228Y-85541703D01*
G37*
G36*
X151298228Y-85541703D02*
G01*
X151453100Y-85605853D01*
X151592481Y-85698985D01*
X151711015Y-85817519D01*
X151804147Y-85956900D01*
X151868297Y-86111772D01*
X151901000Y-86276184D01*
X151901000Y-86443816D01*
X151868297Y-86608228D01*
X151804147Y-86763100D01*
X151711015Y-86902481D01*
X151592481Y-87021015D01*
X151453100Y-87114147D01*
X151298228Y-87178297D01*
X151133816Y-87211000D01*
X150966184Y-87211000D01*
X150801772Y-87178297D01*
X150646900Y-87114147D01*
X150507519Y-87021015D01*
X150388985Y-86902481D01*
X150295853Y-86763100D01*
X150231703Y-86608228D01*
X150199000Y-86443816D01*
X150199000Y-86276184D01*
X150231703Y-86111772D01*
X150295853Y-85956900D01*
X150388985Y-85817519D01*
X150507519Y-85698985D01*
X150646900Y-85605853D01*
X150801772Y-85541703D01*
X150966184Y-85509000D01*
X151133816Y-85509000D01*
X151298228Y-85541703D01*
G37*
G36*
X106158228Y-85441703D02*
G01*
X106313100Y-85505853D01*
X106452481Y-85598985D01*
X106571015Y-85717519D01*
X106664147Y-85856900D01*
X106728297Y-86011772D01*
X106761000Y-86176184D01*
X106761000Y-86343816D01*
X106728297Y-86508228D01*
X106664147Y-86663100D01*
X106571015Y-86802481D01*
X106452481Y-86921015D01*
X106313100Y-87014147D01*
X106158228Y-87078297D01*
X105993816Y-87111000D01*
X105826184Y-87111000D01*
X105661772Y-87078297D01*
X105506900Y-87014147D01*
X105367519Y-86921015D01*
X105248985Y-86802481D01*
X105155853Y-86663100D01*
X105091703Y-86508228D01*
X105059000Y-86343816D01*
X105059000Y-86176184D01*
X105091703Y-86011772D01*
X105155853Y-85856900D01*
X105248985Y-85717519D01*
X105367519Y-85598985D01*
X105506900Y-85505853D01*
X105661772Y-85441703D01*
X105826184Y-85409000D01*
X105993816Y-85409000D01*
X106158228Y-85441703D01*
G37*
G36*
X113778228Y-85441703D02*
G01*
X113933100Y-85505853D01*
X114072481Y-85598985D01*
X114191015Y-85717519D01*
X114284147Y-85856900D01*
X114348297Y-86011772D01*
X114381000Y-86176184D01*
X114381000Y-86343816D01*
X114348297Y-86508228D01*
X114284147Y-86663100D01*
X114191015Y-86802481D01*
X114072481Y-86921015D01*
X113933100Y-87014147D01*
X113778228Y-87078297D01*
X113613816Y-87111000D01*
X113446184Y-87111000D01*
X113281772Y-87078297D01*
X113126900Y-87014147D01*
X112987519Y-86921015D01*
X112868985Y-86802481D01*
X112775853Y-86663100D01*
X112711703Y-86508228D01*
X112679000Y-86343816D01*
X112679000Y-86176184D01*
X112711703Y-86011772D01*
X112775853Y-85856900D01*
X112868985Y-85717519D01*
X112987519Y-85598985D01*
X113126900Y-85505853D01*
X113281772Y-85441703D01*
X113446184Y-85409000D01*
X113613816Y-85409000D01*
X113778228Y-85441703D01*
G37*
G36*
X82763228Y-82771703D02*
G01*
X82918100Y-82835853D01*
X83057481Y-82928985D01*
X83176015Y-83047519D01*
X83269147Y-83186900D01*
X83333297Y-83341772D01*
X83366000Y-83506184D01*
X83366000Y-83673816D01*
X83333297Y-83838228D01*
X83269147Y-83993100D01*
X83176015Y-84132481D01*
X83057481Y-84251015D01*
X82918100Y-84344147D01*
X82763228Y-84408297D01*
X82598816Y-84441000D01*
X82431184Y-84441000D01*
X82266772Y-84408297D01*
X82111900Y-84344147D01*
X81972519Y-84251015D01*
X81853985Y-84132481D01*
X81760853Y-83993100D01*
X81696703Y-83838228D01*
X81664000Y-83673816D01*
X81664000Y-83506184D01*
X81696703Y-83341772D01*
X81760853Y-83186900D01*
X81853985Y-83047519D01*
X81972519Y-82928985D01*
X82111900Y-82835853D01*
X82266772Y-82771703D01*
X82431184Y-82739000D01*
X82598816Y-82739000D01*
X82763228Y-82771703D01*
G37*
G36*
X75143228Y-82771703D02*
G01*
X75298100Y-82835853D01*
X75437481Y-82928985D01*
X75556015Y-83047519D01*
X75649147Y-83186900D01*
X75713297Y-83341772D01*
X75746000Y-83506184D01*
X75746000Y-83673816D01*
X75713297Y-83838228D01*
X75649147Y-83993100D01*
X75556015Y-84132481D01*
X75437481Y-84251015D01*
X75298100Y-84344147D01*
X75143228Y-84408297D01*
X74978816Y-84441000D01*
X74811184Y-84441000D01*
X74646772Y-84408297D01*
X74491900Y-84344147D01*
X74352519Y-84251015D01*
X74233985Y-84132481D01*
X74140853Y-83993100D01*
X74076703Y-83838228D01*
X74044000Y-83673816D01*
X74044000Y-83506184D01*
X74076703Y-83341772D01*
X74140853Y-83186900D01*
X74233985Y-83047519D01*
X74352519Y-82928985D01*
X74491900Y-82835853D01*
X74646772Y-82771703D01*
X74811184Y-82739000D01*
X74978816Y-82739000D01*
X75143228Y-82771703D01*
G37*
G36*
X90823228Y-81476703D02*
G01*
X90978100Y-81540853D01*
X91117481Y-81633985D01*
X91236015Y-81752519D01*
X91329147Y-81891900D01*
X91393297Y-82046772D01*
X91426000Y-82211184D01*
X91426000Y-82378816D01*
X91393297Y-82543228D01*
X91329147Y-82698100D01*
X91236015Y-82837481D01*
X91117481Y-82956015D01*
X90978100Y-83049147D01*
X90823228Y-83113297D01*
X90658816Y-83146000D01*
X90491184Y-83146000D01*
X90326772Y-83113297D01*
X90171900Y-83049147D01*
X90032519Y-82956015D01*
X89913985Y-82837481D01*
X89820853Y-82698100D01*
X89756703Y-82543228D01*
X89724000Y-82378816D01*
X89724000Y-82211184D01*
X89756703Y-82046772D01*
X89820853Y-81891900D01*
X89913985Y-81752519D01*
X90032519Y-81633985D01*
X90171900Y-81540853D01*
X90326772Y-81476703D01*
X90491184Y-81444000D01*
X90658816Y-81444000D01*
X90823228Y-81476703D01*
G37*
G36*
X98443228Y-81476703D02*
G01*
X98598100Y-81540853D01*
X98737481Y-81633985D01*
X98856015Y-81752519D01*
X98949147Y-81891900D01*
X99013297Y-82046772D01*
X99046000Y-82211184D01*
X99046000Y-82378816D01*
X99013297Y-82543228D01*
X98949147Y-82698100D01*
X98856015Y-82837481D01*
X98737481Y-82956015D01*
X98598100Y-83049147D01*
X98443228Y-83113297D01*
X98278816Y-83146000D01*
X98111184Y-83146000D01*
X97946772Y-83113297D01*
X97791900Y-83049147D01*
X97652519Y-82956015D01*
X97533985Y-82837481D01*
X97440853Y-82698100D01*
X97376703Y-82543228D01*
X97344000Y-82378816D01*
X97344000Y-82211184D01*
X97376703Y-82046772D01*
X97440853Y-81891900D01*
X97533985Y-81752519D01*
X97652519Y-81633985D01*
X97791900Y-81540853D01*
X97946772Y-81476703D01*
X98111184Y-81444000D01*
X98278816Y-81444000D01*
X98443228Y-81476703D01*
G37*
G36*
X121888228Y-80841703D02*
G01*
X122043100Y-80905853D01*
X122182481Y-80998985D01*
X122301015Y-81117519D01*
X122394147Y-81256900D01*
X122458297Y-81411772D01*
X122491000Y-81576184D01*
X122491000Y-81743816D01*
X122458297Y-81908228D01*
X122394147Y-82063100D01*
X122301015Y-82202481D01*
X122182481Y-82321015D01*
X122043100Y-82414147D01*
X121888228Y-82478297D01*
X121723816Y-82511000D01*
X121556184Y-82511000D01*
X121391772Y-82478297D01*
X121236900Y-82414147D01*
X121097519Y-82321015D01*
X120978985Y-82202481D01*
X120885853Y-82063100D01*
X120821703Y-81908228D01*
X120789000Y-81743816D01*
X120789000Y-81576184D01*
X120821703Y-81411772D01*
X120885853Y-81256900D01*
X120978985Y-81117519D01*
X121097519Y-80998985D01*
X121236900Y-80905853D01*
X121391772Y-80841703D01*
X121556184Y-80809000D01*
X121723816Y-80809000D01*
X121888228Y-80841703D01*
G37*
G36*
X106038228Y-80841703D02*
G01*
X106193100Y-80905853D01*
X106332481Y-80998985D01*
X106451015Y-81117519D01*
X106544147Y-81256900D01*
X106608297Y-81411772D01*
X106641000Y-81576184D01*
X106641000Y-81743816D01*
X106608297Y-81908228D01*
X106544147Y-82063100D01*
X106451015Y-82202481D01*
X106332481Y-82321015D01*
X106193100Y-82414147D01*
X106038228Y-82478297D01*
X105873816Y-82511000D01*
X105706184Y-82511000D01*
X105541772Y-82478297D01*
X105386900Y-82414147D01*
X105247519Y-82321015D01*
X105128985Y-82202481D01*
X105035853Y-82063100D01*
X104971703Y-81908228D01*
X104939000Y-81743816D01*
X104939000Y-81576184D01*
X104971703Y-81411772D01*
X105035853Y-81256900D01*
X105128985Y-81117519D01*
X105247519Y-80998985D01*
X105386900Y-80905853D01*
X105541772Y-80841703D01*
X105706184Y-80809000D01*
X105873816Y-80809000D01*
X106038228Y-80841703D01*
G37*
G36*
X129508228Y-80841703D02*
G01*
X129663100Y-80905853D01*
X129802481Y-80998985D01*
X129921015Y-81117519D01*
X130014147Y-81256900D01*
X130078297Y-81411772D01*
X130111000Y-81576184D01*
X130111000Y-81743816D01*
X130078297Y-81908228D01*
X130014147Y-82063100D01*
X129921015Y-82202481D01*
X129802481Y-82321015D01*
X129663100Y-82414147D01*
X129508228Y-82478297D01*
X129343816Y-82511000D01*
X129176184Y-82511000D01*
X129011772Y-82478297D01*
X128856900Y-82414147D01*
X128717519Y-82321015D01*
X128598985Y-82202481D01*
X128505853Y-82063100D01*
X128441703Y-81908228D01*
X128409000Y-81743816D01*
X128409000Y-81576184D01*
X128441703Y-81411772D01*
X128505853Y-81256900D01*
X128598985Y-81117519D01*
X128717519Y-80998985D01*
X128856900Y-80905853D01*
X129011772Y-80841703D01*
X129176184Y-80809000D01*
X129343816Y-80809000D01*
X129508228Y-80841703D01*
G37*
G36*
X113658228Y-80841703D02*
G01*
X113813100Y-80905853D01*
X113952481Y-80998985D01*
X114071015Y-81117519D01*
X114164147Y-81256900D01*
X114228297Y-81411772D01*
X114261000Y-81576184D01*
X114261000Y-81743816D01*
X114228297Y-81908228D01*
X114164147Y-82063100D01*
X114071015Y-82202481D01*
X113952481Y-82321015D01*
X113813100Y-82414147D01*
X113658228Y-82478297D01*
X113493816Y-82511000D01*
X113326184Y-82511000D01*
X113161772Y-82478297D01*
X113006900Y-82414147D01*
X112867519Y-82321015D01*
X112748985Y-82202481D01*
X112655853Y-82063100D01*
X112591703Y-81908228D01*
X112559000Y-81743816D01*
X112559000Y-81576184D01*
X112591703Y-81411772D01*
X112655853Y-81256900D01*
X112748985Y-81117519D01*
X112867519Y-80998985D01*
X113006900Y-80905853D01*
X113161772Y-80841703D01*
X113326184Y-80809000D01*
X113493816Y-80809000D01*
X113658228Y-80841703D01*
G37*
G36*
X141773228Y-80461703D02*
G01*
X141928100Y-80525853D01*
X142067481Y-80618985D01*
X142186015Y-80737519D01*
X142279147Y-80876900D01*
X142343297Y-81031772D01*
X142376000Y-81196184D01*
X142376000Y-81363816D01*
X142343297Y-81528228D01*
X142279147Y-81683100D01*
X142186015Y-81822481D01*
X142067481Y-81941015D01*
X141928100Y-82034147D01*
X141773228Y-82098297D01*
X141608816Y-82131000D01*
X141441184Y-82131000D01*
X141276772Y-82098297D01*
X141121900Y-82034147D01*
X140982519Y-81941015D01*
X140863985Y-81822481D01*
X140770853Y-81683100D01*
X140706703Y-81528228D01*
X140674000Y-81363816D01*
X140674000Y-81196184D01*
X140706703Y-81031772D01*
X140770853Y-80876900D01*
X140863985Y-80737519D01*
X140982519Y-80618985D01*
X141121900Y-80525853D01*
X141276772Y-80461703D01*
X141441184Y-80429000D01*
X141608816Y-80429000D01*
X141773228Y-80461703D01*
G37*
G36*
X136773228Y-80461703D02*
G01*
X136928100Y-80525853D01*
X137067481Y-80618985D01*
X137186015Y-80737519D01*
X137279147Y-80876900D01*
X137343297Y-81031772D01*
X137376000Y-81196184D01*
X137376000Y-81363816D01*
X137343297Y-81528228D01*
X137279147Y-81683100D01*
X137186015Y-81822481D01*
X137067481Y-81941015D01*
X136928100Y-82034147D01*
X136773228Y-82098297D01*
X136608816Y-82131000D01*
X136441184Y-82131000D01*
X136276772Y-82098297D01*
X136121900Y-82034147D01*
X135982519Y-81941015D01*
X135863985Y-81822481D01*
X135770853Y-81683100D01*
X135706703Y-81528228D01*
X135674000Y-81363816D01*
X135674000Y-81196184D01*
X135706703Y-81031772D01*
X135770853Y-80876900D01*
X135863985Y-80737519D01*
X135982519Y-80618985D01*
X136121900Y-80525853D01*
X136276772Y-80461703D01*
X136441184Y-80429000D01*
X136608816Y-80429000D01*
X136773228Y-80461703D01*
G37*
G36*
X146298228Y-79826703D02*
G01*
X146453100Y-79890853D01*
X146592481Y-79983985D01*
X146711015Y-80102519D01*
X146804147Y-80241900D01*
X146868297Y-80396772D01*
X146901000Y-80561184D01*
X146901000Y-80728816D01*
X146868297Y-80893228D01*
X146804147Y-81048100D01*
X146711015Y-81187481D01*
X146592481Y-81306015D01*
X146453100Y-81399147D01*
X146298228Y-81463297D01*
X146133816Y-81496000D01*
X145966184Y-81496000D01*
X145801772Y-81463297D01*
X145646900Y-81399147D01*
X145507519Y-81306015D01*
X145388985Y-81187481D01*
X145295853Y-81048100D01*
X145231703Y-80893228D01*
X145199000Y-80728816D01*
X145199000Y-80561184D01*
X145231703Y-80396772D01*
X145295853Y-80241900D01*
X145388985Y-80102519D01*
X145507519Y-79983985D01*
X145646900Y-79890853D01*
X145801772Y-79826703D01*
X145966184Y-79794000D01*
X146133816Y-79794000D01*
X146298228Y-79826703D01*
G37*
G36*
X151298228Y-79826703D02*
G01*
X151453100Y-79890853D01*
X151592481Y-79983985D01*
X151711015Y-80102519D01*
X151804147Y-80241900D01*
X151868297Y-80396772D01*
X151901000Y-80561184D01*
X151901000Y-80728816D01*
X151868297Y-80893228D01*
X151804147Y-81048100D01*
X151711015Y-81187481D01*
X151592481Y-81306015D01*
X151453100Y-81399147D01*
X151298228Y-81463297D01*
X151133816Y-81496000D01*
X150966184Y-81496000D01*
X150801772Y-81463297D01*
X150646900Y-81399147D01*
X150507519Y-81306015D01*
X150388985Y-81187481D01*
X150295853Y-81048100D01*
X150231703Y-80893228D01*
X150199000Y-80728816D01*
X150199000Y-80561184D01*
X150231703Y-80396772D01*
X150295853Y-80241900D01*
X150388985Y-80102519D01*
X150507519Y-79983985D01*
X150646900Y-79890853D01*
X150801772Y-79826703D01*
X150966184Y-79794000D01*
X151133816Y-79794000D01*
X151298228Y-79826703D01*
G37*
G36*
X67576000Y-80911000D02*
G01*
X65774000Y-80911000D01*
X65774000Y-79109000D01*
X67576000Y-79109000D01*
X67576000Y-80911000D01*
G37*
G36*
X82798228Y-77921703D02*
G01*
X82953100Y-77985853D01*
X83092481Y-78078985D01*
X83211015Y-78197519D01*
X83304147Y-78336900D01*
X83368297Y-78491772D01*
X83401000Y-78656184D01*
X83401000Y-78823816D01*
X83368297Y-78988228D01*
X83304147Y-79143100D01*
X83211015Y-79282481D01*
X83092481Y-79401015D01*
X82953100Y-79494147D01*
X82798228Y-79558297D01*
X82633816Y-79591000D01*
X82466184Y-79591000D01*
X82301772Y-79558297D01*
X82146900Y-79494147D01*
X82007519Y-79401015D01*
X81888985Y-79282481D01*
X81795853Y-79143100D01*
X81731703Y-78988228D01*
X81699000Y-78823816D01*
X81699000Y-78656184D01*
X81731703Y-78491772D01*
X81795853Y-78336900D01*
X81888985Y-78197519D01*
X82007519Y-78078985D01*
X82146900Y-77985853D01*
X82301772Y-77921703D01*
X82466184Y-77889000D01*
X82633816Y-77889000D01*
X82798228Y-77921703D01*
G37*
G36*
X75178228Y-77921703D02*
G01*
X75333100Y-77985853D01*
X75472481Y-78078985D01*
X75591015Y-78197519D01*
X75684147Y-78336900D01*
X75748297Y-78491772D01*
X75781000Y-78656184D01*
X75781000Y-78823816D01*
X75748297Y-78988228D01*
X75684147Y-79143100D01*
X75591015Y-79282481D01*
X75472481Y-79401015D01*
X75333100Y-79494147D01*
X75178228Y-79558297D01*
X75013816Y-79591000D01*
X74846184Y-79591000D01*
X74681772Y-79558297D01*
X74526900Y-79494147D01*
X74387519Y-79401015D01*
X74268985Y-79282481D01*
X74175853Y-79143100D01*
X74111703Y-78988228D01*
X74079000Y-78823816D01*
X74079000Y-78656184D01*
X74111703Y-78491772D01*
X74175853Y-78336900D01*
X74268985Y-78197519D01*
X74387519Y-78078985D01*
X74526900Y-77985853D01*
X74681772Y-77921703D01*
X74846184Y-77889000D01*
X75013816Y-77889000D01*
X75178228Y-77921703D01*
G37*
G36*
X90823228Y-76791703D02*
G01*
X90978100Y-76855853D01*
X91117481Y-76948985D01*
X91236015Y-77067519D01*
X91329147Y-77206900D01*
X91393297Y-77361772D01*
X91426000Y-77526184D01*
X91426000Y-77693816D01*
X91393297Y-77858228D01*
X91329147Y-78013100D01*
X91236015Y-78152481D01*
X91117481Y-78271015D01*
X90978100Y-78364147D01*
X90823228Y-78428297D01*
X90658816Y-78461000D01*
X90491184Y-78461000D01*
X90326772Y-78428297D01*
X90171900Y-78364147D01*
X90032519Y-78271015D01*
X89913985Y-78152481D01*
X89820853Y-78013100D01*
X89756703Y-77858228D01*
X89724000Y-77693816D01*
X89724000Y-77526184D01*
X89756703Y-77361772D01*
X89820853Y-77206900D01*
X89913985Y-77067519D01*
X90032519Y-76948985D01*
X90171900Y-76855853D01*
X90326772Y-76791703D01*
X90491184Y-76759000D01*
X90658816Y-76759000D01*
X90823228Y-76791703D01*
G37*
G36*
X98443228Y-76791703D02*
G01*
X98598100Y-76855853D01*
X98737481Y-76948985D01*
X98856015Y-77067519D01*
X98949147Y-77206900D01*
X99013297Y-77361772D01*
X99046000Y-77526184D01*
X99046000Y-77693816D01*
X99013297Y-77858228D01*
X98949147Y-78013100D01*
X98856015Y-78152481D01*
X98737481Y-78271015D01*
X98598100Y-78364147D01*
X98443228Y-78428297D01*
X98278816Y-78461000D01*
X98111184Y-78461000D01*
X97946772Y-78428297D01*
X97791900Y-78364147D01*
X97652519Y-78271015D01*
X97533985Y-78152481D01*
X97440853Y-78013100D01*
X97376703Y-77858228D01*
X97344000Y-77693816D01*
X97344000Y-77526184D01*
X97376703Y-77361772D01*
X97440853Y-77206900D01*
X97533985Y-77067519D01*
X97652519Y-76948985D01*
X97791900Y-76855853D01*
X97946772Y-76791703D01*
X98111184Y-76759000D01*
X98278816Y-76759000D01*
X98443228Y-76791703D01*
G37*
G36*
X113658228Y-76156703D02*
G01*
X113813100Y-76220853D01*
X113952481Y-76313985D01*
X114071015Y-76432519D01*
X114164147Y-76571900D01*
X114228297Y-76726772D01*
X114261000Y-76891184D01*
X114261000Y-77058816D01*
X114228297Y-77223228D01*
X114164147Y-77378100D01*
X114071015Y-77517481D01*
X113952481Y-77636015D01*
X113813100Y-77729147D01*
X113658228Y-77793297D01*
X113493816Y-77826000D01*
X113326184Y-77826000D01*
X113161772Y-77793297D01*
X113006900Y-77729147D01*
X112867519Y-77636015D01*
X112748985Y-77517481D01*
X112655853Y-77378100D01*
X112591703Y-77223228D01*
X112559000Y-77058816D01*
X112559000Y-76891184D01*
X112591703Y-76726772D01*
X112655853Y-76571900D01*
X112748985Y-76432519D01*
X112867519Y-76313985D01*
X113006900Y-76220853D01*
X113161772Y-76156703D01*
X113326184Y-76124000D01*
X113493816Y-76124000D01*
X113658228Y-76156703D01*
G37*
G36*
X106038228Y-76156703D02*
G01*
X106193100Y-76220853D01*
X106332481Y-76313985D01*
X106451015Y-76432519D01*
X106544147Y-76571900D01*
X106608297Y-76726772D01*
X106641000Y-76891184D01*
X106641000Y-77058816D01*
X106608297Y-77223228D01*
X106544147Y-77378100D01*
X106451015Y-77517481D01*
X106332481Y-77636015D01*
X106193100Y-77729147D01*
X106038228Y-77793297D01*
X105873816Y-77826000D01*
X105706184Y-77826000D01*
X105541772Y-77793297D01*
X105386900Y-77729147D01*
X105247519Y-77636015D01*
X105128985Y-77517481D01*
X105035853Y-77378100D01*
X104971703Y-77223228D01*
X104939000Y-77058816D01*
X104939000Y-76891184D01*
X104971703Y-76726772D01*
X105035853Y-76571900D01*
X105128985Y-76432519D01*
X105247519Y-76313985D01*
X105386900Y-76220853D01*
X105541772Y-76156703D01*
X105706184Y-76124000D01*
X105873816Y-76124000D01*
X106038228Y-76156703D01*
G37*
G36*
X129508228Y-75521703D02*
G01*
X129663100Y-75585853D01*
X129802481Y-75678985D01*
X129921015Y-75797519D01*
X130014147Y-75936900D01*
X130078297Y-76091772D01*
X130111000Y-76256184D01*
X130111000Y-76423816D01*
X130078297Y-76588228D01*
X130014147Y-76743100D01*
X129921015Y-76882481D01*
X129802481Y-77001015D01*
X129663100Y-77094147D01*
X129508228Y-77158297D01*
X129343816Y-77191000D01*
X129176184Y-77191000D01*
X129011772Y-77158297D01*
X128856900Y-77094147D01*
X128717519Y-77001015D01*
X128598985Y-76882481D01*
X128505853Y-76743100D01*
X128441703Y-76588228D01*
X128409000Y-76423816D01*
X128409000Y-76256184D01*
X128441703Y-76091772D01*
X128505853Y-75936900D01*
X128598985Y-75797519D01*
X128717519Y-75678985D01*
X128856900Y-75585853D01*
X129011772Y-75521703D01*
X129176184Y-75489000D01*
X129343816Y-75489000D01*
X129508228Y-75521703D01*
G37*
G36*
X121888228Y-75521703D02*
G01*
X122043100Y-75585853D01*
X122182481Y-75678985D01*
X122301015Y-75797519D01*
X122394147Y-75936900D01*
X122458297Y-76091772D01*
X122491000Y-76256184D01*
X122491000Y-76423816D01*
X122458297Y-76588228D01*
X122394147Y-76743100D01*
X122301015Y-76882481D01*
X122182481Y-77001015D01*
X122043100Y-77094147D01*
X121888228Y-77158297D01*
X121723816Y-77191000D01*
X121556184Y-77191000D01*
X121391772Y-77158297D01*
X121236900Y-77094147D01*
X121097519Y-77001015D01*
X120978985Y-76882481D01*
X120885853Y-76743100D01*
X120821703Y-76588228D01*
X120789000Y-76423816D01*
X120789000Y-76256184D01*
X120821703Y-76091772D01*
X120885853Y-75936900D01*
X120978985Y-75797519D01*
X121097519Y-75678985D01*
X121236900Y-75585853D01*
X121391772Y-75521703D01*
X121556184Y-75489000D01*
X121723816Y-75489000D01*
X121888228Y-75521703D01*
G37*
G36*
X150603015Y-73501973D02*
G01*
X150706879Y-73533479D01*
X150734055Y-73548005D01*
X150802600Y-73584643D01*
X150886501Y-73653499D01*
X150955357Y-73737400D01*
X150991995Y-73805945D01*
X151006521Y-73833121D01*
X151038027Y-73936985D01*
X151046000Y-74017933D01*
X151046000Y-74572067D01*
X151038027Y-74653015D01*
X151006521Y-74756879D01*
X150955356Y-74852600D01*
X150886501Y-74936501D01*
X150817645Y-74993009D01*
X150802599Y-75005357D01*
X150750907Y-75032987D01*
X150706878Y-75056521D01*
X150603014Y-75088027D01*
X150495000Y-75098666D01*
X150386985Y-75088027D01*
X150283121Y-75056521D01*
X150239093Y-75032987D01*
X150187401Y-75005357D01*
X150174643Y-74994887D01*
X150103499Y-74936501D01*
X150034644Y-74852600D01*
X149983479Y-74756878D01*
X149979615Y-74744139D01*
X149970239Y-74721503D01*
X149956625Y-74701129D01*
X149939298Y-74683802D01*
X149918923Y-74670188D01*
X149896285Y-74660811D01*
X149872251Y-74656031D01*
X149847747Y-74656031D01*
X149823714Y-74660812D01*
X149801075Y-74670189D01*
X149780701Y-74683803D01*
X149763374Y-74701130D01*
X149749760Y-74721505D01*
X149740388Y-74744131D01*
X149736521Y-74756879D01*
X149685356Y-74852600D01*
X149616501Y-74936501D01*
X149547645Y-74993009D01*
X149532599Y-75005357D01*
X149480907Y-75032987D01*
X149436878Y-75056521D01*
X149333014Y-75088027D01*
X149225000Y-75098666D01*
X149116985Y-75088027D01*
X149013121Y-75056521D01*
X148969093Y-75032987D01*
X148917401Y-75005357D01*
X148904643Y-74994887D01*
X148833499Y-74936501D01*
X148764644Y-74852600D01*
X148741234Y-74808804D01*
X148727625Y-74788436D01*
X148710298Y-74771109D01*
X148689924Y-74757495D01*
X148667285Y-74748118D01*
X148643252Y-74743337D01*
X148618748Y-74743337D01*
X148594714Y-74748117D01*
X148572076Y-74757494D01*
X148551701Y-74771108D01*
X148534374Y-74788435D01*
X148520760Y-74808809D01*
X148511383Y-74831448D01*
X148506602Y-74855481D01*
X148506000Y-74867734D01*
X148506000Y-75096000D01*
X147404000Y-75096000D01*
X147404000Y-73494000D01*
X148506000Y-73494000D01*
X148506000Y-73722265D01*
X148508402Y-73746651D01*
X148515515Y-73770100D01*
X148527066Y-73791711D01*
X148542611Y-73810653D01*
X148561553Y-73826198D01*
X148583164Y-73837749D01*
X148606613Y-73844862D01*
X148630999Y-73847264D01*
X148655385Y-73844862D01*
X148678834Y-73837749D01*
X148700445Y-73826198D01*
X148719387Y-73810653D01*
X148734932Y-73791711D01*
X148741239Y-73781188D01*
X148764644Y-73737399D01*
X148833500Y-73653499D01*
X148917401Y-73584643D01*
X148985946Y-73548005D01*
X149013122Y-73533479D01*
X149116986Y-73501973D01*
X149225000Y-73491334D01*
X149333015Y-73501973D01*
X149436879Y-73533479D01*
X149464055Y-73548005D01*
X149532600Y-73584643D01*
X149616501Y-73653499D01*
X149685357Y-73737400D01*
X149721995Y-73805945D01*
X149736521Y-73833121D01*
X149740388Y-73845869D01*
X149749760Y-73868496D01*
X149763374Y-73888870D01*
X149780701Y-73906197D01*
X149801075Y-73919811D01*
X149823714Y-73929188D01*
X149847747Y-73933969D01*
X149872251Y-73933969D01*
X149896285Y-73929189D01*
X149918924Y-73919812D01*
X149939298Y-73906198D01*
X149956625Y-73888871D01*
X149970239Y-73868497D01*
X149979617Y-73845857D01*
X149979919Y-73844862D01*
X149983480Y-73833121D01*
X149983481Y-73833118D01*
X150034643Y-73737401D01*
X150103500Y-73653499D01*
X150187401Y-73584643D01*
X150255946Y-73548005D01*
X150283122Y-73533479D01*
X150386986Y-73501973D01*
X150495000Y-73491334D01*
X150603015Y-73501973D01*
G37*
G36*
X141713015Y-73501973D02*
G01*
X141816879Y-73533479D01*
X141844055Y-73548005D01*
X141912600Y-73584643D01*
X141996501Y-73653499D01*
X142065357Y-73737400D01*
X142101995Y-73805945D01*
X142116521Y-73833121D01*
X142148027Y-73936985D01*
X142156000Y-74017933D01*
X142156000Y-74572067D01*
X142148027Y-74653015D01*
X142116521Y-74756879D01*
X142065356Y-74852600D01*
X141996501Y-74936501D01*
X141927645Y-74993009D01*
X141912599Y-75005357D01*
X141860907Y-75032987D01*
X141816878Y-75056521D01*
X141713014Y-75088027D01*
X141605000Y-75098666D01*
X141496985Y-75088027D01*
X141393121Y-75056521D01*
X141349093Y-75032987D01*
X141297401Y-75005357D01*
X141284643Y-74994887D01*
X141213499Y-74936501D01*
X141144644Y-74852600D01*
X141093479Y-74756878D01*
X141089615Y-74744139D01*
X141080239Y-74721503D01*
X141066625Y-74701129D01*
X141049298Y-74683802D01*
X141028923Y-74670188D01*
X141006285Y-74660811D01*
X140982251Y-74656031D01*
X140957747Y-74656031D01*
X140933714Y-74660812D01*
X140911075Y-74670189D01*
X140890701Y-74683803D01*
X140873374Y-74701130D01*
X140859760Y-74721505D01*
X140850388Y-74744131D01*
X140846521Y-74756879D01*
X140795356Y-74852600D01*
X140726501Y-74936501D01*
X140657645Y-74993009D01*
X140642599Y-75005357D01*
X140590907Y-75032987D01*
X140546878Y-75056521D01*
X140443014Y-75088027D01*
X140335000Y-75098666D01*
X140226985Y-75088027D01*
X140123121Y-75056521D01*
X140079093Y-75032987D01*
X140027401Y-75005357D01*
X140014643Y-74994887D01*
X139943499Y-74936501D01*
X139874644Y-74852600D01*
X139851234Y-74808804D01*
X139837625Y-74788436D01*
X139820298Y-74771109D01*
X139799924Y-74757495D01*
X139777285Y-74748118D01*
X139753252Y-74743337D01*
X139728748Y-74743337D01*
X139704714Y-74748117D01*
X139682076Y-74757494D01*
X139661701Y-74771108D01*
X139644374Y-74788435D01*
X139630760Y-74808809D01*
X139621383Y-74831448D01*
X139616602Y-74855481D01*
X139616000Y-74867734D01*
X139616000Y-75096000D01*
X138514000Y-75096000D01*
X138514000Y-73494000D01*
X139616000Y-73494000D01*
X139616000Y-73722265D01*
X139618402Y-73746651D01*
X139625515Y-73770100D01*
X139637066Y-73791711D01*
X139652611Y-73810653D01*
X139671553Y-73826198D01*
X139693164Y-73837749D01*
X139716613Y-73844862D01*
X139740999Y-73847264D01*
X139765385Y-73844862D01*
X139788834Y-73837749D01*
X139810445Y-73826198D01*
X139829387Y-73810653D01*
X139844932Y-73791711D01*
X139851239Y-73781188D01*
X139874644Y-73737399D01*
X139943500Y-73653499D01*
X140027401Y-73584643D01*
X140095946Y-73548005D01*
X140123122Y-73533479D01*
X140226986Y-73501973D01*
X140335000Y-73491334D01*
X140443015Y-73501973D01*
X140546879Y-73533479D01*
X140574055Y-73548005D01*
X140642600Y-73584643D01*
X140726501Y-73653499D01*
X140795357Y-73737400D01*
X140831995Y-73805945D01*
X140846521Y-73833121D01*
X140850388Y-73845869D01*
X140859760Y-73868496D01*
X140873374Y-73888870D01*
X140890701Y-73906197D01*
X140911075Y-73919811D01*
X140933714Y-73929188D01*
X140957747Y-73933969D01*
X140982251Y-73933969D01*
X141006285Y-73929189D01*
X141028924Y-73919812D01*
X141049298Y-73906198D01*
X141066625Y-73888871D01*
X141080239Y-73868497D01*
X141089617Y-73845857D01*
X141089919Y-73844862D01*
X141093480Y-73833121D01*
X141093481Y-73833118D01*
X141144643Y-73737401D01*
X141213500Y-73653499D01*
X141297401Y-73584643D01*
X141365946Y-73548005D01*
X141393122Y-73533479D01*
X141496986Y-73501973D01*
X141605000Y-73491334D01*
X141713015Y-73501973D01*
G37*
G36*
X66788512Y-72763927D02*
G01*
X66937812Y-72793624D01*
X67101784Y-72861544D01*
X67249354Y-72960147D01*
X67374853Y-73085646D01*
X67473456Y-73233216D01*
X67541376Y-73397188D01*
X67576000Y-73571259D01*
X67576000Y-73748741D01*
X67541376Y-73922812D01*
X67473456Y-74086784D01*
X67374853Y-74234354D01*
X67249354Y-74359853D01*
X67101784Y-74458456D01*
X66937812Y-74526376D01*
X66788512Y-74556073D01*
X66763742Y-74561000D01*
X66586258Y-74561000D01*
X66561488Y-74556073D01*
X66412188Y-74526376D01*
X66248216Y-74458456D01*
X66100646Y-74359853D01*
X65975147Y-74234354D01*
X65876544Y-74086784D01*
X65808624Y-73922812D01*
X65774000Y-73748741D01*
X65774000Y-73571259D01*
X65808624Y-73397188D01*
X65876544Y-73233216D01*
X65975147Y-73085646D01*
X66100646Y-72960147D01*
X66248216Y-72861544D01*
X66412188Y-72793624D01*
X66561488Y-72763927D01*
X66586258Y-72759000D01*
X66763742Y-72759000D01*
X66788512Y-72763927D01*
G37*
G36*
X75178228Y-72841703D02*
G01*
X75333100Y-72905853D01*
X75472481Y-72998985D01*
X75591015Y-73117519D01*
X75684147Y-73256900D01*
X75748297Y-73411772D01*
X75781000Y-73576184D01*
X75781000Y-73743816D01*
X75748297Y-73908228D01*
X75684147Y-74063100D01*
X75591015Y-74202481D01*
X75472481Y-74321015D01*
X75333100Y-74414147D01*
X75178228Y-74478297D01*
X75013816Y-74511000D01*
X74846184Y-74511000D01*
X74681772Y-74478297D01*
X74526900Y-74414147D01*
X74387519Y-74321015D01*
X74268985Y-74202481D01*
X74175853Y-74063100D01*
X74111703Y-73908228D01*
X74079000Y-73743816D01*
X74079000Y-73576184D01*
X74111703Y-73411772D01*
X74175853Y-73256900D01*
X74268985Y-73117519D01*
X74387519Y-72998985D01*
X74526900Y-72905853D01*
X74681772Y-72841703D01*
X74846184Y-72809000D01*
X75013816Y-72809000D01*
X75178228Y-72841703D01*
G37*
G36*
X82798228Y-72841703D02*
G01*
X82953100Y-72905853D01*
X83092481Y-72998985D01*
X83211015Y-73117519D01*
X83304147Y-73256900D01*
X83368297Y-73411772D01*
X83401000Y-73576184D01*
X83401000Y-73743816D01*
X83368297Y-73908228D01*
X83304147Y-74063100D01*
X83211015Y-74202481D01*
X83092481Y-74321015D01*
X82953100Y-74414147D01*
X82798228Y-74478297D01*
X82633816Y-74511000D01*
X82466184Y-74511000D01*
X82301772Y-74478297D01*
X82146900Y-74414147D01*
X82007519Y-74321015D01*
X81888985Y-74202481D01*
X81795853Y-74063100D01*
X81731703Y-73908228D01*
X81699000Y-73743816D01*
X81699000Y-73576184D01*
X81731703Y-73411772D01*
X81795853Y-73256900D01*
X81888985Y-73117519D01*
X82007519Y-72998985D01*
X82146900Y-72905853D01*
X82301772Y-72841703D01*
X82466184Y-72809000D01*
X82633816Y-72809000D01*
X82798228Y-72841703D01*
G37*
G36*
X98563228Y-72061703D02*
G01*
X98718100Y-72125853D01*
X98857481Y-72218985D01*
X98976015Y-72337519D01*
X99069147Y-72476900D01*
X99133297Y-72631772D01*
X99166000Y-72796184D01*
X99166000Y-72963816D01*
X99133297Y-73128228D01*
X99069147Y-73283100D01*
X98976015Y-73422481D01*
X98857481Y-73541015D01*
X98718100Y-73634147D01*
X98563228Y-73698297D01*
X98398816Y-73731000D01*
X98231184Y-73731000D01*
X98066772Y-73698297D01*
X97911900Y-73634147D01*
X97772519Y-73541015D01*
X97653985Y-73422481D01*
X97560853Y-73283100D01*
X97496703Y-73128228D01*
X97464000Y-72963816D01*
X97464000Y-72796184D01*
X97496703Y-72631772D01*
X97560853Y-72476900D01*
X97653985Y-72337519D01*
X97772519Y-72218985D01*
X97911900Y-72125853D01*
X98066772Y-72061703D01*
X98231184Y-72029000D01*
X98398816Y-72029000D01*
X98563228Y-72061703D01*
G37*
G36*
X90943228Y-72061703D02*
G01*
X91098100Y-72125853D01*
X91237481Y-72218985D01*
X91356015Y-72337519D01*
X91449147Y-72476900D01*
X91513297Y-72631772D01*
X91546000Y-72796184D01*
X91546000Y-72963816D01*
X91513297Y-73128228D01*
X91449147Y-73283100D01*
X91356015Y-73422481D01*
X91237481Y-73541015D01*
X91098100Y-73634147D01*
X90943228Y-73698297D01*
X90778816Y-73731000D01*
X90611184Y-73731000D01*
X90446772Y-73698297D01*
X90291900Y-73634147D01*
X90152519Y-73541015D01*
X90033985Y-73422481D01*
X89940853Y-73283100D01*
X89876703Y-73128228D01*
X89844000Y-72963816D01*
X89844000Y-72796184D01*
X89876703Y-72631772D01*
X89940853Y-72476900D01*
X90033985Y-72337519D01*
X90152519Y-72218985D01*
X90291900Y-72125853D01*
X90446772Y-72061703D01*
X90611184Y-72029000D01*
X90778816Y-72029000D01*
X90943228Y-72061703D01*
G37*
G36*
X105658228Y-71571703D02*
G01*
X105813100Y-71635853D01*
X105952481Y-71728985D01*
X106071015Y-71847519D01*
X106164147Y-71986900D01*
X106228297Y-72141772D01*
X106261000Y-72306184D01*
X106261000Y-72473816D01*
X106228297Y-72638228D01*
X106164147Y-72793100D01*
X106071015Y-72932481D01*
X105952481Y-73051015D01*
X105813100Y-73144147D01*
X105658228Y-73208297D01*
X105493816Y-73241000D01*
X105326184Y-73241000D01*
X105161772Y-73208297D01*
X105006900Y-73144147D01*
X104867519Y-73051015D01*
X104748985Y-72932481D01*
X104655853Y-72793100D01*
X104591703Y-72638228D01*
X104559000Y-72473816D01*
X104559000Y-72306184D01*
X104591703Y-72141772D01*
X104655853Y-71986900D01*
X104748985Y-71847519D01*
X104867519Y-71728985D01*
X105006900Y-71635853D01*
X105161772Y-71571703D01*
X105326184Y-71539000D01*
X105493816Y-71539000D01*
X105658228Y-71571703D01*
G37*
G36*
X113278228Y-71571703D02*
G01*
X113433100Y-71635853D01*
X113572481Y-71728985D01*
X113691015Y-71847519D01*
X113784147Y-71986900D01*
X113848297Y-72141772D01*
X113881000Y-72306184D01*
X113881000Y-72473816D01*
X113848297Y-72638228D01*
X113784147Y-72793100D01*
X113691015Y-72932481D01*
X113572481Y-73051015D01*
X113433100Y-73144147D01*
X113278228Y-73208297D01*
X113113816Y-73241000D01*
X112946184Y-73241000D01*
X112781772Y-73208297D01*
X112626900Y-73144147D01*
X112487519Y-73051015D01*
X112368985Y-72932481D01*
X112275853Y-72793100D01*
X112211703Y-72638228D01*
X112179000Y-72473816D01*
X112179000Y-72306184D01*
X112211703Y-72141772D01*
X112275853Y-71986900D01*
X112368985Y-71847519D01*
X112487519Y-71728985D01*
X112626900Y-71635853D01*
X112781772Y-71571703D01*
X112946184Y-71539000D01*
X113113816Y-71539000D01*
X113278228Y-71571703D01*
G37*
G36*
X66788512Y-70223927D02*
G01*
X66937812Y-70253624D01*
X67101784Y-70321544D01*
X67249354Y-70420147D01*
X67374853Y-70545646D01*
X67473456Y-70693216D01*
X67541376Y-70857188D01*
X67576000Y-71031259D01*
X67576000Y-71208741D01*
X67541376Y-71382812D01*
X67473456Y-71546784D01*
X67374853Y-71694354D01*
X67249354Y-71819853D01*
X67101784Y-71918456D01*
X66937812Y-71986376D01*
X66788512Y-72016073D01*
X66763742Y-72021000D01*
X66586258Y-72021000D01*
X66561488Y-72016073D01*
X66412188Y-71986376D01*
X66248216Y-71918456D01*
X66100646Y-71819853D01*
X65975147Y-71694354D01*
X65876544Y-71546784D01*
X65808624Y-71382812D01*
X65774000Y-71208741D01*
X65774000Y-71031259D01*
X65808624Y-70857188D01*
X65876544Y-70693216D01*
X65975147Y-70545646D01*
X66100646Y-70420147D01*
X66248216Y-70321544D01*
X66412188Y-70253624D01*
X66561488Y-70223927D01*
X66586258Y-70219000D01*
X66763742Y-70219000D01*
X66788512Y-70223927D01*
G37*
G36*
X129788228Y-69666703D02*
G01*
X129943100Y-69730853D01*
X130082481Y-69823985D01*
X130201015Y-69942519D01*
X130294147Y-70081900D01*
X130358297Y-70236772D01*
X130391000Y-70401184D01*
X130391000Y-70568816D01*
X130358297Y-70733228D01*
X130294147Y-70888100D01*
X130201015Y-71027481D01*
X130082481Y-71146015D01*
X129943100Y-71239147D01*
X129788228Y-71303297D01*
X129623816Y-71336000D01*
X129456184Y-71336000D01*
X129291772Y-71303297D01*
X129136900Y-71239147D01*
X128997519Y-71146015D01*
X128878985Y-71027481D01*
X128785853Y-70888100D01*
X128721703Y-70733228D01*
X128689000Y-70568816D01*
X128689000Y-70401184D01*
X128721703Y-70236772D01*
X128785853Y-70081900D01*
X128878985Y-69942519D01*
X128997519Y-69823985D01*
X129136900Y-69730853D01*
X129291772Y-69666703D01*
X129456184Y-69634000D01*
X129623816Y-69634000D01*
X129788228Y-69666703D01*
G37*
G36*
X122168228Y-69666703D02*
G01*
X122323100Y-69730853D01*
X122462481Y-69823985D01*
X122581015Y-69942519D01*
X122674147Y-70081900D01*
X122738297Y-70236772D01*
X122771000Y-70401184D01*
X122771000Y-70568816D01*
X122738297Y-70733228D01*
X122674147Y-70888100D01*
X122581015Y-71027481D01*
X122462481Y-71146015D01*
X122323100Y-71239147D01*
X122168228Y-71303297D01*
X122003816Y-71336000D01*
X121836184Y-71336000D01*
X121671772Y-71303297D01*
X121516900Y-71239147D01*
X121377519Y-71146015D01*
X121258985Y-71027481D01*
X121165853Y-70888100D01*
X121101703Y-70733228D01*
X121069000Y-70568816D01*
X121069000Y-70401184D01*
X121101703Y-70236772D01*
X121165853Y-70081900D01*
X121258985Y-69942519D01*
X121377519Y-69823985D01*
X121516900Y-69730853D01*
X121671772Y-69666703D01*
X121836184Y-69634000D01*
X122003816Y-69634000D01*
X122168228Y-69666703D01*
G37*
G36*
X66788512Y-67683927D02*
G01*
X66937812Y-67713624D01*
X67101784Y-67781544D01*
X67249354Y-67880147D01*
X67374853Y-68005646D01*
X67473456Y-68153216D01*
X67541376Y-68317188D01*
X67576000Y-68491259D01*
X67576000Y-68668741D01*
X67541376Y-68842812D01*
X67473456Y-69006784D01*
X67374853Y-69154354D01*
X67249354Y-69279853D01*
X67101784Y-69378456D01*
X66937812Y-69446376D01*
X66788512Y-69476073D01*
X66763742Y-69481000D01*
X66586258Y-69481000D01*
X66561488Y-69476073D01*
X66412188Y-69446376D01*
X66248216Y-69378456D01*
X66100646Y-69279853D01*
X65975147Y-69154354D01*
X65876544Y-69006784D01*
X65808624Y-68842812D01*
X65774000Y-68668741D01*
X65774000Y-68491259D01*
X65808624Y-68317188D01*
X65876544Y-68153216D01*
X65975147Y-68005646D01*
X66100646Y-67880147D01*
X66248216Y-67781544D01*
X66412188Y-67713624D01*
X66561488Y-67683927D01*
X66586258Y-67679000D01*
X66763742Y-67679000D01*
X66788512Y-67683927D01*
G37*
G36*
X82163228Y-67761703D02*
G01*
X82318100Y-67825853D01*
X82457481Y-67918985D01*
X82576015Y-68037519D01*
X82669147Y-68176900D01*
X82733297Y-68331772D01*
X82766000Y-68496184D01*
X82766000Y-68663816D01*
X82733297Y-68828228D01*
X82669147Y-68983100D01*
X82576015Y-69122481D01*
X82457481Y-69241015D01*
X82318100Y-69334147D01*
X82163228Y-69398297D01*
X81998816Y-69431000D01*
X81831184Y-69431000D01*
X81666772Y-69398297D01*
X81511900Y-69334147D01*
X81372519Y-69241015D01*
X81253985Y-69122481D01*
X81160853Y-68983100D01*
X81096703Y-68828228D01*
X81064000Y-68663816D01*
X81064000Y-68496184D01*
X81096703Y-68331772D01*
X81160853Y-68176900D01*
X81253985Y-68037519D01*
X81372519Y-67918985D01*
X81511900Y-67825853D01*
X81666772Y-67761703D01*
X81831184Y-67729000D01*
X81998816Y-67729000D01*
X82163228Y-67761703D01*
G37*
G36*
X74543228Y-67761703D02*
G01*
X74698100Y-67825853D01*
X74837481Y-67918985D01*
X74956015Y-68037519D01*
X75049147Y-68176900D01*
X75113297Y-68331772D01*
X75146000Y-68496184D01*
X75146000Y-68663816D01*
X75113297Y-68828228D01*
X75049147Y-68983100D01*
X74956015Y-69122481D01*
X74837481Y-69241015D01*
X74698100Y-69334147D01*
X74543228Y-69398297D01*
X74378816Y-69431000D01*
X74211184Y-69431000D01*
X74046772Y-69398297D01*
X73891900Y-69334147D01*
X73752519Y-69241015D01*
X73633985Y-69122481D01*
X73540853Y-68983100D01*
X73476703Y-68828228D01*
X73444000Y-68663816D01*
X73444000Y-68496184D01*
X73476703Y-68331772D01*
X73540853Y-68176900D01*
X73633985Y-68037519D01*
X73752519Y-67918985D01*
X73891900Y-67825853D01*
X74046772Y-67761703D01*
X74211184Y-67729000D01*
X74378816Y-67729000D01*
X74543228Y-67761703D01*
G37*
G36*
X98563228Y-67376703D02*
G01*
X98718100Y-67440853D01*
X98857481Y-67533985D01*
X98976015Y-67652519D01*
X99069147Y-67791900D01*
X99133297Y-67946772D01*
X99166000Y-68111184D01*
X99166000Y-68278816D01*
X99133297Y-68443228D01*
X99069147Y-68598100D01*
X98976015Y-68737481D01*
X98857481Y-68856015D01*
X98718100Y-68949147D01*
X98563228Y-69013297D01*
X98398816Y-69046000D01*
X98231184Y-69046000D01*
X98066772Y-69013297D01*
X97911900Y-68949147D01*
X97772519Y-68856015D01*
X97653985Y-68737481D01*
X97560853Y-68598100D01*
X97496703Y-68443228D01*
X97464000Y-68278816D01*
X97464000Y-68111184D01*
X97496703Y-67946772D01*
X97560853Y-67791900D01*
X97653985Y-67652519D01*
X97772519Y-67533985D01*
X97911900Y-67440853D01*
X98066772Y-67376703D01*
X98231184Y-67344000D01*
X98398816Y-67344000D01*
X98563228Y-67376703D01*
G37*
G36*
X90943228Y-67376703D02*
G01*
X91098100Y-67440853D01*
X91237481Y-67533985D01*
X91356015Y-67652519D01*
X91449147Y-67791900D01*
X91513297Y-67946772D01*
X91546000Y-68111184D01*
X91546000Y-68278816D01*
X91513297Y-68443228D01*
X91449147Y-68598100D01*
X91356015Y-68737481D01*
X91237481Y-68856015D01*
X91098100Y-68949147D01*
X90943228Y-69013297D01*
X90778816Y-69046000D01*
X90611184Y-69046000D01*
X90446772Y-69013297D01*
X90291900Y-68949147D01*
X90152519Y-68856015D01*
X90033985Y-68737481D01*
X89940853Y-68598100D01*
X89876703Y-68443228D01*
X89844000Y-68278816D01*
X89844000Y-68111184D01*
X89876703Y-67946772D01*
X89940853Y-67791900D01*
X90033985Y-67652519D01*
X90152519Y-67533985D01*
X90291900Y-67440853D01*
X90446772Y-67376703D01*
X90611184Y-67344000D01*
X90778816Y-67344000D01*
X90943228Y-67376703D01*
G37*
G36*
X113278228Y-67126703D02*
G01*
X113433100Y-67190853D01*
X113572481Y-67283985D01*
X113691015Y-67402519D01*
X113784147Y-67541900D01*
X113848297Y-67696772D01*
X113881000Y-67861184D01*
X113881000Y-68028816D01*
X113848297Y-68193228D01*
X113784147Y-68348100D01*
X113691015Y-68487481D01*
X113572481Y-68606015D01*
X113433100Y-68699147D01*
X113278228Y-68763297D01*
X113113816Y-68796000D01*
X112946184Y-68796000D01*
X112781772Y-68763297D01*
X112626900Y-68699147D01*
X112487519Y-68606015D01*
X112368985Y-68487481D01*
X112275853Y-68348100D01*
X112211703Y-68193228D01*
X112179000Y-68028816D01*
X112179000Y-67861184D01*
X112211703Y-67696772D01*
X112275853Y-67541900D01*
X112368985Y-67402519D01*
X112487519Y-67283985D01*
X112626900Y-67190853D01*
X112781772Y-67126703D01*
X112946184Y-67094000D01*
X113113816Y-67094000D01*
X113278228Y-67126703D01*
G37*
G36*
X105658228Y-67126703D02*
G01*
X105813100Y-67190853D01*
X105952481Y-67283985D01*
X106071015Y-67402519D01*
X106164147Y-67541900D01*
X106228297Y-67696772D01*
X106261000Y-67861184D01*
X106261000Y-68028816D01*
X106228297Y-68193228D01*
X106164147Y-68348100D01*
X106071015Y-68487481D01*
X105952481Y-68606015D01*
X105813100Y-68699147D01*
X105658228Y-68763297D01*
X105493816Y-68796000D01*
X105326184Y-68796000D01*
X105161772Y-68763297D01*
X105006900Y-68699147D01*
X104867519Y-68606015D01*
X104748985Y-68487481D01*
X104655853Y-68348100D01*
X104591703Y-68193228D01*
X104559000Y-68028816D01*
X104559000Y-67861184D01*
X104591703Y-67696772D01*
X104655853Y-67541900D01*
X104748985Y-67402519D01*
X104867519Y-67283985D01*
X105006900Y-67190853D01*
X105161772Y-67126703D01*
X105326184Y-67094000D01*
X105493816Y-67094000D01*
X105658228Y-67126703D01*
G37*
G36*
X150603015Y-66516973D02*
G01*
X150706879Y-66548479D01*
X150734055Y-66563005D01*
X150802600Y-66599643D01*
X150886501Y-66668499D01*
X150955357Y-66752400D01*
X150991995Y-66820945D01*
X151006521Y-66848121D01*
X151038027Y-66951985D01*
X151046000Y-67032933D01*
X151046000Y-67587067D01*
X151038027Y-67668015D01*
X151006521Y-67771879D01*
X150995819Y-67791900D01*
X150958786Y-67861184D01*
X150955356Y-67867600D01*
X150886501Y-67951501D01*
X150820524Y-68005646D01*
X150802599Y-68020357D01*
X150786773Y-68028816D01*
X150706878Y-68071521D01*
X150603014Y-68103027D01*
X150495000Y-68113666D01*
X150386985Y-68103027D01*
X150283121Y-68071521D01*
X150203225Y-68028815D01*
X150187401Y-68020357D01*
X150169476Y-68005646D01*
X150103499Y-67951501D01*
X150034644Y-67867600D01*
X150031215Y-67861184D01*
X149991086Y-67786109D01*
X149983479Y-67771878D01*
X149979615Y-67759139D01*
X149970239Y-67736503D01*
X149956625Y-67716129D01*
X149939298Y-67698802D01*
X149918923Y-67685188D01*
X149896285Y-67675811D01*
X149872251Y-67671031D01*
X149847747Y-67671031D01*
X149823714Y-67675812D01*
X149801075Y-67685189D01*
X149780701Y-67698803D01*
X149763374Y-67716130D01*
X149749760Y-67736505D01*
X149740388Y-67759131D01*
X149736521Y-67771879D01*
X149725819Y-67791900D01*
X149688786Y-67861184D01*
X149685356Y-67867600D01*
X149616501Y-67951501D01*
X149550524Y-68005646D01*
X149532599Y-68020357D01*
X149516773Y-68028816D01*
X149436878Y-68071521D01*
X149333014Y-68103027D01*
X149225000Y-68113666D01*
X149116985Y-68103027D01*
X149013121Y-68071521D01*
X148933225Y-68028815D01*
X148917401Y-68020357D01*
X148899476Y-68005646D01*
X148833499Y-67951501D01*
X148764644Y-67867600D01*
X148741234Y-67823804D01*
X148727625Y-67803436D01*
X148710298Y-67786109D01*
X148689924Y-67772495D01*
X148667285Y-67763118D01*
X148643252Y-67758337D01*
X148618748Y-67758337D01*
X148594714Y-67763117D01*
X148572076Y-67772494D01*
X148551701Y-67786108D01*
X148534374Y-67803435D01*
X148520760Y-67823809D01*
X148511383Y-67846448D01*
X148506602Y-67870481D01*
X148506000Y-67882734D01*
X148506000Y-68111000D01*
X147404000Y-68111000D01*
X147404000Y-66509000D01*
X148506000Y-66509000D01*
X148506000Y-66737265D01*
X148508402Y-66761651D01*
X148515515Y-66785100D01*
X148527066Y-66806711D01*
X148542611Y-66825653D01*
X148561553Y-66841198D01*
X148583164Y-66852749D01*
X148606613Y-66859862D01*
X148630999Y-66862264D01*
X148655385Y-66859862D01*
X148678834Y-66852749D01*
X148700445Y-66841198D01*
X148719387Y-66825653D01*
X148734932Y-66806711D01*
X148741239Y-66796188D01*
X148764644Y-66752399D01*
X148833500Y-66668499D01*
X148917401Y-66599643D01*
X148985946Y-66563005D01*
X149013122Y-66548479D01*
X149116986Y-66516973D01*
X149225000Y-66506334D01*
X149333015Y-66516973D01*
X149436879Y-66548479D01*
X149464055Y-66563005D01*
X149532600Y-66599643D01*
X149616501Y-66668499D01*
X149685357Y-66752400D01*
X149721995Y-66820945D01*
X149736521Y-66848121D01*
X149740388Y-66860869D01*
X149749760Y-66883496D01*
X149763374Y-66903870D01*
X149780701Y-66921197D01*
X149801075Y-66934811D01*
X149823714Y-66944188D01*
X149847747Y-66948969D01*
X149872251Y-66948969D01*
X149896285Y-66944189D01*
X149918924Y-66934812D01*
X149939298Y-66921198D01*
X149956625Y-66903871D01*
X149970239Y-66883497D01*
X149979617Y-66860857D01*
X149979919Y-66859862D01*
X149983480Y-66848121D01*
X149983481Y-66848118D01*
X150034643Y-66752401D01*
X150103500Y-66668499D01*
X150187401Y-66599643D01*
X150255946Y-66563005D01*
X150283122Y-66548479D01*
X150386986Y-66516973D01*
X150495000Y-66506334D01*
X150603015Y-66516973D01*
G37*
G36*
X141713015Y-66516973D02*
G01*
X141816879Y-66548479D01*
X141844055Y-66563005D01*
X141912600Y-66599643D01*
X141996501Y-66668499D01*
X142065357Y-66752400D01*
X142101995Y-66820945D01*
X142116521Y-66848121D01*
X142148027Y-66951985D01*
X142156000Y-67032933D01*
X142156000Y-67587067D01*
X142148027Y-67668015D01*
X142116521Y-67771879D01*
X142105819Y-67791900D01*
X142068786Y-67861184D01*
X142065356Y-67867600D01*
X141996501Y-67951501D01*
X141930524Y-68005646D01*
X141912599Y-68020357D01*
X141896773Y-68028816D01*
X141816878Y-68071521D01*
X141713014Y-68103027D01*
X141605000Y-68113666D01*
X141496985Y-68103027D01*
X141393121Y-68071521D01*
X141313225Y-68028815D01*
X141297401Y-68020357D01*
X141279476Y-68005646D01*
X141213499Y-67951501D01*
X141144644Y-67867600D01*
X141141215Y-67861184D01*
X141101086Y-67786109D01*
X141093479Y-67771878D01*
X141089615Y-67759139D01*
X141080239Y-67736503D01*
X141066625Y-67716129D01*
X141049298Y-67698802D01*
X141028923Y-67685188D01*
X141006285Y-67675811D01*
X140982251Y-67671031D01*
X140957747Y-67671031D01*
X140933714Y-67675812D01*
X140911075Y-67685189D01*
X140890701Y-67698803D01*
X140873374Y-67716130D01*
X140859760Y-67736505D01*
X140850388Y-67759131D01*
X140846521Y-67771879D01*
X140835819Y-67791900D01*
X140798786Y-67861184D01*
X140795356Y-67867600D01*
X140726501Y-67951501D01*
X140660524Y-68005646D01*
X140642599Y-68020357D01*
X140626773Y-68028816D01*
X140546878Y-68071521D01*
X140443014Y-68103027D01*
X140335000Y-68113666D01*
X140226985Y-68103027D01*
X140123121Y-68071521D01*
X140043225Y-68028815D01*
X140027401Y-68020357D01*
X140009476Y-68005646D01*
X139943499Y-67951501D01*
X139874644Y-67867600D01*
X139851234Y-67823804D01*
X139837625Y-67803436D01*
X139820298Y-67786109D01*
X139799924Y-67772495D01*
X139777285Y-67763118D01*
X139753252Y-67758337D01*
X139728748Y-67758337D01*
X139704714Y-67763117D01*
X139682076Y-67772494D01*
X139661701Y-67786108D01*
X139644374Y-67803435D01*
X139630760Y-67823809D01*
X139621383Y-67846448D01*
X139616602Y-67870481D01*
X139616000Y-67882734D01*
X139616000Y-68111000D01*
X138514000Y-68111000D01*
X138514000Y-66509000D01*
X139616000Y-66509000D01*
X139616000Y-66737265D01*
X139618402Y-66761651D01*
X139625515Y-66785100D01*
X139637066Y-66806711D01*
X139652611Y-66825653D01*
X139671553Y-66841198D01*
X139693164Y-66852749D01*
X139716613Y-66859862D01*
X139740999Y-66862264D01*
X139765385Y-66859862D01*
X139788834Y-66852749D01*
X139810445Y-66841198D01*
X139829387Y-66825653D01*
X139844932Y-66806711D01*
X139851239Y-66796188D01*
X139874644Y-66752399D01*
X139943500Y-66668499D01*
X140027401Y-66599643D01*
X140095946Y-66563005D01*
X140123122Y-66548479D01*
X140226986Y-66516973D01*
X140335000Y-66506334D01*
X140443015Y-66516973D01*
X140546879Y-66548479D01*
X140574055Y-66563005D01*
X140642600Y-66599643D01*
X140726501Y-66668499D01*
X140795357Y-66752400D01*
X140831995Y-66820945D01*
X140846521Y-66848121D01*
X140850388Y-66860869D01*
X140859760Y-66883496D01*
X140873374Y-66903870D01*
X140890701Y-66921197D01*
X140911075Y-66934811D01*
X140933714Y-66944188D01*
X140957747Y-66948969D01*
X140982251Y-66948969D01*
X141006285Y-66944189D01*
X141028924Y-66934812D01*
X141049298Y-66921198D01*
X141066625Y-66903871D01*
X141080239Y-66883497D01*
X141089617Y-66860857D01*
X141089919Y-66859862D01*
X141093480Y-66848121D01*
X141093481Y-66848118D01*
X141144643Y-66752401D01*
X141213500Y-66668499D01*
X141297401Y-66599643D01*
X141365946Y-66563005D01*
X141393122Y-66548479D01*
X141496986Y-66516973D01*
X141605000Y-66506334D01*
X141713015Y-66516973D01*
G37*
G36*
X66788512Y-65143927D02*
G01*
X66937812Y-65173624D01*
X67101784Y-65241544D01*
X67249354Y-65340147D01*
X67374853Y-65465646D01*
X67473456Y-65613216D01*
X67541376Y-65777188D01*
X67576000Y-65951259D01*
X67576000Y-66128741D01*
X67541376Y-66302812D01*
X67473456Y-66466784D01*
X67374853Y-66614354D01*
X67249354Y-66739853D01*
X67101784Y-66838456D01*
X66937812Y-66906376D01*
X66794856Y-66934811D01*
X66763742Y-66941000D01*
X66586258Y-66941000D01*
X66555144Y-66934811D01*
X66412188Y-66906376D01*
X66248216Y-66838456D01*
X66100646Y-66739853D01*
X65975147Y-66614354D01*
X65876544Y-66466784D01*
X65808624Y-66302812D01*
X65774000Y-66128741D01*
X65774000Y-65951259D01*
X65808624Y-65777188D01*
X65876544Y-65613216D01*
X65975147Y-65465646D01*
X66100646Y-65340147D01*
X66248216Y-65241544D01*
X66412188Y-65173624D01*
X66561488Y-65143927D01*
X66586258Y-65139000D01*
X66763742Y-65139000D01*
X66788512Y-65143927D01*
G37*
G36*
X129788228Y-64586703D02*
G01*
X129943100Y-64650853D01*
X130082481Y-64743985D01*
X130201015Y-64862519D01*
X130294147Y-65001900D01*
X130358297Y-65156772D01*
X130391000Y-65321184D01*
X130391000Y-65488816D01*
X130358297Y-65653228D01*
X130294147Y-65808100D01*
X130201015Y-65947481D01*
X130082481Y-66066015D01*
X129943100Y-66159147D01*
X129788228Y-66223297D01*
X129623816Y-66256000D01*
X129456184Y-66256000D01*
X129291772Y-66223297D01*
X129136900Y-66159147D01*
X128997519Y-66066015D01*
X128878985Y-65947481D01*
X128785853Y-65808100D01*
X128721703Y-65653228D01*
X128689000Y-65488816D01*
X128689000Y-65321184D01*
X128721703Y-65156772D01*
X128785853Y-65001900D01*
X128878985Y-64862519D01*
X128997519Y-64743985D01*
X129136900Y-64650853D01*
X129291772Y-64586703D01*
X129456184Y-64554000D01*
X129623816Y-64554000D01*
X129788228Y-64586703D01*
G37*
G36*
X122168228Y-64586703D02*
G01*
X122323100Y-64650853D01*
X122462481Y-64743985D01*
X122581015Y-64862519D01*
X122674147Y-65001900D01*
X122738297Y-65156772D01*
X122771000Y-65321184D01*
X122771000Y-65488816D01*
X122738297Y-65653228D01*
X122674147Y-65808100D01*
X122581015Y-65947481D01*
X122462481Y-66066015D01*
X122323100Y-66159147D01*
X122168228Y-66223297D01*
X122003816Y-66256000D01*
X121836184Y-66256000D01*
X121671772Y-66223297D01*
X121516900Y-66159147D01*
X121377519Y-66066015D01*
X121258985Y-65947481D01*
X121165853Y-65808100D01*
X121101703Y-65653228D01*
X121069000Y-65488816D01*
X121069000Y-65321184D01*
X121101703Y-65156772D01*
X121165853Y-65001900D01*
X121258985Y-64862519D01*
X121377519Y-64743985D01*
X121516900Y-64650853D01*
X121671772Y-64586703D01*
X121836184Y-64554000D01*
X122003816Y-64554000D01*
X122168228Y-64586703D01*
G37*
G36*
X66788512Y-62603927D02*
G01*
X66937812Y-62633624D01*
X67101784Y-62701544D01*
X67249354Y-62800147D01*
X67374853Y-62925646D01*
X67473456Y-63073216D01*
X67541376Y-63237188D01*
X67559041Y-63326000D01*
X67575742Y-63409959D01*
X67576000Y-63411259D01*
X67576000Y-63588741D01*
X67541376Y-63762812D01*
X67473456Y-63926784D01*
X67374853Y-64074354D01*
X67249354Y-64199853D01*
X67101784Y-64298456D01*
X66937812Y-64366376D01*
X66788512Y-64396073D01*
X66763742Y-64401000D01*
X66586258Y-64401000D01*
X66561488Y-64396073D01*
X66412188Y-64366376D01*
X66248216Y-64298456D01*
X66100646Y-64199853D01*
X65975147Y-64074354D01*
X65876544Y-63926784D01*
X65808624Y-63762812D01*
X65774000Y-63588741D01*
X65774000Y-63411259D01*
X65774259Y-63409959D01*
X65790959Y-63326000D01*
X65808624Y-63237188D01*
X65876544Y-63073216D01*
X65975147Y-62925646D01*
X66100646Y-62800147D01*
X66248216Y-62701544D01*
X66412188Y-62633624D01*
X66561488Y-62603927D01*
X66586258Y-62599000D01*
X66763742Y-62599000D01*
X66788512Y-62603927D01*
G37*
G36*
X82058241Y-61089760D02*
G01*
X82322305Y-61199139D01*
X82559958Y-61357934D01*
X82762066Y-61560042D01*
X82920861Y-61797695D01*
X83030240Y-62061759D01*
X83086000Y-62342088D01*
X83086000Y-62627912D01*
X83030240Y-62908241D01*
X82920861Y-63172305D01*
X82762066Y-63409958D01*
X82559958Y-63612066D01*
X82322305Y-63770861D01*
X82058241Y-63880240D01*
X81777912Y-63936000D01*
X81492088Y-63936000D01*
X81211759Y-63880240D01*
X80947695Y-63770861D01*
X80710042Y-63612066D01*
X80507934Y-63409958D01*
X80349139Y-63172305D01*
X80239760Y-62908241D01*
X80184000Y-62627912D01*
X80184000Y-62342088D01*
X80239760Y-62061759D01*
X80349139Y-61797695D01*
X80507934Y-61560042D01*
X80710042Y-61357934D01*
X80947695Y-61199139D01*
X81211759Y-61089760D01*
X81492088Y-61034000D01*
X81777912Y-61034000D01*
X82058241Y-61089760D01*
G37*
G36*
X78286000Y-63936000D02*
G01*
X75384000Y-63936000D01*
X75384000Y-61034000D01*
X78286000Y-61034000D01*
X78286000Y-63936000D01*
G37*
G36*
X112825532Y-60685721D02*
G01*
X113094147Y-60796985D01*
X113335895Y-60958516D01*
X113541484Y-61164105D01*
X113703015Y-61405853D01*
X113814279Y-61674468D01*
X113871000Y-61959625D01*
X113871000Y-62250375D01*
X113814279Y-62535532D01*
X113703015Y-62804147D01*
X113541484Y-63045895D01*
X113335895Y-63251484D01*
X113094147Y-63413015D01*
X112825532Y-63524279D01*
X112540375Y-63581000D01*
X112249625Y-63581000D01*
X111964468Y-63524279D01*
X111695853Y-63413015D01*
X111454105Y-63251484D01*
X111248516Y-63045895D01*
X111086985Y-62804147D01*
X110975721Y-62535532D01*
X110919000Y-62250375D01*
X110919000Y-61959625D01*
X110975721Y-61674468D01*
X111086985Y-61405853D01*
X111248516Y-61164105D01*
X111454105Y-60958516D01*
X111695853Y-60796985D01*
X111964468Y-60685721D01*
X112249625Y-60629000D01*
X112540375Y-60629000D01*
X112825532Y-60685721D01*
G37*
G36*
X93140532Y-60685721D02*
G01*
X93409147Y-60796985D01*
X93650895Y-60958516D01*
X93856484Y-61164105D01*
X94018015Y-61405853D01*
X94129279Y-61674468D01*
X94186000Y-61959625D01*
X94186000Y-62250375D01*
X94129279Y-62535532D01*
X94018015Y-62804147D01*
X93856484Y-63045895D01*
X93650895Y-63251484D01*
X93409147Y-63413015D01*
X93140532Y-63524279D01*
X92855375Y-63581000D01*
X92564625Y-63581000D01*
X92279468Y-63524279D01*
X92010853Y-63413015D01*
X91769105Y-63251484D01*
X91563516Y-63045895D01*
X91401985Y-62804147D01*
X91290721Y-62535532D01*
X91234000Y-62250375D01*
X91234000Y-61959625D01*
X91290721Y-61674468D01*
X91401985Y-61405853D01*
X91563516Y-61164105D01*
X91769105Y-60958516D01*
X92010853Y-60796985D01*
X92279468Y-60685721D01*
X92564625Y-60629000D01*
X92855375Y-60629000D01*
X93140532Y-60685721D01*
G37*
G36*
X102665532Y-60430721D02*
G01*
X102934147Y-60541985D01*
X103175895Y-60703516D01*
X103381484Y-60909105D01*
X103543015Y-61150853D01*
X103654279Y-61419468D01*
X103711000Y-61704625D01*
X103711000Y-61995375D01*
X103654279Y-62280532D01*
X103543015Y-62549147D01*
X103381484Y-62790895D01*
X103175895Y-62996484D01*
X102934147Y-63158015D01*
X102665532Y-63269279D01*
X102380375Y-63326000D01*
X102089625Y-63326000D01*
X101804468Y-63269279D01*
X101535853Y-63158015D01*
X101294105Y-62996484D01*
X101088516Y-62790895D01*
X100926985Y-62549147D01*
X100815721Y-62280532D01*
X100759000Y-61995375D01*
X100759000Y-61704625D01*
X100815721Y-61419468D01*
X100926985Y-61150853D01*
X101088516Y-60909105D01*
X101294105Y-60703516D01*
X101535853Y-60541985D01*
X101804468Y-60430721D01*
X102089625Y-60374000D01*
X102380375Y-60374000D01*
X102665532Y-60430721D01*
G37*
G36*
X67576000Y-61861000D02*
G01*
X65774000Y-61861000D01*
X65774000Y-60059000D01*
X67576000Y-60059000D01*
X67576000Y-61861000D01*
G37*
G36*
X141713015Y-59531973D02*
G01*
X141816879Y-59563479D01*
X141844055Y-59578005D01*
X141912600Y-59614643D01*
X141996501Y-59683499D01*
X142065357Y-59767400D01*
X142101995Y-59835945D01*
X142116521Y-59863121D01*
X142148027Y-59966985D01*
X142156000Y-60047933D01*
X142156000Y-60602067D01*
X142148027Y-60683015D01*
X142116521Y-60786879D01*
X142065356Y-60882600D01*
X141996501Y-60966501D01*
X141927645Y-61023009D01*
X141912599Y-61035357D01*
X141860907Y-61062987D01*
X141816878Y-61086521D01*
X141713014Y-61118027D01*
X141605000Y-61128666D01*
X141496985Y-61118027D01*
X141393121Y-61086521D01*
X141349093Y-61062987D01*
X141297401Y-61035357D01*
X141284643Y-61024887D01*
X141213499Y-60966501D01*
X141144644Y-60882600D01*
X141093479Y-60786878D01*
X141089615Y-60774139D01*
X141080239Y-60751503D01*
X141066625Y-60731129D01*
X141049298Y-60713802D01*
X141028923Y-60700188D01*
X141006285Y-60690811D01*
X140982251Y-60686031D01*
X140957747Y-60686031D01*
X140933714Y-60690812D01*
X140911075Y-60700189D01*
X140890701Y-60713803D01*
X140873374Y-60731130D01*
X140859760Y-60751505D01*
X140850388Y-60774131D01*
X140846521Y-60786879D01*
X140795356Y-60882600D01*
X140726501Y-60966501D01*
X140657645Y-61023009D01*
X140642599Y-61035357D01*
X140590907Y-61062987D01*
X140546878Y-61086521D01*
X140443014Y-61118027D01*
X140335000Y-61128666D01*
X140226985Y-61118027D01*
X140123121Y-61086521D01*
X140079093Y-61062987D01*
X140027401Y-61035357D01*
X140014643Y-61024887D01*
X139943499Y-60966501D01*
X139874644Y-60882600D01*
X139851234Y-60838804D01*
X139837625Y-60818436D01*
X139820298Y-60801109D01*
X139799924Y-60787495D01*
X139777285Y-60778118D01*
X139753252Y-60773337D01*
X139728748Y-60773337D01*
X139704714Y-60778117D01*
X139682076Y-60787494D01*
X139661701Y-60801108D01*
X139644374Y-60818435D01*
X139630760Y-60838809D01*
X139621383Y-60861448D01*
X139616602Y-60885481D01*
X139616000Y-60897734D01*
X139616000Y-61126000D01*
X138514000Y-61126000D01*
X138514000Y-59524000D01*
X139616000Y-59524000D01*
X139616000Y-59752265D01*
X139618402Y-59776651D01*
X139625515Y-59800100D01*
X139637066Y-59821711D01*
X139652611Y-59840653D01*
X139671553Y-59856198D01*
X139693164Y-59867749D01*
X139716613Y-59874862D01*
X139740999Y-59877264D01*
X139765385Y-59874862D01*
X139788834Y-59867749D01*
X139810445Y-59856198D01*
X139829387Y-59840653D01*
X139844932Y-59821711D01*
X139851239Y-59811188D01*
X139874644Y-59767399D01*
X139943500Y-59683499D01*
X140027401Y-59614643D01*
X140095946Y-59578005D01*
X140123122Y-59563479D01*
X140226986Y-59531973D01*
X140335000Y-59521334D01*
X140443015Y-59531973D01*
X140546879Y-59563479D01*
X140574055Y-59578005D01*
X140642600Y-59614643D01*
X140726501Y-59683499D01*
X140795357Y-59767400D01*
X140831995Y-59835945D01*
X140846521Y-59863121D01*
X140850388Y-59875869D01*
X140859760Y-59898496D01*
X140873374Y-59918870D01*
X140890701Y-59936197D01*
X140911075Y-59949811D01*
X140933714Y-59959188D01*
X140957747Y-59963969D01*
X140982251Y-59963969D01*
X141006285Y-59959189D01*
X141028924Y-59949812D01*
X141049298Y-59936198D01*
X141066625Y-59918871D01*
X141080239Y-59898497D01*
X141089617Y-59875857D01*
X141089919Y-59874862D01*
X141093480Y-59863121D01*
X141093481Y-59863118D01*
X141144643Y-59767401D01*
X141213500Y-59683499D01*
X141297401Y-59614643D01*
X141365946Y-59578005D01*
X141393122Y-59563479D01*
X141496986Y-59531973D01*
X141605000Y-59521334D01*
X141713015Y-59531973D01*
G37*
G36*
X150603015Y-59531973D02*
G01*
X150706879Y-59563479D01*
X150734055Y-59578005D01*
X150802600Y-59614643D01*
X150886501Y-59683499D01*
X150955357Y-59767400D01*
X150991995Y-59835945D01*
X151006521Y-59863121D01*
X151038027Y-59966985D01*
X151046000Y-60047933D01*
X151046000Y-60602067D01*
X151038027Y-60683015D01*
X151006521Y-60786879D01*
X150955356Y-60882600D01*
X150886501Y-60966501D01*
X150817645Y-61023009D01*
X150802599Y-61035357D01*
X150750907Y-61062987D01*
X150706878Y-61086521D01*
X150603014Y-61118027D01*
X150495000Y-61128666D01*
X150386985Y-61118027D01*
X150283121Y-61086521D01*
X150239093Y-61062987D01*
X150187401Y-61035357D01*
X150174643Y-61024887D01*
X150103499Y-60966501D01*
X150034644Y-60882600D01*
X149983479Y-60786878D01*
X149979615Y-60774139D01*
X149970239Y-60751503D01*
X149956625Y-60731129D01*
X149939298Y-60713802D01*
X149918923Y-60700188D01*
X149896285Y-60690811D01*
X149872251Y-60686031D01*
X149847747Y-60686031D01*
X149823714Y-60690812D01*
X149801075Y-60700189D01*
X149780701Y-60713803D01*
X149763374Y-60731130D01*
X149749760Y-60751505D01*
X149740388Y-60774131D01*
X149736521Y-60786879D01*
X149685356Y-60882600D01*
X149616501Y-60966501D01*
X149547645Y-61023009D01*
X149532599Y-61035357D01*
X149480907Y-61062987D01*
X149436878Y-61086521D01*
X149333014Y-61118027D01*
X149225000Y-61128666D01*
X149116985Y-61118027D01*
X149013121Y-61086521D01*
X148969093Y-61062987D01*
X148917401Y-61035357D01*
X148904643Y-61024887D01*
X148833499Y-60966501D01*
X148764644Y-60882600D01*
X148741234Y-60838804D01*
X148727625Y-60818436D01*
X148710298Y-60801109D01*
X148689924Y-60787495D01*
X148667285Y-60778118D01*
X148643252Y-60773337D01*
X148618748Y-60773337D01*
X148594714Y-60778117D01*
X148572076Y-60787494D01*
X148551701Y-60801108D01*
X148534374Y-60818435D01*
X148520760Y-60838809D01*
X148511383Y-60861448D01*
X148506602Y-60885481D01*
X148506000Y-60897734D01*
X148506000Y-61126000D01*
X147404000Y-61126000D01*
X147404000Y-59524000D01*
X148506000Y-59524000D01*
X148506000Y-59752265D01*
X148508402Y-59776651D01*
X148515515Y-59800100D01*
X148527066Y-59821711D01*
X148542611Y-59840653D01*
X148561553Y-59856198D01*
X148583164Y-59867749D01*
X148606613Y-59874862D01*
X148630999Y-59877264D01*
X148655385Y-59874862D01*
X148678834Y-59867749D01*
X148700445Y-59856198D01*
X148719387Y-59840653D01*
X148734932Y-59821711D01*
X148741239Y-59811188D01*
X148764644Y-59767399D01*
X148833500Y-59683499D01*
X148917401Y-59614643D01*
X148985946Y-59578005D01*
X149013122Y-59563479D01*
X149116986Y-59531973D01*
X149225000Y-59521334D01*
X149333015Y-59531973D01*
X149436879Y-59563479D01*
X149464055Y-59578005D01*
X149532600Y-59614643D01*
X149616501Y-59683499D01*
X149685357Y-59767400D01*
X149721995Y-59835945D01*
X149736521Y-59863121D01*
X149740388Y-59875869D01*
X149749760Y-59898496D01*
X149763374Y-59918870D01*
X149780701Y-59936197D01*
X149801075Y-59949811D01*
X149823714Y-59959188D01*
X149847747Y-59963969D01*
X149872251Y-59963969D01*
X149896285Y-59959189D01*
X149918924Y-59949812D01*
X149939298Y-59936198D01*
X149956625Y-59918871D01*
X149970239Y-59898497D01*
X149979617Y-59875857D01*
X149979919Y-59874862D01*
X149983480Y-59863121D01*
X149983481Y-59863118D01*
X150034643Y-59767401D01*
X150103500Y-59683499D01*
X150187401Y-59614643D01*
X150255946Y-59578005D01*
X150283122Y-59563479D01*
X150386986Y-59531973D01*
X150495000Y-59521334D01*
X150603015Y-59531973D01*
G37*
G36*
X77258241Y-56389760D02*
G01*
X77522305Y-56499139D01*
X77759958Y-56657934D01*
X77962066Y-56860042D01*
X78120861Y-57097695D01*
X78230240Y-57361759D01*
X78286000Y-57642088D01*
X78286000Y-57927912D01*
X78230240Y-58208241D01*
X78120861Y-58472305D01*
X77962066Y-58709958D01*
X77759958Y-58912066D01*
X77522305Y-59070861D01*
X77258241Y-59180240D01*
X76977912Y-59236000D01*
X76692088Y-59236000D01*
X76411759Y-59180240D01*
X76147695Y-59070861D01*
X75910042Y-58912066D01*
X75707934Y-58709958D01*
X75549139Y-58472305D01*
X75439760Y-58208241D01*
X75384000Y-57927912D01*
X75384000Y-57642088D01*
X75439760Y-57361759D01*
X75549139Y-57097695D01*
X75707934Y-56860042D01*
X75910042Y-56657934D01*
X76147695Y-56499139D01*
X76411759Y-56389760D01*
X76692088Y-56334000D01*
X76977912Y-56334000D01*
X77258241Y-56389760D01*
G37*
G36*
X82058241Y-56389760D02*
G01*
X82322305Y-56499139D01*
X82559958Y-56657934D01*
X82762066Y-56860042D01*
X82920861Y-57097695D01*
X83030240Y-57361759D01*
X83086000Y-57642088D01*
X83086000Y-57927912D01*
X83030240Y-58208241D01*
X82920861Y-58472305D01*
X82762066Y-58709958D01*
X82559958Y-58912066D01*
X82322305Y-59070861D01*
X82058241Y-59180240D01*
X81777912Y-59236000D01*
X81492088Y-59236000D01*
X81211759Y-59180240D01*
X80947695Y-59070861D01*
X80710042Y-58912066D01*
X80507934Y-58709958D01*
X80349139Y-58472305D01*
X80239760Y-58208241D01*
X80184000Y-57927912D01*
X80184000Y-57642088D01*
X80239760Y-57361759D01*
X80349139Y-57097695D01*
X80507934Y-56860042D01*
X80710042Y-56657934D01*
X80947695Y-56499139D01*
X81211759Y-56389760D01*
X81492088Y-56334000D01*
X81777912Y-56334000D01*
X82058241Y-56389760D01*
G37*
G36*
X112825532Y-55985721D02*
G01*
X113094147Y-56096985D01*
X113335895Y-56258516D01*
X113541484Y-56464105D01*
X113703015Y-56705853D01*
X113814279Y-56974468D01*
X113871000Y-57259625D01*
X113871000Y-57550375D01*
X113814279Y-57835532D01*
X113703015Y-58104147D01*
X113541484Y-58345895D01*
X113335895Y-58551484D01*
X113094147Y-58713015D01*
X112825532Y-58824279D01*
X112540375Y-58881000D01*
X112249625Y-58881000D01*
X111964468Y-58824279D01*
X111695853Y-58713015D01*
X111454105Y-58551484D01*
X111248516Y-58345895D01*
X111086985Y-58104147D01*
X110975721Y-57835532D01*
X110919000Y-57550375D01*
X110919000Y-57259625D01*
X110975721Y-56974468D01*
X111086985Y-56705853D01*
X111248516Y-56464105D01*
X111454105Y-56258516D01*
X111695853Y-56096985D01*
X111964468Y-55985721D01*
X112249625Y-55929000D01*
X112540375Y-55929000D01*
X112825532Y-55985721D01*
G37*
G36*
X93140532Y-55985721D02*
G01*
X93409147Y-56096985D01*
X93650895Y-56258516D01*
X93856484Y-56464105D01*
X94018015Y-56705853D01*
X94129279Y-56974468D01*
X94186000Y-57259625D01*
X94186000Y-57550375D01*
X94129279Y-57835532D01*
X94018015Y-58104147D01*
X93856484Y-58345895D01*
X93650895Y-58551484D01*
X93409147Y-58713015D01*
X93140532Y-58824279D01*
X92855375Y-58881000D01*
X92564625Y-58881000D01*
X92279468Y-58824279D01*
X92010853Y-58713015D01*
X91769105Y-58551484D01*
X91563516Y-58345895D01*
X91401985Y-58104147D01*
X91290721Y-57835532D01*
X91234000Y-57550375D01*
X91234000Y-57259625D01*
X91290721Y-56974468D01*
X91401985Y-56705853D01*
X91563516Y-56464105D01*
X91769105Y-56258516D01*
X92010853Y-56096985D01*
X92279468Y-55985721D01*
X92564625Y-55929000D01*
X92855375Y-55929000D01*
X93140532Y-55985721D01*
G37*
G36*
X130391000Y-58636000D02*
G01*
X128689000Y-58636000D01*
X128689000Y-56934000D01*
X130391000Y-56934000D01*
X130391000Y-58636000D01*
G37*
G36*
X122136000Y-58636000D02*
G01*
X120434000Y-58636000D01*
X120434000Y-56934000D01*
X122136000Y-56934000D01*
X122136000Y-58636000D01*
G37*
G36*
X123533228Y-56966703D02*
G01*
X123688100Y-57030853D01*
X123827481Y-57123985D01*
X123946015Y-57242519D01*
X124039147Y-57381900D01*
X124103297Y-57536772D01*
X124136000Y-57701184D01*
X124136000Y-57868816D01*
X124103297Y-58033228D01*
X124039147Y-58188100D01*
X123946015Y-58327481D01*
X123827481Y-58446015D01*
X123688100Y-58539147D01*
X123533228Y-58603297D01*
X123368816Y-58636000D01*
X123201184Y-58636000D01*
X123036772Y-58603297D01*
X122881900Y-58539147D01*
X122742519Y-58446015D01*
X122623985Y-58327481D01*
X122530853Y-58188100D01*
X122466703Y-58033228D01*
X122434000Y-57868816D01*
X122434000Y-57701184D01*
X122466703Y-57536772D01*
X122530853Y-57381900D01*
X122623985Y-57242519D01*
X122742519Y-57123985D01*
X122881900Y-57030853D01*
X123036772Y-56966703D01*
X123201184Y-56934000D01*
X123368816Y-56934000D01*
X123533228Y-56966703D01*
G37*
G36*
X131788228Y-56966703D02*
G01*
X131943100Y-57030853D01*
X132082481Y-57123985D01*
X132201015Y-57242519D01*
X132294147Y-57381900D01*
X132358297Y-57536772D01*
X132391000Y-57701184D01*
X132391000Y-57868816D01*
X132358297Y-58033228D01*
X132294147Y-58188100D01*
X132201015Y-58327481D01*
X132082481Y-58446015D01*
X131943100Y-58539147D01*
X131788228Y-58603297D01*
X131623816Y-58636000D01*
X131456184Y-58636000D01*
X131291772Y-58603297D01*
X131136900Y-58539147D01*
X130997519Y-58446015D01*
X130878985Y-58327481D01*
X130785853Y-58188100D01*
X130721703Y-58033228D01*
X130689000Y-57868816D01*
X130689000Y-57701184D01*
X130721703Y-57536772D01*
X130785853Y-57381900D01*
X130878985Y-57242519D01*
X130997519Y-57123985D01*
X131136900Y-57030853D01*
X131291772Y-56966703D01*
X131456184Y-56934000D01*
X131623816Y-56934000D01*
X131788228Y-56966703D01*
G37*
G36*
X102665532Y-55730721D02*
G01*
X102934147Y-55841985D01*
X103175895Y-56003516D01*
X103381484Y-56209105D01*
X103543015Y-56450853D01*
X103654279Y-56719468D01*
X103711000Y-57004625D01*
X103711000Y-57295375D01*
X103654279Y-57580532D01*
X103543015Y-57849147D01*
X103381484Y-58090895D01*
X103175895Y-58296484D01*
X102934147Y-58458015D01*
X102665532Y-58569279D01*
X102380375Y-58626000D01*
X102089625Y-58626000D01*
X101804468Y-58569279D01*
X101535853Y-58458015D01*
X101294105Y-58296484D01*
X101088516Y-58090895D01*
X100926985Y-57849147D01*
X100815721Y-57580532D01*
X100759000Y-57295375D01*
X100759000Y-57004625D01*
X100815721Y-56719468D01*
X100926985Y-56450853D01*
X101088516Y-56209105D01*
X101294105Y-56003516D01*
X101535853Y-55841985D01*
X101804468Y-55730721D01*
X102089625Y-55674000D01*
X102380375Y-55674000D01*
X102665532Y-55730721D01*
G37*
G36*
X82058241Y-51689760D02*
G01*
X82322305Y-51799139D01*
X82559958Y-51957934D01*
X82762066Y-52160042D01*
X82920861Y-52397695D01*
X83030240Y-52661759D01*
X83086000Y-52942088D01*
X83086000Y-53227912D01*
X83030240Y-53508241D01*
X82920861Y-53772305D01*
X82762066Y-54009958D01*
X82559958Y-54212066D01*
X82322305Y-54370861D01*
X82058241Y-54480240D01*
X81777912Y-54536000D01*
X81492088Y-54536000D01*
X81211759Y-54480240D01*
X80947695Y-54370861D01*
X80710042Y-54212066D01*
X80507934Y-54009958D01*
X80349139Y-53772305D01*
X80239760Y-53508241D01*
X80184000Y-53227912D01*
X80184000Y-52942088D01*
X80239760Y-52661759D01*
X80349139Y-52397695D01*
X80507934Y-52160042D01*
X80710042Y-51957934D01*
X80947695Y-51799139D01*
X81211759Y-51689760D01*
X81492088Y-51634000D01*
X81777912Y-51634000D01*
X82058241Y-51689760D01*
G37*
G36*
X77258241Y-51689760D02*
G01*
X77522305Y-51799139D01*
X77759958Y-51957934D01*
X77962066Y-52160042D01*
X78120861Y-52397695D01*
X78230240Y-52661759D01*
X78286000Y-52942088D01*
X78286000Y-53227912D01*
X78230240Y-53508241D01*
X78120861Y-53772305D01*
X77962066Y-54009958D01*
X77759958Y-54212066D01*
X77522305Y-54370861D01*
X77258241Y-54480240D01*
X76977912Y-54536000D01*
X76692088Y-54536000D01*
X76411759Y-54480240D01*
X76147695Y-54370861D01*
X75910042Y-54212066D01*
X75707934Y-54009958D01*
X75549139Y-53772305D01*
X75439760Y-53508241D01*
X75384000Y-53227912D01*
X75384000Y-52942088D01*
X75439760Y-52661759D01*
X75549139Y-52397695D01*
X75707934Y-52160042D01*
X75910042Y-51957934D01*
X76147695Y-51799139D01*
X76411759Y-51689760D01*
X76692088Y-51634000D01*
X76977912Y-51634000D01*
X77258241Y-51689760D01*
G37*
G36*
X94186000Y-54181000D02*
G01*
X91234000Y-54181000D01*
X91234000Y-51229000D01*
X94186000Y-51229000D01*
X94186000Y-54181000D01*
G37*
G36*
X113871000Y-54181000D02*
G01*
X110919000Y-54181000D01*
X110919000Y-51229000D01*
X113871000Y-51229000D01*
X113871000Y-54181000D01*
G37*
G36*
X103711000Y-53926000D02*
G01*
X100759000Y-53926000D01*
X100759000Y-50974000D01*
X103711000Y-50974000D01*
X103711000Y-53926000D01*
G37*
G36*
X144893512Y-50538927D02*
G01*
X145042812Y-50568624D01*
X145206784Y-50636544D01*
X145354354Y-50735147D01*
X145479853Y-50860646D01*
X145578456Y-51008216D01*
X145646376Y-51172188D01*
X145681000Y-51346259D01*
X145681000Y-51523741D01*
X145646376Y-51697812D01*
X145578456Y-51861784D01*
X145479853Y-52009354D01*
X145354354Y-52134853D01*
X145206784Y-52233456D01*
X145042812Y-52301376D01*
X144893512Y-52331073D01*
X144868742Y-52336000D01*
X144691258Y-52336000D01*
X144666488Y-52331073D01*
X144517188Y-52301376D01*
X144353216Y-52233456D01*
X144205646Y-52134853D01*
X144080147Y-52009354D01*
X143981544Y-51861784D01*
X143913624Y-51697812D01*
X143879000Y-51523741D01*
X143879000Y-51346259D01*
X143913624Y-51172188D01*
X143981544Y-51008216D01*
X144080147Y-50860646D01*
X144205646Y-50735147D01*
X144353216Y-50636544D01*
X144517188Y-50568624D01*
X144666488Y-50538927D01*
X144691258Y-50534000D01*
X144868742Y-50534000D01*
X144893512Y-50538927D01*
G37*
G36*
X151243512Y-50538927D02*
G01*
X151392812Y-50568624D01*
X151556784Y-50636544D01*
X151704354Y-50735147D01*
X151829853Y-50860646D01*
X151928456Y-51008216D01*
X151996376Y-51172188D01*
X152031000Y-51346259D01*
X152031000Y-51523741D01*
X151996376Y-51697812D01*
X151928456Y-51861784D01*
X151829853Y-52009354D01*
X151704354Y-52134853D01*
X151556784Y-52233456D01*
X151392812Y-52301376D01*
X151243512Y-52331073D01*
X151218742Y-52336000D01*
X151041258Y-52336000D01*
X151016488Y-52331073D01*
X150867188Y-52301376D01*
X150703216Y-52233456D01*
X150555646Y-52134853D01*
X150430147Y-52009354D01*
X150331544Y-51861784D01*
X150263624Y-51697812D01*
X150229000Y-51523741D01*
X150229000Y-51346259D01*
X150263624Y-51172188D01*
X150331544Y-51008216D01*
X150430147Y-50860646D01*
X150555646Y-50735147D01*
X150703216Y-50636544D01*
X150867188Y-50568624D01*
X151016488Y-50538927D01*
X151041258Y-50534000D01*
X151218742Y-50534000D01*
X151243512Y-50538927D01*
G37*
G36*
X138543512Y-50538927D02*
G01*
X138692812Y-50568624D01*
X138856784Y-50636544D01*
X139004354Y-50735147D01*
X139129853Y-50860646D01*
X139228456Y-51008216D01*
X139296376Y-51172188D01*
X139331000Y-51346259D01*
X139331000Y-51523741D01*
X139296376Y-51697812D01*
X139228456Y-51861784D01*
X139129853Y-52009354D01*
X139004354Y-52134853D01*
X138856784Y-52233456D01*
X138692812Y-52301376D01*
X138543512Y-52331073D01*
X138518742Y-52336000D01*
X138341258Y-52336000D01*
X138316488Y-52331073D01*
X138167188Y-52301376D01*
X138003216Y-52233456D01*
X137855646Y-52134853D01*
X137730147Y-52009354D01*
X137631544Y-51861784D01*
X137563624Y-51697812D01*
X137529000Y-51523741D01*
X137529000Y-51346259D01*
X137563624Y-51172188D01*
X137631544Y-51008216D01*
X137730147Y-50860646D01*
X137855646Y-50735147D01*
X138003216Y-50636544D01*
X138167188Y-50568624D01*
X138316488Y-50538927D01*
X138341258Y-50534000D01*
X138518742Y-50534000D01*
X138543512Y-50538927D01*
G37*
G36*
X139331000Y-49796000D02*
G01*
X137529000Y-49796000D01*
X137529000Y-47994000D01*
X139331000Y-47994000D01*
X139331000Y-49796000D01*
G37*
G36*
X145681000Y-49796000D02*
G01*
X143879000Y-49796000D01*
X143879000Y-47994000D01*
X145681000Y-47994000D01*
X145681000Y-49796000D01*
G37*
G36*
X152031000Y-49796000D02*
G01*
X150229000Y-49796000D01*
X150229000Y-47994000D01*
X152031000Y-47994000D01*
X152031000Y-49796000D01*
G37*
G36*
X102665532Y-44300721D02*
G01*
X102934147Y-44411985D01*
X103175895Y-44573516D01*
X103381484Y-44779105D01*
X103543015Y-45020853D01*
X103654279Y-45289468D01*
X103711000Y-45574625D01*
X103711000Y-45865375D01*
X103654279Y-46150532D01*
X103543015Y-46419147D01*
X103381484Y-46660895D01*
X103175895Y-46866484D01*
X102934147Y-47028015D01*
X102665532Y-47139279D01*
X102380375Y-47196000D01*
X102089625Y-47196000D01*
X101804468Y-47139279D01*
X101535853Y-47028015D01*
X101294105Y-46866484D01*
X101088516Y-46660895D01*
X100926985Y-46419147D01*
X100815721Y-46150532D01*
X100759000Y-45865375D01*
X100759000Y-45574625D01*
X100815721Y-45289468D01*
X100926985Y-45020853D01*
X101088516Y-44779105D01*
X101294105Y-44573516D01*
X101535853Y-44411985D01*
X101804468Y-44300721D01*
X102089625Y-44244000D01*
X102380375Y-44244000D01*
X102665532Y-44300721D01*
G37*
G36*
X92925532Y-44280721D02*
G01*
X93194147Y-44391985D01*
X93435895Y-44553516D01*
X93641484Y-44759105D01*
X93803015Y-45000853D01*
X93914279Y-45269468D01*
X93971000Y-45554625D01*
X93971000Y-45845375D01*
X93914279Y-46130532D01*
X93803015Y-46399147D01*
X93641484Y-46640895D01*
X93435895Y-46846484D01*
X93194147Y-47008015D01*
X92925532Y-47119279D01*
X92640375Y-47176000D01*
X92349625Y-47176000D01*
X92064468Y-47119279D01*
X91795853Y-47008015D01*
X91554105Y-46846484D01*
X91348516Y-46640895D01*
X91186985Y-46399147D01*
X91075721Y-46130532D01*
X91019000Y-45845375D01*
X91019000Y-45554625D01*
X91075721Y-45269468D01*
X91186985Y-45000853D01*
X91348516Y-44759105D01*
X91554105Y-44553516D01*
X91795853Y-44391985D01*
X92064468Y-44280721D01*
X92349625Y-44224000D01*
X92640375Y-44224000D01*
X92925532Y-44280721D01*
G37*
G36*
X112825532Y-43920721D02*
G01*
X113094147Y-44031985D01*
X113335895Y-44193516D01*
X113541484Y-44399105D01*
X113703015Y-44640853D01*
X113814279Y-44909468D01*
X113871000Y-45194625D01*
X113871000Y-45485375D01*
X113814279Y-45770532D01*
X113703015Y-46039147D01*
X113541484Y-46280895D01*
X113335895Y-46486484D01*
X113094147Y-46648015D01*
X112825532Y-46759279D01*
X112540375Y-46816000D01*
X112249625Y-46816000D01*
X111964468Y-46759279D01*
X111695853Y-46648015D01*
X111454105Y-46486484D01*
X111248516Y-46280895D01*
X111086985Y-46039147D01*
X110975721Y-45770532D01*
X110919000Y-45485375D01*
X110919000Y-45194625D01*
X110975721Y-44909468D01*
X111086985Y-44640853D01*
X111248516Y-44399105D01*
X111454105Y-44193516D01*
X111695853Y-44031985D01*
X111964468Y-43920721D01*
X112249625Y-43864000D01*
X112540375Y-43864000D01*
X112825532Y-43920721D01*
G37*
G36*
X83433228Y-44266703D02*
G01*
X83588100Y-44330853D01*
X83727481Y-44423985D01*
X83846015Y-44542519D01*
X83939147Y-44681900D01*
X84003297Y-44836772D01*
X84036000Y-45001184D01*
X84036000Y-45168816D01*
X84003297Y-45333228D01*
X83939147Y-45488100D01*
X83846015Y-45627481D01*
X83727481Y-45746015D01*
X83588100Y-45839147D01*
X83433228Y-45903297D01*
X83268816Y-45936000D01*
X83101184Y-45936000D01*
X82936772Y-45903297D01*
X82781900Y-45839147D01*
X82642519Y-45746015D01*
X82523985Y-45627481D01*
X82430853Y-45488100D01*
X82366703Y-45333228D01*
X82334000Y-45168816D01*
X82334000Y-45001184D01*
X82366703Y-44836772D01*
X82430853Y-44681900D01*
X82523985Y-44542519D01*
X82642519Y-44423985D01*
X82781900Y-44330853D01*
X82936772Y-44266703D01*
X83101184Y-44234000D01*
X83268816Y-44234000D01*
X83433228Y-44266703D01*
G37*
G36*
X75813228Y-44266703D02*
G01*
X75968100Y-44330853D01*
X76107481Y-44423985D01*
X76226015Y-44542519D01*
X76319147Y-44681900D01*
X76383297Y-44836772D01*
X76416000Y-45001184D01*
X76416000Y-45168816D01*
X76383297Y-45333228D01*
X76319147Y-45488100D01*
X76226015Y-45627481D01*
X76107481Y-45746015D01*
X75968100Y-45839147D01*
X75813228Y-45903297D01*
X75648816Y-45936000D01*
X75481184Y-45936000D01*
X75316772Y-45903297D01*
X75161900Y-45839147D01*
X75022519Y-45746015D01*
X74903985Y-45627481D01*
X74810853Y-45488100D01*
X74746703Y-45333228D01*
X74714000Y-45168816D01*
X74714000Y-45001184D01*
X74746703Y-44836772D01*
X74810853Y-44681900D01*
X74903985Y-44542519D01*
X75022519Y-44423985D01*
X75161900Y-44330853D01*
X75316772Y-44266703D01*
X75481184Y-44234000D01*
X75648816Y-44234000D01*
X75813228Y-44266703D01*
G37*
G36*
X129189903Y-42612075D02*
G01*
X129242210Y-42633741D01*
X129417571Y-42706378D01*
X129622466Y-42843285D01*
X129796715Y-43017534D01*
X129864749Y-43119354D01*
X129933623Y-43222431D01*
X130027925Y-43450097D01*
X130076000Y-43691786D01*
X130076000Y-43938214D01*
X130027925Y-44179903D01*
X129986165Y-44280722D01*
X129933622Y-44407571D01*
X129796715Y-44612466D01*
X129622466Y-44786715D01*
X129417571Y-44923622D01*
X129417570Y-44923623D01*
X129417569Y-44923623D01*
X129189903Y-45017925D01*
X128948214Y-45066000D01*
X128701786Y-45066000D01*
X128460097Y-45017925D01*
X128232431Y-44923623D01*
X128232430Y-44923623D01*
X128232429Y-44923622D01*
X128027534Y-44786715D01*
X127853285Y-44612466D01*
X127716378Y-44407571D01*
X127663836Y-44280722D01*
X127622075Y-44179903D01*
X127574000Y-43938214D01*
X127574000Y-43691786D01*
X127622075Y-43450097D01*
X127716377Y-43222431D01*
X127785251Y-43119354D01*
X127853285Y-43017534D01*
X128027534Y-42843285D01*
X128232429Y-42706378D01*
X128407791Y-42633741D01*
X128460097Y-42612075D01*
X128701786Y-42564000D01*
X128948214Y-42564000D01*
X129189903Y-42612075D01*
G37*
G36*
X125076000Y-45066000D02*
G01*
X122574000Y-45066000D01*
X122574000Y-42564000D01*
X125076000Y-42564000D01*
X125076000Y-45066000D01*
G37*
G36*
X144893512Y-41648927D02*
G01*
X145042812Y-41678624D01*
X145206784Y-41746544D01*
X145354354Y-41845147D01*
X145479853Y-41970646D01*
X145578456Y-42118216D01*
X145646376Y-42282188D01*
X145681000Y-42456259D01*
X145681000Y-42633741D01*
X145646376Y-42807812D01*
X145578456Y-42971784D01*
X145479853Y-43119354D01*
X145354354Y-43244853D01*
X145206784Y-43343456D01*
X145042812Y-43411376D01*
X144893512Y-43441073D01*
X144868742Y-43446000D01*
X144691258Y-43446000D01*
X144666488Y-43441073D01*
X144517188Y-43411376D01*
X144353216Y-43343456D01*
X144205646Y-43244853D01*
X144080147Y-43119354D01*
X143981544Y-42971784D01*
X143913624Y-42807812D01*
X143879000Y-42633741D01*
X143879000Y-42456259D01*
X143913624Y-42282188D01*
X143981544Y-42118216D01*
X144080147Y-41970646D01*
X144205646Y-41845147D01*
X144353216Y-41746544D01*
X144517188Y-41678624D01*
X144666488Y-41648927D01*
X144691258Y-41644000D01*
X144868742Y-41644000D01*
X144893512Y-41648927D01*
G37*
G36*
X151243512Y-41648927D02*
G01*
X151392812Y-41678624D01*
X151556784Y-41746544D01*
X151704354Y-41845147D01*
X151829853Y-41970646D01*
X151928456Y-42118216D01*
X151996376Y-42282188D01*
X152031000Y-42456259D01*
X152031000Y-42633741D01*
X151996376Y-42807812D01*
X151928456Y-42971784D01*
X151829853Y-43119354D01*
X151704354Y-43244853D01*
X151556784Y-43343456D01*
X151392812Y-43411376D01*
X151243512Y-43441073D01*
X151218742Y-43446000D01*
X151041258Y-43446000D01*
X151016488Y-43441073D01*
X150867188Y-43411376D01*
X150703216Y-43343456D01*
X150555646Y-43244853D01*
X150430147Y-43119354D01*
X150331544Y-42971784D01*
X150263624Y-42807812D01*
X150229000Y-42633741D01*
X150229000Y-42456259D01*
X150263624Y-42282188D01*
X150331544Y-42118216D01*
X150430147Y-41970646D01*
X150555646Y-41845147D01*
X150703216Y-41746544D01*
X150867188Y-41678624D01*
X151016488Y-41648927D01*
X151041258Y-41644000D01*
X151218742Y-41644000D01*
X151243512Y-41648927D01*
G37*
G36*
X139178512Y-41648927D02*
G01*
X139327812Y-41678624D01*
X139491784Y-41746544D01*
X139639354Y-41845147D01*
X139764853Y-41970646D01*
X139863456Y-42118216D01*
X139931376Y-42282188D01*
X139966000Y-42456259D01*
X139966000Y-42633741D01*
X139931376Y-42807812D01*
X139863456Y-42971784D01*
X139764853Y-43119354D01*
X139639354Y-43244853D01*
X139491784Y-43343456D01*
X139327812Y-43411376D01*
X139178512Y-43441073D01*
X139153742Y-43446000D01*
X138976258Y-43446000D01*
X138951488Y-43441073D01*
X138802188Y-43411376D01*
X138638216Y-43343456D01*
X138490646Y-43244853D01*
X138365147Y-43119354D01*
X138266544Y-42971784D01*
X138198624Y-42807812D01*
X138164000Y-42633741D01*
X138164000Y-42456259D01*
X138198624Y-42282188D01*
X138266544Y-42118216D01*
X138365147Y-41970646D01*
X138490646Y-41845147D01*
X138638216Y-41746544D01*
X138802188Y-41678624D01*
X138951488Y-41648927D01*
X138976258Y-41644000D01*
X139153742Y-41644000D01*
X139178512Y-41648927D01*
G37*
G36*
X75813228Y-41726703D02*
G01*
X75968100Y-41790853D01*
X76107481Y-41883985D01*
X76226015Y-42002519D01*
X76319147Y-42141900D01*
X76383297Y-42296772D01*
X76416000Y-42461184D01*
X76416000Y-42628816D01*
X76383297Y-42793228D01*
X76319147Y-42948100D01*
X76226015Y-43087481D01*
X76107481Y-43206015D01*
X75968100Y-43299147D01*
X75813228Y-43363297D01*
X75648816Y-43396000D01*
X75481184Y-43396000D01*
X75316772Y-43363297D01*
X75161900Y-43299147D01*
X75022519Y-43206015D01*
X74903985Y-43087481D01*
X74810853Y-42948100D01*
X74746703Y-42793228D01*
X74714000Y-42628816D01*
X74714000Y-42461184D01*
X74746703Y-42296772D01*
X74810853Y-42141900D01*
X74903985Y-42002519D01*
X75022519Y-41883985D01*
X75161900Y-41790853D01*
X75316772Y-41726703D01*
X75481184Y-41694000D01*
X75648816Y-41694000D01*
X75813228Y-41726703D01*
G37*
G36*
X83433228Y-41726703D02*
G01*
X83588100Y-41790853D01*
X83727481Y-41883985D01*
X83846015Y-42002519D01*
X83939147Y-42141900D01*
X84003297Y-42296772D01*
X84036000Y-42461184D01*
X84036000Y-42628816D01*
X84003297Y-42793228D01*
X83939147Y-42948100D01*
X83846015Y-43087481D01*
X83727481Y-43206015D01*
X83588100Y-43299147D01*
X83433228Y-43363297D01*
X83268816Y-43396000D01*
X83101184Y-43396000D01*
X82936772Y-43363297D01*
X82781900Y-43299147D01*
X82642519Y-43206015D01*
X82523985Y-43087481D01*
X82430853Y-42948100D01*
X82366703Y-42793228D01*
X82334000Y-42628816D01*
X82334000Y-42461184D01*
X82366703Y-42296772D01*
X82430853Y-42141900D01*
X82523985Y-42002519D01*
X82642519Y-41883985D01*
X82781900Y-41790853D01*
X82936772Y-41726703D01*
X83101184Y-41694000D01*
X83268816Y-41694000D01*
X83433228Y-41726703D01*
G37*
G36*
X102665532Y-39600721D02*
G01*
X102934147Y-39711985D01*
X103175895Y-39873516D01*
X103381484Y-40079105D01*
X103543015Y-40320853D01*
X103654279Y-40589468D01*
X103711000Y-40874625D01*
X103711000Y-41165375D01*
X103654279Y-41450532D01*
X103543015Y-41719147D01*
X103381484Y-41960895D01*
X103175895Y-42166484D01*
X102934147Y-42328015D01*
X102665532Y-42439279D01*
X102380375Y-42496000D01*
X102089625Y-42496000D01*
X101804468Y-42439279D01*
X101535853Y-42328015D01*
X101294105Y-42166484D01*
X101088516Y-41960895D01*
X100926985Y-41719147D01*
X100815721Y-41450532D01*
X100759000Y-41165375D01*
X100759000Y-40874625D01*
X100815721Y-40589468D01*
X100926985Y-40320853D01*
X101088516Y-40079105D01*
X101294105Y-39873516D01*
X101535853Y-39711985D01*
X101804468Y-39600721D01*
X102089625Y-39544000D01*
X102380375Y-39544000D01*
X102665532Y-39600721D01*
G37*
G36*
X92925532Y-39580721D02*
G01*
X93194147Y-39691985D01*
X93435895Y-39853516D01*
X93641484Y-40059105D01*
X93803015Y-40300853D01*
X93914279Y-40569468D01*
X93971000Y-40854625D01*
X93971000Y-41145375D01*
X93914279Y-41430532D01*
X93803015Y-41699147D01*
X93641484Y-41940895D01*
X93435895Y-42146484D01*
X93194147Y-42308015D01*
X92925532Y-42419279D01*
X92640375Y-42476000D01*
X92349625Y-42476000D01*
X92064468Y-42419279D01*
X91795853Y-42308015D01*
X91554105Y-42146484D01*
X91348516Y-41940895D01*
X91186985Y-41699147D01*
X91075721Y-41430532D01*
X91019000Y-41145375D01*
X91019000Y-40854625D01*
X91075721Y-40569468D01*
X91186985Y-40300853D01*
X91348516Y-40059105D01*
X91554105Y-39853516D01*
X91795853Y-39691985D01*
X92064468Y-39580721D01*
X92349625Y-39524000D01*
X92640375Y-39524000D01*
X92925532Y-39580721D01*
G37*
G36*
X112825532Y-39220721D02*
G01*
X113094147Y-39331985D01*
X113335895Y-39493516D01*
X113541484Y-39699105D01*
X113703015Y-39940853D01*
X113814279Y-40209468D01*
X113871000Y-40494625D01*
X113871000Y-40785375D01*
X113814279Y-41070532D01*
X113703015Y-41339147D01*
X113541484Y-41580895D01*
X113335895Y-41786484D01*
X113094147Y-41948015D01*
X112825532Y-42059279D01*
X112540375Y-42116000D01*
X112249625Y-42116000D01*
X111964468Y-42059279D01*
X111695853Y-41948015D01*
X111454105Y-41786484D01*
X111248516Y-41580895D01*
X111086985Y-41339147D01*
X110975721Y-41070532D01*
X110919000Y-40785375D01*
X110919000Y-40494625D01*
X110975721Y-40209468D01*
X111086985Y-39940853D01*
X111248516Y-39699105D01*
X111454105Y-39493516D01*
X111695853Y-39331985D01*
X111964468Y-39220721D01*
X112249625Y-39164000D01*
X112540375Y-39164000D01*
X112825532Y-39220721D01*
G37*
G36*
X145681000Y-40906000D02*
G01*
X143879000Y-40906000D01*
X143879000Y-39104000D01*
X145681000Y-39104000D01*
X145681000Y-40906000D01*
G37*
G36*
X139966000Y-40906000D02*
G01*
X138164000Y-40906000D01*
X138164000Y-39104000D01*
X139966000Y-39104000D01*
X139966000Y-40906000D01*
G37*
G36*
X152031000Y-40906000D02*
G01*
X150229000Y-40906000D01*
X150229000Y-39104000D01*
X152031000Y-39104000D01*
X152031000Y-40906000D01*
G37*
G36*
X75813228Y-39186703D02*
G01*
X75968100Y-39250853D01*
X76107481Y-39343985D01*
X76226015Y-39462519D01*
X76319147Y-39601900D01*
X76383297Y-39756772D01*
X76416000Y-39921184D01*
X76416000Y-40088816D01*
X76383297Y-40253228D01*
X76319147Y-40408100D01*
X76226015Y-40547481D01*
X76107481Y-40666015D01*
X75968100Y-40759147D01*
X75813228Y-40823297D01*
X75648816Y-40856000D01*
X75481184Y-40856000D01*
X75316772Y-40823297D01*
X75161900Y-40759147D01*
X75022519Y-40666015D01*
X74903985Y-40547481D01*
X74810853Y-40408100D01*
X74746703Y-40253228D01*
X74714000Y-40088816D01*
X74714000Y-39921184D01*
X74746703Y-39756772D01*
X74810853Y-39601900D01*
X74903985Y-39462519D01*
X75022519Y-39343985D01*
X75161900Y-39250853D01*
X75316772Y-39186703D01*
X75481184Y-39154000D01*
X75648816Y-39154000D01*
X75813228Y-39186703D01*
G37*
G36*
X83433228Y-39186703D02*
G01*
X83588100Y-39250853D01*
X83727481Y-39343985D01*
X83846015Y-39462519D01*
X83939147Y-39601900D01*
X84003297Y-39756772D01*
X84036000Y-39921184D01*
X84036000Y-40088816D01*
X84003297Y-40253228D01*
X83939147Y-40408100D01*
X83846015Y-40547481D01*
X83727481Y-40666015D01*
X83588100Y-40759147D01*
X83433228Y-40823297D01*
X83268816Y-40856000D01*
X83101184Y-40856000D01*
X82936772Y-40823297D01*
X82781900Y-40759147D01*
X82642519Y-40666015D01*
X82523985Y-40547481D01*
X82430853Y-40408100D01*
X82366703Y-40253228D01*
X82334000Y-40088816D01*
X82334000Y-39921184D01*
X82366703Y-39756772D01*
X82430853Y-39601900D01*
X82523985Y-39462519D01*
X82642519Y-39343985D01*
X82781900Y-39250853D01*
X82936772Y-39186703D01*
X83101184Y-39154000D01*
X83268816Y-39154000D01*
X83433228Y-39186703D01*
G37*
G36*
X76416000Y-38316000D02*
G01*
X74714000Y-38316000D01*
X74714000Y-36614000D01*
X76416000Y-36614000D01*
X76416000Y-38316000D01*
G37*
G36*
X83433228Y-36646703D02*
G01*
X83588100Y-36710853D01*
X83727481Y-36803985D01*
X83846015Y-36922519D01*
X83939147Y-37061900D01*
X84003297Y-37216772D01*
X84036000Y-37381184D01*
X84036000Y-37548816D01*
X84003297Y-37713228D01*
X83939147Y-37868100D01*
X83846015Y-38007481D01*
X83727481Y-38126015D01*
X83588100Y-38219147D01*
X83433228Y-38283297D01*
X83268816Y-38316000D01*
X83101184Y-38316000D01*
X82936772Y-38283297D01*
X82781900Y-38219147D01*
X82642519Y-38126015D01*
X82523985Y-38007481D01*
X82430853Y-37868100D01*
X82366703Y-37713228D01*
X82334000Y-37548816D01*
X82334000Y-37381184D01*
X82366703Y-37216772D01*
X82430853Y-37061900D01*
X82523985Y-36922519D01*
X82642519Y-36803985D01*
X82781900Y-36710853D01*
X82936772Y-36646703D01*
X83101184Y-36614000D01*
X83268816Y-36614000D01*
X83433228Y-36646703D01*
G37*
G36*
X103711000Y-37796000D02*
G01*
X100759000Y-37796000D01*
X100759000Y-34844000D01*
X103711000Y-34844000D01*
X103711000Y-37796000D01*
G37*
G36*
X93971000Y-37776000D02*
G01*
X91019000Y-37776000D01*
X91019000Y-34824000D01*
X93971000Y-34824000D01*
X93971000Y-37776000D01*
G37*
G36*
X113871000Y-37416000D02*
G01*
X110919000Y-37416000D01*
X110919000Y-34464000D01*
X113871000Y-34464000D01*
X113871000Y-37416000D01*
G37*
M02*
