M48
; DRILL file {KiCad (5.1.5)-3} date 1/23/2020 5:29:11 PM
; FORMAT={-:-/ absolute / inch / decimal}
; #@! TF.CreationDate,2020-01-23T17:29:11-05:00
; #@! TF.GenerationSoftware,Kicad,Pcbnew,(5.1.5)-3
; #@! TF.FileFunction,Plated,1,2,PTH
FMAT,2
INCH
T1C0.0157
T2C0.0217
T3C0.0315
T4C0.0394
T5C0.0472
T6C0.0709
T7C0.0728
%
G90
G05
T1
X3.7312Y-2.9134
X3.7896Y-2.9271
X3.9755Y-2.7483
X4.7359Y-2.1287
X5.0056Y-2.3649
X5.2366Y-3.2517
X5.3326Y-2.8803
T2
X5.475Y-2.925
X5.525Y-2.925
X5.575Y-2.925
X5.475Y-2.375
X5.525Y-2.375
X5.575Y-2.375
X5.825Y-2.375
X5.875Y-2.375
X5.925Y-2.375
X5.825Y-2.65
X5.875Y-2.65
X5.925Y-2.65
X5.475Y-2.65
X5.525Y-2.65
X5.575Y-2.65
X5.825Y-2.925
X5.875Y-2.925
X5.925Y-2.925
T3
X2.95Y-4.05
X3.25Y-4.05
X4.787Y-4.175
X5.087Y-4.175
X3.5707Y-3.6055
X3.8707Y-3.6055
X5.375Y-3.625
X5.5719Y-3.625
X5.375Y-3.2
X5.5719Y-3.2
X5.1Y-2.275
X5.1787Y-2.275
X4.15Y-2.675
X4.45Y-2.675
X2.9486Y-3.2909
X3.2486Y-3.2909
X4.165Y-3.0305
X4.465Y-3.0305
X2.925Y-2.7
X3.225Y-2.7
X3.5707Y-2.6848
X3.8707Y-2.6848
X4.789Y-3.0055
X5.089Y-3.0055
X3.5659Y-3.0555
X3.8659Y-3.0555
X4.7937Y-3.79
X5.0937Y-3.79
X3.575Y-3.425
X3.875Y-3.425
X4.163Y-4.15
X4.463Y-4.15
X4.1697Y-3.3961
X4.4697Y-3.3961
X5.75Y-3.4
X5.9469Y-3.4
X3.5707Y-3.9994
X3.8707Y-3.9994
X4.15Y-2.85
X4.45Y-2.85
X4.8Y-2.775
X5.1Y-2.775
X2.9467Y-3.7022
X3.2467Y-3.7022
X2.9467Y-3.8616
X3.2467Y-3.8616
X3.5707Y-3.79
X3.8707Y-3.79
X5.375Y-3.85
X5.5719Y-3.85
X5.75Y-3.85
X5.9469Y-3.85
X5.75Y-3.175
X5.9469Y-3.175
X2.95Y-2.9
X3.25Y-2.9
X4.1697Y-3.9494
X4.4697Y-3.9494
X4.165Y-3.215
X4.465Y-3.215
X2.95Y-3.1
X3.25Y-3.1
X3.5659Y-3.24
X3.8659Y-3.24
X5.375Y-4.275
X5.5719Y-4.275
X5.375Y-4.075
X5.5719Y-4.075
X4.789Y-3.215
X5.089Y-3.215
X4.8Y-2.575
X5.1Y-2.575
X4.1697Y-3.5805
X4.4697Y-3.5805
X3.5707Y-2.8693
X3.8707Y-2.8693
X4.7937Y-3.9744
X5.0937Y-3.9744
X4.1697Y-3.765
X4.4697Y-3.765
X4.775Y-2.275
X4.8537Y-2.275
X5.375Y-3.425
X5.5719Y-3.425
X2.9467Y-3.5177
X3.2467Y-3.5177
X4.7937Y-3.6055
X5.0937Y-3.6055
X4.7937Y-3.4211
X5.0937Y-3.4211
X5.75Y-3.625
X5.9469Y-3.625
X5.75Y-4.075
X5.9469Y-4.075
X5.75Y-4.275
X5.9469Y-4.275
T4
X5.95Y-1.575
X5.95Y-1.675
X5.95Y-1.925
X5.95Y-2.025
X2.625Y-3.4
X2.625Y-3.5
X5.7Y-1.925
X5.7Y-2.025
X2.975Y-1.475
X2.975Y-1.575
X2.975Y-1.675
X2.975Y-1.775
X3.275Y-1.475
X3.275Y-1.575
X3.275Y-1.675
X3.275Y-1.775
X2.625Y-3.15
X2.625Y-2.4
X2.625Y-2.5
X2.625Y-2.6
X2.625Y-2.7
X2.625Y-2.8
X2.625Y-2.9
X5.45Y-1.925
X5.45Y-2.025
X5.475Y-1.575
X5.475Y-1.675
X5.7Y-1.575
X5.7Y-1.675
T5
X4.875Y-1.725
X5.0719Y-1.725
T6
X3.025Y-2.09
X3.025Y-2.275
X3.025Y-2.46
X3.214Y-2.09
X3.214Y-2.275
X3.214Y-2.46
T7
X4.425Y-1.415
X4.425Y-1.6
X4.425Y-1.785
X4.425Y-2.075
X4.425Y-2.26
X4.425Y-2.4451
X3.65Y-2.075
X3.65Y-2.26
X3.65Y-2.4451
X3.6415Y-1.4291
X3.6415Y-1.6142
X3.6415Y-1.7992
X4.025Y-2.065
X4.025Y-2.25
X4.025Y-2.435
X4.025Y-1.4299
X4.025Y-1.615
X4.025Y-1.8
T0
M30
