G04 #@! TF.GenerationSoftware,KiCad,Pcbnew,(5.1.5)-3*
G04 #@! TF.CreationDate,2020-01-23T17:29:19-05:00*
G04 #@! TF.ProjectId,cludge,636c7564-6765-42e6-9b69-6361645f7063,v01*
G04 #@! TF.SameCoordinates,Original*
G04 #@! TF.FileFunction,Copper,L2,Bot*
G04 #@! TF.FilePolarity,Positive*
%FSLAX46Y46*%
G04 Gerber Fmt 4.6, Leading zero omitted, Abs format (unit mm)*
G04 Created by KiCad (PCBNEW (5.1.5)-3) date 2020-01-23 17:29:19*
%MOMM*%
%LPD*%
G04 APERTURE LIST*
%ADD10C,1.600000*%
%ADD11R,1.600000X1.600000*%
%ADD12R,2.400000X2.400000*%
%ADD13C,2.400000*%
%ADD14R,1.700000X1.700000*%
%ADD15O,1.700000X1.700000*%
%ADD16R,1.000000X1.500000*%
%ADD17O,1.000000X1.500000*%
%ADD18O,1.600000X1.600000*%
%ADD19R,2.850000X2.850000*%
%ADD20C,2.850000*%
%ADD21R,2.800000X2.800000*%
%ADD22C,2.800000*%
%ADD23C,0.800000*%
%ADD24C,0.250000*%
G04 APERTURE END LIST*
D10*
X146050000Y-92075000D03*
X151050000Y-92075000D03*
X151050000Y-80645000D03*
X146050000Y-80645000D03*
X141525000Y-81280000D03*
X136525000Y-81280000D03*
X136525000Y-92075000D03*
X141525000Y-92075000D03*
D11*
X121285000Y-57785000D03*
D10*
X123285000Y-57785000D03*
D12*
X123825000Y-43815000D03*
D13*
X128825000Y-43815000D03*
D10*
X136525000Y-97790000D03*
X141525000Y-97790000D03*
X131540000Y-57785000D03*
D11*
X129540000Y-57785000D03*
D10*
X151050000Y-103505000D03*
X146050000Y-103505000D03*
X146050000Y-86360000D03*
X151050000Y-86360000D03*
X146050000Y-108585000D03*
X151050000Y-108585000D03*
X141525000Y-86995000D03*
X136525000Y-86995000D03*
X136525000Y-103505000D03*
X141525000Y-103505000D03*
X151050000Y-97790000D03*
X146050000Y-97790000D03*
X141525000Y-108585000D03*
X136525000Y-108585000D03*
D14*
X66675000Y-86360000D03*
D15*
X66675000Y-88900000D03*
D14*
X66675000Y-80010000D03*
X66675000Y-60960000D03*
D15*
X66675000Y-63500000D03*
X66675000Y-66040000D03*
X66675000Y-68580000D03*
X66675000Y-71120000D03*
X66675000Y-73660000D03*
D14*
X151130000Y-40005000D03*
D15*
X151130000Y-42545000D03*
X144780000Y-51435000D03*
D14*
X144780000Y-48895000D03*
X139065000Y-40005000D03*
D15*
X139065000Y-42545000D03*
X151130000Y-51435000D03*
D14*
X151130000Y-48895000D03*
X138430000Y-48895000D03*
D15*
X138430000Y-51435000D03*
X144780000Y-42545000D03*
D14*
X144780000Y-40005000D03*
D16*
X139065000Y-74295000D03*
D17*
X141605000Y-74295000D03*
X140335000Y-74295000D03*
X149225000Y-74295000D03*
X150495000Y-74295000D03*
D16*
X147955000Y-74295000D03*
X139065000Y-67310000D03*
D17*
X141605000Y-67310000D03*
X140335000Y-67310000D03*
X149225000Y-67310000D03*
X150495000Y-67310000D03*
D16*
X147955000Y-67310000D03*
X147955000Y-60325000D03*
D17*
X150495000Y-60325000D03*
X149225000Y-60325000D03*
X140335000Y-60325000D03*
X141605000Y-60325000D03*
D16*
X139065000Y-60325000D03*
D18*
X105910000Y-95630000D03*
D10*
X113530000Y-95630000D03*
X98315000Y-72880000D03*
D18*
X90695000Y-72880000D03*
D10*
X82550000Y-102870000D03*
D18*
X74930000Y-102870000D03*
X90695000Y-68195000D03*
D10*
X98315000Y-68195000D03*
D18*
X105790000Y-81660000D03*
D10*
X113410000Y-81660000D03*
D18*
X105790000Y-76975000D03*
D10*
X113410000Y-76975000D03*
X82465000Y-94035000D03*
D18*
X74845000Y-94035000D03*
D10*
X113030000Y-72390000D03*
D18*
X105410000Y-72390000D03*
X90805000Y-86995000D03*
D10*
X98425000Y-86995000D03*
D18*
X105410000Y-67945000D03*
D10*
X113030000Y-67945000D03*
X98315000Y-91580000D03*
D18*
X90695000Y-91580000D03*
D10*
X82465000Y-89350000D03*
D18*
X74845000Y-89350000D03*
X90575000Y-77610000D03*
D10*
X98195000Y-77610000D03*
D18*
X90575000Y-82295000D03*
D10*
X98195000Y-82295000D03*
X129540000Y-65405000D03*
D18*
X121920000Y-65405000D03*
D10*
X129380000Y-86895000D03*
D18*
X121760000Y-86895000D03*
X90695000Y-96265000D03*
D10*
X98315000Y-96265000D03*
D18*
X74930000Y-73660000D03*
D10*
X82550000Y-73660000D03*
X113530000Y-86260000D03*
D18*
X105910000Y-86260000D03*
X74930000Y-78740000D03*
D10*
X82550000Y-78740000D03*
X98315000Y-101585000D03*
D18*
X90695000Y-101585000D03*
D10*
X113530000Y-90945000D03*
D18*
X105910000Y-90945000D03*
X74295000Y-68580000D03*
D10*
X81915000Y-68580000D03*
D18*
X121640000Y-76340000D03*
D10*
X129260000Y-76340000D03*
D18*
X74845000Y-98085000D03*
D10*
X82465000Y-98085000D03*
X129380000Y-91580000D03*
D18*
X121760000Y-91580000D03*
D10*
X113530000Y-100315000D03*
D18*
X105910000Y-100315000D03*
D10*
X129540000Y-70485000D03*
D18*
X121920000Y-70485000D03*
X121640000Y-81660000D03*
D10*
X129260000Y-81660000D03*
X113360000Y-105410000D03*
D18*
X105740000Y-105410000D03*
X121760000Y-96265000D03*
D10*
X129380000Y-96265000D03*
X129380000Y-100950000D03*
D18*
X121760000Y-100950000D03*
X121590000Y-106045000D03*
D10*
X129210000Y-106045000D03*
X82515000Y-83590000D03*
D18*
X74895000Y-83590000D03*
D19*
X112395000Y-52705000D03*
D20*
X112395000Y-57405000D03*
X112395000Y-62105000D03*
X112395000Y-45340000D03*
X112395000Y-40640000D03*
D19*
X112395000Y-35940000D03*
D21*
X76835000Y-62485000D03*
D22*
X76835000Y-57785000D03*
X76835000Y-53085000D03*
X81635000Y-62485000D03*
X81635000Y-57785000D03*
X81635000Y-53085000D03*
D20*
X102235000Y-61850000D03*
X102235000Y-57150000D03*
D19*
X102235000Y-52450000D03*
X102235000Y-36320000D03*
D20*
X102235000Y-41020000D03*
X102235000Y-45720000D03*
D19*
X92710000Y-52705000D03*
D20*
X92710000Y-57405000D03*
X92710000Y-62105000D03*
X92495000Y-45700000D03*
X92495000Y-41000000D03*
D19*
X92495000Y-36300000D03*
D11*
X75565000Y-37465000D03*
D10*
X75565000Y-40005000D03*
X75565000Y-42545000D03*
X75565000Y-45085000D03*
X83185000Y-45085000D03*
X83185000Y-42545000D03*
X83185000Y-40005000D03*
X83185000Y-37465000D03*
D23*
X133010200Y-82593500D03*
X100978400Y-69806800D03*
X120292200Y-54070200D03*
X135447100Y-73160400D03*
X127142400Y-60068300D03*
X96256600Y-74347800D03*
X94771400Y-74001400D03*
D24*
X146050000Y-92075000D02*
X144474300Y-90499300D01*
X144474300Y-90499300D02*
X144474300Y-84399300D01*
X144474300Y-84399300D02*
X147186800Y-81686800D01*
X147186800Y-81686800D02*
X147186800Y-77100100D01*
X147186800Y-77100100D02*
X147119500Y-77032800D01*
X147119500Y-77032800D02*
X147119500Y-47730800D01*
X147119500Y-47730800D02*
X151130000Y-43720300D01*
X105910000Y-95630000D02*
X105910000Y-94504700D01*
X98315000Y-72880000D02*
X103335900Y-72880000D01*
X103335900Y-72880000D02*
X107069900Y-76614000D01*
X107069900Y-76614000D02*
X107069900Y-86760300D01*
X107069900Y-86760300D02*
X104784700Y-89045500D01*
X104784700Y-89045500D02*
X104784700Y-93379400D01*
X104784700Y-93379400D02*
X105910000Y-94504700D01*
X151130000Y-42545000D02*
X151130000Y-43720300D01*
X66675000Y-80010000D02*
X66675000Y-78834700D01*
X66675000Y-68580000D02*
X66675000Y-69755300D01*
X66675000Y-78834700D02*
X67850300Y-77659400D01*
X67850300Y-77659400D02*
X67850300Y-70629300D01*
X67850300Y-70629300D02*
X66976300Y-69755300D01*
X66976300Y-69755300D02*
X66675000Y-69755300D01*
X141525000Y-97790000D02*
X142656200Y-98921200D01*
X142656200Y-98921200D02*
X142656200Y-107453800D01*
X142656200Y-107453800D02*
X141525000Y-108585000D01*
X151050000Y-86360000D02*
X151050000Y-92075000D01*
X151050000Y-80645000D02*
X151050000Y-86360000D01*
X151050000Y-97790000D02*
X151050000Y-92075000D01*
X74930000Y-102870000D02*
X76055300Y-102870000D01*
X76055300Y-102870000D02*
X77196100Y-101729200D01*
X77196100Y-101729200D02*
X87700800Y-101729200D01*
X87700800Y-101729200D02*
X88728900Y-102757300D01*
X88728900Y-102757300D02*
X91185800Y-102757300D01*
X91185800Y-102757300D02*
X96111000Y-97832100D01*
X96111000Y-97832100D02*
X96111000Y-96874300D01*
X96111000Y-96874300D02*
X97850100Y-95135200D01*
X97850100Y-95135200D02*
X103019800Y-95135200D01*
X103019800Y-95135200D02*
X104683100Y-96798500D01*
X104683100Y-96798500D02*
X106373800Y-96798500D01*
X106373800Y-96798500D02*
X107377500Y-95794800D01*
X107377500Y-95794800D02*
X107377500Y-90788200D01*
X107377500Y-90788200D02*
X115050000Y-83115700D01*
X115050000Y-83115700D02*
X115050000Y-69965000D01*
X115050000Y-69965000D02*
X113030000Y-67945000D01*
X144780000Y-52610300D02*
X144780000Y-79375000D01*
X144780000Y-79375000D02*
X146050000Y-80645000D01*
X144780000Y-51435000D02*
X144780000Y-52610300D01*
X121310000Y-100950000D02*
X127198400Y-95061600D01*
X127198400Y-95061600D02*
X127198400Y-90796200D01*
X127198400Y-90796200D02*
X133010200Y-84984400D01*
X133010200Y-84984400D02*
X133010200Y-82593500D01*
X121310000Y-100950000D02*
X120634700Y-100950000D01*
X121760000Y-100950000D02*
X121310000Y-100950000D01*
X105740000Y-105410000D02*
X106865300Y-105410000D01*
X106865300Y-105410000D02*
X110200000Y-102075300D01*
X110200000Y-102075300D02*
X119509400Y-102075300D01*
X119509400Y-102075300D02*
X120634700Y-100950000D01*
X113410000Y-81660000D02*
X112831600Y-81660000D01*
X112831600Y-81660000D02*
X100978400Y-69806800D01*
X140335000Y-74295000D02*
X140335000Y-77470000D01*
X140335000Y-77470000D02*
X136525000Y-81280000D01*
X105790000Y-76975000D02*
X104664700Y-76975000D01*
X82465000Y-94035000D02*
X87157500Y-89342500D01*
X87157500Y-89342500D02*
X92859800Y-89342500D01*
X92859800Y-89342500D02*
X104664700Y-77537600D01*
X104664700Y-77537600D02*
X104664700Y-76975000D01*
X136525000Y-92075000D02*
X138534800Y-92075000D01*
X138534800Y-92075000D02*
X145412100Y-98952300D01*
X145412100Y-98952300D02*
X146502100Y-98952300D01*
X146502100Y-98952300D02*
X147175400Y-98279000D01*
X147175400Y-98279000D02*
X147175400Y-89076800D01*
X147175400Y-89076800D02*
X144924700Y-86826100D01*
X144924700Y-86826100D02*
X144924700Y-85893800D01*
X144924700Y-85893800D02*
X149225000Y-81593500D01*
X149225000Y-81593500D02*
X149225000Y-74295000D01*
X90695000Y-72880000D02*
X90695000Y-74005300D01*
X90695000Y-101585000D02*
X88352200Y-101585000D01*
X88352200Y-101585000D02*
X81311500Y-94544300D01*
X81311500Y-94544300D02*
X81311500Y-83107500D01*
X81311500Y-83107500D02*
X90413700Y-74005300D01*
X90413700Y-74005300D02*
X90695000Y-74005300D01*
X141525000Y-103505000D02*
X141525000Y-99381500D01*
X141525000Y-99381500D02*
X135344900Y-93201400D01*
X135344900Y-93201400D02*
X135344900Y-88175100D01*
X135344900Y-88175100D02*
X136525000Y-86995000D01*
X66675000Y-66040000D02*
X66675000Y-64864700D01*
X75565000Y-37465000D02*
X75565000Y-38590300D01*
X75565000Y-38590300D02*
X75283700Y-38590300D01*
X75283700Y-38590300D02*
X67890700Y-45983300D01*
X67890700Y-45983300D02*
X67890700Y-63946600D01*
X67890700Y-63946600D02*
X66972600Y-64864700D01*
X66972600Y-64864700D02*
X66675000Y-64864700D01*
X139065000Y-74295000D02*
X138239700Y-74295000D01*
X136525000Y-86995000D02*
X135373700Y-85843700D01*
X135373700Y-85843700D02*
X135373700Y-77161000D01*
X135373700Y-77161000D02*
X138239700Y-74295000D01*
X121640000Y-81660000D02*
X121640000Y-82785300D01*
X121760000Y-91580000D02*
X121760000Y-90454700D01*
X121760000Y-90454700D02*
X122907900Y-89306800D01*
X122907900Y-89306800D02*
X122907900Y-84053200D01*
X122907900Y-84053200D02*
X121640000Y-82785300D01*
X121640000Y-81660000D02*
X121640000Y-80534700D01*
X121640000Y-80534700D02*
X120498100Y-79392800D01*
X120498100Y-79392800D02*
X120498100Y-73032200D01*
X120498100Y-73032200D02*
X121920000Y-71610300D01*
X146050000Y-108585000D02*
X146050000Y-103505000D01*
X121920000Y-70485000D02*
X121920000Y-69359700D01*
X123285000Y-57785000D02*
X123285000Y-67994700D01*
X123285000Y-67994700D02*
X121920000Y-69359700D01*
X129540000Y-57785000D02*
X129540000Y-56659700D01*
X128825000Y-43815000D02*
X128825000Y-55944700D01*
X128825000Y-55944700D02*
X129540000Y-56659700D01*
X74930000Y-73660000D02*
X74930000Y-74785300D01*
X74845000Y-94035000D02*
X74845000Y-92909700D01*
X74845000Y-92909700D02*
X76055300Y-91699400D01*
X76055300Y-91699400D02*
X76055300Y-75910600D01*
X76055300Y-75910600D02*
X74930000Y-74785300D01*
X74845000Y-98085000D02*
X74845000Y-94035000D01*
X121920000Y-70485000D02*
X121920000Y-71610300D01*
X105910000Y-86260000D02*
X105910000Y-85134700D01*
X105910000Y-85134700D02*
X105790000Y-85014700D01*
X105790000Y-85014700D02*
X105790000Y-81660000D01*
X98315000Y-91580000D02*
X98425000Y-91470000D01*
X98425000Y-91470000D02*
X98425000Y-86995000D01*
X123825000Y-45340300D02*
X119566900Y-49598400D01*
X119566900Y-49598400D02*
X119566900Y-83576600D01*
X119566900Y-83576600D02*
X121760000Y-85769700D01*
X121760000Y-86895000D02*
X121760000Y-85769700D01*
X123825000Y-43815000D02*
X123825000Y-45340300D01*
X139065000Y-43720300D02*
X134271500Y-48513800D01*
X134271500Y-48513800D02*
X134271500Y-95536500D01*
X134271500Y-95536500D02*
X136525000Y-97790000D01*
X139065000Y-42545000D02*
X139065000Y-43720300D01*
X83185000Y-42545000D02*
X84347300Y-43707300D01*
X84347300Y-43707300D02*
X84347300Y-66147700D01*
X84347300Y-66147700D02*
X81915000Y-68580000D01*
X113360000Y-105410000D02*
X117685800Y-109735800D01*
X117685800Y-109735800D02*
X141973300Y-109735800D01*
X141973300Y-109735800D02*
X144279300Y-107429800D01*
X144279300Y-107429800D02*
X144279300Y-102375100D01*
X144279300Y-102375100D02*
X147672200Y-98982200D01*
X147672200Y-98982200D02*
X147672200Y-87982200D01*
X147672200Y-87982200D02*
X146050000Y-86360000D01*
X151050000Y-108585000D02*
X152203800Y-107431200D01*
X152203800Y-107431200D02*
X152203800Y-66228700D01*
X152203800Y-66228700D02*
X149225000Y-63249900D01*
X149225000Y-63249900D02*
X149225000Y-60325000D01*
X76835000Y-62485000D02*
X76835000Y-64210300D01*
X76835000Y-64210300D02*
X76835000Y-92455000D01*
X76835000Y-92455000D02*
X82465000Y-98085000D01*
X140335000Y-60325000D02*
X140335000Y-63391000D01*
X140335000Y-63391000D02*
X142653000Y-65709000D01*
X142653000Y-65709000D02*
X142653000Y-85867000D01*
X142653000Y-85867000D02*
X141525000Y-86995000D01*
X120292200Y-54070200D02*
X122226600Y-54070200D01*
X122226600Y-54070200D02*
X133738800Y-65582400D01*
X133738800Y-65582400D02*
X133738800Y-100718800D01*
X133738800Y-100718800D02*
X136525000Y-103505000D01*
X138430000Y-51435000D02*
X138430000Y-52610300D01*
X146050000Y-97790000D02*
X143539300Y-95279300D01*
X143539300Y-95279300D02*
X143539300Y-57719600D01*
X143539300Y-57719600D02*
X138430000Y-52610300D01*
X144780000Y-42545000D02*
X144780000Y-44707900D01*
X144780000Y-44707900D02*
X139417500Y-50070400D01*
X139417500Y-50070400D02*
X138102400Y-50070400D01*
X138102400Y-50070400D02*
X134721800Y-53451000D01*
X134721800Y-53451000D02*
X134721800Y-93758400D01*
X134721800Y-93758400D02*
X137651300Y-96687900D01*
X137651300Y-96687900D02*
X137651300Y-107458700D01*
X137651300Y-107458700D02*
X136525000Y-108585000D01*
X97570800Y-77610000D02*
X97570800Y-74636000D01*
X97570800Y-74636000D02*
X96690600Y-73755800D01*
X96690600Y-73755800D02*
X96690600Y-69819400D01*
X96690600Y-69819400D02*
X98315000Y-68195000D01*
X82465000Y-89350000D02*
X85830800Y-89350000D01*
X85830800Y-89350000D02*
X97570800Y-77610000D01*
X97570800Y-77610000D02*
X98195000Y-77610000D01*
X139065000Y-60325000D02*
X139065000Y-67310000D01*
X147955000Y-67310000D02*
X147955000Y-60325000D01*
X113530000Y-97248900D02*
X113530000Y-95630000D01*
X113530000Y-100315000D02*
X113530000Y-97248900D01*
X98315000Y-96265000D02*
X99298900Y-97248900D01*
X99298900Y-97248900D02*
X113530000Y-97248900D01*
X82550000Y-102870000D02*
X82887700Y-103207700D01*
X82887700Y-103207700D02*
X91372300Y-103207700D01*
X91372300Y-103207700D02*
X98315000Y-96265000D01*
X129210000Y-106045000D02*
X128253800Y-105088800D01*
X128253800Y-105088800D02*
X128253800Y-97391200D01*
X128253800Y-97391200D02*
X129380000Y-96265000D01*
X76835000Y-57785000D02*
X79534000Y-60484000D01*
X79534000Y-60484000D02*
X79534000Y-70644000D01*
X79534000Y-70644000D02*
X82550000Y-73660000D01*
X140335000Y-67310000D02*
X140335000Y-68385300D01*
X135447100Y-73160400D02*
X140222200Y-68385300D01*
X140222200Y-68385300D02*
X140335000Y-68385300D01*
X129260000Y-81660000D02*
X127142400Y-79542400D01*
X127142400Y-79542400D02*
X127142400Y-60068300D01*
X105410000Y-72390000D02*
X105410000Y-71264700D01*
X112395000Y-62105000D02*
X112395000Y-64279700D01*
X112395000Y-64279700D02*
X105410000Y-71264700D01*
X90805000Y-86995000D02*
X90805000Y-85869700D01*
X112395000Y-52705000D02*
X112395000Y-54455300D01*
X112395000Y-54455300D02*
X110644700Y-56205600D01*
X110644700Y-56205600D02*
X110644700Y-57505200D01*
X110644700Y-57505200D02*
X97171700Y-70978200D01*
X97171700Y-70978200D02*
X97171700Y-73328100D01*
X97171700Y-73328100D02*
X99350400Y-75506800D01*
X99350400Y-75506800D02*
X99350400Y-78062800D01*
X99350400Y-78062800D02*
X91543500Y-85869700D01*
X91543500Y-85869700D02*
X90805000Y-85869700D01*
X82550000Y-78740000D02*
X101790000Y-59500000D01*
X101790000Y-59500000D02*
X102375800Y-59500000D01*
X102375800Y-59500000D02*
X104838500Y-57037300D01*
X104838500Y-57037300D02*
X104838500Y-52896500D01*
X104838500Y-52896500D02*
X112395000Y-45340000D01*
X105910000Y-90945000D02*
X105910000Y-89819700D01*
X112395000Y-35940000D02*
X112395000Y-37690300D01*
X112395000Y-37690300D02*
X114156600Y-39451900D01*
X114156600Y-39451900D02*
X114156600Y-64563800D01*
X114156600Y-64563800D02*
X111861300Y-66859100D01*
X111861300Y-66859100D02*
X111861300Y-68746600D01*
X111861300Y-68746600D02*
X114548900Y-71434200D01*
X114548900Y-71434200D02*
X114548900Y-82165400D01*
X114548900Y-82165400D02*
X106894600Y-89819700D01*
X106894600Y-89819700D02*
X105910000Y-89819700D01*
X83185000Y-40005000D02*
X81112700Y-42077300D01*
X81112700Y-42077300D02*
X81112700Y-44309800D01*
X81112700Y-44309800D02*
X74295000Y-51127500D01*
X74295000Y-51127500D02*
X74295000Y-68580000D01*
X66675000Y-85184700D02*
X68300600Y-83559100D01*
X68300600Y-83559100D02*
X68300600Y-64358400D01*
X68300600Y-64358400D02*
X70176300Y-62482700D01*
X70176300Y-62482700D02*
X70176300Y-53846000D01*
X70176300Y-53846000D02*
X79053100Y-44969200D01*
X79053100Y-44969200D02*
X79053100Y-42472500D01*
X79053100Y-42472500D02*
X82684900Y-38840700D01*
X82684900Y-38840700D02*
X90335700Y-38840700D01*
X90335700Y-38840700D02*
X92495000Y-41000000D01*
X66675000Y-86360000D02*
X66675000Y-85184700D01*
X66675000Y-87724700D02*
X67483100Y-87724700D01*
X67483100Y-87724700D02*
X69201100Y-86006700D01*
X69201100Y-86006700D02*
X69201100Y-75285500D01*
X69201100Y-75285500D02*
X75470800Y-69015800D01*
X75470800Y-69015800D02*
X75470800Y-67207800D01*
X75470800Y-67207800D02*
X75086800Y-66823800D01*
X75086800Y-66823800D02*
X75086800Y-52186600D01*
X75086800Y-52186600D02*
X82059600Y-45213800D01*
X82059600Y-45213800D02*
X82059600Y-42008400D01*
X82059600Y-42008400D02*
X82653900Y-41414100D01*
X82653900Y-41414100D02*
X84341600Y-41414100D01*
X84341600Y-41414100D02*
X85682200Y-42754700D01*
X85682200Y-42754700D02*
X100500300Y-42754700D01*
X100500300Y-42754700D02*
X102235000Y-41020000D01*
X66675000Y-88900000D02*
X66675000Y-87724700D01*
X102235000Y-57150000D02*
X103988800Y-55396200D01*
X103988800Y-55396200D02*
X103988800Y-47473800D01*
X103988800Y-47473800D02*
X102235000Y-45720000D01*
X92495000Y-45700000D02*
X90959600Y-47235400D01*
X90959600Y-47235400D02*
X90959600Y-55654600D01*
X90959600Y-55654600D02*
X92710000Y-57405000D01*
X83185000Y-37465000D02*
X75565000Y-45085000D01*
X121640000Y-76340000D02*
X121640000Y-77465300D01*
X129380000Y-86895000D02*
X129380000Y-85205300D01*
X129380000Y-85205300D02*
X121640000Y-77465300D01*
X90575000Y-81169700D02*
X96256600Y-75488100D01*
X96256600Y-75488100D02*
X96256600Y-74347800D01*
X90575000Y-82295000D02*
X90575000Y-81169700D01*
X90575000Y-77610000D02*
X91700300Y-77610000D01*
X94771400Y-74001400D02*
X91700300Y-77072500D01*
X91700300Y-77072500D02*
X91700300Y-77610000D01*
M02*
