G04 #@! TF.GenerationSoftware,KiCad,Pcbnew,(5.1.5)-3*
G04 #@! TF.CreationDate,2020-01-23T17:29:19-05:00*
G04 #@! TF.ProjectId,cludge,636c7564-6765-42e6-9b69-6361645f7063,v01*
G04 #@! TF.SameCoordinates,Original*
G04 #@! TF.FileFunction,Legend,Top*
G04 #@! TF.FilePolarity,Positive*
%FSLAX46Y46*%
G04 Gerber Fmt 4.6, Leading zero omitted, Abs format (unit mm)*
G04 Created by KiCad (PCBNEW (5.1.5)-3) date 2020-01-23 17:29:19*
%MOMM*%
%LPD*%
G04 APERTURE LIST*
%ADD10C,0.150000*%
%ADD11C,0.120000*%
%ADD12C,0.100000*%
G04 APERTURE END LIST*
D10*
X59246190Y-105387142D02*
X59198571Y-105434761D01*
X59055714Y-105482380D01*
X58960476Y-105482380D01*
X58817619Y-105434761D01*
X58722380Y-105339523D01*
X58674761Y-105244285D01*
X58627142Y-105053809D01*
X58627142Y-104910952D01*
X58674761Y-104720476D01*
X58722380Y-104625238D01*
X58817619Y-104530000D01*
X58960476Y-104482380D01*
X59055714Y-104482380D01*
X59198571Y-104530000D01*
X59246190Y-104577619D01*
X59817619Y-105482380D02*
X59722380Y-105434761D01*
X59674761Y-105339523D01*
X59674761Y-104482380D01*
X60627142Y-104815714D02*
X60627142Y-105482380D01*
X60198571Y-104815714D02*
X60198571Y-105339523D01*
X60246190Y-105434761D01*
X60341428Y-105482380D01*
X60484285Y-105482380D01*
X60579523Y-105434761D01*
X60627142Y-105387142D01*
X61531904Y-105482380D02*
X61531904Y-104482380D01*
X61531904Y-105434761D02*
X61436666Y-105482380D01*
X61246190Y-105482380D01*
X61150952Y-105434761D01*
X61103333Y-105387142D01*
X61055714Y-105291904D01*
X61055714Y-105006190D01*
X61103333Y-104910952D01*
X61150952Y-104863333D01*
X61246190Y-104815714D01*
X61436666Y-104815714D01*
X61531904Y-104863333D01*
X62436666Y-104815714D02*
X62436666Y-105625238D01*
X62389047Y-105720476D01*
X62341428Y-105768095D01*
X62246190Y-105815714D01*
X62103333Y-105815714D01*
X62008095Y-105768095D01*
X62436666Y-105434761D02*
X62341428Y-105482380D01*
X62150952Y-105482380D01*
X62055714Y-105434761D01*
X62008095Y-105387142D01*
X61960476Y-105291904D01*
X61960476Y-105006190D01*
X62008095Y-104910952D01*
X62055714Y-104863333D01*
X62150952Y-104815714D01*
X62341428Y-104815714D01*
X62436666Y-104863333D01*
X63293809Y-105434761D02*
X63198571Y-105482380D01*
X63008095Y-105482380D01*
X62912857Y-105434761D01*
X62865238Y-105339523D01*
X62865238Y-104958571D01*
X62912857Y-104863333D01*
X63008095Y-104815714D01*
X63198571Y-104815714D01*
X63293809Y-104863333D01*
X63341428Y-104958571D01*
X63341428Y-105053809D01*
X62865238Y-105149047D01*
X64865238Y-104958571D02*
X65008095Y-105006190D01*
X65055714Y-105053809D01*
X65103333Y-105149047D01*
X65103333Y-105291904D01*
X65055714Y-105387142D01*
X65008095Y-105434761D01*
X64912857Y-105482380D01*
X64531904Y-105482380D01*
X64531904Y-104482380D01*
X64865238Y-104482380D01*
X64960476Y-104530000D01*
X65008095Y-104577619D01*
X65055714Y-104672857D01*
X65055714Y-104768095D01*
X65008095Y-104863333D01*
X64960476Y-104910952D01*
X64865238Y-104958571D01*
X64531904Y-104958571D01*
X65674761Y-105482380D02*
X65579523Y-105434761D01*
X65531904Y-105387142D01*
X65484285Y-105291904D01*
X65484285Y-105006190D01*
X65531904Y-104910952D01*
X65579523Y-104863333D01*
X65674761Y-104815714D01*
X65817619Y-104815714D01*
X65912857Y-104863333D01*
X65960476Y-104910952D01*
X66008095Y-105006190D01*
X66008095Y-105291904D01*
X65960476Y-105387142D01*
X65912857Y-105434761D01*
X65817619Y-105482380D01*
X65674761Y-105482380D01*
X66865238Y-105482380D02*
X66865238Y-104958571D01*
X66817619Y-104863333D01*
X66722380Y-104815714D01*
X66531904Y-104815714D01*
X66436666Y-104863333D01*
X66865238Y-105434761D02*
X66770000Y-105482380D01*
X66531904Y-105482380D01*
X66436666Y-105434761D01*
X66389047Y-105339523D01*
X66389047Y-105244285D01*
X66436666Y-105149047D01*
X66531904Y-105101428D01*
X66770000Y-105101428D01*
X66865238Y-105053809D01*
X67341428Y-105482380D02*
X67341428Y-104815714D01*
X67341428Y-105006190D02*
X67389047Y-104910952D01*
X67436666Y-104863333D01*
X67531904Y-104815714D01*
X67627142Y-104815714D01*
X68389047Y-105482380D02*
X68389047Y-104482380D01*
X68389047Y-105434761D02*
X68293809Y-105482380D01*
X68103333Y-105482380D01*
X68008095Y-105434761D01*
X67960476Y-105387142D01*
X67912857Y-105291904D01*
X67912857Y-105006190D01*
X67960476Y-104910952D01*
X68008095Y-104863333D01*
X68103333Y-104815714D01*
X68293809Y-104815714D01*
X68389047Y-104863333D01*
X69531904Y-104815714D02*
X69770000Y-105482380D01*
X70008095Y-104815714D01*
X70912857Y-105482380D02*
X70341428Y-105482380D01*
X70627142Y-105482380D02*
X70627142Y-104482380D01*
X70531904Y-104625238D01*
X70436666Y-104720476D01*
X70341428Y-104768095D01*
X59436666Y-106132380D02*
X60008095Y-106132380D01*
X59722380Y-107132380D02*
X59722380Y-106132380D01*
X60198571Y-106132380D02*
X60531904Y-107132380D01*
X60865238Y-106132380D01*
X61722380Y-106180000D02*
X61627142Y-106132380D01*
X61484285Y-106132380D01*
X61341428Y-106180000D01*
X61246190Y-106275238D01*
X61198571Y-106370476D01*
X61150952Y-106560952D01*
X61150952Y-106703809D01*
X61198571Y-106894285D01*
X61246190Y-106989523D01*
X61341428Y-107084761D01*
X61484285Y-107132380D01*
X61579523Y-107132380D01*
X61722380Y-107084761D01*
X61769999Y-107037142D01*
X61769999Y-106703809D01*
X61579523Y-106703809D01*
X62198571Y-106751428D02*
X62960476Y-106751428D01*
X63389047Y-106227619D02*
X63436666Y-106180000D01*
X63531904Y-106132380D01*
X63770000Y-106132380D01*
X63865238Y-106180000D01*
X63912857Y-106227619D01*
X63960476Y-106322857D01*
X63960476Y-106418095D01*
X63912857Y-106560952D01*
X63341428Y-107132380D01*
X63960476Y-107132380D01*
X65150952Y-107132380D02*
X65150952Y-106132380D01*
X65531904Y-106132380D01*
X65627142Y-106180000D01*
X65674761Y-106227619D01*
X65722380Y-106322857D01*
X65722380Y-106465714D01*
X65674761Y-106560952D01*
X65627142Y-106608571D01*
X65531904Y-106656190D01*
X65150952Y-106656190D01*
X66150952Y-107132380D02*
X66150952Y-106465714D01*
X66150952Y-106656190D02*
X66198571Y-106560952D01*
X66246190Y-106513333D01*
X66341428Y-106465714D01*
X66436666Y-106465714D01*
X66912857Y-107132380D02*
X66817619Y-107084761D01*
X66770000Y-107037142D01*
X66722380Y-106941904D01*
X66722380Y-106656190D01*
X66770000Y-106560952D01*
X66817619Y-106513333D01*
X66912857Y-106465714D01*
X67055714Y-106465714D01*
X67150952Y-106513333D01*
X67198571Y-106560952D01*
X67246190Y-106656190D01*
X67246190Y-106941904D01*
X67198571Y-107037142D01*
X67150952Y-107084761D01*
X67055714Y-107132380D01*
X66912857Y-107132380D01*
X67674761Y-106465714D02*
X67674761Y-107322857D01*
X67627142Y-107418095D01*
X67531904Y-107465714D01*
X67484285Y-107465714D01*
X67674761Y-106132380D02*
X67627142Y-106180000D01*
X67674761Y-106227619D01*
X67722380Y-106180000D01*
X67674761Y-106132380D01*
X67674761Y-106227619D01*
X68531904Y-107084761D02*
X68436666Y-107132380D01*
X68246190Y-107132380D01*
X68150952Y-107084761D01*
X68103333Y-106989523D01*
X68103333Y-106608571D01*
X68150952Y-106513333D01*
X68246190Y-106465714D01*
X68436666Y-106465714D01*
X68531904Y-106513333D01*
X68579523Y-106608571D01*
X68579523Y-106703809D01*
X68103333Y-106799047D01*
X69436666Y-107084761D02*
X69341428Y-107132380D01*
X69150952Y-107132380D01*
X69055714Y-107084761D01*
X69008095Y-107037142D01*
X68960476Y-106941904D01*
X68960476Y-106656190D01*
X69008095Y-106560952D01*
X69055714Y-106513333D01*
X69150952Y-106465714D01*
X69341428Y-106465714D01*
X69436666Y-106513333D01*
X69722380Y-106465714D02*
X70103333Y-106465714D01*
X69865238Y-106132380D02*
X69865238Y-106989523D01*
X69912857Y-107084761D01*
X70008095Y-107132380D01*
X70103333Y-107132380D01*
X61722380Y-107782380D02*
X61722380Y-108496666D01*
X61674761Y-108639523D01*
X61579523Y-108734761D01*
X61436666Y-108782380D01*
X61341428Y-108782380D01*
X62627142Y-108782380D02*
X62627142Y-108258571D01*
X62579523Y-108163333D01*
X62484285Y-108115714D01*
X62293809Y-108115714D01*
X62198571Y-108163333D01*
X62627142Y-108734761D02*
X62531904Y-108782380D01*
X62293809Y-108782380D01*
X62198571Y-108734761D01*
X62150952Y-108639523D01*
X62150952Y-108544285D01*
X62198571Y-108449047D01*
X62293809Y-108401428D01*
X62531904Y-108401428D01*
X62627142Y-108353809D01*
X63103333Y-108115714D02*
X63103333Y-108782380D01*
X63103333Y-108210952D02*
X63150952Y-108163333D01*
X63246190Y-108115714D01*
X63389047Y-108115714D01*
X63484285Y-108163333D01*
X63531904Y-108258571D01*
X63531904Y-108782380D01*
X64722380Y-107877619D02*
X64770000Y-107830000D01*
X64865238Y-107782380D01*
X65103333Y-107782380D01*
X65198571Y-107830000D01*
X65246190Y-107877619D01*
X65293809Y-107972857D01*
X65293809Y-108068095D01*
X65246190Y-108210952D01*
X64674761Y-108782380D01*
X65293809Y-108782380D01*
X65912857Y-107782380D02*
X66008095Y-107782380D01*
X66103333Y-107830000D01*
X66150952Y-107877619D01*
X66198571Y-107972857D01*
X66246190Y-108163333D01*
X66246190Y-108401428D01*
X66198571Y-108591904D01*
X66150952Y-108687142D01*
X66103333Y-108734761D01*
X66008095Y-108782380D01*
X65912857Y-108782380D01*
X65817619Y-108734761D01*
X65770000Y-108687142D01*
X65722380Y-108591904D01*
X65674761Y-108401428D01*
X65674761Y-108163333D01*
X65722380Y-107972857D01*
X65770000Y-107877619D01*
X65817619Y-107830000D01*
X65912857Y-107782380D01*
X66627142Y-107877619D02*
X66674761Y-107830000D01*
X66770000Y-107782380D01*
X67008095Y-107782380D01*
X67103333Y-107830000D01*
X67150952Y-107877619D01*
X67198571Y-107972857D01*
X67198571Y-108068095D01*
X67150952Y-108210952D01*
X66579523Y-108782380D01*
X67198571Y-108782380D01*
X67817619Y-107782380D02*
X67912857Y-107782380D01*
X68008095Y-107830000D01*
X68055714Y-107877619D01*
X68103333Y-107972857D01*
X68150952Y-108163333D01*
X68150952Y-108401428D01*
X68103333Y-108591904D01*
X68055714Y-108687142D01*
X68008095Y-108734761D01*
X67912857Y-108782380D01*
X67817619Y-108782380D01*
X67722380Y-108734761D01*
X67674761Y-108687142D01*
X67627142Y-108591904D01*
X67579523Y-108401428D01*
X67579523Y-108163333D01*
X67627142Y-107972857D01*
X67674761Y-107877619D01*
X67722380Y-107830000D01*
X67817619Y-107782380D01*
X59198095Y-79446428D02*
X59960000Y-79446428D01*
X60340952Y-78827380D02*
X60960000Y-78827380D01*
X60626666Y-79208333D01*
X60769523Y-79208333D01*
X60864761Y-79255952D01*
X60912380Y-79303571D01*
X60960000Y-79398809D01*
X60960000Y-79636904D01*
X60912380Y-79732142D01*
X60864761Y-79779761D01*
X60769523Y-79827380D01*
X60483809Y-79827380D01*
X60388571Y-79779761D01*
X60340952Y-79732142D01*
X61579047Y-78827380D02*
X61674285Y-78827380D01*
X61769523Y-78875000D01*
X61817142Y-78922619D01*
X61864761Y-79017857D01*
X61912380Y-79208333D01*
X61912380Y-79446428D01*
X61864761Y-79636904D01*
X61817142Y-79732142D01*
X61769523Y-79779761D01*
X61674285Y-79827380D01*
X61579047Y-79827380D01*
X61483809Y-79779761D01*
X61436190Y-79732142D01*
X61388571Y-79636904D01*
X61340952Y-79446428D01*
X61340952Y-79208333D01*
X61388571Y-79017857D01*
X61436190Y-78922619D01*
X61483809Y-78875000D01*
X61579047Y-78827380D01*
X62198095Y-78827380D02*
X62531428Y-79827380D01*
X62864761Y-78827380D01*
X58436190Y-88685714D02*
X58817142Y-88685714D01*
X58579047Y-88352380D02*
X58579047Y-89209523D01*
X58626666Y-89304761D01*
X58721904Y-89352380D01*
X58817142Y-89352380D01*
X59293333Y-89352380D02*
X59198095Y-89304761D01*
X59150476Y-89257142D01*
X59102857Y-89161904D01*
X59102857Y-88876190D01*
X59150476Y-88780952D01*
X59198095Y-88733333D01*
X59293333Y-88685714D01*
X59436190Y-88685714D01*
X59531428Y-88733333D01*
X59579047Y-88780952D01*
X59626666Y-88876190D01*
X59626666Y-89161904D01*
X59579047Y-89257142D01*
X59531428Y-89304761D01*
X59436190Y-89352380D01*
X59293333Y-89352380D01*
X60817142Y-89352380D02*
X60817142Y-88352380D01*
X61055238Y-88352380D01*
X61198095Y-88400000D01*
X61293333Y-88495238D01*
X61340952Y-88590476D01*
X61388571Y-88780952D01*
X61388571Y-88923809D01*
X61340952Y-89114285D01*
X61293333Y-89209523D01*
X61198095Y-89304761D01*
X61055238Y-89352380D01*
X60817142Y-89352380D01*
X61817142Y-89352380D02*
X61817142Y-88352380D01*
X62150476Y-89066666D01*
X62483809Y-88352380D01*
X62483809Y-89352380D01*
X62817142Y-88352380D02*
X63150476Y-89352380D01*
X63483809Y-88352380D01*
X57769523Y-67730714D02*
X58150476Y-67730714D01*
X57912380Y-67397380D02*
X57912380Y-68254523D01*
X57960000Y-68349761D01*
X58055238Y-68397380D01*
X58150476Y-68397380D01*
X58626666Y-68397380D02*
X58531428Y-68349761D01*
X58483809Y-68302142D01*
X58436190Y-68206904D01*
X58436190Y-67921190D01*
X58483809Y-67825952D01*
X58531428Y-67778333D01*
X58626666Y-67730714D01*
X58769523Y-67730714D01*
X58864761Y-67778333D01*
X58912380Y-67825952D01*
X58960000Y-67921190D01*
X58960000Y-68206904D01*
X58912380Y-68302142D01*
X58864761Y-68349761D01*
X58769523Y-68397380D01*
X58626666Y-68397380D01*
X60150476Y-67730714D02*
X60150476Y-68730714D01*
X60150476Y-67778333D02*
X60245714Y-67730714D01*
X60436190Y-67730714D01*
X60531428Y-67778333D01*
X60579047Y-67825952D01*
X60626666Y-67921190D01*
X60626666Y-68206904D01*
X60579047Y-68302142D01*
X60531428Y-68349761D01*
X60436190Y-68397380D01*
X60245714Y-68397380D01*
X60150476Y-68349761D01*
X61198095Y-68397380D02*
X61102857Y-68349761D01*
X61055238Y-68302142D01*
X61007619Y-68206904D01*
X61007619Y-67921190D01*
X61055238Y-67825952D01*
X61102857Y-67778333D01*
X61198095Y-67730714D01*
X61340952Y-67730714D01*
X61436190Y-67778333D01*
X61483809Y-67825952D01*
X61531428Y-67921190D01*
X61531428Y-68206904D01*
X61483809Y-68302142D01*
X61436190Y-68349761D01*
X61340952Y-68397380D01*
X61198095Y-68397380D01*
X61864761Y-67730714D02*
X62055238Y-68397380D01*
X62245714Y-67921190D01*
X62436190Y-68397380D01*
X62626666Y-67730714D01*
X63388571Y-68349761D02*
X63293333Y-68397380D01*
X63102857Y-68397380D01*
X63007619Y-68349761D01*
X62960000Y-68254523D01*
X62960000Y-67873571D01*
X63007619Y-67778333D01*
X63102857Y-67730714D01*
X63293333Y-67730714D01*
X63388571Y-67778333D01*
X63436190Y-67873571D01*
X63436190Y-67968809D01*
X62960000Y-68064047D01*
X63864761Y-68397380D02*
X63864761Y-67730714D01*
X63864761Y-67921190D02*
X63912380Y-67825952D01*
X63960000Y-67778333D01*
X64055238Y-67730714D01*
X64150476Y-67730714D01*
D11*
X146080000Y-90705000D02*
X151020000Y-90705000D01*
X146080000Y-93445000D02*
X151020000Y-93445000D01*
X146080000Y-90705000D02*
X146080000Y-91020000D01*
X146080000Y-93130000D02*
X146080000Y-93445000D01*
X151020000Y-90705000D02*
X151020000Y-91020000D01*
X151020000Y-93130000D02*
X151020000Y-93445000D01*
X151020000Y-81700000D02*
X151020000Y-82015000D01*
X151020000Y-79275000D02*
X151020000Y-79590000D01*
X146080000Y-81700000D02*
X146080000Y-82015000D01*
X146080000Y-79275000D02*
X146080000Y-79590000D01*
X146080000Y-82015000D02*
X151020000Y-82015000D01*
X146080000Y-79275000D02*
X151020000Y-79275000D01*
X141495000Y-82335000D02*
X141495000Y-82650000D01*
X141495000Y-79910000D02*
X141495000Y-80225000D01*
X136555000Y-82335000D02*
X136555000Y-82650000D01*
X136555000Y-79910000D02*
X136555000Y-80225000D01*
X136555000Y-82650000D02*
X141495000Y-82650000D01*
X136555000Y-79910000D02*
X141495000Y-79910000D01*
X136555000Y-90705000D02*
X141495000Y-90705000D01*
X136555000Y-93445000D02*
X141495000Y-93445000D01*
X136555000Y-90705000D02*
X136555000Y-91020000D01*
X136555000Y-93130000D02*
X136555000Y-93445000D01*
X141495000Y-90705000D02*
X141495000Y-91020000D01*
X141495000Y-93130000D02*
X141495000Y-93445000D01*
X124905000Y-57785000D02*
G75*
G03X124905000Y-57785000I-2620000J0D01*
G01*
X122285000Y-58825000D02*
X122285000Y-60365000D01*
X122285000Y-55205000D02*
X122285000Y-56745000D01*
X122325000Y-58825000D02*
X122325000Y-60365000D01*
X122325000Y-55205000D02*
X122325000Y-56745000D01*
X122365000Y-55206000D02*
X122365000Y-56745000D01*
X122365000Y-58825000D02*
X122365000Y-60364000D01*
X122405000Y-55207000D02*
X122405000Y-56745000D01*
X122405000Y-58825000D02*
X122405000Y-60363000D01*
X122445000Y-55209000D02*
X122445000Y-56745000D01*
X122445000Y-58825000D02*
X122445000Y-60361000D01*
X122485000Y-55212000D02*
X122485000Y-56745000D01*
X122485000Y-58825000D02*
X122485000Y-60358000D01*
X122525000Y-55216000D02*
X122525000Y-56745000D01*
X122525000Y-58825000D02*
X122525000Y-60354000D01*
X122565000Y-55220000D02*
X122565000Y-56745000D01*
X122565000Y-58825000D02*
X122565000Y-60350000D01*
X122605000Y-55224000D02*
X122605000Y-56745000D01*
X122605000Y-58825000D02*
X122605000Y-60346000D01*
X122645000Y-55229000D02*
X122645000Y-56745000D01*
X122645000Y-58825000D02*
X122645000Y-60341000D01*
X122685000Y-55235000D02*
X122685000Y-56745000D01*
X122685000Y-58825000D02*
X122685000Y-60335000D01*
X122725000Y-55242000D02*
X122725000Y-56745000D01*
X122725000Y-58825000D02*
X122725000Y-60328000D01*
X122765000Y-55249000D02*
X122765000Y-56745000D01*
X122765000Y-58825000D02*
X122765000Y-60321000D01*
X122805000Y-55257000D02*
X122805000Y-56745000D01*
X122805000Y-58825000D02*
X122805000Y-60313000D01*
X122845000Y-55265000D02*
X122845000Y-56745000D01*
X122845000Y-58825000D02*
X122845000Y-60305000D01*
X122885000Y-55274000D02*
X122885000Y-56745000D01*
X122885000Y-58825000D02*
X122885000Y-60296000D01*
X122925000Y-55284000D02*
X122925000Y-56745000D01*
X122925000Y-58825000D02*
X122925000Y-60286000D01*
X122965000Y-55294000D02*
X122965000Y-56745000D01*
X122965000Y-58825000D02*
X122965000Y-60276000D01*
X123006000Y-55305000D02*
X123006000Y-56745000D01*
X123006000Y-58825000D02*
X123006000Y-60265000D01*
X123046000Y-55317000D02*
X123046000Y-56745000D01*
X123046000Y-58825000D02*
X123046000Y-60253000D01*
X123086000Y-55330000D02*
X123086000Y-56745000D01*
X123086000Y-58825000D02*
X123086000Y-60240000D01*
X123126000Y-55343000D02*
X123126000Y-56745000D01*
X123126000Y-58825000D02*
X123126000Y-60227000D01*
X123166000Y-55357000D02*
X123166000Y-56745000D01*
X123166000Y-58825000D02*
X123166000Y-60213000D01*
X123206000Y-55371000D02*
X123206000Y-56745000D01*
X123206000Y-58825000D02*
X123206000Y-60199000D01*
X123246000Y-55387000D02*
X123246000Y-56745000D01*
X123246000Y-58825000D02*
X123246000Y-60183000D01*
X123286000Y-55403000D02*
X123286000Y-56745000D01*
X123286000Y-58825000D02*
X123286000Y-60167000D01*
X123326000Y-55420000D02*
X123326000Y-56745000D01*
X123326000Y-58825000D02*
X123326000Y-60150000D01*
X123366000Y-55437000D02*
X123366000Y-56745000D01*
X123366000Y-58825000D02*
X123366000Y-60133000D01*
X123406000Y-55456000D02*
X123406000Y-56745000D01*
X123406000Y-58825000D02*
X123406000Y-60114000D01*
X123446000Y-55475000D02*
X123446000Y-56745000D01*
X123446000Y-58825000D02*
X123446000Y-60095000D01*
X123486000Y-55495000D02*
X123486000Y-56745000D01*
X123486000Y-58825000D02*
X123486000Y-60075000D01*
X123526000Y-55517000D02*
X123526000Y-56745000D01*
X123526000Y-58825000D02*
X123526000Y-60053000D01*
X123566000Y-55538000D02*
X123566000Y-56745000D01*
X123566000Y-58825000D02*
X123566000Y-60032000D01*
X123606000Y-55561000D02*
X123606000Y-56745000D01*
X123606000Y-58825000D02*
X123606000Y-60009000D01*
X123646000Y-55585000D02*
X123646000Y-56745000D01*
X123646000Y-58825000D02*
X123646000Y-59985000D01*
X123686000Y-55610000D02*
X123686000Y-56745000D01*
X123686000Y-58825000D02*
X123686000Y-59960000D01*
X123726000Y-55636000D02*
X123726000Y-56745000D01*
X123726000Y-58825000D02*
X123726000Y-59934000D01*
X123766000Y-55663000D02*
X123766000Y-56745000D01*
X123766000Y-58825000D02*
X123766000Y-59907000D01*
X123806000Y-55690000D02*
X123806000Y-56745000D01*
X123806000Y-58825000D02*
X123806000Y-59880000D01*
X123846000Y-55720000D02*
X123846000Y-56745000D01*
X123846000Y-58825000D02*
X123846000Y-59850000D01*
X123886000Y-55750000D02*
X123886000Y-56745000D01*
X123886000Y-58825000D02*
X123886000Y-59820000D01*
X123926000Y-55781000D02*
X123926000Y-56745000D01*
X123926000Y-58825000D02*
X123926000Y-59789000D01*
X123966000Y-55814000D02*
X123966000Y-56745000D01*
X123966000Y-58825000D02*
X123966000Y-59756000D01*
X124006000Y-55848000D02*
X124006000Y-56745000D01*
X124006000Y-58825000D02*
X124006000Y-59722000D01*
X124046000Y-55884000D02*
X124046000Y-56745000D01*
X124046000Y-58825000D02*
X124046000Y-59686000D01*
X124086000Y-55921000D02*
X124086000Y-56745000D01*
X124086000Y-58825000D02*
X124086000Y-59649000D01*
X124126000Y-55959000D02*
X124126000Y-56745000D01*
X124126000Y-58825000D02*
X124126000Y-59611000D01*
X124166000Y-56000000D02*
X124166000Y-56745000D01*
X124166000Y-58825000D02*
X124166000Y-59570000D01*
X124206000Y-56042000D02*
X124206000Y-56745000D01*
X124206000Y-58825000D02*
X124206000Y-59528000D01*
X124246000Y-56086000D02*
X124246000Y-56745000D01*
X124246000Y-58825000D02*
X124246000Y-59484000D01*
X124286000Y-56132000D02*
X124286000Y-56745000D01*
X124286000Y-58825000D02*
X124286000Y-59438000D01*
X124326000Y-56180000D02*
X124326000Y-59390000D01*
X124366000Y-56231000D02*
X124366000Y-59339000D01*
X124406000Y-56285000D02*
X124406000Y-59285000D01*
X124446000Y-56342000D02*
X124446000Y-59228000D01*
X124486000Y-56402000D02*
X124486000Y-59168000D01*
X124526000Y-56466000D02*
X124526000Y-59104000D01*
X124566000Y-56534000D02*
X124566000Y-59036000D01*
X124606000Y-56607000D02*
X124606000Y-58963000D01*
X124646000Y-56687000D02*
X124646000Y-58883000D01*
X124686000Y-56774000D02*
X124686000Y-58796000D01*
X124726000Y-56870000D02*
X124726000Y-58700000D01*
X124766000Y-56980000D02*
X124766000Y-58590000D01*
X124806000Y-57108000D02*
X124806000Y-58462000D01*
X124846000Y-57267000D02*
X124846000Y-58303000D01*
X124886000Y-57501000D02*
X124886000Y-58069000D01*
X119480225Y-56310000D02*
X119980225Y-56310000D01*
X119730225Y-56060000D02*
X119730225Y-56560000D01*
X133445000Y-43815000D02*
G75*
G03X133445000Y-43815000I-7120000J0D01*
G01*
X126325000Y-36735000D02*
X126325000Y-50895000D01*
X126365000Y-36735000D02*
X126365000Y-50895000D01*
X126405000Y-36735000D02*
X126405000Y-50895000D01*
X126445000Y-36736000D02*
X126445000Y-50894000D01*
X126485000Y-36736000D02*
X126485000Y-50894000D01*
X126525000Y-36737000D02*
X126525000Y-50893000D01*
X126565000Y-36739000D02*
X126565000Y-50891000D01*
X126605000Y-36740000D02*
X126605000Y-50890000D01*
X126645000Y-36742000D02*
X126645000Y-50888000D01*
X126685000Y-36744000D02*
X126685000Y-50886000D01*
X126725000Y-36746000D02*
X126725000Y-50884000D01*
X126765000Y-36748000D02*
X126765000Y-50882000D01*
X126805000Y-36751000D02*
X126805000Y-50879000D01*
X126845000Y-36754000D02*
X126845000Y-50876000D01*
X126885000Y-36757000D02*
X126885000Y-50873000D01*
X126925000Y-36760000D02*
X126925000Y-50870000D01*
X126965000Y-36763000D02*
X126965000Y-50867000D01*
X127005000Y-36767000D02*
X127005000Y-50863000D01*
X127046000Y-36771000D02*
X127046000Y-50859000D01*
X127086000Y-36775000D02*
X127086000Y-50855000D01*
X127126000Y-36780000D02*
X127126000Y-50850000D01*
X127166000Y-36784000D02*
X127166000Y-50846000D01*
X127206000Y-36789000D02*
X127206000Y-50841000D01*
X127246000Y-36794000D02*
X127246000Y-50836000D01*
X127286000Y-36800000D02*
X127286000Y-50830000D01*
X127326000Y-36805000D02*
X127326000Y-50825000D01*
X127366000Y-36811000D02*
X127366000Y-50819000D01*
X127406000Y-36817000D02*
X127406000Y-42375000D01*
X127406000Y-45255000D02*
X127406000Y-50813000D01*
X127446000Y-36823000D02*
X127446000Y-42375000D01*
X127446000Y-45255000D02*
X127446000Y-50807000D01*
X127486000Y-36830000D02*
X127486000Y-42375000D01*
X127486000Y-45255000D02*
X127486000Y-50800000D01*
X127526000Y-36836000D02*
X127526000Y-42375000D01*
X127526000Y-45255000D02*
X127526000Y-50794000D01*
X127566000Y-36843000D02*
X127566000Y-42375000D01*
X127566000Y-45255000D02*
X127566000Y-50787000D01*
X127606000Y-36851000D02*
X127606000Y-42375000D01*
X127606000Y-45255000D02*
X127606000Y-50779000D01*
X127646000Y-36858000D02*
X127646000Y-42375000D01*
X127646000Y-45255000D02*
X127646000Y-50772000D01*
X127686000Y-36866000D02*
X127686000Y-42375000D01*
X127686000Y-45255000D02*
X127686000Y-50764000D01*
X127726000Y-36873000D02*
X127726000Y-42375000D01*
X127726000Y-45255000D02*
X127726000Y-50757000D01*
X127766000Y-36882000D02*
X127766000Y-42375000D01*
X127766000Y-45255000D02*
X127766000Y-50748000D01*
X127806000Y-36890000D02*
X127806000Y-42375000D01*
X127806000Y-45255000D02*
X127806000Y-50740000D01*
X127846000Y-36899000D02*
X127846000Y-42375000D01*
X127846000Y-45255000D02*
X127846000Y-50731000D01*
X127886000Y-36908000D02*
X127886000Y-42375000D01*
X127886000Y-45255000D02*
X127886000Y-50722000D01*
X127926000Y-36917000D02*
X127926000Y-42375000D01*
X127926000Y-45255000D02*
X127926000Y-50713000D01*
X127966000Y-36926000D02*
X127966000Y-42375000D01*
X127966000Y-45255000D02*
X127966000Y-50704000D01*
X128006000Y-36936000D02*
X128006000Y-42375000D01*
X128006000Y-45255000D02*
X128006000Y-50694000D01*
X128046000Y-36945000D02*
X128046000Y-42375000D01*
X128046000Y-45255000D02*
X128046000Y-50685000D01*
X128086000Y-36955000D02*
X128086000Y-42375000D01*
X128086000Y-45255000D02*
X128086000Y-50675000D01*
X128126000Y-36966000D02*
X128126000Y-42375000D01*
X128126000Y-45255000D02*
X128126000Y-50664000D01*
X128166000Y-36976000D02*
X128166000Y-42375000D01*
X128166000Y-45255000D02*
X128166000Y-50654000D01*
X128206000Y-36987000D02*
X128206000Y-42375000D01*
X128206000Y-45255000D02*
X128206000Y-50643000D01*
X128246000Y-36998000D02*
X128246000Y-42375000D01*
X128246000Y-45255000D02*
X128246000Y-50632000D01*
X128286000Y-37010000D02*
X128286000Y-42375000D01*
X128286000Y-45255000D02*
X128286000Y-50620000D01*
X128326000Y-37021000D02*
X128326000Y-42375000D01*
X128326000Y-45255000D02*
X128326000Y-50609000D01*
X128366000Y-37033000D02*
X128366000Y-42375000D01*
X128366000Y-45255000D02*
X128366000Y-50597000D01*
X128406000Y-37045000D02*
X128406000Y-42375000D01*
X128406000Y-45255000D02*
X128406000Y-50585000D01*
X128446000Y-37057000D02*
X128446000Y-42375000D01*
X128446000Y-45255000D02*
X128446000Y-50573000D01*
X128486000Y-37070000D02*
X128486000Y-42375000D01*
X128486000Y-45255000D02*
X128486000Y-50560000D01*
X128526000Y-37083000D02*
X128526000Y-42375000D01*
X128526000Y-45255000D02*
X128526000Y-50547000D01*
X128566000Y-37096000D02*
X128566000Y-42375000D01*
X128566000Y-45255000D02*
X128566000Y-50534000D01*
X128606000Y-37109000D02*
X128606000Y-42375000D01*
X128606000Y-45255000D02*
X128606000Y-50521000D01*
X128646000Y-37123000D02*
X128646000Y-42375000D01*
X128646000Y-45255000D02*
X128646000Y-50507000D01*
X128686000Y-37137000D02*
X128686000Y-42375000D01*
X128686000Y-45255000D02*
X128686000Y-50493000D01*
X128726000Y-37151000D02*
X128726000Y-42375000D01*
X128726000Y-45255000D02*
X128726000Y-50479000D01*
X128766000Y-37166000D02*
X128766000Y-42375000D01*
X128766000Y-45255000D02*
X128766000Y-50464000D01*
X128806000Y-37180000D02*
X128806000Y-42375000D01*
X128806000Y-45255000D02*
X128806000Y-50450000D01*
X128846000Y-37195000D02*
X128846000Y-42375000D01*
X128846000Y-45255000D02*
X128846000Y-50435000D01*
X128886000Y-37211000D02*
X128886000Y-42375000D01*
X128886000Y-45255000D02*
X128886000Y-50419000D01*
X128926000Y-37226000D02*
X128926000Y-42375000D01*
X128926000Y-45255000D02*
X128926000Y-50404000D01*
X128966000Y-37242000D02*
X128966000Y-42375000D01*
X128966000Y-45255000D02*
X128966000Y-50388000D01*
X129006000Y-37258000D02*
X129006000Y-42375000D01*
X129006000Y-45255000D02*
X129006000Y-50372000D01*
X129046000Y-37275000D02*
X129046000Y-42375000D01*
X129046000Y-45255000D02*
X129046000Y-50355000D01*
X129086000Y-37291000D02*
X129086000Y-42375000D01*
X129086000Y-45255000D02*
X129086000Y-50339000D01*
X129126000Y-37308000D02*
X129126000Y-42375000D01*
X129126000Y-45255000D02*
X129126000Y-50322000D01*
X129166000Y-37325000D02*
X129166000Y-42375000D01*
X129166000Y-45255000D02*
X129166000Y-50305000D01*
X129206000Y-37343000D02*
X129206000Y-42375000D01*
X129206000Y-45255000D02*
X129206000Y-50287000D01*
X129246000Y-37361000D02*
X129246000Y-42375000D01*
X129246000Y-45255000D02*
X129246000Y-50269000D01*
X129286000Y-37379000D02*
X129286000Y-42375000D01*
X129286000Y-45255000D02*
X129286000Y-50251000D01*
X129326000Y-37397000D02*
X129326000Y-42375000D01*
X129326000Y-45255000D02*
X129326000Y-50233000D01*
X129366000Y-37416000D02*
X129366000Y-42375000D01*
X129366000Y-45255000D02*
X129366000Y-50214000D01*
X129406000Y-37435000D02*
X129406000Y-42375000D01*
X129406000Y-45255000D02*
X129406000Y-50195000D01*
X129446000Y-37455000D02*
X129446000Y-42375000D01*
X129446000Y-45255000D02*
X129446000Y-50175000D01*
X129486000Y-37474000D02*
X129486000Y-42375000D01*
X129486000Y-45255000D02*
X129486000Y-50156000D01*
X129526000Y-37494000D02*
X129526000Y-42375000D01*
X129526000Y-45255000D02*
X129526000Y-50136000D01*
X129566000Y-37514000D02*
X129566000Y-42375000D01*
X129566000Y-45255000D02*
X129566000Y-50116000D01*
X129606000Y-37535000D02*
X129606000Y-42375000D01*
X129606000Y-45255000D02*
X129606000Y-50095000D01*
X129646000Y-37556000D02*
X129646000Y-42375000D01*
X129646000Y-45255000D02*
X129646000Y-50074000D01*
X129686000Y-37577000D02*
X129686000Y-42375000D01*
X129686000Y-45255000D02*
X129686000Y-50053000D01*
X129726000Y-37599000D02*
X129726000Y-42375000D01*
X129726000Y-45255000D02*
X129726000Y-50031000D01*
X129766000Y-37621000D02*
X129766000Y-42375000D01*
X129766000Y-45255000D02*
X129766000Y-50009000D01*
X129806000Y-37643000D02*
X129806000Y-42375000D01*
X129806000Y-45255000D02*
X129806000Y-49987000D01*
X129846000Y-37665000D02*
X129846000Y-42375000D01*
X129846000Y-45255000D02*
X129846000Y-49965000D01*
X129886000Y-37688000D02*
X129886000Y-42375000D01*
X129886000Y-45255000D02*
X129886000Y-49942000D01*
X129926000Y-37712000D02*
X129926000Y-42375000D01*
X129926000Y-45255000D02*
X129926000Y-49918000D01*
X129966000Y-37735000D02*
X129966000Y-42375000D01*
X129966000Y-45255000D02*
X129966000Y-49895000D01*
X130006000Y-37759000D02*
X130006000Y-42375000D01*
X130006000Y-45255000D02*
X130006000Y-49871000D01*
X130046000Y-37784000D02*
X130046000Y-42375000D01*
X130046000Y-45255000D02*
X130046000Y-49846000D01*
X130086000Y-37808000D02*
X130086000Y-42375000D01*
X130086000Y-45255000D02*
X130086000Y-49822000D01*
X130126000Y-37833000D02*
X130126000Y-42375000D01*
X130126000Y-45255000D02*
X130126000Y-49797000D01*
X130166000Y-37859000D02*
X130166000Y-42375000D01*
X130166000Y-45255000D02*
X130166000Y-49771000D01*
X130206000Y-37885000D02*
X130206000Y-42375000D01*
X130206000Y-45255000D02*
X130206000Y-49745000D01*
X130246000Y-37911000D02*
X130246000Y-42375000D01*
X130246000Y-45255000D02*
X130246000Y-49719000D01*
X130286000Y-37937000D02*
X130286000Y-49693000D01*
X130326000Y-37964000D02*
X130326000Y-49666000D01*
X130366000Y-37992000D02*
X130366000Y-49638000D01*
X130406000Y-38019000D02*
X130406000Y-49611000D01*
X130446000Y-38048000D02*
X130446000Y-49582000D01*
X130486000Y-38076000D02*
X130486000Y-49554000D01*
X130526000Y-38105000D02*
X130526000Y-49525000D01*
X130566000Y-38135000D02*
X130566000Y-49495000D01*
X130606000Y-38165000D02*
X130606000Y-49465000D01*
X130646000Y-38195000D02*
X130646000Y-49435000D01*
X130686000Y-38226000D02*
X130686000Y-49404000D01*
X130726000Y-38257000D02*
X130726000Y-49373000D01*
X130766000Y-38288000D02*
X130766000Y-49342000D01*
X130806000Y-38321000D02*
X130806000Y-49309000D01*
X130846000Y-38353000D02*
X130846000Y-49277000D01*
X130886000Y-38386000D02*
X130886000Y-49244000D01*
X130926000Y-38420000D02*
X130926000Y-49210000D01*
X130966000Y-38454000D02*
X130966000Y-49176000D01*
X131006000Y-38489000D02*
X131006000Y-49141000D01*
X131046000Y-38524000D02*
X131046000Y-49106000D01*
X131086000Y-38560000D02*
X131086000Y-49070000D01*
X131126000Y-38596000D02*
X131126000Y-49034000D01*
X131166000Y-38633000D02*
X131166000Y-48997000D01*
X131206000Y-38670000D02*
X131206000Y-48960000D01*
X131246000Y-38708000D02*
X131246000Y-48922000D01*
X131286000Y-38746000D02*
X131286000Y-48884000D01*
X131326000Y-38786000D02*
X131326000Y-48844000D01*
X131366000Y-38825000D02*
X131366000Y-48805000D01*
X131406000Y-38866000D02*
X131406000Y-48764000D01*
X131446000Y-38907000D02*
X131446000Y-48723000D01*
X131486000Y-38949000D02*
X131486000Y-48681000D01*
X131526000Y-38991000D02*
X131526000Y-48639000D01*
X131566000Y-39034000D02*
X131566000Y-48596000D01*
X131606000Y-39078000D02*
X131606000Y-48552000D01*
X131646000Y-39122000D02*
X131646000Y-48508000D01*
X131686000Y-39168000D02*
X131686000Y-48462000D01*
X131726000Y-39214000D02*
X131726000Y-48416000D01*
X131766000Y-39261000D02*
X131766000Y-48369000D01*
X131806000Y-39309000D02*
X131806000Y-48321000D01*
X131846000Y-39357000D02*
X131846000Y-48273000D01*
X131886000Y-39407000D02*
X131886000Y-48223000D01*
X131926000Y-39457000D02*
X131926000Y-48173000D01*
X131966000Y-39509000D02*
X131966000Y-48121000D01*
X132006000Y-39561000D02*
X132006000Y-48069000D01*
X132046000Y-39615000D02*
X132046000Y-48015000D01*
X132086000Y-39669000D02*
X132086000Y-47961000D01*
X132126000Y-39725000D02*
X132126000Y-47905000D01*
X132166000Y-39782000D02*
X132166000Y-47848000D01*
X132206000Y-39840000D02*
X132206000Y-47790000D01*
X132246000Y-39899000D02*
X132246000Y-47731000D01*
X132286000Y-39959000D02*
X132286000Y-47671000D01*
X132326000Y-40021000D02*
X132326000Y-47609000D01*
X132366000Y-40085000D02*
X132366000Y-47545000D01*
X132406000Y-40149000D02*
X132406000Y-47481000D01*
X132446000Y-40216000D02*
X132446000Y-47414000D01*
X132486000Y-40284000D02*
X132486000Y-47346000D01*
X132526000Y-40354000D02*
X132526000Y-47276000D01*
X132566000Y-40426000D02*
X132566000Y-47204000D01*
X132606000Y-40500000D02*
X132606000Y-47130000D01*
X132646000Y-40575000D02*
X132646000Y-47055000D01*
X132686000Y-40654000D02*
X132686000Y-46976000D01*
X132726000Y-40735000D02*
X132726000Y-46895000D01*
X132766000Y-40818000D02*
X132766000Y-46812000D01*
X132806000Y-40904000D02*
X132806000Y-46726000D01*
X132846000Y-40994000D02*
X132846000Y-46636000D01*
X132886000Y-41087000D02*
X132886000Y-46543000D01*
X132926000Y-41183000D02*
X132926000Y-46447000D01*
X132966000Y-41285000D02*
X132966000Y-46345000D01*
X133006000Y-41390000D02*
X133006000Y-46240000D01*
X133046000Y-41502000D02*
X133046000Y-46128000D01*
X133086000Y-41619000D02*
X133086000Y-46011000D01*
X133126000Y-41744000D02*
X133126000Y-45886000D01*
X133166000Y-41877000D02*
X133166000Y-45753000D01*
X133206000Y-42021000D02*
X133206000Y-45609000D01*
X133246000Y-42179000D02*
X133246000Y-45451000D01*
X133286000Y-42354000D02*
X133286000Y-45276000D01*
X133326000Y-42553000D02*
X133326000Y-45077000D01*
X133366000Y-42790000D02*
X133366000Y-44840000D01*
X133406000Y-43101000D02*
X133406000Y-44529000D01*
X118705457Y-39820000D02*
X120105457Y-39820000D01*
X119405457Y-39120000D02*
X119405457Y-40520000D01*
X136555000Y-96420000D02*
X141495000Y-96420000D01*
X136555000Y-99160000D02*
X141495000Y-99160000D01*
X136555000Y-96420000D02*
X136555000Y-96735000D01*
X136555000Y-98845000D02*
X136555000Y-99160000D01*
X141495000Y-96420000D02*
X141495000Y-96735000D01*
X141495000Y-98845000D02*
X141495000Y-99160000D01*
X127985225Y-56060000D02*
X127985225Y-56560000D01*
X127735225Y-56310000D02*
X128235225Y-56310000D01*
X133141000Y-57501000D02*
X133141000Y-58069000D01*
X133101000Y-57267000D02*
X133101000Y-58303000D01*
X133061000Y-57108000D02*
X133061000Y-58462000D01*
X133021000Y-56980000D02*
X133021000Y-58590000D01*
X132981000Y-56870000D02*
X132981000Y-58700000D01*
X132941000Y-56774000D02*
X132941000Y-58796000D01*
X132901000Y-56687000D02*
X132901000Y-58883000D01*
X132861000Y-56607000D02*
X132861000Y-58963000D01*
X132821000Y-56534000D02*
X132821000Y-59036000D01*
X132781000Y-56466000D02*
X132781000Y-59104000D01*
X132741000Y-56402000D02*
X132741000Y-59168000D01*
X132701000Y-56342000D02*
X132701000Y-59228000D01*
X132661000Y-56285000D02*
X132661000Y-59285000D01*
X132621000Y-56231000D02*
X132621000Y-59339000D01*
X132581000Y-56180000D02*
X132581000Y-59390000D01*
X132541000Y-58825000D02*
X132541000Y-59438000D01*
X132541000Y-56132000D02*
X132541000Y-56745000D01*
X132501000Y-58825000D02*
X132501000Y-59484000D01*
X132501000Y-56086000D02*
X132501000Y-56745000D01*
X132461000Y-58825000D02*
X132461000Y-59528000D01*
X132461000Y-56042000D02*
X132461000Y-56745000D01*
X132421000Y-58825000D02*
X132421000Y-59570000D01*
X132421000Y-56000000D02*
X132421000Y-56745000D01*
X132381000Y-58825000D02*
X132381000Y-59611000D01*
X132381000Y-55959000D02*
X132381000Y-56745000D01*
X132341000Y-58825000D02*
X132341000Y-59649000D01*
X132341000Y-55921000D02*
X132341000Y-56745000D01*
X132301000Y-58825000D02*
X132301000Y-59686000D01*
X132301000Y-55884000D02*
X132301000Y-56745000D01*
X132261000Y-58825000D02*
X132261000Y-59722000D01*
X132261000Y-55848000D02*
X132261000Y-56745000D01*
X132221000Y-58825000D02*
X132221000Y-59756000D01*
X132221000Y-55814000D02*
X132221000Y-56745000D01*
X132181000Y-58825000D02*
X132181000Y-59789000D01*
X132181000Y-55781000D02*
X132181000Y-56745000D01*
X132141000Y-58825000D02*
X132141000Y-59820000D01*
X132141000Y-55750000D02*
X132141000Y-56745000D01*
X132101000Y-58825000D02*
X132101000Y-59850000D01*
X132101000Y-55720000D02*
X132101000Y-56745000D01*
X132061000Y-58825000D02*
X132061000Y-59880000D01*
X132061000Y-55690000D02*
X132061000Y-56745000D01*
X132021000Y-58825000D02*
X132021000Y-59907000D01*
X132021000Y-55663000D02*
X132021000Y-56745000D01*
X131981000Y-58825000D02*
X131981000Y-59934000D01*
X131981000Y-55636000D02*
X131981000Y-56745000D01*
X131941000Y-58825000D02*
X131941000Y-59960000D01*
X131941000Y-55610000D02*
X131941000Y-56745000D01*
X131901000Y-58825000D02*
X131901000Y-59985000D01*
X131901000Y-55585000D02*
X131901000Y-56745000D01*
X131861000Y-58825000D02*
X131861000Y-60009000D01*
X131861000Y-55561000D02*
X131861000Y-56745000D01*
X131821000Y-58825000D02*
X131821000Y-60032000D01*
X131821000Y-55538000D02*
X131821000Y-56745000D01*
X131781000Y-58825000D02*
X131781000Y-60053000D01*
X131781000Y-55517000D02*
X131781000Y-56745000D01*
X131741000Y-58825000D02*
X131741000Y-60075000D01*
X131741000Y-55495000D02*
X131741000Y-56745000D01*
X131701000Y-58825000D02*
X131701000Y-60095000D01*
X131701000Y-55475000D02*
X131701000Y-56745000D01*
X131661000Y-58825000D02*
X131661000Y-60114000D01*
X131661000Y-55456000D02*
X131661000Y-56745000D01*
X131621000Y-58825000D02*
X131621000Y-60133000D01*
X131621000Y-55437000D02*
X131621000Y-56745000D01*
X131581000Y-58825000D02*
X131581000Y-60150000D01*
X131581000Y-55420000D02*
X131581000Y-56745000D01*
X131541000Y-58825000D02*
X131541000Y-60167000D01*
X131541000Y-55403000D02*
X131541000Y-56745000D01*
X131501000Y-58825000D02*
X131501000Y-60183000D01*
X131501000Y-55387000D02*
X131501000Y-56745000D01*
X131461000Y-58825000D02*
X131461000Y-60199000D01*
X131461000Y-55371000D02*
X131461000Y-56745000D01*
X131421000Y-58825000D02*
X131421000Y-60213000D01*
X131421000Y-55357000D02*
X131421000Y-56745000D01*
X131381000Y-58825000D02*
X131381000Y-60227000D01*
X131381000Y-55343000D02*
X131381000Y-56745000D01*
X131341000Y-58825000D02*
X131341000Y-60240000D01*
X131341000Y-55330000D02*
X131341000Y-56745000D01*
X131301000Y-58825000D02*
X131301000Y-60253000D01*
X131301000Y-55317000D02*
X131301000Y-56745000D01*
X131261000Y-58825000D02*
X131261000Y-60265000D01*
X131261000Y-55305000D02*
X131261000Y-56745000D01*
X131220000Y-58825000D02*
X131220000Y-60276000D01*
X131220000Y-55294000D02*
X131220000Y-56745000D01*
X131180000Y-58825000D02*
X131180000Y-60286000D01*
X131180000Y-55284000D02*
X131180000Y-56745000D01*
X131140000Y-58825000D02*
X131140000Y-60296000D01*
X131140000Y-55274000D02*
X131140000Y-56745000D01*
X131100000Y-58825000D02*
X131100000Y-60305000D01*
X131100000Y-55265000D02*
X131100000Y-56745000D01*
X131060000Y-58825000D02*
X131060000Y-60313000D01*
X131060000Y-55257000D02*
X131060000Y-56745000D01*
X131020000Y-58825000D02*
X131020000Y-60321000D01*
X131020000Y-55249000D02*
X131020000Y-56745000D01*
X130980000Y-58825000D02*
X130980000Y-60328000D01*
X130980000Y-55242000D02*
X130980000Y-56745000D01*
X130940000Y-58825000D02*
X130940000Y-60335000D01*
X130940000Y-55235000D02*
X130940000Y-56745000D01*
X130900000Y-58825000D02*
X130900000Y-60341000D01*
X130900000Y-55229000D02*
X130900000Y-56745000D01*
X130860000Y-58825000D02*
X130860000Y-60346000D01*
X130860000Y-55224000D02*
X130860000Y-56745000D01*
X130820000Y-58825000D02*
X130820000Y-60350000D01*
X130820000Y-55220000D02*
X130820000Y-56745000D01*
X130780000Y-58825000D02*
X130780000Y-60354000D01*
X130780000Y-55216000D02*
X130780000Y-56745000D01*
X130740000Y-58825000D02*
X130740000Y-60358000D01*
X130740000Y-55212000D02*
X130740000Y-56745000D01*
X130700000Y-58825000D02*
X130700000Y-60361000D01*
X130700000Y-55209000D02*
X130700000Y-56745000D01*
X130660000Y-58825000D02*
X130660000Y-60363000D01*
X130660000Y-55207000D02*
X130660000Y-56745000D01*
X130620000Y-58825000D02*
X130620000Y-60364000D01*
X130620000Y-55206000D02*
X130620000Y-56745000D01*
X130580000Y-55205000D02*
X130580000Y-56745000D01*
X130580000Y-58825000D02*
X130580000Y-60365000D01*
X130540000Y-55205000D02*
X130540000Y-56745000D01*
X130540000Y-58825000D02*
X130540000Y-60365000D01*
X133160000Y-57785000D02*
G75*
G03X133160000Y-57785000I-2620000J0D01*
G01*
X151020000Y-104560000D02*
X151020000Y-104875000D01*
X151020000Y-102135000D02*
X151020000Y-102450000D01*
X146080000Y-104560000D02*
X146080000Y-104875000D01*
X146080000Y-102135000D02*
X146080000Y-102450000D01*
X146080000Y-104875000D02*
X151020000Y-104875000D01*
X146080000Y-102135000D02*
X151020000Y-102135000D01*
X146080000Y-84990000D02*
X151020000Y-84990000D01*
X146080000Y-87730000D02*
X151020000Y-87730000D01*
X146080000Y-84990000D02*
X146080000Y-85305000D01*
X146080000Y-87415000D02*
X146080000Y-87730000D01*
X151020000Y-84990000D02*
X151020000Y-85305000D01*
X151020000Y-87415000D02*
X151020000Y-87730000D01*
X146080000Y-107215000D02*
X151020000Y-107215000D01*
X146080000Y-109955000D02*
X151020000Y-109955000D01*
X146080000Y-107215000D02*
X146080000Y-107530000D01*
X146080000Y-109640000D02*
X146080000Y-109955000D01*
X151020000Y-107215000D02*
X151020000Y-107530000D01*
X151020000Y-109640000D02*
X151020000Y-109955000D01*
X141495000Y-88050000D02*
X141495000Y-88365000D01*
X141495000Y-85625000D02*
X141495000Y-85940000D01*
X136555000Y-88050000D02*
X136555000Y-88365000D01*
X136555000Y-85625000D02*
X136555000Y-85940000D01*
X136555000Y-88365000D02*
X141495000Y-88365000D01*
X136555000Y-85625000D02*
X141495000Y-85625000D01*
X136555000Y-102135000D02*
X141495000Y-102135000D01*
X136555000Y-104875000D02*
X141495000Y-104875000D01*
X136555000Y-102135000D02*
X136555000Y-102450000D01*
X136555000Y-104560000D02*
X136555000Y-104875000D01*
X141495000Y-102135000D02*
X141495000Y-102450000D01*
X141495000Y-104560000D02*
X141495000Y-104875000D01*
X151020000Y-98845000D02*
X151020000Y-99160000D01*
X151020000Y-96420000D02*
X151020000Y-96735000D01*
X146080000Y-98845000D02*
X146080000Y-99160000D01*
X146080000Y-96420000D02*
X146080000Y-96735000D01*
X146080000Y-99160000D02*
X151020000Y-99160000D01*
X146080000Y-96420000D02*
X151020000Y-96420000D01*
X141495000Y-109640000D02*
X141495000Y-109955000D01*
X141495000Y-107215000D02*
X141495000Y-107530000D01*
X136555000Y-109640000D02*
X136555000Y-109955000D01*
X136555000Y-107215000D02*
X136555000Y-107530000D01*
X136555000Y-109955000D02*
X141495000Y-109955000D01*
X136555000Y-107215000D02*
X141495000Y-107215000D01*
X65345000Y-90230000D02*
X68005000Y-90230000D01*
X65345000Y-87630000D02*
X65345000Y-90230000D01*
X68005000Y-87630000D02*
X68005000Y-90230000D01*
X65345000Y-87630000D02*
X68005000Y-87630000D01*
X65345000Y-86360000D02*
X65345000Y-85030000D01*
X65345000Y-85030000D02*
X66675000Y-85030000D01*
X65345000Y-81340000D02*
X68005000Y-81340000D01*
X65345000Y-81220000D02*
X65345000Y-81340000D01*
X68005000Y-81220000D02*
X68005000Y-81340000D01*
X68005000Y-78680000D02*
X68005000Y-80010000D01*
X66675000Y-78680000D02*
X68005000Y-78680000D01*
X65345000Y-74990000D02*
X68005000Y-74990000D01*
X65345000Y-62230000D02*
X65345000Y-74990000D01*
X68005000Y-62230000D02*
X68005000Y-74990000D01*
X65345000Y-62230000D02*
X68005000Y-62230000D01*
X65345000Y-60960000D02*
X65345000Y-59630000D01*
X65345000Y-59630000D02*
X66675000Y-59630000D01*
X149800000Y-41275000D02*
X152460000Y-41275000D01*
X149800000Y-41275000D02*
X149800000Y-43875000D01*
X149800000Y-43875000D02*
X152460000Y-43875000D01*
X152460000Y-41275000D02*
X152460000Y-43875000D01*
X152460000Y-38675000D02*
X152460000Y-40005000D01*
X151130000Y-38675000D02*
X152460000Y-38675000D01*
X144780000Y-47565000D02*
X146110000Y-47565000D01*
X146110000Y-47565000D02*
X146110000Y-48895000D01*
X146110000Y-50165000D02*
X146110000Y-52765000D01*
X143450000Y-52765000D02*
X146110000Y-52765000D01*
X143450000Y-50165000D02*
X143450000Y-52765000D01*
X143450000Y-50165000D02*
X146110000Y-50165000D01*
X137735000Y-41275000D02*
X140395000Y-41275000D01*
X137735000Y-41275000D02*
X137735000Y-43875000D01*
X137735000Y-43875000D02*
X140395000Y-43875000D01*
X140395000Y-41275000D02*
X140395000Y-43875000D01*
X140395000Y-38675000D02*
X140395000Y-40005000D01*
X139065000Y-38675000D02*
X140395000Y-38675000D01*
X151130000Y-47565000D02*
X152460000Y-47565000D01*
X152460000Y-47565000D02*
X152460000Y-48895000D01*
X152460000Y-50165000D02*
X152460000Y-52765000D01*
X149800000Y-52765000D02*
X152460000Y-52765000D01*
X149800000Y-50165000D02*
X149800000Y-52765000D01*
X149800000Y-50165000D02*
X152460000Y-50165000D01*
X137100000Y-50165000D02*
X139760000Y-50165000D01*
X137100000Y-50165000D02*
X137100000Y-52765000D01*
X137100000Y-52765000D02*
X139760000Y-52765000D01*
X139760000Y-50165000D02*
X139760000Y-52765000D01*
X139760000Y-47565000D02*
X139760000Y-48895000D01*
X138430000Y-47565000D02*
X139760000Y-47565000D01*
X144780000Y-38675000D02*
X146110000Y-38675000D01*
X146110000Y-38675000D02*
X146110000Y-40005000D01*
X146110000Y-41275000D02*
X146110000Y-43875000D01*
X143450000Y-43875000D02*
X146110000Y-43875000D01*
X143450000Y-41275000D02*
X143450000Y-43875000D01*
X143450000Y-41275000D02*
X146110000Y-41275000D01*
D12*
X137985000Y-75895000D02*
X137835000Y-75595000D01*
X138285000Y-75895000D02*
X137985000Y-75895000D01*
X142685000Y-75895000D02*
X142385000Y-75895000D01*
X142685000Y-75895000D02*
X142835000Y-75595000D01*
D10*
X142285000Y-72745000D02*
G75*
G03X138435000Y-72695000I-1950000J-1900000D01*
G01*
X151175000Y-72745000D02*
G75*
G03X147325000Y-72695000I-1950000J-1900000D01*
G01*
D12*
X151575000Y-75895000D02*
X151725000Y-75595000D01*
X151575000Y-75895000D02*
X151275000Y-75895000D01*
X147175000Y-75895000D02*
X146875000Y-75895000D01*
X146875000Y-75895000D02*
X146725000Y-75595000D01*
X137985000Y-68910000D02*
X137835000Y-68610000D01*
X138285000Y-68910000D02*
X137985000Y-68910000D01*
X142685000Y-68910000D02*
X142385000Y-68910000D01*
X142685000Y-68910000D02*
X142835000Y-68610000D01*
D10*
X142285000Y-65760000D02*
G75*
G03X138435000Y-65710000I-1950000J-1900000D01*
G01*
X151175000Y-65760000D02*
G75*
G03X147325000Y-65710000I-1950000J-1900000D01*
G01*
D12*
X151575000Y-68910000D02*
X151725000Y-68610000D01*
X151575000Y-68910000D02*
X151275000Y-68910000D01*
X147175000Y-68910000D02*
X146875000Y-68910000D01*
X146875000Y-68910000D02*
X146725000Y-68610000D01*
X146875000Y-61925000D02*
X146725000Y-61625000D01*
X147175000Y-61925000D02*
X146875000Y-61925000D01*
X151575000Y-61925000D02*
X151275000Y-61925000D01*
X151575000Y-61925000D02*
X151725000Y-61625000D01*
D10*
X151175000Y-58775000D02*
G75*
G03X147325000Y-58725000I-1950000J-1900000D01*
G01*
X142285000Y-58775000D02*
G75*
G03X138435000Y-58725000I-1950000J-1900000D01*
G01*
D12*
X142685000Y-61925000D02*
X142835000Y-61625000D01*
X142685000Y-61925000D02*
X142385000Y-61925000D01*
X138285000Y-61925000D02*
X137985000Y-61925000D01*
X137985000Y-61925000D02*
X137835000Y-61625000D01*
D11*
X106450000Y-94260000D02*
X106450000Y-94590000D01*
X112990000Y-94260000D02*
X106450000Y-94260000D01*
X112990000Y-94590000D02*
X112990000Y-94260000D01*
X106450000Y-97000000D02*
X106450000Y-96670000D01*
X112990000Y-97000000D02*
X106450000Y-97000000D01*
X112990000Y-96670000D02*
X112990000Y-97000000D01*
X97775000Y-73920000D02*
X97775000Y-74250000D01*
X97775000Y-74250000D02*
X91235000Y-74250000D01*
X91235000Y-74250000D02*
X91235000Y-73920000D01*
X97775000Y-71840000D02*
X97775000Y-71510000D01*
X97775000Y-71510000D02*
X91235000Y-71510000D01*
X91235000Y-71510000D02*
X91235000Y-71840000D01*
X82010000Y-103910000D02*
X82010000Y-104240000D01*
X82010000Y-104240000D02*
X75470000Y-104240000D01*
X75470000Y-104240000D02*
X75470000Y-103910000D01*
X82010000Y-101830000D02*
X82010000Y-101500000D01*
X82010000Y-101500000D02*
X75470000Y-101500000D01*
X75470000Y-101500000D02*
X75470000Y-101830000D01*
X91235000Y-66825000D02*
X91235000Y-67155000D01*
X97775000Y-66825000D02*
X91235000Y-66825000D01*
X97775000Y-67155000D02*
X97775000Y-66825000D01*
X91235000Y-69565000D02*
X91235000Y-69235000D01*
X97775000Y-69565000D02*
X91235000Y-69565000D01*
X97775000Y-69235000D02*
X97775000Y-69565000D01*
X106330000Y-80290000D02*
X106330000Y-80620000D01*
X112870000Y-80290000D02*
X106330000Y-80290000D01*
X112870000Y-80620000D02*
X112870000Y-80290000D01*
X106330000Y-83030000D02*
X106330000Y-82700000D01*
X112870000Y-83030000D02*
X106330000Y-83030000D01*
X112870000Y-82700000D02*
X112870000Y-83030000D01*
X106330000Y-75605000D02*
X106330000Y-75935000D01*
X112870000Y-75605000D02*
X106330000Y-75605000D01*
X112870000Y-75935000D02*
X112870000Y-75605000D01*
X106330000Y-78345000D02*
X106330000Y-78015000D01*
X112870000Y-78345000D02*
X106330000Y-78345000D01*
X112870000Y-78015000D02*
X112870000Y-78345000D01*
X81925000Y-95075000D02*
X81925000Y-95405000D01*
X81925000Y-95405000D02*
X75385000Y-95405000D01*
X75385000Y-95405000D02*
X75385000Y-95075000D01*
X81925000Y-92995000D02*
X81925000Y-92665000D01*
X81925000Y-92665000D02*
X75385000Y-92665000D01*
X75385000Y-92665000D02*
X75385000Y-92995000D01*
X112490000Y-73430000D02*
X112490000Y-73760000D01*
X112490000Y-73760000D02*
X105950000Y-73760000D01*
X105950000Y-73760000D02*
X105950000Y-73430000D01*
X112490000Y-71350000D02*
X112490000Y-71020000D01*
X112490000Y-71020000D02*
X105950000Y-71020000D01*
X105950000Y-71020000D02*
X105950000Y-71350000D01*
X91345000Y-85625000D02*
X91345000Y-85955000D01*
X97885000Y-85625000D02*
X91345000Y-85625000D01*
X97885000Y-85955000D02*
X97885000Y-85625000D01*
X91345000Y-88365000D02*
X91345000Y-88035000D01*
X97885000Y-88365000D02*
X91345000Y-88365000D01*
X97885000Y-88035000D02*
X97885000Y-88365000D01*
X105950000Y-66575000D02*
X105950000Y-66905000D01*
X112490000Y-66575000D02*
X105950000Y-66575000D01*
X112490000Y-66905000D02*
X112490000Y-66575000D01*
X105950000Y-69315000D02*
X105950000Y-68985000D01*
X112490000Y-69315000D02*
X105950000Y-69315000D01*
X112490000Y-68985000D02*
X112490000Y-69315000D01*
X97775000Y-92620000D02*
X97775000Y-92950000D01*
X97775000Y-92950000D02*
X91235000Y-92950000D01*
X91235000Y-92950000D02*
X91235000Y-92620000D01*
X97775000Y-90540000D02*
X97775000Y-90210000D01*
X97775000Y-90210000D02*
X91235000Y-90210000D01*
X91235000Y-90210000D02*
X91235000Y-90540000D01*
X81925000Y-90390000D02*
X81925000Y-90720000D01*
X81925000Y-90720000D02*
X75385000Y-90720000D01*
X75385000Y-90720000D02*
X75385000Y-90390000D01*
X81925000Y-88310000D02*
X81925000Y-87980000D01*
X81925000Y-87980000D02*
X75385000Y-87980000D01*
X75385000Y-87980000D02*
X75385000Y-88310000D01*
X91115000Y-76240000D02*
X91115000Y-76570000D01*
X97655000Y-76240000D02*
X91115000Y-76240000D01*
X97655000Y-76570000D02*
X97655000Y-76240000D01*
X91115000Y-78980000D02*
X91115000Y-78650000D01*
X97655000Y-78980000D02*
X91115000Y-78980000D01*
X97655000Y-78650000D02*
X97655000Y-78980000D01*
X91115000Y-80925000D02*
X91115000Y-81255000D01*
X97655000Y-80925000D02*
X91115000Y-80925000D01*
X97655000Y-81255000D02*
X97655000Y-80925000D01*
X91115000Y-83665000D02*
X91115000Y-83335000D01*
X97655000Y-83665000D02*
X91115000Y-83665000D01*
X97655000Y-83335000D02*
X97655000Y-83665000D01*
X129000000Y-66445000D02*
X129000000Y-66775000D01*
X129000000Y-66775000D02*
X122460000Y-66775000D01*
X122460000Y-66775000D02*
X122460000Y-66445000D01*
X129000000Y-64365000D02*
X129000000Y-64035000D01*
X129000000Y-64035000D02*
X122460000Y-64035000D01*
X122460000Y-64035000D02*
X122460000Y-64365000D01*
X128840000Y-87935000D02*
X128840000Y-88265000D01*
X128840000Y-88265000D02*
X122300000Y-88265000D01*
X122300000Y-88265000D02*
X122300000Y-87935000D01*
X128840000Y-85855000D02*
X128840000Y-85525000D01*
X128840000Y-85525000D02*
X122300000Y-85525000D01*
X122300000Y-85525000D02*
X122300000Y-85855000D01*
X91235000Y-94895000D02*
X91235000Y-95225000D01*
X97775000Y-94895000D02*
X91235000Y-94895000D01*
X97775000Y-95225000D02*
X97775000Y-94895000D01*
X91235000Y-97635000D02*
X91235000Y-97305000D01*
X97775000Y-97635000D02*
X91235000Y-97635000D01*
X97775000Y-97305000D02*
X97775000Y-97635000D01*
X75470000Y-72290000D02*
X75470000Y-72620000D01*
X82010000Y-72290000D02*
X75470000Y-72290000D01*
X82010000Y-72620000D02*
X82010000Y-72290000D01*
X75470000Y-75030000D02*
X75470000Y-74700000D01*
X82010000Y-75030000D02*
X75470000Y-75030000D01*
X82010000Y-74700000D02*
X82010000Y-75030000D01*
X112990000Y-87300000D02*
X112990000Y-87630000D01*
X112990000Y-87630000D02*
X106450000Y-87630000D01*
X106450000Y-87630000D02*
X106450000Y-87300000D01*
X112990000Y-85220000D02*
X112990000Y-84890000D01*
X112990000Y-84890000D02*
X106450000Y-84890000D01*
X106450000Y-84890000D02*
X106450000Y-85220000D01*
X75470000Y-77370000D02*
X75470000Y-77700000D01*
X82010000Y-77370000D02*
X75470000Y-77370000D01*
X82010000Y-77700000D02*
X82010000Y-77370000D01*
X75470000Y-80110000D02*
X75470000Y-79780000D01*
X82010000Y-80110000D02*
X75470000Y-80110000D01*
X82010000Y-79780000D02*
X82010000Y-80110000D01*
X97775000Y-102625000D02*
X97775000Y-102955000D01*
X97775000Y-102955000D02*
X91235000Y-102955000D01*
X91235000Y-102955000D02*
X91235000Y-102625000D01*
X97775000Y-100545000D02*
X97775000Y-100215000D01*
X97775000Y-100215000D02*
X91235000Y-100215000D01*
X91235000Y-100215000D02*
X91235000Y-100545000D01*
X112990000Y-91985000D02*
X112990000Y-92315000D01*
X112990000Y-92315000D02*
X106450000Y-92315000D01*
X106450000Y-92315000D02*
X106450000Y-91985000D01*
X112990000Y-89905000D02*
X112990000Y-89575000D01*
X112990000Y-89575000D02*
X106450000Y-89575000D01*
X106450000Y-89575000D02*
X106450000Y-89905000D01*
X74835000Y-67210000D02*
X74835000Y-67540000D01*
X81375000Y-67210000D02*
X74835000Y-67210000D01*
X81375000Y-67540000D02*
X81375000Y-67210000D01*
X74835000Y-69950000D02*
X74835000Y-69620000D01*
X81375000Y-69950000D02*
X74835000Y-69950000D01*
X81375000Y-69620000D02*
X81375000Y-69950000D01*
X122180000Y-74970000D02*
X122180000Y-75300000D01*
X128720000Y-74970000D02*
X122180000Y-74970000D01*
X128720000Y-75300000D02*
X128720000Y-74970000D01*
X122180000Y-77710000D02*
X122180000Y-77380000D01*
X128720000Y-77710000D02*
X122180000Y-77710000D01*
X128720000Y-77380000D02*
X128720000Y-77710000D01*
X75385000Y-96715000D02*
X75385000Y-97045000D01*
X81925000Y-96715000D02*
X75385000Y-96715000D01*
X81925000Y-97045000D02*
X81925000Y-96715000D01*
X75385000Y-99455000D02*
X75385000Y-99125000D01*
X81925000Y-99455000D02*
X75385000Y-99455000D01*
X81925000Y-99125000D02*
X81925000Y-99455000D01*
X128840000Y-92620000D02*
X128840000Y-92950000D01*
X128840000Y-92950000D02*
X122300000Y-92950000D01*
X122300000Y-92950000D02*
X122300000Y-92620000D01*
X128840000Y-90540000D02*
X128840000Y-90210000D01*
X128840000Y-90210000D02*
X122300000Y-90210000D01*
X122300000Y-90210000D02*
X122300000Y-90540000D01*
X112990000Y-101355000D02*
X112990000Y-101685000D01*
X112990000Y-101685000D02*
X106450000Y-101685000D01*
X106450000Y-101685000D02*
X106450000Y-101355000D01*
X112990000Y-99275000D02*
X112990000Y-98945000D01*
X112990000Y-98945000D02*
X106450000Y-98945000D01*
X106450000Y-98945000D02*
X106450000Y-99275000D01*
X129000000Y-71525000D02*
X129000000Y-71855000D01*
X129000000Y-71855000D02*
X122460000Y-71855000D01*
X122460000Y-71855000D02*
X122460000Y-71525000D01*
X129000000Y-69445000D02*
X129000000Y-69115000D01*
X129000000Y-69115000D02*
X122460000Y-69115000D01*
X122460000Y-69115000D02*
X122460000Y-69445000D01*
X122180000Y-80290000D02*
X122180000Y-80620000D01*
X128720000Y-80290000D02*
X122180000Y-80290000D01*
X128720000Y-80620000D02*
X128720000Y-80290000D01*
X122180000Y-83030000D02*
X122180000Y-82700000D01*
X128720000Y-83030000D02*
X122180000Y-83030000D01*
X128720000Y-82700000D02*
X128720000Y-83030000D01*
X112820000Y-106450000D02*
X112820000Y-106780000D01*
X112820000Y-106780000D02*
X106280000Y-106780000D01*
X106280000Y-106780000D02*
X106280000Y-106450000D01*
X112820000Y-104370000D02*
X112820000Y-104040000D01*
X112820000Y-104040000D02*
X106280000Y-104040000D01*
X106280000Y-104040000D02*
X106280000Y-104370000D01*
X122300000Y-94895000D02*
X122300000Y-95225000D01*
X128840000Y-94895000D02*
X122300000Y-94895000D01*
X128840000Y-95225000D02*
X128840000Y-94895000D01*
X122300000Y-97635000D02*
X122300000Y-97305000D01*
X128840000Y-97635000D02*
X122300000Y-97635000D01*
X128840000Y-97305000D02*
X128840000Y-97635000D01*
X128840000Y-101990000D02*
X128840000Y-102320000D01*
X128840000Y-102320000D02*
X122300000Y-102320000D01*
X122300000Y-102320000D02*
X122300000Y-101990000D01*
X128840000Y-99910000D02*
X128840000Y-99580000D01*
X128840000Y-99580000D02*
X122300000Y-99580000D01*
X122300000Y-99580000D02*
X122300000Y-99910000D01*
X122130000Y-104675000D02*
X122130000Y-105005000D01*
X128670000Y-104675000D02*
X122130000Y-104675000D01*
X128670000Y-105005000D02*
X128670000Y-104675000D01*
X122130000Y-107415000D02*
X122130000Y-107085000D01*
X128670000Y-107415000D02*
X122130000Y-107415000D01*
X128670000Y-107085000D02*
X128670000Y-107415000D01*
X81975000Y-84630000D02*
X81975000Y-84960000D01*
X81975000Y-84960000D02*
X75435000Y-84960000D01*
X75435000Y-84960000D02*
X75435000Y-84630000D01*
X81975000Y-82550000D02*
X81975000Y-82220000D01*
X81975000Y-82220000D02*
X75435000Y-82220000D01*
X75435000Y-82220000D02*
X75435000Y-82550000D01*
D12*
X108870000Y-63855000D02*
X109295000Y-63855000D01*
X108870000Y-63830000D02*
X108870000Y-63380000D01*
X108870000Y-50955000D02*
X108870000Y-51405000D01*
X108870000Y-50955000D02*
X109295000Y-50955000D01*
X115920000Y-50955000D02*
X115545000Y-50955000D01*
X115920000Y-50955000D02*
X115920000Y-51355000D01*
X115920000Y-63480000D02*
X115920000Y-63855000D01*
X115920000Y-63855000D02*
X115570000Y-63855000D01*
X115920000Y-47090000D02*
X115570000Y-47090000D01*
X115920000Y-46715000D02*
X115920000Y-47090000D01*
X115920000Y-34190000D02*
X115920000Y-34590000D01*
X115920000Y-34190000D02*
X115545000Y-34190000D01*
X108870000Y-34190000D02*
X109295000Y-34190000D01*
X108870000Y-34190000D02*
X108870000Y-34640000D01*
X108870000Y-47065000D02*
X108870000Y-46615000D01*
X108870000Y-47090000D02*
X109295000Y-47090000D01*
D11*
X73135000Y-64585000D02*
X73135000Y-50985000D01*
X85335000Y-50985000D02*
X73135000Y-50985000D01*
X85335000Y-50985000D02*
X85335000Y-64585000D01*
X73135000Y-64585000D02*
X85335000Y-64585000D01*
D12*
X105760000Y-63600000D02*
X105410000Y-63600000D01*
X105760000Y-63225000D02*
X105760000Y-63600000D01*
X105760000Y-50700000D02*
X105760000Y-51100000D01*
X105760000Y-50700000D02*
X105385000Y-50700000D01*
X98710000Y-50700000D02*
X99135000Y-50700000D01*
X98710000Y-50700000D02*
X98710000Y-51150000D01*
X98710000Y-63575000D02*
X98710000Y-63125000D01*
X98710000Y-63600000D02*
X99135000Y-63600000D01*
X98710000Y-47470000D02*
X99135000Y-47470000D01*
X98710000Y-47445000D02*
X98710000Y-46995000D01*
X98710000Y-34570000D02*
X98710000Y-35020000D01*
X98710000Y-34570000D02*
X99135000Y-34570000D01*
X105760000Y-34570000D02*
X105385000Y-34570000D01*
X105760000Y-34570000D02*
X105760000Y-34970000D01*
X105760000Y-47095000D02*
X105760000Y-47470000D01*
X105760000Y-47470000D02*
X105410000Y-47470000D01*
X89185000Y-63855000D02*
X89610000Y-63855000D01*
X89185000Y-63830000D02*
X89185000Y-63380000D01*
X89185000Y-50955000D02*
X89185000Y-51405000D01*
X89185000Y-50955000D02*
X89610000Y-50955000D01*
X96235000Y-50955000D02*
X95860000Y-50955000D01*
X96235000Y-50955000D02*
X96235000Y-51355000D01*
X96235000Y-63480000D02*
X96235000Y-63855000D01*
X96235000Y-63855000D02*
X95885000Y-63855000D01*
X96020000Y-47450000D02*
X95670000Y-47450000D01*
X96020000Y-47075000D02*
X96020000Y-47450000D01*
X96020000Y-34550000D02*
X96020000Y-34950000D01*
X96020000Y-34550000D02*
X95645000Y-34550000D01*
X88970000Y-34550000D02*
X89395000Y-34550000D01*
X88970000Y-34550000D02*
X88970000Y-35000000D01*
X88970000Y-47425000D02*
X88970000Y-46975000D01*
X88970000Y-47450000D02*
X89395000Y-47450000D01*
X75965000Y-36565000D02*
X75965000Y-36265000D01*
X75965000Y-36265000D02*
X76265000Y-36265000D01*
X82765000Y-36565000D02*
X82765000Y-36265000D01*
X82765000Y-36265000D02*
X82465000Y-36265000D01*
X82765000Y-45965000D02*
X82765000Y-46265000D01*
X82765000Y-46265000D02*
X82465000Y-46265000D01*
X75965000Y-45965000D02*
X75965000Y-46265000D01*
X75965000Y-46265000D02*
X76265000Y-46265000D01*
D10*
X148383333Y-89932142D02*
X148335714Y-89979761D01*
X148192857Y-90027380D01*
X148097619Y-90027380D01*
X147954761Y-89979761D01*
X147859523Y-89884523D01*
X147811904Y-89789285D01*
X147764285Y-89598809D01*
X147764285Y-89455952D01*
X147811904Y-89265476D01*
X147859523Y-89170238D01*
X147954761Y-89075000D01*
X148097619Y-89027380D01*
X148192857Y-89027380D01*
X148335714Y-89075000D01*
X148383333Y-89122619D01*
X149335714Y-90027380D02*
X148764285Y-90027380D01*
X149050000Y-90027380D02*
X149050000Y-89027380D01*
X148954761Y-89170238D01*
X148859523Y-89265476D01*
X148764285Y-89313095D01*
X148383333Y-78502142D02*
X148335714Y-78549761D01*
X148192857Y-78597380D01*
X148097619Y-78597380D01*
X147954761Y-78549761D01*
X147859523Y-78454523D01*
X147811904Y-78359285D01*
X147764285Y-78168809D01*
X147764285Y-78025952D01*
X147811904Y-77835476D01*
X147859523Y-77740238D01*
X147954761Y-77645000D01*
X148097619Y-77597380D01*
X148192857Y-77597380D01*
X148335714Y-77645000D01*
X148383333Y-77692619D01*
X148764285Y-77692619D02*
X148811904Y-77645000D01*
X148907142Y-77597380D01*
X149145238Y-77597380D01*
X149240476Y-77645000D01*
X149288095Y-77692619D01*
X149335714Y-77787857D01*
X149335714Y-77883095D01*
X149288095Y-78025952D01*
X148716666Y-78597380D01*
X149335714Y-78597380D01*
X138858333Y-79137142D02*
X138810714Y-79184761D01*
X138667857Y-79232380D01*
X138572619Y-79232380D01*
X138429761Y-79184761D01*
X138334523Y-79089523D01*
X138286904Y-78994285D01*
X138239285Y-78803809D01*
X138239285Y-78660952D01*
X138286904Y-78470476D01*
X138334523Y-78375238D01*
X138429761Y-78280000D01*
X138572619Y-78232380D01*
X138667857Y-78232380D01*
X138810714Y-78280000D01*
X138858333Y-78327619D01*
X139191666Y-78232380D02*
X139810714Y-78232380D01*
X139477380Y-78613333D01*
X139620238Y-78613333D01*
X139715476Y-78660952D01*
X139763095Y-78708571D01*
X139810714Y-78803809D01*
X139810714Y-79041904D01*
X139763095Y-79137142D01*
X139715476Y-79184761D01*
X139620238Y-79232380D01*
X139334523Y-79232380D01*
X139239285Y-79184761D01*
X139191666Y-79137142D01*
X138858333Y-89932142D02*
X138810714Y-89979761D01*
X138667857Y-90027380D01*
X138572619Y-90027380D01*
X138429761Y-89979761D01*
X138334523Y-89884523D01*
X138286904Y-89789285D01*
X138239285Y-89598809D01*
X138239285Y-89455952D01*
X138286904Y-89265476D01*
X138334523Y-89170238D01*
X138429761Y-89075000D01*
X138572619Y-89027380D01*
X138667857Y-89027380D01*
X138810714Y-89075000D01*
X138858333Y-89122619D01*
X139715476Y-89360714D02*
X139715476Y-90027380D01*
X139477380Y-88979761D02*
X139239285Y-89694047D01*
X139858333Y-89694047D01*
X122118333Y-54392142D02*
X122070714Y-54439761D01*
X121927857Y-54487380D01*
X121832619Y-54487380D01*
X121689761Y-54439761D01*
X121594523Y-54344523D01*
X121546904Y-54249285D01*
X121499285Y-54058809D01*
X121499285Y-53915952D01*
X121546904Y-53725476D01*
X121594523Y-53630238D01*
X121689761Y-53535000D01*
X121832619Y-53487380D01*
X121927857Y-53487380D01*
X122070714Y-53535000D01*
X122118333Y-53582619D01*
X123023095Y-53487380D02*
X122546904Y-53487380D01*
X122499285Y-53963571D01*
X122546904Y-53915952D01*
X122642142Y-53868333D01*
X122880238Y-53868333D01*
X122975476Y-53915952D01*
X123023095Y-53963571D01*
X123070714Y-54058809D01*
X123070714Y-54296904D01*
X123023095Y-54392142D01*
X122975476Y-54439761D01*
X122880238Y-54487380D01*
X122642142Y-54487380D01*
X122546904Y-54439761D01*
X122499285Y-54392142D01*
X126158333Y-35922142D02*
X126110714Y-35969761D01*
X125967857Y-36017380D01*
X125872619Y-36017380D01*
X125729761Y-35969761D01*
X125634523Y-35874523D01*
X125586904Y-35779285D01*
X125539285Y-35588809D01*
X125539285Y-35445952D01*
X125586904Y-35255476D01*
X125634523Y-35160238D01*
X125729761Y-35065000D01*
X125872619Y-35017380D01*
X125967857Y-35017380D01*
X126110714Y-35065000D01*
X126158333Y-35112619D01*
X127015476Y-35017380D02*
X126825000Y-35017380D01*
X126729761Y-35065000D01*
X126682142Y-35112619D01*
X126586904Y-35255476D01*
X126539285Y-35445952D01*
X126539285Y-35826904D01*
X126586904Y-35922142D01*
X126634523Y-35969761D01*
X126729761Y-36017380D01*
X126920238Y-36017380D01*
X127015476Y-35969761D01*
X127063095Y-35922142D01*
X127110714Y-35826904D01*
X127110714Y-35588809D01*
X127063095Y-35493571D01*
X127015476Y-35445952D01*
X126920238Y-35398333D01*
X126729761Y-35398333D01*
X126634523Y-35445952D01*
X126586904Y-35493571D01*
X126539285Y-35588809D01*
X138858333Y-95647142D02*
X138810714Y-95694761D01*
X138667857Y-95742380D01*
X138572619Y-95742380D01*
X138429761Y-95694761D01*
X138334523Y-95599523D01*
X138286904Y-95504285D01*
X138239285Y-95313809D01*
X138239285Y-95170952D01*
X138286904Y-94980476D01*
X138334523Y-94885238D01*
X138429761Y-94790000D01*
X138572619Y-94742380D01*
X138667857Y-94742380D01*
X138810714Y-94790000D01*
X138858333Y-94837619D01*
X139191666Y-94742380D02*
X139858333Y-94742380D01*
X139429761Y-95742380D01*
X130373333Y-54392142D02*
X130325714Y-54439761D01*
X130182857Y-54487380D01*
X130087619Y-54487380D01*
X129944761Y-54439761D01*
X129849523Y-54344523D01*
X129801904Y-54249285D01*
X129754285Y-54058809D01*
X129754285Y-53915952D01*
X129801904Y-53725476D01*
X129849523Y-53630238D01*
X129944761Y-53535000D01*
X130087619Y-53487380D01*
X130182857Y-53487380D01*
X130325714Y-53535000D01*
X130373333Y-53582619D01*
X130944761Y-53915952D02*
X130849523Y-53868333D01*
X130801904Y-53820714D01*
X130754285Y-53725476D01*
X130754285Y-53677857D01*
X130801904Y-53582619D01*
X130849523Y-53535000D01*
X130944761Y-53487380D01*
X131135238Y-53487380D01*
X131230476Y-53535000D01*
X131278095Y-53582619D01*
X131325714Y-53677857D01*
X131325714Y-53725476D01*
X131278095Y-53820714D01*
X131230476Y-53868333D01*
X131135238Y-53915952D01*
X130944761Y-53915952D01*
X130849523Y-53963571D01*
X130801904Y-54011190D01*
X130754285Y-54106428D01*
X130754285Y-54296904D01*
X130801904Y-54392142D01*
X130849523Y-54439761D01*
X130944761Y-54487380D01*
X131135238Y-54487380D01*
X131230476Y-54439761D01*
X131278095Y-54392142D01*
X131325714Y-54296904D01*
X131325714Y-54106428D01*
X131278095Y-54011190D01*
X131230476Y-53963571D01*
X131135238Y-53915952D01*
X148383333Y-101362142D02*
X148335714Y-101409761D01*
X148192857Y-101457380D01*
X148097619Y-101457380D01*
X147954761Y-101409761D01*
X147859523Y-101314523D01*
X147811904Y-101219285D01*
X147764285Y-101028809D01*
X147764285Y-100885952D01*
X147811904Y-100695476D01*
X147859523Y-100600238D01*
X147954761Y-100505000D01*
X148097619Y-100457380D01*
X148192857Y-100457380D01*
X148335714Y-100505000D01*
X148383333Y-100552619D01*
X148859523Y-101457380D02*
X149050000Y-101457380D01*
X149145238Y-101409761D01*
X149192857Y-101362142D01*
X149288095Y-101219285D01*
X149335714Y-101028809D01*
X149335714Y-100647857D01*
X149288095Y-100552619D01*
X149240476Y-100505000D01*
X149145238Y-100457380D01*
X148954761Y-100457380D01*
X148859523Y-100505000D01*
X148811904Y-100552619D01*
X148764285Y-100647857D01*
X148764285Y-100885952D01*
X148811904Y-100981190D01*
X148859523Y-101028809D01*
X148954761Y-101076428D01*
X149145238Y-101076428D01*
X149240476Y-101028809D01*
X149288095Y-100981190D01*
X149335714Y-100885952D01*
X147907142Y-84217142D02*
X147859523Y-84264761D01*
X147716666Y-84312380D01*
X147621428Y-84312380D01*
X147478571Y-84264761D01*
X147383333Y-84169523D01*
X147335714Y-84074285D01*
X147288095Y-83883809D01*
X147288095Y-83740952D01*
X147335714Y-83550476D01*
X147383333Y-83455238D01*
X147478571Y-83360000D01*
X147621428Y-83312380D01*
X147716666Y-83312380D01*
X147859523Y-83360000D01*
X147907142Y-83407619D01*
X148859523Y-84312380D02*
X148288095Y-84312380D01*
X148573809Y-84312380D02*
X148573809Y-83312380D01*
X148478571Y-83455238D01*
X148383333Y-83550476D01*
X148288095Y-83598095D01*
X149478571Y-83312380D02*
X149573809Y-83312380D01*
X149669047Y-83360000D01*
X149716666Y-83407619D01*
X149764285Y-83502857D01*
X149811904Y-83693333D01*
X149811904Y-83931428D01*
X149764285Y-84121904D01*
X149716666Y-84217142D01*
X149669047Y-84264761D01*
X149573809Y-84312380D01*
X149478571Y-84312380D01*
X149383333Y-84264761D01*
X149335714Y-84217142D01*
X149288095Y-84121904D01*
X149240476Y-83931428D01*
X149240476Y-83693333D01*
X149288095Y-83502857D01*
X149335714Y-83407619D01*
X149383333Y-83360000D01*
X149478571Y-83312380D01*
X147907142Y-106442142D02*
X147859523Y-106489761D01*
X147716666Y-106537380D01*
X147621428Y-106537380D01*
X147478571Y-106489761D01*
X147383333Y-106394523D01*
X147335714Y-106299285D01*
X147288095Y-106108809D01*
X147288095Y-105965952D01*
X147335714Y-105775476D01*
X147383333Y-105680238D01*
X147478571Y-105585000D01*
X147621428Y-105537380D01*
X147716666Y-105537380D01*
X147859523Y-105585000D01*
X147907142Y-105632619D01*
X148859523Y-106537380D02*
X148288095Y-106537380D01*
X148573809Y-106537380D02*
X148573809Y-105537380D01*
X148478571Y-105680238D01*
X148383333Y-105775476D01*
X148288095Y-105823095D01*
X149811904Y-106537380D02*
X149240476Y-106537380D01*
X149526190Y-106537380D02*
X149526190Y-105537380D01*
X149430952Y-105680238D01*
X149335714Y-105775476D01*
X149240476Y-105823095D01*
X138382142Y-84852142D02*
X138334523Y-84899761D01*
X138191666Y-84947380D01*
X138096428Y-84947380D01*
X137953571Y-84899761D01*
X137858333Y-84804523D01*
X137810714Y-84709285D01*
X137763095Y-84518809D01*
X137763095Y-84375952D01*
X137810714Y-84185476D01*
X137858333Y-84090238D01*
X137953571Y-83995000D01*
X138096428Y-83947380D01*
X138191666Y-83947380D01*
X138334523Y-83995000D01*
X138382142Y-84042619D01*
X139334523Y-84947380D02*
X138763095Y-84947380D01*
X139048809Y-84947380D02*
X139048809Y-83947380D01*
X138953571Y-84090238D01*
X138858333Y-84185476D01*
X138763095Y-84233095D01*
X139715476Y-84042619D02*
X139763095Y-83995000D01*
X139858333Y-83947380D01*
X140096428Y-83947380D01*
X140191666Y-83995000D01*
X140239285Y-84042619D01*
X140286904Y-84137857D01*
X140286904Y-84233095D01*
X140239285Y-84375952D01*
X139667857Y-84947380D01*
X140286904Y-84947380D01*
X138382142Y-101362142D02*
X138334523Y-101409761D01*
X138191666Y-101457380D01*
X138096428Y-101457380D01*
X137953571Y-101409761D01*
X137858333Y-101314523D01*
X137810714Y-101219285D01*
X137763095Y-101028809D01*
X137763095Y-100885952D01*
X137810714Y-100695476D01*
X137858333Y-100600238D01*
X137953571Y-100505000D01*
X138096428Y-100457380D01*
X138191666Y-100457380D01*
X138334523Y-100505000D01*
X138382142Y-100552619D01*
X139334523Y-101457380D02*
X138763095Y-101457380D01*
X139048809Y-101457380D02*
X139048809Y-100457380D01*
X138953571Y-100600238D01*
X138858333Y-100695476D01*
X138763095Y-100743095D01*
X139667857Y-100457380D02*
X140286904Y-100457380D01*
X139953571Y-100838333D01*
X140096428Y-100838333D01*
X140191666Y-100885952D01*
X140239285Y-100933571D01*
X140286904Y-101028809D01*
X140286904Y-101266904D01*
X140239285Y-101362142D01*
X140191666Y-101409761D01*
X140096428Y-101457380D01*
X139810714Y-101457380D01*
X139715476Y-101409761D01*
X139667857Y-101362142D01*
X147907142Y-95647142D02*
X147859523Y-95694761D01*
X147716666Y-95742380D01*
X147621428Y-95742380D01*
X147478571Y-95694761D01*
X147383333Y-95599523D01*
X147335714Y-95504285D01*
X147288095Y-95313809D01*
X147288095Y-95170952D01*
X147335714Y-94980476D01*
X147383333Y-94885238D01*
X147478571Y-94790000D01*
X147621428Y-94742380D01*
X147716666Y-94742380D01*
X147859523Y-94790000D01*
X147907142Y-94837619D01*
X148859523Y-95742380D02*
X148288095Y-95742380D01*
X148573809Y-95742380D02*
X148573809Y-94742380D01*
X148478571Y-94885238D01*
X148383333Y-94980476D01*
X148288095Y-95028095D01*
X149716666Y-95075714D02*
X149716666Y-95742380D01*
X149478571Y-94694761D02*
X149240476Y-95409047D01*
X149859523Y-95409047D01*
X138382142Y-106442142D02*
X138334523Y-106489761D01*
X138191666Y-106537380D01*
X138096428Y-106537380D01*
X137953571Y-106489761D01*
X137858333Y-106394523D01*
X137810714Y-106299285D01*
X137763095Y-106108809D01*
X137763095Y-105965952D01*
X137810714Y-105775476D01*
X137858333Y-105680238D01*
X137953571Y-105585000D01*
X138096428Y-105537380D01*
X138191666Y-105537380D01*
X138334523Y-105585000D01*
X138382142Y-105632619D01*
X139334523Y-106537380D02*
X138763095Y-106537380D01*
X139048809Y-106537380D02*
X139048809Y-105537380D01*
X138953571Y-105680238D01*
X138858333Y-105775476D01*
X138763095Y-105823095D01*
X140239285Y-105537380D02*
X139763095Y-105537380D01*
X139715476Y-106013571D01*
X139763095Y-105965952D01*
X139858333Y-105918333D01*
X140096428Y-105918333D01*
X140191666Y-105965952D01*
X140239285Y-106013571D01*
X140286904Y-106108809D01*
X140286904Y-106346904D01*
X140239285Y-106442142D01*
X140191666Y-106489761D01*
X140096428Y-106537380D01*
X139858333Y-106537380D01*
X139763095Y-106489761D01*
X139715476Y-106442142D01*
X66341666Y-83482380D02*
X66341666Y-84196666D01*
X66294047Y-84339523D01*
X66198809Y-84434761D01*
X66055952Y-84482380D01*
X65960714Y-84482380D01*
X67341666Y-84482380D02*
X66770238Y-84482380D01*
X67055952Y-84482380D02*
X67055952Y-83482380D01*
X66960714Y-83625238D01*
X66865476Y-83720476D01*
X66770238Y-83768095D01*
X66341666Y-76692380D02*
X66341666Y-77406666D01*
X66294047Y-77549523D01*
X66198809Y-77644761D01*
X66055952Y-77692380D01*
X65960714Y-77692380D01*
X66770238Y-76787619D02*
X66817857Y-76740000D01*
X66913095Y-76692380D01*
X67151190Y-76692380D01*
X67246428Y-76740000D01*
X67294047Y-76787619D01*
X67341666Y-76882857D01*
X67341666Y-76978095D01*
X67294047Y-77120952D01*
X66722619Y-77692380D01*
X67341666Y-77692380D01*
X66341666Y-58082380D02*
X66341666Y-58796666D01*
X66294047Y-58939523D01*
X66198809Y-59034761D01*
X66055952Y-59082380D01*
X65960714Y-59082380D01*
X66722619Y-58082380D02*
X67341666Y-58082380D01*
X67008333Y-58463333D01*
X67151190Y-58463333D01*
X67246428Y-58510952D01*
X67294047Y-58558571D01*
X67341666Y-58653809D01*
X67341666Y-58891904D01*
X67294047Y-58987142D01*
X67246428Y-59034761D01*
X67151190Y-59082380D01*
X66865476Y-59082380D01*
X66770238Y-59034761D01*
X66722619Y-58987142D01*
X149915714Y-37687380D02*
X149915714Y-36687380D01*
X150487142Y-37687380D01*
X150487142Y-36687380D01*
X150963333Y-37163571D02*
X151296666Y-37163571D01*
X151439523Y-37687380D02*
X150963333Y-37687380D01*
X150963333Y-36687380D01*
X151439523Y-36687380D01*
X152391904Y-37687380D02*
X151820476Y-37687380D01*
X152106190Y-37687380D02*
X152106190Y-36687380D01*
X152010952Y-36830238D01*
X151915714Y-36925476D01*
X151820476Y-36973095D01*
X143565714Y-46577380D02*
X143565714Y-45577380D01*
X144137142Y-46577380D01*
X144137142Y-45577380D01*
X144613333Y-46053571D02*
X144946666Y-46053571D01*
X145089523Y-46577380D02*
X144613333Y-46577380D01*
X144613333Y-45577380D01*
X145089523Y-45577380D01*
X145470476Y-45672619D02*
X145518095Y-45625000D01*
X145613333Y-45577380D01*
X145851428Y-45577380D01*
X145946666Y-45625000D01*
X145994285Y-45672619D01*
X146041904Y-45767857D01*
X146041904Y-45863095D01*
X145994285Y-46005952D01*
X145422857Y-46577380D01*
X146041904Y-46577380D01*
X137850714Y-37687380D02*
X137850714Y-36687380D01*
X138422142Y-37687380D01*
X138422142Y-36687380D01*
X138898333Y-37163571D02*
X139231666Y-37163571D01*
X139374523Y-37687380D02*
X138898333Y-37687380D01*
X138898333Y-36687380D01*
X139374523Y-36687380D01*
X139707857Y-36687380D02*
X140326904Y-36687380D01*
X139993571Y-37068333D01*
X140136428Y-37068333D01*
X140231666Y-37115952D01*
X140279285Y-37163571D01*
X140326904Y-37258809D01*
X140326904Y-37496904D01*
X140279285Y-37592142D01*
X140231666Y-37639761D01*
X140136428Y-37687380D01*
X139850714Y-37687380D01*
X139755476Y-37639761D01*
X139707857Y-37592142D01*
X149915714Y-46577380D02*
X149915714Y-45577380D01*
X150487142Y-46577380D01*
X150487142Y-45577380D01*
X150963333Y-46053571D02*
X151296666Y-46053571D01*
X151439523Y-46577380D02*
X150963333Y-46577380D01*
X150963333Y-45577380D01*
X151439523Y-45577380D01*
X152296666Y-45910714D02*
X152296666Y-46577380D01*
X152058571Y-45529761D02*
X151820476Y-46244047D01*
X152439523Y-46244047D01*
X137215714Y-46577380D02*
X137215714Y-45577380D01*
X137787142Y-46577380D01*
X137787142Y-45577380D01*
X138263333Y-46053571D02*
X138596666Y-46053571D01*
X138739523Y-46577380D02*
X138263333Y-46577380D01*
X138263333Y-45577380D01*
X138739523Y-45577380D01*
X139644285Y-45577380D02*
X139168095Y-45577380D01*
X139120476Y-46053571D01*
X139168095Y-46005952D01*
X139263333Y-45958333D01*
X139501428Y-45958333D01*
X139596666Y-46005952D01*
X139644285Y-46053571D01*
X139691904Y-46148809D01*
X139691904Y-46386904D01*
X139644285Y-46482142D01*
X139596666Y-46529761D01*
X139501428Y-46577380D01*
X139263333Y-46577380D01*
X139168095Y-46529761D01*
X139120476Y-46482142D01*
X143565714Y-37687380D02*
X143565714Y-36687380D01*
X144137142Y-37687380D01*
X144137142Y-36687380D01*
X144613333Y-37163571D02*
X144946666Y-37163571D01*
X145089523Y-37687380D02*
X144613333Y-37687380D01*
X144613333Y-36687380D01*
X145089523Y-36687380D01*
X145946666Y-36687380D02*
X145756190Y-36687380D01*
X145660952Y-36735000D01*
X145613333Y-36782619D01*
X145518095Y-36925476D01*
X145470476Y-37115952D01*
X145470476Y-37496904D01*
X145518095Y-37592142D01*
X145565714Y-37639761D01*
X145660952Y-37687380D01*
X145851428Y-37687380D01*
X145946666Y-37639761D01*
X145994285Y-37592142D01*
X146041904Y-37496904D01*
X146041904Y-37258809D01*
X145994285Y-37163571D01*
X145946666Y-37115952D01*
X145851428Y-37068333D01*
X145660952Y-37068333D01*
X145565714Y-37115952D01*
X145518095Y-37163571D01*
X145470476Y-37258809D01*
X140239761Y-71492619D02*
X140144523Y-71445000D01*
X140049285Y-71349761D01*
X139906428Y-71206904D01*
X139811190Y-71159285D01*
X139715952Y-71159285D01*
X139763571Y-71397380D02*
X139668333Y-71349761D01*
X139573095Y-71254523D01*
X139525476Y-71064047D01*
X139525476Y-70730714D01*
X139573095Y-70540238D01*
X139668333Y-70445000D01*
X139763571Y-70397380D01*
X139954047Y-70397380D01*
X140049285Y-70445000D01*
X140144523Y-70540238D01*
X140192142Y-70730714D01*
X140192142Y-71064047D01*
X140144523Y-71254523D01*
X140049285Y-71349761D01*
X139954047Y-71397380D01*
X139763571Y-71397380D01*
X141144523Y-71397380D02*
X140573095Y-71397380D01*
X140858809Y-71397380D02*
X140858809Y-70397380D01*
X140763571Y-70540238D01*
X140668333Y-70635476D01*
X140573095Y-70683095D01*
X149129761Y-71492619D02*
X149034523Y-71445000D01*
X148939285Y-71349761D01*
X148796428Y-71206904D01*
X148701190Y-71159285D01*
X148605952Y-71159285D01*
X148653571Y-71397380D02*
X148558333Y-71349761D01*
X148463095Y-71254523D01*
X148415476Y-71064047D01*
X148415476Y-70730714D01*
X148463095Y-70540238D01*
X148558333Y-70445000D01*
X148653571Y-70397380D01*
X148844047Y-70397380D01*
X148939285Y-70445000D01*
X149034523Y-70540238D01*
X149082142Y-70730714D01*
X149082142Y-71064047D01*
X149034523Y-71254523D01*
X148939285Y-71349761D01*
X148844047Y-71397380D01*
X148653571Y-71397380D01*
X149463095Y-70492619D02*
X149510714Y-70445000D01*
X149605952Y-70397380D01*
X149844047Y-70397380D01*
X149939285Y-70445000D01*
X149986904Y-70492619D01*
X150034523Y-70587857D01*
X150034523Y-70683095D01*
X149986904Y-70825952D01*
X149415476Y-71397380D01*
X150034523Y-71397380D01*
X140239761Y-64507619D02*
X140144523Y-64460000D01*
X140049285Y-64364761D01*
X139906428Y-64221904D01*
X139811190Y-64174285D01*
X139715952Y-64174285D01*
X139763571Y-64412380D02*
X139668333Y-64364761D01*
X139573095Y-64269523D01*
X139525476Y-64079047D01*
X139525476Y-63745714D01*
X139573095Y-63555238D01*
X139668333Y-63460000D01*
X139763571Y-63412380D01*
X139954047Y-63412380D01*
X140049285Y-63460000D01*
X140144523Y-63555238D01*
X140192142Y-63745714D01*
X140192142Y-64079047D01*
X140144523Y-64269523D01*
X140049285Y-64364761D01*
X139954047Y-64412380D01*
X139763571Y-64412380D01*
X140525476Y-63412380D02*
X141144523Y-63412380D01*
X140811190Y-63793333D01*
X140954047Y-63793333D01*
X141049285Y-63840952D01*
X141096904Y-63888571D01*
X141144523Y-63983809D01*
X141144523Y-64221904D01*
X141096904Y-64317142D01*
X141049285Y-64364761D01*
X140954047Y-64412380D01*
X140668333Y-64412380D01*
X140573095Y-64364761D01*
X140525476Y-64317142D01*
X149129761Y-64507619D02*
X149034523Y-64460000D01*
X148939285Y-64364761D01*
X148796428Y-64221904D01*
X148701190Y-64174285D01*
X148605952Y-64174285D01*
X148653571Y-64412380D02*
X148558333Y-64364761D01*
X148463095Y-64269523D01*
X148415476Y-64079047D01*
X148415476Y-63745714D01*
X148463095Y-63555238D01*
X148558333Y-63460000D01*
X148653571Y-63412380D01*
X148844047Y-63412380D01*
X148939285Y-63460000D01*
X149034523Y-63555238D01*
X149082142Y-63745714D01*
X149082142Y-64079047D01*
X149034523Y-64269523D01*
X148939285Y-64364761D01*
X148844047Y-64412380D01*
X148653571Y-64412380D01*
X149939285Y-63745714D02*
X149939285Y-64412380D01*
X149701190Y-63364761D02*
X149463095Y-64079047D01*
X150082142Y-64079047D01*
X149129761Y-57522619D02*
X149034523Y-57475000D01*
X148939285Y-57379761D01*
X148796428Y-57236904D01*
X148701190Y-57189285D01*
X148605952Y-57189285D01*
X148653571Y-57427380D02*
X148558333Y-57379761D01*
X148463095Y-57284523D01*
X148415476Y-57094047D01*
X148415476Y-56760714D01*
X148463095Y-56570238D01*
X148558333Y-56475000D01*
X148653571Y-56427380D01*
X148844047Y-56427380D01*
X148939285Y-56475000D01*
X149034523Y-56570238D01*
X149082142Y-56760714D01*
X149082142Y-57094047D01*
X149034523Y-57284523D01*
X148939285Y-57379761D01*
X148844047Y-57427380D01*
X148653571Y-57427380D01*
X149986904Y-56427380D02*
X149510714Y-56427380D01*
X149463095Y-56903571D01*
X149510714Y-56855952D01*
X149605952Y-56808333D01*
X149844047Y-56808333D01*
X149939285Y-56855952D01*
X149986904Y-56903571D01*
X150034523Y-56998809D01*
X150034523Y-57236904D01*
X149986904Y-57332142D01*
X149939285Y-57379761D01*
X149844047Y-57427380D01*
X149605952Y-57427380D01*
X149510714Y-57379761D01*
X149463095Y-57332142D01*
X140239761Y-57522619D02*
X140144523Y-57475000D01*
X140049285Y-57379761D01*
X139906428Y-57236904D01*
X139811190Y-57189285D01*
X139715952Y-57189285D01*
X139763571Y-57427380D02*
X139668333Y-57379761D01*
X139573095Y-57284523D01*
X139525476Y-57094047D01*
X139525476Y-56760714D01*
X139573095Y-56570238D01*
X139668333Y-56475000D01*
X139763571Y-56427380D01*
X139954047Y-56427380D01*
X140049285Y-56475000D01*
X140144523Y-56570238D01*
X140192142Y-56760714D01*
X140192142Y-57094047D01*
X140144523Y-57284523D01*
X140049285Y-57379761D01*
X139954047Y-57427380D01*
X139763571Y-57427380D01*
X141049285Y-56427380D02*
X140858809Y-56427380D01*
X140763571Y-56475000D01*
X140715952Y-56522619D01*
X140620714Y-56665476D01*
X140573095Y-56855952D01*
X140573095Y-57236904D01*
X140620714Y-57332142D01*
X140668333Y-57379761D01*
X140763571Y-57427380D01*
X140954047Y-57427380D01*
X141049285Y-57379761D01*
X141096904Y-57332142D01*
X141144523Y-57236904D01*
X141144523Y-56998809D01*
X141096904Y-56903571D01*
X141049285Y-56855952D01*
X140954047Y-56808333D01*
X140763571Y-56808333D01*
X140668333Y-56855952D01*
X140620714Y-56903571D01*
X140573095Y-56998809D01*
X109553333Y-98452380D02*
X109220000Y-97976190D01*
X108981904Y-98452380D02*
X108981904Y-97452380D01*
X109362857Y-97452380D01*
X109458095Y-97500000D01*
X109505714Y-97547619D01*
X109553333Y-97642857D01*
X109553333Y-97785714D01*
X109505714Y-97880952D01*
X109458095Y-97928571D01*
X109362857Y-97976190D01*
X108981904Y-97976190D01*
X110505714Y-98452380D02*
X109934285Y-98452380D01*
X110220000Y-98452380D02*
X110220000Y-97452380D01*
X110124761Y-97595238D01*
X110029523Y-97690476D01*
X109934285Y-97738095D01*
X94338333Y-75702380D02*
X94005000Y-75226190D01*
X93766904Y-75702380D02*
X93766904Y-74702380D01*
X94147857Y-74702380D01*
X94243095Y-74750000D01*
X94290714Y-74797619D01*
X94338333Y-74892857D01*
X94338333Y-75035714D01*
X94290714Y-75130952D01*
X94243095Y-75178571D01*
X94147857Y-75226190D01*
X93766904Y-75226190D01*
X94719285Y-74797619D02*
X94766904Y-74750000D01*
X94862142Y-74702380D01*
X95100238Y-74702380D01*
X95195476Y-74750000D01*
X95243095Y-74797619D01*
X95290714Y-74892857D01*
X95290714Y-74988095D01*
X95243095Y-75130952D01*
X94671666Y-75702380D01*
X95290714Y-75702380D01*
X78573333Y-105692380D02*
X78240000Y-105216190D01*
X78001904Y-105692380D02*
X78001904Y-104692380D01*
X78382857Y-104692380D01*
X78478095Y-104740000D01*
X78525714Y-104787619D01*
X78573333Y-104882857D01*
X78573333Y-105025714D01*
X78525714Y-105120952D01*
X78478095Y-105168571D01*
X78382857Y-105216190D01*
X78001904Y-105216190D01*
X78906666Y-104692380D02*
X79525714Y-104692380D01*
X79192380Y-105073333D01*
X79335238Y-105073333D01*
X79430476Y-105120952D01*
X79478095Y-105168571D01*
X79525714Y-105263809D01*
X79525714Y-105501904D01*
X79478095Y-105597142D01*
X79430476Y-105644761D01*
X79335238Y-105692380D01*
X79049523Y-105692380D01*
X78954285Y-105644761D01*
X78906666Y-105597142D01*
X94338333Y-71017380D02*
X94005000Y-70541190D01*
X93766904Y-71017380D02*
X93766904Y-70017380D01*
X94147857Y-70017380D01*
X94243095Y-70065000D01*
X94290714Y-70112619D01*
X94338333Y-70207857D01*
X94338333Y-70350714D01*
X94290714Y-70445952D01*
X94243095Y-70493571D01*
X94147857Y-70541190D01*
X93766904Y-70541190D01*
X95195476Y-70350714D02*
X95195476Y-71017380D01*
X94957380Y-69969761D02*
X94719285Y-70684047D01*
X95338333Y-70684047D01*
X109433333Y-84482380D02*
X109100000Y-84006190D01*
X108861904Y-84482380D02*
X108861904Y-83482380D01*
X109242857Y-83482380D01*
X109338095Y-83530000D01*
X109385714Y-83577619D01*
X109433333Y-83672857D01*
X109433333Y-83815714D01*
X109385714Y-83910952D01*
X109338095Y-83958571D01*
X109242857Y-84006190D01*
X108861904Y-84006190D01*
X110338095Y-83482380D02*
X109861904Y-83482380D01*
X109814285Y-83958571D01*
X109861904Y-83910952D01*
X109957142Y-83863333D01*
X110195238Y-83863333D01*
X110290476Y-83910952D01*
X110338095Y-83958571D01*
X110385714Y-84053809D01*
X110385714Y-84291904D01*
X110338095Y-84387142D01*
X110290476Y-84434761D01*
X110195238Y-84482380D01*
X109957142Y-84482380D01*
X109861904Y-84434761D01*
X109814285Y-84387142D01*
X109433333Y-79797380D02*
X109100000Y-79321190D01*
X108861904Y-79797380D02*
X108861904Y-78797380D01*
X109242857Y-78797380D01*
X109338095Y-78845000D01*
X109385714Y-78892619D01*
X109433333Y-78987857D01*
X109433333Y-79130714D01*
X109385714Y-79225952D01*
X109338095Y-79273571D01*
X109242857Y-79321190D01*
X108861904Y-79321190D01*
X110290476Y-78797380D02*
X110100000Y-78797380D01*
X110004761Y-78845000D01*
X109957142Y-78892619D01*
X109861904Y-79035476D01*
X109814285Y-79225952D01*
X109814285Y-79606904D01*
X109861904Y-79702142D01*
X109909523Y-79749761D01*
X110004761Y-79797380D01*
X110195238Y-79797380D01*
X110290476Y-79749761D01*
X110338095Y-79702142D01*
X110385714Y-79606904D01*
X110385714Y-79368809D01*
X110338095Y-79273571D01*
X110290476Y-79225952D01*
X110195238Y-79178333D01*
X110004761Y-79178333D01*
X109909523Y-79225952D01*
X109861904Y-79273571D01*
X109814285Y-79368809D01*
X78488333Y-96857380D02*
X78155000Y-96381190D01*
X77916904Y-96857380D02*
X77916904Y-95857380D01*
X78297857Y-95857380D01*
X78393095Y-95905000D01*
X78440714Y-95952619D01*
X78488333Y-96047857D01*
X78488333Y-96190714D01*
X78440714Y-96285952D01*
X78393095Y-96333571D01*
X78297857Y-96381190D01*
X77916904Y-96381190D01*
X78821666Y-95857380D02*
X79488333Y-95857380D01*
X79059761Y-96857380D01*
X109053333Y-75212380D02*
X108720000Y-74736190D01*
X108481904Y-75212380D02*
X108481904Y-74212380D01*
X108862857Y-74212380D01*
X108958095Y-74260000D01*
X109005714Y-74307619D01*
X109053333Y-74402857D01*
X109053333Y-74545714D01*
X109005714Y-74640952D01*
X108958095Y-74688571D01*
X108862857Y-74736190D01*
X108481904Y-74736190D01*
X109624761Y-74640952D02*
X109529523Y-74593333D01*
X109481904Y-74545714D01*
X109434285Y-74450476D01*
X109434285Y-74402857D01*
X109481904Y-74307619D01*
X109529523Y-74260000D01*
X109624761Y-74212380D01*
X109815238Y-74212380D01*
X109910476Y-74260000D01*
X109958095Y-74307619D01*
X110005714Y-74402857D01*
X110005714Y-74450476D01*
X109958095Y-74545714D01*
X109910476Y-74593333D01*
X109815238Y-74640952D01*
X109624761Y-74640952D01*
X109529523Y-74688571D01*
X109481904Y-74736190D01*
X109434285Y-74831428D01*
X109434285Y-75021904D01*
X109481904Y-75117142D01*
X109529523Y-75164761D01*
X109624761Y-75212380D01*
X109815238Y-75212380D01*
X109910476Y-75164761D01*
X109958095Y-75117142D01*
X110005714Y-75021904D01*
X110005714Y-74831428D01*
X109958095Y-74736190D01*
X109910476Y-74688571D01*
X109815238Y-74640952D01*
X94448333Y-89817380D02*
X94115000Y-89341190D01*
X93876904Y-89817380D02*
X93876904Y-88817380D01*
X94257857Y-88817380D01*
X94353095Y-88865000D01*
X94400714Y-88912619D01*
X94448333Y-89007857D01*
X94448333Y-89150714D01*
X94400714Y-89245952D01*
X94353095Y-89293571D01*
X94257857Y-89341190D01*
X93876904Y-89341190D01*
X94924523Y-89817380D02*
X95115000Y-89817380D01*
X95210238Y-89769761D01*
X95257857Y-89722142D01*
X95353095Y-89579285D01*
X95400714Y-89388809D01*
X95400714Y-89007857D01*
X95353095Y-88912619D01*
X95305476Y-88865000D01*
X95210238Y-88817380D01*
X95019761Y-88817380D01*
X94924523Y-88865000D01*
X94876904Y-88912619D01*
X94829285Y-89007857D01*
X94829285Y-89245952D01*
X94876904Y-89341190D01*
X94924523Y-89388809D01*
X95019761Y-89436428D01*
X95210238Y-89436428D01*
X95305476Y-89388809D01*
X95353095Y-89341190D01*
X95400714Y-89245952D01*
X108577142Y-70767380D02*
X108243809Y-70291190D01*
X108005714Y-70767380D02*
X108005714Y-69767380D01*
X108386666Y-69767380D01*
X108481904Y-69815000D01*
X108529523Y-69862619D01*
X108577142Y-69957857D01*
X108577142Y-70100714D01*
X108529523Y-70195952D01*
X108481904Y-70243571D01*
X108386666Y-70291190D01*
X108005714Y-70291190D01*
X109529523Y-70767380D02*
X108958095Y-70767380D01*
X109243809Y-70767380D02*
X109243809Y-69767380D01*
X109148571Y-69910238D01*
X109053333Y-70005476D01*
X108958095Y-70053095D01*
X110148571Y-69767380D02*
X110243809Y-69767380D01*
X110339047Y-69815000D01*
X110386666Y-69862619D01*
X110434285Y-69957857D01*
X110481904Y-70148333D01*
X110481904Y-70386428D01*
X110434285Y-70576904D01*
X110386666Y-70672142D01*
X110339047Y-70719761D01*
X110243809Y-70767380D01*
X110148571Y-70767380D01*
X110053333Y-70719761D01*
X110005714Y-70672142D01*
X109958095Y-70576904D01*
X109910476Y-70386428D01*
X109910476Y-70148333D01*
X109958095Y-69957857D01*
X110005714Y-69862619D01*
X110053333Y-69815000D01*
X110148571Y-69767380D01*
X93862142Y-94402380D02*
X93528809Y-93926190D01*
X93290714Y-94402380D02*
X93290714Y-93402380D01*
X93671666Y-93402380D01*
X93766904Y-93450000D01*
X93814523Y-93497619D01*
X93862142Y-93592857D01*
X93862142Y-93735714D01*
X93814523Y-93830952D01*
X93766904Y-93878571D01*
X93671666Y-93926190D01*
X93290714Y-93926190D01*
X94814523Y-94402380D02*
X94243095Y-94402380D01*
X94528809Y-94402380D02*
X94528809Y-93402380D01*
X94433571Y-93545238D01*
X94338333Y-93640476D01*
X94243095Y-93688095D01*
X95766904Y-94402380D02*
X95195476Y-94402380D01*
X95481190Y-94402380D02*
X95481190Y-93402380D01*
X95385952Y-93545238D01*
X95290714Y-93640476D01*
X95195476Y-93688095D01*
X78012142Y-92172380D02*
X77678809Y-91696190D01*
X77440714Y-92172380D02*
X77440714Y-91172380D01*
X77821666Y-91172380D01*
X77916904Y-91220000D01*
X77964523Y-91267619D01*
X78012142Y-91362857D01*
X78012142Y-91505714D01*
X77964523Y-91600952D01*
X77916904Y-91648571D01*
X77821666Y-91696190D01*
X77440714Y-91696190D01*
X78964523Y-92172380D02*
X78393095Y-92172380D01*
X78678809Y-92172380D02*
X78678809Y-91172380D01*
X78583571Y-91315238D01*
X78488333Y-91410476D01*
X78393095Y-91458095D01*
X79345476Y-91267619D02*
X79393095Y-91220000D01*
X79488333Y-91172380D01*
X79726428Y-91172380D01*
X79821666Y-91220000D01*
X79869285Y-91267619D01*
X79916904Y-91362857D01*
X79916904Y-91458095D01*
X79869285Y-91600952D01*
X79297857Y-92172380D01*
X79916904Y-92172380D01*
X93742142Y-80432380D02*
X93408809Y-79956190D01*
X93170714Y-80432380D02*
X93170714Y-79432380D01*
X93551666Y-79432380D01*
X93646904Y-79480000D01*
X93694523Y-79527619D01*
X93742142Y-79622857D01*
X93742142Y-79765714D01*
X93694523Y-79860952D01*
X93646904Y-79908571D01*
X93551666Y-79956190D01*
X93170714Y-79956190D01*
X94694523Y-80432380D02*
X94123095Y-80432380D01*
X94408809Y-80432380D02*
X94408809Y-79432380D01*
X94313571Y-79575238D01*
X94218333Y-79670476D01*
X94123095Y-79718095D01*
X95027857Y-79432380D02*
X95646904Y-79432380D01*
X95313571Y-79813333D01*
X95456428Y-79813333D01*
X95551666Y-79860952D01*
X95599285Y-79908571D01*
X95646904Y-80003809D01*
X95646904Y-80241904D01*
X95599285Y-80337142D01*
X95551666Y-80384761D01*
X95456428Y-80432380D01*
X95170714Y-80432380D01*
X95075476Y-80384761D01*
X95027857Y-80337142D01*
X93742142Y-85117380D02*
X93408809Y-84641190D01*
X93170714Y-85117380D02*
X93170714Y-84117380D01*
X93551666Y-84117380D01*
X93646904Y-84165000D01*
X93694523Y-84212619D01*
X93742142Y-84307857D01*
X93742142Y-84450714D01*
X93694523Y-84545952D01*
X93646904Y-84593571D01*
X93551666Y-84641190D01*
X93170714Y-84641190D01*
X94694523Y-85117380D02*
X94123095Y-85117380D01*
X94408809Y-85117380D02*
X94408809Y-84117380D01*
X94313571Y-84260238D01*
X94218333Y-84355476D01*
X94123095Y-84403095D01*
X95551666Y-84450714D02*
X95551666Y-85117380D01*
X95313571Y-84069761D02*
X95075476Y-84784047D01*
X95694523Y-84784047D01*
X125087142Y-68227380D02*
X124753809Y-67751190D01*
X124515714Y-68227380D02*
X124515714Y-67227380D01*
X124896666Y-67227380D01*
X124991904Y-67275000D01*
X125039523Y-67322619D01*
X125087142Y-67417857D01*
X125087142Y-67560714D01*
X125039523Y-67655952D01*
X124991904Y-67703571D01*
X124896666Y-67751190D01*
X124515714Y-67751190D01*
X126039523Y-68227380D02*
X125468095Y-68227380D01*
X125753809Y-68227380D02*
X125753809Y-67227380D01*
X125658571Y-67370238D01*
X125563333Y-67465476D01*
X125468095Y-67513095D01*
X126944285Y-67227380D02*
X126468095Y-67227380D01*
X126420476Y-67703571D01*
X126468095Y-67655952D01*
X126563333Y-67608333D01*
X126801428Y-67608333D01*
X126896666Y-67655952D01*
X126944285Y-67703571D01*
X126991904Y-67798809D01*
X126991904Y-68036904D01*
X126944285Y-68132142D01*
X126896666Y-68179761D01*
X126801428Y-68227380D01*
X126563333Y-68227380D01*
X126468095Y-68179761D01*
X126420476Y-68132142D01*
X124927142Y-89717380D02*
X124593809Y-89241190D01*
X124355714Y-89717380D02*
X124355714Y-88717380D01*
X124736666Y-88717380D01*
X124831904Y-88765000D01*
X124879523Y-88812619D01*
X124927142Y-88907857D01*
X124927142Y-89050714D01*
X124879523Y-89145952D01*
X124831904Y-89193571D01*
X124736666Y-89241190D01*
X124355714Y-89241190D01*
X125879523Y-89717380D02*
X125308095Y-89717380D01*
X125593809Y-89717380D02*
X125593809Y-88717380D01*
X125498571Y-88860238D01*
X125403333Y-88955476D01*
X125308095Y-89003095D01*
X126736666Y-88717380D02*
X126546190Y-88717380D01*
X126450952Y-88765000D01*
X126403333Y-88812619D01*
X126308095Y-88955476D01*
X126260476Y-89145952D01*
X126260476Y-89526904D01*
X126308095Y-89622142D01*
X126355714Y-89669761D01*
X126450952Y-89717380D01*
X126641428Y-89717380D01*
X126736666Y-89669761D01*
X126784285Y-89622142D01*
X126831904Y-89526904D01*
X126831904Y-89288809D01*
X126784285Y-89193571D01*
X126736666Y-89145952D01*
X126641428Y-89098333D01*
X126450952Y-89098333D01*
X126355714Y-89145952D01*
X126308095Y-89193571D01*
X126260476Y-89288809D01*
X93862142Y-99087380D02*
X93528809Y-98611190D01*
X93290714Y-99087380D02*
X93290714Y-98087380D01*
X93671666Y-98087380D01*
X93766904Y-98135000D01*
X93814523Y-98182619D01*
X93862142Y-98277857D01*
X93862142Y-98420714D01*
X93814523Y-98515952D01*
X93766904Y-98563571D01*
X93671666Y-98611190D01*
X93290714Y-98611190D01*
X94814523Y-99087380D02*
X94243095Y-99087380D01*
X94528809Y-99087380D02*
X94528809Y-98087380D01*
X94433571Y-98230238D01*
X94338333Y-98325476D01*
X94243095Y-98373095D01*
X95147857Y-98087380D02*
X95814523Y-98087380D01*
X95385952Y-99087380D01*
X78097142Y-76482380D02*
X77763809Y-76006190D01*
X77525714Y-76482380D02*
X77525714Y-75482380D01*
X77906666Y-75482380D01*
X78001904Y-75530000D01*
X78049523Y-75577619D01*
X78097142Y-75672857D01*
X78097142Y-75815714D01*
X78049523Y-75910952D01*
X78001904Y-75958571D01*
X77906666Y-76006190D01*
X77525714Y-76006190D01*
X79049523Y-76482380D02*
X78478095Y-76482380D01*
X78763809Y-76482380D02*
X78763809Y-75482380D01*
X78668571Y-75625238D01*
X78573333Y-75720476D01*
X78478095Y-75768095D01*
X79620952Y-75910952D02*
X79525714Y-75863333D01*
X79478095Y-75815714D01*
X79430476Y-75720476D01*
X79430476Y-75672857D01*
X79478095Y-75577619D01*
X79525714Y-75530000D01*
X79620952Y-75482380D01*
X79811428Y-75482380D01*
X79906666Y-75530000D01*
X79954285Y-75577619D01*
X80001904Y-75672857D01*
X80001904Y-75720476D01*
X79954285Y-75815714D01*
X79906666Y-75863333D01*
X79811428Y-75910952D01*
X79620952Y-75910952D01*
X79525714Y-75958571D01*
X79478095Y-76006190D01*
X79430476Y-76101428D01*
X79430476Y-76291904D01*
X79478095Y-76387142D01*
X79525714Y-76434761D01*
X79620952Y-76482380D01*
X79811428Y-76482380D01*
X79906666Y-76434761D01*
X79954285Y-76387142D01*
X80001904Y-76291904D01*
X80001904Y-76101428D01*
X79954285Y-76006190D01*
X79906666Y-75958571D01*
X79811428Y-75910952D01*
X109077142Y-89082380D02*
X108743809Y-88606190D01*
X108505714Y-89082380D02*
X108505714Y-88082380D01*
X108886666Y-88082380D01*
X108981904Y-88130000D01*
X109029523Y-88177619D01*
X109077142Y-88272857D01*
X109077142Y-88415714D01*
X109029523Y-88510952D01*
X108981904Y-88558571D01*
X108886666Y-88606190D01*
X108505714Y-88606190D01*
X110029523Y-89082380D02*
X109458095Y-89082380D01*
X109743809Y-89082380D02*
X109743809Y-88082380D01*
X109648571Y-88225238D01*
X109553333Y-88320476D01*
X109458095Y-88368095D01*
X110505714Y-89082380D02*
X110696190Y-89082380D01*
X110791428Y-89034761D01*
X110839047Y-88987142D01*
X110934285Y-88844285D01*
X110981904Y-88653809D01*
X110981904Y-88272857D01*
X110934285Y-88177619D01*
X110886666Y-88130000D01*
X110791428Y-88082380D01*
X110600952Y-88082380D01*
X110505714Y-88130000D01*
X110458095Y-88177619D01*
X110410476Y-88272857D01*
X110410476Y-88510952D01*
X110458095Y-88606190D01*
X110505714Y-88653809D01*
X110600952Y-88701428D01*
X110791428Y-88701428D01*
X110886666Y-88653809D01*
X110934285Y-88606190D01*
X110981904Y-88510952D01*
X78097142Y-81562380D02*
X77763809Y-81086190D01*
X77525714Y-81562380D02*
X77525714Y-80562380D01*
X77906666Y-80562380D01*
X78001904Y-80610000D01*
X78049523Y-80657619D01*
X78097142Y-80752857D01*
X78097142Y-80895714D01*
X78049523Y-80990952D01*
X78001904Y-81038571D01*
X77906666Y-81086190D01*
X77525714Y-81086190D01*
X78478095Y-80657619D02*
X78525714Y-80610000D01*
X78620952Y-80562380D01*
X78859047Y-80562380D01*
X78954285Y-80610000D01*
X79001904Y-80657619D01*
X79049523Y-80752857D01*
X79049523Y-80848095D01*
X79001904Y-80990952D01*
X78430476Y-81562380D01*
X79049523Y-81562380D01*
X79668571Y-80562380D02*
X79763809Y-80562380D01*
X79859047Y-80610000D01*
X79906666Y-80657619D01*
X79954285Y-80752857D01*
X80001904Y-80943333D01*
X80001904Y-81181428D01*
X79954285Y-81371904D01*
X79906666Y-81467142D01*
X79859047Y-81514761D01*
X79763809Y-81562380D01*
X79668571Y-81562380D01*
X79573333Y-81514761D01*
X79525714Y-81467142D01*
X79478095Y-81371904D01*
X79430476Y-81181428D01*
X79430476Y-80943333D01*
X79478095Y-80752857D01*
X79525714Y-80657619D01*
X79573333Y-80610000D01*
X79668571Y-80562380D01*
X93862142Y-104407380D02*
X93528809Y-103931190D01*
X93290714Y-104407380D02*
X93290714Y-103407380D01*
X93671666Y-103407380D01*
X93766904Y-103455000D01*
X93814523Y-103502619D01*
X93862142Y-103597857D01*
X93862142Y-103740714D01*
X93814523Y-103835952D01*
X93766904Y-103883571D01*
X93671666Y-103931190D01*
X93290714Y-103931190D01*
X94243095Y-103502619D02*
X94290714Y-103455000D01*
X94385952Y-103407380D01*
X94624047Y-103407380D01*
X94719285Y-103455000D01*
X94766904Y-103502619D01*
X94814523Y-103597857D01*
X94814523Y-103693095D01*
X94766904Y-103835952D01*
X94195476Y-104407380D01*
X94814523Y-104407380D01*
X95766904Y-104407380D02*
X95195476Y-104407380D01*
X95481190Y-104407380D02*
X95481190Y-103407380D01*
X95385952Y-103550238D01*
X95290714Y-103645476D01*
X95195476Y-103693095D01*
X109077142Y-93767380D02*
X108743809Y-93291190D01*
X108505714Y-93767380D02*
X108505714Y-92767380D01*
X108886666Y-92767380D01*
X108981904Y-92815000D01*
X109029523Y-92862619D01*
X109077142Y-92957857D01*
X109077142Y-93100714D01*
X109029523Y-93195952D01*
X108981904Y-93243571D01*
X108886666Y-93291190D01*
X108505714Y-93291190D01*
X109458095Y-92862619D02*
X109505714Y-92815000D01*
X109600952Y-92767380D01*
X109839047Y-92767380D01*
X109934285Y-92815000D01*
X109981904Y-92862619D01*
X110029523Y-92957857D01*
X110029523Y-93053095D01*
X109981904Y-93195952D01*
X109410476Y-93767380D01*
X110029523Y-93767380D01*
X110410476Y-92862619D02*
X110458095Y-92815000D01*
X110553333Y-92767380D01*
X110791428Y-92767380D01*
X110886666Y-92815000D01*
X110934285Y-92862619D01*
X110981904Y-92957857D01*
X110981904Y-93053095D01*
X110934285Y-93195952D01*
X110362857Y-93767380D01*
X110981904Y-93767380D01*
X77462142Y-71402380D02*
X77128809Y-70926190D01*
X76890714Y-71402380D02*
X76890714Y-70402380D01*
X77271666Y-70402380D01*
X77366904Y-70450000D01*
X77414523Y-70497619D01*
X77462142Y-70592857D01*
X77462142Y-70735714D01*
X77414523Y-70830952D01*
X77366904Y-70878571D01*
X77271666Y-70926190D01*
X76890714Y-70926190D01*
X77843095Y-70497619D02*
X77890714Y-70450000D01*
X77985952Y-70402380D01*
X78224047Y-70402380D01*
X78319285Y-70450000D01*
X78366904Y-70497619D01*
X78414523Y-70592857D01*
X78414523Y-70688095D01*
X78366904Y-70830952D01*
X77795476Y-71402380D01*
X78414523Y-71402380D01*
X78747857Y-70402380D02*
X79366904Y-70402380D01*
X79033571Y-70783333D01*
X79176428Y-70783333D01*
X79271666Y-70830952D01*
X79319285Y-70878571D01*
X79366904Y-70973809D01*
X79366904Y-71211904D01*
X79319285Y-71307142D01*
X79271666Y-71354761D01*
X79176428Y-71402380D01*
X78890714Y-71402380D01*
X78795476Y-71354761D01*
X78747857Y-71307142D01*
X124807142Y-79162380D02*
X124473809Y-78686190D01*
X124235714Y-79162380D02*
X124235714Y-78162380D01*
X124616666Y-78162380D01*
X124711904Y-78210000D01*
X124759523Y-78257619D01*
X124807142Y-78352857D01*
X124807142Y-78495714D01*
X124759523Y-78590952D01*
X124711904Y-78638571D01*
X124616666Y-78686190D01*
X124235714Y-78686190D01*
X125188095Y-78257619D02*
X125235714Y-78210000D01*
X125330952Y-78162380D01*
X125569047Y-78162380D01*
X125664285Y-78210000D01*
X125711904Y-78257619D01*
X125759523Y-78352857D01*
X125759523Y-78448095D01*
X125711904Y-78590952D01*
X125140476Y-79162380D01*
X125759523Y-79162380D01*
X126616666Y-78495714D02*
X126616666Y-79162380D01*
X126378571Y-78114761D02*
X126140476Y-78829047D01*
X126759523Y-78829047D01*
X78012142Y-100907380D02*
X77678809Y-100431190D01*
X77440714Y-100907380D02*
X77440714Y-99907380D01*
X77821666Y-99907380D01*
X77916904Y-99955000D01*
X77964523Y-100002619D01*
X78012142Y-100097857D01*
X78012142Y-100240714D01*
X77964523Y-100335952D01*
X77916904Y-100383571D01*
X77821666Y-100431190D01*
X77440714Y-100431190D01*
X78393095Y-100002619D02*
X78440714Y-99955000D01*
X78535952Y-99907380D01*
X78774047Y-99907380D01*
X78869285Y-99955000D01*
X78916904Y-100002619D01*
X78964523Y-100097857D01*
X78964523Y-100193095D01*
X78916904Y-100335952D01*
X78345476Y-100907380D01*
X78964523Y-100907380D01*
X79869285Y-99907380D02*
X79393095Y-99907380D01*
X79345476Y-100383571D01*
X79393095Y-100335952D01*
X79488333Y-100288333D01*
X79726428Y-100288333D01*
X79821666Y-100335952D01*
X79869285Y-100383571D01*
X79916904Y-100478809D01*
X79916904Y-100716904D01*
X79869285Y-100812142D01*
X79821666Y-100859761D01*
X79726428Y-100907380D01*
X79488333Y-100907380D01*
X79393095Y-100859761D01*
X79345476Y-100812142D01*
X124927142Y-94402380D02*
X124593809Y-93926190D01*
X124355714Y-94402380D02*
X124355714Y-93402380D01*
X124736666Y-93402380D01*
X124831904Y-93450000D01*
X124879523Y-93497619D01*
X124927142Y-93592857D01*
X124927142Y-93735714D01*
X124879523Y-93830952D01*
X124831904Y-93878571D01*
X124736666Y-93926190D01*
X124355714Y-93926190D01*
X125308095Y-93497619D02*
X125355714Y-93450000D01*
X125450952Y-93402380D01*
X125689047Y-93402380D01*
X125784285Y-93450000D01*
X125831904Y-93497619D01*
X125879523Y-93592857D01*
X125879523Y-93688095D01*
X125831904Y-93830952D01*
X125260476Y-94402380D01*
X125879523Y-94402380D01*
X126736666Y-93402380D02*
X126546190Y-93402380D01*
X126450952Y-93450000D01*
X126403333Y-93497619D01*
X126308095Y-93640476D01*
X126260476Y-93830952D01*
X126260476Y-94211904D01*
X126308095Y-94307142D01*
X126355714Y-94354761D01*
X126450952Y-94402380D01*
X126641428Y-94402380D01*
X126736666Y-94354761D01*
X126784285Y-94307142D01*
X126831904Y-94211904D01*
X126831904Y-93973809D01*
X126784285Y-93878571D01*
X126736666Y-93830952D01*
X126641428Y-93783333D01*
X126450952Y-93783333D01*
X126355714Y-93830952D01*
X126308095Y-93878571D01*
X126260476Y-93973809D01*
X109077142Y-103137380D02*
X108743809Y-102661190D01*
X108505714Y-103137380D02*
X108505714Y-102137380D01*
X108886666Y-102137380D01*
X108981904Y-102185000D01*
X109029523Y-102232619D01*
X109077142Y-102327857D01*
X109077142Y-102470714D01*
X109029523Y-102565952D01*
X108981904Y-102613571D01*
X108886666Y-102661190D01*
X108505714Y-102661190D01*
X109458095Y-102232619D02*
X109505714Y-102185000D01*
X109600952Y-102137380D01*
X109839047Y-102137380D01*
X109934285Y-102185000D01*
X109981904Y-102232619D01*
X110029523Y-102327857D01*
X110029523Y-102423095D01*
X109981904Y-102565952D01*
X109410476Y-103137380D01*
X110029523Y-103137380D01*
X110362857Y-102137380D02*
X111029523Y-102137380D01*
X110600952Y-103137380D01*
X125087142Y-73307380D02*
X124753809Y-72831190D01*
X124515714Y-73307380D02*
X124515714Y-72307380D01*
X124896666Y-72307380D01*
X124991904Y-72355000D01*
X125039523Y-72402619D01*
X125087142Y-72497857D01*
X125087142Y-72640714D01*
X125039523Y-72735952D01*
X124991904Y-72783571D01*
X124896666Y-72831190D01*
X124515714Y-72831190D01*
X125468095Y-72402619D02*
X125515714Y-72355000D01*
X125610952Y-72307380D01*
X125849047Y-72307380D01*
X125944285Y-72355000D01*
X125991904Y-72402619D01*
X126039523Y-72497857D01*
X126039523Y-72593095D01*
X125991904Y-72735952D01*
X125420476Y-73307380D01*
X126039523Y-73307380D01*
X126610952Y-72735952D02*
X126515714Y-72688333D01*
X126468095Y-72640714D01*
X126420476Y-72545476D01*
X126420476Y-72497857D01*
X126468095Y-72402619D01*
X126515714Y-72355000D01*
X126610952Y-72307380D01*
X126801428Y-72307380D01*
X126896666Y-72355000D01*
X126944285Y-72402619D01*
X126991904Y-72497857D01*
X126991904Y-72545476D01*
X126944285Y-72640714D01*
X126896666Y-72688333D01*
X126801428Y-72735952D01*
X126610952Y-72735952D01*
X126515714Y-72783571D01*
X126468095Y-72831190D01*
X126420476Y-72926428D01*
X126420476Y-73116904D01*
X126468095Y-73212142D01*
X126515714Y-73259761D01*
X126610952Y-73307380D01*
X126801428Y-73307380D01*
X126896666Y-73259761D01*
X126944285Y-73212142D01*
X126991904Y-73116904D01*
X126991904Y-72926428D01*
X126944285Y-72831190D01*
X126896666Y-72783571D01*
X126801428Y-72735952D01*
X124807142Y-84482380D02*
X124473809Y-84006190D01*
X124235714Y-84482380D02*
X124235714Y-83482380D01*
X124616666Y-83482380D01*
X124711904Y-83530000D01*
X124759523Y-83577619D01*
X124807142Y-83672857D01*
X124807142Y-83815714D01*
X124759523Y-83910952D01*
X124711904Y-83958571D01*
X124616666Y-84006190D01*
X124235714Y-84006190D01*
X125188095Y-83577619D02*
X125235714Y-83530000D01*
X125330952Y-83482380D01*
X125569047Y-83482380D01*
X125664285Y-83530000D01*
X125711904Y-83577619D01*
X125759523Y-83672857D01*
X125759523Y-83768095D01*
X125711904Y-83910952D01*
X125140476Y-84482380D01*
X125759523Y-84482380D01*
X126235714Y-84482380D02*
X126426190Y-84482380D01*
X126521428Y-84434761D01*
X126569047Y-84387142D01*
X126664285Y-84244285D01*
X126711904Y-84053809D01*
X126711904Y-83672857D01*
X126664285Y-83577619D01*
X126616666Y-83530000D01*
X126521428Y-83482380D01*
X126330952Y-83482380D01*
X126235714Y-83530000D01*
X126188095Y-83577619D01*
X126140476Y-83672857D01*
X126140476Y-83910952D01*
X126188095Y-84006190D01*
X126235714Y-84053809D01*
X126330952Y-84101428D01*
X126521428Y-84101428D01*
X126616666Y-84053809D01*
X126664285Y-84006190D01*
X126711904Y-83910952D01*
X108907142Y-108232380D02*
X108573809Y-107756190D01*
X108335714Y-108232380D02*
X108335714Y-107232380D01*
X108716666Y-107232380D01*
X108811904Y-107280000D01*
X108859523Y-107327619D01*
X108907142Y-107422857D01*
X108907142Y-107565714D01*
X108859523Y-107660952D01*
X108811904Y-107708571D01*
X108716666Y-107756190D01*
X108335714Y-107756190D01*
X109240476Y-107232380D02*
X109859523Y-107232380D01*
X109526190Y-107613333D01*
X109669047Y-107613333D01*
X109764285Y-107660952D01*
X109811904Y-107708571D01*
X109859523Y-107803809D01*
X109859523Y-108041904D01*
X109811904Y-108137142D01*
X109764285Y-108184761D01*
X109669047Y-108232380D01*
X109383333Y-108232380D01*
X109288095Y-108184761D01*
X109240476Y-108137142D01*
X110478571Y-107232380D02*
X110573809Y-107232380D01*
X110669047Y-107280000D01*
X110716666Y-107327619D01*
X110764285Y-107422857D01*
X110811904Y-107613333D01*
X110811904Y-107851428D01*
X110764285Y-108041904D01*
X110716666Y-108137142D01*
X110669047Y-108184761D01*
X110573809Y-108232380D01*
X110478571Y-108232380D01*
X110383333Y-108184761D01*
X110335714Y-108137142D01*
X110288095Y-108041904D01*
X110240476Y-107851428D01*
X110240476Y-107613333D01*
X110288095Y-107422857D01*
X110335714Y-107327619D01*
X110383333Y-107280000D01*
X110478571Y-107232380D01*
X124927142Y-99087380D02*
X124593809Y-98611190D01*
X124355714Y-99087380D02*
X124355714Y-98087380D01*
X124736666Y-98087380D01*
X124831904Y-98135000D01*
X124879523Y-98182619D01*
X124927142Y-98277857D01*
X124927142Y-98420714D01*
X124879523Y-98515952D01*
X124831904Y-98563571D01*
X124736666Y-98611190D01*
X124355714Y-98611190D01*
X125260476Y-98087380D02*
X125879523Y-98087380D01*
X125546190Y-98468333D01*
X125689047Y-98468333D01*
X125784285Y-98515952D01*
X125831904Y-98563571D01*
X125879523Y-98658809D01*
X125879523Y-98896904D01*
X125831904Y-98992142D01*
X125784285Y-99039761D01*
X125689047Y-99087380D01*
X125403333Y-99087380D01*
X125308095Y-99039761D01*
X125260476Y-98992142D01*
X126831904Y-99087380D02*
X126260476Y-99087380D01*
X126546190Y-99087380D02*
X126546190Y-98087380D01*
X126450952Y-98230238D01*
X126355714Y-98325476D01*
X126260476Y-98373095D01*
X124927142Y-103772380D02*
X124593809Y-103296190D01*
X124355714Y-103772380D02*
X124355714Y-102772380D01*
X124736666Y-102772380D01*
X124831904Y-102820000D01*
X124879523Y-102867619D01*
X124927142Y-102962857D01*
X124927142Y-103105714D01*
X124879523Y-103200952D01*
X124831904Y-103248571D01*
X124736666Y-103296190D01*
X124355714Y-103296190D01*
X125260476Y-102772380D02*
X125879523Y-102772380D01*
X125546190Y-103153333D01*
X125689047Y-103153333D01*
X125784285Y-103200952D01*
X125831904Y-103248571D01*
X125879523Y-103343809D01*
X125879523Y-103581904D01*
X125831904Y-103677142D01*
X125784285Y-103724761D01*
X125689047Y-103772380D01*
X125403333Y-103772380D01*
X125308095Y-103724761D01*
X125260476Y-103677142D01*
X126260476Y-102867619D02*
X126308095Y-102820000D01*
X126403333Y-102772380D01*
X126641428Y-102772380D01*
X126736666Y-102820000D01*
X126784285Y-102867619D01*
X126831904Y-102962857D01*
X126831904Y-103058095D01*
X126784285Y-103200952D01*
X126212857Y-103772380D01*
X126831904Y-103772380D01*
X124757142Y-108867380D02*
X124423809Y-108391190D01*
X124185714Y-108867380D02*
X124185714Y-107867380D01*
X124566666Y-107867380D01*
X124661904Y-107915000D01*
X124709523Y-107962619D01*
X124757142Y-108057857D01*
X124757142Y-108200714D01*
X124709523Y-108295952D01*
X124661904Y-108343571D01*
X124566666Y-108391190D01*
X124185714Y-108391190D01*
X125090476Y-107867380D02*
X125709523Y-107867380D01*
X125376190Y-108248333D01*
X125519047Y-108248333D01*
X125614285Y-108295952D01*
X125661904Y-108343571D01*
X125709523Y-108438809D01*
X125709523Y-108676904D01*
X125661904Y-108772142D01*
X125614285Y-108819761D01*
X125519047Y-108867380D01*
X125233333Y-108867380D01*
X125138095Y-108819761D01*
X125090476Y-108772142D01*
X126042857Y-107867380D02*
X126661904Y-107867380D01*
X126328571Y-108248333D01*
X126471428Y-108248333D01*
X126566666Y-108295952D01*
X126614285Y-108343571D01*
X126661904Y-108438809D01*
X126661904Y-108676904D01*
X126614285Y-108772142D01*
X126566666Y-108819761D01*
X126471428Y-108867380D01*
X126185714Y-108867380D01*
X126090476Y-108819761D01*
X126042857Y-108772142D01*
X78062142Y-86412380D02*
X77728809Y-85936190D01*
X77490714Y-86412380D02*
X77490714Y-85412380D01*
X77871666Y-85412380D01*
X77966904Y-85460000D01*
X78014523Y-85507619D01*
X78062142Y-85602857D01*
X78062142Y-85745714D01*
X78014523Y-85840952D01*
X77966904Y-85888571D01*
X77871666Y-85936190D01*
X77490714Y-85936190D01*
X78395476Y-85412380D02*
X79014523Y-85412380D01*
X78681190Y-85793333D01*
X78824047Y-85793333D01*
X78919285Y-85840952D01*
X78966904Y-85888571D01*
X79014523Y-85983809D01*
X79014523Y-86221904D01*
X78966904Y-86317142D01*
X78919285Y-86364761D01*
X78824047Y-86412380D01*
X78538333Y-86412380D01*
X78443095Y-86364761D01*
X78395476Y-86317142D01*
X79871666Y-85745714D02*
X79871666Y-86412380D01*
X79633571Y-85364761D02*
X79395476Y-86079047D01*
X80014523Y-86079047D01*
X117349761Y-58878333D02*
X117397380Y-58735476D01*
X117397380Y-58497380D01*
X117349761Y-58402142D01*
X117302142Y-58354523D01*
X117206904Y-58306904D01*
X117111666Y-58306904D01*
X117016428Y-58354523D01*
X116968809Y-58402142D01*
X116921190Y-58497380D01*
X116873571Y-58687857D01*
X116825952Y-58783095D01*
X116778333Y-58830714D01*
X116683095Y-58878333D01*
X116587857Y-58878333D01*
X116492619Y-58830714D01*
X116445000Y-58783095D01*
X116397380Y-58687857D01*
X116397380Y-58449761D01*
X116445000Y-58306904D01*
X116397380Y-57973571D02*
X117397380Y-57735476D01*
X116683095Y-57545000D01*
X117397380Y-57354523D01*
X116397380Y-57116428D01*
X117397380Y-56211666D02*
X117397380Y-56783095D01*
X117397380Y-56497380D02*
X116397380Y-56497380D01*
X116540238Y-56592619D01*
X116635476Y-56687857D01*
X116683095Y-56783095D01*
X117349761Y-42113333D02*
X117397380Y-41970476D01*
X117397380Y-41732380D01*
X117349761Y-41637142D01*
X117302142Y-41589523D01*
X117206904Y-41541904D01*
X117111666Y-41541904D01*
X117016428Y-41589523D01*
X116968809Y-41637142D01*
X116921190Y-41732380D01*
X116873571Y-41922857D01*
X116825952Y-42018095D01*
X116778333Y-42065714D01*
X116683095Y-42113333D01*
X116587857Y-42113333D01*
X116492619Y-42065714D01*
X116445000Y-42018095D01*
X116397380Y-41922857D01*
X116397380Y-41684761D01*
X116445000Y-41541904D01*
X116397380Y-41208571D02*
X117397380Y-40970476D01*
X116683095Y-40780000D01*
X117397380Y-40589523D01*
X116397380Y-40351428D01*
X116492619Y-40018095D02*
X116445000Y-39970476D01*
X116397380Y-39875238D01*
X116397380Y-39637142D01*
X116445000Y-39541904D01*
X116492619Y-39494285D01*
X116587857Y-39446666D01*
X116683095Y-39446666D01*
X116825952Y-39494285D01*
X117397380Y-40065714D01*
X117397380Y-39446666D01*
X80187761Y-68706333D02*
X80235380Y-68563476D01*
X80235380Y-68325380D01*
X80187761Y-68230142D01*
X80140142Y-68182523D01*
X80044904Y-68134904D01*
X79949666Y-68134904D01*
X79854428Y-68182523D01*
X79806809Y-68230142D01*
X79759190Y-68325380D01*
X79711571Y-68515857D01*
X79663952Y-68611095D01*
X79616333Y-68658714D01*
X79521095Y-68706333D01*
X79425857Y-68706333D01*
X79330619Y-68658714D01*
X79283000Y-68611095D01*
X79235380Y-68515857D01*
X79235380Y-68277761D01*
X79283000Y-68134904D01*
X79235380Y-67801571D02*
X80235380Y-67563476D01*
X79521095Y-67373000D01*
X80235380Y-67182523D01*
X79235380Y-66944428D01*
X79235380Y-66658714D02*
X79235380Y-66039666D01*
X79616333Y-66373000D01*
X79616333Y-66230142D01*
X79663952Y-66134904D01*
X79711571Y-66087285D01*
X79806809Y-66039666D01*
X80044904Y-66039666D01*
X80140142Y-66087285D01*
X80187761Y-66134904D01*
X80235380Y-66230142D01*
X80235380Y-66515857D01*
X80187761Y-66611095D01*
X80140142Y-66658714D01*
X107189761Y-58623333D02*
X107237380Y-58480476D01*
X107237380Y-58242380D01*
X107189761Y-58147142D01*
X107142142Y-58099523D01*
X107046904Y-58051904D01*
X106951666Y-58051904D01*
X106856428Y-58099523D01*
X106808809Y-58147142D01*
X106761190Y-58242380D01*
X106713571Y-58432857D01*
X106665952Y-58528095D01*
X106618333Y-58575714D01*
X106523095Y-58623333D01*
X106427857Y-58623333D01*
X106332619Y-58575714D01*
X106285000Y-58528095D01*
X106237380Y-58432857D01*
X106237380Y-58194761D01*
X106285000Y-58051904D01*
X106237380Y-57718571D02*
X107237380Y-57480476D01*
X106523095Y-57290000D01*
X107237380Y-57099523D01*
X106237380Y-56861428D01*
X106570714Y-56051904D02*
X107237380Y-56051904D01*
X106189761Y-56290000D02*
X106904047Y-56528095D01*
X106904047Y-55909047D01*
X107189761Y-42493333D02*
X107237380Y-42350476D01*
X107237380Y-42112380D01*
X107189761Y-42017142D01*
X107142142Y-41969523D01*
X107046904Y-41921904D01*
X106951666Y-41921904D01*
X106856428Y-41969523D01*
X106808809Y-42017142D01*
X106761190Y-42112380D01*
X106713571Y-42302857D01*
X106665952Y-42398095D01*
X106618333Y-42445714D01*
X106523095Y-42493333D01*
X106427857Y-42493333D01*
X106332619Y-42445714D01*
X106285000Y-42398095D01*
X106237380Y-42302857D01*
X106237380Y-42064761D01*
X106285000Y-41921904D01*
X106237380Y-41588571D02*
X107237380Y-41350476D01*
X106523095Y-41160000D01*
X107237380Y-40969523D01*
X106237380Y-40731428D01*
X106237380Y-39874285D02*
X106237380Y-40350476D01*
X106713571Y-40398095D01*
X106665952Y-40350476D01*
X106618333Y-40255238D01*
X106618333Y-40017142D01*
X106665952Y-39921904D01*
X106713571Y-39874285D01*
X106808809Y-39826666D01*
X107046904Y-39826666D01*
X107142142Y-39874285D01*
X107189761Y-39921904D01*
X107237380Y-40017142D01*
X107237380Y-40255238D01*
X107189761Y-40350476D01*
X107142142Y-40398095D01*
X97664761Y-58878333D02*
X97712380Y-58735476D01*
X97712380Y-58497380D01*
X97664761Y-58402142D01*
X97617142Y-58354523D01*
X97521904Y-58306904D01*
X97426666Y-58306904D01*
X97331428Y-58354523D01*
X97283809Y-58402142D01*
X97236190Y-58497380D01*
X97188571Y-58687857D01*
X97140952Y-58783095D01*
X97093333Y-58830714D01*
X96998095Y-58878333D01*
X96902857Y-58878333D01*
X96807619Y-58830714D01*
X96760000Y-58783095D01*
X96712380Y-58687857D01*
X96712380Y-58449761D01*
X96760000Y-58306904D01*
X96712380Y-57973571D02*
X97712380Y-57735476D01*
X96998095Y-57545000D01*
X97712380Y-57354523D01*
X96712380Y-57116428D01*
X96712380Y-56306904D02*
X96712380Y-56497380D01*
X96760000Y-56592619D01*
X96807619Y-56640238D01*
X96950476Y-56735476D01*
X97140952Y-56783095D01*
X97521904Y-56783095D01*
X97617142Y-56735476D01*
X97664761Y-56687857D01*
X97712380Y-56592619D01*
X97712380Y-56402142D01*
X97664761Y-56306904D01*
X97617142Y-56259285D01*
X97521904Y-56211666D01*
X97283809Y-56211666D01*
X97188571Y-56259285D01*
X97140952Y-56306904D01*
X97093333Y-56402142D01*
X97093333Y-56592619D01*
X97140952Y-56687857D01*
X97188571Y-56735476D01*
X97283809Y-56783095D01*
X97449761Y-42473333D02*
X97497380Y-42330476D01*
X97497380Y-42092380D01*
X97449761Y-41997142D01*
X97402142Y-41949523D01*
X97306904Y-41901904D01*
X97211666Y-41901904D01*
X97116428Y-41949523D01*
X97068809Y-41997142D01*
X97021190Y-42092380D01*
X96973571Y-42282857D01*
X96925952Y-42378095D01*
X96878333Y-42425714D01*
X96783095Y-42473333D01*
X96687857Y-42473333D01*
X96592619Y-42425714D01*
X96545000Y-42378095D01*
X96497380Y-42282857D01*
X96497380Y-42044761D01*
X96545000Y-41901904D01*
X96497380Y-41568571D02*
X97497380Y-41330476D01*
X96783095Y-41140000D01*
X97497380Y-40949523D01*
X96497380Y-40711428D01*
X96497380Y-40425714D02*
X96497380Y-39759047D01*
X97497380Y-40187619D01*
X78853095Y-34397380D02*
X78853095Y-35206904D01*
X78900714Y-35302142D01*
X78948333Y-35349761D01*
X79043571Y-35397380D01*
X79234047Y-35397380D01*
X79329285Y-35349761D01*
X79376904Y-35302142D01*
X79424523Y-35206904D01*
X79424523Y-34397380D01*
X80424523Y-35397380D02*
X79853095Y-35397380D01*
X80138809Y-35397380D02*
X80138809Y-34397380D01*
X80043571Y-34540238D01*
X79948333Y-34635476D01*
X79853095Y-34683095D01*
M02*
