M48
; DRILL file {KiCad (5.1.5)-3} date 1/23/2020 5:34:17 PM
; FORMAT={-:-/ absolute / inch / decimal}
; #@! TF.CreationDate,2020-01-23T17:34:17-05:00
; #@! TF.GenerationSoftware,Kicad,Pcbnew,(5.1.5)-3
; #@! TF.FileFunction,Plated,1,2,PTH
FMAT,2
INCH
T1C0.0157
T2C0.0217
T3C0.0315
T4C0.0394
T5C0.0433
T6C0.0728
%
G90
G05
T1
X3.64Y-2.7392
X3.9047Y-2.8534
X3.9065Y-2.9381
X4.1109Y-1.276
X4.2694Y-2.2771
X4.3239Y-3.1756
X4.4056Y-3.014
T2
X3.9959Y-3.3246
X3.9959Y-3.3746
X3.9959Y-3.4246
X2.7406Y-3.3343
X2.7406Y-3.3843
X2.7406Y-3.4343
X2.745Y-2.915
X2.745Y-2.965
X2.745Y-3.015
X3.6822Y-2.9099
X3.6822Y-2.9599
X3.6822Y-3.0099
X3.0592Y-3.3274
X3.0592Y-3.3774
X3.0592Y-3.4274
X3.3479Y-2.9264
X3.3479Y-2.9764
X3.3479Y-3.0264
X3.0542Y-2.9178
X3.0542Y-2.9678
X3.0542Y-3.0178
X3.3529Y-3.3361
X3.3529Y-3.3861
X3.3529Y-3.4361
X3.6822Y-3.3296
X3.6822Y-3.3796
X3.6822Y-3.4296
X3.9959Y-2.9049
X3.9959Y-2.9549
X3.9959Y-3.0049
T3
X5.385Y-3.05
X5.5819Y-3.05
X4.875Y-3.05
X5.0719Y-3.05
X5.3305Y-1.3167
X5.3305Y-1.6167
X5.3305Y-2.2897
X5.3305Y-2.5897
X4.045Y-1.81
X4.045Y-2.11
X4.6773Y-1.7928
X4.6773Y-2.0928
X5.595Y-2.2897
X5.595Y-2.5897
X4.355Y-2.3
X4.355Y-2.6
X5.385Y-3.265
X5.5819Y-3.265
X5.375Y-3.46
X5.5719Y-3.46
X4.3669Y-2.8327
X4.5637Y-2.8327
X5.595Y-1.3167
X5.595Y-1.6167
X4.6816Y-0.8291
X4.6816Y-1.1291
X5.595Y-1.7907
X5.595Y-2.0907
X5.0211Y-1.3281
X5.0211Y-1.6281
X4.37Y-3.465
X4.5669Y-3.465
X4.358Y-3.0516
X4.5548Y-3.0516
X2.82Y-2.395
X2.82Y-2.595
X3.02Y-2.495
X4.3572Y-0.8341
X4.3572Y-1.1341
X4.3572Y-1.3331
X4.3572Y-1.6331
X5.3305Y-1.7907
X5.3305Y-2.0907
X4.37Y-3.265
X4.5669Y-3.265
X4.885Y-3.255
X5.0819Y-3.255
X4.875Y-2.84
X5.0719Y-2.84
X4.3611Y-1.7923
X4.3611Y-2.0923
X4.67Y-2.295
X4.67Y-2.595
X5.0211Y-0.8291
X5.0211Y-1.1291
X5.025Y-2.295
X5.025Y-2.595
X2.82Y-1.345
X2.82Y-1.545
X3.02Y-1.445
X4.045Y-0.835
X4.045Y-1.135
X4.8752Y-3.4539
X5.072Y-3.4539
X5.3305Y-0.8426
X5.3305Y-1.1426
X3.3832Y-1.3552
X3.3832Y-1.5552
X3.5832Y-1.4552
X4.05Y-1.335
X4.05Y-1.635
X5.385Y-2.845
X5.5819Y-2.845
X5.595Y-0.8426
X5.595Y-1.1426
X5.0167Y-1.7928
X5.0167Y-2.0928
X4.045Y-2.31
X4.045Y-2.61
X3.37Y-2.395
X3.37Y-2.595
X3.57Y-2.495
X2.82Y-1.87
X2.82Y-2.07
X3.02Y-1.97
X3.37Y-1.87
X3.37Y-2.07
X3.57Y-1.97
X4.6816Y-1.3281
X4.6816Y-1.6281
T4
X2.3682Y-1.4069
X2.3682Y-1.5069
X5.905Y-1.515
X5.905Y-1.615
X5.905Y-1.715
X5.905Y-1.815
X5.905Y-1.915
X5.905Y-2.015
X5.905Y-2.115
X5.905Y-2.81
X2.38Y-2.155
X2.38Y-2.255
X2.38Y-2.355
X2.38Y-2.455
X2.38Y-2.555
X2.38Y-2.655
X2.3682Y-1.6903
X2.3682Y-1.7903
X2.38Y-2.905
X2.38Y-3.005
X2.38Y-3.105
X5.905Y-2.585
T5
X3.38Y-0.99
X3.78Y-0.99
T6
X2.72Y-0.99
X2.905Y-0.99
X3.09Y-0.99
T0
M30
