G04 #@! TF.GenerationSoftware,KiCad,Pcbnew,(5.1.5)-3*
G04 #@! TF.CreationDate,2020-01-23T17:34:21-05:00*
G04 #@! TF.ProjectId,dmv,646d762e-6b69-4636-9164-5f7063625858,v01*
G04 #@! TF.SameCoordinates,Original*
G04 #@! TF.FileFunction,Soldermask,Bot*
G04 #@! TF.FilePolarity,Negative*
%FSLAX46Y46*%
G04 Gerber Fmt 4.6, Leading zero omitted, Abs format (unit mm)*
G04 Created by KiCad (PCBNEW (5.1.5)-3) date 2020-01-23 17:34:21*
%MOMM*%
%LPD*%
G04 APERTURE LIST*
%ADD10C,0.100000*%
G04 APERTURE END LIST*
D10*
G36*
X116246228Y-87192703D02*
G01*
X116401100Y-87256853D01*
X116540481Y-87349985D01*
X116659015Y-87468519D01*
X116752147Y-87607900D01*
X116816297Y-87762772D01*
X116849000Y-87927184D01*
X116849000Y-88094816D01*
X116816297Y-88259228D01*
X116752147Y-88414100D01*
X116659015Y-88553481D01*
X116540481Y-88672015D01*
X116401100Y-88765147D01*
X116246228Y-88829297D01*
X116081816Y-88862000D01*
X115914184Y-88862000D01*
X115749772Y-88829297D01*
X115594900Y-88765147D01*
X115455519Y-88672015D01*
X115336985Y-88553481D01*
X115243853Y-88414100D01*
X115179703Y-88259228D01*
X115147000Y-88094816D01*
X115147000Y-87927184D01*
X115179703Y-87762772D01*
X115243853Y-87607900D01*
X115336985Y-87468519D01*
X115455519Y-87349985D01*
X115594900Y-87256853D01*
X115749772Y-87192703D01*
X115914184Y-87160000D01*
X116081816Y-87160000D01*
X116246228Y-87192703D01*
G37*
G36*
X111246228Y-87192703D02*
G01*
X111401100Y-87256853D01*
X111540481Y-87349985D01*
X111659015Y-87468519D01*
X111752147Y-87607900D01*
X111816297Y-87762772D01*
X111849000Y-87927184D01*
X111849000Y-88094816D01*
X111816297Y-88259228D01*
X111752147Y-88414100D01*
X111659015Y-88553481D01*
X111540481Y-88672015D01*
X111401100Y-88765147D01*
X111246228Y-88829297D01*
X111081816Y-88862000D01*
X110914184Y-88862000D01*
X110749772Y-88829297D01*
X110594900Y-88765147D01*
X110455519Y-88672015D01*
X110336985Y-88553481D01*
X110243853Y-88414100D01*
X110179703Y-88259228D01*
X110147000Y-88094816D01*
X110147000Y-87927184D01*
X110179703Y-87762772D01*
X110243853Y-87607900D01*
X110336985Y-87468519D01*
X110455519Y-87349985D01*
X110594900Y-87256853D01*
X110749772Y-87192703D01*
X110914184Y-87160000D01*
X111081816Y-87160000D01*
X111246228Y-87192703D01*
G37*
G36*
X136773228Y-87065703D02*
G01*
X136928100Y-87129853D01*
X137067481Y-87222985D01*
X137186015Y-87341519D01*
X137279147Y-87480900D01*
X137343297Y-87635772D01*
X137376000Y-87800184D01*
X137376000Y-87967816D01*
X137343297Y-88132228D01*
X137279147Y-88287100D01*
X137186015Y-88426481D01*
X137067481Y-88545015D01*
X136928100Y-88638147D01*
X136773228Y-88702297D01*
X136608816Y-88735000D01*
X136441184Y-88735000D01*
X136276772Y-88702297D01*
X136121900Y-88638147D01*
X135982519Y-88545015D01*
X135863985Y-88426481D01*
X135770853Y-88287100D01*
X135706703Y-88132228D01*
X135674000Y-87967816D01*
X135674000Y-87800184D01*
X135706703Y-87635772D01*
X135770853Y-87480900D01*
X135863985Y-87341519D01*
X135982519Y-87222985D01*
X136121900Y-87129853D01*
X136276772Y-87065703D01*
X136441184Y-87033000D01*
X136608816Y-87033000D01*
X136773228Y-87065703D01*
G37*
G36*
X141773228Y-87065703D02*
G01*
X141928100Y-87129853D01*
X142067481Y-87222985D01*
X142186015Y-87341519D01*
X142279147Y-87480900D01*
X142343297Y-87635772D01*
X142376000Y-87800184D01*
X142376000Y-87967816D01*
X142343297Y-88132228D01*
X142279147Y-88287100D01*
X142186015Y-88426481D01*
X142067481Y-88545015D01*
X141928100Y-88638147D01*
X141773228Y-88702297D01*
X141608816Y-88735000D01*
X141441184Y-88735000D01*
X141276772Y-88702297D01*
X141121900Y-88638147D01*
X140982519Y-88545015D01*
X140863985Y-88426481D01*
X140770853Y-88287100D01*
X140706703Y-88132228D01*
X140674000Y-87967816D01*
X140674000Y-87800184D01*
X140706703Y-87635772D01*
X140770853Y-87480900D01*
X140863985Y-87341519D01*
X140982519Y-87222985D01*
X141121900Y-87129853D01*
X141276772Y-87065703D01*
X141441184Y-87033000D01*
X141608816Y-87033000D01*
X141773228Y-87065703D01*
G37*
G36*
X129077228Y-86911703D02*
G01*
X129232100Y-86975853D01*
X129371481Y-87068985D01*
X129490015Y-87187519D01*
X129583147Y-87326900D01*
X129647297Y-87481772D01*
X129680000Y-87646184D01*
X129680000Y-87813816D01*
X129647297Y-87978228D01*
X129583147Y-88133100D01*
X129490015Y-88272481D01*
X129371481Y-88391015D01*
X129232100Y-88484147D01*
X129077228Y-88548297D01*
X128912816Y-88581000D01*
X128745184Y-88581000D01*
X128580772Y-88548297D01*
X128425900Y-88484147D01*
X128286519Y-88391015D01*
X128167985Y-88272481D01*
X128074853Y-88133100D01*
X128010703Y-87978228D01*
X127978000Y-87813816D01*
X127978000Y-87646184D01*
X128010703Y-87481772D01*
X128074853Y-87326900D01*
X128167985Y-87187519D01*
X128286519Y-87068985D01*
X128425900Y-86975853D01*
X128580772Y-86911703D01*
X128745184Y-86879000D01*
X128912816Y-86879000D01*
X129077228Y-86911703D01*
G37*
G36*
X124077228Y-86911703D02*
G01*
X124232100Y-86975853D01*
X124371481Y-87068985D01*
X124490015Y-87187519D01*
X124583147Y-87326900D01*
X124647297Y-87481772D01*
X124680000Y-87646184D01*
X124680000Y-87813816D01*
X124647297Y-87978228D01*
X124583147Y-88133100D01*
X124490015Y-88272481D01*
X124371481Y-88391015D01*
X124232100Y-88484147D01*
X124077228Y-88548297D01*
X123912816Y-88581000D01*
X123745184Y-88581000D01*
X123580772Y-88548297D01*
X123425900Y-88484147D01*
X123286519Y-88391015D01*
X123167985Y-88272481D01*
X123074853Y-88133100D01*
X123010703Y-87978228D01*
X122978000Y-87813816D01*
X122978000Y-87646184D01*
X123010703Y-87481772D01*
X123074853Y-87326900D01*
X123167985Y-87187519D01*
X123286519Y-87068985D01*
X123425900Y-86975853D01*
X123580772Y-86911703D01*
X123745184Y-86879000D01*
X123912816Y-86879000D01*
X124077228Y-86911703D01*
G37*
G36*
X85521015Y-84192973D02*
G01*
X85624879Y-84224479D01*
X85639170Y-84232118D01*
X85720600Y-84275643D01*
X85804501Y-84344499D01*
X85873357Y-84428400D01*
X85891844Y-84462987D01*
X85924521Y-84524121D01*
X85956027Y-84627985D01*
X85966666Y-84736000D01*
X85956027Y-84844015D01*
X85924521Y-84947879D01*
X85924519Y-84947882D01*
X85873357Y-85043600D01*
X85804501Y-85127501D01*
X85720600Y-85196357D01*
X85655228Y-85231299D01*
X85624879Y-85247521D01*
X85612131Y-85251388D01*
X85589504Y-85260760D01*
X85569130Y-85274374D01*
X85551803Y-85291701D01*
X85538189Y-85312075D01*
X85528812Y-85334714D01*
X85524031Y-85358747D01*
X85524031Y-85383251D01*
X85528811Y-85407285D01*
X85538188Y-85429924D01*
X85551802Y-85450298D01*
X85569129Y-85467625D01*
X85589503Y-85481239D01*
X85612131Y-85490612D01*
X85624879Y-85494479D01*
X85639170Y-85502118D01*
X85720600Y-85545643D01*
X85804501Y-85614499D01*
X85873357Y-85698400D01*
X85891844Y-85732987D01*
X85924521Y-85794121D01*
X85956027Y-85897985D01*
X85966666Y-86006000D01*
X85956027Y-86114015D01*
X85924521Y-86217879D01*
X85924519Y-86217882D01*
X85873357Y-86313600D01*
X85809016Y-86392000D01*
X85804501Y-86397501D01*
X85720600Y-86466356D01*
X85676807Y-86489764D01*
X85656437Y-86503375D01*
X85639110Y-86520702D01*
X85625496Y-86541076D01*
X85616119Y-86563715D01*
X85611338Y-86587748D01*
X85611338Y-86612252D01*
X85616118Y-86636286D01*
X85625495Y-86658924D01*
X85639109Y-86679299D01*
X85656436Y-86696626D01*
X85676810Y-86710240D01*
X85699449Y-86719617D01*
X85723482Y-86724398D01*
X85735735Y-86725000D01*
X85964000Y-86725000D01*
X85964000Y-87827000D01*
X84362000Y-87827000D01*
X84362000Y-86725000D01*
X84590265Y-86725000D01*
X84614651Y-86722598D01*
X84638100Y-86715485D01*
X84659711Y-86703934D01*
X84678653Y-86688389D01*
X84694198Y-86669447D01*
X84705749Y-86647836D01*
X84712862Y-86624387D01*
X84715264Y-86600001D01*
X84712862Y-86575615D01*
X84705749Y-86552166D01*
X84694198Y-86530555D01*
X84678653Y-86511613D01*
X84659711Y-86496068D01*
X84649198Y-86489767D01*
X84605400Y-86466356D01*
X84521499Y-86397501D01*
X84516984Y-86392000D01*
X84452643Y-86313600D01*
X84401481Y-86217882D01*
X84401479Y-86217879D01*
X84369973Y-86114015D01*
X84359334Y-86006000D01*
X84369973Y-85897985D01*
X84401479Y-85794121D01*
X84434156Y-85732987D01*
X84452643Y-85698400D01*
X84521499Y-85614499D01*
X84605400Y-85545643D01*
X84686830Y-85502118D01*
X84701121Y-85494479D01*
X84713869Y-85490612D01*
X84736496Y-85481240D01*
X84756870Y-85467626D01*
X84774197Y-85450299D01*
X84787811Y-85429925D01*
X84797188Y-85407286D01*
X84801969Y-85383253D01*
X84801969Y-85358749D01*
X84797189Y-85334715D01*
X84787812Y-85312076D01*
X84774198Y-85291702D01*
X84756871Y-85274375D01*
X84736497Y-85260761D01*
X84713869Y-85251388D01*
X84701121Y-85247521D01*
X84670772Y-85231299D01*
X84605400Y-85196357D01*
X84521499Y-85127501D01*
X84452643Y-85043600D01*
X84401481Y-84947882D01*
X84401479Y-84947879D01*
X84369973Y-84844015D01*
X84359334Y-84736000D01*
X84369973Y-84627985D01*
X84401479Y-84524121D01*
X84434156Y-84462987D01*
X84452643Y-84428400D01*
X84521499Y-84344499D01*
X84605400Y-84275643D01*
X84686830Y-84232118D01*
X84701121Y-84224479D01*
X84804985Y-84192973D01*
X84885933Y-84185000D01*
X85440067Y-84185000D01*
X85521015Y-84192973D01*
G37*
G36*
X69968015Y-84147973D02*
G01*
X70071879Y-84179479D01*
X70097124Y-84192973D01*
X70167600Y-84230643D01*
X70251501Y-84299499D01*
X70320357Y-84383400D01*
X70352748Y-84444000D01*
X70371521Y-84479121D01*
X70403027Y-84582985D01*
X70413666Y-84691000D01*
X70403027Y-84799015D01*
X70371521Y-84902879D01*
X70370731Y-84904357D01*
X70320357Y-84998600D01*
X70251501Y-85082501D01*
X70167600Y-85151357D01*
X70099055Y-85187995D01*
X70071879Y-85202521D01*
X70059131Y-85206388D01*
X70036504Y-85215760D01*
X70016130Y-85229374D01*
X69998803Y-85246701D01*
X69985189Y-85267075D01*
X69975812Y-85289714D01*
X69971031Y-85313747D01*
X69971031Y-85338251D01*
X69975811Y-85362285D01*
X69985188Y-85384924D01*
X69998802Y-85405298D01*
X70016129Y-85422625D01*
X70036503Y-85436239D01*
X70059131Y-85445612D01*
X70071879Y-85449479D01*
X70097124Y-85462973D01*
X70167600Y-85500643D01*
X70251501Y-85569499D01*
X70320357Y-85653400D01*
X70352748Y-85714000D01*
X70371521Y-85749121D01*
X70403027Y-85852985D01*
X70413666Y-85961000D01*
X70403027Y-86069015D01*
X70371521Y-86172879D01*
X70368516Y-86178501D01*
X70320357Y-86268600D01*
X70268008Y-86332387D01*
X70251501Y-86352501D01*
X70167600Y-86421356D01*
X70123807Y-86444764D01*
X70103437Y-86458375D01*
X70086110Y-86475702D01*
X70072496Y-86496076D01*
X70063119Y-86518715D01*
X70058338Y-86542748D01*
X70058338Y-86567252D01*
X70063118Y-86591286D01*
X70072495Y-86613924D01*
X70086109Y-86634299D01*
X70103436Y-86651626D01*
X70123810Y-86665240D01*
X70146449Y-86674617D01*
X70170482Y-86679398D01*
X70182735Y-86680000D01*
X70411000Y-86680000D01*
X70411000Y-87782000D01*
X68809000Y-87782000D01*
X68809000Y-86680000D01*
X69037265Y-86680000D01*
X69061651Y-86677598D01*
X69085100Y-86670485D01*
X69106711Y-86658934D01*
X69125653Y-86643389D01*
X69141198Y-86624447D01*
X69152749Y-86602836D01*
X69159862Y-86579387D01*
X69162264Y-86555001D01*
X69159862Y-86530615D01*
X69152749Y-86507166D01*
X69141198Y-86485555D01*
X69125653Y-86466613D01*
X69106711Y-86451068D01*
X69096198Y-86444767D01*
X69052400Y-86421356D01*
X68968499Y-86352501D01*
X68951992Y-86332387D01*
X68899643Y-86268600D01*
X68851484Y-86178501D01*
X68848479Y-86172879D01*
X68816973Y-86069015D01*
X68806334Y-85961000D01*
X68816973Y-85852985D01*
X68848479Y-85749121D01*
X68867252Y-85714000D01*
X68899643Y-85653400D01*
X68968499Y-85569499D01*
X69052400Y-85500643D01*
X69122876Y-85462973D01*
X69148121Y-85449479D01*
X69160869Y-85445612D01*
X69183496Y-85436240D01*
X69203870Y-85422626D01*
X69221197Y-85405299D01*
X69234811Y-85384925D01*
X69244188Y-85362286D01*
X69248969Y-85338253D01*
X69248969Y-85313749D01*
X69244189Y-85289715D01*
X69234812Y-85267076D01*
X69221198Y-85246702D01*
X69203871Y-85229375D01*
X69183497Y-85215761D01*
X69160869Y-85206388D01*
X69148121Y-85202521D01*
X69120945Y-85187995D01*
X69052400Y-85151357D01*
X68968499Y-85082501D01*
X68899643Y-84998600D01*
X68849269Y-84904357D01*
X68848479Y-84902879D01*
X68816973Y-84799015D01*
X68806334Y-84691000D01*
X68816973Y-84582985D01*
X68848479Y-84479121D01*
X68867252Y-84444000D01*
X68899643Y-84383400D01*
X68968499Y-84299499D01*
X69052400Y-84230643D01*
X69122876Y-84192973D01*
X69148121Y-84179479D01*
X69251985Y-84147973D01*
X69332933Y-84140000D01*
X69887067Y-84140000D01*
X69968015Y-84147973D01*
G37*
G36*
X93886015Y-84027973D02*
G01*
X93989879Y-84059479D01*
X94017055Y-84074005D01*
X94085600Y-84110643D01*
X94169501Y-84179499D01*
X94238357Y-84263400D01*
X94260657Y-84305121D01*
X94289521Y-84359121D01*
X94321027Y-84462985D01*
X94331666Y-84571000D01*
X94321027Y-84679015D01*
X94289521Y-84782879D01*
X94289519Y-84782882D01*
X94238357Y-84878600D01*
X94169501Y-84962501D01*
X94085600Y-85031357D01*
X94019386Y-85066749D01*
X93989879Y-85082521D01*
X93977131Y-85086388D01*
X93954504Y-85095760D01*
X93934130Y-85109374D01*
X93916803Y-85126701D01*
X93903189Y-85147075D01*
X93893812Y-85169714D01*
X93889031Y-85193747D01*
X93889031Y-85218251D01*
X93893811Y-85242285D01*
X93903188Y-85264924D01*
X93916802Y-85285298D01*
X93934129Y-85302625D01*
X93954503Y-85316239D01*
X93977131Y-85325612D01*
X93989879Y-85329479D01*
X94017055Y-85344005D01*
X94085600Y-85380643D01*
X94169501Y-85449499D01*
X94238357Y-85533400D01*
X94260657Y-85575121D01*
X94289521Y-85629121D01*
X94321027Y-85732985D01*
X94331666Y-85841000D01*
X94321027Y-85949015D01*
X94289521Y-86052879D01*
X94289519Y-86052882D01*
X94238357Y-86148600D01*
X94180078Y-86219613D01*
X94169501Y-86232501D01*
X94085600Y-86301356D01*
X94041807Y-86324764D01*
X94021437Y-86338375D01*
X94004110Y-86355702D01*
X93990496Y-86376076D01*
X93981119Y-86398715D01*
X93976338Y-86422748D01*
X93976338Y-86447252D01*
X93981118Y-86471286D01*
X93990495Y-86493924D01*
X94004109Y-86514299D01*
X94021436Y-86531626D01*
X94041810Y-86545240D01*
X94064449Y-86554617D01*
X94088482Y-86559398D01*
X94100735Y-86560000D01*
X94329000Y-86560000D01*
X94329000Y-87662000D01*
X92727000Y-87662000D01*
X92727000Y-86560000D01*
X92955265Y-86560000D01*
X92979651Y-86557598D01*
X93003100Y-86550485D01*
X93024711Y-86538934D01*
X93043653Y-86523389D01*
X93059198Y-86504447D01*
X93070749Y-86482836D01*
X93077862Y-86459387D01*
X93080264Y-86435001D01*
X93077862Y-86410615D01*
X93070749Y-86387166D01*
X93059198Y-86365555D01*
X93043653Y-86346613D01*
X93024711Y-86331068D01*
X93014198Y-86324767D01*
X92970400Y-86301356D01*
X92886499Y-86232501D01*
X92875922Y-86219613D01*
X92817643Y-86148600D01*
X92766481Y-86052882D01*
X92766479Y-86052879D01*
X92734973Y-85949015D01*
X92724334Y-85841000D01*
X92734973Y-85732985D01*
X92766479Y-85629121D01*
X92795343Y-85575121D01*
X92817643Y-85533400D01*
X92886499Y-85449499D01*
X92970400Y-85380643D01*
X93038945Y-85344005D01*
X93066121Y-85329479D01*
X93078869Y-85325612D01*
X93101496Y-85316240D01*
X93121870Y-85302626D01*
X93139197Y-85285299D01*
X93152811Y-85264925D01*
X93162188Y-85242286D01*
X93166969Y-85218253D01*
X93166969Y-85193749D01*
X93162189Y-85169715D01*
X93152812Y-85147076D01*
X93139198Y-85126702D01*
X93121871Y-85109375D01*
X93101497Y-85095761D01*
X93078869Y-85086388D01*
X93066121Y-85082521D01*
X93036614Y-85066749D01*
X92970400Y-85031357D01*
X92886499Y-84962501D01*
X92817643Y-84878600D01*
X92766481Y-84782882D01*
X92766479Y-84782879D01*
X92734973Y-84679015D01*
X92724334Y-84571000D01*
X92734973Y-84462985D01*
X92766479Y-84359121D01*
X92795343Y-84305121D01*
X92817643Y-84263400D01*
X92886499Y-84179499D01*
X92970400Y-84110643D01*
X93038945Y-84074005D01*
X93066121Y-84059479D01*
X93169985Y-84027973D01*
X93250933Y-84020000D01*
X93805067Y-84020000D01*
X93886015Y-84027973D01*
G37*
G36*
X78062015Y-83973973D02*
G01*
X78165879Y-84005479D01*
X78193045Y-84020000D01*
X78261600Y-84056643D01*
X78345501Y-84125499D01*
X78414357Y-84209400D01*
X78443220Y-84263400D01*
X78465521Y-84305121D01*
X78497027Y-84408985D01*
X78507666Y-84517000D01*
X78497027Y-84625015D01*
X78465521Y-84728879D01*
X78453376Y-84751600D01*
X78414357Y-84824600D01*
X78345501Y-84908501D01*
X78261600Y-84977357D01*
X78193055Y-85013995D01*
X78165879Y-85028521D01*
X78153131Y-85032388D01*
X78130504Y-85041760D01*
X78110130Y-85055374D01*
X78092803Y-85072701D01*
X78079189Y-85093075D01*
X78069812Y-85115714D01*
X78065031Y-85139747D01*
X78065031Y-85164251D01*
X78069811Y-85188285D01*
X78079188Y-85210924D01*
X78092802Y-85231298D01*
X78110129Y-85248625D01*
X78130503Y-85262239D01*
X78153131Y-85271612D01*
X78165879Y-85275479D01*
X78187433Y-85287000D01*
X78261600Y-85326643D01*
X78345501Y-85395499D01*
X78414357Y-85479400D01*
X78443220Y-85533400D01*
X78465521Y-85575121D01*
X78497027Y-85678985D01*
X78507666Y-85787000D01*
X78497027Y-85895015D01*
X78465521Y-85998879D01*
X78453376Y-86021600D01*
X78414357Y-86094600D01*
X78348903Y-86174356D01*
X78345501Y-86178501D01*
X78261600Y-86247356D01*
X78217807Y-86270764D01*
X78197437Y-86284375D01*
X78180110Y-86301702D01*
X78166496Y-86322076D01*
X78157119Y-86344715D01*
X78152338Y-86368748D01*
X78152338Y-86393252D01*
X78157118Y-86417286D01*
X78166495Y-86439924D01*
X78180109Y-86460299D01*
X78197436Y-86477626D01*
X78217810Y-86491240D01*
X78240449Y-86500617D01*
X78264482Y-86505398D01*
X78276735Y-86506000D01*
X78505000Y-86506000D01*
X78505000Y-87608000D01*
X76903000Y-87608000D01*
X76903000Y-86506000D01*
X77131265Y-86506000D01*
X77155651Y-86503598D01*
X77179100Y-86496485D01*
X77200711Y-86484934D01*
X77219653Y-86469389D01*
X77235198Y-86450447D01*
X77246749Y-86428836D01*
X77253862Y-86405387D01*
X77256264Y-86381001D01*
X77253862Y-86356615D01*
X77246749Y-86333166D01*
X77235198Y-86311555D01*
X77219653Y-86292613D01*
X77200711Y-86277068D01*
X77190198Y-86270767D01*
X77146400Y-86247356D01*
X77062499Y-86178501D01*
X77059097Y-86174356D01*
X76993643Y-86094600D01*
X76954624Y-86021600D01*
X76942479Y-85998879D01*
X76910973Y-85895015D01*
X76900334Y-85787000D01*
X76910973Y-85678985D01*
X76942479Y-85575121D01*
X76964780Y-85533400D01*
X76993643Y-85479400D01*
X77062499Y-85395499D01*
X77146400Y-85326643D01*
X77220567Y-85287000D01*
X77242121Y-85275479D01*
X77254869Y-85271612D01*
X77277496Y-85262240D01*
X77297870Y-85248626D01*
X77315197Y-85231299D01*
X77328811Y-85210925D01*
X77338188Y-85188286D01*
X77342969Y-85164253D01*
X77342969Y-85139749D01*
X77338189Y-85115715D01*
X77328812Y-85093076D01*
X77315198Y-85072702D01*
X77297871Y-85055375D01*
X77277497Y-85041761D01*
X77254869Y-85032388D01*
X77242121Y-85028521D01*
X77214945Y-85013995D01*
X77146400Y-84977357D01*
X77062499Y-84908501D01*
X76993643Y-84824600D01*
X76954624Y-84751600D01*
X76942479Y-84728879D01*
X76910973Y-84625015D01*
X76900334Y-84517000D01*
X76910973Y-84408985D01*
X76942479Y-84305121D01*
X76964780Y-84263400D01*
X76993643Y-84209400D01*
X77062499Y-84125499D01*
X77146400Y-84056643D01*
X77214955Y-84020000D01*
X77242121Y-84005479D01*
X77345985Y-83973973D01*
X77426933Y-83966000D01*
X77981067Y-83966000D01*
X78062015Y-83973973D01*
G37*
G36*
X101853015Y-83900973D02*
G01*
X101956879Y-83932479D01*
X101984055Y-83947005D01*
X102052600Y-83983643D01*
X102136501Y-84052499D01*
X102205357Y-84136400D01*
X102231334Y-84185000D01*
X102256521Y-84232121D01*
X102288027Y-84335985D01*
X102298666Y-84444000D01*
X102288027Y-84552015D01*
X102256521Y-84655879D01*
X102256519Y-84655882D01*
X102205357Y-84751600D01*
X102136501Y-84835501D01*
X102052600Y-84904357D01*
X101984055Y-84940995D01*
X101956879Y-84955521D01*
X101944131Y-84959388D01*
X101921504Y-84968760D01*
X101901130Y-84982374D01*
X101883803Y-84999701D01*
X101870189Y-85020075D01*
X101860812Y-85042714D01*
X101856031Y-85066747D01*
X101856031Y-85091251D01*
X101860811Y-85115285D01*
X101870188Y-85137924D01*
X101883802Y-85158298D01*
X101901129Y-85175625D01*
X101921503Y-85189239D01*
X101944131Y-85198612D01*
X101956879Y-85202479D01*
X101972678Y-85210924D01*
X102052600Y-85253643D01*
X102136501Y-85322499D01*
X102205357Y-85406400D01*
X102228821Y-85450299D01*
X102256521Y-85502121D01*
X102288027Y-85605985D01*
X102298666Y-85714000D01*
X102288027Y-85822015D01*
X102256521Y-85925879D01*
X102256519Y-85925882D01*
X102205357Y-86021600D01*
X102179684Y-86052882D01*
X102136501Y-86105501D01*
X102052600Y-86174356D01*
X102008807Y-86197764D01*
X101988437Y-86211375D01*
X101971110Y-86228702D01*
X101957496Y-86249076D01*
X101948119Y-86271715D01*
X101943338Y-86295748D01*
X101943338Y-86320252D01*
X101948118Y-86344286D01*
X101957495Y-86366924D01*
X101971109Y-86387299D01*
X101988436Y-86404626D01*
X102008810Y-86418240D01*
X102031449Y-86427617D01*
X102055482Y-86432398D01*
X102067735Y-86433000D01*
X102296000Y-86433000D01*
X102296000Y-87535000D01*
X100694000Y-87535000D01*
X100694000Y-86433000D01*
X100922265Y-86433000D01*
X100946651Y-86430598D01*
X100970100Y-86423485D01*
X100991711Y-86411934D01*
X101010653Y-86396389D01*
X101026198Y-86377447D01*
X101037749Y-86355836D01*
X101044862Y-86332387D01*
X101047264Y-86308001D01*
X101044862Y-86283615D01*
X101037749Y-86260166D01*
X101026198Y-86238555D01*
X101010653Y-86219613D01*
X100991711Y-86204068D01*
X100981198Y-86197767D01*
X100937400Y-86174356D01*
X100853499Y-86105501D01*
X100810316Y-86052882D01*
X100784643Y-86021600D01*
X100733481Y-85925882D01*
X100733479Y-85925879D01*
X100701973Y-85822015D01*
X100691334Y-85714000D01*
X100701973Y-85605985D01*
X100733479Y-85502121D01*
X100761179Y-85450299D01*
X100784643Y-85406400D01*
X100853499Y-85322499D01*
X100937400Y-85253643D01*
X101017322Y-85210924D01*
X101033121Y-85202479D01*
X101045869Y-85198612D01*
X101068496Y-85189240D01*
X101088870Y-85175626D01*
X101106197Y-85158299D01*
X101119811Y-85137925D01*
X101129188Y-85115286D01*
X101133969Y-85091253D01*
X101133969Y-85066749D01*
X101129189Y-85042715D01*
X101119812Y-85020076D01*
X101106198Y-84999702D01*
X101088871Y-84982375D01*
X101068497Y-84968761D01*
X101045869Y-84959388D01*
X101033121Y-84955521D01*
X101005945Y-84940995D01*
X100937400Y-84904357D01*
X100853499Y-84835501D01*
X100784643Y-84751600D01*
X100733481Y-84655882D01*
X100733479Y-84655879D01*
X100701973Y-84552015D01*
X100691334Y-84444000D01*
X100701973Y-84335985D01*
X100733479Y-84232121D01*
X100758666Y-84185000D01*
X100784643Y-84136400D01*
X100853499Y-84052499D01*
X100937400Y-83983643D01*
X101005945Y-83947005D01*
X101033121Y-83932479D01*
X101136985Y-83900973D01*
X101217933Y-83893000D01*
X101772067Y-83893000D01*
X101853015Y-83900973D01*
G37*
G36*
X142027228Y-82112703D02*
G01*
X142182100Y-82176853D01*
X142321481Y-82269985D01*
X142440015Y-82388519D01*
X142533147Y-82527900D01*
X142597297Y-82682772D01*
X142630000Y-82847184D01*
X142630000Y-83014816D01*
X142597297Y-83179228D01*
X142533147Y-83334100D01*
X142440015Y-83473481D01*
X142321481Y-83592015D01*
X142182100Y-83685147D01*
X142027228Y-83749297D01*
X141862816Y-83782000D01*
X141695184Y-83782000D01*
X141530772Y-83749297D01*
X141375900Y-83685147D01*
X141236519Y-83592015D01*
X141117985Y-83473481D01*
X141024853Y-83334100D01*
X140960703Y-83179228D01*
X140928000Y-83014816D01*
X140928000Y-82847184D01*
X140960703Y-82682772D01*
X141024853Y-82527900D01*
X141117985Y-82388519D01*
X141236519Y-82269985D01*
X141375900Y-82176853D01*
X141530772Y-82112703D01*
X141695184Y-82080000D01*
X141862816Y-82080000D01*
X142027228Y-82112703D01*
G37*
G36*
X137027228Y-82112703D02*
G01*
X137182100Y-82176853D01*
X137321481Y-82269985D01*
X137440015Y-82388519D01*
X137533147Y-82527900D01*
X137597297Y-82682772D01*
X137630000Y-82847184D01*
X137630000Y-83014816D01*
X137597297Y-83179228D01*
X137533147Y-83334100D01*
X137440015Y-83473481D01*
X137321481Y-83592015D01*
X137182100Y-83685147D01*
X137027228Y-83749297D01*
X136862816Y-83782000D01*
X136695184Y-83782000D01*
X136530772Y-83749297D01*
X136375900Y-83685147D01*
X136236519Y-83592015D01*
X136117985Y-83473481D01*
X136024853Y-83334100D01*
X135960703Y-83179228D01*
X135928000Y-83014816D01*
X135928000Y-82847184D01*
X135960703Y-82682772D01*
X136024853Y-82527900D01*
X136117985Y-82388519D01*
X136236519Y-82269985D01*
X136375900Y-82176853D01*
X136530772Y-82112703D01*
X136695184Y-82080000D01*
X136862816Y-82080000D01*
X137027228Y-82112703D01*
G37*
G36*
X116246228Y-82112703D02*
G01*
X116401100Y-82176853D01*
X116540481Y-82269985D01*
X116659015Y-82388519D01*
X116752147Y-82527900D01*
X116816297Y-82682772D01*
X116849000Y-82847184D01*
X116849000Y-83014816D01*
X116816297Y-83179228D01*
X116752147Y-83334100D01*
X116659015Y-83473481D01*
X116540481Y-83592015D01*
X116401100Y-83685147D01*
X116246228Y-83749297D01*
X116081816Y-83782000D01*
X115914184Y-83782000D01*
X115749772Y-83749297D01*
X115594900Y-83685147D01*
X115455519Y-83592015D01*
X115336985Y-83473481D01*
X115243853Y-83334100D01*
X115179703Y-83179228D01*
X115147000Y-83014816D01*
X115147000Y-82847184D01*
X115179703Y-82682772D01*
X115243853Y-82527900D01*
X115336985Y-82388519D01*
X115455519Y-82269985D01*
X115594900Y-82176853D01*
X115749772Y-82112703D01*
X115914184Y-82080000D01*
X116081816Y-82080000D01*
X116246228Y-82112703D01*
G37*
G36*
X111246228Y-82112703D02*
G01*
X111401100Y-82176853D01*
X111540481Y-82269985D01*
X111659015Y-82388519D01*
X111752147Y-82527900D01*
X111816297Y-82682772D01*
X111849000Y-82847184D01*
X111849000Y-83014816D01*
X111816297Y-83179228D01*
X111752147Y-83334100D01*
X111659015Y-83473481D01*
X111540481Y-83592015D01*
X111401100Y-83685147D01*
X111246228Y-83749297D01*
X111081816Y-83782000D01*
X110914184Y-83782000D01*
X110749772Y-83749297D01*
X110594900Y-83685147D01*
X110455519Y-83592015D01*
X110336985Y-83473481D01*
X110243853Y-83334100D01*
X110179703Y-83179228D01*
X110147000Y-83014816D01*
X110147000Y-82847184D01*
X110179703Y-82682772D01*
X110243853Y-82527900D01*
X110336985Y-82388519D01*
X110455519Y-82269985D01*
X110594900Y-82176853D01*
X110749772Y-82112703D01*
X110914184Y-82080000D01*
X111081816Y-82080000D01*
X111246228Y-82112703D01*
G37*
G36*
X129327228Y-81858703D02*
G01*
X129482100Y-81922853D01*
X129621481Y-82015985D01*
X129740015Y-82134519D01*
X129833147Y-82273900D01*
X129897297Y-82428772D01*
X129930000Y-82593184D01*
X129930000Y-82760816D01*
X129897297Y-82925228D01*
X129833147Y-83080100D01*
X129740015Y-83219481D01*
X129621481Y-83338015D01*
X129482100Y-83431147D01*
X129327228Y-83495297D01*
X129162816Y-83528000D01*
X128995184Y-83528000D01*
X128830772Y-83495297D01*
X128675900Y-83431147D01*
X128536519Y-83338015D01*
X128417985Y-83219481D01*
X128324853Y-83080100D01*
X128260703Y-82925228D01*
X128228000Y-82760816D01*
X128228000Y-82593184D01*
X128260703Y-82428772D01*
X128324853Y-82273900D01*
X128417985Y-82134519D01*
X128536519Y-82015985D01*
X128675900Y-81922853D01*
X128830772Y-81858703D01*
X128995184Y-81826000D01*
X129162816Y-81826000D01*
X129327228Y-81858703D01*
G37*
G36*
X124327228Y-81858703D02*
G01*
X124482100Y-81922853D01*
X124621481Y-82015985D01*
X124740015Y-82134519D01*
X124833147Y-82273900D01*
X124897297Y-82428772D01*
X124930000Y-82593184D01*
X124930000Y-82760816D01*
X124897297Y-82925228D01*
X124833147Y-83080100D01*
X124740015Y-83219481D01*
X124621481Y-83338015D01*
X124482100Y-83431147D01*
X124327228Y-83495297D01*
X124162816Y-83528000D01*
X123995184Y-83528000D01*
X123830772Y-83495297D01*
X123675900Y-83431147D01*
X123536519Y-83338015D01*
X123417985Y-83219481D01*
X123324853Y-83080100D01*
X123260703Y-82925228D01*
X123228000Y-82760816D01*
X123228000Y-82593184D01*
X123260703Y-82428772D01*
X123324853Y-82273900D01*
X123417985Y-82134519D01*
X123536519Y-82015985D01*
X123675900Y-81922853D01*
X123830772Y-81858703D01*
X123995184Y-81826000D01*
X124162816Y-81826000D01*
X124327228Y-81858703D01*
G37*
G36*
X60565512Y-77970927D02*
G01*
X60714812Y-78000624D01*
X60878784Y-78068544D01*
X61026354Y-78167147D01*
X61151853Y-78292646D01*
X61250456Y-78440216D01*
X61318376Y-78604188D01*
X61353000Y-78778259D01*
X61353000Y-78955741D01*
X61318376Y-79129812D01*
X61250456Y-79293784D01*
X61151853Y-79441354D01*
X61026354Y-79566853D01*
X60878784Y-79665456D01*
X60714812Y-79733376D01*
X60565512Y-79763073D01*
X60540742Y-79768000D01*
X60363258Y-79768000D01*
X60338488Y-79763073D01*
X60189188Y-79733376D01*
X60025216Y-79665456D01*
X59877646Y-79566853D01*
X59752147Y-79441354D01*
X59653544Y-79293784D01*
X59585624Y-79129812D01*
X59551000Y-78955741D01*
X59551000Y-78778259D01*
X59585624Y-78604188D01*
X59653544Y-78440216D01*
X59752147Y-78292646D01*
X59877646Y-78167147D01*
X60025216Y-78068544D01*
X60189188Y-78000624D01*
X60338488Y-77970927D01*
X60363258Y-77966000D01*
X60540742Y-77966000D01*
X60565512Y-77970927D01*
G37*
G36*
X110941228Y-76692703D02*
G01*
X111096100Y-76756853D01*
X111235481Y-76849985D01*
X111354015Y-76968519D01*
X111447147Y-77107900D01*
X111511297Y-77262772D01*
X111544000Y-77427184D01*
X111544000Y-77594816D01*
X111511297Y-77759228D01*
X111447147Y-77914100D01*
X111354015Y-78053481D01*
X111235481Y-78172015D01*
X111096100Y-78265147D01*
X110941228Y-78329297D01*
X110776816Y-78362000D01*
X110609184Y-78362000D01*
X110444772Y-78329297D01*
X110289900Y-78265147D01*
X110150519Y-78172015D01*
X110031985Y-78053481D01*
X109938853Y-77914100D01*
X109874703Y-77759228D01*
X109842000Y-77594816D01*
X109842000Y-77427184D01*
X109874703Y-77262772D01*
X109938853Y-77107900D01*
X110031985Y-76968519D01*
X110150519Y-76849985D01*
X110289900Y-76756853D01*
X110444772Y-76692703D01*
X110609184Y-76660000D01*
X110776816Y-76660000D01*
X110941228Y-76692703D01*
G37*
G36*
X115941228Y-76692703D02*
G01*
X116096100Y-76756853D01*
X116235481Y-76849985D01*
X116354015Y-76968519D01*
X116447147Y-77107900D01*
X116511297Y-77262772D01*
X116544000Y-77427184D01*
X116544000Y-77594816D01*
X116511297Y-77759228D01*
X116447147Y-77914100D01*
X116354015Y-78053481D01*
X116235481Y-78172015D01*
X116096100Y-78265147D01*
X115941228Y-78329297D01*
X115776816Y-78362000D01*
X115609184Y-78362000D01*
X115444772Y-78329297D01*
X115289900Y-78265147D01*
X115150519Y-78172015D01*
X115031985Y-78053481D01*
X114938853Y-77914100D01*
X114874703Y-77759228D01*
X114842000Y-77594816D01*
X114842000Y-77427184D01*
X114874703Y-77262772D01*
X114938853Y-77107900D01*
X115031985Y-76968519D01*
X115150519Y-76849985D01*
X115289900Y-76756853D01*
X115444772Y-76692703D01*
X115609184Y-76660000D01*
X115776816Y-76660000D01*
X115941228Y-76692703D01*
G37*
G36*
X137027228Y-76651703D02*
G01*
X137182100Y-76715853D01*
X137321481Y-76808985D01*
X137440015Y-76927519D01*
X137533147Y-77066900D01*
X137597297Y-77221772D01*
X137630000Y-77386184D01*
X137630000Y-77553816D01*
X137597297Y-77718228D01*
X137533147Y-77873100D01*
X137440015Y-78012481D01*
X137321481Y-78131015D01*
X137182100Y-78224147D01*
X137027228Y-78288297D01*
X136862816Y-78321000D01*
X136695184Y-78321000D01*
X136530772Y-78288297D01*
X136375900Y-78224147D01*
X136236519Y-78131015D01*
X136117985Y-78012481D01*
X136024853Y-77873100D01*
X135960703Y-77718228D01*
X135928000Y-77553816D01*
X135928000Y-77386184D01*
X135960703Y-77221772D01*
X136024853Y-77066900D01*
X136117985Y-76927519D01*
X136236519Y-76808985D01*
X136375900Y-76715853D01*
X136530772Y-76651703D01*
X136695184Y-76619000D01*
X136862816Y-76619000D01*
X137027228Y-76651703D01*
G37*
G36*
X124073228Y-76651703D02*
G01*
X124228100Y-76715853D01*
X124367481Y-76808985D01*
X124486015Y-76927519D01*
X124579147Y-77066900D01*
X124643297Y-77221772D01*
X124676000Y-77386184D01*
X124676000Y-77553816D01*
X124643297Y-77718228D01*
X124579147Y-77873100D01*
X124486015Y-78012481D01*
X124367481Y-78131015D01*
X124228100Y-78224147D01*
X124073228Y-78288297D01*
X123908816Y-78321000D01*
X123741184Y-78321000D01*
X123576772Y-78288297D01*
X123421900Y-78224147D01*
X123282519Y-78131015D01*
X123163985Y-78012481D01*
X123070853Y-77873100D01*
X123006703Y-77718228D01*
X122974000Y-77553816D01*
X122974000Y-77386184D01*
X123006703Y-77221772D01*
X123070853Y-77066900D01*
X123163985Y-76927519D01*
X123282519Y-76808985D01*
X123421900Y-76715853D01*
X123576772Y-76651703D01*
X123741184Y-76619000D01*
X123908816Y-76619000D01*
X124073228Y-76651703D01*
G37*
G36*
X129073228Y-76651703D02*
G01*
X129228100Y-76715853D01*
X129367481Y-76808985D01*
X129486015Y-76927519D01*
X129579147Y-77066900D01*
X129643297Y-77221772D01*
X129676000Y-77386184D01*
X129676000Y-77553816D01*
X129643297Y-77718228D01*
X129579147Y-77873100D01*
X129486015Y-78012481D01*
X129367481Y-78131015D01*
X129228100Y-78224147D01*
X129073228Y-78288297D01*
X128908816Y-78321000D01*
X128741184Y-78321000D01*
X128576772Y-78288297D01*
X128421900Y-78224147D01*
X128282519Y-78131015D01*
X128163985Y-78012481D01*
X128070853Y-77873100D01*
X128006703Y-77718228D01*
X127974000Y-77553816D01*
X127974000Y-77386184D01*
X128006703Y-77221772D01*
X128070853Y-77066900D01*
X128163985Y-76927519D01*
X128282519Y-76808985D01*
X128421900Y-76715853D01*
X128576772Y-76651703D01*
X128741184Y-76619000D01*
X128908816Y-76619000D01*
X129073228Y-76651703D01*
G37*
G36*
X142027228Y-76651703D02*
G01*
X142182100Y-76715853D01*
X142321481Y-76808985D01*
X142440015Y-76927519D01*
X142533147Y-77066900D01*
X142597297Y-77221772D01*
X142630000Y-77386184D01*
X142630000Y-77553816D01*
X142597297Y-77718228D01*
X142533147Y-77873100D01*
X142440015Y-78012481D01*
X142321481Y-78131015D01*
X142182100Y-78224147D01*
X142027228Y-78288297D01*
X141862816Y-78321000D01*
X141695184Y-78321000D01*
X141530772Y-78288297D01*
X141375900Y-78224147D01*
X141236519Y-78131015D01*
X141117985Y-78012481D01*
X141024853Y-77873100D01*
X140960703Y-77718228D01*
X140928000Y-77553816D01*
X140928000Y-77386184D01*
X140960703Y-77221772D01*
X141024853Y-77066900D01*
X141117985Y-76927519D01*
X141236519Y-76808985D01*
X141375900Y-76715853D01*
X141530772Y-76651703D01*
X141695184Y-76619000D01*
X141862816Y-76619000D01*
X142027228Y-76651703D01*
G37*
G36*
X85394015Y-73786973D02*
G01*
X85497879Y-73818479D01*
X85517783Y-73829118D01*
X85593600Y-73869643D01*
X85677501Y-73938499D01*
X85746357Y-74022400D01*
X85782995Y-74090945D01*
X85797521Y-74118121D01*
X85829027Y-74221985D01*
X85839666Y-74330000D01*
X85829027Y-74438015D01*
X85797521Y-74541879D01*
X85782995Y-74569055D01*
X85746357Y-74637600D01*
X85677501Y-74721501D01*
X85593600Y-74790357D01*
X85528228Y-74825299D01*
X85497879Y-74841521D01*
X85485131Y-74845388D01*
X85462504Y-74854760D01*
X85442130Y-74868374D01*
X85424803Y-74885701D01*
X85411189Y-74906075D01*
X85401812Y-74928714D01*
X85397031Y-74952747D01*
X85397031Y-74977251D01*
X85401811Y-75001285D01*
X85411188Y-75023924D01*
X85424802Y-75044298D01*
X85442129Y-75061625D01*
X85462503Y-75075239D01*
X85485131Y-75084612D01*
X85497879Y-75088479D01*
X85517783Y-75099118D01*
X85593600Y-75139643D01*
X85677501Y-75208499D01*
X85746357Y-75292400D01*
X85782995Y-75360945D01*
X85797521Y-75388121D01*
X85829027Y-75491985D01*
X85839666Y-75600000D01*
X85829027Y-75708015D01*
X85797521Y-75811879D01*
X85791664Y-75822836D01*
X85746357Y-75907600D01*
X85680988Y-75987252D01*
X85677501Y-75991501D01*
X85593600Y-76060356D01*
X85549807Y-76083764D01*
X85529437Y-76097375D01*
X85512110Y-76114702D01*
X85498496Y-76135076D01*
X85489119Y-76157715D01*
X85484338Y-76181748D01*
X85484338Y-76206252D01*
X85489118Y-76230286D01*
X85498495Y-76252924D01*
X85512109Y-76273299D01*
X85529436Y-76290626D01*
X85549810Y-76304240D01*
X85572449Y-76313617D01*
X85596482Y-76318398D01*
X85608735Y-76319000D01*
X85837000Y-76319000D01*
X85837000Y-77421000D01*
X84235000Y-77421000D01*
X84235000Y-76319000D01*
X84463265Y-76319000D01*
X84487651Y-76316598D01*
X84511100Y-76309485D01*
X84532711Y-76297934D01*
X84551653Y-76282389D01*
X84567198Y-76263447D01*
X84578749Y-76241836D01*
X84585862Y-76218387D01*
X84588264Y-76194001D01*
X84585862Y-76169615D01*
X84578749Y-76146166D01*
X84567198Y-76124555D01*
X84551653Y-76105613D01*
X84532711Y-76090068D01*
X84522198Y-76083767D01*
X84478400Y-76060356D01*
X84394499Y-75991501D01*
X84391012Y-75987252D01*
X84325643Y-75907600D01*
X84280336Y-75822836D01*
X84274479Y-75811879D01*
X84242973Y-75708015D01*
X84232334Y-75600000D01*
X84242973Y-75491985D01*
X84274479Y-75388121D01*
X84289005Y-75360945D01*
X84325643Y-75292400D01*
X84394499Y-75208499D01*
X84478400Y-75139643D01*
X84554217Y-75099118D01*
X84574121Y-75088479D01*
X84586869Y-75084612D01*
X84609496Y-75075240D01*
X84629870Y-75061626D01*
X84647197Y-75044299D01*
X84660811Y-75023925D01*
X84670188Y-75001286D01*
X84674969Y-74977253D01*
X84674969Y-74952749D01*
X84670189Y-74928715D01*
X84660812Y-74906076D01*
X84647198Y-74885702D01*
X84629871Y-74868375D01*
X84609497Y-74854761D01*
X84586869Y-74845388D01*
X84574121Y-74841521D01*
X84543772Y-74825299D01*
X84478400Y-74790357D01*
X84394499Y-74721501D01*
X84325643Y-74637600D01*
X84289005Y-74569055D01*
X84274479Y-74541879D01*
X84242973Y-74438015D01*
X84232334Y-74330000D01*
X84242973Y-74221985D01*
X84274479Y-74118121D01*
X84289005Y-74090945D01*
X84325643Y-74022400D01*
X84394499Y-73938499D01*
X84478400Y-73869643D01*
X84554217Y-73829118D01*
X84574121Y-73818479D01*
X84677985Y-73786973D01*
X84758933Y-73779000D01*
X85313067Y-73779000D01*
X85394015Y-73786973D01*
G37*
G36*
X60565512Y-75430927D02*
G01*
X60714812Y-75460624D01*
X60878784Y-75528544D01*
X61026354Y-75627147D01*
X61151853Y-75752646D01*
X61250456Y-75900216D01*
X61318376Y-76064188D01*
X61353000Y-76238259D01*
X61353000Y-76415741D01*
X61318376Y-76589812D01*
X61250456Y-76753784D01*
X61151853Y-76901354D01*
X61026354Y-77026853D01*
X60878784Y-77125456D01*
X60714812Y-77193376D01*
X60572057Y-77221771D01*
X60540742Y-77228000D01*
X60363258Y-77228000D01*
X60331943Y-77221771D01*
X60189188Y-77193376D01*
X60025216Y-77125456D01*
X59877646Y-77026853D01*
X59752147Y-76901354D01*
X59653544Y-76753784D01*
X59585624Y-76589812D01*
X59551000Y-76415741D01*
X59551000Y-76238259D01*
X59585624Y-76064188D01*
X59653544Y-75900216D01*
X59752147Y-75752646D01*
X59877646Y-75627147D01*
X60025216Y-75528544D01*
X60189188Y-75460624D01*
X60338488Y-75430927D01*
X60363258Y-75426000D01*
X60540742Y-75426000D01*
X60565512Y-75430927D01*
G37*
G36*
X77935015Y-73567973D02*
G01*
X78038879Y-73599479D01*
X78066055Y-73614005D01*
X78134600Y-73650643D01*
X78218501Y-73719499D01*
X78287357Y-73803400D01*
X78322764Y-73869643D01*
X78338521Y-73899121D01*
X78370027Y-74002985D01*
X78380666Y-74111000D01*
X78370027Y-74219015D01*
X78338521Y-74322879D01*
X78332042Y-74335000D01*
X78287357Y-74418600D01*
X78218501Y-74502501D01*
X78134600Y-74571357D01*
X78071800Y-74604924D01*
X78038879Y-74622521D01*
X78026131Y-74626388D01*
X78003504Y-74635760D01*
X77983130Y-74649374D01*
X77965803Y-74666701D01*
X77952189Y-74687075D01*
X77942812Y-74709714D01*
X77938031Y-74733747D01*
X77938031Y-74758251D01*
X77942811Y-74782285D01*
X77952188Y-74804924D01*
X77965802Y-74825298D01*
X77983129Y-74842625D01*
X78003503Y-74856239D01*
X78026131Y-74865612D01*
X78038879Y-74869479D01*
X78060433Y-74881000D01*
X78134600Y-74920643D01*
X78218501Y-74989499D01*
X78287357Y-75073400D01*
X78322764Y-75139643D01*
X78338521Y-75169121D01*
X78370027Y-75272985D01*
X78380666Y-75381000D01*
X78370027Y-75489015D01*
X78338521Y-75592879D01*
X78334626Y-75600166D01*
X78287357Y-75688600D01*
X78219441Y-75771356D01*
X78218501Y-75772501D01*
X78134600Y-75841356D01*
X78090807Y-75864764D01*
X78070437Y-75878375D01*
X78053110Y-75895702D01*
X78039496Y-75916076D01*
X78030119Y-75938715D01*
X78025338Y-75962748D01*
X78025338Y-75987252D01*
X78030118Y-76011286D01*
X78039495Y-76033924D01*
X78053109Y-76054299D01*
X78070436Y-76071626D01*
X78090810Y-76085240D01*
X78113449Y-76094617D01*
X78137482Y-76099398D01*
X78149735Y-76100000D01*
X78378000Y-76100000D01*
X78378000Y-77202000D01*
X76776000Y-77202000D01*
X76776000Y-76100000D01*
X77004265Y-76100000D01*
X77028651Y-76097598D01*
X77052100Y-76090485D01*
X77073711Y-76078934D01*
X77092653Y-76063389D01*
X77108198Y-76044447D01*
X77119749Y-76022836D01*
X77126862Y-75999387D01*
X77129264Y-75975001D01*
X77126862Y-75950615D01*
X77119749Y-75927166D01*
X77108198Y-75905555D01*
X77092653Y-75886613D01*
X77073711Y-75871068D01*
X77063198Y-75864767D01*
X77019400Y-75841356D01*
X76935499Y-75772501D01*
X76934559Y-75771356D01*
X76866643Y-75688600D01*
X76819374Y-75600166D01*
X76815479Y-75592879D01*
X76783973Y-75489015D01*
X76773334Y-75381000D01*
X76783973Y-75272985D01*
X76815479Y-75169121D01*
X76831236Y-75139643D01*
X76866643Y-75073400D01*
X76935499Y-74989499D01*
X77019400Y-74920643D01*
X77093567Y-74881000D01*
X77115121Y-74869479D01*
X77127869Y-74865612D01*
X77150496Y-74856240D01*
X77170870Y-74842626D01*
X77188197Y-74825299D01*
X77201811Y-74804925D01*
X77211188Y-74782286D01*
X77215969Y-74758253D01*
X77215969Y-74733749D01*
X77211189Y-74709715D01*
X77201812Y-74687076D01*
X77188198Y-74666702D01*
X77170871Y-74649375D01*
X77150497Y-74635761D01*
X77127869Y-74626388D01*
X77115121Y-74622521D01*
X77082200Y-74604924D01*
X77019400Y-74571357D01*
X76935499Y-74502501D01*
X76866643Y-74418600D01*
X76821958Y-74335000D01*
X76815479Y-74322879D01*
X76783973Y-74219015D01*
X76773334Y-74111000D01*
X76783973Y-74002985D01*
X76815479Y-73899121D01*
X76831236Y-73869643D01*
X76866643Y-73803400D01*
X76935499Y-73719499D01*
X77019400Y-73650643D01*
X77087945Y-73614005D01*
X77115121Y-73599479D01*
X77218985Y-73567973D01*
X77299933Y-73560000D01*
X77854067Y-73560000D01*
X77935015Y-73567973D01*
G37*
G36*
X70081015Y-73497973D02*
G01*
X70184879Y-73529479D01*
X70212055Y-73544005D01*
X70280600Y-73580643D01*
X70364501Y-73649499D01*
X70433357Y-73733400D01*
X70460403Y-73784000D01*
X70484521Y-73829121D01*
X70516027Y-73932985D01*
X70526666Y-74041000D01*
X70516027Y-74149015D01*
X70484521Y-74252879D01*
X70484519Y-74252882D01*
X70433357Y-74348600D01*
X70364501Y-74432501D01*
X70280600Y-74501357D01*
X70228436Y-74529239D01*
X70184879Y-74552521D01*
X70172131Y-74556388D01*
X70149504Y-74565760D01*
X70129130Y-74579374D01*
X70111803Y-74596701D01*
X70098189Y-74617075D01*
X70088812Y-74639714D01*
X70084031Y-74663747D01*
X70084031Y-74688251D01*
X70088811Y-74712285D01*
X70098188Y-74734924D01*
X70111802Y-74755298D01*
X70129129Y-74772625D01*
X70149503Y-74786239D01*
X70172131Y-74795612D01*
X70184879Y-74799479D01*
X70212055Y-74814005D01*
X70280600Y-74850643D01*
X70364501Y-74919499D01*
X70433357Y-75003400D01*
X70460403Y-75054000D01*
X70484521Y-75099121D01*
X70516027Y-75202985D01*
X70526666Y-75311000D01*
X70516027Y-75419015D01*
X70484521Y-75522879D01*
X70484519Y-75522882D01*
X70433357Y-75618600D01*
X70377540Y-75686613D01*
X70364501Y-75702501D01*
X70280600Y-75771356D01*
X70236807Y-75794764D01*
X70216437Y-75808375D01*
X70199110Y-75825702D01*
X70185496Y-75846076D01*
X70176119Y-75868715D01*
X70171338Y-75892748D01*
X70171338Y-75917252D01*
X70176118Y-75941286D01*
X70185495Y-75963924D01*
X70199109Y-75984299D01*
X70216436Y-76001626D01*
X70236810Y-76015240D01*
X70259449Y-76024617D01*
X70283482Y-76029398D01*
X70295735Y-76030000D01*
X70524000Y-76030000D01*
X70524000Y-77132000D01*
X68922000Y-77132000D01*
X68922000Y-76030000D01*
X69150265Y-76030000D01*
X69174651Y-76027598D01*
X69198100Y-76020485D01*
X69219711Y-76008934D01*
X69238653Y-75993389D01*
X69254198Y-75974447D01*
X69265749Y-75952836D01*
X69272862Y-75929387D01*
X69275264Y-75905001D01*
X69272862Y-75880615D01*
X69265749Y-75857166D01*
X69254198Y-75835555D01*
X69238653Y-75816613D01*
X69219711Y-75801068D01*
X69209198Y-75794767D01*
X69165400Y-75771356D01*
X69081499Y-75702501D01*
X69068460Y-75686613D01*
X69012643Y-75618600D01*
X68961481Y-75522882D01*
X68961479Y-75522879D01*
X68929973Y-75419015D01*
X68919334Y-75311000D01*
X68929973Y-75202985D01*
X68961479Y-75099121D01*
X68985597Y-75054000D01*
X69012643Y-75003400D01*
X69081499Y-74919499D01*
X69165400Y-74850643D01*
X69233945Y-74814005D01*
X69261121Y-74799479D01*
X69273869Y-74795612D01*
X69296496Y-74786240D01*
X69316870Y-74772626D01*
X69334197Y-74755299D01*
X69347811Y-74734925D01*
X69357188Y-74712286D01*
X69361969Y-74688253D01*
X69361969Y-74663749D01*
X69357189Y-74639715D01*
X69347812Y-74617076D01*
X69334198Y-74596702D01*
X69316871Y-74579375D01*
X69296497Y-74565761D01*
X69273869Y-74556388D01*
X69261121Y-74552521D01*
X69217564Y-74529239D01*
X69165400Y-74501357D01*
X69081499Y-74432501D01*
X69012643Y-74348600D01*
X68961481Y-74252882D01*
X68961479Y-74252879D01*
X68929973Y-74149015D01*
X68919334Y-74041000D01*
X68929973Y-73932985D01*
X68961479Y-73829121D01*
X68985597Y-73784000D01*
X69012643Y-73733400D01*
X69081499Y-73649499D01*
X69165400Y-73580643D01*
X69233945Y-73544005D01*
X69261121Y-73529479D01*
X69364985Y-73497973D01*
X69445933Y-73490000D01*
X70000067Y-73490000D01*
X70081015Y-73497973D01*
G37*
G36*
X93886015Y-73367973D02*
G01*
X93989879Y-73399479D01*
X94017055Y-73414005D01*
X94085600Y-73450643D01*
X94169501Y-73519499D01*
X94238357Y-73603400D01*
X94263609Y-73650644D01*
X94289521Y-73699121D01*
X94321027Y-73802985D01*
X94331666Y-73911000D01*
X94321027Y-74019015D01*
X94289521Y-74122879D01*
X94289519Y-74122882D01*
X94238357Y-74218600D01*
X94169501Y-74302501D01*
X94085600Y-74371357D01*
X94019386Y-74406749D01*
X93989879Y-74422521D01*
X93977131Y-74426388D01*
X93954504Y-74435760D01*
X93934130Y-74449374D01*
X93916803Y-74466701D01*
X93903189Y-74487075D01*
X93893812Y-74509714D01*
X93889031Y-74533747D01*
X93889031Y-74558251D01*
X93893811Y-74582285D01*
X93903188Y-74604924D01*
X93916802Y-74625298D01*
X93934129Y-74642625D01*
X93954503Y-74656239D01*
X93977131Y-74665612D01*
X93989879Y-74669479D01*
X94017055Y-74684005D01*
X94085600Y-74720643D01*
X94169501Y-74789499D01*
X94238357Y-74873400D01*
X94263609Y-74920644D01*
X94289521Y-74969121D01*
X94321027Y-75072985D01*
X94331666Y-75181000D01*
X94321027Y-75289015D01*
X94289521Y-75392879D01*
X94289519Y-75392882D01*
X94238357Y-75488600D01*
X94180078Y-75559613D01*
X94169501Y-75572501D01*
X94085600Y-75641356D01*
X94041807Y-75664764D01*
X94021437Y-75678375D01*
X94004110Y-75695702D01*
X93990496Y-75716076D01*
X93981119Y-75738715D01*
X93976338Y-75762748D01*
X93976338Y-75787252D01*
X93981118Y-75811286D01*
X93990495Y-75833924D01*
X94004109Y-75854299D01*
X94021436Y-75871626D01*
X94041810Y-75885240D01*
X94064449Y-75894617D01*
X94088482Y-75899398D01*
X94100735Y-75900000D01*
X94329000Y-75900000D01*
X94329000Y-77002000D01*
X92727000Y-77002000D01*
X92727000Y-75900000D01*
X92955265Y-75900000D01*
X92979651Y-75897598D01*
X93003100Y-75890485D01*
X93024711Y-75878934D01*
X93043653Y-75863389D01*
X93059198Y-75844447D01*
X93070749Y-75822836D01*
X93077862Y-75799387D01*
X93080264Y-75775001D01*
X93077862Y-75750615D01*
X93070749Y-75727166D01*
X93059198Y-75705555D01*
X93043653Y-75686613D01*
X93024711Y-75671068D01*
X93014198Y-75664767D01*
X92970400Y-75641356D01*
X92886499Y-75572501D01*
X92875922Y-75559613D01*
X92817643Y-75488600D01*
X92766481Y-75392882D01*
X92766479Y-75392879D01*
X92734973Y-75289015D01*
X92724334Y-75181000D01*
X92734973Y-75072985D01*
X92766479Y-74969121D01*
X92792391Y-74920644D01*
X92817643Y-74873400D01*
X92886499Y-74789499D01*
X92970400Y-74720643D01*
X93038945Y-74684005D01*
X93066121Y-74669479D01*
X93078869Y-74665612D01*
X93101496Y-74656240D01*
X93121870Y-74642626D01*
X93139197Y-74625299D01*
X93152811Y-74604925D01*
X93162188Y-74582286D01*
X93166969Y-74558253D01*
X93166969Y-74533749D01*
X93162189Y-74509715D01*
X93152812Y-74487076D01*
X93139198Y-74466702D01*
X93121871Y-74449375D01*
X93101497Y-74435761D01*
X93078869Y-74426388D01*
X93066121Y-74422521D01*
X93036614Y-74406749D01*
X92970400Y-74371357D01*
X92886499Y-74302501D01*
X92817643Y-74218600D01*
X92766481Y-74122882D01*
X92766479Y-74122879D01*
X92734973Y-74019015D01*
X92724334Y-73911000D01*
X92734973Y-73802985D01*
X92766479Y-73699121D01*
X92792391Y-73650644D01*
X92817643Y-73603400D01*
X92886499Y-73519499D01*
X92970400Y-73450643D01*
X93038945Y-73414005D01*
X93066121Y-73399479D01*
X93169985Y-73367973D01*
X93250933Y-73360000D01*
X93805067Y-73360000D01*
X93886015Y-73367973D01*
G37*
G36*
X101853015Y-73240973D02*
G01*
X101956879Y-73272479D01*
X101984055Y-73287005D01*
X102052600Y-73323643D01*
X102136501Y-73392499D01*
X102205357Y-73476400D01*
X102233728Y-73529479D01*
X102256521Y-73572121D01*
X102288027Y-73675985D01*
X102298666Y-73784000D01*
X102288027Y-73892015D01*
X102256521Y-73995879D01*
X102244155Y-74019013D01*
X102205357Y-74091600D01*
X102136501Y-74175501D01*
X102052600Y-74244357D01*
X101984055Y-74280995D01*
X101956879Y-74295521D01*
X101944131Y-74299388D01*
X101921504Y-74308760D01*
X101901130Y-74322374D01*
X101883803Y-74339701D01*
X101870189Y-74360075D01*
X101860812Y-74382714D01*
X101856031Y-74406747D01*
X101856031Y-74431251D01*
X101860811Y-74455285D01*
X101870188Y-74477924D01*
X101883802Y-74498298D01*
X101901129Y-74515625D01*
X101921503Y-74529239D01*
X101944131Y-74538612D01*
X101956879Y-74542479D01*
X101975662Y-74552519D01*
X102052600Y-74593643D01*
X102136501Y-74662499D01*
X102205357Y-74746400D01*
X102236639Y-74804925D01*
X102256521Y-74842121D01*
X102288027Y-74945985D01*
X102298666Y-75054000D01*
X102288027Y-75162015D01*
X102256521Y-75265879D01*
X102244155Y-75289013D01*
X102205357Y-75361600D01*
X102152505Y-75426000D01*
X102136501Y-75445501D01*
X102052600Y-75514356D01*
X102008807Y-75537764D01*
X101988437Y-75551375D01*
X101971110Y-75568702D01*
X101957496Y-75589076D01*
X101948119Y-75611715D01*
X101943338Y-75635748D01*
X101943338Y-75660252D01*
X101948118Y-75684286D01*
X101957495Y-75706924D01*
X101971109Y-75727299D01*
X101988436Y-75744626D01*
X102008810Y-75758240D01*
X102031449Y-75767617D01*
X102055482Y-75772398D01*
X102067735Y-75773000D01*
X102296000Y-75773000D01*
X102296000Y-76875000D01*
X100694000Y-76875000D01*
X100694000Y-75773000D01*
X100922265Y-75773000D01*
X100946651Y-75770598D01*
X100970100Y-75763485D01*
X100991711Y-75751934D01*
X101010653Y-75736389D01*
X101026198Y-75717447D01*
X101037749Y-75695836D01*
X101044862Y-75672387D01*
X101047264Y-75648001D01*
X101044862Y-75623615D01*
X101037749Y-75600166D01*
X101026198Y-75578555D01*
X101010653Y-75559613D01*
X100991711Y-75544068D01*
X100981198Y-75537767D01*
X100937400Y-75514356D01*
X100853499Y-75445501D01*
X100837495Y-75426000D01*
X100784643Y-75361600D01*
X100745845Y-75289013D01*
X100733479Y-75265879D01*
X100701973Y-75162015D01*
X100691334Y-75054000D01*
X100701973Y-74945985D01*
X100733479Y-74842121D01*
X100753361Y-74804925D01*
X100784643Y-74746400D01*
X100853499Y-74662499D01*
X100937400Y-74593643D01*
X101014338Y-74552519D01*
X101033121Y-74542479D01*
X101045869Y-74538612D01*
X101068496Y-74529240D01*
X101088870Y-74515626D01*
X101106197Y-74498299D01*
X101119811Y-74477925D01*
X101129188Y-74455286D01*
X101133969Y-74431253D01*
X101133969Y-74406749D01*
X101129189Y-74382715D01*
X101119812Y-74360076D01*
X101106198Y-74339702D01*
X101088871Y-74322375D01*
X101068497Y-74308761D01*
X101045869Y-74299388D01*
X101033121Y-74295521D01*
X101005945Y-74280995D01*
X100937400Y-74244357D01*
X100853499Y-74175501D01*
X100784643Y-74091600D01*
X100745845Y-74019013D01*
X100733479Y-73995879D01*
X100701973Y-73892015D01*
X100691334Y-73784000D01*
X100701973Y-73675985D01*
X100733479Y-73572121D01*
X100756272Y-73529479D01*
X100784643Y-73476400D01*
X100853499Y-73392499D01*
X100937400Y-73323643D01*
X101005945Y-73287005D01*
X101033121Y-73272479D01*
X101136985Y-73240973D01*
X101217933Y-73233000D01*
X101772067Y-73233000D01*
X101853015Y-73240973D01*
G37*
G36*
X61353000Y-74688000D02*
G01*
X59551000Y-74688000D01*
X59551000Y-72886000D01*
X61353000Y-72886000D01*
X61353000Y-74688000D01*
G37*
G36*
X142027228Y-71444703D02*
G01*
X142182100Y-71508853D01*
X142321481Y-71601985D01*
X142440015Y-71720519D01*
X142533147Y-71859900D01*
X142597297Y-72014772D01*
X142630000Y-72179184D01*
X142630000Y-72346816D01*
X142597297Y-72511228D01*
X142533147Y-72666100D01*
X142440015Y-72805481D01*
X142321481Y-72924015D01*
X142182100Y-73017147D01*
X142027228Y-73081297D01*
X141862816Y-73114000D01*
X141695184Y-73114000D01*
X141530772Y-73081297D01*
X141375900Y-73017147D01*
X141236519Y-72924015D01*
X141117985Y-72805481D01*
X141024853Y-72666100D01*
X140960703Y-72511228D01*
X140928000Y-72346816D01*
X140928000Y-72179184D01*
X140960703Y-72014772D01*
X141024853Y-71859900D01*
X141117985Y-71720519D01*
X141236519Y-71601985D01*
X141375900Y-71508853D01*
X141530772Y-71444703D01*
X141695184Y-71412000D01*
X141862816Y-71412000D01*
X142027228Y-71444703D01*
G37*
G36*
X137027228Y-71444703D02*
G01*
X137182100Y-71508853D01*
X137321481Y-71601985D01*
X137440015Y-71720519D01*
X137533147Y-71859900D01*
X137597297Y-72014772D01*
X137630000Y-72179184D01*
X137630000Y-72346816D01*
X137597297Y-72511228D01*
X137533147Y-72666100D01*
X137440015Y-72805481D01*
X137321481Y-72924015D01*
X137182100Y-73017147D01*
X137027228Y-73081297D01*
X136862816Y-73114000D01*
X136695184Y-73114000D01*
X136530772Y-73081297D01*
X136375900Y-73017147D01*
X136236519Y-72924015D01*
X136117985Y-72805481D01*
X136024853Y-72666100D01*
X135960703Y-72511228D01*
X135928000Y-72346816D01*
X135928000Y-72179184D01*
X135960703Y-72014772D01*
X136024853Y-71859900D01*
X136117985Y-71720519D01*
X136236519Y-71601985D01*
X136375900Y-71508853D01*
X136530772Y-71444703D01*
X136695184Y-71412000D01*
X136862816Y-71412000D01*
X137027228Y-71444703D01*
G37*
G36*
X124073228Y-71317703D02*
G01*
X124228100Y-71381853D01*
X124367481Y-71474985D01*
X124486015Y-71593519D01*
X124579147Y-71732900D01*
X124643297Y-71887772D01*
X124676000Y-72052184D01*
X124676000Y-72219816D01*
X124643297Y-72384228D01*
X124579147Y-72539100D01*
X124486015Y-72678481D01*
X124367481Y-72797015D01*
X124228100Y-72890147D01*
X124073228Y-72954297D01*
X123908816Y-72987000D01*
X123741184Y-72987000D01*
X123576772Y-72954297D01*
X123421900Y-72890147D01*
X123282519Y-72797015D01*
X123163985Y-72678481D01*
X123070853Y-72539100D01*
X123006703Y-72384228D01*
X122974000Y-72219816D01*
X122974000Y-72052184D01*
X123006703Y-71887772D01*
X123070853Y-71732900D01*
X123163985Y-71593519D01*
X123282519Y-71474985D01*
X123421900Y-71381853D01*
X123576772Y-71317703D01*
X123741184Y-71285000D01*
X123908816Y-71285000D01*
X124073228Y-71317703D01*
G37*
G36*
X129073228Y-71317703D02*
G01*
X129228100Y-71381853D01*
X129367481Y-71474985D01*
X129486015Y-71593519D01*
X129579147Y-71732900D01*
X129643297Y-71887772D01*
X129676000Y-72052184D01*
X129676000Y-72219816D01*
X129643297Y-72384228D01*
X129579147Y-72539100D01*
X129486015Y-72678481D01*
X129367481Y-72797015D01*
X129228100Y-72890147D01*
X129073228Y-72954297D01*
X128908816Y-72987000D01*
X128741184Y-72987000D01*
X128576772Y-72954297D01*
X128421900Y-72890147D01*
X128282519Y-72797015D01*
X128163985Y-72678481D01*
X128070853Y-72539100D01*
X128006703Y-72384228D01*
X127974000Y-72219816D01*
X127974000Y-72052184D01*
X128006703Y-71887772D01*
X128070853Y-71732900D01*
X128163985Y-71593519D01*
X128282519Y-71474985D01*
X128421900Y-71381853D01*
X128576772Y-71317703D01*
X128741184Y-71285000D01*
X128908816Y-71285000D01*
X129073228Y-71317703D01*
G37*
G36*
X111166228Y-71132703D02*
G01*
X111321100Y-71196853D01*
X111460481Y-71289985D01*
X111579015Y-71408519D01*
X111672147Y-71547900D01*
X111736297Y-71702772D01*
X111769000Y-71867184D01*
X111769000Y-72034816D01*
X111736297Y-72199228D01*
X111672147Y-72354100D01*
X111579015Y-72493481D01*
X111460481Y-72612015D01*
X111321100Y-72705147D01*
X111166228Y-72769297D01*
X111001816Y-72802000D01*
X110834184Y-72802000D01*
X110669772Y-72769297D01*
X110514900Y-72705147D01*
X110375519Y-72612015D01*
X110256985Y-72493481D01*
X110163853Y-72354100D01*
X110099703Y-72199228D01*
X110067000Y-72034816D01*
X110067000Y-71867184D01*
X110099703Y-71702772D01*
X110163853Y-71547900D01*
X110256985Y-71408519D01*
X110375519Y-71289985D01*
X110514900Y-71196853D01*
X110669772Y-71132703D01*
X110834184Y-71100000D01*
X111001816Y-71100000D01*
X111166228Y-71132703D01*
G37*
G36*
X116166228Y-71132703D02*
G01*
X116321100Y-71196853D01*
X116460481Y-71289985D01*
X116579015Y-71408519D01*
X116672147Y-71547900D01*
X116736297Y-71702772D01*
X116769000Y-71867184D01*
X116769000Y-72034816D01*
X116736297Y-72199228D01*
X116672147Y-72354100D01*
X116579015Y-72493481D01*
X116460481Y-72612015D01*
X116321100Y-72705147D01*
X116166228Y-72769297D01*
X116001816Y-72802000D01*
X115834184Y-72802000D01*
X115669772Y-72769297D01*
X115514900Y-72705147D01*
X115375519Y-72612015D01*
X115256985Y-72493481D01*
X115163853Y-72354100D01*
X115099703Y-72199228D01*
X115067000Y-72034816D01*
X115067000Y-71867184D01*
X115099703Y-71702772D01*
X115163853Y-71547900D01*
X115256985Y-71408519D01*
X115375519Y-71289985D01*
X115514900Y-71196853D01*
X115669772Y-71132703D01*
X115834184Y-71100000D01*
X116001816Y-71100000D01*
X116166228Y-71132703D01*
G37*
G36*
X150888000Y-72275000D02*
G01*
X149086000Y-72275000D01*
X149086000Y-70473000D01*
X150888000Y-70473000D01*
X150888000Y-72275000D01*
G37*
G36*
X60565512Y-66540927D02*
G01*
X60714812Y-66570624D01*
X60878784Y-66638544D01*
X61026354Y-66737147D01*
X61151853Y-66862646D01*
X61250456Y-67010216D01*
X61318376Y-67174188D01*
X61353000Y-67348259D01*
X61353000Y-67525741D01*
X61318376Y-67699812D01*
X61250456Y-67863784D01*
X61151853Y-68011354D01*
X61026354Y-68136853D01*
X60878784Y-68235456D01*
X60714812Y-68303376D01*
X60565512Y-68333073D01*
X60540742Y-68338000D01*
X60363258Y-68338000D01*
X60338488Y-68333073D01*
X60189188Y-68303376D01*
X60025216Y-68235456D01*
X59877646Y-68136853D01*
X59752147Y-68011354D01*
X59653544Y-67863784D01*
X59585624Y-67699812D01*
X59551000Y-67525741D01*
X59551000Y-67348259D01*
X59585624Y-67174188D01*
X59653544Y-67010216D01*
X59752147Y-66862646D01*
X59877646Y-66737147D01*
X60025216Y-66638544D01*
X60189188Y-66570624D01*
X60338488Y-66540927D01*
X60363258Y-66536000D01*
X60540742Y-66536000D01*
X60565512Y-66540927D01*
G37*
G36*
X102991228Y-65475703D02*
G01*
X103146100Y-65539853D01*
X103285481Y-65632985D01*
X103404015Y-65751519D01*
X103497147Y-65890900D01*
X103561297Y-66045772D01*
X103594000Y-66210184D01*
X103594000Y-66377816D01*
X103561297Y-66542228D01*
X103497147Y-66697100D01*
X103404015Y-66836481D01*
X103285481Y-66955015D01*
X103146100Y-67048147D01*
X102991228Y-67112297D01*
X102826816Y-67145000D01*
X102659184Y-67145000D01*
X102494772Y-67112297D01*
X102339900Y-67048147D01*
X102200519Y-66955015D01*
X102081985Y-66836481D01*
X101988853Y-66697100D01*
X101924703Y-66542228D01*
X101892000Y-66377816D01*
X101892000Y-66210184D01*
X101924703Y-66045772D01*
X101988853Y-65890900D01*
X102081985Y-65751519D01*
X102200519Y-65632985D01*
X102339900Y-65539853D01*
X102494772Y-65475703D01*
X102659184Y-65443000D01*
X102826816Y-65443000D01*
X102991228Y-65475703D01*
G37*
G36*
X110865228Y-65221703D02*
G01*
X111020100Y-65285853D01*
X111159481Y-65378985D01*
X111278015Y-65497519D01*
X111371147Y-65636900D01*
X111435297Y-65791772D01*
X111468000Y-65956184D01*
X111468000Y-66123816D01*
X111435297Y-66288228D01*
X111371147Y-66443100D01*
X111278015Y-66582481D01*
X111159481Y-66701015D01*
X111020100Y-66794147D01*
X110865228Y-66858297D01*
X110700816Y-66891000D01*
X110533184Y-66891000D01*
X110368772Y-66858297D01*
X110213900Y-66794147D01*
X110074519Y-66701015D01*
X109955985Y-66582481D01*
X109862853Y-66443100D01*
X109798703Y-66288228D01*
X109766000Y-66123816D01*
X109766000Y-65956184D01*
X109798703Y-65791772D01*
X109862853Y-65636900D01*
X109955985Y-65497519D01*
X110074519Y-65378985D01*
X110213900Y-65285853D01*
X110368772Y-65221703D01*
X110533184Y-65189000D01*
X110700816Y-65189000D01*
X110865228Y-65221703D01*
G37*
G36*
X118866228Y-65094703D02*
G01*
X119021100Y-65158853D01*
X119160481Y-65251985D01*
X119279015Y-65370519D01*
X119372147Y-65509900D01*
X119436297Y-65664772D01*
X119469000Y-65829184D01*
X119469000Y-65996816D01*
X119436297Y-66161228D01*
X119372147Y-66316100D01*
X119279015Y-66455481D01*
X119160481Y-66574015D01*
X119021100Y-66667147D01*
X118866228Y-66731297D01*
X118701816Y-66764000D01*
X118534184Y-66764000D01*
X118369772Y-66731297D01*
X118214900Y-66667147D01*
X118075519Y-66574015D01*
X117956985Y-66455481D01*
X117863853Y-66316100D01*
X117799703Y-66161228D01*
X117767000Y-65996816D01*
X117767000Y-65829184D01*
X117799703Y-65664772D01*
X117863853Y-65509900D01*
X117956985Y-65370519D01*
X118075519Y-65251985D01*
X118214900Y-65158853D01*
X118369772Y-65094703D01*
X118534184Y-65062000D01*
X118701816Y-65062000D01*
X118866228Y-65094703D01*
G37*
G36*
X127883228Y-65094703D02*
G01*
X128038100Y-65158853D01*
X128177481Y-65251985D01*
X128296015Y-65370519D01*
X128389147Y-65509900D01*
X128453297Y-65664772D01*
X128486000Y-65829184D01*
X128486000Y-65996816D01*
X128453297Y-66161228D01*
X128389147Y-66316100D01*
X128296015Y-66455481D01*
X128177481Y-66574015D01*
X128038100Y-66667147D01*
X127883228Y-66731297D01*
X127718816Y-66764000D01*
X127551184Y-66764000D01*
X127386772Y-66731297D01*
X127231900Y-66667147D01*
X127092519Y-66574015D01*
X126973985Y-66455481D01*
X126880853Y-66316100D01*
X126816703Y-66161228D01*
X126784000Y-65996816D01*
X126784000Y-65829184D01*
X126816703Y-65664772D01*
X126880853Y-65509900D01*
X126973985Y-65370519D01*
X127092519Y-65251985D01*
X127231900Y-65158853D01*
X127386772Y-65094703D01*
X127551184Y-65062000D01*
X127718816Y-65062000D01*
X127883228Y-65094703D01*
G37*
G36*
X85723589Y-65151876D02*
G01*
X85822893Y-65171629D01*
X85963206Y-65229748D01*
X86089484Y-65314125D01*
X86196875Y-65421516D01*
X86281252Y-65547794D01*
X86339371Y-65688107D01*
X86369000Y-65837063D01*
X86369000Y-65988937D01*
X86339371Y-66137893D01*
X86281252Y-66278206D01*
X86196875Y-66404484D01*
X86089484Y-66511875D01*
X85963206Y-66596252D01*
X85822893Y-66654371D01*
X85758663Y-66667147D01*
X85673938Y-66684000D01*
X85522062Y-66684000D01*
X85437337Y-66667147D01*
X85373107Y-66654371D01*
X85232794Y-66596252D01*
X85106516Y-66511875D01*
X84999125Y-66404484D01*
X84914748Y-66278206D01*
X84856629Y-66137893D01*
X84827000Y-65988937D01*
X84827000Y-65837063D01*
X84856629Y-65688107D01*
X84914748Y-65547794D01*
X84999125Y-65421516D01*
X85106516Y-65314125D01*
X85232794Y-65229748D01*
X85373107Y-65171629D01*
X85472411Y-65151876D01*
X85522062Y-65142000D01*
X85673938Y-65142000D01*
X85723589Y-65151876D01*
G37*
G36*
X71753589Y-65151876D02*
G01*
X71852893Y-65171629D01*
X71993206Y-65229748D01*
X72119484Y-65314125D01*
X72226875Y-65421516D01*
X72311252Y-65547794D01*
X72369371Y-65688107D01*
X72399000Y-65837063D01*
X72399000Y-65988937D01*
X72369371Y-66137893D01*
X72311252Y-66278206D01*
X72226875Y-66404484D01*
X72119484Y-66511875D01*
X71993206Y-66596252D01*
X71852893Y-66654371D01*
X71788663Y-66667147D01*
X71703938Y-66684000D01*
X71552062Y-66684000D01*
X71467337Y-66667147D01*
X71403107Y-66654371D01*
X71262794Y-66596252D01*
X71136516Y-66511875D01*
X71029125Y-66404484D01*
X70944748Y-66278206D01*
X70886629Y-66137893D01*
X70857000Y-65988937D01*
X70857000Y-65837063D01*
X70886629Y-65688107D01*
X70944748Y-65547794D01*
X71029125Y-65421516D01*
X71136516Y-65314125D01*
X71262794Y-65229748D01*
X71403107Y-65171629D01*
X71502411Y-65151876D01*
X71552062Y-65142000D01*
X71703938Y-65142000D01*
X71753589Y-65151876D01*
G37*
G36*
X135643228Y-64959703D02*
G01*
X135798100Y-65023853D01*
X135937481Y-65116985D01*
X136056015Y-65235519D01*
X136149147Y-65374900D01*
X136213297Y-65529772D01*
X136246000Y-65694184D01*
X136246000Y-65861816D01*
X136213297Y-66026228D01*
X136149147Y-66181100D01*
X136056015Y-66320481D01*
X135937481Y-66439015D01*
X135798100Y-66532147D01*
X135643228Y-66596297D01*
X135478816Y-66629000D01*
X135311184Y-66629000D01*
X135146772Y-66596297D01*
X134991900Y-66532147D01*
X134852519Y-66439015D01*
X134733985Y-66320481D01*
X134640853Y-66181100D01*
X134576703Y-66026228D01*
X134544000Y-65861816D01*
X134544000Y-65694184D01*
X134576703Y-65529772D01*
X134640853Y-65374900D01*
X134733985Y-65235519D01*
X134852519Y-65116985D01*
X134991900Y-65023853D01*
X135146772Y-64959703D01*
X135311184Y-64927000D01*
X135478816Y-64927000D01*
X135643228Y-64959703D01*
G37*
G36*
X142360228Y-64959703D02*
G01*
X142515100Y-65023853D01*
X142654481Y-65116985D01*
X142773015Y-65235519D01*
X142866147Y-65374900D01*
X142930297Y-65529772D01*
X142963000Y-65694184D01*
X142963000Y-65861816D01*
X142930297Y-66026228D01*
X142866147Y-66181100D01*
X142773015Y-66320481D01*
X142654481Y-66439015D01*
X142515100Y-66532147D01*
X142360228Y-66596297D01*
X142195816Y-66629000D01*
X142028184Y-66629000D01*
X141863772Y-66596297D01*
X141708900Y-66532147D01*
X141569519Y-66439015D01*
X141450985Y-66320481D01*
X141357853Y-66181100D01*
X141293703Y-66026228D01*
X141261000Y-65861816D01*
X141261000Y-65694184D01*
X141293703Y-65529772D01*
X141357853Y-65374900D01*
X141450985Y-65235519D01*
X141569519Y-65116985D01*
X141708900Y-65023853D01*
X141863772Y-64959703D01*
X142028184Y-64927000D01*
X142195816Y-64927000D01*
X142360228Y-64959703D01*
G37*
G36*
X150888000Y-66560000D02*
G01*
X149086000Y-66560000D01*
X149086000Y-64758000D01*
X150888000Y-64758000D01*
X150888000Y-66560000D01*
G37*
G36*
X60565512Y-64000927D02*
G01*
X60714812Y-64030624D01*
X60878784Y-64098544D01*
X61026354Y-64197147D01*
X61151853Y-64322646D01*
X61250456Y-64470216D01*
X61318376Y-64634188D01*
X61353000Y-64808259D01*
X61353000Y-64985741D01*
X61318376Y-65159812D01*
X61250456Y-65323784D01*
X61151853Y-65471354D01*
X61026354Y-65596853D01*
X60878784Y-65695456D01*
X60714812Y-65763376D01*
X60572057Y-65791771D01*
X60540742Y-65798000D01*
X60363258Y-65798000D01*
X60331943Y-65791771D01*
X60189188Y-65763376D01*
X60025216Y-65695456D01*
X59877646Y-65596853D01*
X59752147Y-65471354D01*
X59653544Y-65323784D01*
X59585624Y-65159812D01*
X59551000Y-64985741D01*
X59551000Y-64808259D01*
X59585624Y-64634188D01*
X59653544Y-64470216D01*
X59752147Y-64322646D01*
X59877646Y-64197147D01*
X60025216Y-64098544D01*
X60189188Y-64030624D01*
X60338488Y-64000927D01*
X60363258Y-63996000D01*
X60540742Y-63996000D01*
X60565512Y-64000927D01*
G37*
G36*
X76833589Y-62611876D02*
G01*
X76932893Y-62631629D01*
X77073206Y-62689748D01*
X77199484Y-62774125D01*
X77306875Y-62881516D01*
X77391252Y-63007794D01*
X77449371Y-63148107D01*
X77479000Y-63297063D01*
X77479000Y-63448937D01*
X77449371Y-63597893D01*
X77391252Y-63738206D01*
X77306875Y-63864484D01*
X77199484Y-63971875D01*
X77073206Y-64056252D01*
X76932893Y-64114371D01*
X76833589Y-64134124D01*
X76783938Y-64144000D01*
X76632062Y-64144000D01*
X76582411Y-64134124D01*
X76483107Y-64114371D01*
X76342794Y-64056252D01*
X76216516Y-63971875D01*
X76109125Y-63864484D01*
X76024748Y-63738206D01*
X75966629Y-63597893D01*
X75937000Y-63448937D01*
X75937000Y-63297063D01*
X75966629Y-63148107D01*
X76024748Y-63007794D01*
X76109125Y-62881516D01*
X76216516Y-62774125D01*
X76342794Y-62689748D01*
X76483107Y-62631629D01*
X76582411Y-62611876D01*
X76632062Y-62602000D01*
X76783938Y-62602000D01*
X76833589Y-62611876D01*
G37*
G36*
X90803589Y-62611876D02*
G01*
X90902893Y-62631629D01*
X91043206Y-62689748D01*
X91169484Y-62774125D01*
X91276875Y-62881516D01*
X91361252Y-63007794D01*
X91419371Y-63148107D01*
X91449000Y-63297063D01*
X91449000Y-63448937D01*
X91419371Y-63597893D01*
X91361252Y-63738206D01*
X91276875Y-63864484D01*
X91169484Y-63971875D01*
X91043206Y-64056252D01*
X90902893Y-64114371D01*
X90803589Y-64134124D01*
X90753938Y-64144000D01*
X90602062Y-64144000D01*
X90552411Y-64134124D01*
X90453107Y-64114371D01*
X90312794Y-64056252D01*
X90186516Y-63971875D01*
X90079125Y-63864484D01*
X89994748Y-63738206D01*
X89936629Y-63597893D01*
X89907000Y-63448937D01*
X89907000Y-63297063D01*
X89936629Y-63148107D01*
X89994748Y-63007794D01*
X90079125Y-62881516D01*
X90186516Y-62774125D01*
X90312794Y-62689748D01*
X90453107Y-62631629D01*
X90552411Y-62611876D01*
X90602062Y-62602000D01*
X90753938Y-62602000D01*
X90803589Y-62611876D01*
G37*
G36*
X60565512Y-61460927D02*
G01*
X60714812Y-61490624D01*
X60878784Y-61558544D01*
X61026354Y-61657147D01*
X61151853Y-61782646D01*
X61250456Y-61930216D01*
X61318376Y-62094188D01*
X61353000Y-62268259D01*
X61353000Y-62445741D01*
X61318376Y-62619812D01*
X61250456Y-62783784D01*
X61151853Y-62931354D01*
X61026354Y-63056853D01*
X60878784Y-63155456D01*
X60714812Y-63223376D01*
X60565512Y-63253073D01*
X60540742Y-63258000D01*
X60363258Y-63258000D01*
X60338488Y-63253073D01*
X60189188Y-63223376D01*
X60025216Y-63155456D01*
X59877646Y-63056853D01*
X59752147Y-62931354D01*
X59653544Y-62783784D01*
X59585624Y-62619812D01*
X59551000Y-62445741D01*
X59551000Y-62268259D01*
X59585624Y-62094188D01*
X59653544Y-61930216D01*
X59752147Y-61782646D01*
X59877646Y-61657147D01*
X60025216Y-61558544D01*
X60189188Y-61490624D01*
X60338488Y-61460927D01*
X60363258Y-61456000D01*
X60540742Y-61456000D01*
X60565512Y-61460927D01*
G37*
G36*
X85723589Y-60071876D02*
G01*
X85822893Y-60091629D01*
X85963206Y-60149748D01*
X86089484Y-60234125D01*
X86196875Y-60341516D01*
X86281252Y-60467794D01*
X86339371Y-60608107D01*
X86369000Y-60757063D01*
X86369000Y-60908937D01*
X86339371Y-61057893D01*
X86281252Y-61198206D01*
X86196875Y-61324484D01*
X86089484Y-61431875D01*
X85963206Y-61516252D01*
X85822893Y-61574371D01*
X85723589Y-61594124D01*
X85673938Y-61604000D01*
X85522062Y-61604000D01*
X85472411Y-61594124D01*
X85373107Y-61574371D01*
X85232794Y-61516252D01*
X85106516Y-61431875D01*
X84999125Y-61324484D01*
X84914748Y-61198206D01*
X84856629Y-61057893D01*
X84827000Y-60908937D01*
X84827000Y-60757063D01*
X84856629Y-60608107D01*
X84914748Y-60467794D01*
X84999125Y-60341516D01*
X85106516Y-60234125D01*
X85232794Y-60149748D01*
X85373107Y-60091629D01*
X85472411Y-60071876D01*
X85522062Y-60062000D01*
X85673938Y-60062000D01*
X85723589Y-60071876D01*
G37*
G36*
X71753589Y-60071876D02*
G01*
X71852893Y-60091629D01*
X71993206Y-60149748D01*
X72119484Y-60234125D01*
X72226875Y-60341516D01*
X72311252Y-60467794D01*
X72369371Y-60608107D01*
X72399000Y-60757063D01*
X72399000Y-60908937D01*
X72369371Y-61057893D01*
X72311252Y-61198206D01*
X72226875Y-61324484D01*
X72119484Y-61431875D01*
X71993206Y-61516252D01*
X71852893Y-61574371D01*
X71753589Y-61594124D01*
X71703938Y-61604000D01*
X71552062Y-61604000D01*
X71502411Y-61594124D01*
X71403107Y-61574371D01*
X71262794Y-61516252D01*
X71136516Y-61431875D01*
X71029125Y-61324484D01*
X70944748Y-61198206D01*
X70886629Y-61057893D01*
X70857000Y-60908937D01*
X70857000Y-60757063D01*
X70886629Y-60608107D01*
X70944748Y-60467794D01*
X71029125Y-60341516D01*
X71136516Y-60234125D01*
X71262794Y-60149748D01*
X71403107Y-60091629D01*
X71502411Y-60071876D01*
X71552062Y-60062000D01*
X71703938Y-60062000D01*
X71753589Y-60071876D01*
G37*
G36*
X60565512Y-58920927D02*
G01*
X60714812Y-58950624D01*
X60878784Y-59018544D01*
X61026354Y-59117147D01*
X61151853Y-59242646D01*
X61250456Y-59390216D01*
X61318376Y-59554188D01*
X61353000Y-59728259D01*
X61353000Y-59905741D01*
X61318376Y-60079812D01*
X61250456Y-60243784D01*
X61151853Y-60391354D01*
X61026354Y-60516853D01*
X60878784Y-60615456D01*
X60714812Y-60683376D01*
X60565512Y-60713073D01*
X60540742Y-60718000D01*
X60363258Y-60718000D01*
X60338488Y-60713073D01*
X60189188Y-60683376D01*
X60025216Y-60615456D01*
X59877646Y-60516853D01*
X59752147Y-60391354D01*
X59653544Y-60243784D01*
X59585624Y-60079812D01*
X59551000Y-59905741D01*
X59551000Y-59728259D01*
X59585624Y-59554188D01*
X59653544Y-59390216D01*
X59752147Y-59242646D01*
X59877646Y-59117147D01*
X60025216Y-59018544D01*
X60189188Y-58950624D01*
X60338488Y-58920927D01*
X60363258Y-58916000D01*
X60540742Y-58916000D01*
X60565512Y-58920927D01*
G37*
G36*
X102991228Y-57855703D02*
G01*
X103146100Y-57919853D01*
X103285481Y-58012985D01*
X103404015Y-58131519D01*
X103497147Y-58270900D01*
X103561297Y-58425772D01*
X103594000Y-58590184D01*
X103594000Y-58757816D01*
X103561297Y-58922228D01*
X103497147Y-59077100D01*
X103404015Y-59216481D01*
X103285481Y-59335015D01*
X103146100Y-59428147D01*
X102991228Y-59492297D01*
X102826816Y-59525000D01*
X102659184Y-59525000D01*
X102494772Y-59492297D01*
X102339900Y-59428147D01*
X102200519Y-59335015D01*
X102081985Y-59216481D01*
X101988853Y-59077100D01*
X101924703Y-58922228D01*
X101892000Y-58757816D01*
X101892000Y-58590184D01*
X101924703Y-58425772D01*
X101988853Y-58270900D01*
X102081985Y-58131519D01*
X102200519Y-58012985D01*
X102339900Y-57919853D01*
X102494772Y-57855703D01*
X102659184Y-57823000D01*
X102826816Y-57823000D01*
X102991228Y-57855703D01*
G37*
G36*
X110865228Y-57601703D02*
G01*
X111020100Y-57665853D01*
X111159481Y-57758985D01*
X111278015Y-57877519D01*
X111371147Y-58016900D01*
X111435297Y-58171772D01*
X111468000Y-58336184D01*
X111468000Y-58503816D01*
X111435297Y-58668228D01*
X111371147Y-58823100D01*
X111278015Y-58962481D01*
X111159481Y-59081015D01*
X111020100Y-59174147D01*
X110865228Y-59238297D01*
X110700816Y-59271000D01*
X110533184Y-59271000D01*
X110368772Y-59238297D01*
X110213900Y-59174147D01*
X110074519Y-59081015D01*
X109955985Y-58962481D01*
X109862853Y-58823100D01*
X109798703Y-58668228D01*
X109766000Y-58503816D01*
X109766000Y-58336184D01*
X109798703Y-58171772D01*
X109862853Y-58016900D01*
X109955985Y-57877519D01*
X110074519Y-57758985D01*
X110213900Y-57665853D01*
X110368772Y-57601703D01*
X110533184Y-57569000D01*
X110700816Y-57569000D01*
X110865228Y-57601703D01*
G37*
G36*
X127883228Y-57474703D02*
G01*
X128038100Y-57538853D01*
X128177481Y-57631985D01*
X128296015Y-57750519D01*
X128389147Y-57889900D01*
X128453297Y-58044772D01*
X128486000Y-58209184D01*
X128486000Y-58376816D01*
X128453297Y-58541228D01*
X128389147Y-58696100D01*
X128296015Y-58835481D01*
X128177481Y-58954015D01*
X128038100Y-59047147D01*
X127883228Y-59111297D01*
X127718816Y-59144000D01*
X127551184Y-59144000D01*
X127386772Y-59111297D01*
X127231900Y-59047147D01*
X127092519Y-58954015D01*
X126973985Y-58835481D01*
X126880853Y-58696100D01*
X126816703Y-58541228D01*
X126784000Y-58376816D01*
X126784000Y-58209184D01*
X126816703Y-58044772D01*
X126880853Y-57889900D01*
X126973985Y-57750519D01*
X127092519Y-57631985D01*
X127231900Y-57538853D01*
X127386772Y-57474703D01*
X127551184Y-57442000D01*
X127718816Y-57442000D01*
X127883228Y-57474703D01*
G37*
G36*
X118866228Y-57474703D02*
G01*
X119021100Y-57538853D01*
X119160481Y-57631985D01*
X119279015Y-57750519D01*
X119372147Y-57889900D01*
X119436297Y-58044772D01*
X119469000Y-58209184D01*
X119469000Y-58376816D01*
X119436297Y-58541228D01*
X119372147Y-58696100D01*
X119279015Y-58835481D01*
X119160481Y-58954015D01*
X119021100Y-59047147D01*
X118866228Y-59111297D01*
X118701816Y-59144000D01*
X118534184Y-59144000D01*
X118369772Y-59111297D01*
X118214900Y-59047147D01*
X118075519Y-58954015D01*
X117956985Y-58835481D01*
X117863853Y-58696100D01*
X117799703Y-58541228D01*
X117767000Y-58376816D01*
X117767000Y-58209184D01*
X117799703Y-58044772D01*
X117863853Y-57889900D01*
X117956985Y-57750519D01*
X118075519Y-57631985D01*
X118214900Y-57538853D01*
X118369772Y-57474703D01*
X118534184Y-57442000D01*
X118701816Y-57442000D01*
X118866228Y-57474703D01*
G37*
G36*
X135643228Y-57339703D02*
G01*
X135798100Y-57403853D01*
X135937481Y-57496985D01*
X136056015Y-57615519D01*
X136149147Y-57754900D01*
X136213297Y-57909772D01*
X136246000Y-58074184D01*
X136246000Y-58241816D01*
X136213297Y-58406228D01*
X136149147Y-58561100D01*
X136056015Y-58700481D01*
X135937481Y-58819015D01*
X135798100Y-58912147D01*
X135643228Y-58976297D01*
X135478816Y-59009000D01*
X135311184Y-59009000D01*
X135146772Y-58976297D01*
X134991900Y-58912147D01*
X134852519Y-58819015D01*
X134733985Y-58700481D01*
X134640853Y-58561100D01*
X134576703Y-58406228D01*
X134544000Y-58241816D01*
X134544000Y-58074184D01*
X134576703Y-57909772D01*
X134640853Y-57754900D01*
X134733985Y-57615519D01*
X134852519Y-57496985D01*
X134991900Y-57403853D01*
X135146772Y-57339703D01*
X135311184Y-57307000D01*
X135478816Y-57307000D01*
X135643228Y-57339703D01*
G37*
G36*
X142360228Y-57339703D02*
G01*
X142515100Y-57403853D01*
X142654481Y-57496985D01*
X142773015Y-57615519D01*
X142866147Y-57754900D01*
X142930297Y-57909772D01*
X142963000Y-58074184D01*
X142963000Y-58241816D01*
X142930297Y-58406228D01*
X142866147Y-58561100D01*
X142773015Y-58700481D01*
X142654481Y-58819015D01*
X142515100Y-58912147D01*
X142360228Y-58976297D01*
X142195816Y-59009000D01*
X142028184Y-59009000D01*
X141863772Y-58976297D01*
X141708900Y-58912147D01*
X141569519Y-58819015D01*
X141450985Y-58700481D01*
X141357853Y-58561100D01*
X141293703Y-58406228D01*
X141261000Y-58241816D01*
X141261000Y-58074184D01*
X141293703Y-57909772D01*
X141357853Y-57754900D01*
X141450985Y-57615519D01*
X141569519Y-57496985D01*
X141708900Y-57403853D01*
X141863772Y-57339703D01*
X142028184Y-57307000D01*
X142195816Y-57307000D01*
X142360228Y-57339703D01*
G37*
G36*
X60565512Y-56380927D02*
G01*
X60714812Y-56410624D01*
X60878784Y-56478544D01*
X61026354Y-56577147D01*
X61151853Y-56702646D01*
X61250456Y-56850216D01*
X61318376Y-57014188D01*
X61353000Y-57188259D01*
X61353000Y-57365741D01*
X61318376Y-57539812D01*
X61250456Y-57703784D01*
X61151853Y-57851354D01*
X61026354Y-57976853D01*
X60878784Y-58075456D01*
X60714812Y-58143376D01*
X60572057Y-58171771D01*
X60540742Y-58178000D01*
X60363258Y-58178000D01*
X60331943Y-58171771D01*
X60189188Y-58143376D01*
X60025216Y-58075456D01*
X59877646Y-57976853D01*
X59752147Y-57851354D01*
X59653544Y-57703784D01*
X59585624Y-57539812D01*
X59551000Y-57365741D01*
X59551000Y-57188259D01*
X59585624Y-57014188D01*
X59653544Y-56850216D01*
X59752147Y-56702646D01*
X59877646Y-56577147D01*
X60025216Y-56478544D01*
X60189188Y-56410624D01*
X60338488Y-56380927D01*
X60363258Y-56376000D01*
X60540742Y-56376000D01*
X60565512Y-56380927D01*
G37*
G36*
X61353000Y-55638000D02*
G01*
X59551000Y-55638000D01*
X59551000Y-53836000D01*
X61353000Y-53836000D01*
X61353000Y-55638000D01*
G37*
G36*
X150100512Y-52824927D02*
G01*
X150249812Y-52854624D01*
X150413784Y-52922544D01*
X150561354Y-53021147D01*
X150686853Y-53146646D01*
X150785456Y-53294216D01*
X150853376Y-53458188D01*
X150888000Y-53632259D01*
X150888000Y-53809741D01*
X150853376Y-53983812D01*
X150785456Y-54147784D01*
X150686853Y-54295354D01*
X150561354Y-54420853D01*
X150413784Y-54519456D01*
X150249812Y-54587376D01*
X150100512Y-54617073D01*
X150075742Y-54622000D01*
X149898258Y-54622000D01*
X149873488Y-54617073D01*
X149724188Y-54587376D01*
X149560216Y-54519456D01*
X149412646Y-54420853D01*
X149287147Y-54295354D01*
X149188544Y-54147784D01*
X149120624Y-53983812D01*
X149086000Y-53809741D01*
X149086000Y-53632259D01*
X149120624Y-53458188D01*
X149188544Y-53294216D01*
X149287147Y-53146646D01*
X149412646Y-53021147D01*
X149560216Y-52922544D01*
X149724188Y-52854624D01*
X149873488Y-52824927D01*
X149898258Y-52820000D01*
X150075742Y-52820000D01*
X150100512Y-52824927D01*
G37*
G36*
X102991228Y-52775703D02*
G01*
X103146100Y-52839853D01*
X103285481Y-52932985D01*
X103404015Y-53051519D01*
X103497147Y-53190900D01*
X103561297Y-53345772D01*
X103594000Y-53510184D01*
X103594000Y-53677816D01*
X103561297Y-53842228D01*
X103497147Y-53997100D01*
X103404015Y-54136481D01*
X103285481Y-54255015D01*
X103146100Y-54348147D01*
X102991228Y-54412297D01*
X102826816Y-54445000D01*
X102659184Y-54445000D01*
X102494772Y-54412297D01*
X102339900Y-54348147D01*
X102200519Y-54255015D01*
X102081985Y-54136481D01*
X101988853Y-53997100D01*
X101924703Y-53842228D01*
X101892000Y-53677816D01*
X101892000Y-53510184D01*
X101924703Y-53345772D01*
X101988853Y-53190900D01*
X102081985Y-53051519D01*
X102200519Y-52932985D01*
X102339900Y-52839853D01*
X102494772Y-52775703D01*
X102659184Y-52743000D01*
X102826816Y-52743000D01*
X102991228Y-52775703D01*
G37*
G36*
X127673228Y-52339703D02*
G01*
X127828100Y-52403853D01*
X127967481Y-52496985D01*
X128086015Y-52615519D01*
X128179147Y-52754900D01*
X128243297Y-52909772D01*
X128276000Y-53074184D01*
X128276000Y-53241816D01*
X128243297Y-53406228D01*
X128179147Y-53561100D01*
X128086015Y-53700481D01*
X127967481Y-53819015D01*
X127828100Y-53912147D01*
X127673228Y-53976297D01*
X127508816Y-54009000D01*
X127341184Y-54009000D01*
X127176772Y-53976297D01*
X127021900Y-53912147D01*
X126882519Y-53819015D01*
X126763985Y-53700481D01*
X126670853Y-53561100D01*
X126606703Y-53406228D01*
X126574000Y-53241816D01*
X126574000Y-53074184D01*
X126606703Y-52909772D01*
X126670853Y-52754900D01*
X126763985Y-52615519D01*
X126882519Y-52496985D01*
X127021900Y-52403853D01*
X127176772Y-52339703D01*
X127341184Y-52307000D01*
X127508816Y-52307000D01*
X127673228Y-52339703D01*
G37*
G36*
X119051228Y-52339703D02*
G01*
X119206100Y-52403853D01*
X119345481Y-52496985D01*
X119464015Y-52615519D01*
X119557147Y-52754900D01*
X119621297Y-52909772D01*
X119654000Y-53074184D01*
X119654000Y-53241816D01*
X119621297Y-53406228D01*
X119557147Y-53561100D01*
X119464015Y-53700481D01*
X119345481Y-53819015D01*
X119206100Y-53912147D01*
X119051228Y-53976297D01*
X118886816Y-54009000D01*
X118719184Y-54009000D01*
X118554772Y-53976297D01*
X118399900Y-53912147D01*
X118260519Y-53819015D01*
X118141985Y-53700481D01*
X118048853Y-53561100D01*
X117984703Y-53406228D01*
X117952000Y-53241816D01*
X117952000Y-53074184D01*
X117984703Y-52909772D01*
X118048853Y-52754900D01*
X118141985Y-52615519D01*
X118260519Y-52496985D01*
X118399900Y-52403853D01*
X118554772Y-52339703D01*
X118719184Y-52307000D01*
X118886816Y-52307000D01*
X119051228Y-52339703D01*
G37*
G36*
X111020228Y-52326703D02*
G01*
X111175100Y-52390853D01*
X111314481Y-52483985D01*
X111433015Y-52602519D01*
X111526147Y-52741900D01*
X111590297Y-52896772D01*
X111623000Y-53061184D01*
X111623000Y-53228816D01*
X111590297Y-53393228D01*
X111526147Y-53548100D01*
X111433015Y-53687481D01*
X111314481Y-53806015D01*
X111175100Y-53899147D01*
X111020228Y-53963297D01*
X110855816Y-53996000D01*
X110688184Y-53996000D01*
X110523772Y-53963297D01*
X110368900Y-53899147D01*
X110229519Y-53806015D01*
X110110985Y-53687481D01*
X110017853Y-53548100D01*
X109953703Y-53393228D01*
X109921000Y-53228816D01*
X109921000Y-53061184D01*
X109953703Y-52896772D01*
X110017853Y-52741900D01*
X110110985Y-52602519D01*
X110229519Y-52483985D01*
X110368900Y-52390853D01*
X110523772Y-52326703D01*
X110688184Y-52294000D01*
X110855816Y-52294000D01*
X111020228Y-52326703D01*
G37*
G36*
X142360228Y-52284703D02*
G01*
X142515100Y-52348853D01*
X142654481Y-52441985D01*
X142773015Y-52560519D01*
X142866147Y-52699900D01*
X142930297Y-52854772D01*
X142963000Y-53019184D01*
X142963000Y-53186816D01*
X142930297Y-53351228D01*
X142866147Y-53506100D01*
X142773015Y-53645481D01*
X142654481Y-53764015D01*
X142515100Y-53857147D01*
X142360228Y-53921297D01*
X142195816Y-53954000D01*
X142028184Y-53954000D01*
X141863772Y-53921297D01*
X141708900Y-53857147D01*
X141569519Y-53764015D01*
X141450985Y-53645481D01*
X141357853Y-53506100D01*
X141293703Y-53351228D01*
X141261000Y-53186816D01*
X141261000Y-53019184D01*
X141293703Y-52854772D01*
X141357853Y-52699900D01*
X141450985Y-52560519D01*
X141569519Y-52441985D01*
X141708900Y-52348853D01*
X141863772Y-52284703D01*
X142028184Y-52252000D01*
X142195816Y-52252000D01*
X142360228Y-52284703D01*
G37*
G36*
X135643228Y-52284703D02*
G01*
X135798100Y-52348853D01*
X135937481Y-52441985D01*
X136056015Y-52560519D01*
X136149147Y-52699900D01*
X136213297Y-52854772D01*
X136246000Y-53019184D01*
X136246000Y-53186816D01*
X136213297Y-53351228D01*
X136149147Y-53506100D01*
X136056015Y-53645481D01*
X135937481Y-53764015D01*
X135798100Y-53857147D01*
X135643228Y-53921297D01*
X135478816Y-53954000D01*
X135311184Y-53954000D01*
X135146772Y-53921297D01*
X134991900Y-53857147D01*
X134852519Y-53764015D01*
X134733985Y-53645481D01*
X134640853Y-53506100D01*
X134576703Y-53351228D01*
X134544000Y-53186816D01*
X134544000Y-53019184D01*
X134576703Y-52854772D01*
X134640853Y-52699900D01*
X134733985Y-52560519D01*
X134852519Y-52441985D01*
X134991900Y-52348853D01*
X135146772Y-52284703D01*
X135311184Y-52252000D01*
X135478816Y-52252000D01*
X135643228Y-52284703D01*
G37*
G36*
X85723589Y-51816876D02*
G01*
X85822893Y-51836629D01*
X85963206Y-51894748D01*
X86089484Y-51979125D01*
X86196875Y-52086516D01*
X86281252Y-52212794D01*
X86339371Y-52353107D01*
X86369000Y-52502063D01*
X86369000Y-52653937D01*
X86339371Y-52802893D01*
X86281252Y-52943206D01*
X86196875Y-53069484D01*
X86089484Y-53176875D01*
X85963206Y-53261252D01*
X85822893Y-53319371D01*
X85723589Y-53339124D01*
X85673938Y-53349000D01*
X85522062Y-53349000D01*
X85472411Y-53339124D01*
X85373107Y-53319371D01*
X85232794Y-53261252D01*
X85106516Y-53176875D01*
X84999125Y-53069484D01*
X84914748Y-52943206D01*
X84856629Y-52802893D01*
X84827000Y-52653937D01*
X84827000Y-52502063D01*
X84856629Y-52353107D01*
X84914748Y-52212794D01*
X84999125Y-52086516D01*
X85106516Y-51979125D01*
X85232794Y-51894748D01*
X85373107Y-51836629D01*
X85472411Y-51816876D01*
X85522062Y-51807000D01*
X85673938Y-51807000D01*
X85723589Y-51816876D01*
G37*
G36*
X71753589Y-51816876D02*
G01*
X71852893Y-51836629D01*
X71993206Y-51894748D01*
X72119484Y-51979125D01*
X72226875Y-52086516D01*
X72311252Y-52212794D01*
X72369371Y-52353107D01*
X72399000Y-52502063D01*
X72399000Y-52653937D01*
X72369371Y-52802893D01*
X72311252Y-52943206D01*
X72226875Y-53069484D01*
X72119484Y-53176875D01*
X71993206Y-53261252D01*
X71852893Y-53319371D01*
X71753589Y-53339124D01*
X71703938Y-53349000D01*
X71552062Y-53349000D01*
X71502411Y-53339124D01*
X71403107Y-53319371D01*
X71262794Y-53261252D01*
X71136516Y-53176875D01*
X71029125Y-53069484D01*
X70944748Y-52943206D01*
X70886629Y-52802893D01*
X70857000Y-52653937D01*
X70857000Y-52502063D01*
X70886629Y-52353107D01*
X70944748Y-52212794D01*
X71029125Y-52086516D01*
X71136516Y-51979125D01*
X71262794Y-51894748D01*
X71403107Y-51836629D01*
X71502411Y-51816876D01*
X71552062Y-51807000D01*
X71703938Y-51807000D01*
X71753589Y-51816876D01*
G37*
G36*
X150100512Y-50284927D02*
G01*
X150249812Y-50314624D01*
X150413784Y-50382544D01*
X150561354Y-50481147D01*
X150686853Y-50606646D01*
X150785456Y-50754216D01*
X150853376Y-50918188D01*
X150888000Y-51092259D01*
X150888000Y-51269741D01*
X150853376Y-51443812D01*
X150785456Y-51607784D01*
X150686853Y-51755354D01*
X150561354Y-51880853D01*
X150413784Y-51979456D01*
X150249812Y-52047376D01*
X150100512Y-52077073D01*
X150075742Y-52082000D01*
X149898258Y-52082000D01*
X149873488Y-52077073D01*
X149724188Y-52047376D01*
X149560216Y-51979456D01*
X149412646Y-51880853D01*
X149287147Y-51755354D01*
X149188544Y-51607784D01*
X149120624Y-51443812D01*
X149086000Y-51269741D01*
X149086000Y-51092259D01*
X149120624Y-50918188D01*
X149188544Y-50754216D01*
X149287147Y-50606646D01*
X149412646Y-50481147D01*
X149560216Y-50382544D01*
X149724188Y-50314624D01*
X149873488Y-50284927D01*
X149898258Y-50280000D01*
X150075742Y-50280000D01*
X150100512Y-50284927D01*
G37*
G36*
X90803589Y-49276876D02*
G01*
X90902893Y-49296629D01*
X91043206Y-49354748D01*
X91169484Y-49439125D01*
X91276875Y-49546516D01*
X91361252Y-49672794D01*
X91419371Y-49813107D01*
X91449000Y-49962063D01*
X91449000Y-50113937D01*
X91419371Y-50262893D01*
X91361252Y-50403206D01*
X91276875Y-50529484D01*
X91169484Y-50636875D01*
X91043206Y-50721252D01*
X90902893Y-50779371D01*
X90803589Y-50799124D01*
X90753938Y-50809000D01*
X90602062Y-50809000D01*
X90552411Y-50799124D01*
X90453107Y-50779371D01*
X90312794Y-50721252D01*
X90186516Y-50636875D01*
X90079125Y-50529484D01*
X89994748Y-50403206D01*
X89936629Y-50262893D01*
X89907000Y-50113937D01*
X89907000Y-49962063D01*
X89936629Y-49813107D01*
X89994748Y-49672794D01*
X90079125Y-49546516D01*
X90186516Y-49439125D01*
X90312794Y-49354748D01*
X90453107Y-49296629D01*
X90552411Y-49276876D01*
X90602062Y-49267000D01*
X90753938Y-49267000D01*
X90803589Y-49276876D01*
G37*
G36*
X76833589Y-49276876D02*
G01*
X76932893Y-49296629D01*
X77073206Y-49354748D01*
X77199484Y-49439125D01*
X77306875Y-49546516D01*
X77391252Y-49672794D01*
X77449371Y-49813107D01*
X77479000Y-49962063D01*
X77479000Y-50113937D01*
X77449371Y-50262893D01*
X77391252Y-50403206D01*
X77306875Y-50529484D01*
X77199484Y-50636875D01*
X77073206Y-50721252D01*
X76932893Y-50779371D01*
X76833589Y-50799124D01*
X76783938Y-50809000D01*
X76632062Y-50809000D01*
X76582411Y-50799124D01*
X76483107Y-50779371D01*
X76342794Y-50721252D01*
X76216516Y-50636875D01*
X76109125Y-50529484D01*
X76024748Y-50403206D01*
X75966629Y-50262893D01*
X75937000Y-50113937D01*
X75937000Y-49962063D01*
X75966629Y-49813107D01*
X76024748Y-49672794D01*
X76109125Y-49546516D01*
X76216516Y-49439125D01*
X76342794Y-49354748D01*
X76483107Y-49296629D01*
X76582411Y-49276876D01*
X76632062Y-49267000D01*
X76783938Y-49267000D01*
X76833589Y-49276876D01*
G37*
G36*
X150100512Y-47744927D02*
G01*
X150249812Y-47774624D01*
X150413784Y-47842544D01*
X150561354Y-47941147D01*
X150686853Y-48066646D01*
X150785456Y-48214216D01*
X150853376Y-48378188D01*
X150888000Y-48552259D01*
X150888000Y-48729741D01*
X150853376Y-48903812D01*
X150785456Y-49067784D01*
X150686853Y-49215354D01*
X150561354Y-49340853D01*
X150413784Y-49439456D01*
X150249812Y-49507376D01*
X150100512Y-49537073D01*
X150075742Y-49542000D01*
X149898258Y-49542000D01*
X149873488Y-49537073D01*
X149724188Y-49507376D01*
X149560216Y-49439456D01*
X149412646Y-49340853D01*
X149287147Y-49215354D01*
X149188544Y-49067784D01*
X149120624Y-48903812D01*
X149086000Y-48729741D01*
X149086000Y-48552259D01*
X149120624Y-48378188D01*
X149188544Y-48214216D01*
X149287147Y-48066646D01*
X149412646Y-47941147D01*
X149560216Y-47842544D01*
X149724188Y-47774624D01*
X149873488Y-47744927D01*
X149898258Y-47740000D01*
X150075742Y-47740000D01*
X150100512Y-47744927D01*
G37*
G36*
X71753589Y-46736876D02*
G01*
X71852893Y-46756629D01*
X71993206Y-46814748D01*
X72119484Y-46899125D01*
X72226875Y-47006516D01*
X72311252Y-47132794D01*
X72369371Y-47273107D01*
X72399000Y-47422063D01*
X72399000Y-47573937D01*
X72369371Y-47722893D01*
X72311252Y-47863206D01*
X72226875Y-47989484D01*
X72119484Y-48096875D01*
X71993206Y-48181252D01*
X71852893Y-48239371D01*
X71753589Y-48259124D01*
X71703938Y-48269000D01*
X71552062Y-48269000D01*
X71502411Y-48259124D01*
X71403107Y-48239371D01*
X71262794Y-48181252D01*
X71136516Y-48096875D01*
X71029125Y-47989484D01*
X70944748Y-47863206D01*
X70886629Y-47722893D01*
X70857000Y-47573937D01*
X70857000Y-47422063D01*
X70886629Y-47273107D01*
X70944748Y-47132794D01*
X71029125Y-47006516D01*
X71136516Y-46899125D01*
X71262794Y-46814748D01*
X71403107Y-46756629D01*
X71502411Y-46736876D01*
X71552062Y-46727000D01*
X71703938Y-46727000D01*
X71753589Y-46736876D01*
G37*
G36*
X85723589Y-46736876D02*
G01*
X85822893Y-46756629D01*
X85963206Y-46814748D01*
X86089484Y-46899125D01*
X86196875Y-47006516D01*
X86281252Y-47132794D01*
X86339371Y-47273107D01*
X86369000Y-47422063D01*
X86369000Y-47573937D01*
X86339371Y-47722893D01*
X86281252Y-47863206D01*
X86196875Y-47989484D01*
X86089484Y-48096875D01*
X85963206Y-48181252D01*
X85822893Y-48239371D01*
X85723589Y-48259124D01*
X85673938Y-48269000D01*
X85522062Y-48269000D01*
X85472411Y-48259124D01*
X85373107Y-48239371D01*
X85232794Y-48181252D01*
X85106516Y-48096875D01*
X84999125Y-47989484D01*
X84914748Y-47863206D01*
X84856629Y-47722893D01*
X84827000Y-47573937D01*
X84827000Y-47422063D01*
X84856629Y-47273107D01*
X84914748Y-47132794D01*
X84999125Y-47006516D01*
X85106516Y-46899125D01*
X85232794Y-46814748D01*
X85373107Y-46756629D01*
X85472411Y-46736876D01*
X85522062Y-46727000D01*
X85673938Y-46727000D01*
X85723589Y-46736876D01*
G37*
G36*
X150100512Y-45204927D02*
G01*
X150249812Y-45234624D01*
X150413784Y-45302544D01*
X150561354Y-45401147D01*
X150686853Y-45526646D01*
X150785456Y-45674216D01*
X150853376Y-45838188D01*
X150888000Y-46012259D01*
X150888000Y-46189741D01*
X150853376Y-46363812D01*
X150785456Y-46527784D01*
X150686853Y-46675354D01*
X150561354Y-46800853D01*
X150413784Y-46899456D01*
X150249812Y-46967376D01*
X150100512Y-46997073D01*
X150075742Y-47002000D01*
X149898258Y-47002000D01*
X149873488Y-46997073D01*
X149724188Y-46967376D01*
X149560216Y-46899456D01*
X149412646Y-46800853D01*
X149287147Y-46675354D01*
X149188544Y-46527784D01*
X149120624Y-46363812D01*
X149086000Y-46189741D01*
X149086000Y-46012259D01*
X149120624Y-45838188D01*
X149188544Y-45674216D01*
X149287147Y-45526646D01*
X149412646Y-45401147D01*
X149560216Y-45302544D01*
X149724188Y-45234624D01*
X149873488Y-45204927D01*
X149898258Y-45200000D01*
X150075742Y-45200000D01*
X150100512Y-45204927D01*
G37*
G36*
X102991228Y-45155703D02*
G01*
X103146100Y-45219853D01*
X103285481Y-45312985D01*
X103404015Y-45431519D01*
X103497147Y-45570900D01*
X103561297Y-45725772D01*
X103594000Y-45890184D01*
X103594000Y-46057816D01*
X103561297Y-46222228D01*
X103497147Y-46377100D01*
X103404015Y-46516481D01*
X103285481Y-46635015D01*
X103146100Y-46728147D01*
X102991228Y-46792297D01*
X102826816Y-46825000D01*
X102659184Y-46825000D01*
X102494772Y-46792297D01*
X102339900Y-46728147D01*
X102200519Y-46635015D01*
X102081985Y-46516481D01*
X101988853Y-46377100D01*
X101924703Y-46222228D01*
X101892000Y-46057816D01*
X101892000Y-45890184D01*
X101924703Y-45725772D01*
X101988853Y-45570900D01*
X102081985Y-45431519D01*
X102200519Y-45312985D01*
X102339900Y-45219853D01*
X102494772Y-45155703D01*
X102659184Y-45123000D01*
X102826816Y-45123000D01*
X102991228Y-45155703D01*
G37*
G36*
X119051228Y-44719703D02*
G01*
X119206100Y-44783853D01*
X119345481Y-44876985D01*
X119464015Y-44995519D01*
X119557147Y-45134900D01*
X119621297Y-45289772D01*
X119654000Y-45454184D01*
X119654000Y-45621816D01*
X119621297Y-45786228D01*
X119557147Y-45941100D01*
X119464015Y-46080481D01*
X119345481Y-46199015D01*
X119206100Y-46292147D01*
X119051228Y-46356297D01*
X118886816Y-46389000D01*
X118719184Y-46389000D01*
X118554772Y-46356297D01*
X118399900Y-46292147D01*
X118260519Y-46199015D01*
X118141985Y-46080481D01*
X118048853Y-45941100D01*
X117984703Y-45786228D01*
X117952000Y-45621816D01*
X117952000Y-45454184D01*
X117984703Y-45289772D01*
X118048853Y-45134900D01*
X118141985Y-44995519D01*
X118260519Y-44876985D01*
X118399900Y-44783853D01*
X118554772Y-44719703D01*
X118719184Y-44687000D01*
X118886816Y-44687000D01*
X119051228Y-44719703D01*
G37*
G36*
X127673228Y-44719703D02*
G01*
X127828100Y-44783853D01*
X127967481Y-44876985D01*
X128086015Y-44995519D01*
X128179147Y-45134900D01*
X128243297Y-45289772D01*
X128276000Y-45454184D01*
X128276000Y-45621816D01*
X128243297Y-45786228D01*
X128179147Y-45941100D01*
X128086015Y-46080481D01*
X127967481Y-46199015D01*
X127828100Y-46292147D01*
X127673228Y-46356297D01*
X127508816Y-46389000D01*
X127341184Y-46389000D01*
X127176772Y-46356297D01*
X127021900Y-46292147D01*
X126882519Y-46199015D01*
X126763985Y-46080481D01*
X126670853Y-45941100D01*
X126606703Y-45786228D01*
X126574000Y-45621816D01*
X126574000Y-45454184D01*
X126606703Y-45289772D01*
X126670853Y-45134900D01*
X126763985Y-44995519D01*
X126882519Y-44876985D01*
X127021900Y-44783853D01*
X127176772Y-44719703D01*
X127341184Y-44687000D01*
X127508816Y-44687000D01*
X127673228Y-44719703D01*
G37*
G36*
X111020228Y-44706703D02*
G01*
X111175100Y-44770853D01*
X111314481Y-44863985D01*
X111433015Y-44982519D01*
X111526147Y-45121900D01*
X111590297Y-45276772D01*
X111623000Y-45441184D01*
X111623000Y-45608816D01*
X111590297Y-45773228D01*
X111526147Y-45928100D01*
X111433015Y-46067481D01*
X111314481Y-46186015D01*
X111175100Y-46279147D01*
X111020228Y-46343297D01*
X110855816Y-46376000D01*
X110688184Y-46376000D01*
X110523772Y-46343297D01*
X110368900Y-46279147D01*
X110229519Y-46186015D01*
X110110985Y-46067481D01*
X110017853Y-45928100D01*
X109953703Y-45773228D01*
X109921000Y-45608816D01*
X109921000Y-45441184D01*
X109953703Y-45276772D01*
X110017853Y-45121900D01*
X110110985Y-44982519D01*
X110229519Y-44863985D01*
X110368900Y-44770853D01*
X110523772Y-44706703D01*
X110688184Y-44674000D01*
X110855816Y-44674000D01*
X111020228Y-44706703D01*
G37*
G36*
X60266512Y-44577927D02*
G01*
X60415812Y-44607624D01*
X60579784Y-44675544D01*
X60727354Y-44774147D01*
X60852853Y-44899646D01*
X60951456Y-45047216D01*
X61019376Y-45211188D01*
X61037547Y-45302544D01*
X61054000Y-45385258D01*
X61054000Y-45562742D01*
X61052377Y-45570900D01*
X61019376Y-45736812D01*
X60951456Y-45900784D01*
X60852853Y-46048354D01*
X60727354Y-46173853D01*
X60579784Y-46272456D01*
X60415812Y-46340376D01*
X60266512Y-46370073D01*
X60241742Y-46375000D01*
X60064258Y-46375000D01*
X60039488Y-46370073D01*
X59890188Y-46340376D01*
X59726216Y-46272456D01*
X59578646Y-46173853D01*
X59453147Y-46048354D01*
X59354544Y-45900784D01*
X59286624Y-45736812D01*
X59253623Y-45570900D01*
X59252000Y-45562742D01*
X59252000Y-45385258D01*
X59268453Y-45302544D01*
X59286624Y-45211188D01*
X59354544Y-45047216D01*
X59453147Y-44899646D01*
X59578646Y-44774147D01*
X59726216Y-44675544D01*
X59890188Y-44607624D01*
X60039488Y-44577927D01*
X60064258Y-44573000D01*
X60241742Y-44573000D01*
X60266512Y-44577927D01*
G37*
G36*
X135643228Y-44664703D02*
G01*
X135798100Y-44728853D01*
X135937481Y-44821985D01*
X136056015Y-44940519D01*
X136149147Y-45079900D01*
X136213297Y-45234772D01*
X136246000Y-45399184D01*
X136246000Y-45566816D01*
X136213297Y-45731228D01*
X136149147Y-45886100D01*
X136056015Y-46025481D01*
X135937481Y-46144015D01*
X135798100Y-46237147D01*
X135643228Y-46301297D01*
X135478816Y-46334000D01*
X135311184Y-46334000D01*
X135146772Y-46301297D01*
X134991900Y-46237147D01*
X134852519Y-46144015D01*
X134733985Y-46025481D01*
X134640853Y-45886100D01*
X134576703Y-45731228D01*
X134544000Y-45566816D01*
X134544000Y-45399184D01*
X134576703Y-45234772D01*
X134640853Y-45079900D01*
X134733985Y-44940519D01*
X134852519Y-44821985D01*
X134991900Y-44728853D01*
X135146772Y-44664703D01*
X135311184Y-44632000D01*
X135478816Y-44632000D01*
X135643228Y-44664703D01*
G37*
G36*
X142360228Y-44664703D02*
G01*
X142515100Y-44728853D01*
X142654481Y-44821985D01*
X142773015Y-44940519D01*
X142866147Y-45079900D01*
X142930297Y-45234772D01*
X142963000Y-45399184D01*
X142963000Y-45566816D01*
X142930297Y-45731228D01*
X142866147Y-45886100D01*
X142773015Y-46025481D01*
X142654481Y-46144015D01*
X142515100Y-46237147D01*
X142360228Y-46301297D01*
X142195816Y-46334000D01*
X142028184Y-46334000D01*
X141863772Y-46301297D01*
X141708900Y-46237147D01*
X141569519Y-46144015D01*
X141450985Y-46025481D01*
X141357853Y-45886100D01*
X141293703Y-45731228D01*
X141261000Y-45566816D01*
X141261000Y-45399184D01*
X141293703Y-45234772D01*
X141357853Y-45079900D01*
X141450985Y-44940519D01*
X141569519Y-44821985D01*
X141708900Y-44728853D01*
X141863772Y-44664703D01*
X142028184Y-44632000D01*
X142195816Y-44632000D01*
X142360228Y-44664703D01*
G37*
G36*
X150100512Y-42664927D02*
G01*
X150249812Y-42694624D01*
X150413784Y-42762544D01*
X150561354Y-42861147D01*
X150686853Y-42986646D01*
X150785456Y-43134216D01*
X150853376Y-43298188D01*
X150888000Y-43472259D01*
X150888000Y-43649741D01*
X150853376Y-43823812D01*
X150785456Y-43987784D01*
X150686853Y-44135354D01*
X150561354Y-44260853D01*
X150413784Y-44359456D01*
X150249812Y-44427376D01*
X150100512Y-44457073D01*
X150075742Y-44462000D01*
X149898258Y-44462000D01*
X149873488Y-44457073D01*
X149724188Y-44427376D01*
X149560216Y-44359456D01*
X149412646Y-44260853D01*
X149287147Y-44135354D01*
X149188544Y-43987784D01*
X149120624Y-43823812D01*
X149086000Y-43649741D01*
X149086000Y-43472259D01*
X149120624Y-43298188D01*
X149188544Y-43134216D01*
X149287147Y-42986646D01*
X149412646Y-42861147D01*
X149560216Y-42762544D01*
X149724188Y-42694624D01*
X149873488Y-42664927D01*
X149898258Y-42660000D01*
X150075742Y-42660000D01*
X150100512Y-42664927D01*
G37*
G36*
X61054000Y-43835000D02*
G01*
X59252000Y-43835000D01*
X59252000Y-42033000D01*
X61054000Y-42033000D01*
X61054000Y-43835000D01*
G37*
G36*
X103118228Y-40710703D02*
G01*
X103273100Y-40774853D01*
X103412481Y-40867985D01*
X103531015Y-40986519D01*
X103624147Y-41125900D01*
X103688297Y-41280772D01*
X103721000Y-41445184D01*
X103721000Y-41612816D01*
X103688297Y-41777228D01*
X103624147Y-41932100D01*
X103531015Y-42071481D01*
X103412481Y-42190015D01*
X103273100Y-42283147D01*
X103118228Y-42347297D01*
X102953816Y-42380000D01*
X102786184Y-42380000D01*
X102621772Y-42347297D01*
X102466900Y-42283147D01*
X102327519Y-42190015D01*
X102208985Y-42071481D01*
X102115853Y-41932100D01*
X102051703Y-41777228D01*
X102019000Y-41612816D01*
X102019000Y-41445184D01*
X102051703Y-41280772D01*
X102115853Y-41125900D01*
X102208985Y-40986519D01*
X102327519Y-40867985D01*
X102466900Y-40774853D01*
X102621772Y-40710703D01*
X102786184Y-40678000D01*
X102953816Y-40678000D01*
X103118228Y-40710703D01*
G37*
G36*
X110920228Y-40661703D02*
G01*
X111075100Y-40725853D01*
X111214481Y-40818985D01*
X111333015Y-40937519D01*
X111426147Y-41076900D01*
X111490297Y-41231772D01*
X111523000Y-41396184D01*
X111523000Y-41563816D01*
X111490297Y-41728228D01*
X111426147Y-41883100D01*
X111333015Y-42022481D01*
X111214481Y-42141015D01*
X111075100Y-42234147D01*
X110920228Y-42298297D01*
X110755816Y-42331000D01*
X110588184Y-42331000D01*
X110423772Y-42298297D01*
X110268900Y-42234147D01*
X110129519Y-42141015D01*
X110010985Y-42022481D01*
X109917853Y-41883100D01*
X109853703Y-41728228D01*
X109821000Y-41563816D01*
X109821000Y-41396184D01*
X109853703Y-41231772D01*
X109917853Y-41076900D01*
X110010985Y-40937519D01*
X110129519Y-40818985D01*
X110268900Y-40725853D01*
X110423772Y-40661703D01*
X110588184Y-40629000D01*
X110755816Y-40629000D01*
X110920228Y-40661703D01*
G37*
G36*
X127783228Y-40534703D02*
G01*
X127938100Y-40598853D01*
X128077481Y-40691985D01*
X128196015Y-40810519D01*
X128289147Y-40949900D01*
X128353297Y-41104772D01*
X128386000Y-41269184D01*
X128386000Y-41436816D01*
X128353297Y-41601228D01*
X128289147Y-41756100D01*
X128196015Y-41895481D01*
X128077481Y-42014015D01*
X127938100Y-42107147D01*
X127783228Y-42171297D01*
X127618816Y-42204000D01*
X127451184Y-42204000D01*
X127286772Y-42171297D01*
X127131900Y-42107147D01*
X126992519Y-42014015D01*
X126873985Y-41895481D01*
X126780853Y-41756100D01*
X126716703Y-41601228D01*
X126684000Y-41436816D01*
X126684000Y-41269184D01*
X126716703Y-41104772D01*
X126780853Y-40949900D01*
X126873985Y-40810519D01*
X126992519Y-40691985D01*
X127131900Y-40598853D01*
X127286772Y-40534703D01*
X127451184Y-40502000D01*
X127618816Y-40502000D01*
X127783228Y-40534703D01*
G37*
G36*
X119161228Y-40534703D02*
G01*
X119316100Y-40598853D01*
X119455481Y-40691985D01*
X119574015Y-40810519D01*
X119667147Y-40949900D01*
X119731297Y-41104772D01*
X119764000Y-41269184D01*
X119764000Y-41436816D01*
X119731297Y-41601228D01*
X119667147Y-41756100D01*
X119574015Y-41895481D01*
X119455481Y-42014015D01*
X119316100Y-42107147D01*
X119161228Y-42171297D01*
X118996816Y-42204000D01*
X118829184Y-42204000D01*
X118664772Y-42171297D01*
X118509900Y-42107147D01*
X118370519Y-42014015D01*
X118251985Y-41895481D01*
X118158853Y-41756100D01*
X118094703Y-41601228D01*
X118062000Y-41436816D01*
X118062000Y-41269184D01*
X118094703Y-41104772D01*
X118158853Y-40949900D01*
X118251985Y-40810519D01*
X118370519Y-40691985D01*
X118509900Y-40598853D01*
X118664772Y-40534703D01*
X118829184Y-40502000D01*
X118996816Y-40502000D01*
X119161228Y-40534703D01*
G37*
G36*
X150100512Y-40124927D02*
G01*
X150249812Y-40154624D01*
X150413784Y-40222544D01*
X150561354Y-40321147D01*
X150686853Y-40446646D01*
X150785456Y-40594216D01*
X150853376Y-40758188D01*
X150888000Y-40932259D01*
X150888000Y-41109741D01*
X150853376Y-41283812D01*
X150785456Y-41447784D01*
X150686853Y-41595354D01*
X150561354Y-41720853D01*
X150413784Y-41819456D01*
X150249812Y-41887376D01*
X150100512Y-41917073D01*
X150075742Y-41922000D01*
X149898258Y-41922000D01*
X149873488Y-41917073D01*
X149724188Y-41887376D01*
X149560216Y-41819456D01*
X149412646Y-41720853D01*
X149287147Y-41595354D01*
X149188544Y-41447784D01*
X149120624Y-41283812D01*
X149086000Y-41109741D01*
X149086000Y-40932259D01*
X149120624Y-40758188D01*
X149188544Y-40594216D01*
X149287147Y-40446646D01*
X149412646Y-40321147D01*
X149560216Y-40222544D01*
X149724188Y-40154624D01*
X149873488Y-40124927D01*
X149898258Y-40120000D01*
X150075742Y-40120000D01*
X150100512Y-40124927D01*
G37*
G36*
X135643228Y-40244703D02*
G01*
X135798100Y-40308853D01*
X135937481Y-40401985D01*
X136056015Y-40520519D01*
X136149147Y-40659900D01*
X136213297Y-40814772D01*
X136246000Y-40979184D01*
X136246000Y-41146816D01*
X136213297Y-41311228D01*
X136149147Y-41466100D01*
X136056015Y-41605481D01*
X135937481Y-41724015D01*
X135798100Y-41817147D01*
X135643228Y-41881297D01*
X135478816Y-41914000D01*
X135311184Y-41914000D01*
X135146772Y-41881297D01*
X134991900Y-41817147D01*
X134852519Y-41724015D01*
X134733985Y-41605481D01*
X134640853Y-41466100D01*
X134576703Y-41311228D01*
X134544000Y-41146816D01*
X134544000Y-40979184D01*
X134576703Y-40814772D01*
X134640853Y-40659900D01*
X134733985Y-40520519D01*
X134852519Y-40401985D01*
X134991900Y-40308853D01*
X135146772Y-40244703D01*
X135311184Y-40212000D01*
X135478816Y-40212000D01*
X135643228Y-40244703D01*
G37*
G36*
X142360228Y-40244703D02*
G01*
X142515100Y-40308853D01*
X142654481Y-40401985D01*
X142773015Y-40520519D01*
X142866147Y-40659900D01*
X142930297Y-40814772D01*
X142963000Y-40979184D01*
X142963000Y-41146816D01*
X142930297Y-41311228D01*
X142866147Y-41466100D01*
X142773015Y-41605481D01*
X142654481Y-41724015D01*
X142515100Y-41817147D01*
X142360228Y-41881297D01*
X142195816Y-41914000D01*
X142028184Y-41914000D01*
X141863772Y-41881297D01*
X141708900Y-41817147D01*
X141569519Y-41724015D01*
X141450985Y-41605481D01*
X141357853Y-41466100D01*
X141293703Y-41311228D01*
X141261000Y-41146816D01*
X141261000Y-40979184D01*
X141293703Y-40814772D01*
X141357853Y-40659900D01*
X141450985Y-40520519D01*
X141569519Y-40401985D01*
X141708900Y-40308853D01*
X141863772Y-40244703D01*
X142028184Y-40212000D01*
X142195816Y-40212000D01*
X142360228Y-40244703D01*
G37*
G36*
X86058589Y-38741876D02*
G01*
X86157893Y-38761629D01*
X86298206Y-38819748D01*
X86424484Y-38904125D01*
X86531875Y-39011516D01*
X86616252Y-39137794D01*
X86674371Y-39278107D01*
X86682493Y-39318938D01*
X86704000Y-39427062D01*
X86704000Y-39578938D01*
X86698178Y-39608206D01*
X86674371Y-39727893D01*
X86616252Y-39868206D01*
X86531875Y-39994484D01*
X86424484Y-40101875D01*
X86298206Y-40186252D01*
X86157893Y-40244371D01*
X86058589Y-40264124D01*
X86008938Y-40274000D01*
X85857062Y-40274000D01*
X85807411Y-40264124D01*
X85708107Y-40244371D01*
X85567794Y-40186252D01*
X85441516Y-40101875D01*
X85334125Y-39994484D01*
X85249748Y-39868206D01*
X85191629Y-39727893D01*
X85167822Y-39608206D01*
X85162000Y-39578938D01*
X85162000Y-39427062D01*
X85183507Y-39318938D01*
X85191629Y-39278107D01*
X85249748Y-39137794D01*
X85334125Y-39011516D01*
X85441516Y-38904125D01*
X85567794Y-38819748D01*
X85708107Y-38761629D01*
X85807411Y-38741876D01*
X85857062Y-38732000D01*
X86008938Y-38732000D01*
X86058589Y-38741876D01*
G37*
G36*
X71753589Y-38481876D02*
G01*
X71852893Y-38501629D01*
X71993206Y-38559748D01*
X72119484Y-38644125D01*
X72226875Y-38751516D01*
X72311252Y-38877794D01*
X72369371Y-39018107D01*
X72389124Y-39117411D01*
X72393692Y-39140375D01*
X72399000Y-39167063D01*
X72399000Y-39318937D01*
X72369371Y-39467893D01*
X72311252Y-39608206D01*
X72226875Y-39734484D01*
X72119484Y-39841875D01*
X71993206Y-39926252D01*
X71852893Y-39984371D01*
X71753589Y-40004124D01*
X71703938Y-40014000D01*
X71552062Y-40014000D01*
X71502411Y-40004124D01*
X71403107Y-39984371D01*
X71262794Y-39926252D01*
X71136516Y-39841875D01*
X71029125Y-39734484D01*
X70944748Y-39608206D01*
X70886629Y-39467893D01*
X70857000Y-39318937D01*
X70857000Y-39167063D01*
X70862309Y-39140375D01*
X70866876Y-39117411D01*
X70886629Y-39018107D01*
X70944748Y-38877794D01*
X71029125Y-38751516D01*
X71136516Y-38644125D01*
X71262794Y-38559748D01*
X71403107Y-38501629D01*
X71502411Y-38481876D01*
X71552062Y-38472000D01*
X71703938Y-38472000D01*
X71753589Y-38481876D01*
G37*
G36*
X150888000Y-39382000D02*
G01*
X149086000Y-39382000D01*
X149086000Y-37580000D01*
X150888000Y-37580000D01*
X150888000Y-39382000D01*
G37*
G36*
X60266512Y-37377927D02*
G01*
X60415812Y-37407624D01*
X60579784Y-37475544D01*
X60727354Y-37574147D01*
X60852853Y-37699646D01*
X60951456Y-37847216D01*
X61019376Y-38011188D01*
X61054000Y-38185259D01*
X61054000Y-38362741D01*
X61019376Y-38536812D01*
X60951456Y-38700784D01*
X60852853Y-38848354D01*
X60727354Y-38973853D01*
X60579784Y-39072456D01*
X60415812Y-39140376D01*
X60266512Y-39170073D01*
X60241742Y-39175000D01*
X60064258Y-39175000D01*
X60039488Y-39170073D01*
X59890188Y-39140376D01*
X59726216Y-39072456D01*
X59578646Y-38973853D01*
X59453147Y-38848354D01*
X59354544Y-38700784D01*
X59286624Y-38536812D01*
X59252000Y-38362741D01*
X59252000Y-38185259D01*
X59286624Y-38011188D01*
X59354544Y-37847216D01*
X59453147Y-37699646D01*
X59578646Y-37574147D01*
X59726216Y-37475544D01*
X59890188Y-37407624D01*
X60039488Y-37377927D01*
X60064258Y-37373000D01*
X60241742Y-37373000D01*
X60266512Y-37377927D01*
G37*
G36*
X91138589Y-36201876D02*
G01*
X91237893Y-36221629D01*
X91378206Y-36279748D01*
X91504484Y-36364125D01*
X91611875Y-36471516D01*
X91696252Y-36597794D01*
X91754371Y-36738107D01*
X91762493Y-36778938D01*
X91784000Y-36887062D01*
X91784000Y-37038938D01*
X91778178Y-37068206D01*
X91754371Y-37187893D01*
X91696252Y-37328206D01*
X91611875Y-37454484D01*
X91504484Y-37561875D01*
X91378206Y-37646252D01*
X91237893Y-37704371D01*
X91138589Y-37724124D01*
X91088938Y-37734000D01*
X90937062Y-37734000D01*
X90887411Y-37724124D01*
X90788107Y-37704371D01*
X90647794Y-37646252D01*
X90521516Y-37561875D01*
X90414125Y-37454484D01*
X90329748Y-37328206D01*
X90271629Y-37187893D01*
X90247822Y-37068206D01*
X90242000Y-37038938D01*
X90242000Y-36887062D01*
X90263507Y-36778938D01*
X90271629Y-36738107D01*
X90329748Y-36597794D01*
X90414125Y-36471516D01*
X90521516Y-36364125D01*
X90647794Y-36279748D01*
X90788107Y-36221629D01*
X90887411Y-36201876D01*
X90937062Y-36192000D01*
X91088938Y-36192000D01*
X91138589Y-36201876D01*
G37*
G36*
X76833589Y-35941876D02*
G01*
X76932893Y-35961629D01*
X77073206Y-36019748D01*
X77199484Y-36104125D01*
X77306875Y-36211516D01*
X77391252Y-36337794D01*
X77449371Y-36478107D01*
X77449371Y-36478109D01*
X77473179Y-36597796D01*
X77479000Y-36627063D01*
X77479000Y-36778937D01*
X77449371Y-36927893D01*
X77391252Y-37068206D01*
X77306875Y-37194484D01*
X77199484Y-37301875D01*
X77073206Y-37386252D01*
X76932893Y-37444371D01*
X76833589Y-37464124D01*
X76783938Y-37474000D01*
X76632062Y-37474000D01*
X76582411Y-37464124D01*
X76483107Y-37444371D01*
X76342794Y-37386252D01*
X76216516Y-37301875D01*
X76109125Y-37194484D01*
X76024748Y-37068206D01*
X75966629Y-36927893D01*
X75937000Y-36778937D01*
X75937000Y-36627063D01*
X75942822Y-36597796D01*
X75966629Y-36478109D01*
X75966629Y-36478107D01*
X76024748Y-36337794D01*
X76109125Y-36211516D01*
X76216516Y-36104125D01*
X76342794Y-36019748D01*
X76483107Y-35961629D01*
X76582411Y-35941876D01*
X76632062Y-35932000D01*
X76783938Y-35932000D01*
X76833589Y-35941876D01*
G37*
G36*
X61054000Y-36635000D02*
G01*
X59252000Y-36635000D01*
X59252000Y-34833000D01*
X61054000Y-34833000D01*
X61054000Y-36635000D01*
G37*
G36*
X86053032Y-33660771D02*
G01*
X86157893Y-33681629D01*
X86298206Y-33739748D01*
X86424484Y-33824125D01*
X86531875Y-33931516D01*
X86616252Y-34057794D01*
X86674371Y-34198107D01*
X86693445Y-34294000D01*
X86704000Y-34347062D01*
X86704000Y-34498938D01*
X86698178Y-34528206D01*
X86674371Y-34647893D01*
X86616252Y-34788206D01*
X86531875Y-34914484D01*
X86424484Y-35021875D01*
X86298206Y-35106252D01*
X86157893Y-35164371D01*
X86058589Y-35184124D01*
X86008938Y-35194000D01*
X85857062Y-35194000D01*
X85807411Y-35184124D01*
X85708107Y-35164371D01*
X85567794Y-35106252D01*
X85441516Y-35021875D01*
X85334125Y-34914484D01*
X85249748Y-34788206D01*
X85191629Y-34647893D01*
X85167822Y-34528206D01*
X85162000Y-34498938D01*
X85162000Y-34347062D01*
X85172555Y-34294000D01*
X85191629Y-34198107D01*
X85249748Y-34057794D01*
X85334125Y-33931516D01*
X85441516Y-33824125D01*
X85567794Y-33739748D01*
X85708107Y-33681629D01*
X85812968Y-33660771D01*
X85857062Y-33652000D01*
X86008938Y-33652000D01*
X86053032Y-33660771D01*
G37*
G36*
X71753589Y-33401876D02*
G01*
X71852893Y-33421629D01*
X71993206Y-33479748D01*
X72119484Y-33564125D01*
X72226875Y-33671516D01*
X72311252Y-33797794D01*
X72369371Y-33938107D01*
X72377948Y-33981228D01*
X72393179Y-34057796D01*
X72399000Y-34087063D01*
X72399000Y-34238937D01*
X72369371Y-34387893D01*
X72311252Y-34528206D01*
X72226875Y-34654484D01*
X72119484Y-34761875D01*
X71993206Y-34846252D01*
X71852893Y-34904371D01*
X71753589Y-34924124D01*
X71703938Y-34934000D01*
X71552062Y-34934000D01*
X71502411Y-34924124D01*
X71403107Y-34904371D01*
X71262794Y-34846252D01*
X71136516Y-34761875D01*
X71029125Y-34654484D01*
X70944748Y-34528206D01*
X70886629Y-34387893D01*
X70857000Y-34238937D01*
X70857000Y-34087063D01*
X70862822Y-34057796D01*
X70878052Y-33981228D01*
X70886629Y-33938107D01*
X70944748Y-33797794D01*
X71029125Y-33671516D01*
X71136516Y-33564125D01*
X71262794Y-33479748D01*
X71403107Y-33421629D01*
X71502411Y-33401876D01*
X71552062Y-33392000D01*
X71703938Y-33392000D01*
X71753589Y-33401876D01*
G37*
G36*
X103118228Y-33090703D02*
G01*
X103273100Y-33154853D01*
X103412481Y-33247985D01*
X103531015Y-33366519D01*
X103624147Y-33505900D01*
X103688297Y-33660772D01*
X103721000Y-33825184D01*
X103721000Y-33992816D01*
X103688297Y-34157228D01*
X103624147Y-34312100D01*
X103531015Y-34451481D01*
X103412481Y-34570015D01*
X103273100Y-34663147D01*
X103118228Y-34727297D01*
X102953816Y-34760000D01*
X102786184Y-34760000D01*
X102621772Y-34727297D01*
X102466900Y-34663147D01*
X102327519Y-34570015D01*
X102208985Y-34451481D01*
X102115853Y-34312100D01*
X102051703Y-34157228D01*
X102019000Y-33992816D01*
X102019000Y-33825184D01*
X102051703Y-33660772D01*
X102115853Y-33505900D01*
X102208985Y-33366519D01*
X102327519Y-33247985D01*
X102466900Y-33154853D01*
X102621772Y-33090703D01*
X102786184Y-33058000D01*
X102953816Y-33058000D01*
X103118228Y-33090703D01*
G37*
G36*
X110920228Y-33041703D02*
G01*
X111075100Y-33105853D01*
X111214481Y-33198985D01*
X111333015Y-33317519D01*
X111426147Y-33456900D01*
X111490297Y-33611772D01*
X111523000Y-33776184D01*
X111523000Y-33943816D01*
X111490297Y-34108228D01*
X111426147Y-34263100D01*
X111333015Y-34402481D01*
X111214481Y-34521015D01*
X111075100Y-34614147D01*
X110920228Y-34678297D01*
X110755816Y-34711000D01*
X110588184Y-34711000D01*
X110423772Y-34678297D01*
X110268900Y-34614147D01*
X110129519Y-34521015D01*
X110010985Y-34402481D01*
X109917853Y-34263100D01*
X109853703Y-34108228D01*
X109821000Y-33943816D01*
X109821000Y-33776184D01*
X109853703Y-33611772D01*
X109917853Y-33456900D01*
X110010985Y-33317519D01*
X110129519Y-33198985D01*
X110268900Y-33105853D01*
X110423772Y-33041703D01*
X110588184Y-33009000D01*
X110755816Y-33009000D01*
X110920228Y-33041703D01*
G37*
G36*
X119161228Y-32914703D02*
G01*
X119316100Y-32978853D01*
X119455481Y-33071985D01*
X119574015Y-33190519D01*
X119667147Y-33329900D01*
X119731297Y-33484772D01*
X119764000Y-33649184D01*
X119764000Y-33816816D01*
X119731297Y-33981228D01*
X119667147Y-34136100D01*
X119574015Y-34275481D01*
X119455481Y-34394015D01*
X119316100Y-34487147D01*
X119161228Y-34551297D01*
X118996816Y-34584000D01*
X118829184Y-34584000D01*
X118664772Y-34551297D01*
X118509900Y-34487147D01*
X118370519Y-34394015D01*
X118251985Y-34275481D01*
X118158853Y-34136100D01*
X118094703Y-33981228D01*
X118062000Y-33816816D01*
X118062000Y-33649184D01*
X118094703Y-33484772D01*
X118158853Y-33329900D01*
X118251985Y-33190519D01*
X118370519Y-33071985D01*
X118509900Y-32978853D01*
X118664772Y-32914703D01*
X118829184Y-32882000D01*
X118996816Y-32882000D01*
X119161228Y-32914703D01*
G37*
G36*
X127783228Y-32914703D02*
G01*
X127938100Y-32978853D01*
X128077481Y-33071985D01*
X128196015Y-33190519D01*
X128289147Y-33329900D01*
X128353297Y-33484772D01*
X128386000Y-33649184D01*
X128386000Y-33816816D01*
X128353297Y-33981228D01*
X128289147Y-34136100D01*
X128196015Y-34275481D01*
X128077481Y-34394015D01*
X127938100Y-34487147D01*
X127783228Y-34551297D01*
X127618816Y-34584000D01*
X127451184Y-34584000D01*
X127286772Y-34551297D01*
X127131900Y-34487147D01*
X126992519Y-34394015D01*
X126873985Y-34275481D01*
X126780853Y-34136100D01*
X126716703Y-33981228D01*
X126684000Y-33816816D01*
X126684000Y-33649184D01*
X126716703Y-33484772D01*
X126780853Y-33329900D01*
X126873985Y-33190519D01*
X126992519Y-33071985D01*
X127131900Y-32978853D01*
X127286772Y-32914703D01*
X127451184Y-32882000D01*
X127618816Y-32882000D01*
X127783228Y-32914703D01*
G37*
G36*
X135643228Y-32624703D02*
G01*
X135798100Y-32688853D01*
X135937481Y-32781985D01*
X136056015Y-32900519D01*
X136149147Y-33039900D01*
X136213297Y-33194772D01*
X136246000Y-33359184D01*
X136246000Y-33526816D01*
X136213297Y-33691228D01*
X136149147Y-33846100D01*
X136056015Y-33985481D01*
X135937481Y-34104015D01*
X135798100Y-34197147D01*
X135643228Y-34261297D01*
X135478816Y-34294000D01*
X135311184Y-34294000D01*
X135146772Y-34261297D01*
X134991900Y-34197147D01*
X134852519Y-34104015D01*
X134733985Y-33985481D01*
X134640853Y-33846100D01*
X134576703Y-33691228D01*
X134544000Y-33526816D01*
X134544000Y-33359184D01*
X134576703Y-33194772D01*
X134640853Y-33039900D01*
X134733985Y-32900519D01*
X134852519Y-32781985D01*
X134991900Y-32688853D01*
X135146772Y-32624703D01*
X135311184Y-32592000D01*
X135478816Y-32592000D01*
X135643228Y-32624703D01*
G37*
G36*
X142360228Y-32624703D02*
G01*
X142515100Y-32688853D01*
X142654481Y-32781985D01*
X142773015Y-32900519D01*
X142866147Y-33039900D01*
X142930297Y-33194772D01*
X142963000Y-33359184D01*
X142963000Y-33526816D01*
X142930297Y-33691228D01*
X142866147Y-33846100D01*
X142773015Y-33985481D01*
X142654481Y-34104015D01*
X142515100Y-34197147D01*
X142360228Y-34261297D01*
X142195816Y-34294000D01*
X142028184Y-34294000D01*
X141863772Y-34261297D01*
X141708900Y-34197147D01*
X141569519Y-34104015D01*
X141450985Y-33985481D01*
X141357853Y-33846100D01*
X141293703Y-33691228D01*
X141261000Y-33526816D01*
X141261000Y-33359184D01*
X141293703Y-33194772D01*
X141357853Y-33039900D01*
X141450985Y-32900519D01*
X141569519Y-32781985D01*
X141708900Y-32688853D01*
X141863772Y-32624703D01*
X142028184Y-32592000D01*
X142195816Y-32592000D01*
X142360228Y-32624703D01*
G37*
G36*
X135643228Y-28204703D02*
G01*
X135798100Y-28268853D01*
X135937481Y-28361985D01*
X136056015Y-28480519D01*
X136149147Y-28619900D01*
X136213297Y-28774772D01*
X136246000Y-28939184D01*
X136246000Y-29106816D01*
X136213297Y-29271228D01*
X136149147Y-29426100D01*
X136056015Y-29565481D01*
X135937481Y-29684015D01*
X135798100Y-29777147D01*
X135643228Y-29841297D01*
X135478816Y-29874000D01*
X135311184Y-29874000D01*
X135146772Y-29841297D01*
X134991900Y-29777147D01*
X134852519Y-29684015D01*
X134733985Y-29565481D01*
X134640853Y-29426100D01*
X134576703Y-29271228D01*
X134544000Y-29106816D01*
X134544000Y-28939184D01*
X134576703Y-28774772D01*
X134640853Y-28619900D01*
X134733985Y-28480519D01*
X134852519Y-28361985D01*
X134991900Y-28268853D01*
X135146772Y-28204703D01*
X135311184Y-28172000D01*
X135478816Y-28172000D01*
X135643228Y-28204703D01*
G37*
G36*
X142360228Y-28204703D02*
G01*
X142515100Y-28268853D01*
X142654481Y-28361985D01*
X142773015Y-28480519D01*
X142866147Y-28619900D01*
X142930297Y-28774772D01*
X142963000Y-28939184D01*
X142963000Y-29106816D01*
X142930297Y-29271228D01*
X142866147Y-29426100D01*
X142773015Y-29565481D01*
X142654481Y-29684015D01*
X142515100Y-29777147D01*
X142360228Y-29841297D01*
X142195816Y-29874000D01*
X142028184Y-29874000D01*
X141863772Y-29841297D01*
X141708900Y-29777147D01*
X141569519Y-29684015D01*
X141450985Y-29565481D01*
X141357853Y-29426100D01*
X141293703Y-29271228D01*
X141261000Y-29106816D01*
X141261000Y-28939184D01*
X141293703Y-28774772D01*
X141357853Y-28619900D01*
X141450985Y-28480519D01*
X141569519Y-28361985D01*
X141708900Y-28268853D01*
X141863772Y-28204703D01*
X142028184Y-28172000D01*
X142195816Y-28172000D01*
X142360228Y-28204703D01*
G37*
G36*
X102991228Y-28010703D02*
G01*
X103146100Y-28074853D01*
X103285481Y-28167985D01*
X103404015Y-28286519D01*
X103497147Y-28425900D01*
X103561297Y-28580772D01*
X103594000Y-28745184D01*
X103594000Y-28912816D01*
X103561297Y-29077228D01*
X103497147Y-29232100D01*
X103404015Y-29371481D01*
X103285481Y-29490015D01*
X103146100Y-29583147D01*
X102991228Y-29647297D01*
X102826816Y-29680000D01*
X102659184Y-29680000D01*
X102494772Y-29647297D01*
X102339900Y-29583147D01*
X102200519Y-29490015D01*
X102081985Y-29371481D01*
X101988853Y-29232100D01*
X101924703Y-29077228D01*
X101892000Y-28912816D01*
X101892000Y-28745184D01*
X101924703Y-28580772D01*
X101988853Y-28425900D01*
X102081985Y-28286519D01*
X102200519Y-28167985D01*
X102339900Y-28074853D01*
X102494772Y-28010703D01*
X102659184Y-27978000D01*
X102826816Y-27978000D01*
X102991228Y-28010703D01*
G37*
G36*
X110920228Y-27986703D02*
G01*
X111075100Y-28050853D01*
X111214481Y-28143985D01*
X111333015Y-28262519D01*
X111426147Y-28401900D01*
X111490297Y-28556772D01*
X111523000Y-28721184D01*
X111523000Y-28888816D01*
X111490297Y-29053228D01*
X111426147Y-29208100D01*
X111333015Y-29347481D01*
X111214481Y-29466015D01*
X111075100Y-29559147D01*
X110920228Y-29623297D01*
X110755816Y-29656000D01*
X110588184Y-29656000D01*
X110423772Y-29623297D01*
X110268900Y-29559147D01*
X110129519Y-29466015D01*
X110010985Y-29347481D01*
X109917853Y-29208100D01*
X109853703Y-29053228D01*
X109821000Y-28888816D01*
X109821000Y-28721184D01*
X109853703Y-28556772D01*
X109917853Y-28401900D01*
X110010985Y-28262519D01*
X110129519Y-28143985D01*
X110268900Y-28050853D01*
X110423772Y-27986703D01*
X110588184Y-27954000D01*
X110755816Y-27954000D01*
X110920228Y-27986703D01*
G37*
G36*
X119161228Y-27859703D02*
G01*
X119316100Y-27923853D01*
X119455481Y-28016985D01*
X119574015Y-28135519D01*
X119667147Y-28274900D01*
X119731297Y-28429772D01*
X119764000Y-28594184D01*
X119764000Y-28761816D01*
X119731297Y-28926228D01*
X119667147Y-29081100D01*
X119574015Y-29220481D01*
X119455481Y-29339015D01*
X119316100Y-29432147D01*
X119161228Y-29496297D01*
X118996816Y-29529000D01*
X118829184Y-29529000D01*
X118664772Y-29496297D01*
X118509900Y-29432147D01*
X118370519Y-29339015D01*
X118251985Y-29220481D01*
X118158853Y-29081100D01*
X118094703Y-28926228D01*
X118062000Y-28761816D01*
X118062000Y-28594184D01*
X118094703Y-28429772D01*
X118158853Y-28274900D01*
X118251985Y-28135519D01*
X118370519Y-28016985D01*
X118509900Y-27923853D01*
X118664772Y-27859703D01*
X118829184Y-27827000D01*
X118996816Y-27827000D01*
X119161228Y-27859703D01*
G37*
G36*
X127783228Y-27859703D02*
G01*
X127938100Y-27923853D01*
X128077481Y-28016985D01*
X128196015Y-28135519D01*
X128289147Y-28274900D01*
X128353297Y-28429772D01*
X128386000Y-28594184D01*
X128386000Y-28761816D01*
X128353297Y-28926228D01*
X128289147Y-29081100D01*
X128196015Y-29220481D01*
X128077481Y-29339015D01*
X127938100Y-29432147D01*
X127783228Y-29496297D01*
X127618816Y-29529000D01*
X127451184Y-29529000D01*
X127286772Y-29496297D01*
X127131900Y-29432147D01*
X126992519Y-29339015D01*
X126873985Y-29220481D01*
X126780853Y-29081100D01*
X126716703Y-28926228D01*
X126684000Y-28761816D01*
X126684000Y-28594184D01*
X126716703Y-28429772D01*
X126780853Y-28274900D01*
X126873985Y-28135519D01*
X126992519Y-28016985D01*
X127131900Y-27923853D01*
X127286772Y-27859703D01*
X127451184Y-27827000D01*
X127618816Y-27827000D01*
X127783228Y-27859703D01*
G37*
G36*
X78917532Y-23726721D02*
G01*
X79186147Y-23837985D01*
X79427895Y-23999516D01*
X79633484Y-24205105D01*
X79795015Y-24446853D01*
X79906279Y-24715468D01*
X79963000Y-25000625D01*
X79963000Y-25291375D01*
X79906279Y-25576532D01*
X79795015Y-25845147D01*
X79633484Y-26086895D01*
X79427895Y-26292484D01*
X79186147Y-26454015D01*
X78917532Y-26565279D01*
X78632375Y-26622000D01*
X78341625Y-26622000D01*
X78056468Y-26565279D01*
X77787853Y-26454015D01*
X77546105Y-26292484D01*
X77340516Y-26086895D01*
X77178985Y-25845147D01*
X77067721Y-25576532D01*
X77011000Y-25291375D01*
X77011000Y-25000625D01*
X77067721Y-24715468D01*
X77178985Y-24446853D01*
X77340516Y-24205105D01*
X77546105Y-23999516D01*
X77787853Y-23837985D01*
X78056468Y-23726721D01*
X78341625Y-23670000D01*
X78632375Y-23670000D01*
X78917532Y-23726721D01*
G37*
G36*
X70563000Y-26622000D02*
G01*
X67611000Y-26622000D01*
X67611000Y-23670000D01*
X70563000Y-23670000D01*
X70563000Y-26622000D01*
G37*
G36*
X74217532Y-23726721D02*
G01*
X74486147Y-23837985D01*
X74727895Y-23999516D01*
X74933484Y-24205105D01*
X75095015Y-24446853D01*
X75206279Y-24715468D01*
X75263000Y-25000625D01*
X75263000Y-25291375D01*
X75206279Y-25576532D01*
X75095015Y-25845147D01*
X74933484Y-26086895D01*
X74727895Y-26292484D01*
X74486147Y-26454015D01*
X74217532Y-26565279D01*
X73932375Y-26622000D01*
X73641625Y-26622000D01*
X73356468Y-26565279D01*
X73087853Y-26454015D01*
X72846105Y-26292484D01*
X72640516Y-26086895D01*
X72478985Y-25845147D01*
X72367721Y-25576532D01*
X72311000Y-25291375D01*
X72311000Y-25000625D01*
X72367721Y-24715468D01*
X72478985Y-24446853D01*
X72640516Y-24205105D01*
X72846105Y-23999516D01*
X73087853Y-23837985D01*
X73356468Y-23726721D01*
X73641625Y-23670000D01*
X73932375Y-23670000D01*
X74217532Y-23726721D01*
G37*
G36*
X87003000Y-26297000D02*
G01*
X84701000Y-26297000D01*
X84701000Y-23995000D01*
X87003000Y-23995000D01*
X87003000Y-26297000D01*
G37*
G36*
X96148068Y-23999516D02*
G01*
X96347734Y-24039232D01*
X96557203Y-24125997D01*
X96745720Y-24251960D01*
X96906040Y-24412280D01*
X97032003Y-24600797D01*
X97118768Y-24810266D01*
X97163000Y-25032636D01*
X97163000Y-25259364D01*
X97118768Y-25481734D01*
X97032003Y-25691203D01*
X96906040Y-25879720D01*
X96745720Y-26040040D01*
X96557203Y-26166003D01*
X96347734Y-26252768D01*
X96236549Y-26274884D01*
X96125365Y-26297000D01*
X95898635Y-26297000D01*
X95787451Y-26274884D01*
X95676266Y-26252768D01*
X95466797Y-26166003D01*
X95278280Y-26040040D01*
X95117960Y-25879720D01*
X94991997Y-25691203D01*
X94905232Y-25481734D01*
X94861000Y-25259364D01*
X94861000Y-25032636D01*
X94905232Y-24810266D01*
X94991997Y-24600797D01*
X95117960Y-24412280D01*
X95278280Y-24251960D01*
X95466797Y-24125997D01*
X95676266Y-24039232D01*
X95875932Y-23999516D01*
X95898635Y-23995000D01*
X96125365Y-23995000D01*
X96148068Y-23999516D01*
G37*
G36*
X142360228Y-20584703D02*
G01*
X142515100Y-20648853D01*
X142654481Y-20741985D01*
X142773015Y-20860519D01*
X142866147Y-20999900D01*
X142930297Y-21154772D01*
X142963000Y-21319184D01*
X142963000Y-21486816D01*
X142930297Y-21651228D01*
X142866147Y-21806100D01*
X142773015Y-21945481D01*
X142654481Y-22064015D01*
X142515100Y-22157147D01*
X142360228Y-22221297D01*
X142195816Y-22254000D01*
X142028184Y-22254000D01*
X141863772Y-22221297D01*
X141708900Y-22157147D01*
X141569519Y-22064015D01*
X141450985Y-21945481D01*
X141357853Y-21806100D01*
X141293703Y-21651228D01*
X141261000Y-21486816D01*
X141261000Y-21319184D01*
X141293703Y-21154772D01*
X141357853Y-20999900D01*
X141450985Y-20860519D01*
X141569519Y-20741985D01*
X141708900Y-20648853D01*
X141863772Y-20584703D01*
X142028184Y-20552000D01*
X142195816Y-20552000D01*
X142360228Y-20584703D01*
G37*
G36*
X135643228Y-20584703D02*
G01*
X135798100Y-20648853D01*
X135937481Y-20741985D01*
X136056015Y-20860519D01*
X136149147Y-20999900D01*
X136213297Y-21154772D01*
X136246000Y-21319184D01*
X136246000Y-21486816D01*
X136213297Y-21651228D01*
X136149147Y-21806100D01*
X136056015Y-21945481D01*
X135937481Y-22064015D01*
X135798100Y-22157147D01*
X135643228Y-22221297D01*
X135478816Y-22254000D01*
X135311184Y-22254000D01*
X135146772Y-22221297D01*
X134991900Y-22157147D01*
X134852519Y-22064015D01*
X134733985Y-21945481D01*
X134640853Y-21806100D01*
X134576703Y-21651228D01*
X134544000Y-21486816D01*
X134544000Y-21319184D01*
X134576703Y-21154772D01*
X134640853Y-20999900D01*
X134733985Y-20860519D01*
X134852519Y-20741985D01*
X134991900Y-20648853D01*
X135146772Y-20584703D01*
X135311184Y-20552000D01*
X135478816Y-20552000D01*
X135643228Y-20584703D01*
G37*
G36*
X102991228Y-20390703D02*
G01*
X103146100Y-20454853D01*
X103285481Y-20547985D01*
X103404015Y-20666519D01*
X103497147Y-20805900D01*
X103561297Y-20960772D01*
X103594000Y-21125184D01*
X103594000Y-21292816D01*
X103561297Y-21457228D01*
X103497147Y-21612100D01*
X103404015Y-21751481D01*
X103285481Y-21870015D01*
X103146100Y-21963147D01*
X102991228Y-22027297D01*
X102826816Y-22060000D01*
X102659184Y-22060000D01*
X102494772Y-22027297D01*
X102339900Y-21963147D01*
X102200519Y-21870015D01*
X102081985Y-21751481D01*
X101988853Y-21612100D01*
X101924703Y-21457228D01*
X101892000Y-21292816D01*
X101892000Y-21125184D01*
X101924703Y-20960772D01*
X101988853Y-20805900D01*
X102081985Y-20666519D01*
X102200519Y-20547985D01*
X102339900Y-20454853D01*
X102494772Y-20390703D01*
X102659184Y-20358000D01*
X102826816Y-20358000D01*
X102991228Y-20390703D01*
G37*
G36*
X110920228Y-20366703D02*
G01*
X111075100Y-20430853D01*
X111214481Y-20523985D01*
X111333015Y-20642519D01*
X111426147Y-20781900D01*
X111490297Y-20936772D01*
X111523000Y-21101184D01*
X111523000Y-21268816D01*
X111490297Y-21433228D01*
X111426147Y-21588100D01*
X111333015Y-21727481D01*
X111214481Y-21846015D01*
X111075100Y-21939147D01*
X110920228Y-22003297D01*
X110755816Y-22036000D01*
X110588184Y-22036000D01*
X110423772Y-22003297D01*
X110268900Y-21939147D01*
X110129519Y-21846015D01*
X110010985Y-21727481D01*
X109917853Y-21588100D01*
X109853703Y-21433228D01*
X109821000Y-21268816D01*
X109821000Y-21101184D01*
X109853703Y-20936772D01*
X109917853Y-20781900D01*
X110010985Y-20642519D01*
X110129519Y-20523985D01*
X110268900Y-20430853D01*
X110423772Y-20366703D01*
X110588184Y-20334000D01*
X110755816Y-20334000D01*
X110920228Y-20366703D01*
G37*
G36*
X119161228Y-20239703D02*
G01*
X119316100Y-20303853D01*
X119455481Y-20396985D01*
X119574015Y-20515519D01*
X119667147Y-20654900D01*
X119731297Y-20809772D01*
X119764000Y-20974184D01*
X119764000Y-21141816D01*
X119731297Y-21306228D01*
X119667147Y-21461100D01*
X119574015Y-21600481D01*
X119455481Y-21719015D01*
X119316100Y-21812147D01*
X119161228Y-21876297D01*
X118996816Y-21909000D01*
X118829184Y-21909000D01*
X118664772Y-21876297D01*
X118509900Y-21812147D01*
X118370519Y-21719015D01*
X118251985Y-21600481D01*
X118158853Y-21461100D01*
X118094703Y-21306228D01*
X118062000Y-21141816D01*
X118062000Y-20974184D01*
X118094703Y-20809772D01*
X118158853Y-20654900D01*
X118251985Y-20515519D01*
X118370519Y-20396985D01*
X118509900Y-20303853D01*
X118664772Y-20239703D01*
X118829184Y-20207000D01*
X118996816Y-20207000D01*
X119161228Y-20239703D01*
G37*
G36*
X127783228Y-20239703D02*
G01*
X127938100Y-20303853D01*
X128077481Y-20396985D01*
X128196015Y-20515519D01*
X128289147Y-20654900D01*
X128353297Y-20809772D01*
X128386000Y-20974184D01*
X128386000Y-21141816D01*
X128353297Y-21306228D01*
X128289147Y-21461100D01*
X128196015Y-21600481D01*
X128077481Y-21719015D01*
X127938100Y-21812147D01*
X127783228Y-21876297D01*
X127618816Y-21909000D01*
X127451184Y-21909000D01*
X127286772Y-21876297D01*
X127131900Y-21812147D01*
X126992519Y-21719015D01*
X126873985Y-21600481D01*
X126780853Y-21461100D01*
X126716703Y-21306228D01*
X126684000Y-21141816D01*
X126684000Y-20974184D01*
X126716703Y-20809772D01*
X126780853Y-20654900D01*
X126873985Y-20515519D01*
X126992519Y-20396985D01*
X127131900Y-20303853D01*
X127286772Y-20239703D01*
X127451184Y-20207000D01*
X127618816Y-20207000D01*
X127783228Y-20239703D01*
G37*
M02*
