G04 #@! TF.GenerationSoftware,KiCad,Pcbnew,(5.1.5)-3*
G04 #@! TF.CreationDate,2020-01-23T17:34:21-05:00*
G04 #@! TF.ProjectId,dmv,646d762e-6b69-4636-9164-5f7063625858,v01*
G04 #@! TF.SameCoordinates,Original*
G04 #@! TF.FileFunction,Copper,L1,Top*
G04 #@! TF.FilePolarity,Positive*
%FSLAX46Y46*%
G04 Gerber Fmt 4.6, Leading zero omitted, Abs format (unit mm)*
G04 Created by KiCad (PCBNEW (5.1.5)-3) date 2020-01-23 17:34:21*
%MOMM*%
%LPD*%
G04 APERTURE LIST*
%ADD10C,1.600000*%
%ADD11R,2.200000X2.200000*%
%ADD12O,2.200000X2.200000*%
%ADD13R,1.700000X1.700000*%
%ADD14O,1.700000X1.700000*%
%ADD15R,1.500000X1.000000*%
%ADD16O,1.500000X1.000000*%
%ADD17O,1.600000X1.600000*%
%ADD18C,1.440000*%
%ADD19R,2.850000X2.850000*%
%ADD20C,2.850000*%
%ADD21C,0.800000*%
%ADD22C,0.250000*%
G04 APERTURE END LIST*
D10*
X129079000Y-82677000D03*
X124079000Y-82677000D03*
X141779000Y-72263000D03*
X136779000Y-72263000D03*
X110998000Y-88011000D03*
X115998000Y-88011000D03*
X141779000Y-82931000D03*
X136779000Y-82931000D03*
X136525000Y-87884000D03*
X141525000Y-87884000D03*
X141779000Y-77470000D03*
X136779000Y-77470000D03*
X128829000Y-87730000D03*
X123829000Y-87730000D03*
X110998000Y-82931000D03*
X115998000Y-82931000D03*
X123825000Y-77470000D03*
X128825000Y-77470000D03*
X110918000Y-71951000D03*
X115918000Y-71951000D03*
X123825000Y-72136000D03*
X128825000Y-72136000D03*
X115693000Y-77511000D03*
X110693000Y-77511000D03*
D11*
X85852000Y-25146000D03*
D12*
X96012000Y-25146000D03*
D13*
X60153000Y-35734000D03*
D14*
X60153000Y-38274000D03*
X60153000Y-45474000D03*
D13*
X60153000Y-42934000D03*
X60452000Y-73787000D03*
D14*
X60452000Y-76327000D03*
X60452000Y-78867000D03*
D13*
X60452000Y-54737000D03*
D14*
X60452000Y-57277000D03*
X60452000Y-59817000D03*
X60452000Y-62357000D03*
X60452000Y-64897000D03*
X60452000Y-67437000D03*
D13*
X149987000Y-38481000D03*
D14*
X149987000Y-41021000D03*
X149987000Y-43561000D03*
X149987000Y-46101000D03*
X149987000Y-48641000D03*
X149987000Y-51181000D03*
X149987000Y-53721000D03*
D13*
X149987000Y-71374000D03*
X149987000Y-65659000D03*
D15*
X85036000Y-76870000D03*
D16*
X85036000Y-74330000D03*
X85036000Y-75600000D03*
D15*
X101495000Y-76324000D03*
D16*
X101495000Y-73784000D03*
X101495000Y-75054000D03*
X77577000Y-75381000D03*
X77577000Y-74111000D03*
D15*
X77577000Y-76651000D03*
D16*
X85163000Y-86006000D03*
X85163000Y-84736000D03*
D15*
X85163000Y-87276000D03*
X69723000Y-76581000D03*
D16*
X69723000Y-74041000D03*
X69723000Y-75311000D03*
D15*
X93528000Y-76451000D03*
D16*
X93528000Y-73911000D03*
X93528000Y-75181000D03*
X101495000Y-85714000D03*
X101495000Y-84444000D03*
D15*
X101495000Y-86984000D03*
D16*
X77704000Y-85787000D03*
X77704000Y-84517000D03*
D15*
X77704000Y-87057000D03*
D16*
X93528000Y-85841000D03*
X93528000Y-84571000D03*
D15*
X93528000Y-87111000D03*
X69610000Y-87231000D03*
D16*
X69610000Y-84691000D03*
X69610000Y-85961000D03*
D17*
X135395000Y-65778000D03*
D10*
X135395000Y-58158000D03*
D17*
X118618000Y-65913000D03*
D10*
X118618000Y-58293000D03*
D17*
X102743000Y-28829000D03*
D10*
X102743000Y-21209000D03*
D17*
X142112000Y-53103000D03*
D10*
X142112000Y-45483000D03*
X110672000Y-21185000D03*
D17*
X110672000Y-28805000D03*
D10*
X110617000Y-58420000D03*
D17*
X110617000Y-66040000D03*
X127535000Y-41353000D03*
D10*
X127535000Y-33733000D03*
X118803000Y-45538000D03*
D17*
X118803000Y-53158000D03*
X127635000Y-65913000D03*
D10*
X127635000Y-58293000D03*
X102870000Y-41529000D03*
D17*
X102870000Y-33909000D03*
D18*
X85933000Y-39503000D03*
X91013000Y-36963000D03*
X85933000Y-34423000D03*
D17*
X118913000Y-41353000D03*
D10*
X118913000Y-33733000D03*
D18*
X85598000Y-52578000D03*
X90678000Y-50038000D03*
X85598000Y-47498000D03*
D10*
X142112000Y-58158000D03*
D17*
X142112000Y-65778000D03*
D18*
X85598000Y-60833000D03*
X90678000Y-63373000D03*
X85598000Y-65913000D03*
D10*
X102743000Y-58674000D03*
D17*
X102743000Y-66294000D03*
D10*
X135395000Y-45483000D03*
D17*
X135395000Y-53103000D03*
D18*
X71628000Y-34163000D03*
X76708000Y-36703000D03*
X71628000Y-39243000D03*
D10*
X110672000Y-33860000D03*
D17*
X110672000Y-41480000D03*
X118913000Y-28678000D03*
D10*
X118913000Y-21058000D03*
X110772000Y-45525000D03*
D17*
X110772000Y-53145000D03*
X142112000Y-29023000D03*
D10*
X142112000Y-21403000D03*
D17*
X102743000Y-53594000D03*
D10*
X102743000Y-45974000D03*
X142112000Y-33443000D03*
D17*
X142112000Y-41063000D03*
X135395000Y-29023000D03*
D10*
X135395000Y-21403000D03*
D17*
X135395000Y-41063000D03*
D10*
X135395000Y-33443000D03*
D18*
X71628000Y-47498000D03*
X76708000Y-50038000D03*
X71628000Y-52578000D03*
D10*
X127425000Y-45538000D03*
D17*
X127425000Y-53158000D03*
D18*
X71628000Y-65913000D03*
X76708000Y-63373000D03*
X71628000Y-60833000D03*
D10*
X127535000Y-21058000D03*
D17*
X127535000Y-28678000D03*
D19*
X69087000Y-25146000D03*
D20*
X73787000Y-25146000D03*
X78487000Y-25146000D03*
D21*
X111901700Y-76555700D03*
X92457100Y-69575000D03*
X104417400Y-32409900D03*
X109827400Y-80659700D03*
X99178700Y-72477300D03*
X99226200Y-74627100D03*
X108441500Y-57837400D03*
D22*
X110998000Y-88011000D02*
X113502700Y-85506300D01*
X113502700Y-85506300D02*
X121249700Y-85506300D01*
X121249700Y-85506300D02*
X124079000Y-82677000D01*
X111742300Y-66040000D02*
X113317900Y-67615600D01*
X113317900Y-67615600D02*
X132131600Y-67615600D01*
X132131600Y-67615600D02*
X136779000Y-72263000D01*
X110617000Y-66040000D02*
X111742300Y-66040000D01*
X141779000Y-72263000D02*
X138955600Y-69439600D01*
X138955600Y-69439600D02*
X138955600Y-59485400D01*
X138955600Y-59485400D02*
X130558300Y-51088100D01*
X130558300Y-51088100D02*
X89677300Y-51088100D01*
X89677300Y-51088100D02*
X89632600Y-51043400D01*
X89632600Y-51043400D02*
X84115200Y-51043400D01*
X84115200Y-51043400D02*
X81441900Y-53716700D01*
X81441900Y-53716700D02*
X65458700Y-53716700D01*
X65458700Y-53716700D02*
X63263000Y-55912400D01*
X63263000Y-55912400D02*
X59409400Y-55912400D01*
X59409400Y-55912400D02*
X58977700Y-55480700D01*
X58977700Y-55480700D02*
X58977700Y-44917200D01*
X58977700Y-44917200D02*
X59785600Y-44109300D01*
X59785600Y-44109300D02*
X60153000Y-44109300D01*
X85852000Y-25146000D02*
X84426700Y-25146000D01*
X60153000Y-42934000D02*
X60153000Y-41758700D01*
X60153000Y-41758700D02*
X58945100Y-40550800D01*
X58945100Y-40550800D02*
X58945100Y-37750500D01*
X58945100Y-37750500D02*
X59786200Y-36909400D01*
X59786200Y-36909400D02*
X72663300Y-36909400D01*
X72663300Y-36909400D02*
X84426700Y-25146000D01*
X60153000Y-43521600D02*
X60153000Y-42934000D01*
X60153000Y-43521600D02*
X60153000Y-44109300D01*
X118803000Y-53158000D02*
X119928300Y-53158000D01*
X119928300Y-53158000D02*
X121053600Y-54283300D01*
X121053600Y-54283300D02*
X133116500Y-54283300D01*
X133116500Y-54283300D02*
X138061300Y-59228100D01*
X138061300Y-59228100D02*
X138061300Y-70567700D01*
X138061300Y-70567700D02*
X142918400Y-75424800D01*
X142918400Y-75424800D02*
X142918400Y-77936000D01*
X142918400Y-77936000D02*
X137923400Y-82931000D01*
X137923400Y-82931000D02*
X136779000Y-82931000D01*
X111901700Y-76555700D02*
X114037200Y-78691200D01*
X114037200Y-78691200D02*
X120840300Y-78691200D01*
X120840300Y-78691200D02*
X123193500Y-76338000D01*
X123193500Y-76338000D02*
X124342100Y-76338000D01*
X124342100Y-76338000D02*
X133782600Y-85778500D01*
X133782600Y-85778500D02*
X133782600Y-86791400D01*
X133782600Y-86791400D02*
X136010600Y-89019400D01*
X136010600Y-89019400D02*
X140389600Y-89019400D01*
X140389600Y-89019400D02*
X141525000Y-87884000D01*
X111901700Y-76555700D02*
X111702400Y-76356400D01*
X111702400Y-76356400D02*
X109759800Y-76356400D01*
X109759800Y-76356400D02*
X108389400Y-77726800D01*
X108389400Y-77726800D02*
X83767600Y-77726800D01*
X83767600Y-77726800D02*
X79314700Y-73273900D01*
X79314700Y-73273900D02*
X76367700Y-73273900D01*
X76367700Y-73273900D02*
X74330600Y-75311000D01*
X74330600Y-75311000D02*
X69723000Y-75311000D01*
X115693000Y-77511000D02*
X113994000Y-75812000D01*
X113994000Y-75812000D02*
X105047800Y-75812000D01*
X105047800Y-75812000D02*
X103583400Y-77276400D01*
X103583400Y-77276400D02*
X90513800Y-77276400D01*
X90513800Y-77276400D02*
X88837400Y-75600000D01*
X88837400Y-75600000D02*
X85036000Y-75600000D01*
X136525000Y-87884000D02*
X124528600Y-75887600D01*
X124528600Y-75887600D02*
X117316400Y-75887600D01*
X117316400Y-75887600D02*
X115693000Y-77511000D01*
X92457100Y-69575000D02*
X128884000Y-69575000D01*
X128884000Y-69575000D02*
X136779000Y-77470000D01*
X141779000Y-77470000D02*
X140623600Y-78625400D01*
X140623600Y-78625400D02*
X136283600Y-78625400D01*
X136283600Y-78625400D02*
X132571400Y-74913200D01*
X132571400Y-74913200D02*
X132571400Y-74279500D01*
X132571400Y-74279500D02*
X129076800Y-70784900D01*
X129076800Y-70784900D02*
X99619700Y-70784900D01*
X99619700Y-70784900D02*
X95223600Y-75181000D01*
X95223600Y-75181000D02*
X93528000Y-75181000D01*
X101495000Y-73784000D02*
X102570300Y-73784000D01*
X128825000Y-72136000D02*
X126954700Y-74006300D01*
X126954700Y-74006300D02*
X102792600Y-74006300D01*
X102792600Y-74006300D02*
X102570300Y-73784000D01*
X123829000Y-87730000D02*
X122421000Y-89138000D01*
X122421000Y-89138000D02*
X107715600Y-89138000D01*
X107715600Y-89138000D02*
X104291600Y-85714000D01*
X104291600Y-85714000D02*
X101495000Y-85714000D01*
X85163000Y-84736000D02*
X85163000Y-83910700D01*
X115998000Y-82931000D02*
X114807100Y-84121900D01*
X114807100Y-84121900D02*
X110375900Y-84121900D01*
X110375900Y-84121900D02*
X109837600Y-83583600D01*
X109837600Y-83583600D02*
X85490100Y-83583600D01*
X85490100Y-83583600D02*
X85163000Y-83910700D01*
X110998000Y-82931000D02*
X85326000Y-82931000D01*
X85326000Y-82931000D02*
X82470000Y-85787000D01*
X82470000Y-85787000D02*
X77704000Y-85787000D01*
X101495000Y-75054000D02*
X102570300Y-75054000D01*
X128825000Y-77470000D02*
X126409000Y-75054000D01*
X126409000Y-75054000D02*
X102570300Y-75054000D01*
X102570300Y-84444000D02*
X102706000Y-84579700D01*
X102706000Y-84579700D02*
X116715300Y-84579700D01*
X116715300Y-84579700D02*
X123825000Y-77470000D01*
X101495000Y-84444000D02*
X102570300Y-84444000D01*
X78487000Y-25146000D02*
X79912400Y-23720600D01*
X79912400Y-23720600D02*
X91559500Y-23720600D01*
X91559500Y-23720600D02*
X100248800Y-32409900D01*
X100248800Y-32409900D02*
X104417400Y-32409900D01*
X135395000Y-45483000D02*
X138553000Y-48641000D01*
X138553000Y-48641000D02*
X149987000Y-48641000D01*
X109827400Y-80659700D02*
X108231100Y-82256000D01*
X108231100Y-82256000D02*
X79139700Y-82256000D01*
X79139700Y-82256000D02*
X77704000Y-83691700D01*
X77704000Y-84517000D02*
X77704000Y-83691700D01*
X115918000Y-71951000D02*
X114791200Y-73077800D01*
X114791200Y-73077800D02*
X110453300Y-73077800D01*
X110453300Y-73077800D02*
X109852800Y-72477300D01*
X109852800Y-72477300D02*
X99178700Y-72477300D01*
X123825000Y-72136000D02*
X122432900Y-73528100D01*
X122432900Y-73528100D02*
X110126900Y-73528100D01*
X110126900Y-73528100D02*
X109553500Y-72954700D01*
X109553500Y-72954700D02*
X100898600Y-72954700D01*
X100898600Y-72954700D02*
X99226200Y-74627100D01*
X149987000Y-43561000D02*
X149987000Y-42385700D01*
X149987000Y-42385700D02*
X150354300Y-42385700D01*
X150354300Y-42385700D02*
X151180300Y-41559700D01*
X151180300Y-41559700D02*
X151180300Y-40551800D01*
X151180300Y-40551800D02*
X150456400Y-39827900D01*
X150456400Y-39827900D02*
X141779900Y-39827900D01*
X141779900Y-39827900D02*
X135395000Y-33443000D01*
X149987000Y-41021000D02*
X148811700Y-41021000D01*
X127425000Y-45538000D02*
X130766700Y-42196300D01*
X130766700Y-42196300D02*
X147636400Y-42196300D01*
X147636400Y-42196300D02*
X148811700Y-41021000D01*
X110693000Y-77511000D02*
X106452900Y-81751100D01*
X106452900Y-81751100D02*
X75656500Y-81751100D01*
X75656500Y-81751100D02*
X71446600Y-85961000D01*
X71446600Y-85961000D02*
X69610000Y-85961000D01*
X135395000Y-29023000D02*
X134269700Y-29023000D01*
X134269700Y-29023000D02*
X130392700Y-25146000D01*
X130392700Y-25146000D02*
X96012000Y-25146000D01*
X149987000Y-53721000D02*
X149987000Y-52545700D01*
X127535000Y-21058000D02*
X128363800Y-20229200D01*
X128363800Y-20229200D02*
X135845000Y-20229200D01*
X135845000Y-20229200D02*
X152126300Y-36510500D01*
X152126300Y-36510500D02*
X152126300Y-50773700D01*
X152126300Y-50773700D02*
X150354300Y-52545700D01*
X150354300Y-52545700D02*
X149987000Y-52545700D01*
X149987000Y-71374000D02*
X149987000Y-81024000D01*
X149987000Y-81024000D02*
X141375700Y-89635300D01*
X141375700Y-89635300D02*
X102408700Y-89635300D01*
X102408700Y-89635300D02*
X97344400Y-84571000D01*
X97344400Y-84571000D02*
X93528000Y-84571000D01*
X73787000Y-25146000D02*
X75663300Y-23269700D01*
X75663300Y-23269700D02*
X138005000Y-23269700D01*
X138005000Y-23269700D02*
X151649600Y-36914300D01*
X151649600Y-36914300D02*
X151649600Y-48710400D01*
X151649600Y-48710400D02*
X150354300Y-50005700D01*
X150354300Y-50005700D02*
X149987000Y-50005700D01*
X149987000Y-51181000D02*
X149987000Y-50005700D01*
X69087000Y-25146000D02*
X70837300Y-25146000D01*
X70837300Y-25146000D02*
X73322700Y-22660600D01*
X73322700Y-22660600D02*
X134137400Y-22660600D01*
X134137400Y-22660600D02*
X135395000Y-21403000D01*
X85036000Y-74330000D02*
X85036000Y-73504700D01*
X108441500Y-57837400D02*
X101547300Y-64731600D01*
X101547300Y-64731600D02*
X93809100Y-64731600D01*
X93809100Y-64731600D02*
X85036000Y-73504700D01*
X108441500Y-57837400D02*
X115391800Y-64787700D01*
X115391800Y-64787700D02*
X125384400Y-64787700D01*
X125384400Y-64787700D02*
X126509700Y-65913000D01*
X127635000Y-65913000D02*
X126509700Y-65913000D01*
X103995300Y-33909000D02*
X105300300Y-32604000D01*
X105300300Y-32604000D02*
X126406000Y-32604000D01*
X126406000Y-32604000D02*
X127535000Y-33733000D01*
X102870000Y-33909000D02*
X103995300Y-33909000D01*
X60153000Y-38274000D02*
X61328300Y-38274000D01*
X85933000Y-39503000D02*
X84622200Y-38192200D01*
X84622200Y-38192200D02*
X61410100Y-38192200D01*
X61410100Y-38192200D02*
X61328300Y-38274000D01*
X91013000Y-36963000D02*
X115683000Y-36963000D01*
X115683000Y-36963000D02*
X118913000Y-33733000D01*
X90678000Y-50038000D02*
X133992000Y-50038000D01*
X133992000Y-50038000D02*
X142112000Y-58158000D01*
X102743000Y-58674000D02*
X98044000Y-63373000D01*
X98044000Y-63373000D02*
X90678000Y-63373000D01*
X76708000Y-36703000D02*
X77815700Y-35595300D01*
X77815700Y-35595300D02*
X108936700Y-35595300D01*
X108936700Y-35595300D02*
X110672000Y-33860000D01*
X135395000Y-41063000D02*
X129416600Y-41063000D01*
X129416600Y-41063000D02*
X122816100Y-47663500D01*
X122816100Y-47663500D02*
X87044200Y-47663500D01*
X87044200Y-47663500D02*
X84558900Y-50148800D01*
X84558900Y-50148800D02*
X82834500Y-50148800D01*
X82834500Y-50148800D02*
X80405300Y-52578000D01*
X80405300Y-52578000D02*
X71628000Y-52578000D01*
X71628000Y-65913000D02*
X66802000Y-61087000D01*
X66802000Y-61087000D02*
X60051800Y-61087000D01*
X60051800Y-61087000D02*
X59276700Y-60311900D01*
X59276700Y-60311900D02*
X59276700Y-59328000D01*
X59276700Y-59328000D02*
X60057700Y-58547000D01*
X60057700Y-58547000D02*
X61891200Y-58547000D01*
X61891200Y-58547000D02*
X65914200Y-54524000D01*
X65914200Y-54524000D02*
X81364600Y-54524000D01*
X81364600Y-54524000D02*
X84394800Y-51493800D01*
X84394800Y-51493800D02*
X85992300Y-51493800D01*
X85992300Y-51493800D02*
X86037000Y-51538500D01*
X86037000Y-51538500D02*
X124680200Y-51538500D01*
X124680200Y-51538500D02*
X126299700Y-53158000D01*
X127425000Y-53158000D02*
X126299700Y-53158000D01*
X102743000Y-45974000D02*
X85643600Y-45974000D01*
X85643600Y-45974000D02*
X80528900Y-51088700D01*
X80528900Y-51088700D02*
X65275600Y-51088700D01*
X65275600Y-51088700D02*
X61627300Y-54737000D01*
X110772000Y-45525000D02*
X103192000Y-45525000D01*
X103192000Y-45525000D02*
X102743000Y-45974000D01*
X60452000Y-54737000D02*
X61627300Y-54737000D01*
X142112000Y-33443000D02*
X140982500Y-32313500D01*
X140982500Y-32313500D02*
X133369700Y-32313500D01*
X133369700Y-32313500D02*
X121593500Y-44089700D01*
X121593500Y-44089700D02*
X112207300Y-44089700D01*
X112207300Y-44089700D02*
X110772000Y-45525000D01*
X101495000Y-76324000D02*
X100419700Y-76324000D01*
X93528000Y-76451000D02*
X94603300Y-76451000D01*
X94603300Y-76451000D02*
X100292700Y-76451000D01*
X100292700Y-76451000D02*
X100419700Y-76324000D01*
X127535000Y-28678000D02*
X127535000Y-29803300D01*
X76708000Y-50038000D02*
X79416500Y-50038000D01*
X79416500Y-50038000D02*
X91081700Y-38372800D01*
X91081700Y-38372800D02*
X124490200Y-38372800D01*
X124490200Y-38372800D02*
X128660300Y-34202700D01*
X128660300Y-34202700D02*
X128660300Y-30928600D01*
X128660300Y-30928600D02*
X127535000Y-29803300D01*
X60452000Y-76327000D02*
X61627300Y-76327000D01*
X77577000Y-76651000D02*
X76501700Y-76651000D01*
X76501700Y-76651000D02*
X75746400Y-77406300D01*
X75746400Y-77406300D02*
X62706600Y-77406300D01*
X62706600Y-77406300D02*
X61627300Y-76327000D01*
X60452000Y-78867000D02*
X60452000Y-77691700D01*
X60452000Y-62357000D02*
X60452000Y-63532300D01*
X60452000Y-63532300D02*
X60084700Y-63532300D01*
X60084700Y-63532300D02*
X59276700Y-64340300D01*
X59276700Y-64340300D02*
X59276700Y-76883800D01*
X59276700Y-76883800D02*
X60084600Y-77691700D01*
X60084600Y-77691700D02*
X60452000Y-77691700D01*
X61627300Y-59817000D02*
X65808500Y-55635800D01*
X65808500Y-55635800D02*
X82540200Y-55635800D01*
X82540200Y-55635800D02*
X85598000Y-52578000D01*
X118618000Y-58293000D02*
X112338300Y-52013300D01*
X112338300Y-52013300D02*
X86162700Y-52013300D01*
X86162700Y-52013300D02*
X85598000Y-52578000D01*
X135395000Y-58158000D02*
X134396400Y-57159400D01*
X134396400Y-57159400D02*
X119751600Y-57159400D01*
X119751600Y-57159400D02*
X118618000Y-58293000D01*
X69610000Y-87231000D02*
X69610000Y-88056300D01*
X93528000Y-87111000D02*
X93528000Y-87936300D01*
X93528000Y-87936300D02*
X93362900Y-88101400D01*
X93362900Y-88101400D02*
X69655100Y-88101400D01*
X69655100Y-88101400D02*
X69610000Y-88056300D01*
X60452000Y-59817000D02*
X61627300Y-59817000D01*
X85163000Y-87276000D02*
X84087700Y-87276000D01*
X77704000Y-87057000D02*
X83868700Y-87057000D01*
X83868700Y-87057000D02*
X84087700Y-87276000D01*
X110772000Y-53145000D02*
X104830100Y-53145000D01*
X104830100Y-53145000D02*
X96452000Y-61523100D01*
X96452000Y-61523100D02*
X86666200Y-61523100D01*
X86666200Y-61523100D02*
X74148300Y-74041000D01*
X74148300Y-74041000D02*
X69723000Y-74041000D01*
X110772000Y-53145000D02*
X111897300Y-53145000D01*
X111897300Y-53145000D02*
X111897300Y-53285700D01*
X111897300Y-53285700D02*
X118036000Y-59424400D01*
X118036000Y-59424400D02*
X126503600Y-59424400D01*
X126503600Y-59424400D02*
X127635000Y-58293000D01*
X102870000Y-41529000D02*
X105521300Y-38877700D01*
X105521300Y-38877700D02*
X124695000Y-38877700D01*
X124695000Y-38877700D02*
X133424400Y-30148300D01*
X133424400Y-30148300D02*
X139861400Y-30148300D01*
X139861400Y-30148300D02*
X140986700Y-29023000D01*
X142112000Y-29023000D02*
X140986700Y-29023000D01*
M02*
