G04 #@! TF.GenerationSoftware,KiCad,Pcbnew,(5.1.5)-3*
G04 #@! TF.CreationDate,2020-01-27T19:36:50-05:00*
G04 #@! TF.ProjectId,output,6f757470-7574-42e6-9b69-6361645f7063,v01*
G04 #@! TF.SameCoordinates,Original*
G04 #@! TF.FileFunction,Copper,L2,Bot*
G04 #@! TF.FilePolarity,Positive*
%FSLAX46Y46*%
G04 Gerber Fmt 4.6, Leading zero omitted, Abs format (unit mm)*
G04 Created by KiCad (PCBNEW (5.1.5)-3) date 2020-01-27 19:36:50*
%MOMM*%
%LPD*%
G04 APERTURE LIST*
%ADD10C,1.600000*%
%ADD11R,1.600000X1.600000*%
%ADD12R,1.700000X1.700000*%
%ADD13O,1.700000X1.700000*%
%ADD14R,2.200000X2.200000*%
%ADD15O,2.200000X2.200000*%
%ADD16O,1.600000X1.600000*%
%ADD17R,1.000000X1.500000*%
%ADD18O,1.000000X1.500000*%
%ADD19C,1.440000*%
%ADD20R,2.850000X2.850000*%
%ADD21C,2.850000*%
%ADD22O,1.600000X1.200000*%
%ADD23O,1.200000X1.200000*%
%ADD24C,0.800000*%
%ADD25C,0.250000*%
G04 APERTURE END LIST*
D10*
X114855000Y-140335000D03*
X109855000Y-140335000D03*
X109855000Y-125095000D03*
X114855000Y-125095000D03*
X125015000Y-130175000D03*
X120015000Y-130175000D03*
X109855000Y-130175000D03*
X114855000Y-130175000D03*
X125015000Y-150495000D03*
X120015000Y-150495000D03*
X120015000Y-120015000D03*
X125015000Y-120015000D03*
X109855000Y-145415000D03*
X114855000Y-145415000D03*
X125015000Y-145415000D03*
X120015000Y-145415000D03*
X120015000Y-140335000D03*
X125015000Y-140335000D03*
X120015000Y-155575000D03*
X125015000Y-155575000D03*
X125015000Y-125095000D03*
X120015000Y-125095000D03*
X120015000Y-135255000D03*
X125015000Y-135255000D03*
X114855000Y-135255000D03*
X109855000Y-135255000D03*
X109855000Y-120015000D03*
X114855000Y-120015000D03*
X114855000Y-150495000D03*
X109855000Y-150495000D03*
D11*
X97790000Y-153035000D03*
D10*
X99790000Y-153035000D03*
D12*
X90170000Y-125095000D03*
D13*
X90170000Y-127635000D03*
D14*
X104140000Y-155575000D03*
D15*
X114300000Y-155575000D03*
D12*
X40005000Y-128905000D03*
D13*
X40005000Y-131445000D03*
X40005000Y-133985000D03*
D12*
X40005000Y-142875000D03*
X40005000Y-120015000D03*
D13*
X130175000Y-156210000D03*
D12*
X130175000Y-153670000D03*
X40005000Y-152400000D03*
D13*
X40005000Y-154940000D03*
D12*
X130175000Y-148590000D03*
D13*
X130175000Y-142875000D03*
D12*
X130175000Y-140335000D03*
D16*
X130175000Y-119380000D03*
D10*
X130175000Y-127000000D03*
D12*
X130175000Y-132080000D03*
D13*
X130175000Y-134620000D03*
D17*
X101600000Y-133985000D03*
D18*
X104140000Y-133985000D03*
X102870000Y-133985000D03*
D17*
X93345000Y-133985000D03*
D18*
X95885000Y-133985000D03*
X94615000Y-133985000D03*
X102870000Y-140335000D03*
X104140000Y-140335000D03*
D17*
X101600000Y-140335000D03*
D18*
X94615000Y-142875000D03*
X95885000Y-142875000D03*
D17*
X93345000Y-142875000D03*
D18*
X102870000Y-146685000D03*
X104140000Y-146685000D03*
D17*
X101600000Y-146685000D03*
D10*
X83185000Y-120015000D03*
D16*
X90805000Y-120015000D03*
X65405000Y-135255000D03*
D10*
X57785000Y-135255000D03*
X70485000Y-155575000D03*
D16*
X78105000Y-155575000D03*
X65405000Y-140335000D03*
D10*
X57785000Y-140335000D03*
D16*
X78105000Y-150495000D03*
D10*
X70485000Y-150495000D03*
X70485000Y-145415000D03*
D16*
X78105000Y-145415000D03*
D10*
X70485000Y-140335000D03*
D16*
X78105000Y-140335000D03*
X65405000Y-150495000D03*
D10*
X57785000Y-150495000D03*
D16*
X65405000Y-130175000D03*
D10*
X57785000Y-130175000D03*
X57785000Y-155575000D03*
D16*
X65405000Y-155575000D03*
X65405000Y-125095000D03*
D10*
X57785000Y-125095000D03*
D16*
X78105000Y-135255000D03*
D10*
X70485000Y-135255000D03*
D19*
X98425000Y-121285000D03*
X103505000Y-123825000D03*
X98425000Y-126365000D03*
D10*
X45085000Y-120015000D03*
D16*
X52705000Y-120015000D03*
D10*
X57785000Y-120015000D03*
D16*
X65405000Y-120015000D03*
D10*
X45085000Y-140335000D03*
D16*
X52705000Y-140335000D03*
X65405000Y-145415000D03*
D10*
X57785000Y-145415000D03*
X45085000Y-145415000D03*
D16*
X52705000Y-145415000D03*
X52705000Y-125095000D03*
D10*
X45085000Y-125095000D03*
D16*
X78105000Y-120015000D03*
D10*
X70485000Y-120015000D03*
D16*
X52705000Y-130175000D03*
D10*
X45085000Y-130175000D03*
X45085000Y-150495000D03*
D16*
X52705000Y-150495000D03*
D10*
X70485000Y-125095000D03*
D16*
X78105000Y-125095000D03*
X52705000Y-155575000D03*
D10*
X45085000Y-155575000D03*
X70485000Y-130175000D03*
D16*
X78105000Y-130175000D03*
D10*
X45085000Y-135255000D03*
D16*
X52705000Y-135255000D03*
D20*
X86360000Y-142750000D03*
D21*
X86360000Y-138050000D03*
X86360000Y-133350000D03*
D22*
X84074000Y-151765000D03*
D23*
X87884000Y-155321000D03*
X91186000Y-151765000D03*
X87884000Y-148209000D03*
X85852000Y-148717000D03*
X84582000Y-149987000D03*
X84582000Y-153797000D03*
X86090000Y-154813000D03*
X89662000Y-154813000D03*
X90932000Y-153543000D03*
X90678000Y-149987000D03*
X89662000Y-148717000D03*
D24*
X94044500Y-155986000D03*
X94000200Y-151765000D03*
X88102800Y-145295600D03*
X92932400Y-141062900D03*
D25*
X130175000Y-142875000D02*
X130175000Y-141699700D01*
X130175000Y-141699700D02*
X129367000Y-141699700D01*
X129367000Y-141699700D02*
X126760000Y-139092700D01*
X126760000Y-139092700D02*
X126760000Y-130328300D01*
X126760000Y-130328300D02*
X121526700Y-125095000D01*
X121526700Y-125095000D02*
X120015000Y-125095000D01*
X65405000Y-154449700D02*
X64279700Y-153324400D01*
X64279700Y-153324400D02*
X64279700Y-146829700D01*
X64279700Y-146829700D02*
X57785000Y-140335000D01*
X92519700Y-133985000D02*
X92207100Y-134297600D01*
X92207100Y-134297600D02*
X92207100Y-143473600D01*
X92207100Y-143473600D02*
X92683800Y-143950300D01*
X92683800Y-143950300D02*
X95885000Y-143950300D01*
X93345000Y-133985000D02*
X92519700Y-133985000D01*
X95885000Y-142875000D02*
X95885000Y-143950300D01*
X65405000Y-135255000D02*
X64279700Y-135255000D01*
X56625300Y-129020000D02*
X58222100Y-129020000D01*
X58222100Y-129020000D02*
X64279700Y-135077600D01*
X64279700Y-135077600D02*
X64279700Y-135255000D01*
X52705000Y-126220300D02*
X55504700Y-129020000D01*
X55504700Y-129020000D02*
X56625300Y-129020000D01*
X56625300Y-129020000D02*
X56625300Y-139175300D01*
X56625300Y-139175300D02*
X57785000Y-140335000D01*
X78105000Y-140335000D02*
X76979700Y-140335000D01*
X65405000Y-135255000D02*
X66530300Y-135255000D01*
X66530300Y-135255000D02*
X70485000Y-139209700D01*
X70485000Y-139209700D02*
X75854400Y-139209700D01*
X75854400Y-139209700D02*
X76979700Y-140335000D01*
X65405000Y-155575000D02*
X65405000Y-154449700D01*
X52705000Y-125095000D02*
X52705000Y-126220300D01*
X43922000Y-135836500D02*
X43031800Y-135836500D01*
X43031800Y-135836500D02*
X41180300Y-133985000D01*
X45085000Y-135255000D02*
X44503500Y-135836500D01*
X44503500Y-135836500D02*
X43922000Y-135836500D01*
X43922000Y-135836500D02*
X43922000Y-144252000D01*
X43922000Y-144252000D02*
X45085000Y-145415000D01*
X40005000Y-133985000D02*
X41180300Y-133985000D01*
X45085000Y-135255000D02*
X45085000Y-130175000D01*
X78105000Y-120015000D02*
X78105000Y-121140300D01*
X87884000Y-148209000D02*
X87884000Y-147283700D01*
X87884000Y-147283700D02*
X87537000Y-147283700D01*
X87537000Y-147283700D02*
X82346900Y-142093600D01*
X82346900Y-142093600D02*
X82346900Y-125382200D01*
X82346900Y-125382200D02*
X78105000Y-121140300D01*
X65405000Y-150495000D02*
X65405000Y-145415000D01*
X78105000Y-150495000D02*
X78105000Y-155575000D01*
X86360000Y-144500300D02*
X86360000Y-144578500D01*
X86360000Y-144578500D02*
X88496500Y-146715000D01*
X88496500Y-146715000D02*
X88977300Y-146715000D01*
X88977300Y-146715000D02*
X92125300Y-149863000D01*
X92125300Y-149863000D02*
X92125300Y-153671100D01*
X92125300Y-153671100D02*
X90021700Y-155774700D01*
X90021700Y-155774700D02*
X89263000Y-155774700D01*
X89263000Y-155774700D02*
X88809300Y-155321000D01*
X86360000Y-142750000D02*
X86360000Y-144500300D01*
X87884000Y-155321000D02*
X88809300Y-155321000D01*
X118886200Y-156052200D02*
X118886200Y-141463800D01*
X118886200Y-141463800D02*
X120015000Y-140335000D01*
X128999700Y-156210000D02*
X128470600Y-156739100D01*
X128470600Y-156739100D02*
X119573100Y-156739100D01*
X119573100Y-156739100D02*
X118886200Y-156052200D01*
X41180300Y-152400000D02*
X41180300Y-153281500D01*
X41180300Y-153281500D02*
X46935800Y-159037000D01*
X46935800Y-159037000D02*
X115901400Y-159037000D01*
X115901400Y-159037000D02*
X118886200Y-156052200D01*
X130175000Y-156210000D02*
X128999700Y-156210000D01*
X40005000Y-152400000D02*
X41180300Y-152400000D01*
X125015000Y-130175000D02*
X126140400Y-131300400D01*
X126140400Y-131300400D02*
X126140400Y-140881200D01*
X126140400Y-140881200D02*
X120015000Y-147006600D01*
X120015000Y-147006600D02*
X120015000Y-150495000D01*
X121153100Y-130175000D02*
X125015000Y-130175000D01*
X90805000Y-124901600D02*
X108274600Y-124901600D01*
X108274600Y-124901600D02*
X109234900Y-123941300D01*
X109234900Y-123941300D02*
X113701300Y-123941300D01*
X113701300Y-123941300D02*
X114855000Y-125095000D01*
X114855000Y-125095000D02*
X116537900Y-125095000D01*
X116537900Y-125095000D02*
X121153100Y-129710200D01*
X121153100Y-129710200D02*
X121153100Y-130175000D01*
X90170000Y-125095000D02*
X90363400Y-124901600D01*
X90363400Y-124901600D02*
X90805000Y-124901600D01*
X90805000Y-121140300D02*
X90805000Y-124901600D01*
X121153100Y-130175000D02*
X121153100Y-130643500D01*
X121153100Y-130643500D02*
X111461600Y-140335000D01*
X111461600Y-140335000D02*
X109855000Y-140335000D01*
X90805000Y-120015000D02*
X90805000Y-121140300D01*
X102870000Y-133985000D02*
X102870000Y-136125500D01*
X102870000Y-136125500D02*
X100176500Y-138819000D01*
X100176500Y-138819000D02*
X100176500Y-143018600D01*
X100176500Y-143018600D02*
X93139900Y-150055200D01*
X93139900Y-150055200D02*
X93139900Y-153954200D01*
X93139900Y-153954200D02*
X90384500Y-156709600D01*
X90384500Y-156709600D02*
X71619600Y-156709600D01*
X71619600Y-156709600D02*
X70485000Y-155575000D01*
X130175000Y-127000000D02*
X123190000Y-120015000D01*
X123190000Y-120015000D02*
X120015000Y-120015000D01*
X125015000Y-145415000D02*
X129976400Y-145415000D01*
X129976400Y-145415000D02*
X131800600Y-143590800D01*
X131800600Y-143590800D02*
X131800600Y-126800600D01*
X131800600Y-126800600D02*
X125015000Y-120015000D01*
X86360000Y-138050000D02*
X83185000Y-134875000D01*
X83185000Y-134875000D02*
X83185000Y-120015000D01*
X57785000Y-130175000D02*
X70485000Y-142875000D01*
X70485000Y-142875000D02*
X70485000Y-145415000D01*
X57785000Y-155575000D02*
X60791100Y-158581100D01*
X60791100Y-158581100D02*
X96752400Y-158581100D01*
X96752400Y-158581100D02*
X102937000Y-152396500D01*
X102937000Y-152396500D02*
X109594800Y-152396500D01*
X109594800Y-152396500D02*
X114855000Y-147136300D01*
X114855000Y-147136300D02*
X114855000Y-145415000D01*
X104140000Y-155575000D02*
X107053200Y-155575000D01*
X107053200Y-155575000D02*
X117384900Y-145243300D01*
X117384900Y-145243300D02*
X117384900Y-141348100D01*
X117384900Y-141348100D02*
X119533800Y-139199200D01*
X119533800Y-139199200D02*
X123879200Y-139199200D01*
X123879200Y-139199200D02*
X125015000Y-140335000D01*
X130175000Y-134620000D02*
X130175000Y-135795300D01*
X120015000Y-155575000D02*
X123879700Y-151710300D01*
X123879700Y-151710300D02*
X123879700Y-144958900D01*
X123879700Y-144958900D02*
X124586700Y-144251900D01*
X124586700Y-144251900D02*
X130502600Y-144251900D01*
X130502600Y-144251900D02*
X131350300Y-143404200D01*
X131350300Y-143404200D02*
X131350300Y-136970600D01*
X131350300Y-136970600D02*
X130175000Y-135795300D01*
X130175000Y-133444700D02*
X129376500Y-133444700D01*
X129376500Y-133444700D02*
X127511400Y-131579600D01*
X127511400Y-131579600D02*
X127511400Y-130409400D01*
X127511400Y-130409400D02*
X117117000Y-120015000D01*
X117117000Y-120015000D02*
X114855000Y-120015000D01*
X130175000Y-134620000D02*
X130175000Y-133444700D01*
X102870000Y-145609700D02*
X100930000Y-145609700D01*
X100930000Y-145609700D02*
X96565700Y-149974000D01*
X96565700Y-149974000D02*
X96565700Y-150225500D01*
X96565700Y-150225500D02*
X93590300Y-153200900D01*
X93590300Y-153200900D02*
X93590300Y-154140700D01*
X93590300Y-154140700D02*
X90532200Y-157198800D01*
X90532200Y-157198800D02*
X65406500Y-157198800D01*
X65406500Y-157198800D02*
X63815300Y-155607600D01*
X63815300Y-155607600D02*
X63815300Y-151445300D01*
X63815300Y-151445300D02*
X57785000Y-145415000D01*
X102870000Y-146685000D02*
X102870000Y-145609700D01*
X125015000Y-125095000D02*
X125015000Y-125744700D01*
X125015000Y-125744700D02*
X130175000Y-130904700D01*
X130175000Y-132080000D02*
X130175000Y-130904700D01*
X45085000Y-150495000D02*
X47625000Y-153035000D01*
X47625000Y-153035000D02*
X58412400Y-153035000D01*
X58412400Y-153035000D02*
X63492500Y-158115100D01*
X63492500Y-158115100D02*
X90889700Y-158115100D01*
X90889700Y-158115100D02*
X95211500Y-153793300D01*
X95211500Y-153793300D02*
X95211500Y-152853500D01*
X95211500Y-152853500D02*
X99846800Y-148218200D01*
X99846800Y-148218200D02*
X104308900Y-148218200D01*
X104308900Y-148218200D02*
X117272100Y-135255000D01*
X117272100Y-135255000D02*
X120015000Y-135255000D01*
X125015000Y-135255000D02*
X121606600Y-135255000D01*
X121606600Y-135255000D02*
X107383700Y-149477900D01*
X107383700Y-149477900D02*
X99224000Y-149477900D01*
X99224000Y-149477900D02*
X96569200Y-152132700D01*
X96569200Y-152132700D02*
X96569200Y-153461300D01*
X96569200Y-153461300D02*
X94044500Y-155986000D01*
X109855000Y-135255000D02*
X109855000Y-136047800D01*
X109855000Y-136047800D02*
X94137800Y-151765000D01*
X94137800Y-151765000D02*
X94000200Y-151765000D01*
X109855000Y-120015000D02*
X108275200Y-118435200D01*
X108275200Y-118435200D02*
X74904500Y-118435200D01*
X74904500Y-118435200D02*
X68879400Y-124460300D01*
X68879400Y-124460300D02*
X68879400Y-128569400D01*
X68879400Y-128569400D02*
X70485000Y-130175000D01*
X109855000Y-150495000D02*
X102330000Y-150495000D01*
X102330000Y-150495000D02*
X99790000Y-153035000D01*
X100774700Y-146685000D02*
X100743100Y-146685000D01*
X100743100Y-146685000D02*
X94172300Y-153255800D01*
X94172300Y-153255800D02*
X94172300Y-154195600D01*
X94172300Y-154195600D02*
X90718700Y-157649200D01*
X90718700Y-157649200D02*
X65220000Y-157649200D01*
X65220000Y-157649200D02*
X63364900Y-155794100D01*
X63364900Y-155794100D02*
X63364900Y-154409000D01*
X63364900Y-154409000D02*
X51469200Y-142513300D01*
X52705000Y-131300300D02*
X51469200Y-132536100D01*
X51469200Y-132536100D02*
X51469200Y-142513300D01*
X45085000Y-155575000D02*
X43932100Y-154422100D01*
X43932100Y-154422100D02*
X43932100Y-150050400D01*
X43932100Y-150050400D02*
X51469200Y-142513300D01*
X101600000Y-146685000D02*
X100774700Y-146685000D01*
X52705000Y-130175000D02*
X52705000Y-131300300D01*
X130175000Y-147414700D02*
X132252300Y-145337400D01*
X132252300Y-145337400D02*
X132252300Y-125655100D01*
X132252300Y-125655100D02*
X124536000Y-117938800D01*
X124536000Y-117938800D02*
X68606500Y-117938800D01*
X68606500Y-117938800D02*
X66530300Y-120015000D01*
X130175000Y-148590000D02*
X130175000Y-147414700D01*
X65405000Y-120015000D02*
X66530300Y-120015000D01*
X100774700Y-133985000D02*
X97274800Y-137484900D01*
X97274800Y-137484900D02*
X97274800Y-144400700D01*
X97274800Y-144400700D02*
X92662300Y-149013200D01*
X92662300Y-149013200D02*
X92662300Y-153794900D01*
X92662300Y-153794900D02*
X90197900Y-156259300D01*
X90197900Y-156259300D02*
X85673200Y-156259300D01*
X85673200Y-156259300D02*
X78718300Y-149304400D01*
X78718300Y-149304400D02*
X71675600Y-149304400D01*
X71675600Y-149304400D02*
X70485000Y-150495000D01*
X101600000Y-133985000D02*
X100774700Y-133985000D01*
X93345000Y-141799700D02*
X95885000Y-139259700D01*
X95885000Y-139259700D02*
X95885000Y-133985000D01*
X93345000Y-142875000D02*
X93345000Y-141799700D01*
X45085000Y-125095000D02*
X46254500Y-123925500D01*
X46254500Y-123925500D02*
X53883300Y-123925500D01*
X53883300Y-123925500D02*
X64087400Y-134129600D01*
X64087400Y-134129600D02*
X73494900Y-134129600D01*
X73494900Y-134129600D02*
X79883600Y-140518300D01*
X79883600Y-140518300D02*
X79883600Y-146649300D01*
X79883600Y-146649300D02*
X84074000Y-150839700D01*
X84074000Y-151765000D02*
X84074000Y-150839700D01*
X90678000Y-149987000D02*
X88341400Y-149987000D01*
X88341400Y-149987000D02*
X86958600Y-148604200D01*
X86958600Y-148604200D02*
X86958600Y-148475100D01*
X86958600Y-148475100D02*
X81896500Y-143413000D01*
X81896500Y-143413000D02*
X81896500Y-136506500D01*
X81896500Y-136506500D02*
X70485000Y-125095000D01*
X106876200Y-135253500D02*
X109414700Y-132715000D01*
X109414700Y-132715000D02*
X117475000Y-132715000D01*
X117475000Y-132715000D02*
X120015000Y-130175000D01*
X102870000Y-139259700D02*
X106876200Y-135253500D01*
X90170000Y-132450600D02*
X104073300Y-132450600D01*
X104073300Y-132450600D02*
X106876200Y-135253500D01*
X90170000Y-132450600D02*
X90170000Y-127635000D01*
X88102800Y-145295600D02*
X90170000Y-143228400D01*
X90170000Y-143228400D02*
X90170000Y-132450600D01*
X102870000Y-140335000D02*
X102870000Y-139259700D01*
X78105000Y-145415000D02*
X76979700Y-145415000D01*
X70485000Y-140335000D02*
X71899700Y-140335000D01*
X71899700Y-140335000D02*
X76979700Y-145415000D01*
X71652100Y-131348200D02*
X71652100Y-128550000D01*
X71652100Y-128550000D02*
X69329700Y-126227600D01*
X69329700Y-126227600D02*
X69329700Y-124646900D01*
X69329700Y-124646900D02*
X75091100Y-118885500D01*
X75091100Y-118885500D02*
X98565500Y-118885500D01*
X98565500Y-118885500D02*
X103505000Y-123825000D01*
X78105000Y-136380300D02*
X80514700Y-138790000D01*
X80514700Y-138790000D02*
X80514700Y-144994400D01*
X80514700Y-144994400D02*
X84582000Y-149061700D01*
X71652100Y-131348200D02*
X69118200Y-131348200D01*
X69118200Y-131348200D02*
X57785000Y-120015000D01*
X45085000Y-120015000D02*
X43959600Y-121140400D01*
X43959600Y-121140400D02*
X43959600Y-125834600D01*
X43959600Y-125834600D02*
X46215600Y-128090600D01*
X46215600Y-128090600D02*
X46215600Y-139204400D01*
X46215600Y-139204400D02*
X45085000Y-140335000D01*
X78105000Y-135255000D02*
X78105000Y-136380300D01*
X84582000Y-149987000D02*
X84582000Y-149061700D01*
X76979700Y-135255000D02*
X73072900Y-131348200D01*
X73072900Y-131348200D02*
X71652100Y-131348200D01*
X78105000Y-135255000D02*
X76979700Y-135255000D01*
X94615000Y-133985000D02*
X94615000Y-132909700D01*
X94615000Y-132909700D02*
X103224500Y-132909700D01*
X103224500Y-132909700D02*
X104140000Y-133825200D01*
X104140000Y-133825200D02*
X104140000Y-133985000D01*
X92932400Y-141062900D02*
X94615000Y-139380300D01*
X94615000Y-139380300D02*
X94615000Y-133985000D01*
M02*
