M48
; DRILL file {KiCad (5.1.5)-3} date 1/27/2020 7:36:46 PM
; FORMAT={-:-/ absolute / inch / decimal}
; #@! TF.CreationDate,2020-01-27T19:36:46-05:00
; #@! TF.GenerationSoftware,Kicad,Pcbnew,(5.1.5)-3
; #@! TF.FileFunction,Plated,1,2,PTH
FMAT,2
INCH
T1C0.0157
T2C0.0217
T3C0.0276
T4C0.0315
T5C0.0394
T6C0.0433
T7C0.0728
%
G90
G05
T1
X3.4686Y-5.7203
X3.6588Y-5.5537
X3.7008Y-5.975
X3.7025Y-6.1412
T2
X3.675Y-5.625
X3.725Y-5.625
X3.775Y-5.625
X4.0Y-5.525
X4.05Y-5.525
X4.1Y-5.525
X4.0Y-5.775
X4.05Y-5.775
X4.1Y-5.775
X3.675Y-5.275
X3.725Y-5.275
X3.775Y-5.275
X4.0Y-5.275
X4.05Y-5.275
X4.1Y-5.275
T3
X3.31Y-5.975
X3.33Y-5.905
X3.33Y-6.055
X3.38Y-5.855
X3.3894Y-6.095
X3.46Y-5.835
X3.46Y-6.115
X3.53Y-5.855
X3.53Y-6.095
X3.57Y-5.905
X3.58Y-6.045
X3.59Y-5.975
T4
X1.775Y-6.125
X2.075Y-6.125
X2.775Y-5.325
X3.075Y-5.325
X4.725Y-5.925
X4.9219Y-5.925
X2.275Y-5.125
X2.575Y-5.125
X2.775Y-5.525
X3.075Y-5.525
X1.775Y-5.925
X2.075Y-5.925
X2.275Y-4.925
X2.575Y-4.925
X4.325Y-5.325
X4.5219Y-5.325
X4.725Y-5.325
X4.9219Y-5.325
X2.775Y-5.925
X3.075Y-5.925
X4.725Y-4.925
X4.9219Y-4.925
X5.125Y-4.7
X5.125Y-5.0
X1.775Y-5.125
X2.075Y-5.125
X2.775Y-4.925
X3.075Y-4.925
X1.775Y-4.925
X2.075Y-4.925
X2.275Y-5.925
X2.575Y-5.925
X4.325Y-5.125
X4.5219Y-5.125
X2.775Y-4.725
X3.075Y-4.725
X2.275Y-5.725
X2.575Y-5.725
X3.275Y-4.725
X3.575Y-4.725
X4.725Y-4.725
X4.9219Y-4.725
X1.775Y-5.725
X2.075Y-5.725
X2.775Y-5.725
X3.075Y-5.725
X4.725Y-5.125
X4.9219Y-5.125
X2.275Y-4.725
X2.575Y-4.725
X4.325Y-5.925
X4.5219Y-5.925
X4.725Y-5.525
X4.9219Y-5.525
X1.775Y-5.525
X2.075Y-5.525
X4.325Y-4.925
X4.5219Y-4.925
X1.775Y-5.325
X2.075Y-5.325
X1.775Y-4.725
X2.075Y-4.725
X4.725Y-5.725
X4.9219Y-5.725
X3.85Y-6.025
X3.9287Y-6.025
X4.325Y-5.725
X4.5219Y-5.725
X2.275Y-5.525
X2.575Y-5.525
X4.325Y-5.525
X4.5219Y-5.525
X2.775Y-5.125
X3.075Y-5.125
X3.875Y-4.775
X3.875Y-4.975
X4.075Y-4.875
X2.775Y-6.125
X3.075Y-6.125
X4.725Y-6.125
X4.9219Y-6.125
X2.275Y-6.125
X2.575Y-6.125
X2.275Y-5.325
X2.575Y-5.325
X4.325Y-4.725
X4.5219Y-4.725
T5
X1.575Y-6.0
X1.575Y-6.1
X5.125Y-6.05
X5.125Y-6.15
X5.125Y-5.2
X5.125Y-5.3
X5.125Y-5.525
X5.125Y-5.625
X3.55Y-4.925
X3.55Y-5.025
X5.125Y-5.85
X1.575Y-4.725
X1.575Y-5.625
X1.575Y-5.075
X1.575Y-5.175
X1.575Y-5.275
T6
X4.1Y-6.125
X4.5Y-6.125
T7
X3.4Y-5.25
X3.4Y-5.435
X3.4Y-5.6201
T0
M30
