G04 #@! TF.GenerationSoftware,KiCad,Pcbnew,(5.1.5)-3*
G04 #@! TF.CreationDate,2020-01-27T19:36:50-05:00*
G04 #@! TF.ProjectId,output,6f757470-7574-42e6-9b69-6361645f7063,v01*
G04 #@! TF.SameCoordinates,Original*
G04 #@! TF.FileFunction,Soldermask,Bot*
G04 #@! TF.FilePolarity,Negative*
%FSLAX46Y46*%
G04 Gerber Fmt 4.6, Leading zero omitted, Abs format (unit mm)*
G04 Created by KiCad (PCBNEW (5.1.5)-3) date 2020-01-27 19:36:50*
%MOMM*%
%LPD*%
G04 APERTURE LIST*
%ADD10C,0.100000*%
G04 APERTURE END LIST*
D10*
G36*
X130288512Y-155313927D02*
G01*
X130437812Y-155343624D01*
X130601784Y-155411544D01*
X130749354Y-155510147D01*
X130874853Y-155635646D01*
X130973456Y-155783216D01*
X131041376Y-155947188D01*
X131076000Y-156121259D01*
X131076000Y-156298741D01*
X131041376Y-156472812D01*
X130973456Y-156636784D01*
X130874853Y-156784354D01*
X130749354Y-156909853D01*
X130601784Y-157008456D01*
X130437812Y-157076376D01*
X130288512Y-157106073D01*
X130263742Y-157111000D01*
X130086258Y-157111000D01*
X130061488Y-157106073D01*
X129912188Y-157076376D01*
X129748216Y-157008456D01*
X129600646Y-156909853D01*
X129475147Y-156784354D01*
X129376544Y-156636784D01*
X129308624Y-156472812D01*
X129274000Y-156298741D01*
X129274000Y-156121259D01*
X129308624Y-155947188D01*
X129376544Y-155783216D01*
X129475147Y-155635646D01*
X129600646Y-155510147D01*
X129748216Y-155411544D01*
X129912188Y-155343624D01*
X130061488Y-155313927D01*
X130086258Y-155309000D01*
X130263742Y-155309000D01*
X130288512Y-155313927D01*
G37*
G36*
X114524549Y-154446116D02*
G01*
X114635734Y-154468232D01*
X114845203Y-154554997D01*
X115033720Y-154680960D01*
X115194040Y-154841280D01*
X115319297Y-155028741D01*
X115320004Y-155029799D01*
X115321131Y-155032520D01*
X115357931Y-155121362D01*
X115406768Y-155239267D01*
X115451000Y-155461635D01*
X115451000Y-155688365D01*
X115406768Y-155910733D01*
X115321131Y-156117481D01*
X115320003Y-156120203D01*
X115194040Y-156308720D01*
X115033720Y-156469040D01*
X114845203Y-156595003D01*
X114635734Y-156681768D01*
X114524549Y-156703884D01*
X114413365Y-156726000D01*
X114186635Y-156726000D01*
X114075451Y-156703884D01*
X113964266Y-156681768D01*
X113754797Y-156595003D01*
X113566280Y-156469040D01*
X113405960Y-156308720D01*
X113279997Y-156120203D01*
X113278870Y-156117481D01*
X113193232Y-155910733D01*
X113149000Y-155688365D01*
X113149000Y-155461635D01*
X113193232Y-155239267D01*
X113242070Y-155121362D01*
X113278869Y-155032520D01*
X113279996Y-155029799D01*
X113280703Y-155028741D01*
X113405960Y-154841280D01*
X113566280Y-154680960D01*
X113754797Y-154554997D01*
X113964266Y-154468232D01*
X114075451Y-154446116D01*
X114186635Y-154424000D01*
X114413365Y-154424000D01*
X114524549Y-154446116D01*
G37*
G36*
X105291000Y-156726000D02*
G01*
X102989000Y-156726000D01*
X102989000Y-154424000D01*
X105291000Y-154424000D01*
X105291000Y-156726000D01*
G37*
G36*
X120263228Y-154756703D02*
G01*
X120418100Y-154820853D01*
X120557481Y-154913985D01*
X120676015Y-155032519D01*
X120769147Y-155171900D01*
X120833297Y-155326772D01*
X120866000Y-155491184D01*
X120866000Y-155658816D01*
X120833297Y-155823228D01*
X120769147Y-155978100D01*
X120676015Y-156117481D01*
X120557481Y-156236015D01*
X120418100Y-156329147D01*
X120263228Y-156393297D01*
X120098816Y-156426000D01*
X119931184Y-156426000D01*
X119766772Y-156393297D01*
X119611900Y-156329147D01*
X119472519Y-156236015D01*
X119353985Y-156117481D01*
X119260853Y-155978100D01*
X119196703Y-155823228D01*
X119164000Y-155658816D01*
X119164000Y-155491184D01*
X119196703Y-155326772D01*
X119260853Y-155171900D01*
X119353985Y-155032519D01*
X119472519Y-154913985D01*
X119611900Y-154820853D01*
X119766772Y-154756703D01*
X119931184Y-154724000D01*
X120098816Y-154724000D01*
X120263228Y-154756703D01*
G37*
G36*
X125263228Y-154756703D02*
G01*
X125418100Y-154820853D01*
X125557481Y-154913985D01*
X125676015Y-155032519D01*
X125769147Y-155171900D01*
X125833297Y-155326772D01*
X125866000Y-155491184D01*
X125866000Y-155658816D01*
X125833297Y-155823228D01*
X125769147Y-155978100D01*
X125676015Y-156117481D01*
X125557481Y-156236015D01*
X125418100Y-156329147D01*
X125263228Y-156393297D01*
X125098816Y-156426000D01*
X124931184Y-156426000D01*
X124766772Y-156393297D01*
X124611900Y-156329147D01*
X124472519Y-156236015D01*
X124353985Y-156117481D01*
X124260853Y-155978100D01*
X124196703Y-155823228D01*
X124164000Y-155658816D01*
X124164000Y-155491184D01*
X124196703Y-155326772D01*
X124260853Y-155171900D01*
X124353985Y-155032519D01*
X124472519Y-154913985D01*
X124611900Y-154820853D01*
X124766772Y-154756703D01*
X124931184Y-154724000D01*
X125098816Y-154724000D01*
X125263228Y-154756703D01*
G37*
G36*
X70733228Y-154756703D02*
G01*
X70888100Y-154820853D01*
X71027481Y-154913985D01*
X71146015Y-155032519D01*
X71239147Y-155171900D01*
X71303297Y-155326772D01*
X71336000Y-155491184D01*
X71336000Y-155658816D01*
X71303297Y-155823228D01*
X71239147Y-155978100D01*
X71146015Y-156117481D01*
X71027481Y-156236015D01*
X70888100Y-156329147D01*
X70733228Y-156393297D01*
X70568816Y-156426000D01*
X70401184Y-156426000D01*
X70236772Y-156393297D01*
X70081900Y-156329147D01*
X69942519Y-156236015D01*
X69823985Y-156117481D01*
X69730853Y-155978100D01*
X69666703Y-155823228D01*
X69634000Y-155658816D01*
X69634000Y-155491184D01*
X69666703Y-155326772D01*
X69730853Y-155171900D01*
X69823985Y-155032519D01*
X69942519Y-154913985D01*
X70081900Y-154820853D01*
X70236772Y-154756703D01*
X70401184Y-154724000D01*
X70568816Y-154724000D01*
X70733228Y-154756703D01*
G37*
G36*
X78353228Y-154756703D02*
G01*
X78508100Y-154820853D01*
X78647481Y-154913985D01*
X78766015Y-155032519D01*
X78859147Y-155171900D01*
X78923297Y-155326772D01*
X78956000Y-155491184D01*
X78956000Y-155658816D01*
X78923297Y-155823228D01*
X78859147Y-155978100D01*
X78766015Y-156117481D01*
X78647481Y-156236015D01*
X78508100Y-156329147D01*
X78353228Y-156393297D01*
X78188816Y-156426000D01*
X78021184Y-156426000D01*
X77856772Y-156393297D01*
X77701900Y-156329147D01*
X77562519Y-156236015D01*
X77443985Y-156117481D01*
X77350853Y-155978100D01*
X77286703Y-155823228D01*
X77254000Y-155658816D01*
X77254000Y-155491184D01*
X77286703Y-155326772D01*
X77350853Y-155171900D01*
X77443985Y-155032519D01*
X77562519Y-154913985D01*
X77701900Y-154820853D01*
X77856772Y-154756703D01*
X78021184Y-154724000D01*
X78188816Y-154724000D01*
X78353228Y-154756703D01*
G37*
G36*
X45333228Y-154756703D02*
G01*
X45488100Y-154820853D01*
X45627481Y-154913985D01*
X45746015Y-155032519D01*
X45839147Y-155171900D01*
X45903297Y-155326772D01*
X45936000Y-155491184D01*
X45936000Y-155658816D01*
X45903297Y-155823228D01*
X45839147Y-155978100D01*
X45746015Y-156117481D01*
X45627481Y-156236015D01*
X45488100Y-156329147D01*
X45333228Y-156393297D01*
X45168816Y-156426000D01*
X45001184Y-156426000D01*
X44836772Y-156393297D01*
X44681900Y-156329147D01*
X44542519Y-156236015D01*
X44423985Y-156117481D01*
X44330853Y-155978100D01*
X44266703Y-155823228D01*
X44234000Y-155658816D01*
X44234000Y-155491184D01*
X44266703Y-155326772D01*
X44330853Y-155171900D01*
X44423985Y-155032519D01*
X44542519Y-154913985D01*
X44681900Y-154820853D01*
X44836772Y-154756703D01*
X45001184Y-154724000D01*
X45168816Y-154724000D01*
X45333228Y-154756703D01*
G37*
G36*
X52953228Y-154756703D02*
G01*
X53108100Y-154820853D01*
X53247481Y-154913985D01*
X53366015Y-155032519D01*
X53459147Y-155171900D01*
X53523297Y-155326772D01*
X53556000Y-155491184D01*
X53556000Y-155658816D01*
X53523297Y-155823228D01*
X53459147Y-155978100D01*
X53366015Y-156117481D01*
X53247481Y-156236015D01*
X53108100Y-156329147D01*
X52953228Y-156393297D01*
X52788816Y-156426000D01*
X52621184Y-156426000D01*
X52456772Y-156393297D01*
X52301900Y-156329147D01*
X52162519Y-156236015D01*
X52043985Y-156117481D01*
X51950853Y-155978100D01*
X51886703Y-155823228D01*
X51854000Y-155658816D01*
X51854000Y-155491184D01*
X51886703Y-155326772D01*
X51950853Y-155171900D01*
X52043985Y-155032519D01*
X52162519Y-154913985D01*
X52301900Y-154820853D01*
X52456772Y-154756703D01*
X52621184Y-154724000D01*
X52788816Y-154724000D01*
X52953228Y-154756703D01*
G37*
G36*
X65653228Y-154756703D02*
G01*
X65808100Y-154820853D01*
X65947481Y-154913985D01*
X66066015Y-155032519D01*
X66159147Y-155171900D01*
X66223297Y-155326772D01*
X66256000Y-155491184D01*
X66256000Y-155658816D01*
X66223297Y-155823228D01*
X66159147Y-155978100D01*
X66066015Y-156117481D01*
X65947481Y-156236015D01*
X65808100Y-156329147D01*
X65653228Y-156393297D01*
X65488816Y-156426000D01*
X65321184Y-156426000D01*
X65156772Y-156393297D01*
X65001900Y-156329147D01*
X64862519Y-156236015D01*
X64743985Y-156117481D01*
X64650853Y-155978100D01*
X64586703Y-155823228D01*
X64554000Y-155658816D01*
X64554000Y-155491184D01*
X64586703Y-155326772D01*
X64650853Y-155171900D01*
X64743985Y-155032519D01*
X64862519Y-154913985D01*
X65001900Y-154820853D01*
X65156772Y-154756703D01*
X65321184Y-154724000D01*
X65488816Y-154724000D01*
X65653228Y-154756703D01*
G37*
G36*
X58033228Y-154756703D02*
G01*
X58188100Y-154820853D01*
X58327481Y-154913985D01*
X58446015Y-155032519D01*
X58539147Y-155171900D01*
X58603297Y-155326772D01*
X58636000Y-155491184D01*
X58636000Y-155658816D01*
X58603297Y-155823228D01*
X58539147Y-155978100D01*
X58446015Y-156117481D01*
X58327481Y-156236015D01*
X58188100Y-156329147D01*
X58033228Y-156393297D01*
X57868816Y-156426000D01*
X57701184Y-156426000D01*
X57536772Y-156393297D01*
X57381900Y-156329147D01*
X57242519Y-156236015D01*
X57123985Y-156117481D01*
X57030853Y-155978100D01*
X56966703Y-155823228D01*
X56934000Y-155658816D01*
X56934000Y-155491184D01*
X56966703Y-155326772D01*
X57030853Y-155171900D01*
X57123985Y-155032519D01*
X57242519Y-154913985D01*
X57381900Y-154820853D01*
X57536772Y-154756703D01*
X57701184Y-154724000D01*
X57868816Y-154724000D01*
X58033228Y-154756703D01*
G37*
G36*
X88073890Y-154695017D02*
G01*
X88143861Y-154724000D01*
X88192364Y-154744091D01*
X88199534Y-154748882D01*
X88298988Y-154815335D01*
X88389665Y-154906012D01*
X88460910Y-155012638D01*
X88509983Y-155131110D01*
X88535000Y-155256881D01*
X88535000Y-155385119D01*
X88510131Y-155510147D01*
X88509983Y-155510890D01*
X88460909Y-155629364D01*
X88389665Y-155735988D01*
X88298988Y-155826665D01*
X88192364Y-155897909D01*
X88192363Y-155897910D01*
X88192362Y-155897910D01*
X88073890Y-155946983D01*
X87948119Y-155972000D01*
X87819881Y-155972000D01*
X87694110Y-155946983D01*
X87575638Y-155897910D01*
X87575637Y-155897910D01*
X87575636Y-155897909D01*
X87469012Y-155826665D01*
X87378335Y-155735988D01*
X87307091Y-155629364D01*
X87258017Y-155510890D01*
X87257869Y-155510147D01*
X87233000Y-155385119D01*
X87233000Y-155256881D01*
X87258017Y-155131110D01*
X87307090Y-155012638D01*
X87378335Y-154906012D01*
X87469012Y-154815335D01*
X87568466Y-154748882D01*
X87575636Y-154744091D01*
X87624140Y-154724000D01*
X87694110Y-154695017D01*
X87819881Y-154670000D01*
X87948119Y-154670000D01*
X88073890Y-154695017D01*
G37*
G36*
X40118512Y-154043927D02*
G01*
X40267812Y-154073624D01*
X40431784Y-154141544D01*
X40579354Y-154240147D01*
X40704853Y-154365646D01*
X40803456Y-154513216D01*
X40871376Y-154677188D01*
X40906000Y-154851259D01*
X40906000Y-155028741D01*
X40871376Y-155202812D01*
X40803456Y-155366784D01*
X40704853Y-155514354D01*
X40579354Y-155639853D01*
X40431784Y-155738456D01*
X40267812Y-155806376D01*
X40118512Y-155836073D01*
X40093742Y-155841000D01*
X39916258Y-155841000D01*
X39891488Y-155836073D01*
X39742188Y-155806376D01*
X39578216Y-155738456D01*
X39430646Y-155639853D01*
X39305147Y-155514354D01*
X39206544Y-155366784D01*
X39138624Y-155202812D01*
X39104000Y-155028741D01*
X39104000Y-154851259D01*
X39138624Y-154677188D01*
X39206544Y-154513216D01*
X39305147Y-154365646D01*
X39430646Y-154240147D01*
X39578216Y-154141544D01*
X39742188Y-154073624D01*
X39891488Y-154043927D01*
X39916258Y-154039000D01*
X40093742Y-154039000D01*
X40118512Y-154043927D01*
G37*
G36*
X86189225Y-154168983D02*
G01*
X86279890Y-154187017D01*
X86398364Y-154236091D01*
X86504988Y-154307335D01*
X86595665Y-154398012D01*
X86642585Y-154468232D01*
X86666910Y-154504638D01*
X86694398Y-154571000D01*
X86715983Y-154623110D01*
X86741000Y-154748882D01*
X86741000Y-154877118D01*
X86715983Y-155002890D01*
X86666909Y-155121364D01*
X86595665Y-155227988D01*
X86504988Y-155318665D01*
X86398364Y-155389909D01*
X86398363Y-155389910D01*
X86398362Y-155389910D01*
X86279890Y-155438983D01*
X86154119Y-155464000D01*
X86025881Y-155464000D01*
X85900110Y-155438983D01*
X85781638Y-155389910D01*
X85781637Y-155389910D01*
X85781636Y-155389909D01*
X85675012Y-155318665D01*
X85584335Y-155227988D01*
X85513091Y-155121364D01*
X85464017Y-155002890D01*
X85439000Y-154877118D01*
X85439000Y-154748882D01*
X85464017Y-154623110D01*
X85485602Y-154571000D01*
X85513090Y-154504638D01*
X85537416Y-154468232D01*
X85584335Y-154398012D01*
X85675012Y-154307335D01*
X85781636Y-154236091D01*
X85900110Y-154187017D01*
X85990775Y-154168983D01*
X86025881Y-154162000D01*
X86154119Y-154162000D01*
X86189225Y-154168983D01*
G37*
G36*
X89761225Y-154168983D02*
G01*
X89851890Y-154187017D01*
X89970364Y-154236091D01*
X90076988Y-154307335D01*
X90167665Y-154398012D01*
X90214585Y-154468232D01*
X90238910Y-154504638D01*
X90266398Y-154571000D01*
X90287983Y-154623110D01*
X90313000Y-154748882D01*
X90313000Y-154877118D01*
X90287983Y-155002890D01*
X90238909Y-155121364D01*
X90167665Y-155227988D01*
X90076988Y-155318665D01*
X89970364Y-155389909D01*
X89970363Y-155389910D01*
X89970362Y-155389910D01*
X89851890Y-155438983D01*
X89726119Y-155464000D01*
X89597881Y-155464000D01*
X89472110Y-155438983D01*
X89353638Y-155389910D01*
X89353637Y-155389910D01*
X89353636Y-155389909D01*
X89247012Y-155318665D01*
X89156335Y-155227988D01*
X89085091Y-155121364D01*
X89036017Y-155002890D01*
X89011000Y-154877118D01*
X89011000Y-154748882D01*
X89036017Y-154623110D01*
X89057602Y-154571000D01*
X89085090Y-154504638D01*
X89109416Y-154468232D01*
X89156335Y-154398012D01*
X89247012Y-154307335D01*
X89353636Y-154236091D01*
X89472110Y-154187017D01*
X89562775Y-154168983D01*
X89597881Y-154162000D01*
X89726119Y-154162000D01*
X89761225Y-154168983D01*
G37*
G36*
X131076000Y-154571000D02*
G01*
X129274000Y-154571000D01*
X129274000Y-152769000D01*
X131076000Y-152769000D01*
X131076000Y-154571000D01*
G37*
G36*
X84771890Y-153171017D02*
G01*
X84890364Y-153220091D01*
X84996988Y-153291335D01*
X85087665Y-153382012D01*
X85158909Y-153488636D01*
X85207983Y-153607110D01*
X85233000Y-153732882D01*
X85233000Y-153861118D01*
X85207983Y-153986890D01*
X85158909Y-154105364D01*
X85087665Y-154211988D01*
X84996988Y-154302665D01*
X84890364Y-154373909D01*
X84890363Y-154373910D01*
X84890362Y-154373910D01*
X84771890Y-154422983D01*
X84646119Y-154448000D01*
X84517881Y-154448000D01*
X84392110Y-154422983D01*
X84273638Y-154373910D01*
X84273637Y-154373910D01*
X84273636Y-154373909D01*
X84167012Y-154302665D01*
X84076335Y-154211988D01*
X84005091Y-154105364D01*
X83956017Y-153986890D01*
X83931000Y-153861118D01*
X83931000Y-153732882D01*
X83956017Y-153607110D01*
X84005091Y-153488636D01*
X84076335Y-153382012D01*
X84167012Y-153291335D01*
X84273636Y-153220091D01*
X84392110Y-153171017D01*
X84517881Y-153146000D01*
X84646119Y-153146000D01*
X84771890Y-153171017D01*
G37*
G36*
X91121890Y-152917017D02*
G01*
X91240364Y-152966091D01*
X91346988Y-153037335D01*
X91437665Y-153128012D01*
X91508909Y-153234636D01*
X91557983Y-153353110D01*
X91583000Y-153478882D01*
X91583000Y-153607118D01*
X91557983Y-153732890D01*
X91508909Y-153851364D01*
X91437665Y-153957988D01*
X91346988Y-154048665D01*
X91240364Y-154119909D01*
X91240363Y-154119910D01*
X91240362Y-154119910D01*
X91121890Y-154168983D01*
X90996119Y-154194000D01*
X90867881Y-154194000D01*
X90742110Y-154168983D01*
X90623638Y-154119910D01*
X90623637Y-154119910D01*
X90623636Y-154119909D01*
X90517012Y-154048665D01*
X90426335Y-153957988D01*
X90355091Y-153851364D01*
X90306017Y-153732890D01*
X90281000Y-153607118D01*
X90281000Y-153478882D01*
X90306017Y-153353110D01*
X90355091Y-153234636D01*
X90426335Y-153128012D01*
X90517012Y-153037335D01*
X90623636Y-152966091D01*
X90742110Y-152917017D01*
X90867881Y-152892000D01*
X90996119Y-152892000D01*
X91121890Y-152917017D01*
G37*
G36*
X98641000Y-153886000D02*
G01*
X96939000Y-153886000D01*
X96939000Y-152184000D01*
X98641000Y-152184000D01*
X98641000Y-153886000D01*
G37*
G36*
X100038228Y-152216703D02*
G01*
X100193100Y-152280853D01*
X100332481Y-152373985D01*
X100451015Y-152492519D01*
X100544147Y-152631900D01*
X100608297Y-152786772D01*
X100641000Y-152951184D01*
X100641000Y-153118816D01*
X100608297Y-153283228D01*
X100544147Y-153438100D01*
X100451015Y-153577481D01*
X100332481Y-153696015D01*
X100193100Y-153789147D01*
X100038228Y-153853297D01*
X99873816Y-153886000D01*
X99706184Y-153886000D01*
X99541772Y-153853297D01*
X99386900Y-153789147D01*
X99247519Y-153696015D01*
X99128985Y-153577481D01*
X99035853Y-153438100D01*
X98971703Y-153283228D01*
X98939000Y-153118816D01*
X98939000Y-152951184D01*
X98971703Y-152786772D01*
X99035853Y-152631900D01*
X99128985Y-152492519D01*
X99247519Y-152373985D01*
X99386900Y-152280853D01*
X99541772Y-152216703D01*
X99706184Y-152184000D01*
X99873816Y-152184000D01*
X100038228Y-152216703D01*
G37*
G36*
X40906000Y-153301000D02*
G01*
X39104000Y-153301000D01*
X39104000Y-151499000D01*
X40906000Y-151499000D01*
X40906000Y-153301000D01*
G37*
G36*
X91375890Y-151139017D02*
G01*
X91416927Y-151156015D01*
X91494364Y-151188091D01*
X91600988Y-151259335D01*
X91691665Y-151350012D01*
X91762909Y-151456636D01*
X91811983Y-151575110D01*
X91837000Y-151700882D01*
X91837000Y-151829118D01*
X91811983Y-151954890D01*
X91762909Y-152073364D01*
X91691665Y-152179988D01*
X91600988Y-152270665D01*
X91494364Y-152341909D01*
X91494363Y-152341910D01*
X91494362Y-152341910D01*
X91375890Y-152390983D01*
X91250119Y-152416000D01*
X91121881Y-152416000D01*
X90996110Y-152390983D01*
X90877638Y-152341910D01*
X90877637Y-152341910D01*
X90877636Y-152341909D01*
X90771012Y-152270665D01*
X90680335Y-152179988D01*
X90609091Y-152073364D01*
X90560017Y-151954890D01*
X90535000Y-151829118D01*
X90535000Y-151700882D01*
X90560017Y-151575110D01*
X90609091Y-151456636D01*
X90680335Y-151350012D01*
X90771012Y-151259335D01*
X90877636Y-151188091D01*
X90955074Y-151156015D01*
X90996110Y-151139017D01*
X91121881Y-151114000D01*
X91250119Y-151114000D01*
X91375890Y-151139017D01*
G37*
G36*
X84337855Y-151117140D02*
G01*
X84401618Y-151123420D01*
X84492404Y-151150960D01*
X84524336Y-151160646D01*
X84637425Y-151221094D01*
X84736554Y-151302446D01*
X84817906Y-151401575D01*
X84878354Y-151514664D01*
X84878355Y-151514668D01*
X84915580Y-151637382D01*
X84928149Y-151765000D01*
X84915580Y-151892618D01*
X84896690Y-151954890D01*
X84878354Y-152015336D01*
X84817906Y-152128425D01*
X84736554Y-152227554D01*
X84637425Y-152308906D01*
X84524336Y-152369354D01*
X84509069Y-152373985D01*
X84401618Y-152406580D01*
X84337855Y-152412860D01*
X84305974Y-152416000D01*
X83842026Y-152416000D01*
X83810145Y-152412860D01*
X83746382Y-152406580D01*
X83638931Y-152373985D01*
X83623664Y-152369354D01*
X83510575Y-152308906D01*
X83411446Y-152227554D01*
X83330094Y-152128425D01*
X83269646Y-152015336D01*
X83251310Y-151954890D01*
X83232420Y-151892618D01*
X83219851Y-151765000D01*
X83232420Y-151637382D01*
X83269645Y-151514668D01*
X83269646Y-151514664D01*
X83330094Y-151401575D01*
X83411446Y-151302446D01*
X83510575Y-151221094D01*
X83623664Y-151160646D01*
X83655596Y-151150960D01*
X83746382Y-151123420D01*
X83810145Y-151117140D01*
X83842026Y-151114000D01*
X84305974Y-151114000D01*
X84337855Y-151117140D01*
G37*
G36*
X78353228Y-149676703D02*
G01*
X78508100Y-149740853D01*
X78647481Y-149833985D01*
X78766015Y-149952519D01*
X78859147Y-150091900D01*
X78923297Y-150246772D01*
X78956000Y-150411184D01*
X78956000Y-150578816D01*
X78923297Y-150743228D01*
X78859147Y-150898100D01*
X78766015Y-151037481D01*
X78647481Y-151156015D01*
X78508100Y-151249147D01*
X78353228Y-151313297D01*
X78188816Y-151346000D01*
X78021184Y-151346000D01*
X77856772Y-151313297D01*
X77701900Y-151249147D01*
X77562519Y-151156015D01*
X77443985Y-151037481D01*
X77350853Y-150898100D01*
X77286703Y-150743228D01*
X77254000Y-150578816D01*
X77254000Y-150411184D01*
X77286703Y-150246772D01*
X77350853Y-150091900D01*
X77443985Y-149952519D01*
X77562519Y-149833985D01*
X77701900Y-149740853D01*
X77856772Y-149676703D01*
X78021184Y-149644000D01*
X78188816Y-149644000D01*
X78353228Y-149676703D01*
G37*
G36*
X120263228Y-149676703D02*
G01*
X120418100Y-149740853D01*
X120557481Y-149833985D01*
X120676015Y-149952519D01*
X120769147Y-150091900D01*
X120833297Y-150246772D01*
X120866000Y-150411184D01*
X120866000Y-150578816D01*
X120833297Y-150743228D01*
X120769147Y-150898100D01*
X120676015Y-151037481D01*
X120557481Y-151156015D01*
X120418100Y-151249147D01*
X120263228Y-151313297D01*
X120098816Y-151346000D01*
X119931184Y-151346000D01*
X119766772Y-151313297D01*
X119611900Y-151249147D01*
X119472519Y-151156015D01*
X119353985Y-151037481D01*
X119260853Y-150898100D01*
X119196703Y-150743228D01*
X119164000Y-150578816D01*
X119164000Y-150411184D01*
X119196703Y-150246772D01*
X119260853Y-150091900D01*
X119353985Y-149952519D01*
X119472519Y-149833985D01*
X119611900Y-149740853D01*
X119766772Y-149676703D01*
X119931184Y-149644000D01*
X120098816Y-149644000D01*
X120263228Y-149676703D01*
G37*
G36*
X115103228Y-149676703D02*
G01*
X115258100Y-149740853D01*
X115397481Y-149833985D01*
X115516015Y-149952519D01*
X115609147Y-150091900D01*
X115673297Y-150246772D01*
X115706000Y-150411184D01*
X115706000Y-150578816D01*
X115673297Y-150743228D01*
X115609147Y-150898100D01*
X115516015Y-151037481D01*
X115397481Y-151156015D01*
X115258100Y-151249147D01*
X115103228Y-151313297D01*
X114938816Y-151346000D01*
X114771184Y-151346000D01*
X114606772Y-151313297D01*
X114451900Y-151249147D01*
X114312519Y-151156015D01*
X114193985Y-151037481D01*
X114100853Y-150898100D01*
X114036703Y-150743228D01*
X114004000Y-150578816D01*
X114004000Y-150411184D01*
X114036703Y-150246772D01*
X114100853Y-150091900D01*
X114193985Y-149952519D01*
X114312519Y-149833985D01*
X114451900Y-149740853D01*
X114606772Y-149676703D01*
X114771184Y-149644000D01*
X114938816Y-149644000D01*
X115103228Y-149676703D01*
G37*
G36*
X110103228Y-149676703D02*
G01*
X110258100Y-149740853D01*
X110397481Y-149833985D01*
X110516015Y-149952519D01*
X110609147Y-150091900D01*
X110673297Y-150246772D01*
X110706000Y-150411184D01*
X110706000Y-150578816D01*
X110673297Y-150743228D01*
X110609147Y-150898100D01*
X110516015Y-151037481D01*
X110397481Y-151156015D01*
X110258100Y-151249147D01*
X110103228Y-151313297D01*
X109938816Y-151346000D01*
X109771184Y-151346000D01*
X109606772Y-151313297D01*
X109451900Y-151249147D01*
X109312519Y-151156015D01*
X109193985Y-151037481D01*
X109100853Y-150898100D01*
X109036703Y-150743228D01*
X109004000Y-150578816D01*
X109004000Y-150411184D01*
X109036703Y-150246772D01*
X109100853Y-150091900D01*
X109193985Y-149952519D01*
X109312519Y-149833985D01*
X109451900Y-149740853D01*
X109606772Y-149676703D01*
X109771184Y-149644000D01*
X109938816Y-149644000D01*
X110103228Y-149676703D01*
G37*
G36*
X70733228Y-149676703D02*
G01*
X70888100Y-149740853D01*
X71027481Y-149833985D01*
X71146015Y-149952519D01*
X71239147Y-150091900D01*
X71303297Y-150246772D01*
X71336000Y-150411184D01*
X71336000Y-150578816D01*
X71303297Y-150743228D01*
X71239147Y-150898100D01*
X71146015Y-151037481D01*
X71027481Y-151156015D01*
X70888100Y-151249147D01*
X70733228Y-151313297D01*
X70568816Y-151346000D01*
X70401184Y-151346000D01*
X70236772Y-151313297D01*
X70081900Y-151249147D01*
X69942519Y-151156015D01*
X69823985Y-151037481D01*
X69730853Y-150898100D01*
X69666703Y-150743228D01*
X69634000Y-150578816D01*
X69634000Y-150411184D01*
X69666703Y-150246772D01*
X69730853Y-150091900D01*
X69823985Y-149952519D01*
X69942519Y-149833985D01*
X70081900Y-149740853D01*
X70236772Y-149676703D01*
X70401184Y-149644000D01*
X70568816Y-149644000D01*
X70733228Y-149676703D01*
G37*
G36*
X65653228Y-149676703D02*
G01*
X65808100Y-149740853D01*
X65947481Y-149833985D01*
X66066015Y-149952519D01*
X66159147Y-150091900D01*
X66223297Y-150246772D01*
X66256000Y-150411184D01*
X66256000Y-150578816D01*
X66223297Y-150743228D01*
X66159147Y-150898100D01*
X66066015Y-151037481D01*
X65947481Y-151156015D01*
X65808100Y-151249147D01*
X65653228Y-151313297D01*
X65488816Y-151346000D01*
X65321184Y-151346000D01*
X65156772Y-151313297D01*
X65001900Y-151249147D01*
X64862519Y-151156015D01*
X64743985Y-151037481D01*
X64650853Y-150898100D01*
X64586703Y-150743228D01*
X64554000Y-150578816D01*
X64554000Y-150411184D01*
X64586703Y-150246772D01*
X64650853Y-150091900D01*
X64743985Y-149952519D01*
X64862519Y-149833985D01*
X65001900Y-149740853D01*
X65156772Y-149676703D01*
X65321184Y-149644000D01*
X65488816Y-149644000D01*
X65653228Y-149676703D01*
G37*
G36*
X125263228Y-149676703D02*
G01*
X125418100Y-149740853D01*
X125557481Y-149833985D01*
X125676015Y-149952519D01*
X125769147Y-150091900D01*
X125833297Y-150246772D01*
X125866000Y-150411184D01*
X125866000Y-150578816D01*
X125833297Y-150743228D01*
X125769147Y-150898100D01*
X125676015Y-151037481D01*
X125557481Y-151156015D01*
X125418100Y-151249147D01*
X125263228Y-151313297D01*
X125098816Y-151346000D01*
X124931184Y-151346000D01*
X124766772Y-151313297D01*
X124611900Y-151249147D01*
X124472519Y-151156015D01*
X124353985Y-151037481D01*
X124260853Y-150898100D01*
X124196703Y-150743228D01*
X124164000Y-150578816D01*
X124164000Y-150411184D01*
X124196703Y-150246772D01*
X124260853Y-150091900D01*
X124353985Y-149952519D01*
X124472519Y-149833985D01*
X124611900Y-149740853D01*
X124766772Y-149676703D01*
X124931184Y-149644000D01*
X125098816Y-149644000D01*
X125263228Y-149676703D01*
G37*
G36*
X45333228Y-149676703D02*
G01*
X45488100Y-149740853D01*
X45627481Y-149833985D01*
X45746015Y-149952519D01*
X45839147Y-150091900D01*
X45903297Y-150246772D01*
X45936000Y-150411184D01*
X45936000Y-150578816D01*
X45903297Y-150743228D01*
X45839147Y-150898100D01*
X45746015Y-151037481D01*
X45627481Y-151156015D01*
X45488100Y-151249147D01*
X45333228Y-151313297D01*
X45168816Y-151346000D01*
X45001184Y-151346000D01*
X44836772Y-151313297D01*
X44681900Y-151249147D01*
X44542519Y-151156015D01*
X44423985Y-151037481D01*
X44330853Y-150898100D01*
X44266703Y-150743228D01*
X44234000Y-150578816D01*
X44234000Y-150411184D01*
X44266703Y-150246772D01*
X44330853Y-150091900D01*
X44423985Y-149952519D01*
X44542519Y-149833985D01*
X44681900Y-149740853D01*
X44836772Y-149676703D01*
X45001184Y-149644000D01*
X45168816Y-149644000D01*
X45333228Y-149676703D01*
G37*
G36*
X58033228Y-149676703D02*
G01*
X58188100Y-149740853D01*
X58327481Y-149833985D01*
X58446015Y-149952519D01*
X58539147Y-150091900D01*
X58603297Y-150246772D01*
X58636000Y-150411184D01*
X58636000Y-150578816D01*
X58603297Y-150743228D01*
X58539147Y-150898100D01*
X58446015Y-151037481D01*
X58327481Y-151156015D01*
X58188100Y-151249147D01*
X58033228Y-151313297D01*
X57868816Y-151346000D01*
X57701184Y-151346000D01*
X57536772Y-151313297D01*
X57381900Y-151249147D01*
X57242519Y-151156015D01*
X57123985Y-151037481D01*
X57030853Y-150898100D01*
X56966703Y-150743228D01*
X56934000Y-150578816D01*
X56934000Y-150411184D01*
X56966703Y-150246772D01*
X57030853Y-150091900D01*
X57123985Y-149952519D01*
X57242519Y-149833985D01*
X57381900Y-149740853D01*
X57536772Y-149676703D01*
X57701184Y-149644000D01*
X57868816Y-149644000D01*
X58033228Y-149676703D01*
G37*
G36*
X52953228Y-149676703D02*
G01*
X53108100Y-149740853D01*
X53247481Y-149833985D01*
X53366015Y-149952519D01*
X53459147Y-150091900D01*
X53523297Y-150246772D01*
X53556000Y-150411184D01*
X53556000Y-150578816D01*
X53523297Y-150743228D01*
X53459147Y-150898100D01*
X53366015Y-151037481D01*
X53247481Y-151156015D01*
X53108100Y-151249147D01*
X52953228Y-151313297D01*
X52788816Y-151346000D01*
X52621184Y-151346000D01*
X52456772Y-151313297D01*
X52301900Y-151249147D01*
X52162519Y-151156015D01*
X52043985Y-151037481D01*
X51950853Y-150898100D01*
X51886703Y-150743228D01*
X51854000Y-150578816D01*
X51854000Y-150411184D01*
X51886703Y-150246772D01*
X51950853Y-150091900D01*
X52043985Y-149952519D01*
X52162519Y-149833985D01*
X52301900Y-149740853D01*
X52456772Y-149676703D01*
X52621184Y-149644000D01*
X52788816Y-149644000D01*
X52953228Y-149676703D01*
G37*
G36*
X84681225Y-149342983D02*
G01*
X84771890Y-149361017D01*
X84890364Y-149410091D01*
X84996988Y-149481335D01*
X85087665Y-149572012D01*
X85158909Y-149678636D01*
X85207983Y-149797110D01*
X85233000Y-149922882D01*
X85233000Y-150051118D01*
X85207983Y-150176890D01*
X85158909Y-150295364D01*
X85087665Y-150401988D01*
X84996988Y-150492665D01*
X84890364Y-150563909D01*
X84890363Y-150563910D01*
X84890362Y-150563910D01*
X84771890Y-150612983D01*
X84646119Y-150638000D01*
X84517881Y-150638000D01*
X84392110Y-150612983D01*
X84273638Y-150563910D01*
X84273637Y-150563910D01*
X84273636Y-150563909D01*
X84167012Y-150492665D01*
X84076335Y-150401988D01*
X84005091Y-150295364D01*
X83956017Y-150176890D01*
X83931000Y-150051118D01*
X83931000Y-149922882D01*
X83956017Y-149797110D01*
X84005091Y-149678636D01*
X84076335Y-149572012D01*
X84167012Y-149481335D01*
X84273636Y-149410091D01*
X84392110Y-149361017D01*
X84482775Y-149342983D01*
X84517881Y-149336000D01*
X84646119Y-149336000D01*
X84681225Y-149342983D01*
G37*
G36*
X90777225Y-149342983D02*
G01*
X90867890Y-149361017D01*
X90986364Y-149410091D01*
X91092988Y-149481335D01*
X91183665Y-149572012D01*
X91254909Y-149678636D01*
X91303983Y-149797110D01*
X91329000Y-149922882D01*
X91329000Y-150051118D01*
X91303983Y-150176890D01*
X91254909Y-150295364D01*
X91183665Y-150401988D01*
X91092988Y-150492665D01*
X90986364Y-150563909D01*
X90986363Y-150563910D01*
X90986362Y-150563910D01*
X90867890Y-150612983D01*
X90742119Y-150638000D01*
X90613881Y-150638000D01*
X90488110Y-150612983D01*
X90369638Y-150563910D01*
X90369637Y-150563910D01*
X90369636Y-150563909D01*
X90263012Y-150492665D01*
X90172335Y-150401988D01*
X90101091Y-150295364D01*
X90052017Y-150176890D01*
X90027000Y-150051118D01*
X90027000Y-149922882D01*
X90052017Y-149797110D01*
X90101091Y-149678636D01*
X90172335Y-149572012D01*
X90263012Y-149481335D01*
X90369636Y-149410091D01*
X90488110Y-149361017D01*
X90578775Y-149342983D01*
X90613881Y-149336000D01*
X90742119Y-149336000D01*
X90777225Y-149342983D01*
G37*
G36*
X131076000Y-149491000D02*
G01*
X129274000Y-149491000D01*
X129274000Y-147689000D01*
X131076000Y-147689000D01*
X131076000Y-149491000D01*
G37*
G36*
X86041890Y-148091017D02*
G01*
X86160364Y-148140091D01*
X86266988Y-148211335D01*
X86357665Y-148302012D01*
X86428909Y-148408636D01*
X86477983Y-148527110D01*
X86503000Y-148652882D01*
X86503000Y-148781118D01*
X86477983Y-148906890D01*
X86428909Y-149025364D01*
X86357665Y-149131988D01*
X86266988Y-149222665D01*
X86160364Y-149293909D01*
X86160363Y-149293910D01*
X86160362Y-149293910D01*
X86041890Y-149342983D01*
X85916119Y-149368000D01*
X85787881Y-149368000D01*
X85662110Y-149342983D01*
X85543638Y-149293910D01*
X85543637Y-149293910D01*
X85543636Y-149293909D01*
X85437012Y-149222665D01*
X85346335Y-149131988D01*
X85275091Y-149025364D01*
X85226017Y-148906890D01*
X85201000Y-148781118D01*
X85201000Y-148652882D01*
X85226017Y-148527110D01*
X85275091Y-148408636D01*
X85346335Y-148302012D01*
X85437012Y-148211335D01*
X85543636Y-148140091D01*
X85662110Y-148091017D01*
X85787881Y-148066000D01*
X85916119Y-148066000D01*
X86041890Y-148091017D01*
G37*
G36*
X89851890Y-148091017D02*
G01*
X89970364Y-148140091D01*
X90076988Y-148211335D01*
X90167665Y-148302012D01*
X90238909Y-148408636D01*
X90287983Y-148527110D01*
X90313000Y-148652882D01*
X90313000Y-148781118D01*
X90287983Y-148906890D01*
X90238909Y-149025364D01*
X90167665Y-149131988D01*
X90076988Y-149222665D01*
X89970364Y-149293909D01*
X89970363Y-149293910D01*
X89970362Y-149293910D01*
X89851890Y-149342983D01*
X89726119Y-149368000D01*
X89597881Y-149368000D01*
X89472110Y-149342983D01*
X89353638Y-149293910D01*
X89353637Y-149293910D01*
X89353636Y-149293909D01*
X89247012Y-149222665D01*
X89156335Y-149131988D01*
X89085091Y-149025364D01*
X89036017Y-148906890D01*
X89011000Y-148781118D01*
X89011000Y-148652882D01*
X89036017Y-148527110D01*
X89085091Y-148408636D01*
X89156335Y-148302012D01*
X89247012Y-148211335D01*
X89353636Y-148140091D01*
X89472110Y-148091017D01*
X89597881Y-148066000D01*
X89726119Y-148066000D01*
X89851890Y-148091017D01*
G37*
G36*
X88073890Y-147583017D02*
G01*
X88192364Y-147632091D01*
X88298988Y-147703335D01*
X88389665Y-147794012D01*
X88460909Y-147900636D01*
X88509983Y-148019110D01*
X88535000Y-148144882D01*
X88535000Y-148273118D01*
X88509983Y-148398890D01*
X88460909Y-148517364D01*
X88389665Y-148623988D01*
X88298988Y-148714665D01*
X88192364Y-148785909D01*
X88192363Y-148785910D01*
X88192362Y-148785910D01*
X88073890Y-148834983D01*
X87948119Y-148860000D01*
X87819881Y-148860000D01*
X87694110Y-148834983D01*
X87575638Y-148785910D01*
X87575637Y-148785910D01*
X87575636Y-148785909D01*
X87469012Y-148714665D01*
X87378335Y-148623988D01*
X87307091Y-148517364D01*
X87258017Y-148398890D01*
X87233000Y-148273118D01*
X87233000Y-148144882D01*
X87258017Y-148019110D01*
X87307091Y-147900636D01*
X87378335Y-147794012D01*
X87469012Y-147703335D01*
X87575636Y-147632091D01*
X87694110Y-147583017D01*
X87819881Y-147558000D01*
X87948119Y-147558000D01*
X88073890Y-147583017D01*
G37*
G36*
X104248015Y-145891973D02*
G01*
X104351879Y-145923479D01*
X104379055Y-145938005D01*
X104447600Y-145974643D01*
X104531501Y-146043499D01*
X104600357Y-146127400D01*
X104636995Y-146195945D01*
X104651521Y-146223121D01*
X104683027Y-146326985D01*
X104691000Y-146407933D01*
X104691000Y-146962067D01*
X104683027Y-147043015D01*
X104651521Y-147146879D01*
X104600356Y-147242600D01*
X104531501Y-147326501D01*
X104462645Y-147383009D01*
X104447599Y-147395357D01*
X104395907Y-147422987D01*
X104351878Y-147446521D01*
X104248014Y-147478027D01*
X104140000Y-147488666D01*
X104031985Y-147478027D01*
X103928121Y-147446521D01*
X103884093Y-147422987D01*
X103832401Y-147395357D01*
X103819643Y-147384887D01*
X103748499Y-147326501D01*
X103679644Y-147242600D01*
X103628479Y-147146878D01*
X103624615Y-147134139D01*
X103615239Y-147111503D01*
X103601625Y-147091129D01*
X103584298Y-147073802D01*
X103563923Y-147060188D01*
X103541285Y-147050811D01*
X103517251Y-147046031D01*
X103492747Y-147046031D01*
X103468714Y-147050812D01*
X103446075Y-147060189D01*
X103425701Y-147073803D01*
X103408374Y-147091130D01*
X103394760Y-147111505D01*
X103385388Y-147134131D01*
X103381521Y-147146879D01*
X103330356Y-147242600D01*
X103261501Y-147326501D01*
X103192645Y-147383009D01*
X103177599Y-147395357D01*
X103125907Y-147422987D01*
X103081878Y-147446521D01*
X102978014Y-147478027D01*
X102870000Y-147488666D01*
X102761985Y-147478027D01*
X102658121Y-147446521D01*
X102614093Y-147422987D01*
X102562401Y-147395357D01*
X102549643Y-147384887D01*
X102478499Y-147326501D01*
X102409644Y-147242600D01*
X102386234Y-147198804D01*
X102372625Y-147178436D01*
X102355298Y-147161109D01*
X102334924Y-147147495D01*
X102312285Y-147138118D01*
X102288252Y-147133337D01*
X102263748Y-147133337D01*
X102239714Y-147138117D01*
X102217076Y-147147494D01*
X102196701Y-147161108D01*
X102179374Y-147178435D01*
X102165760Y-147198809D01*
X102156383Y-147221448D01*
X102151602Y-147245481D01*
X102151000Y-147257734D01*
X102151000Y-147486000D01*
X101049000Y-147486000D01*
X101049000Y-145884000D01*
X102151000Y-145884000D01*
X102151000Y-146112265D01*
X102153402Y-146136651D01*
X102160515Y-146160100D01*
X102172066Y-146181711D01*
X102187611Y-146200653D01*
X102206553Y-146216198D01*
X102228164Y-146227749D01*
X102251613Y-146234862D01*
X102275999Y-146237264D01*
X102300385Y-146234862D01*
X102323834Y-146227749D01*
X102345445Y-146216198D01*
X102364387Y-146200653D01*
X102379932Y-146181711D01*
X102386239Y-146171188D01*
X102409644Y-146127399D01*
X102478500Y-146043499D01*
X102562401Y-145974643D01*
X102630946Y-145938005D01*
X102658122Y-145923479D01*
X102761986Y-145891973D01*
X102870000Y-145881334D01*
X102978015Y-145891973D01*
X103081879Y-145923479D01*
X103109055Y-145938005D01*
X103177600Y-145974643D01*
X103261501Y-146043499D01*
X103330357Y-146127400D01*
X103366995Y-146195945D01*
X103381521Y-146223121D01*
X103385388Y-146235869D01*
X103394760Y-146258496D01*
X103408374Y-146278870D01*
X103425701Y-146296197D01*
X103446075Y-146309811D01*
X103468714Y-146319188D01*
X103492747Y-146323969D01*
X103517251Y-146323969D01*
X103541285Y-146319189D01*
X103563924Y-146309812D01*
X103584298Y-146296198D01*
X103601625Y-146278871D01*
X103615239Y-146258497D01*
X103624617Y-146235857D01*
X103624919Y-146234862D01*
X103628480Y-146223121D01*
X103628481Y-146223118D01*
X103679643Y-146127401D01*
X103748500Y-146043499D01*
X103832401Y-145974643D01*
X103900946Y-145938005D01*
X103928122Y-145923479D01*
X104031986Y-145891973D01*
X104140000Y-145881334D01*
X104248015Y-145891973D01*
G37*
G36*
X115103228Y-144596703D02*
G01*
X115258100Y-144660853D01*
X115397481Y-144753985D01*
X115516015Y-144872519D01*
X115609147Y-145011900D01*
X115673297Y-145166772D01*
X115706000Y-145331184D01*
X115706000Y-145498816D01*
X115673297Y-145663228D01*
X115609147Y-145818100D01*
X115516015Y-145957481D01*
X115397481Y-146076015D01*
X115258100Y-146169147D01*
X115103228Y-146233297D01*
X114938816Y-146266000D01*
X114771184Y-146266000D01*
X114606772Y-146233297D01*
X114451900Y-146169147D01*
X114312519Y-146076015D01*
X114193985Y-145957481D01*
X114100853Y-145818100D01*
X114036703Y-145663228D01*
X114004000Y-145498816D01*
X114004000Y-145331184D01*
X114036703Y-145166772D01*
X114100853Y-145011900D01*
X114193985Y-144872519D01*
X114312519Y-144753985D01*
X114451900Y-144660853D01*
X114606772Y-144596703D01*
X114771184Y-144564000D01*
X114938816Y-144564000D01*
X115103228Y-144596703D01*
G37*
G36*
X65653228Y-144596703D02*
G01*
X65808100Y-144660853D01*
X65947481Y-144753985D01*
X66066015Y-144872519D01*
X66159147Y-145011900D01*
X66223297Y-145166772D01*
X66256000Y-145331184D01*
X66256000Y-145498816D01*
X66223297Y-145663228D01*
X66159147Y-145818100D01*
X66066015Y-145957481D01*
X65947481Y-146076015D01*
X65808100Y-146169147D01*
X65653228Y-146233297D01*
X65488816Y-146266000D01*
X65321184Y-146266000D01*
X65156772Y-146233297D01*
X65001900Y-146169147D01*
X64862519Y-146076015D01*
X64743985Y-145957481D01*
X64650853Y-145818100D01*
X64586703Y-145663228D01*
X64554000Y-145498816D01*
X64554000Y-145331184D01*
X64586703Y-145166772D01*
X64650853Y-145011900D01*
X64743985Y-144872519D01*
X64862519Y-144753985D01*
X65001900Y-144660853D01*
X65156772Y-144596703D01*
X65321184Y-144564000D01*
X65488816Y-144564000D01*
X65653228Y-144596703D01*
G37*
G36*
X110103228Y-144596703D02*
G01*
X110258100Y-144660853D01*
X110397481Y-144753985D01*
X110516015Y-144872519D01*
X110609147Y-145011900D01*
X110673297Y-145166772D01*
X110706000Y-145331184D01*
X110706000Y-145498816D01*
X110673297Y-145663228D01*
X110609147Y-145818100D01*
X110516015Y-145957481D01*
X110397481Y-146076015D01*
X110258100Y-146169147D01*
X110103228Y-146233297D01*
X109938816Y-146266000D01*
X109771184Y-146266000D01*
X109606772Y-146233297D01*
X109451900Y-146169147D01*
X109312519Y-146076015D01*
X109193985Y-145957481D01*
X109100853Y-145818100D01*
X109036703Y-145663228D01*
X109004000Y-145498816D01*
X109004000Y-145331184D01*
X109036703Y-145166772D01*
X109100853Y-145011900D01*
X109193985Y-144872519D01*
X109312519Y-144753985D01*
X109451900Y-144660853D01*
X109606772Y-144596703D01*
X109771184Y-144564000D01*
X109938816Y-144564000D01*
X110103228Y-144596703D01*
G37*
G36*
X58033228Y-144596703D02*
G01*
X58188100Y-144660853D01*
X58327481Y-144753985D01*
X58446015Y-144872519D01*
X58539147Y-145011900D01*
X58603297Y-145166772D01*
X58636000Y-145331184D01*
X58636000Y-145498816D01*
X58603297Y-145663228D01*
X58539147Y-145818100D01*
X58446015Y-145957481D01*
X58327481Y-146076015D01*
X58188100Y-146169147D01*
X58033228Y-146233297D01*
X57868816Y-146266000D01*
X57701184Y-146266000D01*
X57536772Y-146233297D01*
X57381900Y-146169147D01*
X57242519Y-146076015D01*
X57123985Y-145957481D01*
X57030853Y-145818100D01*
X56966703Y-145663228D01*
X56934000Y-145498816D01*
X56934000Y-145331184D01*
X56966703Y-145166772D01*
X57030853Y-145011900D01*
X57123985Y-144872519D01*
X57242519Y-144753985D01*
X57381900Y-144660853D01*
X57536772Y-144596703D01*
X57701184Y-144564000D01*
X57868816Y-144564000D01*
X58033228Y-144596703D01*
G37*
G36*
X52953228Y-144596703D02*
G01*
X53108100Y-144660853D01*
X53247481Y-144753985D01*
X53366015Y-144872519D01*
X53459147Y-145011900D01*
X53523297Y-145166772D01*
X53556000Y-145331184D01*
X53556000Y-145498816D01*
X53523297Y-145663228D01*
X53459147Y-145818100D01*
X53366015Y-145957481D01*
X53247481Y-146076015D01*
X53108100Y-146169147D01*
X52953228Y-146233297D01*
X52788816Y-146266000D01*
X52621184Y-146266000D01*
X52456772Y-146233297D01*
X52301900Y-146169147D01*
X52162519Y-146076015D01*
X52043985Y-145957481D01*
X51950853Y-145818100D01*
X51886703Y-145663228D01*
X51854000Y-145498816D01*
X51854000Y-145331184D01*
X51886703Y-145166772D01*
X51950853Y-145011900D01*
X52043985Y-144872519D01*
X52162519Y-144753985D01*
X52301900Y-144660853D01*
X52456772Y-144596703D01*
X52621184Y-144564000D01*
X52788816Y-144564000D01*
X52953228Y-144596703D01*
G37*
G36*
X70733228Y-144596703D02*
G01*
X70888100Y-144660853D01*
X71027481Y-144753985D01*
X71146015Y-144872519D01*
X71239147Y-145011900D01*
X71303297Y-145166772D01*
X71336000Y-145331184D01*
X71336000Y-145498816D01*
X71303297Y-145663228D01*
X71239147Y-145818100D01*
X71146015Y-145957481D01*
X71027481Y-146076015D01*
X70888100Y-146169147D01*
X70733228Y-146233297D01*
X70568816Y-146266000D01*
X70401184Y-146266000D01*
X70236772Y-146233297D01*
X70081900Y-146169147D01*
X69942519Y-146076015D01*
X69823985Y-145957481D01*
X69730853Y-145818100D01*
X69666703Y-145663228D01*
X69634000Y-145498816D01*
X69634000Y-145331184D01*
X69666703Y-145166772D01*
X69730853Y-145011900D01*
X69823985Y-144872519D01*
X69942519Y-144753985D01*
X70081900Y-144660853D01*
X70236772Y-144596703D01*
X70401184Y-144564000D01*
X70568816Y-144564000D01*
X70733228Y-144596703D01*
G37*
G36*
X125263228Y-144596703D02*
G01*
X125418100Y-144660853D01*
X125557481Y-144753985D01*
X125676015Y-144872519D01*
X125769147Y-145011900D01*
X125833297Y-145166772D01*
X125866000Y-145331184D01*
X125866000Y-145498816D01*
X125833297Y-145663228D01*
X125769147Y-145818100D01*
X125676015Y-145957481D01*
X125557481Y-146076015D01*
X125418100Y-146169147D01*
X125263228Y-146233297D01*
X125098816Y-146266000D01*
X124931184Y-146266000D01*
X124766772Y-146233297D01*
X124611900Y-146169147D01*
X124472519Y-146076015D01*
X124353985Y-145957481D01*
X124260853Y-145818100D01*
X124196703Y-145663228D01*
X124164000Y-145498816D01*
X124164000Y-145331184D01*
X124196703Y-145166772D01*
X124260853Y-145011900D01*
X124353985Y-144872519D01*
X124472519Y-144753985D01*
X124611900Y-144660853D01*
X124766772Y-144596703D01*
X124931184Y-144564000D01*
X125098816Y-144564000D01*
X125263228Y-144596703D01*
G37*
G36*
X120263228Y-144596703D02*
G01*
X120418100Y-144660853D01*
X120557481Y-144753985D01*
X120676015Y-144872519D01*
X120769147Y-145011900D01*
X120833297Y-145166772D01*
X120866000Y-145331184D01*
X120866000Y-145498816D01*
X120833297Y-145663228D01*
X120769147Y-145818100D01*
X120676015Y-145957481D01*
X120557481Y-146076015D01*
X120418100Y-146169147D01*
X120263228Y-146233297D01*
X120098816Y-146266000D01*
X119931184Y-146266000D01*
X119766772Y-146233297D01*
X119611900Y-146169147D01*
X119472519Y-146076015D01*
X119353985Y-145957481D01*
X119260853Y-145818100D01*
X119196703Y-145663228D01*
X119164000Y-145498816D01*
X119164000Y-145331184D01*
X119196703Y-145166772D01*
X119260853Y-145011900D01*
X119353985Y-144872519D01*
X119472519Y-144753985D01*
X119611900Y-144660853D01*
X119766772Y-144596703D01*
X119931184Y-144564000D01*
X120098816Y-144564000D01*
X120263228Y-144596703D01*
G37*
G36*
X78353228Y-144596703D02*
G01*
X78508100Y-144660853D01*
X78647481Y-144753985D01*
X78766015Y-144872519D01*
X78859147Y-145011900D01*
X78923297Y-145166772D01*
X78956000Y-145331184D01*
X78956000Y-145498816D01*
X78923297Y-145663228D01*
X78859147Y-145818100D01*
X78766015Y-145957481D01*
X78647481Y-146076015D01*
X78508100Y-146169147D01*
X78353228Y-146233297D01*
X78188816Y-146266000D01*
X78021184Y-146266000D01*
X77856772Y-146233297D01*
X77701900Y-146169147D01*
X77562519Y-146076015D01*
X77443985Y-145957481D01*
X77350853Y-145818100D01*
X77286703Y-145663228D01*
X77254000Y-145498816D01*
X77254000Y-145331184D01*
X77286703Y-145166772D01*
X77350853Y-145011900D01*
X77443985Y-144872519D01*
X77562519Y-144753985D01*
X77701900Y-144660853D01*
X77856772Y-144596703D01*
X78021184Y-144564000D01*
X78188816Y-144564000D01*
X78353228Y-144596703D01*
G37*
G36*
X45333228Y-144596703D02*
G01*
X45488100Y-144660853D01*
X45627481Y-144753985D01*
X45746015Y-144872519D01*
X45839147Y-145011900D01*
X45903297Y-145166772D01*
X45936000Y-145331184D01*
X45936000Y-145498816D01*
X45903297Y-145663228D01*
X45839147Y-145818100D01*
X45746015Y-145957481D01*
X45627481Y-146076015D01*
X45488100Y-146169147D01*
X45333228Y-146233297D01*
X45168816Y-146266000D01*
X45001184Y-146266000D01*
X44836772Y-146233297D01*
X44681900Y-146169147D01*
X44542519Y-146076015D01*
X44423985Y-145957481D01*
X44330853Y-145818100D01*
X44266703Y-145663228D01*
X44234000Y-145498816D01*
X44234000Y-145331184D01*
X44266703Y-145166772D01*
X44330853Y-145011900D01*
X44423985Y-144872519D01*
X44542519Y-144753985D01*
X44681900Y-144660853D01*
X44836772Y-144596703D01*
X45001184Y-144564000D01*
X45168816Y-144564000D01*
X45333228Y-144596703D01*
G37*
G36*
X87836000Y-144226000D02*
G01*
X84884000Y-144226000D01*
X84884000Y-141274000D01*
X87836000Y-141274000D01*
X87836000Y-144226000D01*
G37*
G36*
X130288512Y-141978927D02*
G01*
X130437812Y-142008624D01*
X130601784Y-142076544D01*
X130749354Y-142175147D01*
X130874853Y-142300646D01*
X130973456Y-142448216D01*
X131041376Y-142612188D01*
X131076000Y-142786259D01*
X131076000Y-142963741D01*
X131041376Y-143137812D01*
X130973456Y-143301784D01*
X130874853Y-143449354D01*
X130749354Y-143574853D01*
X130601784Y-143673456D01*
X130437812Y-143741376D01*
X130288512Y-143771073D01*
X130263742Y-143776000D01*
X130086258Y-143776000D01*
X130061488Y-143771073D01*
X129912188Y-143741376D01*
X129748216Y-143673456D01*
X129600646Y-143574853D01*
X129475147Y-143449354D01*
X129376544Y-143301784D01*
X129308624Y-143137812D01*
X129274000Y-142963741D01*
X129274000Y-142786259D01*
X129308624Y-142612188D01*
X129376544Y-142448216D01*
X129475147Y-142300646D01*
X129600646Y-142175147D01*
X129748216Y-142076544D01*
X129912188Y-142008624D01*
X130061488Y-141978927D01*
X130086258Y-141974000D01*
X130263742Y-141974000D01*
X130288512Y-141978927D01*
G37*
G36*
X40906000Y-143776000D02*
G01*
X39104000Y-143776000D01*
X39104000Y-141974000D01*
X40906000Y-141974000D01*
X40906000Y-143776000D01*
G37*
G36*
X95993015Y-142081973D02*
G01*
X96096879Y-142113479D01*
X96124055Y-142128005D01*
X96192600Y-142164643D01*
X96276501Y-142233499D01*
X96345357Y-142317400D01*
X96381995Y-142385945D01*
X96396521Y-142413121D01*
X96428027Y-142516985D01*
X96436000Y-142597933D01*
X96436000Y-143152067D01*
X96428027Y-143233015D01*
X96396521Y-143336879D01*
X96345356Y-143432600D01*
X96276501Y-143516501D01*
X96207645Y-143573009D01*
X96192599Y-143585357D01*
X96140907Y-143612987D01*
X96096878Y-143636521D01*
X95993014Y-143668027D01*
X95885000Y-143678666D01*
X95776985Y-143668027D01*
X95673121Y-143636521D01*
X95629093Y-143612987D01*
X95577401Y-143585357D01*
X95564601Y-143574852D01*
X95493499Y-143516501D01*
X95424644Y-143432600D01*
X95373479Y-143336878D01*
X95369615Y-143324139D01*
X95360239Y-143301503D01*
X95346625Y-143281129D01*
X95329298Y-143263802D01*
X95308923Y-143250188D01*
X95286285Y-143240811D01*
X95262251Y-143236031D01*
X95237747Y-143236031D01*
X95213714Y-143240812D01*
X95191075Y-143250189D01*
X95170701Y-143263803D01*
X95153374Y-143281130D01*
X95139760Y-143301505D01*
X95130388Y-143324131D01*
X95126521Y-143336879D01*
X95075356Y-143432600D01*
X95006501Y-143516501D01*
X94937645Y-143573009D01*
X94922599Y-143585357D01*
X94870907Y-143612987D01*
X94826878Y-143636521D01*
X94723014Y-143668027D01*
X94615000Y-143678666D01*
X94506985Y-143668027D01*
X94403121Y-143636521D01*
X94359093Y-143612987D01*
X94307401Y-143585357D01*
X94294601Y-143574852D01*
X94223499Y-143516501D01*
X94154644Y-143432600D01*
X94131234Y-143388804D01*
X94117625Y-143368436D01*
X94100298Y-143351109D01*
X94079924Y-143337495D01*
X94057285Y-143328118D01*
X94033252Y-143323337D01*
X94008748Y-143323337D01*
X93984714Y-143328117D01*
X93962076Y-143337494D01*
X93941701Y-143351108D01*
X93924374Y-143368435D01*
X93910760Y-143388809D01*
X93901383Y-143411448D01*
X93896602Y-143435481D01*
X93896000Y-143447734D01*
X93896000Y-143676000D01*
X92794000Y-143676000D01*
X92794000Y-142074000D01*
X93896000Y-142074000D01*
X93896000Y-142302265D01*
X93898402Y-142326651D01*
X93905515Y-142350100D01*
X93917066Y-142371711D01*
X93932611Y-142390653D01*
X93951553Y-142406198D01*
X93973164Y-142417749D01*
X93996613Y-142424862D01*
X94020999Y-142427264D01*
X94045385Y-142424862D01*
X94068834Y-142417749D01*
X94090445Y-142406198D01*
X94109387Y-142390653D01*
X94124932Y-142371711D01*
X94131239Y-142361188D01*
X94154644Y-142317399D01*
X94223500Y-142233499D01*
X94307401Y-142164643D01*
X94375946Y-142128005D01*
X94403122Y-142113479D01*
X94506986Y-142081973D01*
X94615000Y-142071334D01*
X94723015Y-142081973D01*
X94826879Y-142113479D01*
X94854055Y-142128005D01*
X94922600Y-142164643D01*
X95006501Y-142233499D01*
X95075357Y-142317400D01*
X95111995Y-142385945D01*
X95126521Y-142413121D01*
X95130388Y-142425869D01*
X95139760Y-142448496D01*
X95153374Y-142468870D01*
X95170701Y-142486197D01*
X95191075Y-142499811D01*
X95213714Y-142509188D01*
X95237747Y-142513969D01*
X95262251Y-142513969D01*
X95286285Y-142509189D01*
X95308924Y-142499812D01*
X95329298Y-142486198D01*
X95346625Y-142468871D01*
X95360239Y-142448497D01*
X95369617Y-142425857D01*
X95369919Y-142424862D01*
X95373480Y-142413121D01*
X95373481Y-142413118D01*
X95424643Y-142317401D01*
X95493500Y-142233499D01*
X95577401Y-142164643D01*
X95645946Y-142128005D01*
X95673122Y-142113479D01*
X95776986Y-142081973D01*
X95885000Y-142071334D01*
X95993015Y-142081973D01*
G37*
G36*
X131076000Y-141236000D02*
G01*
X129274000Y-141236000D01*
X129274000Y-139434000D01*
X131076000Y-139434000D01*
X131076000Y-141236000D01*
G37*
G36*
X115103228Y-139516703D02*
G01*
X115258100Y-139580853D01*
X115397481Y-139673985D01*
X115516015Y-139792519D01*
X115609147Y-139931900D01*
X115673297Y-140086772D01*
X115706000Y-140251184D01*
X115706000Y-140418816D01*
X115673297Y-140583228D01*
X115609147Y-140738100D01*
X115516015Y-140877481D01*
X115397481Y-140996015D01*
X115258100Y-141089147D01*
X115103228Y-141153297D01*
X114938816Y-141186000D01*
X114771184Y-141186000D01*
X114606772Y-141153297D01*
X114451900Y-141089147D01*
X114312519Y-140996015D01*
X114193985Y-140877481D01*
X114100853Y-140738100D01*
X114036703Y-140583228D01*
X114004000Y-140418816D01*
X114004000Y-140251184D01*
X114036703Y-140086772D01*
X114100853Y-139931900D01*
X114193985Y-139792519D01*
X114312519Y-139673985D01*
X114451900Y-139580853D01*
X114606772Y-139516703D01*
X114771184Y-139484000D01*
X114938816Y-139484000D01*
X115103228Y-139516703D01*
G37*
G36*
X45333228Y-139516703D02*
G01*
X45488100Y-139580853D01*
X45627481Y-139673985D01*
X45746015Y-139792519D01*
X45839147Y-139931900D01*
X45903297Y-140086772D01*
X45936000Y-140251184D01*
X45936000Y-140418816D01*
X45903297Y-140583228D01*
X45839147Y-140738100D01*
X45746015Y-140877481D01*
X45627481Y-140996015D01*
X45488100Y-141089147D01*
X45333228Y-141153297D01*
X45168816Y-141186000D01*
X45001184Y-141186000D01*
X44836772Y-141153297D01*
X44681900Y-141089147D01*
X44542519Y-140996015D01*
X44423985Y-140877481D01*
X44330853Y-140738100D01*
X44266703Y-140583228D01*
X44234000Y-140418816D01*
X44234000Y-140251184D01*
X44266703Y-140086772D01*
X44330853Y-139931900D01*
X44423985Y-139792519D01*
X44542519Y-139673985D01*
X44681900Y-139580853D01*
X44836772Y-139516703D01*
X45001184Y-139484000D01*
X45168816Y-139484000D01*
X45333228Y-139516703D01*
G37*
G36*
X120263228Y-139516703D02*
G01*
X120418100Y-139580853D01*
X120557481Y-139673985D01*
X120676015Y-139792519D01*
X120769147Y-139931900D01*
X120833297Y-140086772D01*
X120866000Y-140251184D01*
X120866000Y-140418816D01*
X120833297Y-140583228D01*
X120769147Y-140738100D01*
X120676015Y-140877481D01*
X120557481Y-140996015D01*
X120418100Y-141089147D01*
X120263228Y-141153297D01*
X120098816Y-141186000D01*
X119931184Y-141186000D01*
X119766772Y-141153297D01*
X119611900Y-141089147D01*
X119472519Y-140996015D01*
X119353985Y-140877481D01*
X119260853Y-140738100D01*
X119196703Y-140583228D01*
X119164000Y-140418816D01*
X119164000Y-140251184D01*
X119196703Y-140086772D01*
X119260853Y-139931900D01*
X119353985Y-139792519D01*
X119472519Y-139673985D01*
X119611900Y-139580853D01*
X119766772Y-139516703D01*
X119931184Y-139484000D01*
X120098816Y-139484000D01*
X120263228Y-139516703D01*
G37*
G36*
X125263228Y-139516703D02*
G01*
X125418100Y-139580853D01*
X125557481Y-139673985D01*
X125676015Y-139792519D01*
X125769147Y-139931900D01*
X125833297Y-140086772D01*
X125866000Y-140251184D01*
X125866000Y-140418816D01*
X125833297Y-140583228D01*
X125769147Y-140738100D01*
X125676015Y-140877481D01*
X125557481Y-140996015D01*
X125418100Y-141089147D01*
X125263228Y-141153297D01*
X125098816Y-141186000D01*
X124931184Y-141186000D01*
X124766772Y-141153297D01*
X124611900Y-141089147D01*
X124472519Y-140996015D01*
X124353985Y-140877481D01*
X124260853Y-140738100D01*
X124196703Y-140583228D01*
X124164000Y-140418816D01*
X124164000Y-140251184D01*
X124196703Y-140086772D01*
X124260853Y-139931900D01*
X124353985Y-139792519D01*
X124472519Y-139673985D01*
X124611900Y-139580853D01*
X124766772Y-139516703D01*
X124931184Y-139484000D01*
X125098816Y-139484000D01*
X125263228Y-139516703D01*
G37*
G36*
X52953228Y-139516703D02*
G01*
X53108100Y-139580853D01*
X53247481Y-139673985D01*
X53366015Y-139792519D01*
X53459147Y-139931900D01*
X53523297Y-140086772D01*
X53556000Y-140251184D01*
X53556000Y-140418816D01*
X53523297Y-140583228D01*
X53459147Y-140738100D01*
X53366015Y-140877481D01*
X53247481Y-140996015D01*
X53108100Y-141089147D01*
X52953228Y-141153297D01*
X52788816Y-141186000D01*
X52621184Y-141186000D01*
X52456772Y-141153297D01*
X52301900Y-141089147D01*
X52162519Y-140996015D01*
X52043985Y-140877481D01*
X51950853Y-140738100D01*
X51886703Y-140583228D01*
X51854000Y-140418816D01*
X51854000Y-140251184D01*
X51886703Y-140086772D01*
X51950853Y-139931900D01*
X52043985Y-139792519D01*
X52162519Y-139673985D01*
X52301900Y-139580853D01*
X52456772Y-139516703D01*
X52621184Y-139484000D01*
X52788816Y-139484000D01*
X52953228Y-139516703D01*
G37*
G36*
X110103228Y-139516703D02*
G01*
X110258100Y-139580853D01*
X110397481Y-139673985D01*
X110516015Y-139792519D01*
X110609147Y-139931900D01*
X110673297Y-140086772D01*
X110706000Y-140251184D01*
X110706000Y-140418816D01*
X110673297Y-140583228D01*
X110609147Y-140738100D01*
X110516015Y-140877481D01*
X110397481Y-140996015D01*
X110258100Y-141089147D01*
X110103228Y-141153297D01*
X109938816Y-141186000D01*
X109771184Y-141186000D01*
X109606772Y-141153297D01*
X109451900Y-141089147D01*
X109312519Y-140996015D01*
X109193985Y-140877481D01*
X109100853Y-140738100D01*
X109036703Y-140583228D01*
X109004000Y-140418816D01*
X109004000Y-140251184D01*
X109036703Y-140086772D01*
X109100853Y-139931900D01*
X109193985Y-139792519D01*
X109312519Y-139673985D01*
X109451900Y-139580853D01*
X109606772Y-139516703D01*
X109771184Y-139484000D01*
X109938816Y-139484000D01*
X110103228Y-139516703D01*
G37*
G36*
X58033228Y-139516703D02*
G01*
X58188100Y-139580853D01*
X58327481Y-139673985D01*
X58446015Y-139792519D01*
X58539147Y-139931900D01*
X58603297Y-140086772D01*
X58636000Y-140251184D01*
X58636000Y-140418816D01*
X58603297Y-140583228D01*
X58539147Y-140738100D01*
X58446015Y-140877481D01*
X58327481Y-140996015D01*
X58188100Y-141089147D01*
X58033228Y-141153297D01*
X57868816Y-141186000D01*
X57701184Y-141186000D01*
X57536772Y-141153297D01*
X57381900Y-141089147D01*
X57242519Y-140996015D01*
X57123985Y-140877481D01*
X57030853Y-140738100D01*
X56966703Y-140583228D01*
X56934000Y-140418816D01*
X56934000Y-140251184D01*
X56966703Y-140086772D01*
X57030853Y-139931900D01*
X57123985Y-139792519D01*
X57242519Y-139673985D01*
X57381900Y-139580853D01*
X57536772Y-139516703D01*
X57701184Y-139484000D01*
X57868816Y-139484000D01*
X58033228Y-139516703D01*
G37*
G36*
X78353228Y-139516703D02*
G01*
X78508100Y-139580853D01*
X78647481Y-139673985D01*
X78766015Y-139792519D01*
X78859147Y-139931900D01*
X78923297Y-140086772D01*
X78956000Y-140251184D01*
X78956000Y-140418816D01*
X78923297Y-140583228D01*
X78859147Y-140738100D01*
X78766015Y-140877481D01*
X78647481Y-140996015D01*
X78508100Y-141089147D01*
X78353228Y-141153297D01*
X78188816Y-141186000D01*
X78021184Y-141186000D01*
X77856772Y-141153297D01*
X77701900Y-141089147D01*
X77562519Y-140996015D01*
X77443985Y-140877481D01*
X77350853Y-140738100D01*
X77286703Y-140583228D01*
X77254000Y-140418816D01*
X77254000Y-140251184D01*
X77286703Y-140086772D01*
X77350853Y-139931900D01*
X77443985Y-139792519D01*
X77562519Y-139673985D01*
X77701900Y-139580853D01*
X77856772Y-139516703D01*
X78021184Y-139484000D01*
X78188816Y-139484000D01*
X78353228Y-139516703D01*
G37*
G36*
X70733228Y-139516703D02*
G01*
X70888100Y-139580853D01*
X71027481Y-139673985D01*
X71146015Y-139792519D01*
X71239147Y-139931900D01*
X71303297Y-140086772D01*
X71336000Y-140251184D01*
X71336000Y-140418816D01*
X71303297Y-140583228D01*
X71239147Y-140738100D01*
X71146015Y-140877481D01*
X71027481Y-140996015D01*
X70888100Y-141089147D01*
X70733228Y-141153297D01*
X70568816Y-141186000D01*
X70401184Y-141186000D01*
X70236772Y-141153297D01*
X70081900Y-141089147D01*
X69942519Y-140996015D01*
X69823985Y-140877481D01*
X69730853Y-140738100D01*
X69666703Y-140583228D01*
X69634000Y-140418816D01*
X69634000Y-140251184D01*
X69666703Y-140086772D01*
X69730853Y-139931900D01*
X69823985Y-139792519D01*
X69942519Y-139673985D01*
X70081900Y-139580853D01*
X70236772Y-139516703D01*
X70401184Y-139484000D01*
X70568816Y-139484000D01*
X70733228Y-139516703D01*
G37*
G36*
X65653228Y-139516703D02*
G01*
X65808100Y-139580853D01*
X65947481Y-139673985D01*
X66066015Y-139792519D01*
X66159147Y-139931900D01*
X66223297Y-140086772D01*
X66256000Y-140251184D01*
X66256000Y-140418816D01*
X66223297Y-140583228D01*
X66159147Y-140738100D01*
X66066015Y-140877481D01*
X65947481Y-140996015D01*
X65808100Y-141089147D01*
X65653228Y-141153297D01*
X65488816Y-141186000D01*
X65321184Y-141186000D01*
X65156772Y-141153297D01*
X65001900Y-141089147D01*
X64862519Y-140996015D01*
X64743985Y-140877481D01*
X64650853Y-140738100D01*
X64586703Y-140583228D01*
X64554000Y-140418816D01*
X64554000Y-140251184D01*
X64586703Y-140086772D01*
X64650853Y-139931900D01*
X64743985Y-139792519D01*
X64862519Y-139673985D01*
X65001900Y-139580853D01*
X65156772Y-139516703D01*
X65321184Y-139484000D01*
X65488816Y-139484000D01*
X65653228Y-139516703D01*
G37*
G36*
X104248015Y-139541973D02*
G01*
X104351879Y-139573479D01*
X104365674Y-139580853D01*
X104447600Y-139624643D01*
X104531501Y-139693499D01*
X104600357Y-139777400D01*
X104636995Y-139845945D01*
X104651521Y-139873121D01*
X104683027Y-139976985D01*
X104691000Y-140057933D01*
X104691000Y-140612067D01*
X104683027Y-140693015D01*
X104651521Y-140796879D01*
X104634654Y-140828435D01*
X104608438Y-140877481D01*
X104600356Y-140892600D01*
X104531501Y-140976501D01*
X104462645Y-141033009D01*
X104447599Y-141045357D01*
X104395907Y-141072987D01*
X104351878Y-141096521D01*
X104248014Y-141128027D01*
X104140000Y-141138666D01*
X104031985Y-141128027D01*
X103928121Y-141096521D01*
X103884093Y-141072987D01*
X103832401Y-141045357D01*
X103819643Y-141034887D01*
X103748499Y-140976501D01*
X103679644Y-140892600D01*
X103671563Y-140877481D01*
X103636086Y-140811109D01*
X103628479Y-140796878D01*
X103624615Y-140784139D01*
X103615239Y-140761503D01*
X103601625Y-140741129D01*
X103584298Y-140723802D01*
X103563923Y-140710188D01*
X103541285Y-140700811D01*
X103517251Y-140696031D01*
X103492747Y-140696031D01*
X103468714Y-140700812D01*
X103446075Y-140710189D01*
X103425701Y-140723803D01*
X103408374Y-140741130D01*
X103394760Y-140761505D01*
X103385388Y-140784131D01*
X103381521Y-140796879D01*
X103364654Y-140828435D01*
X103338438Y-140877481D01*
X103330356Y-140892600D01*
X103261501Y-140976501D01*
X103192645Y-141033009D01*
X103177599Y-141045357D01*
X103125907Y-141072987D01*
X103081878Y-141096521D01*
X102978014Y-141128027D01*
X102870000Y-141138666D01*
X102761985Y-141128027D01*
X102658121Y-141096521D01*
X102614093Y-141072987D01*
X102562401Y-141045357D01*
X102549643Y-141034887D01*
X102478499Y-140976501D01*
X102409644Y-140892600D01*
X102386234Y-140848804D01*
X102372625Y-140828436D01*
X102355298Y-140811109D01*
X102334924Y-140797495D01*
X102312285Y-140788118D01*
X102288252Y-140783337D01*
X102263748Y-140783337D01*
X102239714Y-140788117D01*
X102217076Y-140797494D01*
X102196701Y-140811108D01*
X102179374Y-140828435D01*
X102165760Y-140848809D01*
X102156383Y-140871448D01*
X102151602Y-140895481D01*
X102151000Y-140907734D01*
X102151000Y-141136000D01*
X101049000Y-141136000D01*
X101049000Y-139534000D01*
X102151000Y-139534000D01*
X102151000Y-139762265D01*
X102153402Y-139786651D01*
X102160515Y-139810100D01*
X102172066Y-139831711D01*
X102187611Y-139850653D01*
X102206553Y-139866198D01*
X102228164Y-139877749D01*
X102251613Y-139884862D01*
X102275999Y-139887264D01*
X102300385Y-139884862D01*
X102323834Y-139877749D01*
X102345445Y-139866198D01*
X102364387Y-139850653D01*
X102379932Y-139831711D01*
X102386239Y-139821188D01*
X102409644Y-139777399D01*
X102478500Y-139693499D01*
X102562401Y-139624643D01*
X102644327Y-139580853D01*
X102658122Y-139573479D01*
X102761986Y-139541973D01*
X102870000Y-139531334D01*
X102978015Y-139541973D01*
X103081879Y-139573479D01*
X103095674Y-139580853D01*
X103177600Y-139624643D01*
X103261501Y-139693499D01*
X103330357Y-139777400D01*
X103366995Y-139845945D01*
X103381521Y-139873121D01*
X103385388Y-139885869D01*
X103394760Y-139908496D01*
X103408374Y-139928870D01*
X103425701Y-139946197D01*
X103446075Y-139959811D01*
X103468714Y-139969188D01*
X103492747Y-139973969D01*
X103517251Y-139973969D01*
X103541285Y-139969189D01*
X103563924Y-139959812D01*
X103584298Y-139946198D01*
X103601625Y-139928871D01*
X103615239Y-139908497D01*
X103624617Y-139885857D01*
X103624919Y-139884862D01*
X103628480Y-139873121D01*
X103628481Y-139873118D01*
X103679643Y-139777401D01*
X103748500Y-139693499D01*
X103832401Y-139624643D01*
X103914327Y-139580853D01*
X103928122Y-139573479D01*
X104031986Y-139541973D01*
X104140000Y-139531334D01*
X104248015Y-139541973D01*
G37*
G36*
X86790532Y-136630721D02*
G01*
X87059147Y-136741985D01*
X87300895Y-136903516D01*
X87506484Y-137109105D01*
X87668015Y-137350853D01*
X87779279Y-137619468D01*
X87836000Y-137904625D01*
X87836000Y-138195375D01*
X87779279Y-138480532D01*
X87668015Y-138749147D01*
X87506484Y-138990895D01*
X87300895Y-139196484D01*
X87059147Y-139358015D01*
X86790532Y-139469279D01*
X86505375Y-139526000D01*
X86214625Y-139526000D01*
X85929468Y-139469279D01*
X85660853Y-139358015D01*
X85419105Y-139196484D01*
X85213516Y-138990895D01*
X85051985Y-138749147D01*
X84940721Y-138480532D01*
X84884000Y-138195375D01*
X84884000Y-137904625D01*
X84940721Y-137619468D01*
X85051985Y-137350853D01*
X85213516Y-137109105D01*
X85419105Y-136903516D01*
X85660853Y-136741985D01*
X85929468Y-136630721D01*
X86214625Y-136574000D01*
X86505375Y-136574000D01*
X86790532Y-136630721D01*
G37*
G36*
X125263228Y-134436703D02*
G01*
X125418100Y-134500853D01*
X125557481Y-134593985D01*
X125676015Y-134712519D01*
X125769147Y-134851900D01*
X125833297Y-135006772D01*
X125866000Y-135171184D01*
X125866000Y-135338816D01*
X125833297Y-135503228D01*
X125769147Y-135658100D01*
X125676015Y-135797481D01*
X125557481Y-135916015D01*
X125418100Y-136009147D01*
X125263228Y-136073297D01*
X125098816Y-136106000D01*
X124931184Y-136106000D01*
X124766772Y-136073297D01*
X124611900Y-136009147D01*
X124472519Y-135916015D01*
X124353985Y-135797481D01*
X124260853Y-135658100D01*
X124196703Y-135503228D01*
X124164000Y-135338816D01*
X124164000Y-135171184D01*
X124196703Y-135006772D01*
X124260853Y-134851900D01*
X124353985Y-134712519D01*
X124472519Y-134593985D01*
X124611900Y-134500853D01*
X124766772Y-134436703D01*
X124931184Y-134404000D01*
X125098816Y-134404000D01*
X125263228Y-134436703D01*
G37*
G36*
X120263228Y-134436703D02*
G01*
X120418100Y-134500853D01*
X120557481Y-134593985D01*
X120676015Y-134712519D01*
X120769147Y-134851900D01*
X120833297Y-135006772D01*
X120866000Y-135171184D01*
X120866000Y-135338816D01*
X120833297Y-135503228D01*
X120769147Y-135658100D01*
X120676015Y-135797481D01*
X120557481Y-135916015D01*
X120418100Y-136009147D01*
X120263228Y-136073297D01*
X120098816Y-136106000D01*
X119931184Y-136106000D01*
X119766772Y-136073297D01*
X119611900Y-136009147D01*
X119472519Y-135916015D01*
X119353985Y-135797481D01*
X119260853Y-135658100D01*
X119196703Y-135503228D01*
X119164000Y-135338816D01*
X119164000Y-135171184D01*
X119196703Y-135006772D01*
X119260853Y-134851900D01*
X119353985Y-134712519D01*
X119472519Y-134593985D01*
X119611900Y-134500853D01*
X119766772Y-134436703D01*
X119931184Y-134404000D01*
X120098816Y-134404000D01*
X120263228Y-134436703D01*
G37*
G36*
X115103228Y-134436703D02*
G01*
X115258100Y-134500853D01*
X115397481Y-134593985D01*
X115516015Y-134712519D01*
X115609147Y-134851900D01*
X115673297Y-135006772D01*
X115706000Y-135171184D01*
X115706000Y-135338816D01*
X115673297Y-135503228D01*
X115609147Y-135658100D01*
X115516015Y-135797481D01*
X115397481Y-135916015D01*
X115258100Y-136009147D01*
X115103228Y-136073297D01*
X114938816Y-136106000D01*
X114771184Y-136106000D01*
X114606772Y-136073297D01*
X114451900Y-136009147D01*
X114312519Y-135916015D01*
X114193985Y-135797481D01*
X114100853Y-135658100D01*
X114036703Y-135503228D01*
X114004000Y-135338816D01*
X114004000Y-135171184D01*
X114036703Y-135006772D01*
X114100853Y-134851900D01*
X114193985Y-134712519D01*
X114312519Y-134593985D01*
X114451900Y-134500853D01*
X114606772Y-134436703D01*
X114771184Y-134404000D01*
X114938816Y-134404000D01*
X115103228Y-134436703D01*
G37*
G36*
X52953228Y-134436703D02*
G01*
X53108100Y-134500853D01*
X53247481Y-134593985D01*
X53366015Y-134712519D01*
X53459147Y-134851900D01*
X53523297Y-135006772D01*
X53556000Y-135171184D01*
X53556000Y-135338816D01*
X53523297Y-135503228D01*
X53459147Y-135658100D01*
X53366015Y-135797481D01*
X53247481Y-135916015D01*
X53108100Y-136009147D01*
X52953228Y-136073297D01*
X52788816Y-136106000D01*
X52621184Y-136106000D01*
X52456772Y-136073297D01*
X52301900Y-136009147D01*
X52162519Y-135916015D01*
X52043985Y-135797481D01*
X51950853Y-135658100D01*
X51886703Y-135503228D01*
X51854000Y-135338816D01*
X51854000Y-135171184D01*
X51886703Y-135006772D01*
X51950853Y-134851900D01*
X52043985Y-134712519D01*
X52162519Y-134593985D01*
X52301900Y-134500853D01*
X52456772Y-134436703D01*
X52621184Y-134404000D01*
X52788816Y-134404000D01*
X52953228Y-134436703D01*
G37*
G36*
X45333228Y-134436703D02*
G01*
X45488100Y-134500853D01*
X45627481Y-134593985D01*
X45746015Y-134712519D01*
X45839147Y-134851900D01*
X45903297Y-135006772D01*
X45936000Y-135171184D01*
X45936000Y-135338816D01*
X45903297Y-135503228D01*
X45839147Y-135658100D01*
X45746015Y-135797481D01*
X45627481Y-135916015D01*
X45488100Y-136009147D01*
X45333228Y-136073297D01*
X45168816Y-136106000D01*
X45001184Y-136106000D01*
X44836772Y-136073297D01*
X44681900Y-136009147D01*
X44542519Y-135916015D01*
X44423985Y-135797481D01*
X44330853Y-135658100D01*
X44266703Y-135503228D01*
X44234000Y-135338816D01*
X44234000Y-135171184D01*
X44266703Y-135006772D01*
X44330853Y-134851900D01*
X44423985Y-134712519D01*
X44542519Y-134593985D01*
X44681900Y-134500853D01*
X44836772Y-134436703D01*
X45001184Y-134404000D01*
X45168816Y-134404000D01*
X45333228Y-134436703D01*
G37*
G36*
X78353228Y-134436703D02*
G01*
X78508100Y-134500853D01*
X78647481Y-134593985D01*
X78766015Y-134712519D01*
X78859147Y-134851900D01*
X78923297Y-135006772D01*
X78956000Y-135171184D01*
X78956000Y-135338816D01*
X78923297Y-135503228D01*
X78859147Y-135658100D01*
X78766015Y-135797481D01*
X78647481Y-135916015D01*
X78508100Y-136009147D01*
X78353228Y-136073297D01*
X78188816Y-136106000D01*
X78021184Y-136106000D01*
X77856772Y-136073297D01*
X77701900Y-136009147D01*
X77562519Y-135916015D01*
X77443985Y-135797481D01*
X77350853Y-135658100D01*
X77286703Y-135503228D01*
X77254000Y-135338816D01*
X77254000Y-135171184D01*
X77286703Y-135006772D01*
X77350853Y-134851900D01*
X77443985Y-134712519D01*
X77562519Y-134593985D01*
X77701900Y-134500853D01*
X77856772Y-134436703D01*
X78021184Y-134404000D01*
X78188816Y-134404000D01*
X78353228Y-134436703D01*
G37*
G36*
X58033228Y-134436703D02*
G01*
X58188100Y-134500853D01*
X58327481Y-134593985D01*
X58446015Y-134712519D01*
X58539147Y-134851900D01*
X58603297Y-135006772D01*
X58636000Y-135171184D01*
X58636000Y-135338816D01*
X58603297Y-135503228D01*
X58539147Y-135658100D01*
X58446015Y-135797481D01*
X58327481Y-135916015D01*
X58188100Y-136009147D01*
X58033228Y-136073297D01*
X57868816Y-136106000D01*
X57701184Y-136106000D01*
X57536772Y-136073297D01*
X57381900Y-136009147D01*
X57242519Y-135916015D01*
X57123985Y-135797481D01*
X57030853Y-135658100D01*
X56966703Y-135503228D01*
X56934000Y-135338816D01*
X56934000Y-135171184D01*
X56966703Y-135006772D01*
X57030853Y-134851900D01*
X57123985Y-134712519D01*
X57242519Y-134593985D01*
X57381900Y-134500853D01*
X57536772Y-134436703D01*
X57701184Y-134404000D01*
X57868816Y-134404000D01*
X58033228Y-134436703D01*
G37*
G36*
X65653228Y-134436703D02*
G01*
X65808100Y-134500853D01*
X65947481Y-134593985D01*
X66066015Y-134712519D01*
X66159147Y-134851900D01*
X66223297Y-135006772D01*
X66256000Y-135171184D01*
X66256000Y-135338816D01*
X66223297Y-135503228D01*
X66159147Y-135658100D01*
X66066015Y-135797481D01*
X65947481Y-135916015D01*
X65808100Y-136009147D01*
X65653228Y-136073297D01*
X65488816Y-136106000D01*
X65321184Y-136106000D01*
X65156772Y-136073297D01*
X65001900Y-136009147D01*
X64862519Y-135916015D01*
X64743985Y-135797481D01*
X64650853Y-135658100D01*
X64586703Y-135503228D01*
X64554000Y-135338816D01*
X64554000Y-135171184D01*
X64586703Y-135006772D01*
X64650853Y-134851900D01*
X64743985Y-134712519D01*
X64862519Y-134593985D01*
X65001900Y-134500853D01*
X65156772Y-134436703D01*
X65321184Y-134404000D01*
X65488816Y-134404000D01*
X65653228Y-134436703D01*
G37*
G36*
X110103228Y-134436703D02*
G01*
X110258100Y-134500853D01*
X110397481Y-134593985D01*
X110516015Y-134712519D01*
X110609147Y-134851900D01*
X110673297Y-135006772D01*
X110706000Y-135171184D01*
X110706000Y-135338816D01*
X110673297Y-135503228D01*
X110609147Y-135658100D01*
X110516015Y-135797481D01*
X110397481Y-135916015D01*
X110258100Y-136009147D01*
X110103228Y-136073297D01*
X109938816Y-136106000D01*
X109771184Y-136106000D01*
X109606772Y-136073297D01*
X109451900Y-136009147D01*
X109312519Y-135916015D01*
X109193985Y-135797481D01*
X109100853Y-135658100D01*
X109036703Y-135503228D01*
X109004000Y-135338816D01*
X109004000Y-135171184D01*
X109036703Y-135006772D01*
X109100853Y-134851900D01*
X109193985Y-134712519D01*
X109312519Y-134593985D01*
X109451900Y-134500853D01*
X109606772Y-134436703D01*
X109771184Y-134404000D01*
X109938816Y-134404000D01*
X110103228Y-134436703D01*
G37*
G36*
X70733228Y-134436703D02*
G01*
X70888100Y-134500853D01*
X71027481Y-134593985D01*
X71146015Y-134712519D01*
X71239147Y-134851900D01*
X71303297Y-135006772D01*
X71336000Y-135171184D01*
X71336000Y-135338816D01*
X71303297Y-135503228D01*
X71239147Y-135658100D01*
X71146015Y-135797481D01*
X71027481Y-135916015D01*
X70888100Y-136009147D01*
X70733228Y-136073297D01*
X70568816Y-136106000D01*
X70401184Y-136106000D01*
X70236772Y-136073297D01*
X70081900Y-136009147D01*
X69942519Y-135916015D01*
X69823985Y-135797481D01*
X69730853Y-135658100D01*
X69666703Y-135503228D01*
X69634000Y-135338816D01*
X69634000Y-135171184D01*
X69666703Y-135006772D01*
X69730853Y-134851900D01*
X69823985Y-134712519D01*
X69942519Y-134593985D01*
X70081900Y-134500853D01*
X70236772Y-134436703D01*
X70401184Y-134404000D01*
X70568816Y-134404000D01*
X70733228Y-134436703D01*
G37*
G36*
X130279769Y-133722188D02*
G01*
X130437812Y-133753624D01*
X130601784Y-133821544D01*
X130749354Y-133920147D01*
X130874853Y-134045646D01*
X130973456Y-134193216D01*
X131041376Y-134357188D01*
X131076000Y-134531259D01*
X131076000Y-134708741D01*
X131041376Y-134882812D01*
X130973456Y-135046784D01*
X130874853Y-135194354D01*
X130749354Y-135319853D01*
X130601784Y-135418456D01*
X130437812Y-135486376D01*
X130288512Y-135516073D01*
X130263742Y-135521000D01*
X130086258Y-135521000D01*
X130061488Y-135516073D01*
X129912188Y-135486376D01*
X129748216Y-135418456D01*
X129600646Y-135319853D01*
X129475147Y-135194354D01*
X129376544Y-135046784D01*
X129308624Y-134882812D01*
X129274000Y-134708741D01*
X129274000Y-134531259D01*
X129308624Y-134357188D01*
X129376544Y-134193216D01*
X129475147Y-134045646D01*
X129600646Y-133920147D01*
X129748216Y-133821544D01*
X129912188Y-133753624D01*
X130070231Y-133722188D01*
X130086258Y-133719000D01*
X130263742Y-133719000D01*
X130279769Y-133722188D01*
G37*
G36*
X40118512Y-133088927D02*
G01*
X40267812Y-133118624D01*
X40431784Y-133186544D01*
X40579354Y-133285147D01*
X40704853Y-133410646D01*
X40803456Y-133558216D01*
X40871376Y-133722188D01*
X40906000Y-133896259D01*
X40906000Y-134073741D01*
X40871376Y-134247812D01*
X40803456Y-134411784D01*
X40704853Y-134559354D01*
X40579354Y-134684853D01*
X40431784Y-134783456D01*
X40267812Y-134851376D01*
X40118512Y-134881073D01*
X40093742Y-134886000D01*
X39916258Y-134886000D01*
X39891488Y-134881073D01*
X39742188Y-134851376D01*
X39578216Y-134783456D01*
X39430646Y-134684853D01*
X39305147Y-134559354D01*
X39206544Y-134411784D01*
X39138624Y-134247812D01*
X39104000Y-134073741D01*
X39104000Y-133896259D01*
X39138624Y-133722188D01*
X39206544Y-133558216D01*
X39305147Y-133410646D01*
X39430646Y-133285147D01*
X39578216Y-133186544D01*
X39742188Y-133118624D01*
X39891488Y-133088927D01*
X39916258Y-133084000D01*
X40093742Y-133084000D01*
X40118512Y-133088927D01*
G37*
G36*
X86790532Y-131930721D02*
G01*
X87059147Y-132041985D01*
X87300895Y-132203516D01*
X87506484Y-132409105D01*
X87668015Y-132650853D01*
X87779279Y-132919468D01*
X87836000Y-133204625D01*
X87836000Y-133495375D01*
X87779279Y-133780532D01*
X87668015Y-134049147D01*
X87506484Y-134290895D01*
X87300895Y-134496484D01*
X87059147Y-134658015D01*
X86790532Y-134769279D01*
X86505375Y-134826000D01*
X86214625Y-134826000D01*
X85929468Y-134769279D01*
X85660853Y-134658015D01*
X85419105Y-134496484D01*
X85213516Y-134290895D01*
X85051985Y-134049147D01*
X84940721Y-133780532D01*
X84884000Y-133495375D01*
X84884000Y-133204625D01*
X84940721Y-132919468D01*
X85051985Y-132650853D01*
X85213516Y-132409105D01*
X85419105Y-132203516D01*
X85660853Y-132041985D01*
X85929468Y-131930721D01*
X86214625Y-131874000D01*
X86505375Y-131874000D01*
X86790532Y-131930721D01*
G37*
G36*
X95993015Y-133191973D02*
G01*
X96096879Y-133223479D01*
X96124055Y-133238005D01*
X96192600Y-133274643D01*
X96276501Y-133343499D01*
X96345357Y-133427400D01*
X96381689Y-133495373D01*
X96396521Y-133523121D01*
X96428027Y-133626985D01*
X96436000Y-133707933D01*
X96436000Y-134262067D01*
X96428027Y-134343015D01*
X96396521Y-134446879D01*
X96345356Y-134542600D01*
X96276501Y-134626501D01*
X96207645Y-134683009D01*
X96192599Y-134695357D01*
X96167559Y-134708741D01*
X96096878Y-134746521D01*
X95993014Y-134778027D01*
X95885000Y-134788666D01*
X95776985Y-134778027D01*
X95673121Y-134746521D01*
X95609509Y-134712519D01*
X95577401Y-134695357D01*
X95564601Y-134684852D01*
X95493499Y-134626501D01*
X95424644Y-134542600D01*
X95418582Y-134531258D01*
X95381086Y-134461109D01*
X95373479Y-134446878D01*
X95369615Y-134434139D01*
X95360239Y-134411503D01*
X95346625Y-134391129D01*
X95329298Y-134373802D01*
X95308923Y-134360188D01*
X95286285Y-134350811D01*
X95262251Y-134346031D01*
X95237747Y-134346031D01*
X95213714Y-134350812D01*
X95191075Y-134360189D01*
X95170701Y-134373803D01*
X95153374Y-134391130D01*
X95139760Y-134411505D01*
X95130388Y-134434131D01*
X95126521Y-134446879D01*
X95075356Y-134542600D01*
X95006501Y-134626501D01*
X94937645Y-134683009D01*
X94922599Y-134695357D01*
X94897559Y-134708741D01*
X94826878Y-134746521D01*
X94723014Y-134778027D01*
X94615000Y-134788666D01*
X94506985Y-134778027D01*
X94403121Y-134746521D01*
X94339509Y-134712519D01*
X94307401Y-134695357D01*
X94294601Y-134684852D01*
X94223499Y-134626501D01*
X94154644Y-134542600D01*
X94131234Y-134498804D01*
X94117625Y-134478436D01*
X94100298Y-134461109D01*
X94079924Y-134447495D01*
X94057285Y-134438118D01*
X94033252Y-134433337D01*
X94008748Y-134433337D01*
X93984714Y-134438117D01*
X93962076Y-134447494D01*
X93941701Y-134461108D01*
X93924374Y-134478435D01*
X93910760Y-134498809D01*
X93901383Y-134521448D01*
X93896602Y-134545481D01*
X93896000Y-134557734D01*
X93896000Y-134786000D01*
X92794000Y-134786000D01*
X92794000Y-133184000D01*
X93896000Y-133184000D01*
X93896000Y-133412265D01*
X93898402Y-133436651D01*
X93905515Y-133460100D01*
X93917066Y-133481711D01*
X93932611Y-133500653D01*
X93951553Y-133516198D01*
X93973164Y-133527749D01*
X93996613Y-133534862D01*
X94020999Y-133537264D01*
X94045385Y-133534862D01*
X94068834Y-133527749D01*
X94090445Y-133516198D01*
X94109387Y-133500653D01*
X94124932Y-133481711D01*
X94131239Y-133471188D01*
X94154644Y-133427399D01*
X94223500Y-133343499D01*
X94307401Y-133274643D01*
X94375946Y-133238005D01*
X94403122Y-133223479D01*
X94506986Y-133191973D01*
X94615000Y-133181334D01*
X94723015Y-133191973D01*
X94826879Y-133223479D01*
X94854055Y-133238005D01*
X94922600Y-133274643D01*
X95006501Y-133343499D01*
X95075357Y-133427400D01*
X95111689Y-133495373D01*
X95126521Y-133523121D01*
X95130388Y-133535869D01*
X95139760Y-133558496D01*
X95153374Y-133578870D01*
X95170701Y-133596197D01*
X95191075Y-133609811D01*
X95213714Y-133619188D01*
X95237747Y-133623969D01*
X95262251Y-133623969D01*
X95286285Y-133619189D01*
X95308924Y-133609812D01*
X95329298Y-133596198D01*
X95346625Y-133578871D01*
X95360239Y-133558497D01*
X95369617Y-133535857D01*
X95369919Y-133534862D01*
X95373480Y-133523121D01*
X95373481Y-133523118D01*
X95424643Y-133427401D01*
X95493500Y-133343499D01*
X95577401Y-133274643D01*
X95645946Y-133238005D01*
X95673122Y-133223479D01*
X95776986Y-133191973D01*
X95885000Y-133181334D01*
X95993015Y-133191973D01*
G37*
G36*
X104248015Y-133191973D02*
G01*
X104351879Y-133223479D01*
X104379055Y-133238005D01*
X104447600Y-133274643D01*
X104531501Y-133343499D01*
X104600357Y-133427400D01*
X104636689Y-133495373D01*
X104651521Y-133523121D01*
X104683027Y-133626985D01*
X104691000Y-133707933D01*
X104691000Y-134262067D01*
X104683027Y-134343015D01*
X104651521Y-134446879D01*
X104600356Y-134542600D01*
X104531501Y-134626501D01*
X104462645Y-134683009D01*
X104447599Y-134695357D01*
X104422559Y-134708741D01*
X104351878Y-134746521D01*
X104248014Y-134778027D01*
X104140000Y-134788666D01*
X104031985Y-134778027D01*
X103928121Y-134746521D01*
X103864509Y-134712519D01*
X103832401Y-134695357D01*
X103819601Y-134684852D01*
X103748499Y-134626501D01*
X103679644Y-134542600D01*
X103673582Y-134531258D01*
X103636086Y-134461109D01*
X103628479Y-134446878D01*
X103624615Y-134434139D01*
X103615239Y-134411503D01*
X103601625Y-134391129D01*
X103584298Y-134373802D01*
X103563923Y-134360188D01*
X103541285Y-134350811D01*
X103517251Y-134346031D01*
X103492747Y-134346031D01*
X103468714Y-134350812D01*
X103446075Y-134360189D01*
X103425701Y-134373803D01*
X103408374Y-134391130D01*
X103394760Y-134411505D01*
X103385388Y-134434131D01*
X103381521Y-134446879D01*
X103330356Y-134542600D01*
X103261501Y-134626501D01*
X103192645Y-134683009D01*
X103177599Y-134695357D01*
X103152559Y-134708741D01*
X103081878Y-134746521D01*
X102978014Y-134778027D01*
X102870000Y-134788666D01*
X102761985Y-134778027D01*
X102658121Y-134746521D01*
X102594509Y-134712519D01*
X102562401Y-134695357D01*
X102549601Y-134684852D01*
X102478499Y-134626501D01*
X102409644Y-134542600D01*
X102386234Y-134498804D01*
X102372625Y-134478436D01*
X102355298Y-134461109D01*
X102334924Y-134447495D01*
X102312285Y-134438118D01*
X102288252Y-134433337D01*
X102263748Y-134433337D01*
X102239714Y-134438117D01*
X102217076Y-134447494D01*
X102196701Y-134461108D01*
X102179374Y-134478435D01*
X102165760Y-134498809D01*
X102156383Y-134521448D01*
X102151602Y-134545481D01*
X102151000Y-134557734D01*
X102151000Y-134786000D01*
X101049000Y-134786000D01*
X101049000Y-133184000D01*
X102151000Y-133184000D01*
X102151000Y-133412265D01*
X102153402Y-133436651D01*
X102160515Y-133460100D01*
X102172066Y-133481711D01*
X102187611Y-133500653D01*
X102206553Y-133516198D01*
X102228164Y-133527749D01*
X102251613Y-133534862D01*
X102275999Y-133537264D01*
X102300385Y-133534862D01*
X102323834Y-133527749D01*
X102345445Y-133516198D01*
X102364387Y-133500653D01*
X102379932Y-133481711D01*
X102386239Y-133471188D01*
X102409644Y-133427399D01*
X102478500Y-133343499D01*
X102562401Y-133274643D01*
X102630946Y-133238005D01*
X102658122Y-133223479D01*
X102761986Y-133191973D01*
X102870000Y-133181334D01*
X102978015Y-133191973D01*
X103081879Y-133223479D01*
X103109055Y-133238005D01*
X103177600Y-133274643D01*
X103261501Y-133343499D01*
X103330357Y-133427400D01*
X103366689Y-133495373D01*
X103381521Y-133523121D01*
X103385388Y-133535869D01*
X103394760Y-133558496D01*
X103408374Y-133578870D01*
X103425701Y-133596197D01*
X103446075Y-133609811D01*
X103468714Y-133619188D01*
X103492747Y-133623969D01*
X103517251Y-133623969D01*
X103541285Y-133619189D01*
X103563924Y-133609812D01*
X103584298Y-133596198D01*
X103601625Y-133578871D01*
X103615239Y-133558497D01*
X103624617Y-133535857D01*
X103624919Y-133534862D01*
X103628480Y-133523121D01*
X103628481Y-133523118D01*
X103679643Y-133427401D01*
X103748500Y-133343499D01*
X103832401Y-133274643D01*
X103900946Y-133238005D01*
X103928122Y-133223479D01*
X104031986Y-133191973D01*
X104140000Y-133181334D01*
X104248015Y-133191973D01*
G37*
G36*
X131076000Y-132981000D02*
G01*
X129274000Y-132981000D01*
X129274000Y-131179000D01*
X131076000Y-131179000D01*
X131076000Y-132981000D01*
G37*
G36*
X40118512Y-130548927D02*
G01*
X40267812Y-130578624D01*
X40431784Y-130646544D01*
X40579354Y-130745147D01*
X40704853Y-130870646D01*
X40803456Y-131018216D01*
X40871376Y-131182188D01*
X40906000Y-131356259D01*
X40906000Y-131533741D01*
X40871376Y-131707812D01*
X40803456Y-131871784D01*
X40704853Y-132019354D01*
X40579354Y-132144853D01*
X40431784Y-132243456D01*
X40267812Y-132311376D01*
X40118512Y-132341073D01*
X40093742Y-132346000D01*
X39916258Y-132346000D01*
X39891488Y-132341073D01*
X39742188Y-132311376D01*
X39578216Y-132243456D01*
X39430646Y-132144853D01*
X39305147Y-132019354D01*
X39206544Y-131871784D01*
X39138624Y-131707812D01*
X39104000Y-131533741D01*
X39104000Y-131356259D01*
X39138624Y-131182188D01*
X39206544Y-131018216D01*
X39305147Y-130870646D01*
X39430646Y-130745147D01*
X39578216Y-130646544D01*
X39742188Y-130578624D01*
X39891488Y-130548927D01*
X39916258Y-130544000D01*
X40093742Y-130544000D01*
X40118512Y-130548927D01*
G37*
G36*
X45333228Y-129356703D02*
G01*
X45488100Y-129420853D01*
X45627481Y-129513985D01*
X45746015Y-129632519D01*
X45839147Y-129771900D01*
X45903297Y-129926772D01*
X45936000Y-130091184D01*
X45936000Y-130258816D01*
X45903297Y-130423228D01*
X45839147Y-130578100D01*
X45746015Y-130717481D01*
X45627481Y-130836015D01*
X45488100Y-130929147D01*
X45333228Y-130993297D01*
X45168816Y-131026000D01*
X45001184Y-131026000D01*
X44836772Y-130993297D01*
X44681900Y-130929147D01*
X44542519Y-130836015D01*
X44423985Y-130717481D01*
X44330853Y-130578100D01*
X44266703Y-130423228D01*
X44234000Y-130258816D01*
X44234000Y-130091184D01*
X44266703Y-129926772D01*
X44330853Y-129771900D01*
X44423985Y-129632519D01*
X44542519Y-129513985D01*
X44681900Y-129420853D01*
X44836772Y-129356703D01*
X45001184Y-129324000D01*
X45168816Y-129324000D01*
X45333228Y-129356703D01*
G37*
G36*
X52953228Y-129356703D02*
G01*
X53108100Y-129420853D01*
X53247481Y-129513985D01*
X53366015Y-129632519D01*
X53459147Y-129771900D01*
X53523297Y-129926772D01*
X53556000Y-130091184D01*
X53556000Y-130258816D01*
X53523297Y-130423228D01*
X53459147Y-130578100D01*
X53366015Y-130717481D01*
X53247481Y-130836015D01*
X53108100Y-130929147D01*
X52953228Y-130993297D01*
X52788816Y-131026000D01*
X52621184Y-131026000D01*
X52456772Y-130993297D01*
X52301900Y-130929147D01*
X52162519Y-130836015D01*
X52043985Y-130717481D01*
X51950853Y-130578100D01*
X51886703Y-130423228D01*
X51854000Y-130258816D01*
X51854000Y-130091184D01*
X51886703Y-129926772D01*
X51950853Y-129771900D01*
X52043985Y-129632519D01*
X52162519Y-129513985D01*
X52301900Y-129420853D01*
X52456772Y-129356703D01*
X52621184Y-129324000D01*
X52788816Y-129324000D01*
X52953228Y-129356703D01*
G37*
G36*
X115103228Y-129356703D02*
G01*
X115258100Y-129420853D01*
X115397481Y-129513985D01*
X115516015Y-129632519D01*
X115609147Y-129771900D01*
X115673297Y-129926772D01*
X115706000Y-130091184D01*
X115706000Y-130258816D01*
X115673297Y-130423228D01*
X115609147Y-130578100D01*
X115516015Y-130717481D01*
X115397481Y-130836015D01*
X115258100Y-130929147D01*
X115103228Y-130993297D01*
X114938816Y-131026000D01*
X114771184Y-131026000D01*
X114606772Y-130993297D01*
X114451900Y-130929147D01*
X114312519Y-130836015D01*
X114193985Y-130717481D01*
X114100853Y-130578100D01*
X114036703Y-130423228D01*
X114004000Y-130258816D01*
X114004000Y-130091184D01*
X114036703Y-129926772D01*
X114100853Y-129771900D01*
X114193985Y-129632519D01*
X114312519Y-129513985D01*
X114451900Y-129420853D01*
X114606772Y-129356703D01*
X114771184Y-129324000D01*
X114938816Y-129324000D01*
X115103228Y-129356703D01*
G37*
G36*
X58033228Y-129356703D02*
G01*
X58188100Y-129420853D01*
X58327481Y-129513985D01*
X58446015Y-129632519D01*
X58539147Y-129771900D01*
X58603297Y-129926772D01*
X58636000Y-130091184D01*
X58636000Y-130258816D01*
X58603297Y-130423228D01*
X58539147Y-130578100D01*
X58446015Y-130717481D01*
X58327481Y-130836015D01*
X58188100Y-130929147D01*
X58033228Y-130993297D01*
X57868816Y-131026000D01*
X57701184Y-131026000D01*
X57536772Y-130993297D01*
X57381900Y-130929147D01*
X57242519Y-130836015D01*
X57123985Y-130717481D01*
X57030853Y-130578100D01*
X56966703Y-130423228D01*
X56934000Y-130258816D01*
X56934000Y-130091184D01*
X56966703Y-129926772D01*
X57030853Y-129771900D01*
X57123985Y-129632519D01*
X57242519Y-129513985D01*
X57381900Y-129420853D01*
X57536772Y-129356703D01*
X57701184Y-129324000D01*
X57868816Y-129324000D01*
X58033228Y-129356703D01*
G37*
G36*
X65653228Y-129356703D02*
G01*
X65808100Y-129420853D01*
X65947481Y-129513985D01*
X66066015Y-129632519D01*
X66159147Y-129771900D01*
X66223297Y-129926772D01*
X66256000Y-130091184D01*
X66256000Y-130258816D01*
X66223297Y-130423228D01*
X66159147Y-130578100D01*
X66066015Y-130717481D01*
X65947481Y-130836015D01*
X65808100Y-130929147D01*
X65653228Y-130993297D01*
X65488816Y-131026000D01*
X65321184Y-131026000D01*
X65156772Y-130993297D01*
X65001900Y-130929147D01*
X64862519Y-130836015D01*
X64743985Y-130717481D01*
X64650853Y-130578100D01*
X64586703Y-130423228D01*
X64554000Y-130258816D01*
X64554000Y-130091184D01*
X64586703Y-129926772D01*
X64650853Y-129771900D01*
X64743985Y-129632519D01*
X64862519Y-129513985D01*
X65001900Y-129420853D01*
X65156772Y-129356703D01*
X65321184Y-129324000D01*
X65488816Y-129324000D01*
X65653228Y-129356703D01*
G37*
G36*
X78353228Y-129356703D02*
G01*
X78508100Y-129420853D01*
X78647481Y-129513985D01*
X78766015Y-129632519D01*
X78859147Y-129771900D01*
X78923297Y-129926772D01*
X78956000Y-130091184D01*
X78956000Y-130258816D01*
X78923297Y-130423228D01*
X78859147Y-130578100D01*
X78766015Y-130717481D01*
X78647481Y-130836015D01*
X78508100Y-130929147D01*
X78353228Y-130993297D01*
X78188816Y-131026000D01*
X78021184Y-131026000D01*
X77856772Y-130993297D01*
X77701900Y-130929147D01*
X77562519Y-130836015D01*
X77443985Y-130717481D01*
X77350853Y-130578100D01*
X77286703Y-130423228D01*
X77254000Y-130258816D01*
X77254000Y-130091184D01*
X77286703Y-129926772D01*
X77350853Y-129771900D01*
X77443985Y-129632519D01*
X77562519Y-129513985D01*
X77701900Y-129420853D01*
X77856772Y-129356703D01*
X78021184Y-129324000D01*
X78188816Y-129324000D01*
X78353228Y-129356703D01*
G37*
G36*
X110103228Y-129356703D02*
G01*
X110258100Y-129420853D01*
X110397481Y-129513985D01*
X110516015Y-129632519D01*
X110609147Y-129771900D01*
X110673297Y-129926772D01*
X110706000Y-130091184D01*
X110706000Y-130258816D01*
X110673297Y-130423228D01*
X110609147Y-130578100D01*
X110516015Y-130717481D01*
X110397481Y-130836015D01*
X110258100Y-130929147D01*
X110103228Y-130993297D01*
X109938816Y-131026000D01*
X109771184Y-131026000D01*
X109606772Y-130993297D01*
X109451900Y-130929147D01*
X109312519Y-130836015D01*
X109193985Y-130717481D01*
X109100853Y-130578100D01*
X109036703Y-130423228D01*
X109004000Y-130258816D01*
X109004000Y-130091184D01*
X109036703Y-129926772D01*
X109100853Y-129771900D01*
X109193985Y-129632519D01*
X109312519Y-129513985D01*
X109451900Y-129420853D01*
X109606772Y-129356703D01*
X109771184Y-129324000D01*
X109938816Y-129324000D01*
X110103228Y-129356703D01*
G37*
G36*
X120263228Y-129356703D02*
G01*
X120418100Y-129420853D01*
X120557481Y-129513985D01*
X120676015Y-129632519D01*
X120769147Y-129771900D01*
X120833297Y-129926772D01*
X120866000Y-130091184D01*
X120866000Y-130258816D01*
X120833297Y-130423228D01*
X120769147Y-130578100D01*
X120676015Y-130717481D01*
X120557481Y-130836015D01*
X120418100Y-130929147D01*
X120263228Y-130993297D01*
X120098816Y-131026000D01*
X119931184Y-131026000D01*
X119766772Y-130993297D01*
X119611900Y-130929147D01*
X119472519Y-130836015D01*
X119353985Y-130717481D01*
X119260853Y-130578100D01*
X119196703Y-130423228D01*
X119164000Y-130258816D01*
X119164000Y-130091184D01*
X119196703Y-129926772D01*
X119260853Y-129771900D01*
X119353985Y-129632519D01*
X119472519Y-129513985D01*
X119611900Y-129420853D01*
X119766772Y-129356703D01*
X119931184Y-129324000D01*
X120098816Y-129324000D01*
X120263228Y-129356703D01*
G37*
G36*
X125263228Y-129356703D02*
G01*
X125418100Y-129420853D01*
X125557481Y-129513985D01*
X125676015Y-129632519D01*
X125769147Y-129771900D01*
X125833297Y-129926772D01*
X125866000Y-130091184D01*
X125866000Y-130258816D01*
X125833297Y-130423228D01*
X125769147Y-130578100D01*
X125676015Y-130717481D01*
X125557481Y-130836015D01*
X125418100Y-130929147D01*
X125263228Y-130993297D01*
X125098816Y-131026000D01*
X124931184Y-131026000D01*
X124766772Y-130993297D01*
X124611900Y-130929147D01*
X124472519Y-130836015D01*
X124353985Y-130717481D01*
X124260853Y-130578100D01*
X124196703Y-130423228D01*
X124164000Y-130258816D01*
X124164000Y-130091184D01*
X124196703Y-129926772D01*
X124260853Y-129771900D01*
X124353985Y-129632519D01*
X124472519Y-129513985D01*
X124611900Y-129420853D01*
X124766772Y-129356703D01*
X124931184Y-129324000D01*
X125098816Y-129324000D01*
X125263228Y-129356703D01*
G37*
G36*
X70733228Y-129356703D02*
G01*
X70888100Y-129420853D01*
X71027481Y-129513985D01*
X71146015Y-129632519D01*
X71239147Y-129771900D01*
X71303297Y-129926772D01*
X71336000Y-130091184D01*
X71336000Y-130258816D01*
X71303297Y-130423228D01*
X71239147Y-130578100D01*
X71146015Y-130717481D01*
X71027481Y-130836015D01*
X70888100Y-130929147D01*
X70733228Y-130993297D01*
X70568816Y-131026000D01*
X70401184Y-131026000D01*
X70236772Y-130993297D01*
X70081900Y-130929147D01*
X69942519Y-130836015D01*
X69823985Y-130717481D01*
X69730853Y-130578100D01*
X69666703Y-130423228D01*
X69634000Y-130258816D01*
X69634000Y-130091184D01*
X69666703Y-129926772D01*
X69730853Y-129771900D01*
X69823985Y-129632519D01*
X69942519Y-129513985D01*
X70081900Y-129420853D01*
X70236772Y-129356703D01*
X70401184Y-129324000D01*
X70568816Y-129324000D01*
X70733228Y-129356703D01*
G37*
G36*
X40906000Y-129806000D02*
G01*
X39104000Y-129806000D01*
X39104000Y-128004000D01*
X40906000Y-128004000D01*
X40906000Y-129806000D01*
G37*
G36*
X90283512Y-126738927D02*
G01*
X90432812Y-126768624D01*
X90596784Y-126836544D01*
X90744354Y-126935147D01*
X90869853Y-127060646D01*
X90968456Y-127208216D01*
X91036376Y-127372188D01*
X91071000Y-127546259D01*
X91071000Y-127723741D01*
X91036376Y-127897812D01*
X90968456Y-128061784D01*
X90869853Y-128209354D01*
X90744354Y-128334853D01*
X90596784Y-128433456D01*
X90432812Y-128501376D01*
X90283512Y-128531073D01*
X90258742Y-128536000D01*
X90081258Y-128536000D01*
X90056488Y-128531073D01*
X89907188Y-128501376D01*
X89743216Y-128433456D01*
X89595646Y-128334853D01*
X89470147Y-128209354D01*
X89371544Y-128061784D01*
X89303624Y-127897812D01*
X89269000Y-127723741D01*
X89269000Y-127546259D01*
X89303624Y-127372188D01*
X89371544Y-127208216D01*
X89470147Y-127060646D01*
X89595646Y-126935147D01*
X89743216Y-126836544D01*
X89907188Y-126768624D01*
X90056488Y-126738927D01*
X90081258Y-126734000D01*
X90258742Y-126734000D01*
X90283512Y-126738927D01*
G37*
G36*
X130423228Y-126181703D02*
G01*
X130578100Y-126245853D01*
X130717481Y-126338985D01*
X130836015Y-126457519D01*
X130929147Y-126596900D01*
X130993297Y-126751772D01*
X131026000Y-126916184D01*
X131026000Y-127083816D01*
X130993297Y-127248228D01*
X130929147Y-127403100D01*
X130836015Y-127542481D01*
X130717481Y-127661015D01*
X130578100Y-127754147D01*
X130423228Y-127818297D01*
X130258816Y-127851000D01*
X130091184Y-127851000D01*
X129926772Y-127818297D01*
X129771900Y-127754147D01*
X129632519Y-127661015D01*
X129513985Y-127542481D01*
X129420853Y-127403100D01*
X129356703Y-127248228D01*
X129324000Y-127083816D01*
X129324000Y-126916184D01*
X129356703Y-126751772D01*
X129420853Y-126596900D01*
X129513985Y-126457519D01*
X129632519Y-126338985D01*
X129771900Y-126245853D01*
X129926772Y-126181703D01*
X130091184Y-126149000D01*
X130258816Y-126149000D01*
X130423228Y-126181703D01*
G37*
G36*
X98550589Y-125603876D02*
G01*
X98649893Y-125623629D01*
X98790206Y-125681748D01*
X98916484Y-125766125D01*
X99023875Y-125873516D01*
X99108252Y-125999794D01*
X99166371Y-126140107D01*
X99166371Y-126140109D01*
X99196000Y-126289062D01*
X99196000Y-126440938D01*
X99186124Y-126490589D01*
X99166371Y-126589893D01*
X99108252Y-126730206D01*
X99023875Y-126856484D01*
X98916484Y-126963875D01*
X98790206Y-127048252D01*
X98649893Y-127106371D01*
X98550589Y-127126124D01*
X98500938Y-127136000D01*
X98349062Y-127136000D01*
X98299411Y-127126124D01*
X98200107Y-127106371D01*
X98059794Y-127048252D01*
X97933516Y-126963875D01*
X97826125Y-126856484D01*
X97741748Y-126730206D01*
X97683629Y-126589893D01*
X97663876Y-126490589D01*
X97654000Y-126440938D01*
X97654000Y-126289062D01*
X97683629Y-126140109D01*
X97683629Y-126140107D01*
X97741748Y-125999794D01*
X97826125Y-125873516D01*
X97933516Y-125766125D01*
X98059794Y-125681748D01*
X98200107Y-125623629D01*
X98299411Y-125603876D01*
X98349062Y-125594000D01*
X98500938Y-125594000D01*
X98550589Y-125603876D01*
G37*
G36*
X91071000Y-125996000D02*
G01*
X89269000Y-125996000D01*
X89269000Y-124194000D01*
X91071000Y-124194000D01*
X91071000Y-125996000D01*
G37*
G36*
X125263228Y-124276703D02*
G01*
X125418100Y-124340853D01*
X125557481Y-124433985D01*
X125676015Y-124552519D01*
X125769147Y-124691900D01*
X125833297Y-124846772D01*
X125866000Y-125011184D01*
X125866000Y-125178816D01*
X125833297Y-125343228D01*
X125769147Y-125498100D01*
X125676015Y-125637481D01*
X125557481Y-125756015D01*
X125418100Y-125849147D01*
X125263228Y-125913297D01*
X125098816Y-125946000D01*
X124931184Y-125946000D01*
X124766772Y-125913297D01*
X124611900Y-125849147D01*
X124472519Y-125756015D01*
X124353985Y-125637481D01*
X124260853Y-125498100D01*
X124196703Y-125343228D01*
X124164000Y-125178816D01*
X124164000Y-125011184D01*
X124196703Y-124846772D01*
X124260853Y-124691900D01*
X124353985Y-124552519D01*
X124472519Y-124433985D01*
X124611900Y-124340853D01*
X124766772Y-124276703D01*
X124931184Y-124244000D01*
X125098816Y-124244000D01*
X125263228Y-124276703D01*
G37*
G36*
X120263228Y-124276703D02*
G01*
X120418100Y-124340853D01*
X120557481Y-124433985D01*
X120676015Y-124552519D01*
X120769147Y-124691900D01*
X120833297Y-124846772D01*
X120866000Y-125011184D01*
X120866000Y-125178816D01*
X120833297Y-125343228D01*
X120769147Y-125498100D01*
X120676015Y-125637481D01*
X120557481Y-125756015D01*
X120418100Y-125849147D01*
X120263228Y-125913297D01*
X120098816Y-125946000D01*
X119931184Y-125946000D01*
X119766772Y-125913297D01*
X119611900Y-125849147D01*
X119472519Y-125756015D01*
X119353985Y-125637481D01*
X119260853Y-125498100D01*
X119196703Y-125343228D01*
X119164000Y-125178816D01*
X119164000Y-125011184D01*
X119196703Y-124846772D01*
X119260853Y-124691900D01*
X119353985Y-124552519D01*
X119472519Y-124433985D01*
X119611900Y-124340853D01*
X119766772Y-124276703D01*
X119931184Y-124244000D01*
X120098816Y-124244000D01*
X120263228Y-124276703D01*
G37*
G36*
X110103228Y-124276703D02*
G01*
X110258100Y-124340853D01*
X110397481Y-124433985D01*
X110516015Y-124552519D01*
X110609147Y-124691900D01*
X110673297Y-124846772D01*
X110706000Y-125011184D01*
X110706000Y-125178816D01*
X110673297Y-125343228D01*
X110609147Y-125498100D01*
X110516015Y-125637481D01*
X110397481Y-125756015D01*
X110258100Y-125849147D01*
X110103228Y-125913297D01*
X109938816Y-125946000D01*
X109771184Y-125946000D01*
X109606772Y-125913297D01*
X109451900Y-125849147D01*
X109312519Y-125756015D01*
X109193985Y-125637481D01*
X109100853Y-125498100D01*
X109036703Y-125343228D01*
X109004000Y-125178816D01*
X109004000Y-125011184D01*
X109036703Y-124846772D01*
X109100853Y-124691900D01*
X109193985Y-124552519D01*
X109312519Y-124433985D01*
X109451900Y-124340853D01*
X109606772Y-124276703D01*
X109771184Y-124244000D01*
X109938816Y-124244000D01*
X110103228Y-124276703D01*
G37*
G36*
X45333228Y-124276703D02*
G01*
X45488100Y-124340853D01*
X45627481Y-124433985D01*
X45746015Y-124552519D01*
X45839147Y-124691900D01*
X45903297Y-124846772D01*
X45936000Y-125011184D01*
X45936000Y-125178816D01*
X45903297Y-125343228D01*
X45839147Y-125498100D01*
X45746015Y-125637481D01*
X45627481Y-125756015D01*
X45488100Y-125849147D01*
X45333228Y-125913297D01*
X45168816Y-125946000D01*
X45001184Y-125946000D01*
X44836772Y-125913297D01*
X44681900Y-125849147D01*
X44542519Y-125756015D01*
X44423985Y-125637481D01*
X44330853Y-125498100D01*
X44266703Y-125343228D01*
X44234000Y-125178816D01*
X44234000Y-125011184D01*
X44266703Y-124846772D01*
X44330853Y-124691900D01*
X44423985Y-124552519D01*
X44542519Y-124433985D01*
X44681900Y-124340853D01*
X44836772Y-124276703D01*
X45001184Y-124244000D01*
X45168816Y-124244000D01*
X45333228Y-124276703D01*
G37*
G36*
X52953228Y-124276703D02*
G01*
X53108100Y-124340853D01*
X53247481Y-124433985D01*
X53366015Y-124552519D01*
X53459147Y-124691900D01*
X53523297Y-124846772D01*
X53556000Y-125011184D01*
X53556000Y-125178816D01*
X53523297Y-125343228D01*
X53459147Y-125498100D01*
X53366015Y-125637481D01*
X53247481Y-125756015D01*
X53108100Y-125849147D01*
X52953228Y-125913297D01*
X52788816Y-125946000D01*
X52621184Y-125946000D01*
X52456772Y-125913297D01*
X52301900Y-125849147D01*
X52162519Y-125756015D01*
X52043985Y-125637481D01*
X51950853Y-125498100D01*
X51886703Y-125343228D01*
X51854000Y-125178816D01*
X51854000Y-125011184D01*
X51886703Y-124846772D01*
X51950853Y-124691900D01*
X52043985Y-124552519D01*
X52162519Y-124433985D01*
X52301900Y-124340853D01*
X52456772Y-124276703D01*
X52621184Y-124244000D01*
X52788816Y-124244000D01*
X52953228Y-124276703D01*
G37*
G36*
X65653228Y-124276703D02*
G01*
X65808100Y-124340853D01*
X65947481Y-124433985D01*
X66066015Y-124552519D01*
X66159147Y-124691900D01*
X66223297Y-124846772D01*
X66256000Y-125011184D01*
X66256000Y-125178816D01*
X66223297Y-125343228D01*
X66159147Y-125498100D01*
X66066015Y-125637481D01*
X65947481Y-125756015D01*
X65808100Y-125849147D01*
X65653228Y-125913297D01*
X65488816Y-125946000D01*
X65321184Y-125946000D01*
X65156772Y-125913297D01*
X65001900Y-125849147D01*
X64862519Y-125756015D01*
X64743985Y-125637481D01*
X64650853Y-125498100D01*
X64586703Y-125343228D01*
X64554000Y-125178816D01*
X64554000Y-125011184D01*
X64586703Y-124846772D01*
X64650853Y-124691900D01*
X64743985Y-124552519D01*
X64862519Y-124433985D01*
X65001900Y-124340853D01*
X65156772Y-124276703D01*
X65321184Y-124244000D01*
X65488816Y-124244000D01*
X65653228Y-124276703D01*
G37*
G36*
X115103228Y-124276703D02*
G01*
X115258100Y-124340853D01*
X115397481Y-124433985D01*
X115516015Y-124552519D01*
X115609147Y-124691900D01*
X115673297Y-124846772D01*
X115706000Y-125011184D01*
X115706000Y-125178816D01*
X115673297Y-125343228D01*
X115609147Y-125498100D01*
X115516015Y-125637481D01*
X115397481Y-125756015D01*
X115258100Y-125849147D01*
X115103228Y-125913297D01*
X114938816Y-125946000D01*
X114771184Y-125946000D01*
X114606772Y-125913297D01*
X114451900Y-125849147D01*
X114312519Y-125756015D01*
X114193985Y-125637481D01*
X114100853Y-125498100D01*
X114036703Y-125343228D01*
X114004000Y-125178816D01*
X114004000Y-125011184D01*
X114036703Y-124846772D01*
X114100853Y-124691900D01*
X114193985Y-124552519D01*
X114312519Y-124433985D01*
X114451900Y-124340853D01*
X114606772Y-124276703D01*
X114771184Y-124244000D01*
X114938816Y-124244000D01*
X115103228Y-124276703D01*
G37*
G36*
X70733228Y-124276703D02*
G01*
X70888100Y-124340853D01*
X71027481Y-124433985D01*
X71146015Y-124552519D01*
X71239147Y-124691900D01*
X71303297Y-124846772D01*
X71336000Y-125011184D01*
X71336000Y-125178816D01*
X71303297Y-125343228D01*
X71239147Y-125498100D01*
X71146015Y-125637481D01*
X71027481Y-125756015D01*
X70888100Y-125849147D01*
X70733228Y-125913297D01*
X70568816Y-125946000D01*
X70401184Y-125946000D01*
X70236772Y-125913297D01*
X70081900Y-125849147D01*
X69942519Y-125756015D01*
X69823985Y-125637481D01*
X69730853Y-125498100D01*
X69666703Y-125343228D01*
X69634000Y-125178816D01*
X69634000Y-125011184D01*
X69666703Y-124846772D01*
X69730853Y-124691900D01*
X69823985Y-124552519D01*
X69942519Y-124433985D01*
X70081900Y-124340853D01*
X70236772Y-124276703D01*
X70401184Y-124244000D01*
X70568816Y-124244000D01*
X70733228Y-124276703D01*
G37*
G36*
X78353228Y-124276703D02*
G01*
X78508100Y-124340853D01*
X78647481Y-124433985D01*
X78766015Y-124552519D01*
X78859147Y-124691900D01*
X78923297Y-124846772D01*
X78956000Y-125011184D01*
X78956000Y-125178816D01*
X78923297Y-125343228D01*
X78859147Y-125498100D01*
X78766015Y-125637481D01*
X78647481Y-125756015D01*
X78508100Y-125849147D01*
X78353228Y-125913297D01*
X78188816Y-125946000D01*
X78021184Y-125946000D01*
X77856772Y-125913297D01*
X77701900Y-125849147D01*
X77562519Y-125756015D01*
X77443985Y-125637481D01*
X77350853Y-125498100D01*
X77286703Y-125343228D01*
X77254000Y-125178816D01*
X77254000Y-125011184D01*
X77286703Y-124846772D01*
X77350853Y-124691900D01*
X77443985Y-124552519D01*
X77562519Y-124433985D01*
X77701900Y-124340853D01*
X77856772Y-124276703D01*
X78021184Y-124244000D01*
X78188816Y-124244000D01*
X78353228Y-124276703D01*
G37*
G36*
X58033228Y-124276703D02*
G01*
X58188100Y-124340853D01*
X58327481Y-124433985D01*
X58446015Y-124552519D01*
X58539147Y-124691900D01*
X58603297Y-124846772D01*
X58636000Y-125011184D01*
X58636000Y-125178816D01*
X58603297Y-125343228D01*
X58539147Y-125498100D01*
X58446015Y-125637481D01*
X58327481Y-125756015D01*
X58188100Y-125849147D01*
X58033228Y-125913297D01*
X57868816Y-125946000D01*
X57701184Y-125946000D01*
X57536772Y-125913297D01*
X57381900Y-125849147D01*
X57242519Y-125756015D01*
X57123985Y-125637481D01*
X57030853Y-125498100D01*
X56966703Y-125343228D01*
X56934000Y-125178816D01*
X56934000Y-125011184D01*
X56966703Y-124846772D01*
X57030853Y-124691900D01*
X57123985Y-124552519D01*
X57242519Y-124433985D01*
X57381900Y-124340853D01*
X57536772Y-124276703D01*
X57701184Y-124244000D01*
X57868816Y-124244000D01*
X58033228Y-124276703D01*
G37*
G36*
X103630589Y-123063876D02*
G01*
X103729893Y-123083629D01*
X103870206Y-123141748D01*
X103996484Y-123226125D01*
X104103875Y-123333516D01*
X104188252Y-123459794D01*
X104246371Y-123600107D01*
X104276000Y-123749063D01*
X104276000Y-123900937D01*
X104246371Y-124049893D01*
X104188252Y-124190206D01*
X104103875Y-124316484D01*
X103996484Y-124423875D01*
X103870206Y-124508252D01*
X103729893Y-124566371D01*
X103630589Y-124586124D01*
X103580938Y-124596000D01*
X103429062Y-124596000D01*
X103379411Y-124586124D01*
X103280107Y-124566371D01*
X103139794Y-124508252D01*
X103013516Y-124423875D01*
X102906125Y-124316484D01*
X102821748Y-124190206D01*
X102763629Y-124049893D01*
X102734000Y-123900937D01*
X102734000Y-123749063D01*
X102763629Y-123600107D01*
X102821748Y-123459794D01*
X102906125Y-123333516D01*
X103013516Y-123226125D01*
X103139794Y-123141748D01*
X103280107Y-123083629D01*
X103379411Y-123063876D01*
X103429062Y-123054000D01*
X103580938Y-123054000D01*
X103630589Y-123063876D01*
G37*
G36*
X98550589Y-120523876D02*
G01*
X98649893Y-120543629D01*
X98790206Y-120601748D01*
X98916484Y-120686125D01*
X99023875Y-120793516D01*
X99108252Y-120919794D01*
X99166371Y-121060107D01*
X99196000Y-121209063D01*
X99196000Y-121360937D01*
X99166371Y-121509893D01*
X99108252Y-121650206D01*
X99023875Y-121776484D01*
X98916484Y-121883875D01*
X98790206Y-121968252D01*
X98649893Y-122026371D01*
X98550589Y-122046124D01*
X98500938Y-122056000D01*
X98349062Y-122056000D01*
X98299411Y-122046124D01*
X98200107Y-122026371D01*
X98059794Y-121968252D01*
X97933516Y-121883875D01*
X97826125Y-121776484D01*
X97741748Y-121650206D01*
X97683629Y-121509893D01*
X97654000Y-121360937D01*
X97654000Y-121209063D01*
X97683629Y-121060107D01*
X97741748Y-120919794D01*
X97826125Y-120793516D01*
X97933516Y-120686125D01*
X98059794Y-120601748D01*
X98200107Y-120543629D01*
X98299411Y-120523876D01*
X98349062Y-120514000D01*
X98500938Y-120514000D01*
X98550589Y-120523876D01*
G37*
G36*
X40906000Y-120916000D02*
G01*
X39104000Y-120916000D01*
X39104000Y-119114000D01*
X40906000Y-119114000D01*
X40906000Y-120916000D01*
G37*
G36*
X45333228Y-119196703D02*
G01*
X45488100Y-119260853D01*
X45627481Y-119353985D01*
X45746015Y-119472519D01*
X45839147Y-119611900D01*
X45903297Y-119766772D01*
X45936000Y-119931184D01*
X45936000Y-120098816D01*
X45903297Y-120263228D01*
X45839147Y-120418100D01*
X45746015Y-120557481D01*
X45627481Y-120676015D01*
X45488100Y-120769147D01*
X45333228Y-120833297D01*
X45168816Y-120866000D01*
X45001184Y-120866000D01*
X44836772Y-120833297D01*
X44681900Y-120769147D01*
X44542519Y-120676015D01*
X44423985Y-120557481D01*
X44330853Y-120418100D01*
X44266703Y-120263228D01*
X44234000Y-120098816D01*
X44234000Y-119931184D01*
X44266703Y-119766772D01*
X44330853Y-119611900D01*
X44423985Y-119472519D01*
X44542519Y-119353985D01*
X44681900Y-119260853D01*
X44836772Y-119196703D01*
X45001184Y-119164000D01*
X45168816Y-119164000D01*
X45333228Y-119196703D01*
G37*
G36*
X83433228Y-119196703D02*
G01*
X83588100Y-119260853D01*
X83727481Y-119353985D01*
X83846015Y-119472519D01*
X83939147Y-119611900D01*
X84003297Y-119766772D01*
X84036000Y-119931184D01*
X84036000Y-120098816D01*
X84003297Y-120263228D01*
X83939147Y-120418100D01*
X83846015Y-120557481D01*
X83727481Y-120676015D01*
X83588100Y-120769147D01*
X83433228Y-120833297D01*
X83268816Y-120866000D01*
X83101184Y-120866000D01*
X82936772Y-120833297D01*
X82781900Y-120769147D01*
X82642519Y-120676015D01*
X82523985Y-120557481D01*
X82430853Y-120418100D01*
X82366703Y-120263228D01*
X82334000Y-120098816D01*
X82334000Y-119931184D01*
X82366703Y-119766772D01*
X82430853Y-119611900D01*
X82523985Y-119472519D01*
X82642519Y-119353985D01*
X82781900Y-119260853D01*
X82936772Y-119196703D01*
X83101184Y-119164000D01*
X83268816Y-119164000D01*
X83433228Y-119196703D01*
G37*
G36*
X78353228Y-119196703D02*
G01*
X78508100Y-119260853D01*
X78647481Y-119353985D01*
X78766015Y-119472519D01*
X78859147Y-119611900D01*
X78923297Y-119766772D01*
X78956000Y-119931184D01*
X78956000Y-120098816D01*
X78923297Y-120263228D01*
X78859147Y-120418100D01*
X78766015Y-120557481D01*
X78647481Y-120676015D01*
X78508100Y-120769147D01*
X78353228Y-120833297D01*
X78188816Y-120866000D01*
X78021184Y-120866000D01*
X77856772Y-120833297D01*
X77701900Y-120769147D01*
X77562519Y-120676015D01*
X77443985Y-120557481D01*
X77350853Y-120418100D01*
X77286703Y-120263228D01*
X77254000Y-120098816D01*
X77254000Y-119931184D01*
X77286703Y-119766772D01*
X77350853Y-119611900D01*
X77443985Y-119472519D01*
X77562519Y-119353985D01*
X77701900Y-119260853D01*
X77856772Y-119196703D01*
X78021184Y-119164000D01*
X78188816Y-119164000D01*
X78353228Y-119196703D01*
G37*
G36*
X70733228Y-119196703D02*
G01*
X70888100Y-119260853D01*
X71027481Y-119353985D01*
X71146015Y-119472519D01*
X71239147Y-119611900D01*
X71303297Y-119766772D01*
X71336000Y-119931184D01*
X71336000Y-120098816D01*
X71303297Y-120263228D01*
X71239147Y-120418100D01*
X71146015Y-120557481D01*
X71027481Y-120676015D01*
X70888100Y-120769147D01*
X70733228Y-120833297D01*
X70568816Y-120866000D01*
X70401184Y-120866000D01*
X70236772Y-120833297D01*
X70081900Y-120769147D01*
X69942519Y-120676015D01*
X69823985Y-120557481D01*
X69730853Y-120418100D01*
X69666703Y-120263228D01*
X69634000Y-120098816D01*
X69634000Y-119931184D01*
X69666703Y-119766772D01*
X69730853Y-119611900D01*
X69823985Y-119472519D01*
X69942519Y-119353985D01*
X70081900Y-119260853D01*
X70236772Y-119196703D01*
X70401184Y-119164000D01*
X70568816Y-119164000D01*
X70733228Y-119196703D01*
G37*
G36*
X115103228Y-119196703D02*
G01*
X115258100Y-119260853D01*
X115397481Y-119353985D01*
X115516015Y-119472519D01*
X115609147Y-119611900D01*
X115673297Y-119766772D01*
X115706000Y-119931184D01*
X115706000Y-120098816D01*
X115673297Y-120263228D01*
X115609147Y-120418100D01*
X115516015Y-120557481D01*
X115397481Y-120676015D01*
X115258100Y-120769147D01*
X115103228Y-120833297D01*
X114938816Y-120866000D01*
X114771184Y-120866000D01*
X114606772Y-120833297D01*
X114451900Y-120769147D01*
X114312519Y-120676015D01*
X114193985Y-120557481D01*
X114100853Y-120418100D01*
X114036703Y-120263228D01*
X114004000Y-120098816D01*
X114004000Y-119931184D01*
X114036703Y-119766772D01*
X114100853Y-119611900D01*
X114193985Y-119472519D01*
X114312519Y-119353985D01*
X114451900Y-119260853D01*
X114606772Y-119196703D01*
X114771184Y-119164000D01*
X114938816Y-119164000D01*
X115103228Y-119196703D01*
G37*
G36*
X91053228Y-119196703D02*
G01*
X91208100Y-119260853D01*
X91347481Y-119353985D01*
X91466015Y-119472519D01*
X91559147Y-119611900D01*
X91623297Y-119766772D01*
X91656000Y-119931184D01*
X91656000Y-120098816D01*
X91623297Y-120263228D01*
X91559147Y-120418100D01*
X91466015Y-120557481D01*
X91347481Y-120676015D01*
X91208100Y-120769147D01*
X91053228Y-120833297D01*
X90888816Y-120866000D01*
X90721184Y-120866000D01*
X90556772Y-120833297D01*
X90401900Y-120769147D01*
X90262519Y-120676015D01*
X90143985Y-120557481D01*
X90050853Y-120418100D01*
X89986703Y-120263228D01*
X89954000Y-120098816D01*
X89954000Y-119931184D01*
X89986703Y-119766772D01*
X90050853Y-119611900D01*
X90143985Y-119472519D01*
X90262519Y-119353985D01*
X90401900Y-119260853D01*
X90556772Y-119196703D01*
X90721184Y-119164000D01*
X90888816Y-119164000D01*
X91053228Y-119196703D01*
G37*
G36*
X110103228Y-119196703D02*
G01*
X110258100Y-119260853D01*
X110397481Y-119353985D01*
X110516015Y-119472519D01*
X110609147Y-119611900D01*
X110673297Y-119766772D01*
X110706000Y-119931184D01*
X110706000Y-120098816D01*
X110673297Y-120263228D01*
X110609147Y-120418100D01*
X110516015Y-120557481D01*
X110397481Y-120676015D01*
X110258100Y-120769147D01*
X110103228Y-120833297D01*
X109938816Y-120866000D01*
X109771184Y-120866000D01*
X109606772Y-120833297D01*
X109451900Y-120769147D01*
X109312519Y-120676015D01*
X109193985Y-120557481D01*
X109100853Y-120418100D01*
X109036703Y-120263228D01*
X109004000Y-120098816D01*
X109004000Y-119931184D01*
X109036703Y-119766772D01*
X109100853Y-119611900D01*
X109193985Y-119472519D01*
X109312519Y-119353985D01*
X109451900Y-119260853D01*
X109606772Y-119196703D01*
X109771184Y-119164000D01*
X109938816Y-119164000D01*
X110103228Y-119196703D01*
G37*
G36*
X65653228Y-119196703D02*
G01*
X65808100Y-119260853D01*
X65947481Y-119353985D01*
X66066015Y-119472519D01*
X66159147Y-119611900D01*
X66223297Y-119766772D01*
X66256000Y-119931184D01*
X66256000Y-120098816D01*
X66223297Y-120263228D01*
X66159147Y-120418100D01*
X66066015Y-120557481D01*
X65947481Y-120676015D01*
X65808100Y-120769147D01*
X65653228Y-120833297D01*
X65488816Y-120866000D01*
X65321184Y-120866000D01*
X65156772Y-120833297D01*
X65001900Y-120769147D01*
X64862519Y-120676015D01*
X64743985Y-120557481D01*
X64650853Y-120418100D01*
X64586703Y-120263228D01*
X64554000Y-120098816D01*
X64554000Y-119931184D01*
X64586703Y-119766772D01*
X64650853Y-119611900D01*
X64743985Y-119472519D01*
X64862519Y-119353985D01*
X65001900Y-119260853D01*
X65156772Y-119196703D01*
X65321184Y-119164000D01*
X65488816Y-119164000D01*
X65653228Y-119196703D01*
G37*
G36*
X58033228Y-119196703D02*
G01*
X58188100Y-119260853D01*
X58327481Y-119353985D01*
X58446015Y-119472519D01*
X58539147Y-119611900D01*
X58603297Y-119766772D01*
X58636000Y-119931184D01*
X58636000Y-120098816D01*
X58603297Y-120263228D01*
X58539147Y-120418100D01*
X58446015Y-120557481D01*
X58327481Y-120676015D01*
X58188100Y-120769147D01*
X58033228Y-120833297D01*
X57868816Y-120866000D01*
X57701184Y-120866000D01*
X57536772Y-120833297D01*
X57381900Y-120769147D01*
X57242519Y-120676015D01*
X57123985Y-120557481D01*
X57030853Y-120418100D01*
X56966703Y-120263228D01*
X56934000Y-120098816D01*
X56934000Y-119931184D01*
X56966703Y-119766772D01*
X57030853Y-119611900D01*
X57123985Y-119472519D01*
X57242519Y-119353985D01*
X57381900Y-119260853D01*
X57536772Y-119196703D01*
X57701184Y-119164000D01*
X57868816Y-119164000D01*
X58033228Y-119196703D01*
G37*
G36*
X125263228Y-119196703D02*
G01*
X125418100Y-119260853D01*
X125557481Y-119353985D01*
X125676015Y-119472519D01*
X125769147Y-119611900D01*
X125833297Y-119766772D01*
X125866000Y-119931184D01*
X125866000Y-120098816D01*
X125833297Y-120263228D01*
X125769147Y-120418100D01*
X125676015Y-120557481D01*
X125557481Y-120676015D01*
X125418100Y-120769147D01*
X125263228Y-120833297D01*
X125098816Y-120866000D01*
X124931184Y-120866000D01*
X124766772Y-120833297D01*
X124611900Y-120769147D01*
X124472519Y-120676015D01*
X124353985Y-120557481D01*
X124260853Y-120418100D01*
X124196703Y-120263228D01*
X124164000Y-120098816D01*
X124164000Y-119931184D01*
X124196703Y-119766772D01*
X124260853Y-119611900D01*
X124353985Y-119472519D01*
X124472519Y-119353985D01*
X124611900Y-119260853D01*
X124766772Y-119196703D01*
X124931184Y-119164000D01*
X125098816Y-119164000D01*
X125263228Y-119196703D01*
G37*
G36*
X52953228Y-119196703D02*
G01*
X53108100Y-119260853D01*
X53247481Y-119353985D01*
X53366015Y-119472519D01*
X53459147Y-119611900D01*
X53523297Y-119766772D01*
X53556000Y-119931184D01*
X53556000Y-120098816D01*
X53523297Y-120263228D01*
X53459147Y-120418100D01*
X53366015Y-120557481D01*
X53247481Y-120676015D01*
X53108100Y-120769147D01*
X52953228Y-120833297D01*
X52788816Y-120866000D01*
X52621184Y-120866000D01*
X52456772Y-120833297D01*
X52301900Y-120769147D01*
X52162519Y-120676015D01*
X52043985Y-120557481D01*
X51950853Y-120418100D01*
X51886703Y-120263228D01*
X51854000Y-120098816D01*
X51854000Y-119931184D01*
X51886703Y-119766772D01*
X51950853Y-119611900D01*
X52043985Y-119472519D01*
X52162519Y-119353985D01*
X52301900Y-119260853D01*
X52456772Y-119196703D01*
X52621184Y-119164000D01*
X52788816Y-119164000D01*
X52953228Y-119196703D01*
G37*
G36*
X120263228Y-119196703D02*
G01*
X120418100Y-119260853D01*
X120557481Y-119353985D01*
X120676015Y-119472519D01*
X120769147Y-119611900D01*
X120833297Y-119766772D01*
X120866000Y-119931184D01*
X120866000Y-120098816D01*
X120833297Y-120263228D01*
X120769147Y-120418100D01*
X120676015Y-120557481D01*
X120557481Y-120676015D01*
X120418100Y-120769147D01*
X120263228Y-120833297D01*
X120098816Y-120866000D01*
X119931184Y-120866000D01*
X119766772Y-120833297D01*
X119611900Y-120769147D01*
X119472519Y-120676015D01*
X119353985Y-120557481D01*
X119260853Y-120418100D01*
X119196703Y-120263228D01*
X119164000Y-120098816D01*
X119164000Y-119931184D01*
X119196703Y-119766772D01*
X119260853Y-119611900D01*
X119353985Y-119472519D01*
X119472519Y-119353985D01*
X119611900Y-119260853D01*
X119766772Y-119196703D01*
X119931184Y-119164000D01*
X120098816Y-119164000D01*
X120263228Y-119196703D01*
G37*
G36*
X130423228Y-118561703D02*
G01*
X130578100Y-118625853D01*
X130717481Y-118718985D01*
X130836015Y-118837519D01*
X130929147Y-118976900D01*
X130993297Y-119131772D01*
X131026000Y-119296184D01*
X131026000Y-119463816D01*
X130993297Y-119628228D01*
X130929147Y-119783100D01*
X130836015Y-119922481D01*
X130717481Y-120041015D01*
X130578100Y-120134147D01*
X130423228Y-120198297D01*
X130258816Y-120231000D01*
X130091184Y-120231000D01*
X129926772Y-120198297D01*
X129771900Y-120134147D01*
X129632519Y-120041015D01*
X129513985Y-119922481D01*
X129420853Y-119783100D01*
X129356703Y-119628228D01*
X129324000Y-119463816D01*
X129324000Y-119296184D01*
X129356703Y-119131772D01*
X129420853Y-118976900D01*
X129513985Y-118837519D01*
X129632519Y-118718985D01*
X129771900Y-118625853D01*
X129926772Y-118561703D01*
X130091184Y-118529000D01*
X130258816Y-118529000D01*
X130423228Y-118561703D01*
G37*
M02*
